<?xml version="1.0" encoding="UTF-8" standalone="no"?>
<!DOCTYPE svg PUBLIC "-//W3C//DTD SVG 1.1//EN" "http://www.w3.org/Graphics/SVG/1.1/DTD/svg11.dtd">
<svg width="100%" height="100%" viewBox="0 0 1024 1024" version="1.1" xmlns="http://www.w3.org/2000/svg" xmlns:xlink="http://www.w3.org/1999/xlink" xml:space="preserve" xmlns:serif="http://www.serif.com/" style="fill-rule:evenodd;clip-rule:evenodd;stroke-linejoin:round;stroke-miterlimit:2;">
    <path d="M481.5,944.42C442.35,939.68 405.2,926.43 371.04,905.03L363.02,900L353.76,902.4C331.25,908.25 320.64,909.42 290,909.46C259.09,909.5 253.59,908.9 230.41,902.96C218.64,899.94 195.71,891.39 184.96,886C162.08,874.55 141.57,859.67 122.98,841.04C97.87,815.89 80.57,789.59 67.71,757C50.1,712.38 46.36,661.4 57.11,612.5C61.71,591.58 74.47,560.17 85.94,541.56C99.27,519.92 125.8,490.65 146,475.32C201.72,433.02 268.88,418.09 338.5,432.51C353.6,435.63 374.11,442.58 388.88,449.56C394.05,452 398.81,454 399.47,454C400.13,454 405.13,452.18 410.58,449.96C439.42,438.22 462.12,432.98 493,430.93C519.06,429.21 545.26,431.13 569.8,436.55C583.16,439.51 608.34,447.62 618.11,452.12L624.72,455.17L630.63,452.19C663.9,435.39 703.86,426.9 742.99,428.32C805.72,430.59 861.54,455.58 905.53,501.12C925.3,521.57 935.99,536.66 947.57,560.5C956.38,578.62 961.12,591.25 965.58,608.47C971.45,631.11 972.49,640.36 972.47,670C972.45,697.89 971.24,708.92 965.9,729.82C958.58,758.51 941.9,793.04 923.63,817.36C910.65,834.63 886.78,857.06 867.9,869.75C849.86,881.87 827.15,893.27 808.69,899.47C764.41,914.33 715.05,915.4 669.59,902.47L660.68,899.93L650.59,906.18C615.25,928.08 579.74,940.26 537.5,944.98C525.24,946.35 494.91,946.05 481.5,944.42ZM531.5,930.99C543.29,929.86 556.22,927.89 555.64,927.31C555.42,927.08 550.12,927.69 543.87,928.65C535.63,929.93 526.72,930.4 511.5,930.37C493.28,930.34 488.4,929.97 474.65,927.6C465.93,926.1 458.62,925.05 458.4,925.27C457.78,925.88 481.6,930.01 491,930.91C503.09,932.07 519.86,932.11 531.5,930.99ZM551.5,924.09C604.26,914.55 648.93,890.64 686.5,851.86C699.62,838.31 706.56,829.85 715.32,816.74C721.31,807.77 733.02,786.28 732.98,784.33C732.97,783.87 730.25,788.65 726.92,794.94C714.77,817.93 703.05,833.87 685.03,851.89C660.27,876.65 633.85,894.64 603.91,907.14C555.69,927.27 502.68,931.13 452,918.18C432.35,913.16 405.33,901.67 388.5,891.18C360.55,873.75 339.15,854.72 320.83,831C294.11,796.41 279.44,762.37 271.9,717.5C270.6,709.81 270.21,708.46 270.58,713C272.18,732.31 282.56,768.13 292.47,788.5C298.61,801.12 314.69,825.77 324.44,837.5C334.16,849.19 348.8,863.83 359.3,872.36C392.6,899.41 434.67,918.32 475,924.38C491.17,926.81 491.04,926.81 516,926.52C534.9,926.31 541.85,925.83 551.5,924.09ZM568.38,924.98C570.4,924.17 570.4,924.13 568.5,924.16C567.4,924.18 564.25,924.8 561.5,925.55L556.5,926.91L561.38,926.38C564.07,926.08 567.22,925.45 568.38,924.98ZM455,924C451.58,922.9 448.95,922.9 451.5,924C452.6,924.47 454.4,924.85 455.5,924.83C457.11,924.81 457.01,924.64 455,924ZM573.73,923.4C573.4,923.06 572.53,923.03 571.81,923.32C571.01,923.64 571.25,923.87 572.42,923.92C573.47,923.96 574.06,923.73 573.73,923.4ZM448.73,922.4C448.4,922.06 447.53,922.03 446.81,922.32C446.01,922.64 446.25,922.87 447.42,922.92C448.47,922.96 449.06,922.73 448.73,922.4ZM584.96,920.44C590.51,918.4 587.17,918.81 580.5,920.99C577.2,922.07 576.06,922.68 577.96,922.35C579.87,922.02 583.02,921.16 584.96,920.44ZM444.73,921.4C444.4,921.06 443.53,921.03 442.81,921.32C442.01,921.64 442.25,921.87 443.42,921.92C444.47,921.96 445.06,921.73 444.73,921.4ZM540,920.55C600.61,912.41 653.99,882.95 695.24,834.88C702.48,826.45 713.97,809.75 718.91,800.5C722.77,793.25 721.8,794.56 714.15,806.89C704.64,822.23 697.24,831.63 683.6,845.73C644.23,886.39 598.68,910.03 543,918.7C527.48,921.11 496.13,921.07 480,918.61C446.67,913.54 417.49,902.91 388.66,885.34C359.47,867.56 328.29,836.19 309.18,805.39C302.58,794.74 294.08,777.62 290,766.73C288.19,761.9 286.55,758.12 286.35,758.32C285.79,758.88 293.68,779.42 296.92,785.82C308.69,809.1 322.83,829.13 341.02,848.32C379.17,888.57 434.64,915.93 489,921.33C498.82,922.31 530.54,921.82 540,920.55ZM436.5,919C433.75,917.82 432.17,917.82 434,919C434.82,919.53 436.18,919.94 437,919.91C437.99,919.88 437.82,919.57 436.5,919ZM537,914.87C577.23,910.85 618.28,893.96 653,867.15C670.99,853.26 695.38,826.62 707.66,807.44C719.37,789.17 730.55,763.34 736,742C740.84,723.05 742.42,709.46 742.36,687.5C742.29,663.12 739.97,647.04 733.02,622.84C728.14,605.83 725.52,599.12 717.46,583C695.74,539.55 659.53,503.57 615.5,481.68C581.21,464.63 551.11,457.71 511,457.66C480.29,457.63 456.65,461.61 429.88,471.33C393.91,484.39 359.64,508.14 334.43,537.5C317.83,556.83 300.05,588.28 292.41,611.85C277.27,658.55 276.19,702.43 289.07,748.36C305.61,807.36 352.21,863.04 408.77,891.39C450.61,912.36 489.98,919.57 537,914.87ZM612,910C612.83,909.47 613.05,909.03 612.5,909.03C611.95,909.03 610.83,909.47 610,910C609.17,910.53 608.95,910.97 609.5,910.97C610.05,910.97 611.17,910.53 612,910ZM729.73,898.27C727.65,898.05 724.5,898.06 722.73,898.28C720.95,898.5 722.65,898.68 726.5,898.67C730.35,898.67 731.8,898.49 729.73,898.27ZM748.75,898.27C746.69,898.06 743.31,898.06 741.25,898.27C739.19,898.49 740.88,898.66 745,898.66C749.12,898.66 750.81,898.49 748.75,898.27ZM302.3,897.26C297.79,897.07 290.14,897.07 285.3,897.25C280.46,897.44 284.15,897.59 293.5,897.59C302.85,897.59 306.81,897.44 302.3,897.26ZM714.76,897.31C713.81,897.06 712.01,897.05 710.76,897.29C709.52,897.53 710.3,897.74 712.5,897.75C714.7,897.76 715.72,897.56 714.76,897.31ZM762.27,897.34C761.59,897.07 760.24,897.05 759.27,897.31C758.3,897.56 758.85,897.78 760.5,897.81C762.15,897.83 762.95,897.62 762.27,897.34ZM273.75,896.31C272.79,896.06 271.21,896.06 270.25,896.31C269.29,896.56 270.07,896.77 272,896.77C273.93,896.77 274.71,896.56 273.75,896.31ZM317.25,896.29C316.01,896.06 313.99,896.06 312.75,896.29C311.51,896.53 312.52,896.73 315,896.73C317.48,896.73 318.49,896.53 317.25,896.29ZM705.73,896.4C705.4,896.06 704.53,896.03 703.81,896.32C703.01,896.64 703.25,896.87 704.42,896.92C705.47,896.96 706.06,896.73 705.73,896.4ZM769.27,896.34C768.59,896.07 767.24,896.05 766.27,896.31C765.3,896.56 765.85,896.78 767.5,896.81C769.15,896.83 769.95,896.62 769.27,896.34ZM265.27,895.34C264.59,895.07 263.24,895.05 262.27,895.31C261.3,895.56 261.85,895.78 263.5,895.81C265.15,895.83 265.95,895.62 265.27,895.34ZM325.73,895.4C325.4,895.06 324.53,895.03 323.81,895.32C323.01,895.64 323.25,895.87 324.42,895.92C325.47,895.96 326.06,895.73 325.73,895.4ZM699.25,895.34C698.56,895.06 697.44,895.06 696.75,895.34C696.06,895.62 696.62,895.84 698,895.84C699.38,895.84 699.94,895.62 699.25,895.34ZM774.25,895.34C773.56,895.06 772.44,895.06 771.75,895.34C771.06,895.62 771.62,895.84 773,895.84C774.38,895.84 774.94,895.62 774.25,895.34ZM259.27,894.34C258.59,894.07 257.24,894.05 256.27,894.31C255.3,894.56 255.85,894.78 257.5,894.81C259.15,894.83 259.95,894.62 259.27,894.34ZM501,894.39C459.73,890.75 426.33,879.56 395.91,859.16C347.42,826.66 315.29,777.88 304.43,720.31C302.22,708.61 301.34,672.88 302.96,660.56C306.92,630.33 318.33,599.12 334.78,573.5C362.89,529.73 408.67,497.11 459.65,484.55C492.42,476.47 528.93,476.5 561.95,484.63C605.15,495.27 646.15,519.93 672.27,551C688.8,570.65 703.68,596.94 711.33,620C718.08,640.35 720.25,653.84 720.75,678.5C721.1,695.51 720.83,703.22 719.55,712.5C713.09,759.17 691.76,801.54 658.36,834.04C639.82,852.08 623.08,863.82 600.76,874.45C573.88,887.25 549.09,893.21 518,894.33C511.12,894.58 503.48,894.6 501,894.39ZM694.73,894.4C694.4,894.06 693.53,894.03 692.81,894.32C692.01,894.64 692.25,894.87 693.42,894.92C694.47,894.96 695.06,894.73 694.73,894.4ZM759.03,893.97C808.09,888.04 853.08,866.42 888.83,831.61C905.56,815.32 923.69,791.89 930.47,777.78C933.41,771.69 932.6,772.72 926.8,782.5C902.87,822.8 863.49,857.59 821.5,875.52C797.26,885.87 776.19,891.1 750.57,893.13C728.65,894.87 707.25,892.82 681,886.47C679.18,886.03 678.91,886.12 680,886.82C682.67,888.52 699.08,892.19 709.93,893.5C723.08,895.1 747.79,895.33 759.03,893.97ZM248.5,892.52C238.64,890.35 236.42,889.95 238,890.66C241.12,892.06 248.62,893.82 251.5,893.83C253.29,893.84 252.09,893.31 248.5,892.52ZM331,890.95C337.88,889.75 344.18,888.34 345,887.82C346.58,886.82 346.71,886.8 331.34,889.49C309.58,893.31 281.2,893.29 258.14,889.45C212.28,881.82 169.2,859.21 134.44,824.53C99.65,789.81 77.81,748.63 70.11,703.18C65.76,677.54 65.41,661.81 68.48,630C68.72,627.52 68.22,629.1 67.37,633.5C66.3,639.05 65.79,648.09 65.72,663C65.64,680.98 65.98,686.63 67.84,697.5C72.4,724.19 78.45,743.11 89.16,764.23C100.39,786.38 113.17,804.55 129.93,822.21C158.2,851.98 197.11,874.99 239.5,887.02C264.06,893.99 303.84,895.7 331,890.95ZM338.73,893.4C338.4,893.06 337.53,893.03 336.81,893.32C336.01,893.64 336.25,893.87 337.42,893.92C338.47,893.96 339.06,893.73 338.73,893.4ZM646,891.43C646,891.15 645.1,891.41 644,892C642.9,892.59 642,893.3 642,893.57C642,893.85 642.9,893.59 644,893C645.1,892.41 646,891.7 646,891.43ZM689.73,893.4C689.4,893.06 688.53,893.03 687.81,893.32C687.01,893.64 687.25,893.87 688.42,893.92C689.47,893.96 690.06,893.73 689.73,893.4ZM789.5,892.53C794.87,890.76 792.76,890.69 786.5,892.43C783.75,893.2 782.4,893.83 783.5,893.83C784.6,893.84 787.3,893.25 789.5,892.53ZM343.73,892.4C343.4,892.06 342.53,892.03 341.81,892.32C341.01,892.64 341.25,892.87 342.42,892.92C343.47,892.96 344.06,892.73 343.73,892.4ZM685.73,892.4C685.4,892.06 684.53,892.03 683.81,892.32C683.01,892.64 683.25,892.87 684.42,892.92C685.47,892.96 686.06,892.73 685.73,892.4ZM348.73,891.4C348.4,891.06 347.53,891.03 346.81,891.32C346.01,891.64 346.25,891.87 347.42,891.92C348.47,891.96 349.06,891.73 348.73,891.4ZM681.73,891.4C681.4,891.06 680.53,891.03 679.81,891.32C679.01,891.64 679.25,891.87 680.42,891.92C681.47,891.96 682.06,891.73 681.73,891.4ZM677.73,890.4C677.4,890.06 676.53,890.03 675.81,890.32C675.01,890.64 675.25,890.87 676.42,890.92C677.47,890.96 678.06,890.73 677.73,890.4ZM798.5,890C799.76,889.46 799.95,889.14 799,889.14C798.17,889.14 796.6,889.53 795.5,890C794.24,890.54 794.05,890.86 795,890.86C795.83,890.86 797.4,890.47 798.5,890ZM235.73,889.4C235.4,889.06 234.53,889.03 233.81,889.32C233.01,889.64 233.25,889.87 234.42,889.92C235.47,889.96 236.06,889.73 235.73,889.4ZM772.42,887.09C829.43,875.33 875.34,845.87 911.52,797.85C915.62,792.4 919.71,786.49 920.6,784.72C922.94,780.1 921.04,782.35 915.1,791.26C900.94,812.5 874.07,839.07 852.5,853.15C812.54,879.25 765.77,891.72 721.25,888.14C708.67,887.12 702.02,886.05 685,882.28C683.62,881.98 682.78,882.03 683.13,882.41C684.06,883.42 699.18,886.92 709.5,888.52C723.06,890.62 759.32,889.79 772.42,887.09ZM329.97,886.04C336.28,884.86 341.68,883.63 341.97,883.31C342.26,882.98 340.7,883.01 338.5,883.38C336.3,883.74 330,884.78 324.5,885.68C310.21,888.03 279.07,888 264.5,885.64C239.45,881.57 217.38,874.42 197.07,863.8C176.99,853.3 161.5,842.54 145.37,827.89C118.56,803.54 94.01,766.99 83.97,736.5C82.71,732.65 81.5,730 81.3,730.6C80.63,732.6 87.24,749.22 93.65,761.69C97.12,768.43 103.43,779.21 107.66,785.65C142.71,838.94 201.34,877.36 261.5,886.44C277.27,888.82 277.44,888.83 298.5,888.5C313.65,888.26 321.28,887.66 329.97,886.04ZM227,887C226.18,886.47 224.82,886.06 224,886.09C223.01,886.12 223.18,886.43 224.5,887C227.25,888.18 228.83,888.18 227,887ZM520.25,885.26C515.71,885.07 508.29,885.07 503.75,885.26C499.21,885.44 502.93,885.59 512,885.59C521.08,885.59 524.79,885.44 520.25,885.26ZM492.27,884.34C491.59,884.07 490.24,884.05 489.27,884.31C488.3,884.56 488.85,884.78 490.5,884.81C492.15,884.83 492.95,884.62 492.27,884.34ZM535.27,884.34C534.59,884.07 533.24,884.05 532.27,884.31C531.3,884.56 531.85,884.78 533.5,884.81C535.15,884.83 535.95,884.62 535.27,884.34ZM765.82,882.43C822.24,874.05 876.12,839.08 910.52,788.5C922.83,770.39 934.94,743.25 940.45,721.37C946.05,699.15 948.48,665.98 946.05,645C940.07,593.25 917.29,546.97 880.85,512.5C848.06,481.48 805.09,461.2 760,455.45C741.61,453.11 716.19,453.87 696,457.38C682.08,459.79 660.57,465.68 654.7,468.68L651.89,470.11L661.04,476.58L670.18,483.05L677.74,480.52C701.88,472.41 735.02,470.01 762.5,474.39C820.71,483.67 868.56,513.6 898.54,559.5C907.77,573.62 912.64,583.39 918.43,599.35C926.83,622.53 929.95,640.42 929.98,665.53C930.01,690.58 927.7,705.63 920.36,728.25C900.67,788.87 847.84,840.46 787.43,858.06C761.63,865.57 731.74,867.79 709.14,863.86L702.79,862.76L694.89,870.61C685.79,879.66 685.47,879.02 700.3,881.54C722.04,885.23 744.85,885.54 765.82,882.43ZM324.49,881.36C330.53,880.53 335.69,879.65 335.94,879.39C336.2,879.13 332.8,875.32 328.39,870.91L320.37,862.89L310.08,863.94C286.41,866.37 263.17,863.8 237.6,855.91C169.16,834.78 118.61,781.59 100.63,711.79C94.18,686.75 93.24,651.53 98.37,627.5C103.59,603.06 113.94,577.66 126.6,558.2C136.07,543.65 150.22,527.43 162.5,517.08C191.43,492.68 224.07,477.77 262.5,471.4C287.91,467.19 326.89,470.54 350.82,478.98L356.13,480.86L364.11,475.24C373.31,468.76 373.74,469.57 358.2,464.03C334.49,455.57 313.25,452.51 283.6,453.27C257.01,453.95 238.75,457.27 216.5,465.45C173.22,481.37 136.32,511.09 111.47,550.06C90.62,582.77 78.87,620.13 77.36,658.5C75.19,713.67 92.04,760.4 130.55,806C152.74,832.28 187.04,856.69 220.5,870.01C236.14,876.23 261,881.65 282,883.4C289.77,884.04 313.04,882.93 324.49,881.36ZM483.73,883.4C483.4,883.06 482.53,883.03 481.81,883.32C481.01,883.64 481.25,883.87 482.42,883.92C483.47,883.96 484.06,883.73 483.73,883.4ZM543.27,883.34C542.59,883.07 541.24,883.05 540.27,883.31C539.3,883.56 539.85,883.78 541.5,883.81C543.15,883.83 543.95,883.62 543.27,883.34ZM477.73,882.4C477.4,882.06 476.53,882.03 475.81,882.32C475.01,882.64 475.25,882.87 476.42,882.92C477.47,882.96 478.06,882.73 477.73,882.4ZM549.25,882.34C548.56,882.06 547.44,882.06 546.75,882.34C546.06,882.62 546.62,882.84 548,882.84C549.38,882.84 549.94,882.62 549.25,882.34ZM543.91,878.94C581.15,872.6 612.21,857.73 642.64,831.65C665.32,812.22 681.86,789.99 693.97,762.68C696.85,756.19 699.01,750.68 698.78,750.45C698.55,750.21 697.31,752.61 696.03,755.76C680.68,793.56 655.85,823.54 620.2,847.3C594.04,864.74 565.65,875.17 533.69,879.07C519.43,880.81 490.38,879.79 476.77,877.08C440.66,869.87 411.23,855.6 383.26,831.73C365.56,816.63 353.62,802.17 338.63,777.74C334.84,771.56 332.04,767.4 332.41,768.5C333.73,772.44 345.63,791.39 352.42,800.36C376.56,832.25 409.14,856.72 444.59,869.56C457.72,874.32 476.89,878.92 490.48,880.57C505.07,882.35 527.99,881.65 543.91,878.94ZM553.73,881.4C553.4,881.06 552.53,881.03 551.81,881.32C551.01,881.64 551.25,881.87 552.42,881.92C553.47,881.96 554.06,881.73 553.73,881.4ZM560.5,880C561.76,879.46 561.95,879.14 561,879.14C560.17,879.14 558.6,879.53 557.5,880C556.24,880.54 556.05,880.86 557,880.86C557.83,880.86 559.4,880.47 560.5,880ZM824.49,880.01C824.84,879.44 824.44,879.28 823.55,879.62C821.82,880.28 821.5,881 822.94,881C823.46,881 824.16,880.56 824.49,880.01ZM206,879C205.18,878.47 204.05,878.03 203.5,878.03C202.95,878.03 203.18,878.47 204,879C204.82,879.53 205.95,879.97 206.5,879.97C207.05,879.97 206.82,879.53 206,879ZM664.13,878.25C665.37,876.66 665.34,876.63 663.75,877.87C662.79,878.63 662,879.41 662,879.62C662,880.45 662.82,879.92 664.13,878.25ZM199.92,876.64C199.69,876.43 198.38,875.74 197,875.08C194.64,873.96 194.61,873.98 196.44,875.44C198.03,876.72 201.29,877.84 199.92,876.64ZM541.5,874.57C589.05,867.13 634.73,839.84 665.45,800.5C671.1,793.27 671.29,793 670.78,793C670.53,793 667.34,796.77 663.69,801.38C656.62,810.29 640.24,826.39 631.06,833.45C600.74,856.75 570.14,869.35 533.54,873.61C488.64,878.83 444.07,867.9 405.5,842.2C378.76,824.39 357.63,801.52 342.17,773.66C335.25,761.2 333.28,758.52 338,768C352.67,797.45 377.13,825.32 403.93,843.11C430.51,860.75 459.33,871.62 489.93,875.54C502.91,877.2 527.62,876.73 541.5,874.57ZM669.5,874C670.5,872.9 671.08,872 670.81,872C670.53,872 669.5,872.9 668.5,874C667.5,875.1 666.92,876 667.19,876C667.47,876 668.5,875.1 669.5,874ZM675.56,868.75L678.5,865.5L675.25,868.44C672.22,871.17 671.54,872 672.31,872C672.49,872 673.95,870.54 675.56,868.75ZM533.83,869.52C572.37,864.44 604.24,850.17 633.55,824.87C669.82,793.55 691.18,753.46 697.06,705.68C698.79,691.56 697.79,663.34 695.09,650.32C688.13,616.79 676.5,592.29 655.66,567.26C627.16,533.03 583.22,508.77 538.22,502.43C524.28,500.47 495.67,500.5 482.62,502.48C452.22,507.12 422.64,519.46 399.12,537.32C373.05,557.12 351.91,583.95 339.49,613C312.58,675.97 321.98,744.29 365.02,798.5C406.3,850.49 471.18,877.79 533.83,869.52ZM184,868.54C184,868.28 182.99,867.58 181.75,866.98C179.59,865.93 179.58,865.95 181.44,867.44C183.48,869.08 184,869.3 184,868.54ZM423,864.61C423,864.39 422.3,863.95 421.45,863.62C420.56,863.28 420.16,863.44 420.51,864.01C421.09,864.96 423,865.42 423,864.61ZM736.77,857.29C735.27,857.06 732.57,857.05 730.77,857.28C728.97,857.5 730.2,857.68 733.5,857.69C736.8,857.7 738.27,857.51 736.77,857.29ZM289.26,856.3C288.03,856.06 285.78,856.05 284.26,856.28C282.74,856.51 283.75,856.71 286.5,856.71C289.25,856.72 290.49,856.53 289.26,856.3ZM307.75,856.27C305.69,856.06 302.31,856.06 300.25,856.27C298.19,856.49 299.88,856.66 304,856.66C308.12,856.66 309.81,856.49 307.75,856.27ZM718.75,856.31C717.79,856.06 716.21,856.06 715.25,856.31C714.29,856.56 715.08,856.77 717,856.77C718.92,856.77 719.71,856.56 718.75,856.31ZM754.73,856.4C754.4,856.06 753.53,856.03 752.81,856.32C752.01,856.64 752.25,856.87 753.42,856.92C754.47,856.96 755.06,856.73 754.73,856.4ZM274.25,855.34C273.56,855.06 272.44,855.06 271.75,855.34C271.06,855.62 271.62,855.84 273,855.84C274.38,855.84 274.94,855.62 274.25,855.34ZM268.73,854.4C268.4,854.06 267.53,854.03 266.81,854.32C266.01,854.64 266.25,854.87 267.42,854.92C268.47,854.96 269.06,854.73 268.73,854.4ZM768.73,854.4C768.4,854.06 767.53,854.03 766.81,854.32C766.01,854.64 766.25,854.87 767.42,854.92C768.47,854.96 769.06,854.73 768.73,854.4ZM160,853.62C160,853.41 159.21,852.63 158.25,851.87C156.66,850.63 156.63,850.66 157.87,852.25C159.18,853.92 160,854.45 160,853.62ZM773.73,853.4C773.4,853.06 772.53,853.03 771.81,853.32C771.01,853.64 771.25,853.87 772.42,853.92C773.47,853.96 774.06,853.73 773.73,853.4ZM306.5,851.98C310.09,851.37 308.55,851.28 301,851.64C273.25,853 237.15,844.55 210.07,830.35C194.51,822.19 188.4,818.05 175.42,806.84C156.57,790.57 141.79,772.89 131.04,753.75C127.1,746.74 126.03,746.16 129.44,752.88C140.83,775.36 166.18,803.32 190.5,820.24C210.48,834.13 241.34,846.37 266.51,850.39C282.92,853.01 297.09,853.57 306.5,851.98ZM767.16,850.64C800.97,844.32 839.95,822.62 865.5,795.87C873.81,787.18 884.34,774.56 887.54,769.45C890.26,765.12 889.15,766.37 879.98,777.92C860.61,802.34 839.11,819.96 812.34,833.37C798.47,840.32 793.33,842.35 780.35,846C764.3,850.5 748.33,852.32 729,851.83C719.93,851.6 713.85,851.74 715.5,852.14C720.88,853.46 757.84,852.38 767.16,850.64ZM156,850.62C156,850.41 154.31,849.03 152.25,847.55L148.5,844.86L151.96,847.93C155.37,850.95 156,851.37 156,850.62ZM786.5,850C787.82,849.43 787.99,849.12 787,849.09C786.17,849.06 784.83,849.47 784,850C782.17,851.18 783.75,851.18 786.5,850ZM763.99,845.94C776.45,843.68 784.71,841.35 795.26,837.12C825.35,825.06 853.96,803.78 873.56,778.9C875.03,777.03 873.62,778.42 870.43,782C832.01,825.08 783.75,847.57 731,846.99C716.19,846.82 714.19,847.09 723,848.06C732.59,849.12 752.01,848.12 763.99,845.94ZM305.63,847.3C305.25,846.91 299.66,846.47 293.21,846.33C248.87,845.3 207.23,828.71 174.02,798.83C156.13,782.72 144.78,768.1 132.25,745.01C124.78,731.24 123.95,731.18 131.01,744.93C142.25,766.8 154.93,783.35 173,799.74C201.08,825.2 234.53,841.07 271.47,846.47C281.02,847.86 306.82,848.49 305.63,847.3ZM303,842.36C303,842 299.6,836.59 295.46,830.34C276.84,802.27 263.5,770.31 257.1,738.5C245.76,682.03 254.16,618.81 279.23,572C292.98,546.32 305.73,528.55 323.73,509.94L335.95,497.3L332.23,496.19C318.81,492.19 290.62,490.07 275.42,491.92C257.75,494.07 233.83,500.58 218.88,507.33C210.93,510.91 194.09,521.05 186.73,526.68C177.39,533.83 161.61,549.45 154.36,558.72C132.01,587.32 119.47,620.92 117.39,657.78C115.92,683.86 123,716.08 135.62,740.69C163.27,794.62 210.62,830.02 269,840.42C273.68,841.26 279.3,842.1 281.5,842.3C288.87,842.97 303,843.01 303,842.36ZM765,840.12C799.44,832.87 831.53,814.74 857.5,787.85C883.74,760.68 899.04,730.93 905.59,694.3C908.06,680.52 908.1,652.26 905.66,637.69C897.58,589.29 866.65,544.28 824.36,519.39C792.2,500.46 753.32,491.03 720,494.08C708.53,495.13 691.89,497.86 690.83,498.87C690.46,499.21 693.56,503.1 697.72,507.5C739.3,551.54 762.55,599.51 770.15,657C771.77,669.25 771.75,706.61 770.12,719.5C765.18,758.48 750.88,796.56 728.72,829.69C724.75,835.64 721.11,841.12 720.62,841.89C719.25,844.06 752.59,842.73 765,840.12ZM387,841.65C387,841.47 385.99,840.45 384.75,839.4L382.5,837.5L384.4,839.75C386.2,841.86 387,842.46 387,841.65ZM427.31,793.05C420.09,788.64 420.27,784.81 429.11,754.15C439.25,718.96 443.11,704.81 442.78,703.93C442.63,703.51 437.93,699.19 432.35,694.33C379.27,648.17 378,646.87 378,638.65C378,634.17 379.52,630.78 382.32,629.03C383.85,628.07 397.19,626.8 427,624.77C455.06,622.86 469.88,621.47 470.63,620.69C471.25,620.03 473.59,614.77 475.83,609C482.44,591.98 499.64,549.54 501,546.92C501.68,545.59 503.4,543.26 504.81,541.75C508.13,538.19 513.72,537.97 517.46,541.25C519.92,543.41 526.89,559.34 545.09,604.38C549.58,615.49 552.1,620.51 553.5,621.09C554.6,621.54 566.75,622.61 580.5,623.45C624.49,626.17 636.44,627.13 639.2,628.18C645.77,630.67 647.37,639.97 642.45,647.07C639.6,651.19 600.43,687.08 587.7,697.25C584.07,700.15 581.09,703.32 581.06,704.33C581.03,705.33 585.81,722.66 591.69,742.83C597.6,763.08 602.41,781.44 602.44,783.83C602.49,787.48 602,788.61 599.29,791.03C594.88,794.98 590.3,795.67 584.85,793.23C580.01,791.07 551.83,775.21 527.86,761.16C519.26,756.12 511.91,752 511.53,752C511.14,752 502.2,757.1 491.66,763.34C464,779.7 442.79,791.77 438.65,793.5C433.88,795.49 431.15,795.39 427.31,793.05ZM725.05,789.9C726.2,787.65 726.97,785.63 726.76,785.43C726.55,785.22 725.4,787.06 724.2,789.52C721.48,795.13 722.21,795.46 725.05,789.9ZM432.39,785.02C431.23,784.55 429.98,783.39 429.62,782.44C429.25,781.49 428.67,781 428.32,781.35C427.36,782.3 431.07,786.01 432.9,785.94C434.01,785.89 433.85,785.61 432.39,785.02ZM591,785.61C591,785.39 590.3,784.95 589.45,784.62C588.56,784.28 588.16,784.44 588.51,785.01C589.09,785.96 591,786.42 591,785.61ZM677,784C677.59,782.9 677.85,782 677.57,782C677.3,782 676.59,782.9 676,784C675.41,785.1 675.15,786 675.43,786C675.7,786 676.41,785.1 677,784ZM595.13,783.25C596.37,781.66 596.34,781.63 594.75,782.87C593.79,783.63 593,784.41 593,784.62C593,785.45 593.82,784.92 595.13,783.25ZM729.93,778.5C729.93,777.95 729.29,778.62 728.5,780C727.71,781.38 727.07,782.95 727.07,783.5C727.07,784.05 727.71,783.38 728.5,782C729.29,780.62 729.93,779.05 729.93,778.5ZM739.95,767.62C750.54,739.02 755.89,704.3 754.22,675.11C753.53,663.11 753.47,663.78 752.91,689C752.36,713.83 752.12,716.48 749.07,731C745.77,746.72 739.69,767.08 735.37,776.87C734.07,779.83 733.02,782.53 733.04,782.87C733.14,784.37 736.49,776.96 739.95,767.62ZM452.5,770.48C461.85,765.07 474.9,757.45 481.5,753.53C488.1,749.61 497.63,744.02 502.68,741.12L511.85,735.84L532.18,747.57C543.35,754.02 555.65,761.21 559.5,763.54C572,771.1 590.26,781.08 590.73,780.6C590.99,780.35 589.36,779.2 587.11,778.06C582.3,775.6 568.18,767.45 536.21,748.68C523.41,741.15 512.38,735 511.71,735C511.05,735 506.68,737.31 502,740.13C484.28,750.81 440.91,776.08 437.53,777.69C435.59,778.61 434,779.76 434,780.24C434,780.72 434.34,780.93 434.75,780.71C435.16,780.49 443.15,775.88 452.5,770.48ZM924,779C924.59,777.9 924.85,777 924.57,777C924.3,777 923.59,777.9 923,779C922.41,780.1 922.15,781 922.43,781C922.7,781 923.41,780.1 924,779ZM574,776.53C574,776.26 572.65,775.35 571,774.5C567.24,772.56 567.01,773.4 570.75,775.43C573.89,777.13 574,777.17 574,776.53ZM435.91,772C435.88,771.01 435.57,771.18 435,772.5C433.82,775.25 433.82,776.83 435,775C435.53,774.17 435.94,772.83 435.91,772ZM588.44,768.06C587.49,764.7 586.54,762.13 586.32,762.35C586.1,762.57 586.69,765.5 587.62,768.88C588.56,772.25 589.51,774.82 589.74,774.59C589.97,774.37 589.38,771.43 588.44,768.06ZM879.13,772.25C880.37,770.66 880.34,770.63 878.75,771.87C877.79,772.63 877,773.41 877,773.62C877,774.45 877.82,773.92 879.13,772.25ZM567,772.54C567,772.28 565.99,771.58 564.75,770.98C562.59,769.93 562.58,769.95 564.44,771.44C566.48,773.08 567,773.3 567,772.54ZM930.55,766.9C931.97,764.1 932.97,761.63 932.76,761.43C932.56,761.22 931.18,763.52 929.71,766.53C928.23,769.54 927.23,772 927.49,772C927.75,772 929.13,769.71 930.55,766.9ZM936.99,765.36C939.98,758.76 940.89,755.86 938.89,759.3C937.06,762.44 933.01,772 933.5,772C933.77,772 935.33,769.01 936.99,765.36ZM436.68,767.81C436.36,767.01 436.13,767.25 436.08,768.42C436.04,769.47 436.27,770.06 436.6,769.73C436.94,769.4 436.97,768.53 436.68,767.81ZM736.5,761.99C737.88,757.95 738.97,754.17 738.93,753.57C738.86,752.63 735.43,761.81 733.47,768.17C731.77,773.67 734.23,768.68 736.5,761.99ZM886.33,762.02C889.43,756.77 887.44,758.76 883.59,764.75C881.56,767.91 880.95,769.27 882.23,767.77C883.5,766.26 885.35,763.67 886.33,762.02ZM452.88,764.92C468.45,755.34 508.55,731.74 510.56,730.98C511.76,730.52 513.14,730.53 513.62,730.99C514.11,731.46 519.35,734.59 525.28,737.94C531.21,741.3 542.69,748.01 550.78,752.85C567.98,763.14 579,769.29 579,768.62C579,768.36 570.11,762.87 559.25,756.42C548.39,749.97 533.49,741.13 526.14,736.76C518.2,732.05 512.05,729.01 510.99,729.29C508.34,729.99 445,767.78 445,768.67C445,769.53 446.76,768.69 452.88,764.92ZM441.35,752C441.68,750.08 441.07,751.2 440,754.5C438.93,757.8 437.83,761.85 437.56,763.5C437.29,765.15 437.9,764.02 438.91,761C439.92,757.98 441.02,753.92 441.35,752ZM555,765.54C555,765.28 553.99,764.58 552.75,763.98C550.59,762.93 550.58,762.95 552.44,764.44C554.48,766.08 555,766.3 555,765.54ZM896.53,754.75C898.5,751.04 899.87,748 899.57,748C899.27,748 897.69,750.59 896.05,753.75C894.42,756.91 892.11,761.08 890.93,763C888.85,766.39 888.85,766.42 890.87,764C892.02,762.62 894.57,758.46 896.53,754.75ZM330.67,762.75C330.37,762.06 328.09,756.33 325.6,750C323.12,743.67 321.06,739.01 321.04,739.62C320.96,741.91 329.72,764 330.7,764C330.98,764 330.97,763.44 330.67,762.75ZM549.45,762.16C547.75,760.65 541,756.82 541,757.36C541,757.65 542.91,759.03 545.25,760.43C549.57,763.02 551.17,763.68 549.45,762.16ZM334.12,758.33C332.94,756.3 332.66,756.95 333.62,759.46C333.97,760.36 334.46,760.88 334.72,760.62C334.97,760.36 334.71,759.33 334.12,758.33ZM577.03,728.94C572.05,711.72 568.22,696.88 568.51,695.96C568.8,695.04 570.54,693.21 572.38,691.89C576.95,688.61 603.52,665.16 619.76,650.08C628.78,641.69 632.7,637.43 631.81,636.97C630.65,636.36 584.2,632.96 555.94,631.41L545.39,630.83L540.75,619.67C538.2,613.53 531.78,597.92 526.47,585C521.16,572.08 515.49,558.6 513.87,555.05C510.93,548.63 510.91,548.61 509.59,551.16C508.86,552.57 503.01,566.95 496.58,583.11C475.72,635.59 477.81,630.97 475,631C472.86,631.03 440.21,633.25 407,635.62C401.77,635.99 396.6,636.67 395.5,637.12C394.29,637.63 395.87,637.75 399.5,637.44C402.8,637.15 421.68,635.81 441.46,634.45C461.24,633.09 477.7,631.65 478.05,631.24C478.84,630.33 484.13,617.39 495.52,588.5C507.72,557.57 510.08,552 510.96,552C511.38,552 516.95,564.71 523.33,580.25C529.72,595.79 537.14,613.67 539.83,620L544.73,631.5L551.62,632.2C555.4,632.58 566.6,633.38 576.5,633.97C619.64,636.55 631,637.4 631,638.02C631,638.39 625.78,643.37 619.4,649.09C598.91,667.49 583.71,680.97 575.25,688.25C570.71,692.16 567,695.86 567,696.49C567,697.11 570.88,711.1 575.62,727.56C580.36,744.03 584.47,758.31 584.75,759.29C585.02,760.27 585.44,760.89 585.67,760.67C585.89,760.44 582.01,746.16 577.03,728.94ZM474,745.46C485.82,738.43 498.97,730.47 503.21,727.77L510.92,722.86L517.71,726.64C521.44,728.72 535.25,736.86 548.39,744.73C561.53,752.61 572.45,758.88 572.66,758.67C572.86,758.47 570.13,748.22 566.57,735.9C563.02,723.58 558.93,709.04 557.49,703.6C554.95,694.03 554.93,693.63 556.68,691.94C557.68,690.97 564.37,685.08 571.55,678.84C578.73,672.6 589.73,663 595.99,657.5L607.38,647.5L598.44,646.76C593.52,646.36 577.84,645.37 563.6,644.58C544.58,643.51 537.48,642.78 536.87,641.81C536.42,641.09 530.53,626.67 523.78,609.76C517.02,592.85 511.27,579.02 511,579.01C510.73,579.01 509.07,582.94 507.33,587.75C505.59,592.56 502.07,601.9 499.5,608.5C496.93,615.1 492.97,625.58 490.69,631.79C487.49,640.5 486.08,643.17 484.52,643.48C483.41,643.7 469.72,644.63 454.1,645.54C438.47,646.46 423.7,647.5 421.27,647.86L416.84,648.5L425.17,655.62C438.3,666.84 458.05,683.92 463.25,688.56C465.86,690.9 468,693.53 468,694.41C468,696.43 463.27,714.54 458.45,731C454.27,745.26 451.04,757.12 451.02,758.31C451.01,758.75 451.34,758.92 451.75,758.68C452.16,758.44 462.18,752.49 474,745.46ZM285.68,754.81C285.36,754.01 285.13,754.25 285.08,755.42C285.04,756.47 285.27,757.06 285.6,756.73C285.94,756.4 285.97,755.53 285.68,754.81ZM942.93,751.5C942.93,750.95 942.29,751.62 941.5,753C940.71,754.38 940.07,755.95 940.07,756.5C940.07,757.05 940.71,756.38 941.5,755C942.29,753.62 942.93,752.05 942.93,751.5ZM538,755.54C538,755.28 536.99,754.58 535.75,753.98C533.59,752.93 533.58,752.95 535.44,754.44C537.48,756.08 538,756.3 538,755.54ZM284.68,750.81C284.36,750.01 284.13,750.25 284.08,751.42C284.04,752.47 284.27,753.06 284.6,752.73C284.94,752.4 284.97,751.53 284.68,750.81ZM533,752.54C533,752.28 531.99,751.58 530.75,750.98C528.59,749.93 528.58,749.95 530.44,751.44C532.48,753.08 533,753.3 533,752.54ZM742.48,740.07C742.75,738.11 742.09,739.65 741.01,743.5C739.93,747.35 739.08,750.95 739.12,751.5C739.24,753.12 741.93,743.97 742.48,740.07ZM705.11,730.17C706.21,725.59 706.94,721.32 706.73,720.69C706.52,720.06 705.78,722.46 705.08,726.02C704.38,729.59 702.73,735.88 701.42,740C700.1,744.12 699.05,747.95 699.09,748.5C699.2,750.38 703.1,738.5 705.11,730.17ZM450.01,722.17C453.93,708.27 456.99,696.5 456.82,696.02C456.64,695.54 451.74,691.17 445.92,686.32C432.76,675.34 411.18,656.53 408.46,653.65C407.34,652.47 403.29,648.8 399.46,645.5C395.63,642.21 391.97,638.83 391.33,638.01C390.69,637.18 389.91,636.76 389.59,637.08C388.86,637.8 430.92,675.63 448.87,690.4C453.65,694.32 455.89,696.83 455.58,697.9C452.48,708.74 442,747.11 442,747.63C442,749.99 443.66,744.72 450.01,722.17ZM122.17,736.05C119.64,730.02 117.42,725.24 117.25,725.42C116.87,725.8 122.39,739.92 124.57,744.13C127.62,750.03 126.62,746.66 122.17,736.05ZM909.89,725.67C911.6,720.81 912.98,716.31 912.95,715.67C912.92,715.03 911.2,719.23 909.12,725C907.04,730.77 904.14,737.85 902.67,740.72C901.2,743.59 900.02,746.29 900.05,746.72C900.16,748.49 906.99,733.87 909.89,725.67ZM948.37,736.25C950.27,730.34 952.08,723.7 952.38,721.5C952.68,719.3 952.67,718.4 952.35,719.5C950.78,725.02 945.05,743.72 944.46,745.25C944.09,746.21 944.04,747 944.34,747C944.65,747 946.46,742.16 948.37,736.25ZM282.68,743.81C282.36,743.01 282.13,743.25 282.08,744.42C282.04,745.47 282.27,746.06 282.6,745.73C282.94,745.4 282.97,744.53 282.68,743.81ZM280.68,736.81C280.36,736.01 280.13,736.25 280.08,737.42C280.04,738.47 280.27,739.06 280.6,738.73C280.94,738.4 280.97,737.53 280.68,736.81ZM320.43,734.57C320.06,733.11 319.57,732.1 319.33,732.34C319.1,732.57 319.2,733.96 319.57,735.43C319.94,736.89 320.43,737.9 320.67,737.66C320.9,737.43 320.8,736.04 320.43,734.57ZM743.66,732.75C743.38,732.06 743.16,732.62 743.16,734C743.16,735.38 743.38,735.94 743.66,735.25C743.94,734.56 743.94,733.44 743.66,732.75ZM279.44,730.56C279.07,728.55 278.56,727.11 278.32,727.35C278.07,727.6 278.18,729.44 278.56,731.44C278.93,733.45 279.44,734.89 279.68,734.65C279.93,734.4 279.82,732.56 279.44,730.56ZM124.09,727.9C123.02,725.48 122.11,723.83 122.07,724.23C121.96,725.41 125.21,733.12 125.65,732.69C125.86,732.47 125.16,730.31 124.09,727.9ZM318.68,728.81C318.36,728.01 318.13,728.25 318.08,729.42C318.04,730.47 318.27,731.06 318.6,730.73C318.94,730.4 318.97,729.53 318.68,728.81ZM744.68,728.81C744.36,728.01 744.13,728.25 744.08,729.42C744.04,730.47 744.27,731.06 744.6,730.73C744.94,730.4 744.97,729.53 744.68,728.81ZM79.63,723.36C78.81,720.69 78.11,719.12 78.07,719.88C77.98,721.75 80.22,729.12 80.72,728.61C80.94,728.39 80.45,726.03 79.63,723.36ZM316.07,715.5C315.04,710 314.15,706.62 314.09,708C313.98,711 317.23,727.84 317.66,726.46C317.82,725.93 317.11,721 316.07,715.5ZM277.69,722.27C277.44,721.3 277.22,721.85 277.19,723.5C277.17,725.15 277.38,725.95 277.66,725.27C277.93,724.59 277.95,723.24 277.69,722.27ZM745.66,722.75C745.38,722.06 745.16,722.62 745.16,724C745.16,725.38 745.38,725.94 745.66,725.25C745.94,724.56 745.94,723.44 745.66,722.75ZM115.57,719.41C114.79,717.26 114.11,716 114.07,716.6C113.97,718.13 116.14,724.19 116.62,723.71C116.83,723.5 116.36,721.56 115.57,719.41ZM120.07,716.92C119.01,713.94 118.11,711.98 118.07,712.57C117.97,714.08 121.14,723.19 121.61,722.72C121.82,722.51 121.13,719.9 120.07,716.92ZM276.69,716.27C276.44,715.3 276.22,715.85 276.19,717.5C276.17,719.15 276.38,719.95 276.66,719.27C276.93,718.59 276.95,717.24 276.69,716.27ZM746.66,716.75C746.38,716.06 746.16,716.62 746.16,718C746.16,719.38 746.38,719.94 746.66,719.25C746.94,718.56 746.94,717.44 746.66,716.75ZM709.98,701.29C716.27,634.87 688.73,570.05 637,529.54C588.98,491.93 520.67,477.75 460.64,492.92C415.49,504.34 373.3,533.8 347.9,571.64C339.68,583.91 334.76,592.09 335.29,592.62C335.5,592.83 338.01,589.07 340.86,584.25C362.49,547.8 396.33,518.7 436,502.45C474.07,486.86 519.26,483.97 560.51,494.5C582.77,500.18 595.03,505.11 615,516.43C645.8,533.88 672.51,562.17 688.76,594.54C701.31,619.54 706.52,638.71 709.14,669.54C710.31,683.29 709.86,695.82 707.51,715.5L707.03,719.5L707.99,715.79C708.52,713.75 709.41,707.23 709.98,701.29ZM955.4,706.15C955.91,700.59 955.9,700.61 954.52,707.5C952.97,715.27 952.71,719.05 954.03,714.65C954.5,713.08 955.12,709.25 955.4,706.15ZM275.69,709.25C275.44,708.29 275.23,709.08 275.23,711C275.23,712.92 275.44,713.71 275.69,712.75C275.94,711.79 275.94,710.21 275.69,709.25ZM914.83,708.5C914.81,706.89 914.64,706.99 914,709C912.9,712.42 912.9,715.05 914,712.5C914.47,711.4 914.85,709.6 914.83,708.5ZM112.68,709.81C112.36,709.01 112.13,709.25 112.08,710.42C112.04,711.47 112.27,712.06 112.6,711.73C112.94,711.4 112.97,710.53 112.68,709.81ZM747.69,707.25C747.44,706.29 747.23,707.08 747.23,709C747.23,710.92 747.44,711.71 747.69,710.75C747.94,709.79 747.94,708.21 747.69,707.25ZM117.68,708.81C117.36,708.01 117.13,708.25 117.08,709.42C117.04,710.47 117.27,711.06 117.6,710.73C117.94,710.4 117.97,709.53 117.68,708.81ZM111.68,705.81C111.36,705.01 111.13,705.25 111.08,706.42C111.04,707.47 111.27,708.06 111.6,707.73C111.94,707.4 111.97,706.53 111.68,705.81ZM116.68,704.81C116.36,704.01 116.13,704.25 116.08,705.42C116.04,706.47 116.27,707.06 116.6,706.73C116.94,706.4 116.97,705.53 116.68,704.81ZM269.73,694.78C269.52,692.42 269.35,694.1 269.34,698.5C269.34,702.9 269.51,704.82 269.73,702.78C269.94,700.73 269.94,697.13 269.73,694.78ZM916.78,699C916.77,696.75 916.69,696.81 916,699.5C915.58,701.15 915.23,703.4 915.22,704.5C915.2,706.07 915.37,705.96 916,704C916.44,702.62 916.79,700.38 916.78,699ZM313.73,693.78C313.52,691.42 313.35,693.1 313.34,697.5C313.34,701.9 313.51,703.82 313.73,701.78C313.94,699.73 313.94,696.13 313.73,693.78ZM110.66,700.75C110.38,700.06 110.16,700.62 110.16,702C110.16,703.38 110.38,703.94 110.66,703.25C110.94,702.56 110.94,701.44 110.66,700.75ZM274.71,696.75C274.47,695.51 274.27,696.52 274.27,699C274.27,701.48 274.47,702.49 274.71,701.25C274.94,700.01 274.94,697.99 274.71,696.75ZM109.66,695.75C109.38,695.06 109.16,695.62 109.16,697C109.16,698.38 109.38,698.94 109.66,698.25C109.94,697.56 109.94,696.44 109.66,695.75ZM452,698.72C452,698.57 449.19,696.06 445.75,693.14L439.5,687.84L445.41,693.42C450.86,698.56 452,699.48 452,698.72ZM956.71,693.76C956.47,692.52 956.26,693.3 956.25,695.5C956.24,697.7 956.44,698.72 956.69,697.76C956.94,696.81 956.95,695.01 956.71,693.76ZM586.62,685.71C592.19,680.93 597.36,676.23 598.12,675.27C599.55,673.46 578.06,691.76 574.5,695.39L572.5,697.43L574.5,695.91C575.6,695.08 581.05,690.49 586.62,685.71ZM458.93,691.37C455.11,687.36 435.15,669.95 416.24,654.13C409.42,648.43 403.61,643.14 403.32,642.38C403.02,641.62 402.31,641 401.74,641C399.61,641 403.47,644.5 446.44,681.59C450.32,684.95 455.3,689.48 457.5,691.68C462.43,696.6 463.67,696.34 458.93,691.37ZM573.83,684.67C589.83,670.61 622.37,641.91 623.45,640.89C623.97,640.4 624.07,640 623.66,640C623.25,640 620.8,641.96 618.21,644.36C615.62,646.76 608.53,652.95 602.47,658.11C578.17,678.79 562,693.55 562.08,694.98C562.13,695.98 562.33,696.08 562.66,695.27C562.93,694.6 567.96,689.82 573.83,684.67ZM917.69,692.27C917.44,691.3 917.22,691.85 917.19,693.5C917.17,695.15 917.38,695.95 917.66,695.27C917.93,694.59 917.95,693.24 917.69,692.27ZM72.66,690.75C72.38,690.06 72.16,690.62 72.16,692C72.16,693.38 72.38,693.94 72.66,693.25C72.94,692.56 72.94,691.44 72.66,690.75ZM108.4,686.6C108.03,682.94 107.5,680.16 107.24,680.43C106.97,680.69 107.08,683.89 107.47,687.53C107.86,691.18 108.38,693.95 108.63,693.7C108.88,693.46 108.77,690.26 108.4,686.6ZM919.89,666.08C919.95,659.25 919.84,653.85 919.64,654.08C919.44,654.31 919.06,662.6 918.81,672.5C918.55,682.4 918.66,687.8 919.06,684.5C919.46,681.2 919.83,672.91 919.89,666.08ZM957.72,681.77C957.5,679.97 957.32,681.2 957.31,684.5C957.3,687.8 957.49,689.27 957.71,687.77C957.94,686.27 957.95,683.57 957.72,681.77ZM439,687.67C439,687.5 437.76,686.26 436.25,684.92L433.5,682.5L435.92,685.25C438.19,687.82 439,688.46 439,687.67ZM273.01,643.41C278.42,611.26 287.23,587.03 303.52,559.5C313.65,542.37 329.69,523.41 349,505.71C407.38,452.23 497.04,432.18 578,454.5C595.36,459.29 605.4,463.06 620.5,470.5C644.29,482.2 663.81,496.1 682.57,514.68C718.43,550.19 740.79,593.25 749.99,644.5C750.98,650 751.83,653.38 751.89,652C752.22,644.15 743.91,610.38 738,595.5C730.57,576.8 715.64,551.07 703.18,535.5C695.79,526.26 678.02,507.78 670.5,501.5C654.85,488.45 642.81,480.4 625.15,471.18C608.81,462.65 596.08,457.87 575.5,452.53C548.12,445.42 540.58,444.51 509.5,444.52C485.67,444.54 480.97,444.81 469.5,446.86C455.43,449.38 430.12,456.3 419.27,460.61C402.12,467.4 377.14,481.63 361,493.81C349.72,502.31 323.45,529.02 314.41,541.17C287.23,577.69 271.89,621.2 269.19,669.39C268.81,676.31 268.71,682.54 268.98,683.24C269.25,683.93 269.78,678.16 270.15,670.41C270.53,662.66 271.81,650.51 273.01,643.41ZM315.32,656C315.83,651.39 315.77,651.06 314.96,654C314.43,655.92 313.81,663.12 313.57,670L313.14,682.5L313.93,672C314.36,666.23 314.99,659.02 315.32,656ZM427.49,677.23C424.74,674.63 414.76,665.61 405.32,657.2C386.28,640.22 383.99,637.59 386.24,635.33C387.84,633.73 417.13,630.86 453.58,628.72L474.43,627.5L477.74,619.6C479.55,615.26 480.86,611.52 480.63,611.3C480.41,611.07 478.96,614.11 477.41,618.05C475.86,621.99 474.13,625.37 473.55,625.55C472.97,625.73 461.25,626.61 447.5,627.49C419.26,629.31 389.35,631.82 386.8,632.59C384.55,633.27 383.63,636.44 384.97,638.93C385.98,640.83 430.93,681.95 432,681.95C432.27,681.96 430.25,679.83 427.49,677.23ZM106.74,655.8C106.56,651.23 106.41,654.7 106.4,663.5C106.4,672.3 106.56,676.03 106.74,671.8C106.93,667.56 106.93,660.36 106.74,655.8ZM604.5,670C605.5,668.9 606.08,668 605.81,668C605.53,668 604.5,668.9 603.5,670C602.5,671.1 601.92,672 602.19,672C602.47,672 603.5,671.1 604.5,670ZM274.71,665.76C274.47,664.52 274.26,665.3 274.25,667.5C274.24,669.7 274.44,670.72 274.69,669.76C274.94,668.81 274.95,667.01 274.71,665.76ZM958.72,662.25C958.49,660.74 958.3,661.98 958.3,665C958.3,668.02 958.49,669.26 958.72,667.75C958.95,666.24 958.95,663.76 958.72,662.25ZM70.69,664.27C70.44,663.3 70.22,663.85 70.19,665.5C70.17,667.15 70.38,667.95 70.66,667.27C70.93,666.59 70.95,665.24 70.69,664.27ZM613,662.5C614.87,660.58 616.17,659 615.89,659C615.62,659 613.87,660.58 612,662.5C610.13,664.42 608.83,666 609.11,666C609.38,666 611.13,664.42 613,662.5ZM752.71,656.76C752.47,655.52 752.26,656.3 752.25,658.5C752.24,660.7 752.44,661.72 752.69,660.76C752.94,659.81 752.95,658.01 752.71,656.76ZM70.72,651.75C70.5,649.96 70.32,651.42 70.32,655C70.32,658.58 70.5,660.04 70.72,658.25C70.95,656.46 70.95,653.54 70.72,651.75ZM275.66,654.75C275.38,654.06 275.16,654.62 275.16,656C275.16,657.38 275.38,657.94 275.66,657.25C275.94,656.56 275.94,655.44 275.66,654.75ZM624.5,652C627.21,649.25 629.2,647 628.92,647C628.65,647 626.21,649.25 623.5,652C620.79,654.75 618.8,657 619.08,657C619.35,657 621.79,654.75 624.5,652ZM746.66,650.75C746.38,650.06 746.16,650.62 746.16,652C746.16,653.38 746.38,653.94 746.66,653.25C746.94,652.56 746.94,651.44 746.66,650.75ZM957.72,644.75C957.5,642.96 957.32,644.42 957.32,648C957.32,651.58 957.5,653.04 957.72,651.25C957.95,649.46 957.95,646.54 957.72,644.75ZM276.69,647.27C276.44,646.3 276.22,646.85 276.19,648.5C276.17,650.15 276.38,650.95 276.66,650.27C276.93,649.59 276.95,648.24 276.69,647.27ZM324.04,620.86C325.81,615.71 328.33,609.07 329.64,606.1C330.95,603.12 331.86,600.53 331.66,600.33C331.12,599.79 326.24,610.96 323.38,619.28C320.43,627.86 315.97,645.67 316.07,648.5C316.11,649.6 317.2,645.94 318.49,640.36C319.78,634.78 322.28,626.01 324.04,620.86ZM918.71,643.75C918.47,642.51 918.27,643.52 918.27,646C918.27,648.48 918.47,649.49 918.71,648.25C918.94,647.01 918.94,644.99 918.71,643.75ZM745.66,643.75C745.38,643.06 745.16,643.62 745.16,645C745.16,646.38 745.38,646.94 745.66,646.25C745.94,645.56 745.94,644.44 745.66,643.75ZM277.69,641.27C277.44,640.3 277.22,640.85 277.19,642.5C277.17,644.15 277.38,644.95 277.66,644.27C277.93,643.59 277.95,642.24 277.69,641.27ZM635.56,641.75L638.5,638.5L635.25,641.44C632.22,644.17 631.54,645 632.31,645C632.49,645 633.95,643.54 635.56,641.75ZM107.71,638.76C107.47,637.52 107.26,638.3 107.25,640.5C107.24,642.7 107.44,643.72 107.69,642.76C107.94,641.81 107.95,640.01 107.71,638.76ZM71.66,639.75C71.38,639.06 71.16,639.62 71.16,641C71.16,642.38 71.38,642.94 71.66,642.25C71.94,641.56 71.94,640.44 71.66,639.75ZM413.26,640.3C412.03,640.06 409.78,640.05 408.26,640.28C406.74,640.51 407.75,640.71 410.5,640.71C413.25,640.72 414.49,640.53 413.26,640.3ZM744.66,637.75C744.38,637.06 744.16,637.62 744.16,639C744.16,640.38 744.38,640.94 744.66,640.25C744.94,639.56 744.94,638.44 744.66,637.75ZM956.6,634.25C951.86,587.02 926.54,537 890.49,503.64C857.2,472.83 822.63,454.6 781,445.9C746.36,438.66 711.91,439.36 677.79,448.01C666.18,450.96 649.04,457.25 642.11,461.11C637.58,463.63 638.6,463.28 653.98,457.05C669.28,450.84 684.65,446.91 705,443.98C748.17,437.78 800.31,447.13 839,468.01C880.9,490.62 912.86,522.72 933.35,562.79C945.1,585.77 953.33,612.28 955.61,634.45C955.97,638.05 956.5,641 956.78,641C957.05,641 956.97,637.96 956.6,634.25ZM424.25,639.29C423.01,639.06 420.99,639.06 419.75,639.29C418.51,639.53 419.52,639.73 422,639.73C424.48,639.73 425.49,639.53 424.25,639.29ZM916.99,630.92C916.33,627.04 915.61,624.05 915.39,624.28C915.16,624.5 915.52,628.2 916.19,632.49C916.86,636.78 917.58,639.77 917.79,639.13C918,638.49 917.64,634.8 916.99,630.92ZM279.78,631.5C279.8,629.93 279.63,630.04 279,632C278.56,633.38 278.21,635.62 278.22,637C278.23,639.25 278.31,639.19 279,636.5C279.42,634.85 279.77,632.6 279.78,631.5ZM437.75,638.31C436.79,638.06 435.21,638.06 434.25,638.31C433.29,638.56 434.07,638.77 436,638.77C437.93,638.77 438.71,638.56 437.75,638.31ZM593.76,638.31C592.81,638.06 591.01,638.05 589.76,638.29C588.52,638.53 589.3,638.74 591.5,638.75C593.7,638.76 594.72,638.56 593.76,638.31ZM455.76,637.31C454.81,637.06 453.01,637.05 451.76,637.29C450.52,637.53 451.3,637.74 453.5,637.75C455.7,637.76 456.72,637.56 455.76,637.31ZM578.75,637.28C577.24,637.05 574.76,637.05 573.25,637.28C571.74,637.51 572.98,637.7 576,637.7C579.02,637.7 580.26,637.51 578.75,637.28ZM637.74,633.31C636.01,631.58 619.17,629.92 578.5,627.47C563.1,626.54 550.01,625.64 549.41,625.48C548.81,625.32 546.37,620.53 543.99,614.84C537,598.15 529.33,579.63 522.33,562.5C515.31,545.31 513.74,542.75 510.56,543.21C508.24,543.54 504.18,550.32 501.11,559C500.04,562.02 495.08,574.59 490.08,586.92C485.09,599.25 481.16,609.49 481.35,609.69C481.54,609.88 483.4,605.86 485.47,600.77C487.55,595.67 491.63,585.65 494.54,578.5C497.46,571.35 501.56,561.27 503.67,556.09C507.7,546.21 509.79,543.75 512.66,545.56C513.57,546.13 517.2,553.56 520.73,562.05C537.11,601.53 547.27,625.56 547.87,626.21C548.23,626.61 558.87,627.61 571.51,628.46C627.63,632.19 634.32,632.9 636.5,635.37C638.01,637.08 638.58,637.29 638.85,636.2C639.04,635.41 638.54,634.11 637.74,633.31ZM471.26,636.3C470.03,636.06 467.78,636.05 466.26,636.28C464.74,636.51 465.75,636.71 468.5,636.71C471.25,636.72 472.49,636.53 471.26,636.3ZM561.75,636.28C560.24,636.05 557.76,636.05 556.25,636.28C554.74,636.51 555.98,636.7 559,636.7C562.02,636.7 563.26,636.51 561.75,636.28ZM480.25,635.34C479.56,635.06 478.44,635.06 477.75,635.34C477.06,635.62 477.62,635.84 479,635.84C480.38,635.84 480.94,635.62 480.25,635.34ZM743.68,633.81C743.36,633.01 743.13,633.25 743.08,634.42C743.04,635.47 743.27,636.06 743.6,635.73C743.94,635.4 743.97,634.53 743.68,633.81ZM108.69,631.27C108.44,630.3 108.22,630.85 108.19,632.5C108.17,634.15 108.38,634.95 108.66,634.27C108.93,633.59 108.95,632.24 108.69,631.27ZM280.68,626.81C280.36,626.01 280.13,626.25 280.08,627.42C280.04,628.47 280.27,629.06 280.6,628.73C280.94,628.4 280.97,627.53 280.68,626.81ZM110.8,621.5C110.8,619.92 110.63,620.02 110,622C109.56,623.38 109.2,625.4 109.2,626.5C109.2,628.08 109.37,627.98 110,626C110.44,624.62 110.8,622.6 110.8,621.5ZM70.32,619.5C70.71,616.13 70.62,615.31 70.05,617C69.2,619.5 68.67,625.7 69.37,624.92C69.58,624.69 70,622.25 70.32,619.5ZM281.68,622.81C281.36,622.01 281.13,622.25 281.08,623.42C281.04,624.47 281.27,625.06 281.6,624.73C281.94,624.4 281.97,623.53 281.68,622.81ZM740.68,620.81C740.36,620.01 740.13,620.25 740.08,621.42C740.04,622.47 740.27,623.06 740.6,622.73C740.94,622.4 740.97,621.53 740.68,620.81ZM914,617C913.33,614.19 912.59,612.07 912.37,612.3C912.15,612.52 912.5,615.02 913.15,617.85C913.81,620.68 914.54,622.79 914.78,622.55C915.03,622.31 914.67,619.81 914,617ZM282.68,618.81C282.36,618.01 282.13,618.25 282.08,619.42C282.04,620.47 282.27,621.06 282.6,620.73C282.94,620.4 282.97,619.53 282.68,618.81ZM111.68,616.81C111.36,616.01 111.13,616.25 111.08,617.42C111.04,618.47 111.27,619.06 111.6,618.73C111.94,618.4 111.97,617.53 111.68,616.81ZM122.86,586.25C123.53,585.01 123.84,584 123.56,584C123.28,584 122.39,585.27 121.59,586.83C119.76,590.37 111.98,612.82 112.05,614.36C112.08,614.99 114.25,609.42 116.88,602C119.51,594.58 122.2,587.49 122.86,586.25ZM71.68,611.81C71.36,611.01 71.13,611.25 71.08,612.42C71.04,613.47 71.27,614.06 71.6,613.73C71.94,613.4 71.97,612.53 71.68,611.81ZM285.86,609C285.86,608.05 285.54,608.24 285,609.5C284.53,610.6 284.14,612.17 284.14,613C284.14,613.95 284.46,613.76 285,612.5C285.47,611.4 285.86,609.83 285.86,609ZM909.1,601.28C892.32,555.77 858.72,519.51 814,498.66C785.83,485.52 759.69,480.34 726.27,481.29C707.45,481.82 700.23,482.86 685.65,487.13C675.3,490.17 678.41,490.5 689.34,487.52C735.49,474.95 793.56,484.54 835.51,511.67C848.33,519.97 853.21,523.87 864.23,534.6C884.48,554.34 900.05,578.5 909.11,604.26C910.42,607.98 911.62,610.64 911.78,610.17C911.93,609.7 910.73,605.7 909.1,601.28ZM72.68,607.81C72.36,607.01 72.13,607.25 72.08,608.42C72.04,609.47 72.27,610.06 72.6,609.73C72.94,609.4 72.97,608.53 72.68,607.81ZM73.68,603.81C73.36,603.01 73.13,603.25 73.08,604.42C73.04,605.47 73.27,606.06 73.6,605.73C73.94,605.4 73.97,604.53 73.68,603.81ZM289.89,598.06C291.02,595.07 291.78,592.45 291.57,592.24C291.21,591.88 287,602.42 287,603.7C287,605.05 287.91,603.28 289.89,598.06ZM83.06,578.14C103.93,527.66 141.05,487.96 190.55,463.21C209.91,453.52 228.41,447.83 255.11,443.34C271.44,440.59 306.4,440.88 323.5,443.9C339.82,446.78 355.99,451.43 371.75,457.76C378.49,460.47 384,462.37 384,461.98C384,461.1 366.66,454.25 354,450.13C319.04,438.76 279.74,436.82 241.24,444.55C179.01,457.06 121.92,499.89 92.16,556.4C84.45,571.05 75.87,591.87 74.6,599C74.25,600.92 75.31,598.74 76.94,594.14C78.57,589.54 81.33,582.34 83.06,578.14ZM729.11,587.42C718.32,562.67 697.11,532.59 677.34,514C639.12,478.06 594.82,457.53 539,449.9C525.29,448.02 491.1,448.29 478,450.38C431.89,457.73 397.41,472.04 364,497.68C341.74,514.77 318.11,541.2 306.95,561.5C302.43,569.71 303.86,568.13 310.49,557.56C326.98,531.29 351.54,506.53 378.69,488.79C405.29,471.41 430.04,461.4 463,454.66C481.59,450.86 490.51,450 510.97,450.02C546.07,450.06 577.2,456.47 608.61,470.15C640.5,484.02 670.69,506.07 691.81,530.9C702.92,543.96 719.69,569.75 726.47,584.2C729.75,591.19 732.56,596.78 732.71,596.62C732.87,596.46 731.25,592.32 729.11,587.42ZM294.93,585.5C294.93,584.95 294.29,585.62 293.5,587C292.71,588.38 292.07,589.95 292.07,590.5C292.07,591.05 292.71,590.38 293.5,589C294.29,587.62 294.93,586.05 294.93,585.5ZM344,587C344.59,585.9 344.85,585 344.57,585C344.3,585 343.59,585.9 343,587C342.41,588.1 342.15,589 342.43,589C342.7,589 343.41,588.1 344,587ZM690.5,585C689.65,583.35 688.72,582 688.45,582C688.17,582 688.65,583.35 689.5,585C690.35,586.65 691.28,588 691.55,588C691.83,588 691.35,586.65 690.5,585ZM129.5,574C130.35,572.35 130.83,571 130.55,571C130.28,571 129.35,572.35 128.5,574C127.65,575.65 127.17,577 127.45,577C127.72,577 128.65,575.65 129.5,574ZM674,575.62C674,575.41 673.21,574.63 672.25,573.87C670.66,572.63 670.63,572.66 671.87,574.25C673.18,575.92 674,576.45 674,575.62ZM898.95,569.25C878.58,533.06 843.88,503.97 802.74,488.61C763.98,474.13 719.41,472.11 682.25,483.14C678.26,484.32 675,485.68 675,486.15C675,487.31 675.5,487.24 679.78,485.42C685.95,482.81 705.68,479.09 719.58,477.93C742.28,476.03 770.3,479.61 794.5,487.51C813.45,493.69 840.64,508.08 854.21,519.11C870.92,532.69 889.11,553.43 897.55,568.52C899.54,572.09 901.4,575 901.68,575C901.96,575 900.73,572.41 898.95,569.25ZM933.05,570.1C930.21,564.54 929.48,564.87 932.2,570.48C933.4,572.94 934.55,574.78 934.76,574.57C934.97,574.37 934.2,572.35 933.05,570.1ZM302.5,571C303.35,569.35 303.83,568 303.55,568C303.28,568 302.35,569.35 301.5,571C300.65,572.65 300.17,574 300.45,574C300.72,574 301.65,572.65 302.5,571ZM355.13,570.25C356.37,568.66 356.34,568.63 354.75,569.87C353.79,570.63 353,571.41 353,571.62C353,572.45 353.82,571.92 355.13,570.25ZM133,568C133.59,566.9 133.85,566 133.57,566C133.3,566 132.59,566.9 132,568C131.41,569.1 131.15,570 131.43,570C131.7,570 132.41,569.1 133,568ZM293.38,568.45C293.72,567.56 293.56,567.16 292.99,567.51C292.44,567.84 292,568.54 292,569.06C292,570.5 292.72,570.18 293.38,568.45ZM677.15,564.25C670.89,555.08 659.52,542.52 649.64,533.85C621.02,508.76 584.07,491.51 544,484.55C530.58,482.22 503.59,481.41 490.3,482.94C464.43,485.92 443.12,491.97 421.5,502.47C399.68,513.06 381.72,526.18 364.5,544.1C356.86,552.05 356.98,551.97 367,542.42C396.7,514.11 426.49,497.84 464.67,489.05C482.13,485.03 491.59,484 510.85,484C567.27,484 622.95,507.13 660.59,546.22C666.14,551.99 672.82,559.69 675.43,563.35C681.25,571.5 682.57,572.19 677.15,564.25ZM665,564C662.7,561.25 660.59,559 660.31,559C660.04,559 661.7,561.25 664,564C666.3,566.75 668.41,569 668.69,569C668.96,569 667.3,566.75 665,564ZM358.5,566C359.5,564.9 360.08,564 359.81,564C359.53,564 358.5,564.9 357.5,566C356.5,567.1 355.92,568 356.19,568C356.47,568 357.5,567.1 358.5,566ZM727,563C726.41,561.9 725.7,561 725.43,561C725.15,561 725.41,561.9 726,563C726.59,564.1 727.3,565 727.57,565C727.85,565 727.59,564.1 727,563ZM363.56,559.75L366.5,556.5L363.25,559.44C360.22,562.17 359.54,563 360.31,563C360.49,563 361.95,561.54 363.56,559.75ZM929,562.19C929,561.75 928.32,560.51 927.48,559.44C926.08,557.64 926.05,557.7 927.14,560.25C928.32,563 929,563.71 929,562.19ZM299,558C299.59,556.9 299.85,556 299.57,556C299.3,556 298.59,556.9 298,558C297.41,559.1 297.15,560 297.43,560C297.7,560 298.41,559.1 299,558ZM724.39,558.75C721.46,553.74 708.93,535.58 705.59,531.5C696.79,520.75 679.24,502.52 670.59,495.15C645.46,473.74 614.87,457.1 585.5,448.88C568.18,444.03 565.39,443.14 567.14,443.07C570.1,442.94 587.76,447.91 598.79,451.97C637.63,466.26 669.57,487.77 695.27,516.92C707.93,531.29 711.01,534.49 705.92,528C685.14,501.49 663.22,482.13 637.71,467.73C615.17,455.02 589,444.99 567,440.63C542.68,435.81 539.2,435.5 510.5,435.54C484.47,435.58 481.38,435.78 466.56,438.37C448.38,441.54 433.6,445.78 415.41,453.04C400.43,459.01 397.6,460.41 384.62,468.24C362.2,481.76 341.55,499.15 326.32,517.32C322.09,522.37 320.07,525.18 321.82,523.56C325.22,520.42 326.15,520.98 323.26,524.42C321.99,525.93 322.27,525.84 324.26,524.08C326.86,521.77 328.12,519.19 326,520.5C324.31,521.54 324.89,519.33 326.69,517.87C328.18,516.66 328.29,516.72 327.66,518.4C327.27,519.45 331.63,515.79 337.36,510.28C369.16,479.65 405.43,459.06 445,449.17C469.78,442.98 485.52,441 510.14,441C534.1,441 552.93,443.39 577.16,449.52C619.41,460.2 653.64,479.56 684,509.98C697.66,523.66 705.32,532.81 716.85,549.25C721,555.16 724.56,560 724.76,560C724.96,560 724.79,559.44 724.39,558.75ZM140.13,557.25C141.37,555.66 141.34,555.63 139.75,556.87C138.79,557.63 138,558.41 138,558.62C138,559.45 138.82,558.92 140.13,557.25ZM146.13,556.25C147.37,554.66 147.34,554.63 145.75,555.87C144.79,556.63 144,557.41 144,557.62C144,558.45 144.82,557.92 146.13,556.25ZM934.49,552.3C932.97,549.66 929.99,545.21 927.87,542.41C923.78,537.02 922.88,534.85 925.69,537.13C927.15,538.31 927.26,538.29 926.5,537C924.2,533.12 919.77,527.5 919,527.5C918.53,527.5 916.82,525.7 915.19,523.5C913.57,521.3 910.16,517.49 907.62,515.04C905.08,512.59 903,510.14 903,509.59C903,509.04 904.89,510.37 907.2,512.55C913.12,518.12 910.04,514.24 899.5,502.87C888.04,490.49 872.96,477.78 859.81,469.39C848.28,462.03 825.14,450.47 812.86,445.95C802.61,442.17 780.72,436.68 766.5,434.33C751.31,431.82 718.01,431.83 702.5,434.34C689.05,436.52 666.95,441.99 657.5,445.48C647.02,449.35 630.01,457.2 630.48,457.96C630.7,458.32 635.3,456.45 640.69,453.79C650.42,449 661.98,445.02 677.63,441.07C723.15,429.59 773.48,432.62 816.47,449.42C829.03,454.34 849.33,464.01 848.6,464.73C848.36,464.98 842.16,462.25 834.83,458.68C816.13,449.57 795.01,442.63 776.5,439.5C744.53,434.11 725.03,433.87 698,438.56C680.9,441.53 662.3,446.2 653.71,449.69C645.2,453.15 633.69,459.03 634.28,459.62C634.55,459.88 638.76,458.32 643.63,456.14C658.33,449.56 675.98,444.7 701,440.33C717.33,437.48 752.01,437.73 770,440.82C822.37,449.82 861.52,470.09 898.09,507.14C909.16,518.35 914.97,525.24 922.16,535.71C927.38,543.29 932.7,551.41 934,553.74C935.3,556.07 936.56,557.78 936.8,557.53C937.04,557.29 936,554.93 934.49,552.3ZM651.48,548.96C647.09,544.54 640.8,538.88 637.5,536.39C633.21,533.15 632.79,532.94 636,535.65C638.48,537.75 644.55,543.4 649.5,548.22C654.45,553.03 658.71,556.98 658.98,556.99C659.24,556.99 655.86,553.38 651.48,548.96ZM101.93,550.5C103.16,548.3 103.42,547.4 102.51,548.5C100.65,550.73 97.23,557.07 98.73,555.5C99.25,554.95 100.69,552.7 101.93,550.5ZM356.13,554.25C357.37,552.66 357.34,552.63 355.75,553.87C354.79,554.63 354,555.41 354,555.62C354,556.45 354.82,555.92 356.13,554.25ZM386.5,536.62C387.6,535.54 386.25,536.49 383.5,538.75C380.75,541 375.57,545.91 372,549.65C366.69,555.21 367.24,554.82 375,547.53C380.23,542.62 385.4,537.71 386.5,536.62ZM143.13,553.25C144.37,551.66 144.34,551.63 142.75,552.87C141.79,553.63 141,554.41 141,554.62C141,555.45 141.82,554.92 143.13,553.25ZM149.13,552.25C150.37,550.66 150.34,550.63 148.75,551.87C147.79,552.63 147,553.41 147,553.62C147,554.45 147.82,553.92 149.13,552.25ZM877,553.65C877,553.47 875.99,552.45 874.75,551.4L872.5,549.5L874.4,551.75C876.2,553.86 877,554.46 877,553.65ZM303,551C303.59,549.9 303.85,549 303.57,549C303.3,549 302.59,549.9 302,551C301.41,552.1 301.15,553 301.43,553C301.7,553 302.41,552.1 303,551ZM921.88,549.75C916.68,539.9 899.8,518.85 888.39,508C865.85,486.57 841.9,471.12 814.86,460.57C803.23,456.03 779.61,449.67 770.38,448.59C767.7,448.28 770.34,449.11 776.25,450.44C814.36,459.01 842.16,471.78 870.5,493.73C886.59,506.19 907.02,528.41 917.97,545.34C922.22,551.91 924.2,554.14 921.88,549.75ZM165.45,528.64C172.66,521.7 187.02,511.07 197.49,504.92C217.22,493.33 237.23,485.94 260,481.83C273.63,479.36 300.51,478.88 314,480.86C322.62,482.12 341.84,486.21 345.5,487.56C346.96,488.1 347.22,487.99 346.46,487.16C345.18,485.76 332.62,482.49 320,480.27C313.1,479.06 304.61,478.6 289,478.6C270.52,478.6 266.06,478.91 257.24,480.82C223.07,488.22 196.9,500.7 172.5,521.21C162.53,529.58 153.33,538.89 147.47,546.5C145.34,549.28 147.36,547.5 152.01,542.5C156.62,537.55 162.67,531.31 165.45,528.64ZM310.54,540.5C313.16,537.2 314.07,535.62 312.55,537C311.03,538.38 308.42,541.52 306.75,544C302.99,549.56 304.29,548.36 310.54,540.5ZM872,547.73C872,547.58 867.84,543.42 862.75,538.48L853.5,529.5L862.48,538.75C870.82,547.34 872,548.46 872,547.73ZM160.44,526.71C183.01,505.01 213.49,488.36 244.86,480.59C263.58,475.96 267.71,475.5 290,475.55C312.97,475.6 322.98,476.81 340.2,481.59C351.3,484.67 354.78,484.55 345.22,481.41C297.31,465.7 238.28,472.95 193.39,500.07C176.03,510.55 155.34,528.39 145.35,541.5L140.77,547.5L147.08,540.5C150.54,536.65 156.56,530.44 160.44,526.71ZM159,541.5C161.99,538.48 164.21,536 163.93,536C163.66,536 160.99,538.48 158,541.5C155.01,544.52 152.79,547 153.07,547C153.34,547 156.01,544.52 159,541.5ZM98.91,537.25C101.37,533.65 101.52,533.23 99.53,535.5C96.88,538.52 94.62,542 95.3,542C95.5,542 97.12,539.86 98.91,537.25ZM111,536.5C112.7,534.02 113.87,532 113.6,532C113.32,532 111.7,534.02 110,536.5C108.3,538.98 107.13,541 107.4,541C107.68,541 109.3,538.98 111,536.5ZM921.12,532.49C918.17,527.48 918.47,526.75 921.59,531.35C923.01,533.44 923.97,535.36 923.71,535.62C923.46,535.88 922.29,534.47 921.12,532.49ZM392.13,532.25C393.37,530.66 393.34,530.63 391.75,531.87C390.79,532.63 390,533.41 390,533.62C390,534.45 390.82,533.92 392.13,532.25ZM319.56,529.75L322.5,526.5L319.25,529.44C316.22,532.17 315.54,533 316.31,533C316.49,533 317.95,531.54 319.56,529.75ZM104.13,530.25C105.37,528.66 105.34,528.63 103.75,529.87C102.79,530.63 102,531.41 102,531.62C102,532.45 102.82,531.92 104.13,530.25ZM631,531.54C631,530.8 620.12,523.67 612.75,519.58C609.04,517.51 606,516.06 606,516.34C606,516.63 609.26,518.67 613.25,520.89C617.24,523.1 622.75,526.49 625.5,528.4C630.91,532.17 631,532.23 631,531.54ZM116.13,529.25C117.37,527.66 117.34,527.63 115.75,528.87C114.08,530.18 113.55,531 114.38,531C114.59,531 115.37,530.21 116.13,529.25ZM396.13,529.25C397.37,527.66 397.34,527.63 395.75,528.87C394.79,529.63 394,530.41 394,530.62C394,531.45 394.82,530.92 396.13,529.25ZM173,527.5C174.29,526.12 175.12,525 174.85,525C174.57,525 173.29,526.12 172,527.5C170.71,528.88 169.88,530 170.15,530C170.43,530 171.71,528.88 173,527.5ZM852,528.65C852,528.47 850.99,527.45 849.75,526.4L847.5,524.5L849.4,526.75C851.2,528.86 852,529.46 852,528.65ZM107.26,525.99C108.3,524.83 108.24,524.79 106.91,525.79C106.03,526.45 105.06,526.73 104.76,526.42C104.45,526.12 103.93,526.31 103.6,526.85C102.68,528.32 105.84,527.58 107.26,525.99ZM410.94,519.36C412.43,517.76 403.12,523.22 400.5,525.48C398.68,527.04 400.04,526.46 403.94,524.01C407.48,521.78 410.63,519.69 410.94,519.36ZM125.48,518.25C133.89,508.7 144.31,499.08 156.03,490.05C185.41,467.41 224.12,451.49 260.5,447.08C274.12,445.44 274.87,445.28 270,445.14C264.97,444.99 250.14,447.16 239.5,449.61C192.73,460.35 152.53,484.96 120.85,522.25C113.86,530.48 117.42,527.4 125.48,518.25ZM107.5,523C108.5,521.9 109.08,521 108.81,521C108.53,521 107.5,521.9 106.5,523C105.5,524.1 104.92,525 105.19,525C105.47,525 106.5,524.1 107.5,523ZM114.4,516C113.7,515.3 112.6,515.84 110.94,517.73C108.76,520.19 108.74,520.28 110.75,518.59C113.4,516.35 113.73,517.46 111.29,520.42C110.35,521.56 110.89,521.27 112.5,519.76C114.5,517.89 115.1,516.7 114.4,516ZM331.38,512.96C347.02,494.99 374.08,474.48 397.74,462.65C436.31,443.36 483.85,433.92 526.5,437.07C540.32,438.09 559.03,440.7 560,441.75C560.27,442.04 558.7,441.99 556.5,441.63C528.45,437.06 493.4,436.96 468,441.36C425.09,448.81 388.66,465.42 353.75,493.48C347.83,498.24 341.65,503.8 340.01,505.84C338.36,507.89 334.88,511.33 332.26,513.49L327.5,517.42L331.38,512.96ZM120.54,509.24C120.22,508.41 120.47,508.17 121.17,508.6C121.9,509.06 122.03,508.86 121.53,508.05C121.02,507.22 123.59,503.93 129.1,498.4C133.7,493.78 137.87,490 138.38,490C138.89,490 138.45,490.98 137.4,492.17C134.46,495.53 137.56,493.4 146.77,485.75C177.77,459.96 219.27,443.17 264.92,437.94C280,436.22 310.42,437.22 325,439.93C344.19,443.5 372.73,451.83 382.33,456.68C384.99,458.02 387.69,458.91 388.33,458.67C389.5,458.23 377.08,452.07 369.5,449.33C361,446.26 336.98,440.07 326,438.11C296.08,432.78 278.49,432.76 248,438.01C219.67,442.88 197.17,451.31 172.68,466.22C161.49,473.03 158.22,473.4 168.64,466.68C189.1,453.48 221.81,440.67 245.8,436.48C276.61,431.09 310.38,432.22 340.93,439.65C355.74,443.26 374.11,449.46 383.84,454.14C388.43,456.34 392.41,457.92 392.69,457.64C393.39,456.94 383.37,452.01 372.5,447.69C357.14,441.59 335.93,436.07 315.5,432.85C303.52,430.96 268.97,431.24 255.5,433.34C201.5,441.76 152.99,468.41 118.73,508.5C115.9,511.8 115.04,513.18 116.8,511.56C120.72,507.97 121.03,509.25 117.25,513.45L114.5,516.5L117.78,513.54C119.58,511.91 120.82,509.97 120.54,509.24ZM427.58,510.25C427.12,509.79 421,512.83 421,513.51C421,513.76 422.57,513.22 424.49,512.3C426.41,511.39 427.8,510.46 427.58,510.25ZM441.24,505.55C447.12,503.38 451.76,501.43 451.55,501.21C450.96,500.63 436.01,505.94 432,508.15C427.7,510.52 427.97,510.45 441.24,505.55ZM893.14,499.89C881.9,489.04 872.92,481.82 859.2,472.62C853.55,468.83 849.15,465.51 849.42,465.25C850.56,464.11 876.38,482.51 886.5,491.68C895.41,499.75 904.27,509.14 902.8,508.96C902.64,508.94 898.29,504.86 893.14,499.89ZM128.31,502.05C128.11,501.8 126.49,503.12 124.72,504.98L121.5,508.35L125.09,505.43C127.07,503.82 128.52,502.3 128.31,502.05ZM208,503.45C208,503.17 206.65,503.65 205,504.5C203.35,505.35 202,506.28 202,506.55C202,506.83 203.35,506.35 205,505.5C206.65,504.65 208,503.72 208,503.45ZM816,505C815.17,504.47 814.05,504.03 813.5,504.03C812.95,504.03 813.17,504.47 814,505C814.83,505.53 815.95,505.97 816.5,505.97C817.05,505.97 816.83,505.53 816,505ZM214,501C214.82,500.47 215.05,500.03 214.5,500.03C213.95,500.03 212.82,500.47 212,501C211.18,501.53 210.95,501.97 211.5,501.97C212.05,501.97 213.18,501.53 214,501ZM135.97,494.6C136.01,493.32 132.03,497.07 130.77,499.49C130.06,500.86 130.72,500.54 132.84,498.5C134.55,496.85 135.96,495.09 135.97,494.6ZM568.73,500.4C568.4,500.06 567.53,500.03 566.81,500.32C566.01,500.64 566.25,500.87 567.42,500.92C568.47,500.96 569.06,500.73 568.73,500.4ZM458.73,499.4C458.4,499.06 457.53,499.03 456.81,499.32C456.01,499.64 456.25,499.87 457.42,499.92C458.47,499.96 459.06,499.73 458.73,499.4ZM564.73,499.4C564.4,499.06 563.53,499.03 562.81,499.32C562.01,499.64 562.25,499.87 563.42,499.92C564.47,499.96 565.06,499.73 564.73,499.4ZM560.73,498.4C560.4,498.06 559.53,498.03 558.81,498.32C558.01,498.64 558.25,498.87 559.42,498.92C560.47,498.96 561.06,498.73 560.73,498.4ZM551.5,496C550.4,495.53 548.6,495.15 547.5,495.17C545.89,495.19 545.99,495.36 548,496C551.42,497.1 554.05,497.1 551.5,496ZM482.25,494.34C481.56,494.06 480.44,494.06 479.75,494.34C479.06,494.62 479.62,494.84 481,494.84C482.38,494.84 482.94,494.62 482.25,494.34ZM542.73,494.4C542.4,494.06 541.53,494.03 540.81,494.32C540.01,494.64 540.25,494.87 541.42,494.92C542.47,494.96 543.06,494.73 542.73,494.4ZM233.5,493C234.82,492.43 234.99,492.12 234,492.09C233.18,492.06 231.82,492.47 231,493C229.17,494.18 230.75,494.18 233.5,493ZM535.27,493.34C534.59,493.07 533.24,493.05 532.27,493.31C531.3,493.56 531.85,493.78 533.5,493.81C535.15,493.83 535.95,493.62 535.27,493.34ZM693.6,490.27C692.97,489.63 684,492.21 684,493.03C684,493.46 686.24,493.1 688.98,492.22C691.72,491.35 693.8,490.47 693.6,490.27ZM501.27,492.34C500.59,492.07 499.24,492.05 498.27,492.31C497.3,492.56 497.85,492.78 499.5,492.81C501.15,492.83 501.95,492.62 501.27,492.34ZM524.26,492.3C523.03,492.06 520.78,492.05 519.26,492.28C517.74,492.51 518.75,492.71 521.5,492.71C524.25,492.72 525.49,492.53 524.26,492.3ZM340.5,490C339.4,489.53 337.82,489.14 337,489.14C336.05,489.14 336.24,489.46 337.5,490C338.6,490.47 340.18,490.86 341,490.86C341.95,490.86 341.76,490.54 340.5,490ZM139.35,489.28C141.06,486.42 160.75,471.41 161.63,472.29C161.91,472.58 159.97,474.28 157.32,476.09C154.67,477.89 150.25,481.21 147.5,483.47C140.2,489.47 138.52,490.66 139.35,489.28ZM247.5,489C250.05,487.9 247.42,487.9 244,489C241.99,489.64 241.89,489.81 243.5,489.83C244.6,489.85 246.4,489.47 247.5,489ZM698.73,489.4C698.4,489.06 697.53,489.03 696.81,489.32C696.01,489.64 696.25,489.87 697.42,489.92C698.47,489.96 699.06,489.73 698.73,489.4ZM704.27,488.34C703.59,488.07 702.24,488.05 701.27,488.31C700.3,488.56 700.85,488.78 702.5,488.81C704.15,488.83 704.95,488.62 704.27,488.34ZM253.73,487.4C253.4,487.06 252.53,487.03 251.81,487.32C251.01,487.64 251.25,487.87 252.42,487.92C253.47,487.96 254.06,487.73 253.73,487.4ZM711.25,487.34C710.56,487.06 709.44,487.06 708.75,487.34C708.06,487.62 708.62,487.84 710,487.84C711.38,487.84 711.94,487.62 711.25,487.34ZM258.73,486.4C258.4,486.06 257.53,486.03 256.81,486.32C256.01,486.64 256.25,486.87 257.42,486.92C258.47,486.96 259.06,486.73 258.73,486.4ZM722.27,486.34C721.59,486.07 720.24,486.05 719.27,486.31C718.3,486.56 718.85,486.78 720.5,486.81C722.15,486.83 722.95,486.62 722.27,486.34ZM264.73,485.4C264.4,485.06 263.53,485.03 262.81,485.32C262.01,485.64 262.25,485.87 263.42,485.92C264.47,485.96 265.06,485.73 264.73,485.4ZM272.25,484.34C271.56,484.06 270.44,484.06 269.75,484.34C269.06,484.62 269.62,484.84 271,484.84C272.38,484.84 272.94,484.62 272.25,484.34ZM378.54,465.06C377.97,464.14 367.35,458.97 366.13,459.03C365.35,459.06 377.18,465.72 378.31,465.88C378.75,465.95 378.86,465.58 378.54,465.06ZM649.23,463.89C651.03,462.74 651.6,462.11 650.5,462.51C649.4,462.9 647.71,463.45 646.75,463.73C645.79,464.01 645,464.63 645,465.12C645,466.4 645.59,466.23 649.23,463.89ZM656,461C656.83,460.47 657.05,460.03 656.5,460.03C655.95,460.03 654.83,460.47 654,461C653.17,461.53 652.95,461.97 653.5,461.97C654.05,461.97 655.17,461.53 656,461ZM661,459C661.83,458.47 662.05,458.03 661.5,458.03C660.95,458.03 659.83,458.47 659,459C658.17,459.53 657.95,459.97 658.5,459.97C659.05,459.97 660.17,459.53 661,459ZM365,458.58C365,457.19 331.96,447.93 327.5,448.08C326.4,448.11 330.25,449.24 336.05,450.57C341.86,451.91 350.41,454.32 355.05,455.93C363.85,458.97 365,459.28 365,458.58ZM674,454.89C678.12,453.66 684.87,451.87 689,450.92C693.12,449.96 695.52,449.14 694.32,449.09C691.46,448.97 670.15,454.48 665.85,456.45C661.84,458.28 663.94,457.88 674,454.89ZM701.27,448.34C700.59,448.07 699.24,448.05 698.27,448.31C697.3,448.56 697.85,448.78 699.5,448.81C701.15,448.83 701.95,448.62 701.27,448.34ZM324.25,447.34C323.56,447.06 322.44,447.06 321.75,447.34C321.06,447.62 321.62,447.84 323,447.84C324.38,447.84 324.94,447.62 324.25,447.34ZM716.92,446.38C717.69,445.68 710.54,446.11 706.5,447C703.43,447.67 704.12,447.75 709.5,447.31C713.35,447.01 716.69,446.58 716.92,446.38ZM759.5,446.94C757.3,446.49 753.92,446.16 752,446.21C748.79,446.29 748.88,446.36 753,447C755.48,447.38 758.85,447.72 760.5,447.73C762.97,447.76 762.79,447.62 759.5,446.94ZM318.73,446.4C318.4,446.06 317.53,446.03 316.81,446.32C316.01,446.64 316.25,446.87 317.42,446.92C318.47,446.96 319.06,446.73 318.73,446.4ZM310.27,445.34C309.59,445.07 308.24,445.05 307.27,445.31C306.3,445.56 306.85,445.78 308.5,445.81C310.15,445.83 310.95,445.62 310.27,445.34ZM738.75,445.26C735.04,445.07 728.96,445.07 725.25,445.26C721.54,445.45 724.58,445.61 732,445.61C739.42,445.61 742.46,445.45 738.75,445.26ZM291.29,444.26C288.42,444.06 283.47,444.06 280.29,444.26C277.1,444.46 279.45,444.62 285.5,444.63C291.55,444.63 294.15,444.47 291.29,444.26ZM561.81,442.32C562.53,442.03 563.4,442.06 563.73,442.4C564.06,442.73 563.47,442.96 562.42,442.92C561.25,442.87 561.01,442.64 561.81,442.32ZM794.14,411.66C793.53,410.93 791.11,409.73 788.76,408.99C786.42,408.25 784.06,407.41 783.52,407.12C782.47,406.56 781.69,406.4 775.54,405.49C773.36,405.17 771.35,404.69 771.09,404.42C770.36,403.7 772.85,326.5 774.11,310.42C774.71,302.76 775.65,295.66 776.2,294.63C777.98,291.3 785.02,293.08 804.91,301.87C815.04,306.34 823.51,310 823.74,310C823.96,310 818.27,303.69 811.08,295.98C803.9,288.26 795.2,278.68 791.76,274.67C757.73,235.05 757.63,234.94 756.39,236.23C755.72,236.93 750.74,242.7 745.33,249.06C721.82,276.71 705.13,295.91 698.56,302.87C694.68,306.99 692.17,310.09 693,309.77C693.83,309.44 702.83,305.52 713,301.05C733.39,292.1 737.45,291.33 739.67,296C740.33,297.38 741.35,305.7 741.95,314.5C743.27,334.06 745.13,397.99 744.4,399.16C743.63,400.41 740,400.18 740,398.88C740,398.12 739.59,398.08 738.75,398.74C738.06,399.28 735.83,399.77 733.79,399.83L730.07,399.94L729.75,390.22L729.42,380.5L729.21,390.25C729.02,399.15 728.83,400 727.07,400C725.72,400 725.01,399.16 724.72,397.25L724.3,394.5L724.15,397.25C724.03,399.44 723.51,400 721.63,400C719.62,400 719.15,399.36 718.59,395.85C718.23,393.57 717.98,376.65 718.04,358.26C718.1,339.87 717.96,324.62 717.72,324.38C717.48,324.15 702.14,330.71 683.62,338.98C665.11,347.24 649.02,354 647.88,354C644.33,354 638.85,350.8 636.89,347.58C634.61,343.85 634.46,337.95 636.53,333.95C637.37,332.33 644.45,323.67 652.28,314.71C660.1,305.75 668.75,295.8 671.5,292.59C674.25,289.38 681.67,280.75 688,273.41C694.33,266.07 710.3,247.52 723.5,232.18C736.7,216.84 748.88,203.33 750.56,202.15C753.53,200.06 759.1,199.33 762.39,200.6C764.09,201.25 768.95,206.63 797.5,239.48C820.36,265.77 830.64,277.42 846.5,295.01C865.92,316.55 880.16,333.33 881.11,335.82C884.62,344.94 877.26,354.97 867.97,353.72C865.94,353.45 849.47,346.7 831.38,338.71L798.5,324.2L798.24,368.6C798.02,405.36 797.74,413 796.61,413C795.86,413 794.75,412.4 794.14,411.66ZM226.54,384.49C226.14,369.36 225.9,349.9 226.01,341.24C226.13,332.58 226.17,325.2 226.11,324.83C226.05,324.46 222.06,325.88 217.25,327.98C204.81,333.43 180.19,344.4 168.79,349.58C157.83,354.57 155.33,354.88 150.05,351.91C145.46,349.33 143,345.35 143,340.53C143,334.3 141.42,336.32 182.98,289.08C198.67,271.25 221.74,244.92 234.25,230.58C246.77,216.24 258.42,203.49 260.15,202.25C263.48,199.87 269.7,199.24 272.92,200.96C273.9,201.48 281.63,209.89 290.1,219.64C298.57,229.39 308.7,241 312.62,245.43C321.7,255.73 345.44,283.14 359,298.99C364.77,305.74 373.25,315.57 377.83,320.84C388.74,333.38 391.42,337.95 390.56,342.54C389.7,347.09 384.09,352.71 379.52,353.56C375.45,354.33 378.46,355.48 338,337.68C321.23,330.3 307.16,324.45 306.75,324.69C306.34,324.93 306,342.03 306,362.69L306,400.26L302.25,399.64C300.19,399.3 297.94,399.02 297.25,399.01C296.36,399 295.95,396.48 295.81,390.25L295.63,381.5L295.06,389.99C294.61,396.85 294.18,398.54 292.83,398.8C291.74,399.01 291,398.31 290.71,396.81L290.27,394.5L290.14,396.75C289.97,399.44 288.23,399.67 286.39,397.25C285.16,395.63 285.06,395.67 285.03,397.75C285.01,399.47 284.42,400 282.5,400L280,400L280.02,385.75C280.06,365.36 281.72,322.57 283.04,308.5C284.28,295.13 285.31,293 290.54,293C292.47,293 301.71,296.6 313.49,301.95L333.22,310.89L327.32,304.7C322.23,299.34 291.14,263.51 282.54,253.09C280.91,251.11 276.69,246.23 273.15,242.23L266.72,234.96L261.53,240.73C258.67,243.9 247.59,256.45 236.91,268.6C226.24,280.76 213.29,295.27 208.14,300.85L198.78,311L205.14,308.1C225.99,298.61 240.64,292.67 243.18,292.67C247.69,292.67 249.1,294.91 250.06,303.63C251.34,315.29 253,360.59 253,383.75L253,404L250.75,404.12C249.51,404.18 248.14,404.18 247.71,404.1C247.27,404.03 246.04,404.44 244.96,405.02C243.36,405.88 242.99,405.74 242.94,404.29C242.89,402.93 242.64,403.07 241.93,404.86C241.3,406.44 240.39,407.07 239.21,406.77C238.24,406.51 236.87,406.91 236.18,407.65C233.99,410 233.12,409.14 232.74,404.25L232.36,399.5L232.18,404.71C232.04,408.73 231.56,410.17 230.07,410.96C229,411.53 227.94,412 227.7,412C227.47,412 226.95,399.62 226.54,384.49ZM549.21,392.21C548.22,391.22 545.86,389.8 543.96,389.05C542.06,388.29 540.07,387.3 539.55,386.84C539.03,386.38 537.57,386 536.3,386C534.6,386 533.98,385.41 533.92,383.75C533.88,382.51 533.62,382.06 533.34,382.75C533.06,383.44 531.79,384 530.52,384L528.21,384L527.75,360.75C527.07,326.11 527.9,211.91 529.03,185C530.47,150.9 529.72,151.38 559.5,165.34C570.5,170.5 579.67,174.58 579.87,174.41C580.07,174.23 573.32,166.59 564.87,157.43C550,141.3 542.98,133.39 523.12,110.37C517.96,104.39 513.4,99.37 512.98,99.2C512.57,99.04 508.71,102.87 504.42,107.7C500.12,112.54 487.36,126.8 476.05,139.38C455.07,162.74 448.55,170.12 446.08,173.29C445.17,174.46 448.1,173.47 454.6,170.4C485.17,155.96 488.91,154.67 492.42,157.29C493.77,158.29 494.57,160.61 495.12,165.11C496.87,179.45 498.1,246.63 497.81,312.49C497.5,381.58 497.47,382.48 495.5,382.79C494.4,382.96 492.46,383.62 491.18,384.26C489.33,385.18 488.69,385.12 487.95,383.95C487.19,382.75 487.03,382.8 487.02,384.25C487.01,385.21 486.55,386.06 486,386.12C484.09,386.36 483.49,386.58 481,387.91C479.62,388.65 477.49,390.17 476.25,391.3C475.02,392.42 473.72,393.05 473.36,392.69C473,392.34 472.52,346.47 472.28,290.77C472.04,235.07 471.77,189.17 471.68,188.78C471.58,188.38 461.82,192.56 450,198.08C418.91,212.57 406.8,217.89 403.28,218.59C395.36,220.18 387.7,213.62 387.57,205.15C387.48,199.05 387.61,198.88 420.73,161.24C435.45,144.5 449.75,128.18 452.5,124.99C455.25,121.79 465.38,110.29 475,99.42C484.62,88.55 495.38,76.33 498.89,72.25C505.38,64.73 508,62.99 512.82,63.01C516.74,63.02 519.81,65.44 528.67,75.5C533.02,80.45 541.97,90.62 548.54,98.1C555.12,105.58 569.4,121.65 580.28,133.8C598.03,153.63 611.27,168.64 628.11,188.04C631.2,191.59 634.69,196.07 635.86,198C638.37,202.11 638.62,207.9 636.48,212.04C634.74,215.4 628.42,219 624.27,219C622.73,219 615.17,216.05 607.48,212.45C580.29,199.72 556.41,189 555.21,189C554.27,189 553.95,208.87 553.79,276.75C553.67,325.01 553.53,366.52 553.46,369C553.4,371.48 553.27,378.11 553.17,383.75C552.99,394.3 552.45,395.45 549.21,392.21ZM232.75,358.75C232.57,353.11 232.42,357.73 232.42,369C232.42,380.27 232.57,384.89 232.75,379.25C232.92,373.61 232.92,364.39 232.75,358.75ZM547.75,346.25C547.58,338.69 547.44,344.88 547.44,360C547.44,375.12 547.58,381.31 547.75,373.75C547.92,366.19 547.92,353.81 547.75,346.25ZM295.73,370.25C295.51,368.19 295.34,369.88 295.34,374C295.34,378.12 295.51,379.81 295.73,377.75C295.94,375.69 295.94,372.31 295.73,370.25ZM242.69,376.27C242.44,375.3 242.22,375.85 242.19,377.5C242.17,379.15 242.38,379.95 242.66,379.27C242.93,378.59 242.95,377.24 242.69,376.27ZM487.74,361.75C487.55,358.31 487.39,361.12 487.39,368C487.39,374.88 487.55,377.69 487.74,374.25C487.94,370.81 487.94,365.19 487.74,361.75ZM724.72,359.26C724.49,357.74 724.29,358.75 724.29,361.5C724.28,364.25 724.47,365.49 724.7,364.26C724.94,363.03 724.95,360.78 724.72,359.26ZM729.69,353.27C729.44,352.3 729.22,352.85 729.19,354.5C729.17,356.15 729.38,356.95 729.66,356.27C729.93,355.59 729.95,354.24 729.69,353.27ZM724.69,346.27C724.44,345.3 724.22,345.85 724.19,347.5C724.17,349.15 724.38,349.95 724.66,349.27C724.93,348.59 724.95,347.24 724.69,346.27ZM729.73,337.27C729.51,335.2 729.33,336.65 729.33,340.5C729.32,344.35 729.5,346.05 729.72,344.27C729.94,342.5 729.95,339.35 729.73,337.27ZM159.5,345C160.76,344.46 160.95,344.14 160,344.14C159.18,344.14 157.6,344.53 156.5,345C155.24,345.54 155.05,345.86 156,345.86C156.82,345.86 158.4,345.47 159.5,345ZM866.5,344.12C857.83,340.97 857.38,340.9 862.5,343.47C865.25,344.85 868.4,345.97 869.5,345.95C870.6,345.94 869.25,345.12 866.5,344.12ZM153,344.62C153,344.41 152.21,343.63 151.25,342.87C149.66,341.63 149.63,341.66 150.87,343.25C152.18,344.92 153,345.45 153,344.62ZM382.13,343.25C383.37,341.66 383.34,341.63 381.75,342.87C380.08,344.18 379.55,345 380.38,345C380.59,345 381.37,344.21 382.13,343.25ZM295.68,340.81C295.36,340.01 295.13,340.25 295.08,341.42C295.04,342.47 295.27,343.06 295.6,342.73C295.94,342.4 295.97,341.53 295.68,340.81ZM163,338.5C171.04,334.29 170.37,333.96 161.9,337.97C157.22,340.18 155.29,340.66 154.31,339.85C152.99,338.75 152.41,340.08 153.67,341.33C154.8,342.47 156.28,342.02 163,338.5ZM656,337.5C660.67,335.08 664.05,333.08 663.5,333.05C662.95,333.03 658.99,334.78 654.7,336.95C650.21,339.23 646.22,340.64 645.29,340.28C644.21,339.87 643.91,340.05 644.39,340.83C645.5,342.63 646.84,342.24 656,337.5ZM872,341.09C872,340.6 871.16,340.41 870.13,340.68C869.11,340.94 865.52,339.77 862.15,338.08C858.79,336.38 848.49,331.66 839.27,327.58C830.05,323.51 815.75,317.17 807.5,313.49C787.25,304.45 785.34,303.66 786.5,304.78C787.05,305.32 791.33,307.45 796,309.52C800.67,311.59 811.92,316.65 821,320.76C830.08,324.87 842,330.14 847.5,332.46C853,334.79 859.75,337.86 862.5,339.3C867.54,341.93 872,342.77 872,341.09ZM377,340.27C375.62,340.02 374.04,339.43 373.49,338.98C372.05,337.8 346.66,327 346.27,327.4C346.09,327.58 349.39,329.25 353.62,331.11C357.84,332.98 364.27,335.93 367.9,337.68C371.53,339.42 375.62,340.82 377,340.79L379.5,340.73L377,340.27ZM854,339C853.17,338.47 852.05,338.03 851.5,338.03C850.95,338.03 851.17,338.47 852,339C852.83,339.53 853.95,339.97 854.5,339.97C855.05,339.97 854.83,339.53 854,339ZM653.16,322.98C658.18,317.21 666.02,308.23 670.57,303C675.12,297.77 687.32,283.65 697.67,271.61C708.03,259.57 720.42,245.17 725.2,239.61C729.99,234.05 738.33,224.32 743.74,218C751.83,208.54 754.11,206.45 756.63,206.2C759.94,205.87 758.76,204.65 791.36,242C815.34,269.47 828.94,284.91 838,294.96C849.92,308.17 859.93,319.61 866.93,328C874.39,336.95 874,336.54 874,335.38C874,334.44 856.72,314.28 832.5,286.97C817.18,269.69 806.33,257.32 797,246.48C792.33,241.05 786.01,233.88 782.96,230.55C779.91,227.22 773.45,219.89 768.6,214.25C759.29,203.41 757.2,202.26 753.24,205.75C751.45,207.32 732,229.82 724.56,238.91C722.94,240.88 719.57,244.77 717.06,247.55C714.55,250.32 705.08,261.29 696,271.93C686.92,282.56 671.84,300.11 662.47,310.92C644.12,332.1 640.99,336.07 641.02,338.15C641.04,338.89 641.72,338.14 642.54,336.48C643.36,334.81 648.14,328.74 653.16,322.98ZM867.81,335.25C866.98,334.29 862.84,329.35 858.6,324.27C854.35,319.19 845.4,309.02 838.69,301.67C824.29,285.89 803.28,262.26 788.75,245.5C783.02,238.9 777.47,232.85 776.42,232.05C775.36,231.25 776.34,232.6 778.6,235.05C780.85,237.5 788.25,246.03 795.04,254C801.82,261.98 810.11,271.43 813.44,275C822.16,284.34 856.84,323.37 862.97,330.75C865.83,334.19 868.43,337 868.74,337C869.05,337 868.63,336.21 867.81,335.25ZM152.51,333L154.5,330.5L152.25,332.4C151.01,333.45 150,334.77 150,335.32C150,335.88 150.12,336.15 150.26,335.92C150.4,335.69 151.42,334.38 152.51,333ZM168.58,322.25C175.06,314.69 181.49,307.26 182.87,305.75C184.25,304.24 185.11,303 184.78,303C184.46,303 178.86,309.18 172.35,316.73C156.43,335.18 155.75,336 156.31,336C156.57,336 162.09,329.81 168.58,322.25ZM187.2,327.66C222.18,311.9 226.99,309.66 226.64,309.31C226.44,309.11 219.13,312.16 210.39,316.09C201.65,320.03 189.78,325.35 184,327.93C173.26,332.72 168.96,334.92 170.2,334.97C170.59,334.99 178.24,331.7 187.2,327.66ZM368.3,326.25C361.23,318.32 350.21,305.48 336.76,289.5C332.6,284.55 326.63,277.8 323.5,274.5L317.82,268.5L322.46,274C325.01,277.02 329.67,282.46 332.8,286.07C335.94,289.69 346.38,301.95 356,313.32C365.62,324.7 373.89,334 374.36,334C374.83,334 372.1,330.51 368.3,326.25ZM376.84,327.75C371.38,321.15 346.99,292.95 338.12,283C334.45,278.88 326.73,269.93 320.97,263.11C315.21,256.3 303.07,242.33 294,232.07C284.93,221.81 275.78,211.3 273.68,208.71C268.68,202.53 265.2,202.28 260.46,207.75C258.67,209.81 252.56,216.9 246.88,223.5C241.21,230.1 227.32,246.05 216.03,258.95C204.74,271.85 191.76,286.7 187.18,291.95C182.6,297.2 176.07,304.65 172.66,308.5C169.26,312.35 163.82,318.65 160.59,322.5C152.87,331.7 159.93,324.35 172.14,310.46C190.61,289.47 211.56,265.65 220.82,255.11C233.85,240.29 252.66,218.51 257.92,212.16C262.41,206.74 265.82,204.61 268.43,205.61C269.74,206.11 291.02,229.87 309.89,251.88C313.95,256.62 321.64,265.45 326.97,271.5C332.3,277.55 340.9,287.45 346.08,293.51C362.04,312.16 380.35,333 380.78,333C381,333 379.23,330.64 376.84,327.75ZM671.66,330.56C681.96,326.37 717.25,310.43 722.5,307.59C729.51,303.8 726.55,304.93 711.5,311.79C704.35,315.05 693.1,320.04 686.5,322.88C673.33,328.55 664.18,332.84 665.08,332.94C665.4,332.97 668.36,331.9 671.66,330.56ZM660,323.29C660,322.54 659.1,323.33 654.96,327.75L650.5,332.5L655.25,328.04C657.86,325.59 660,323.45 660,323.29ZM729.74,313.25C729.54,310.09 729.38,312.68 729.38,319C729.38,325.32 729.54,327.91 729.74,324.75C729.94,321.59 729.94,316.41 729.74,313.25ZM343.68,325.88C339.85,323.65 312.74,311.93 312.34,312.33C312.11,312.56 313.62,313.46 315.71,314.32C317.79,315.18 324.9,318.36 331.5,321.38C342.45,326.39 348.23,328.52 343.68,325.88ZM188.58,321.25C188.12,320.79 182,323.83 182,324.51C182,324.76 183.57,324.22 185.49,323.3C187.41,322.39 188.8,321.46 188.58,321.25ZM349.45,324.14C347.72,322.58 336.73,317.18 317.5,308.42C295.95,298.62 291,296.68 291,298.04C291,298.57 291.51,299 292.14,299C293.31,299 327.34,314.16 341.5,320.99C350.12,325.14 350.91,325.46 349.45,324.14ZM688.57,318.14C695.13,315.19 706.31,310.1 713.42,306.84C720.53,303.57 728.06,300.37 730.17,299.71C734.17,298.46 735.68,296.37 731.75,297.52C726.63,299.02 671.28,324.88 675.57,323.78C676.16,323.62 682.01,321.09 688.57,318.14ZM294.73,311.25C294.51,309.19 294.34,310.88 294.34,315C294.34,319.12 294.51,320.81 294.73,318.75C294.94,316.69 294.94,313.31 294.73,311.25ZM547.75,217.82C547.6,198.4 547.47,214 547.47,252.5C547.47,291 547.6,306.9 547.75,287.82C547.9,268.75 547.9,237.25 547.75,217.82ZM663,319.5C664.29,318.12 665.12,317 664.85,317C664.57,317 663.29,318.12 662,319.5C660.71,320.88 659.88,322 660.15,322C660.43,322 661.71,320.88 663,319.5ZM826.5,316.97C811.19,309.45 786.79,298.41 783.8,297.66C782.32,297.29 780.85,297.44 780.5,298C780.16,298.55 780.91,299.02 782.19,299.05C783.46,299.07 795.75,304.2 809.5,310.43C835.72,322.33 843.45,325.3 826.5,316.97ZM214,310.45C225.82,305.11 237.53,300.17 240,299.47C243.36,298.53 244.06,298.03 242.76,297.5C241.07,296.81 211.07,309.76 196,317.69C186.44,322.72 190.06,321.26 214,310.45ZM233,315.5C233,312.7 232.61,312 231.06,312C229.99,312 228.87,312.41 228.56,312.91C228.25,313.41 228.9,313.58 230,313.29C231.68,312.85 232,313.26 232,315.88C232,317.6 232.22,319 232.5,319C232.78,319 233,317.43 233,315.5ZM697.14,287.17C707.24,275.44 719.65,261.04 724.72,255.17C729.79,249.3 737.85,239.78 742.64,234C747.43,228.22 752.93,221.82 754.86,219.77C756.79,217.72 758.15,215.82 757.89,215.56C757.62,215.29 752.64,220.83 746.81,227.86C740.98,234.89 733.29,243.98 729.73,248.07C707.3,273.76 688.09,296.16 679.17,307C666.46,322.44 673.01,315.21 697.14,287.17ZM725,315.5C725,313.57 724.64,312 724.2,312C723.76,312 723.59,313.57 723.81,315.5C724.03,317.43 724.39,319 724.61,319C724.82,319 725,317.43 725,315.5ZM351.35,313.74C342.31,303.4 317.55,274.65 312,268.05C300.92,254.87 274.75,225 274.28,225C273.61,225 279.35,232.08 285.78,239.19C288.93,242.66 299.79,255.18 309.92,267C320.04,278.82 330.17,290.56 332.42,293.07C334.66,295.58 340.26,301.99 344.86,307.32C349.45,312.64 353.44,317 353.71,317C353.98,317 352.92,315.53 351.35,313.74ZM182.13,313.25C183.37,311.66 183.34,311.63 181.75,312.87C180.79,313.63 180,314.41 180,314.62C180,315.45 180.82,314.92 182.13,313.25ZM841.86,312.25C821.69,290.2 783.39,246.75 774.42,235.75C771.39,232.04 768.68,229 768.4,229C767.52,229 776.37,239.85 789.72,255.13C806.64,274.49 843.29,315 843.9,315C844.16,315 843.24,313.76 841.86,312.25ZM487.68,311.81C487.36,311.01 487.13,311.25 487.08,312.42C487.04,313.47 487.27,314.06 487.6,313.73C487.94,313.4 487.97,312.53 487.68,311.81ZM670.56,310.75L673.5,307.5L670.25,310.44C667.22,313.17 666.54,314 667.31,314C667.49,314 668.95,312.54 670.56,310.75ZM207.16,284.82C239.06,249.04 251.9,234.31 255.83,229L259.17,224.5L255.33,228.92C236.67,250.45 224.14,264.63 204.98,285.92C190.63,301.87 182.74,311 183.31,311C183.59,311 194.32,299.22 207.16,284.82ZM303,307.5C300.52,306.17 298.05,305.09 297.5,305.09C296.95,305.09 298.52,306.17 301,307.5C303.48,308.83 305.95,309.91 306.5,309.91C307.05,309.91 305.48,308.83 303,307.5ZM236,305.5C238.47,304.17 240.05,303.09 239.5,303.09C238.95,303.09 236.47,304.17 234,305.5C231.53,306.83 229.95,307.91 230.5,307.91C231.05,307.91 233.53,306.83 236,305.5ZM676,304.5C677.29,303.12 678.12,302 677.85,302C677.57,302 676.29,303.12 675,304.5C673.71,305.88 672.88,307 673.15,307C673.43,307 674.71,305.88 676,304.5ZM295.46,305.07C295.77,304.56 295.58,303.86 295.02,303.51C294.46,303.16 294,303.58 294,304.44C294,306.2 294.6,306.46 295.46,305.07ZM189,298.5C190.29,297.12 191.12,296 190.85,296C190.57,296 189.29,297.12 188,298.5C186.71,299.88 185.88,301 186.15,301C186.43,301 187.71,299.88 189,298.5ZM542.69,296.25C542.44,295.29 542.23,296.07 542.23,298C542.23,299.93 542.44,300.71 542.69,299.75C542.94,298.79 542.94,297.21 542.69,296.25ZM681,298.5C682.29,297.12 683.12,296 682.85,296C682.57,296 681.29,297.12 680,298.5C678.71,299.88 677.88,301 678.15,301C678.43,301 679.71,299.88 681,298.5ZM487.68,297.81C487.36,297.01 487.13,297.25 487.08,298.42C487.04,299.47 487.27,300.06 487.6,299.73C487.94,299.4 487.97,298.53 487.68,297.81ZM691.15,286.81C694.09,283.39 695.98,280.91 695.35,281.3C694.72,281.68 691.8,284.78 688.85,288.19C685.91,291.61 684.02,294.09 684.65,293.7C685.28,293.32 688.2,290.22 691.15,286.81ZM199.99,285.75C203.51,281.76 205.13,279.62 203.59,281C200.64,283.64 192.54,293 193.2,293C193.42,293 196.47,289.74 199.99,285.75ZM542.68,282.81C542.36,282.01 542.13,282.25 542.08,283.42C542.04,284.47 542.27,285.06 542.6,284.73C542.94,284.4 542.97,283.53 542.68,282.81ZM700,276.5C701.29,275.12 702.12,274 701.85,274C701.57,274 700.29,275.12 699,276.5C697.71,277.88 696.88,279 697.15,279C697.43,279 698.71,277.88 700,276.5ZM211.56,272.75L214.5,269.5L211.25,272.44C209.46,274.05 208,275.51 208,275.69C208,276.46 208.83,275.78 211.56,272.75ZM712.66,261.83C725.46,247.28 730.67,240.92 723.56,248.5C716.17,256.38 701.8,273 702.37,273C702.62,273 707.25,267.97 712.66,261.83ZM218,265.5C219.87,263.57 221.17,262 220.89,262C220.62,262 218.87,263.57 217,265.5C215.13,267.43 213.83,269 214.11,269C214.38,269 216.13,267.43 218,265.5ZM308.95,257.5C303.9,251.72 299.51,247 299.21,247C298.9,247 299.54,248.01 300.63,249.25C311.56,261.7 317.29,268 317.68,268C317.94,268 314.01,263.27 308.95,257.5ZM245.22,235C249.63,229.78 256.17,221.99 259.75,217.7L266.26,209.9L271.38,215.69C277.5,222.62 283.13,228.42 280.93,225.55C280.07,224.42 276.52,220.24 273.04,216.25C265.78,207.94 266.67,207.83 258.4,218C251.37,226.63 239.22,240.91 230.15,251.17L222.8,259.5L230,252C233.96,247.88 240.81,240.22 245.22,235ZM291.47,237.5C287.78,233.38 284.5,230 284.18,230C283.87,230 285.15,231.69 287.04,233.75C295.56,243.04 297.43,245 297.79,245C298.01,245 295.16,241.62 291.47,237.5ZM735.63,235.3C738.86,231.61 740.98,228.91 740.35,229.29C738.94,230.15 728.62,242 729.28,242C729.54,242 732.4,238.98 735.63,235.3ZM766.9,220C759.5,210.95 756.57,207.85 758.64,211.25C759.92,213.33 774.11,230 774.62,230C774.87,230 771.4,225.5 766.9,220ZM765.43,224.5C763.96,222.57 762.54,221 762.26,221C761.76,221 762.98,222.78 765.86,226.25C768.49,229.42 768.16,228.07 765.43,224.5ZM744.5,225C745.5,223.9 746.08,223 745.81,223C745.53,223 744.5,223.9 743.5,225C742.5,226.1 741.92,227 742.19,227C742.47,227 743.5,226.1 744.5,225ZM261.5,222C262.5,220.9 263.08,220 262.81,220C262.53,220 261.5,220.9 260.5,222C259.5,223.1 258.92,224 259.19,224C259.47,224 260.5,223.1 261.5,222ZM269.88,219C268.11,216.8 266.59,215 266.49,215C266.39,215 265.45,216 264.4,217.23C262.73,219.2 262.71,219.3 264.31,218.06C265.92,216.81 266.46,217 269.29,219.83C273.56,224.1 273.75,223.82 269.88,219ZM753.86,213.86L757.21,209.5L753.08,214C750.81,216.47 748.49,219.4 747.91,220.5C746.97,222.3 747.05,222.28 748.68,220.36C749.68,219.18 752.01,216.26 753.86,213.86ZM762,219.62C762,219.41 761.21,218.63 760.25,217.87C758.66,216.63 758.63,216.66 759.87,218.25C761.18,219.92 762,220.45 762,219.62ZM407,209C408.93,207.95 410.05,207.08 409.5,207.08C408.95,207.07 407.38,207.71 406,208.5C402.3,210.61 399.21,210.3 396.45,207.55C395.1,206.2 394,205.49 394,205.97C394,207.51 399.18,211 401.38,210.96C402.55,210.94 405.07,210.05 407,209ZM626.27,210.34C625.59,210.07 624.24,210.05 623.27,210.31C622.3,210.56 622.85,210.78 624.5,210.81C626.15,210.83 626.95,210.62 626.27,210.34ZM415.14,200.41C423.04,196.78 434,191.69 439.5,189.1C445,186.51 456.78,181.04 465.69,176.95C474.59,172.85 481.51,169.37 481.07,169.21C480.31,168.94 476.41,170.64 456.5,179.98C414.33,199.74 405.15,203.94 402.75,204.53C401.24,204.91 400,205.62 400,206.11C400,207.4 399.52,207.58 415.14,200.41ZM614,206C613.17,205.47 612.05,205.03 611.5,205.03C610.95,205.03 611.17,205.47 612,206C612.83,206.53 613.95,206.97 614.5,206.97C615.05,206.97 614.83,206.53 614,206ZM619.5,203.39C615.1,201.44 607.23,197.8 602,195.31C596.77,192.81 583.85,186.79 573.27,181.91C562.7,177.04 551.35,171.69 548.05,170.03C544.75,168.36 541.71,167 541.28,167C539.35,167.01 548.77,171.76 575.12,184.06C617.49,203.83 624.36,206.92 626,206.93C626.83,206.94 623.9,205.34 619.5,203.39ZM627.35,195.09C625.23,192.44 615.62,181.41 606,170.59C596.38,159.77 585.58,147.59 582,143.54C578.42,139.49 571.45,131.61 566.5,126.04C561.55,120.47 555.02,113.08 552,109.63C533.79,88.83 518.27,71.27 516.75,69.75C515.79,68.79 513.72,68 512.15,68C509.03,68 506.95,70.02 490.5,89.05C485.55,94.78 479.45,101.73 476.94,104.48C474.43,107.24 465.43,117.58 456.94,127.45C448.45,137.32 437.45,149.93 432.5,155.47C427.55,161.01 421.26,168.24 418.53,171.52C415.79,174.81 409.93,181.55 405.51,186.5C396.63,196.45 394.52,199 395.23,199C395.73,199 424.47,166.57 443.5,144.52C460.23,125.14 476.14,106.92 484.51,97.57C489.47,92.03 496.42,84.12 499.96,80C507.49,71.23 509.9,69.05 512.13,69.02C513.03,69.01 516.46,71.81 519.76,75.25C525.5,81.24 528.57,84.71 546.5,105.42C553.36,113.34 572,134.36 618.35,186.43C623.77,192.52 628.7,198.56 629.31,199.86C629.92,201.16 630.6,201.7 630.81,201.07C631.02,200.43 629.47,197.74 627.35,195.09ZM429,199C429.82,198.47 430.05,198.03 429.5,198.03C428.95,198.03 427.82,198.47 427,199C426.18,199.53 425.95,199.97 426.5,199.97C427.05,199.97 428.18,199.53 429,199ZM618.87,193.21C600.53,172.59 582.69,153.04 580.36,151.02C578.79,149.66 579.8,151.01 582.61,154.02C587.28,159.03 595.94,168.67 614.32,189.33C618.07,193.55 621.39,197 621.69,197C621.99,197 620.72,195.3 618.87,193.21ZM437.61,184.88C443.6,182.07 452.77,177.76 458,175.3C469.83,169.73 486.01,162.4 488,161.69C489.06,161.31 488.92,161.13 487.5,161.07C485.16,160.97 472.42,166.72 445.14,180.2C424.04,190.62 419.83,193.24 437.61,184.88ZM600,189.44C600,188.2 540.06,160.99 537.4,161.02C536.36,161.04 537.98,162.11 541,163.42C547.83,166.37 559.42,171.57 582,181.85C591.62,186.23 599.61,189.86 599.75,189.91C599.89,189.96 600,189.75 600,189.44ZM415.13,184.25C416.37,182.66 416.34,182.63 414.75,183.87C413.08,185.18 412.55,186 413.38,186C413.59,186 414.37,185.21 415.13,184.25ZM483.72,177.77C483.5,175.97 483.32,177.2 483.31,180.5C483.3,183.8 483.49,185.27 483.71,183.77C483.94,182.27 483.95,179.57 483.72,177.77ZM438.19,164.5L441.18,160.5L437.84,164.11C436,166.09 431.19,171.49 427.15,176.11L419.8,184.5L427.5,176.5C431.73,172.1 436.55,166.7 438.19,164.5ZM597.88,176.24C593.82,171.96 582.49,159.59 572.69,148.74C562.89,137.88 554.63,129 554.32,129C553.77,129 558.59,134.47 579.9,158C592.17,171.55 604.08,184 604.78,184C605.04,184 601.94,180.51 597.88,176.24ZM420.5,178C421.5,176.9 422.08,176 421.81,176C421.53,176 420.5,176.9 419.5,178C418.5,179.1 417.92,180 418.19,180C418.47,180 419.5,179.1 420.5,178ZM472,179C472.82,178.47 473.05,178.03 472.5,178.03C471.95,178.03 470.82,178.47 470,179C469.18,179.53 468.95,179.97 469.5,179.97C470.05,179.97 471.18,179.53 472,179ZM427.5,170C430.21,167.25 432.2,165 431.92,165C431.65,165 429.21,167.25 426.5,170C423.79,172.75 421.8,175 422.08,175C422.35,175 424.79,172.75 427.5,170ZM436,160.5C437.87,158.57 439.17,157 438.89,157C438.62,157 436.87,158.57 435,160.5C433.13,162.43 431.83,164 432.11,164C432.38,164 434.13,162.43 436,160.5ZM449.54,151.25C453.32,146.99 455.37,144.4 454.1,145.5C451.43,147.8 441.58,159 442.23,159C442.47,159 445.76,155.51 449.54,151.25ZM450.73,143.53C454.85,138.56 456.49,136.33 454.36,138.58C448.37,144.9 439.33,155.67 441.4,154.03C442.41,153.22 446.61,148.49 450.73,143.53ZM574.2,143.25C572.01,140.64 569.18,137.6 567.9,136.5C566.62,135.4 568.2,137.54 571.41,141.25C574.62,144.96 577.46,148 577.72,148C577.97,148 576.39,145.86 574.2,143.25ZM479.77,117.25C492.41,103.09 504.91,88.85 507.55,85.61L512.34,79.71L516.27,84.11L520.2,88.5L516.39,83.45L512.58,78.41L503.12,89.45C497.92,95.53 490.63,103.88 486.94,108C483.24,112.12 475.81,120.45 470.42,126.5C465.04,132.55 459.5,138.74 458.13,140.25C456.75,141.76 455.89,143 456.2,143C456.52,143 467.13,131.41 479.77,117.25ZM469.13,136.25C470.37,134.66 470.34,134.63 468.75,135.87C467.08,137.18 466.55,138 467.38,138C467.59,138 468.37,137.21 469.13,136.25ZM558.93,126C555.51,122.15 552.47,119 552.17,119C551.64,119 553.86,121.59 560.94,129.25C566.92,135.72 565.44,133.33 558.93,126ZM470.2,121.75C472.39,119.14 473.97,117 473.72,117C473.46,117 470.62,120.04 467.41,123.75C464.2,127.46 462.62,129.6 463.9,128.5C465.18,127.4 468.01,124.36 470.2,121.75ZM478,126.5C479.29,125.12 480.12,124 479.85,124C479.57,124 478.29,125.12 477,126.5C475.71,127.88 474.88,129 475.15,129C475.43,129 476.71,127.88 478,126.5ZM551.16,124.25C550.07,122.74 547.71,120.15 545.91,118.5C543.81,116.57 544.38,117.56 547.51,121.25C552.69,127.37 554.42,128.79 551.16,124.25ZM484.13,119.25C485.37,117.66 485.34,117.63 483.75,118.87C482.08,120.18 481.55,121 482.38,121C482.59,121 483.37,120.21 484.13,119.25ZM478.5,112C480.65,109.8 482.18,108 481.91,108C481.63,108 479.65,109.8 477.5,112C475.35,114.2 473.82,116 474.09,116C474.37,116 476.35,114.2 478.5,112ZM537.39,108.5C534.23,104.92 531.42,102 531.15,102C530.62,102 533.21,105.07 538.93,111.25C544.64,117.42 543.56,115.49 537.39,108.5ZM549,114.62C549,114.41 548.21,113.63 547.25,112.87C545.66,111.63 545.63,111.66 546.87,113.25C548.18,114.92 549,115.45 549,114.62ZM545,109.69C545,109.51 543.54,108.05 541.75,106.44L538.5,103.5L541.44,106.75C544.17,109.78 545,110.46 545,109.69ZM485.56,103.75L488.5,100.5L485.25,103.44C482.22,106.17 481.54,107 482.31,107C482.49,107 483.95,105.54 485.56,103.75ZM539,102.7C539,102.53 537.31,100.84 535.25,98.95L531.5,95.5L534.95,99.25C538.15,102.74 539,103.46 539,102.7ZM531,100.67C531,100.5 529.76,99.26 528.25,97.92L525.5,95.5L527.92,98.25C530.19,100.82 531,101.46 531,100.67ZM497,91.29C497,90.54 496.1,91.33 491.96,95.75L487.5,100.5L492.25,96.04C494.86,93.59 497,91.45 497,91.29ZM507.13,93.25C508.37,91.66 508.34,91.63 506.75,92.87C505.79,93.63 505,94.41 505,94.62C505,95.45 505.82,94.92 507.13,93.25ZM526,94.69C526,94.51 524.54,93.05 522.75,91.44L519.5,88.5L522.44,91.75C525.17,94.78 526,95.46 526,94.69ZM530,92.67C530,92.5 528.76,91.26 527.25,89.92L524.5,87.5L526.92,90.25C529.19,92.82 530,93.46 530,92.67ZM505.12,81.43C509.67,75.93 511.87,74 513.19,74.34C514.19,74.6 514.75,74.41 514.44,73.91C513.03,71.62 510.02,73.72 504.22,81.06C500.76,85.42 498.14,89 498.4,89C498.65,89 501.68,85.59 505.12,81.43ZM522,83.62C522,83.41 521.21,82.63 520.25,81.87C518.66,80.63 518.63,80.66 519.87,82.25C521.18,83.92 522,84.45 522,83.62ZM518,78.62C518,78.41 517.21,77.63 516.25,76.87C514.66,75.63 514.63,75.66 515.87,77.25C517.18,78.92 518,79.45 518,78.62Z"/>
</svg>
