<?xml version="1.0" encoding="UTF-8" standalone="no"?>
<!DOCTYPE svg PUBLIC "-//W3C//DTD SVG 1.1//EN" "http://www.w3.org/Graphics/SVG/1.1/DTD/svg11.dtd">
<svg width="100%" height="100%" viewBox="0 0 1024 1024" version="1.1" xmlns="http://www.w3.org/2000/svg" xmlns:xlink="http://www.w3.org/1999/xlink" xml:space="preserve" xmlns:serif="http://www.serif.com/" style="fill-rule:evenodd;clip-rule:evenodd;stroke-linejoin:round;stroke-miterlimit:2;">
    <path d="M348.75,843.28C350.54,843.05 353.46,843.05 355.25,843.28C357.04,843.5 355.57,843.68 352,843.68C348.43,843.68 346.96,843.5 348.75,843.28ZM325.07,841.9C323.73,841.37 322.02,841.16 321.26,841.45C320.41,841.78 320.17,841.54 320.61,840.82C321.09,840.04 320.77,839.87 319.61,840.32C318.6,840.71 318.15,840.57 318.5,840C318.84,839.45 318.44,839.28 317.59,839.6C315.48,840.42 306.77,831.46 303.6,825.21C299.78,817.65 298.76,812.07 298.1,795L297.5,779.5L176.5,779.5L175.93,791.67C175.4,802.75 175.07,804.41 172.18,810.17C165.81,822.86 158.79,825.47 132.97,824.8C116.66,824.37 115,824.15 110.96,821.92C108.56,820.59 105.12,817.57 103.32,815.21C97.59,807.68 96.67,802.97 96.45,779.96C96.27,761.18 96.07,759.05 94.12,755.23C91.05,749.23 89.2,740.13 88.47,727.5C87.73,714.72 89.47,674.9 90.97,670.5L91.99,667.5L91.5,671C91.23,672.92 90.99,688.45 90.95,705.5C90.88,738.7 91.18,741.33 96.39,753.75C98.63,759.11 98.81,760.8 98.9,778.5C99.02,799.6 100.09,805.82 104.75,812.45C108.87,818.31 114.5,821.86 121.5,823.01C129.47,824.31 148.06,824.27 153.31,822.93C159.23,821.43 164.97,817.23 168.72,811.64C172.98,805.31 173.96,801.58 174.69,788.76L175.3,778.03L237.4,777.76C271.55,777.62 299.61,777.53 299.74,777.57C299.87,777.61 300.42,785.26 300.95,794.57C302.1,814.6 303.94,821.59 310.35,830.27C313.73,834.84 322.56,840.27 328.78,841.6C333.41,842.6 333.83,842.84 331,842.85C329.07,842.86 326.4,842.44 325.07,841.9ZM365.22,841.92C371.29,841.03 374.95,839.46 381.62,834.9C390.99,828.49 396,814.7 396,795.34L396,784L626.7,784L627.29,797.75C627.96,813.49 629.6,820.23 634.55,827.55C639.52,834.89 646.02,839.25 655.5,841.59C658.4,842.31 659.45,842.85 658,842.88C656.62,842.91 653.06,842.09 650.08,841.06C647.1,840.03 644.14,839.39 643.51,839.63C641.83,840.28 633.35,832.45 630.54,827.65C626.99,821.58 625.74,815.17 625.08,799.7L624.5,785.89L512.06,785.97C450.22,786.01 399.42,786.25 399.17,786.49C398.93,786.73 398.82,791.12 398.92,796.25C399.11,805.59 396.82,820.3 394.79,822.75C394.22,823.44 394.04,824 394.38,824C394.72,824 394.21,824.84 393.25,825.86C389.77,829.56 385.51,835.52 385.78,836.32C385.93,836.78 385.57,836.85 384.98,836.49C384.39,836.13 383.33,836.31 382.63,836.89C379.9,839.15 367.77,842.99 363.73,842.88C359.72,842.76 359.8,842.71 365.22,841.92ZM691.56,842.01C701.95,840.48 710.15,835.11 715.99,826.01C720.59,818.85 722.06,812.28 722.62,796.5C722.89,788.8 723.32,781.49 723.57,780.25L724.04,778L786.02,778C820.11,778 848.01,778.34 848.02,778.75C848.21,787.85 850.38,804.07 851.85,807.4C854.52,813.43 859.8,819.02 864.99,821.32C870.63,823.81 894.35,824.92 903,823.09C911.23,821.35 917.09,816.58 921.16,808.33L924.5,801.55L925.09,779.02C925.67,756.72 925.71,756.42 928.91,748C932.99,737.25 934.08,725.26 933.55,697C933.26,681.31 933.36,678.96 933.96,687C935.13,702.48 935.13,730.58 933.97,737.77C933.41,741.21 931.65,747.96 930.06,752.77C927.32,761.04 927.15,762.6 926.76,782.5C926.46,797.38 925.95,804.37 924.98,806.5C922.05,812.92 917.01,818.68 911.8,821.56C906.5,824.5 906.49,824.5 889,824.5C879.38,824.5 869.85,824.15 867.84,823.72C865.82,823.29 861.66,821.08 858.6,818.81C850.59,812.88 848.82,808.67 847.53,792.5L846.5,779.5L726.36,778.98L725.31,796.74C724.51,810.24 723.77,815.75 722.24,819.7C721.14,822.56 720.48,825.15 720.78,825.45C721.09,825.75 720.78,826 720.11,826C719.43,826 719.13,826.4 719.44,826.9C719.74,827.39 719.29,828.06 718.43,828.39C717.57,828.72 717.17,829.47 717.53,830.06C718.36,831.39 710.41,838.86 708.16,838.86C707.25,838.86 704.02,839.78 701,840.9C697.98,842.02 693.48,842.89 691,842.84L686.5,842.75L691.56,842.01ZM328.46,839.66C322.55,838.16 315.07,833.29 311.64,828.72C304.65,819.4 302.09,808.73 302.03,788.75L302,776L239.08,776C204.48,776 175.5,775.75 174.7,775.44C173.46,774.96 173.16,777.07 172.81,788.69C172.43,801.23 172.15,802.97 169.73,807.64C166.52,813.85 160.02,819.65 154.64,821.1C152.32,821.72 143.99,822.03 134.58,821.83C120.63,821.54 117.97,821.22 114.5,819.42C109.68,816.9 103.6,809.2 102,803.59C101.35,801.34 100.58,790.05 100.29,778.5C99.76,758.32 99.63,757.23 96.86,750.3C92.59,739.64 91.76,730.59 92.22,699.77C92.68,669.14 92.14,671.85 102.63,647.26C105.03,641.63 107,636.83 107,636.6C107,636.37 104.64,635.9 101.75,635.55C87.05,633.76 80.28,630.15 76.79,622.25C75.05,618.33 74.82,616.2 75.22,607.93C75.62,599.47 76.08,597.52 78.69,592.86C80.8,589.11 83.02,586.75 86.1,585C90.06,582.75 91.61,582.5 101.5,582.5C111.37,582.5 112.96,582.76 117,585C120.06,586.7 122.18,588.84 123.62,591.71L125.75,595.91L130.3,583.66C139.73,558.32 152.35,530.78 159.02,521C167.38,508.75 173.64,504.63 186.32,503.02C208.85,500.17 297.76,499.34 334.73,501.65C344.18,502.24 345,502.15 345.59,500.39C347.42,495 357.76,469.34 361.27,461.5C366.2,450.49 374.02,436.55 377.53,432.5C379.92,429.75 379.89,429.88 377.2,434C371.23,443.15 360.84,466.49 349.1,497.14C337.84,526.51 336.58,529.51 336.21,527.71C336,526.73 336.55,523.84 337.42,521.29C338.28,518.74 338.81,516.48 338.59,516.26C338.37,516.04 328.81,515.4 317.35,514.83C286.61,513.33 200.97,515.6 187.6,518.28C185.8,518.64 180.98,525.48 182.01,526.2C182.6,526.61 226.87,525.31 254.5,524.08C273.97,523.21 273.73,523.2 245.5,523.6C229.55,523.83 209.07,524.21 200,524.45C188.62,524.74 185.21,524.61 189,524.01C195.17,523.05 275,521.38 275,522.21C275,522.51 273.89,524.73 272.53,527.16C268.76,533.92 266.78,543.26 266.64,554.99C266.48,567.68 268.26,573.75 274.09,580.36C279.93,587 285.17,588.67 309.25,591.55C311.86,591.87 314,592.43 313.99,592.81C313.98,593.54 308.01,608.14 300.21,626.5L295.54,637.5L295.52,661.5C295.51,679.3 295.14,686.51 294.12,689.41C293.06,692.41 292.86,697.49 293.27,711.41C293.87,731.93 295.58,740.46 301.54,752.52L305.07,759.66L305.58,783.08C305.86,795.96 306.52,808.91 307.03,811.87C308.34,819.3 311.71,825.57 316.82,830.07C323.99,836.38 328.05,837.2 350.24,836.83C369.36,836.5 369.54,836.48 375.46,833.5C382.51,829.95 386.22,825.6 389.15,817.47C390.91,812.57 391.38,808.54 391.77,795L392.24,778.5L631,778.5L631,789.68C631,811.97 633.78,821.85 642.24,829.66C649.14,836.01 651.54,836.5 676,836.5C696.14,836.5 697.75,836.36 701.5,834.34C709.34,830.1 714.73,822.35 716.88,812.2C717.53,809.14 718,796.97 718,783.38C718,760.28 718.04,759.78 720.43,755.68C724.1,749.37 726.93,741.54 728.58,733.1C730.49,723.36 730.65,692.66 728.82,688.41C727.98,686.48 727.38,677.45 727.03,661.5L726.5,637.5L722.65,628.5C719.39,620.86 711.05,599.16 709.36,593.89C708.7,591.84 711.52,591.04 719.5,591C727.07,590.96 737.61,588.75 742.74,586.13C747.6,583.65 752.6,578.09 755.39,572.05C757.18,568.19 757.49,565.69 757.43,555.5C757.35,542.96 755.73,534.3 752.13,527.25L750.21,523.5L759.86,523.75C765.16,523.89 783.45,524.46 800.5,525.01C843.78,526.4 840.1,526.56 838.9,523.25C838.36,521.74 836.92,519.29 835.71,517.8C831.96,513.22 820.08,512.5 747.8,512.5C697.39,512.5 684.84,512.76 683.8,513.81C682.73,514.89 683.46,514.98 688,514.31C696.69,513.03 798.35,513.46 815.77,514.86C824.17,515.53 831.59,516.29 832.27,516.55C833.83,517.16 838.46,523.87 837.78,524.55C837.5,524.83 827.65,524.6 815.89,524.04C804.12,523.47 786.17,522.97 776,522.92C765.83,522.87 755.25,522.44 752.5,521.96C746.23,520.88 794.66,521.68 818.89,523.06C828.46,523.6 836.47,523.86 836.7,523.64C836.92,523.41 836.07,522.04 834.8,520.59C832.7,518.18 831.54,517.87 821.5,516.99C804.94,515.53 764.98,514.01 743,513.99C726.37,513.98 685.16,515.77 684.18,516.55C683.56,517.05 686.37,525.53 687.67,527.08C689.19,528.88 689.45,532 688.08,532C687.58,532 686.38,529.86 685.42,527.25C672.94,493.3 656.57,452.98 650.81,442C648.64,437.88 647.8,435.62 648.94,437C653.13,442.08 663.32,464.39 673.54,490.84L678.3,503.17L684.9,502.57C733.68,498.1 825.72,499.83 845.9,505.6C854.64,508.1 860.84,515.23 870.15,533.5C879.15,551.14 887.86,571.19 893.11,586.34L896.87,597.19L897.97,593.12C900.12,585.13 909.79,581.26 925.1,582.28C933.39,582.84 937.1,584.31 941.14,588.66C944.94,592.76 946.73,596.8 948.02,604.2C950.08,616.01 946.16,627.8 938.92,631.54C935.17,633.48 923.9,635.96 918.74,635.98L914.97,636L918.08,642.17C919.8,645.56 923.25,653.55 925.77,659.92L930.34,671.5L931.24,693.5C932.61,726.86 931.51,740.22 926.57,750.05C924.4,754.37 924.21,756.18 923.73,777.09C923.45,789.41 922.71,801.15 922.08,803.18C920,809.9 914.91,816.21 909.14,819.21C903.93,821.92 903.3,822 888.14,821.99C879.54,821.99 870.77,821.51 868.65,820.92C863.79,819.57 857.08,813.45 854.27,807.82C851.65,802.56 850.02,793.05 850.01,783L850,775.5L722.29,775.5L721.66,792C720.81,814.64 718.94,821.24 710.78,830.51C703.38,838.92 695.97,841.01 673.57,840.99C653.45,840.97 647,838.98 638.86,830.29C631.52,822.43 629.78,816.55 629.22,797.64L628.76,781.78L513.13,782.09C449.53,782.26 396.88,782.19 396.13,781.95C395.03,781.59 394.79,783.04 394.91,789C395.19,801.71 393.41,814.33 390.41,821.03C387.11,828.38 379.21,836.01 372.29,838.53C365.99,840.82 336.07,841.59 328.46,839.66ZM329.33,835.09C324.4,833.84 317.33,829.3 314.46,825.54C308.35,817.52 307.7,813.92 307.07,784.5C306.53,759.08 306.38,757.32 304.38,754.5C301.22,750.05 297.35,738.46 296.17,729.97C294.13,715.27 293.83,697.97 295.5,692C296.67,687.85 297.1,680.5 297.27,662L297.5,637.5L300.68,630C311.5,604.47 316.68,590.82 315.64,590.52C315.01,590.34 309.77,589.72 304,589.14C291.51,587.89 281.26,584.93 277,581.34C275.29,579.91 272.69,576.44 271.2,573.62C268.65,568.78 268.5,567.75 268.51,555C268.53,538.45 270.29,531.47 275.87,525.9C281.13,520.63 287.48,519 302.74,519C323.18,519 328.74,521.63 330.97,532.36C332.03,537.49 331.54,555.87 330.37,554.7C330.16,554.49 329.81,549.79 329.59,544.27C329.1,531.67 327.51,527.91 321.41,524.95C317.38,523.01 315.67,522.85 301.75,523.16C287.89,523.47 286.12,523.72 282.37,525.87C277.3,528.77 274.37,533.77 272.47,542.72C270.15,553.66 270.55,565.48 273.44,571.69C278.04,581.58 286.95,585.3 309.5,586.78C319.77,587.45 320.49,587.64 320.3,589.54C320.19,590.67 316.45,600.34 311.98,611.04C298.96,642.27 300,637.69 299.99,663.73C299.97,682.04 299.66,687.38 298.37,691C297.05,694.72 296.88,698.18 297.39,711C298.11,728.69 300.55,742.2 304.4,749.8C307.44,755.8 308.81,756.8 306.39,751.25C303.43,744.46 301.23,736.62 300,728.5C298.3,717.36 298.17,695.29 299.77,691.5C300.65,689.41 301.11,681.06 301.27,664L301.5,639.5L305.69,630C307.99,624.77 312.86,613.3 316.49,604.5C320.13,595.7 323.36,587.94 323.66,587.25C324.06,586.35 322.91,586 319.57,586C312.36,586 296.14,584.07 289.56,582.43C281.72,580.47 277.33,576.97 274.24,570.22C271.92,565.15 271.77,563.95 272.29,554.61C273.26,537.19 277.64,528.25 286.34,525.91C292.95,524.13 315.76,524.36 320.17,526.26C326.22,528.85 327.34,531.61 327.82,545.13L328.25,557L331.58,557C334.64,557 334.97,556.69 335.6,553.25C337.84,541.08 362.96,476.03 373.54,455C386.44,429.35 390,426.59 412.29,424.99C468.22,420.97 552.91,421 608.5,425.08C626.61,426.4 631.08,427.98 637.49,435.32C647.19,446.39 663.99,484.9 682.53,538.5C688.67,556.23 688.8,556.5 691.8,556.81L694.83,557.11L695.17,544.63C695.48,533.08 695.68,531.97 697.9,529.61C699.22,528.2 701.91,526.53 703.88,525.87C708.58,524.32 731.22,524.39 736.98,525.97C745.9,528.42 750.36,536.83 751.66,553.69C752.34,562.57 750.55,570.75 746.92,575.37C742.28,581.28 731.24,584.34 709.96,585.64C703.93,586 699,586.36 699,586.43C699,586.5 700.57,590.29 702.5,594.86C704.42,599.42 707.37,607.05 709.05,611.81C710.73,616.57 714.22,625.2 716.81,630.99L721.5,641.5L721.66,664.13C721.8,683.23 722.08,687.26 723.52,690.03C724.99,692.88 725.15,695.73 724.73,711.41C724.23,730.48 723.05,737.2 718.35,747.9C715.85,753.6 715.82,756.2 718.31,751.34C721.34,745.46 724.88,732.05 726.03,722.15C727.59,708.7 726.96,692.56 724.7,688.3C723.25,685.57 723,681.86 722.98,663.3C722.95,642.77 722.82,641.18 720.63,636C711.55,614.5 701.85,589.05 702.4,588.16C702.69,587.69 708.48,587.01 715.28,586.65C735.92,585.54 744.43,582.25 749.66,573.32C752,569.32 752.48,567.21 752.82,559.55C753.54,542.67 749.5,530.37 741.77,525.95C737.81,523.68 736.33,523.48 721.5,523.18C706.32,522.88 705.28,522.99 701.11,525.21C694.51,528.72 693.02,532.3 692.88,544.98C692.8,551.98 692.51,554.5 692,552.5L691.24,549.5L691.12,552.25C690.92,556.8 689.4,555.36 688.06,549.37C686.83,543.88 684.38,537.24 666.56,491C648.3,443.65 639.09,429.14 624.56,424.85C613.51,421.59 511.22,419.11 462,420.9C399.8,423.18 395.05,423.81 387.64,430.8C380.97,437.11 371.95,453.33 362.24,476.5C353.73,496.79 340.43,531.93 336.97,543.25C333.55,554.45 331.17,557.67 332.55,549.25C332.98,546.64 333.59,542.48 333.92,540C334.36,536.61 335.06,535.26 336.75,534.51C338.29,533.84 339,532.67 339,530.79C339,529.28 343.46,516.45 348.92,502.27C378.23,426.05 383.35,419.57 416,417.45C421.77,417.08 426.87,416.55 427.32,416.28C427.78,416.01 424.74,412.65 420.58,408.82C400.09,389.93 384.22,359.98 380.15,332.5C376.76,309.55 378.58,289.11 385.65,270.79C388.4,263.66 388.26,264.63 384.63,277.94C383.17,283.25 381.82,291.34 381.54,296.44L381.04,305.5L382.47,295.58C384.55,281.18 388.32,269.11 394.97,255.5C402.16,240.79 409.98,230.06 421.34,219.31C448.33,193.78 484.57,181.06 521.5,184.17C576.71,188.8 621.7,224.54 636.48,275.51C641.04,291.25 642.27,300.96 641.79,317.5C641.35,332.57 642.11,332.49 643.85,317.27L644.74,309.5L644.87,316.15C645.04,324.97 641.76,343.77 638.43,353.05C630.6,374.82 615.66,396.72 599.62,409.93C595.99,412.91 593.18,415.52 593.38,415.71C593.57,415.91 599.89,416.72 607.42,417.51C614.95,418.3 622.77,419.4 624.82,419.95C630.62,421.51 637.45,426.36 642.04,432.17C646.86,438.27 655.65,456.06 662.46,473.5C665.03,480.1 668.28,488.2 669.67,491.5C672.92,499.23 684,529.69 684,530.91C684,531.43 685.16,533.22 686.57,534.9C688.37,537.05 689.34,539.67 689.82,543.73C690.47,549.28 690.52,549.11 691,539.5C691.56,528.33 693.31,524.49 699.33,521.27C704.06,518.74 730.6,518.16 738.38,520.42C750.58,523.97 755.49,534.18 755.5,556C755.5,567.6 755.31,568.86 752.85,573.5C746.98,584.58 738.93,588.11 716.17,589.59C707.33,590.17 705.9,590.5 706.28,591.88C706.53,592.77 710.84,604.15 715.87,617.17L725,640.84L725,662.79C725,682.99 725.17,685.13 727.12,689.54C729.1,694.01 729.21,695.51 728.69,711.42C728.04,731.41 726.48,739.35 721.03,750.5L717.11,758.5L716.74,785C716.3,816.47 715.67,819.39 707.53,827.56C700.51,834.6 696.85,835.5 675,835.5C652.8,835.5 649.54,834.67 641.96,827.06C634.52,819.59 633.69,816.59 633.04,794.71L632.5,776.92L390.2,776.5L390.11,792.73C389.98,814.42 388.51,820.57 381.69,827.75C375.93,833.82 369.83,835.34 350,835.63C340.38,835.77 331.07,835.53 329.33,835.09ZM387.5,834C388.5,832.9 389.53,832 389.81,832C390.08,832 389.5,832.9 388.5,834C387.5,835.1 386.47,836 386.19,836C385.92,836 386.5,835.1 387.5,834ZM363.25,826.15C371.37,825.24 374.49,823.18 377.96,816.41C380.35,811.76 380.5,810.5 380.83,792.25C381.08,778.79 380.86,773 380.09,773C379.34,773 379,778.47 379,790.32C379,809.85 377.84,815.87 373.2,820.31C369.1,824.24 365.24,825 349.51,824.99C329.27,824.99 325,823.36 320.63,814C318.7,809.88 318.49,807.39 318.17,784.25C317.98,769.97 317.43,759 316.91,759C315.7,759 315.75,793.16 316.97,803.79C318.03,813.04 321.51,820.79 325.88,823.66C330.19,826.48 348.98,827.73 363.25,826.15ZM695.24,825.1C698.95,823.69 703.78,818.08 705.57,813.11C707.65,807.31 709.05,758 707.13,758C706.32,758 706,764.57 706,780.95C706,805.23 705.2,811.95 701.67,817.12C696.96,824.04 695.72,824.43 676.5,824.85C660.22,825.2 658.8,825.08 654.59,823.04C646.17,818.97 644,811.74 644,787.82C644,778.61 643.62,773 643,773C641.7,773 641.72,792.49 643.02,804.89C644.44,818.31 648.48,823.92 658.22,826.01C663.23,827.08 691.87,826.38 695.24,825.1ZM157.62,817.09C161.53,815.31 165.11,811.52 168.1,806C168.99,804.36 169.64,798.32 169.98,788.5L170.5,773.5L302.5,772.48L241.9,772.24C208.56,772.11 178.53,771.71 175.15,771.36L169,770.72L169,784.18C169,800.42 167.57,806.27 162.21,811.89C157.03,817.33 152.8,818.24 134.57,817.84C120.79,817.53 119.14,817.29 115.26,815.07C110.28,812.22 106.61,807.22 105,801.12C104.37,798.71 103.5,786.79 103.08,774.62C102.32,753.21 102.21,752.29 99.41,746L96.51,739.5L96.01,706.5L95.5,673.5L94.91,696.5C94.13,726.43 94.99,738.34 98.57,747.5C101.16,754.11 101.35,755.75 102.03,777C102.8,800.63 103.38,803.94 107.86,810C113.93,818.21 115.87,818.8 137,818.89C151.08,818.95 154.1,818.68 157.62,817.09ZM907.63,817.37C909.52,816.47 912.64,813.91 914.56,811.66C920.15,805.12 921,800.53 921.01,776.57C921.02,756.07 921.09,755.35 923.58,750C927.92,740.67 928.98,733.95 928.91,716C928.88,706.92 928.48,692.75 928.04,684.5L927.22,669.5L921.09,655.05C917.73,647.1 914.3,639.58 913.48,638.34C912.67,637.09 912,635.67 912,635.18C912,634.68 915.71,634.03 920.25,633.73C929.9,633.08 936.36,630.99 940.27,627.24C944.26,623.41 946.4,615.31 945.68,606.72C944.47,592.31 938.42,586.25 924.25,585.28C914.26,584.6 906.03,586.27 902.88,589.62C900.84,591.8 900.45,593.36 900.15,600.58C899.95,605.21 899.5,609 899.15,608.99C898.79,608.98 897.52,605.95 896.33,602.24C887.87,575.92 866.55,528.68 858.18,517.71C853.34,511.36 847.1,508.44 835.5,507.09C822.48,505.57 798.6,504.16 774.5,503.48C753,502.87 696.27,504.5 685.5,506.04C680.61,506.74 681.44,506.81 690,506.45C760.42,503.5 838.17,505.9 848.71,511.35C851.84,512.97 856.02,516.88 859.61,521.56C864.9,528.47 887.22,579.54 895.63,604C897.07,608.19 898,609.5 899.51,609.5C901.3,609.5 901.55,608.64 902.02,601C902.31,596.33 902.93,591.89 903.39,591.15C905.14,588.37 910.88,587 920.76,587C928.95,587 931.31,587.37 935.04,589.25C940.62,592.07 943.79,597.96 944.63,607.07C945.43,615.67 943.75,621.49 939.15,626.08C935.11,630.12 930.96,631.38 917.75,632.57C913.49,632.96 910,633.74 910,634.3C910,634.86 911.13,637.25 912.5,639.6C913.88,641.95 917.55,650.09 920.67,657.68L926.33,671.5L927.24,691C927.75,701.73 927.94,716.37 927.67,723.55C927.23,735.35 926.85,737.5 923.67,746.05L920.15,755.5L919.83,778C919.5,800.41 919.49,800.52 916.65,806.3C914.69,810.3 912.54,812.94 909.73,814.8C905.68,817.48 905.49,817.5 888.07,817.5C871.99,817.5 870.16,817.32 866.5,815.35C857.06,810.27 854.9,805.19 854.1,786.27L853.5,772.03L807.5,771.74C782.2,771.58 752.5,771.71 741.5,772.04C729.29,772.4 746.86,772.7 786.63,772.82L851.77,773L852.37,775.25C852.7,776.49 852.98,782.03 852.99,787.57C853.01,803.98 857.06,812.85 866.49,817.14C872.12,819.69 902.37,819.87 907.63,817.37ZM155.49,807.83C160.07,804.23 161.23,799.88 161.78,784.25C162.14,773.97 161.96,770 161.14,770C160.34,770 160,774.02 159.99,783.25C159.99,798.24 159.11,802.6 155.42,806.07C152.98,808.37 152.08,808.52 138.56,808.82C114.32,809.37 113.39,808.29 112.7,778.72C112.46,768.38 111.93,759.61 111.52,759.22C111.11,758.82 110.95,767.28 111.17,778.01C111.53,796.33 111.7,797.82 114.03,802.51C115.39,805.25 117.62,808.06 119,808.74C120.66,809.55 126.77,809.98 137.12,809.99C151.63,810 152.92,809.85 155.49,807.83ZM905.39,807.91C911,803.5 911.46,801.32 911.61,779L911.74,758.5L911.05,778C910.33,798.63 909.51,802.51 905.03,806.5C902.99,808.32 901.38,808.5 886.98,808.5C871.59,808.5 871.09,808.43 868.57,806.06C865.03,802.74 864.1,798.79 863.12,783L862.29,769.5L862.19,781.5C862.07,795.28 862.96,801.12 865.73,804.86C869.13,809.44 871.41,809.97 887.62,809.99C901.44,810 902.96,809.82 905.39,807.91ZM642.5,765.45C679.1,762.49 689.92,760.58 698.41,755.61C708.15,749.9 712.91,740.25 715.01,721.95C716.64,707.76 716.31,697.66 714.11,694.87C712.31,692.58 711.86,692.5 704.86,693.2C700.81,693.6 678.15,694.2 654.5,694.52C624.1,694.94 608.82,695.55 602.36,696.59C587.68,698.95 560.69,699.95 511.5,699.97C459.89,699.99 424.54,698.68 417.27,696.47C413.51,695.33 405.28,695.02 378.53,695.01C359.84,695 337.18,694.5 328.17,693.89C312.27,692.81 311.72,692.84 309.75,694.8C307.03,697.53 306.51,704.05 307.94,717.56C310.62,742.73 316.02,752.87 329.4,757.88C337.44,760.89 356.29,763.76 381.5,765.82C401.28,767.44 414.59,767.59 513.5,767.3C601.37,767.05 627.32,766.68 642.5,765.45ZM436,764.91C383.49,764.32 369.97,763.62 349.06,760.42C327.73,757.15 319.85,752.73 314.65,741.16C311.31,733.72 308.74,717.31 309.17,706.28C309.62,695.06 310.62,694.15 321.5,695.03L329.5,695.67L320.86,695.83C311.9,696.01 310.98,696.48 311.02,700.83C311.03,702.16 311.21,702.22 311.9,701.13C312.62,699.99 313.85,700.12 319.13,701.86C322.64,703.02 328.65,704.47 332.5,705.09C339.94,706.28 452.97,707.7 451.9,706.58C451.57,706.24 427.49,705.69 398.4,705.36C369.3,705.03 342.57,704.47 339,704.13C335.43,703.78 412.82,703.5 511,703.5C609.17,703.5 686.58,703.79 683,704.15C679.42,704.51 653.55,704.92 625.49,705.05C597.43,705.19 573.58,705.69 572.49,706.15C571.39,706.62 595.43,706.82 626.5,706.59C686.08,706.16 693.76,705.6 704.67,700.93C707.24,699.82 709.98,699.16 710.75,699.46C711.67,699.81 712.03,699.4 711.81,698.25C711.53,696.76 709.96,696.42 701.49,696L691.5,695.5L700.99,694.74C713.62,693.74 713.96,694.13 713.94,709.5C713.92,728.94 710.16,742.68 702.91,749.88C694.57,758.14 683.11,760.58 636.5,764.03C619.16,765.31 514.06,765.77 436,764.91ZM409.75,763.31C408.79,763.06 407.21,763.06 406.25,763.31C405.29,763.56 406.07,763.77 408,763.77C409.93,763.77 410.71,763.56 409.75,763.31ZM616.25,763.29C615.01,763.06 612.99,763.06 611.75,763.29C610.51,763.53 611.52,763.73 614,763.73C616.48,763.73 617.49,763.53 616.25,763.29ZM300.63,762.29C300.24,761.9 272.15,761.7 238.21,761.85C189.36,762.06 172.33,761.79 156.5,760.54C130.22,758.48 124.8,757.49 116.41,753.21C111.64,750.77 109.54,748.54 107.56,743.8C106.01,740.1 103.48,717.8 104.35,715.54C104.7,714.62 106.12,714.5 109.66,715.08C112.32,715.51 119.9,716.13 126.5,716.46C133.1,716.78 141.65,717.26 145.5,717.52C150.3,717.85 152.03,717.69 151,717.02C149.84,716.25 150.18,716.03 152.5,716.02C162.25,716.01 251.22,714.81 265,714.51C274.07,714.32 283.19,714.12 285.25,714.08C287.31,714.04 289,713.57 289,713.05C289,712.47 269.51,711.95 238.75,711.72C211.11,711.51 169.68,711.13 146.68,710.86C105.69,710.4 104.84,710.43 103.8,712.38C102.53,714.75 103.28,732 104.99,739.71C108.24,754.34 118.5,759.25 151.5,761.97C163.11,762.93 301.56,763.23 300.63,762.29ZM398.25,762.29C397.01,762.06 394.99,762.06 393.75,762.29C392.51,762.53 393.52,762.73 396,762.73C398.48,762.73 399.49,762.53 398.25,762.29ZM630.26,762.3C629.03,762.06 626.78,762.05 625.26,762.28C623.74,762.51 624.75,762.71 627.5,762.71C630.25,762.72 631.49,762.53 630.26,762.3ZM882,761.13C906.73,757.86 913.74,753.59 917.52,739.5C919.61,731.73 920.69,713.54 919.17,711.71C918.27,710.62 910.46,710.45 876.78,710.8C854.08,711.04 812.66,711.43 784.75,711.67C755.29,711.92 734,712.48 734,713.01C734,714.16 757.86,714.5 839.67,714.5C875.51,714.5 904.7,714.63 904.54,714.8C904.37,714.96 890.35,715.45 873.37,715.89L842.5,716.68L867.5,716.82C890.21,716.94 907.74,716.05 915.38,714.4L918.27,713.78L917.74,724.64C916.88,742.33 913.51,749.68 904.06,754.47C893.44,759.85 875.92,760.97 792,761.63C754.33,761.93 723.28,762.39 723.01,762.66C721.96,763.7 873.59,762.24 882,761.13ZM383.25,761.29C382.01,761.06 379.99,761.06 378.75,761.29C377.51,761.53 378.52,761.73 381,761.73C383.48,761.73 384.49,761.53 383.25,761.29ZM642.25,761.29C641.01,761.06 638.99,761.06 637.75,761.29C636.51,761.53 637.52,761.73 640,761.73C642.48,761.73 643.49,761.53 642.25,761.29ZM370.25,760.29C369.01,760.06 366.99,760.06 365.75,760.29C364.51,760.53 365.52,760.73 368,760.73C370.48,760.73 371.49,760.53 370.25,760.29ZM657.25,760.29C656.01,760.06 653.99,760.06 652.75,760.29C651.51,760.53 652.52,760.73 655,760.73C657.48,760.73 658.49,760.53 657.25,760.29ZM360.75,759.31C359.79,759.06 358.21,759.06 357.25,759.31C356.29,759.56 357.07,759.77 359,759.77C360.93,759.77 361.71,759.56 360.75,759.31ZM666.75,759.31C665.79,759.06 664.21,759.06 663.25,759.31C662.29,759.56 663.08,759.77 665,759.77C666.92,759.77 667.71,759.56 666.75,759.31ZM353.25,758.34C352.56,758.06 351.44,758.06 350.75,758.34C350.06,758.62 350.62,758.84 352,758.84C353.38,758.84 353.94,758.62 353.25,758.34ZM675.27,758.34C674.59,758.07 673.24,758.05 672.27,758.31C671.3,758.56 671.85,758.78 673.5,758.81C675.15,758.83 675.95,758.62 675.27,758.34ZM327,752.67C327,752.5 325.76,751.26 324.25,749.92L321.5,747.5L323.92,750.25C326.19,752.82 327,753.46 327,752.67ZM162.73,746.4C162.4,746.06 161.53,746.03 160.81,746.32C160.01,746.64 160.25,746.87 161.42,746.92C162.47,746.96 163.06,746.73 162.73,746.4ZM392.25,746.28C390.46,746.05 387.54,746.05 385.75,746.28C383.96,746.5 385.43,746.68 389,746.68C392.57,746.68 394.04,746.5 392.25,746.28ZM638.75,746.27C636.69,746.06 633.31,746.06 631.25,746.27C629.19,746.49 630.88,746.66 635,746.66C639.12,746.66 640.81,746.49 638.75,746.27ZM866.76,746.31C865.81,746.06 864.01,746.05 862.76,746.29C861.52,746.53 862.3,746.74 864.5,746.75C866.7,746.76 867.72,746.56 866.76,746.31ZM145.35,744.49C139.22,743.78 132.7,742.88 130.85,742.49C129.01,742.09 127.8,742.08 128.16,742.46C129.25,743.6 144.02,745.8 150.5,745.78C155.22,745.77 154.11,745.49 145.35,744.49ZM374.25,745.29C373.01,745.06 370.99,745.06 369.75,745.29C368.51,745.53 369.52,745.73 372,745.73C374.48,745.73 375.49,745.53 374.25,745.29ZM670,744.05C678.98,742.74 670.48,743.04 657,744.52L644.5,745.88L654.5,745.37C660,745.09 666.98,744.5 670,744.05ZM880.26,745.3C879.03,745.06 876.78,745.05 875.26,745.28C873.74,745.51 874.75,745.71 877.5,745.71C880.25,745.72 881.49,745.53 880.26,745.3ZM293.51,744.01C293.17,743.46 292.12,739.3 291.18,734.76L289.47,726.5L255.27,726.35C227.16,726.23 220.87,726.45 219.92,727.6C219.14,728.54 218.99,731.09 219.46,735.49C219.85,739.07 220.24,742.1 220.33,742.21C220.42,742.33 234.9,742.69 252.5,743.01L284.5,743.6L252.21,743.55C224.64,743.51 219.79,743.28 218.98,742C217.84,740.19 217.71,728 218.82,726.26C219.41,725.33 228.24,724.96 255.05,724.74L290.5,724.46L217.5,724.5L217.21,733.48C216.96,741.07 217.19,742.66 218.65,743.73C220.84,745.34 294.49,745.61 293.51,744.01ZM363.27,744.34C362.59,744.07 361.24,744.05 360.27,744.31C359.3,744.56 359.85,744.78 361.5,744.81C363.15,744.83 363.95,744.62 363.27,744.34ZM805.07,743.96C806.76,743.06 807,741.81 807,734C807,726.51 806.72,724.92 805.25,724.15C804.2,723.59 789.5,723.51 768.5,723.94L733.5,724.67L768.77,724.83L804.05,725L805.02,727.57C807.11,733.05 805.88,743.05 803.13,742.92C802.1,742.87 801.96,742.66 802.75,742.34C804.57,741.6 804.48,727.4 802.64,726.69C801.9,726.41 786.15,726.43 767.64,726.74L733.99,727.31L733,731.4C732.45,733.66 731.37,737.64 730.59,740.25L729.18,745L766.16,745C789.73,745 803.83,744.62 805.07,743.96ZM889.27,744.34C888.59,744.07 887.24,744.05 886.27,744.31C885.3,744.56 885.85,744.78 887.5,744.81C889.15,744.83 889.95,744.62 889.27,744.34ZM354.27,743.34C353.59,743.07 352.24,743.05 351.27,743.31C350.3,743.56 350.85,743.78 352.5,743.81C354.15,743.83 354.95,743.62 354.27,743.34ZM747.81,743.25C756.79,743.09 771.19,743.09 779.81,743.25C788.44,743.42 781.1,743.55 763.5,743.55C745.9,743.55 738.84,743.42 747.81,743.25ZM898.41,742.6C900.25,741.83 902.12,740.6 902.57,739.85C903.25,738.72 903.12,738.72 901.72,739.85C900.81,740.59 897.91,741.78 895.28,742.51C892.54,743.26 891.47,743.86 892.78,743.91C894.04,743.96 896.57,743.37 898.41,742.6ZM347.73,742.4C347.4,742.06 346.53,742.03 345.81,742.32C345.01,742.64 345.25,742.87 346.42,742.92C347.47,742.96 348.06,742.73 347.73,742.4ZM679.25,742.34C678.56,742.06 677.44,742.06 676.75,742.34C676.06,742.62 676.62,742.84 678,742.84C679.38,742.84 679.94,742.62 679.25,742.34ZM126.92,741.64C126.69,741.43 125.38,740.74 124,740.08C121.64,738.96 121.61,738.98 123.44,740.44C125.03,741.72 128.29,742.84 126.92,741.64ZM566.8,738.8C567.59,738.01 568,733.8 568,726.5C568,719.2 567.59,714.99 566.8,714.2C565.07,712.47 457.93,712.47 456.2,714.2C454.55,715.85 454.55,737.15 456.2,738.8C457.93,740.53 565.07,740.53 566.8,738.8ZM221.08,737.42C221.13,736.25 221.36,736.01 221.68,736.81C221.97,737.53 221.94,738.4 221.6,738.73C221.27,739.06 221.04,738.47 221.08,737.42ZM457.57,737.43C456.39,736.25 456,733.75 456,727.36C456,713.58 449.62,715 511.56,715L565.05,715L566.02,717.57C567.66,721.88 567.25,735.61 565.43,737.43C564.04,738.82 557.76,739 511.5,739C465.24,739 458.96,738.82 457.57,737.43ZM563.99,737.03C565.91,735.82 566.73,721.23 565.06,718.11L563.92,715.98L458.5,716.5L458.21,725.85C458.02,731.89 458.33,735.7 459.08,736.6C460.05,737.77 468.77,738 511.37,737.98C541.63,737.98 563.11,737.58 563.99,737.03ZM189.75,728.25C178.34,728.09 159.66,728.09 148.25,728.25C136.84,728.41 146.18,728.54 169,728.54C191.82,728.54 201.16,728.41 189.75,728.25ZM876.79,728.26C873.65,728.06 868.25,728.06 864.79,728.26C861.33,728.45 863.9,728.62 870.5,728.62C877.1,728.62 879.93,728.46 876.79,728.26ZM121.75,727.31C120.79,727.06 119.21,727.06 118.25,727.31C117.29,727.56 118.08,727.77 120,727.77C121.92,727.77 122.71,727.56 121.75,727.31ZM563.08,722.42C563.13,721.25 563.36,721.01 563.68,721.81C563.97,722.53 563.94,723.4 563.6,723.73C563.27,724.06 563.04,723.47 563.08,722.42ZM288.92,716.36C289.59,715.78 209.77,716.22 182,716.96C167.97,717.33 186.2,717.43 222.5,717.18C258.8,716.93 288.69,716.56 288.92,716.36ZM835.76,717.31C834.81,717.06 833.01,717.05 831.76,717.29C830.52,717.53 831.3,717.74 833.5,717.75C835.7,717.76 836.72,717.56 835.76,717.31ZM808,716.29C779.29,715.6 735,715.57 735,716.25C735,716.66 754.01,716.9 777.25,716.78C800.49,716.67 814.33,716.44 808,716.29ZM117.5,714.6C113.1,713.96 108.6,712.87 107.5,712.17L105.5,710.9L107.5,711.42C115.85,713.55 121.27,714.28 133.5,714.94L147.5,715.69L136.5,715.73C130.45,715.75 121.9,715.24 117.5,714.6ZM907.08,713.64C907.31,713.44 909.52,713.01 912,712.68C915,712.29 915.84,712.38 914.5,712.97C912.59,713.82 906.21,714.39 907.08,713.64ZM245.5,704.99C212.99,704.52 200.33,704 197,703C194.53,702.26 191.97,701.74 191.33,701.85C190.68,701.96 189.87,701.59 189.52,701.03C189.17,700.46 189.39,700 190.01,700C190.65,700 190.29,698.81 189.19,697.25C188.12,695.74 185.39,690.79 183.11,686.25C180.84,681.71 178.54,678 178.01,678C177.47,678 176.76,676.88 176.41,675.5C176.07,674.12 175.38,673 174.89,673C173.91,673 181.62,687.9 186.17,694.8C189.32,699.58 189.73,700.85 187.54,699.03C186.74,698.37 183.52,693.03 180.4,687.16C177.27,681.3 173.02,674.02 170.95,671C167.02,665.26 150.69,647.12 146.44,643.77C145.09,642.71 144.2,641.49 144.47,641.05C144.73,640.62 144.03,639.43 142.89,638.4C139.82,635.62 133.78,627.13 134.17,626.13C134.47,625.33 151.27,644.8 166.89,664.06C170.41,668.39 173.68,671.7 174.15,671.4C175.2,670.76 165.2,658.13 156,648.5C148.56,640.71 137.87,627.69 136.11,624.29C134.68,621.51 135.57,617.36 140.99,601.65C145.36,588.97 160.8,549.94 165.9,538.66C169.34,531.06 169.71,529.68 167.53,532.56C166.72,533.63 166.05,533.99 166.03,533.36C166.01,532.73 166.94,531.16 168.08,529.86C169.61,528.14 170.02,527.97 169.61,529.26C169.14,530.75 169.52,530.68 172.13,528.76C175.86,526.01 180.18,518.53 176.85,520.6C176.12,521.04 175.96,520.87 176.41,520.14C176.81,519.49 177.47,519.17 177.87,519.42C178.27,519.67 179.14,519 179.81,517.94C181.98,514.47 179.12,515.8 173.86,520.73C169.84,524.48 167.38,528.33 161.91,539.39C151.32,560.8 128,621.01 128,626.94C128,628.42 128.64,631.86 129.42,634.57C130.2,637.28 131.35,642.05 131.97,645.17C132.6,648.29 133.65,651.25 134.3,651.74C134.96,652.23 138.65,653.9 142.5,655.45C161.63,663.18 167.87,668.72 177.47,686.55C184.89,700.33 187.98,703.62 194.25,704.43C196.59,704.73 199.62,705.14 201,705.35C202.38,705.56 222.85,705.71 246.5,705.68L289.5,705.63L245.5,704.99ZM541.32,705.25C525.27,705.1 498.72,705.1 482.32,705.25C465.92,705.4 479.05,705.53 511.5,705.53C543.95,705.53 557.37,705.41 541.32,705.25ZM833.22,703.81C837.31,701.96 840.79,697.1 847.97,683.21C855.31,669.03 862.97,662.38 879.82,655.56C889.98,651.45 889.62,651.77 891.04,645.75C891.72,642.86 893.13,638.29 894.18,635.6C895.43,632.4 895.87,629.61 895.45,627.6C892.63,614 864.5,545.49 855.25,529.71C850.99,522.44 843.17,514.43 841.73,515.87C840.58,517.02 843.47,521.56 849.14,527.52C852.28,530.82 855.05,536.65 864.58,560.02C884.7,609.35 888.88,621.48 887,625C885.44,627.91 875.71,639.1 862.96,652.63C852.84,663.38 851.64,665.11 844.42,679.31C840.17,687.66 835.54,696.03 834.12,697.9C829.21,704.36 829.28,704.35 779,705.05L733.5,705.68L781.5,705.59C824.2,705.5 829.91,705.3 833.22,703.81ZM179.41,702.5C177.82,700.07 177.43,700 166.13,699.98C150.1,699.95 131.52,698.37 125.33,696.52C116.27,693.81 111.68,686.22 111.71,674C111.74,660.81 117.42,650 124.32,650L127.74,650L125.6,642.33C124.43,638.11 123,634.5 122.42,634.31C121.26,633.92 114.27,648.19 108.37,663C104.68,672.27 104.57,672.87 104.2,687.62L103.83,702.74L122.66,703.7C133.02,704.23 150.4,704.74 161.27,704.83L181.05,705L179.41,702.5ZM910,703.47L918.5,703.06L918.41,687.78C918.34,675.46 917.98,671.72 916.55,668.5C915.58,666.3 913.31,660.81 911.51,656.31C908.41,648.56 901.4,635 900.48,635C900.25,635 899.33,637.59 898.45,640.75C897.57,643.91 896.62,647.29 896.35,648.25C895.99,649.57 896.46,650 898.3,650C902.79,650 905.77,653.55 908.47,662.1C911.96,673.14 911.89,681.06 908.25,688.04C903.51,697.11 897.37,698.78 865.5,699.69C854.5,700 844.94,700.7 844.25,701.25C843.56,701.8 843,702.92 843,703.74C843,705.05 846.65,705.15 872.25,704.56C888.34,704.18 905.33,703.69 910,703.47ZM147,702.95C135.72,702.58 121.89,702.21 116.25,702.14L106,702L106,688.52C106,675.71 106.18,674.52 109.52,664.77C113.21,653.96 122.22,634.17 122.74,635.72C122.9,636.21 120.83,641.32 118.12,647.06C111.42,661.26 109.64,667.77 110.23,675.94C111.06,687.52 117.1,696.98 125.56,699.92C128.29,700.87 136.68,701.42 153,701.73C165.93,701.97 176.93,702.58 177.45,703.08C178.03,703.64 176.28,703.93 172.95,703.81C169.95,703.71 158.28,703.33 147,702.95ZM289,702.05C289,701.46 271.48,700.98 243.57,700.8C191.75,700.46 195.38,701.1 189.43,691.26C185.17,684.22 179.79,670.25 180.49,668.04C181.75,664.07 184.79,663.84 238.91,663.67C267.56,663.58 291,663.14 291,662.71C291,662.27 267.26,662.05 238.25,662.21C189.26,662.48 185.26,662.63 182.13,664.34C178.99,666.05 178.8,666.44 179.29,670.15C180.02,675.58 190.87,697.01 194.04,699.27C195.43,700.26 199.48,701.45 203.04,701.91C212.29,703.11 289,703.23 289,702.05ZM328.27,702.31C329.24,702.05 330.59,702.07 331.27,702.34C331.95,702.62 331.15,702.83 329.5,702.81C327.85,702.78 327.3,702.56 328.27,702.31ZM690.75,702.34C691.44,702.06 692.56,702.06 693.25,702.34C693.94,702.62 693.38,702.84 692,702.84C690.62,702.84 690.06,702.62 690.75,702.34ZM827.75,700.23C831.44,698.26 832.65,696.67 836.89,688.22C842.61,676.83 844.5,671.11 843.66,667.76C842.36,662.59 841.67,662.52 784.25,662.19C748.42,661.99 731,662.22 731,662.91C731,663.6 748.58,663.94 784.07,663.95C832.94,663.97 837.39,664.11 840.16,665.74C842.88,667.33 843.13,667.88 842.67,671.37C841.94,676.91 832.1,695.95 828.68,698.44C825.94,700.44 824.45,700.51 780.39,700.79C749.62,700.98 735.13,701.41 735.56,702.1C735.99,702.79 750.73,703.03 779.85,702.82C823.03,702.5 823.55,702.48 827.75,700.23ZM869,702.05C897.55,701.43 900.66,700.75 906.43,693.9C915.32,683.36 914.92,671.41 904.92,649.64C902.17,643.65 900.09,638.58 900.29,638.38C900.87,637.79 909.62,656.65 913.1,666C915.92,673.58 916.32,675.98 916.76,688.09L917.25,701.68L901.37,702.34C892.64,702.7 876.05,702.91 864.5,702.8L843.5,702.61L869,702.05ZM319.5,700.54C315.56,698.73 316.45,698.7 322,700.45C324.48,701.23 325.6,701.88 324.5,701.89C323.4,701.9 321.15,701.29 319.5,700.54ZM699,700.45C701.48,699.67 703.95,699.06 704.5,699.09C706.25,699.2 698.59,701.85 696.5,701.86C695.4,701.86 696.52,701.23 699,700.45ZM401.78,697.27C404.13,697.06 407.73,697.06 409.78,697.27C411.82,697.49 409.9,697.66 405.5,697.66C401.1,697.65 399.42,697.48 401.78,697.27ZM611.75,697.34C612.44,697.06 613.56,697.06 614.25,697.34C614.94,697.62 614.38,697.84 613,697.84C611.62,697.84 611.06,697.62 611.75,697.34ZM629.75,697.25C635.39,697.08 644.61,697.08 650.25,697.25C655.89,697.43 651.27,697.58 640,697.58C628.73,697.58 624.11,697.43 629.75,697.25ZM334.75,696.26C337.64,696.06 342.36,696.06 345.25,696.26C348.14,696.46 345.77,696.63 340,696.63C334.23,696.63 331.86,696.46 334.75,696.26ZM669.21,696.26C672.89,696.07 679.19,696.07 683.21,696.26C687.22,696.45 684.2,696.6 676.5,696.61C668.8,696.61 665.52,696.45 669.21,696.26ZM281.5,694.31C263.19,693.65 200.2,693.55 201.78,694.18C202.73,694.55 222.85,694.8 246.5,694.73C270.15,694.65 285.9,694.46 281.5,694.31ZM824.2,692.25L826.44,690L779.97,690.09C749.12,690.15 734.6,690.5 736.76,691.12C738.64,691.66 757.61,691.94 781.51,691.78C816.7,691.54 824.62,691.81 822.75,693.18C822.61,693.28 802.48,693.65 778,694L733.5,694.63L777.72,694.56L821.95,694.5L824.2,692.25ZM172,693.4C172,690.77 163.72,675.95 160.89,673.5C155.02,668.42 130.75,657 125.84,657C121.54,657 119.05,662.94 119.02,673.3C118.99,685 122.61,690.22 131.72,691.58C142.66,693.23 172,694.55 172,693.4ZM889.84,691.97C901.1,690.11 904.41,686.1 904.36,674.37C904.32,666.07 900.97,657.71 897.5,657.22C895.22,656.9 874.56,664.92 868.39,668.52C861.13,672.76 854.71,682.04 852.55,691.41L851.88,694.32L867.69,693.67C876.39,693.31 886.35,692.55 889.84,691.97ZM151.55,691.93C124.49,690.3 121.73,688.84 121.14,675.77C120.76,667.39 122,661.08 124.41,659.07C125.51,658.16 128.1,658.89 136.42,662.44C157.52,671.46 160.45,673.53 165.4,682.94C169.63,691 169.91,693.06 166.75,692.85C165.51,692.77 158.67,692.35 151.55,691.93ZM854.57,690.39C857.55,677.62 863.4,671.9 881.24,664.31C895.61,658.19 896.74,657.89 898.48,659.62C899.32,660.46 900,661.65 900,662.26C900,662.88 899.38,662.54 898.63,661.51C897.3,659.69 897.08,659.7 890.88,661.95C870.25,669.44 861.44,675.54 858.01,684.71C856.86,687.76 856.17,690.5 856.47,690.8C857.33,691.66 892.26,689.23 895.22,688.11C899.17,686.6 900.98,682.21 901.12,673.8L901.24,666.5L902.18,671.66C903.32,677.89 901.9,684.19 898.62,687.47C895.93,690.16 887.13,691.6 867.19,692.61L853.89,693.29L854.57,690.39ZM288,691C289.38,690.56 269.57,690.22 244,690.24C218.43,690.26 199.3,690.61 201.5,691C207.02,691.99 284.91,691.99 288,691ZM572.15,691.01C595.86,689.86 599.29,689.18 603.63,684.82C606.2,682.24 625,648.38 625,646.34C625,646.09 624.48,646.2 623.85,646.6C623.13,647.04 622.96,646.87 623.4,646.15C623.86,645.42 623.35,645 622,645C620.84,645 620.13,644.59 620.44,644.09C621.15,642.95 625,643.9 625,645.21C625,645.75 627.81,643.28 631.25,639.73C638.6,632.14 645.08,628.58 663.42,622.08L676.34,617.5L677.56,611.47C678.24,608.15 679.73,602.36 680.89,598.61C683.39,590.54 683.57,583.07 681.47,574.64C679.56,566.93 665.8,526.87 665.25,527.42C665.03,527.64 667.36,535.77 670.42,545.48C673.49,555.19 675.98,563.67 675.95,564.32C675.88,566.38 664.96,532.84 662.99,524.5C661.14,516.61 656.69,504.07 649.53,486.5C641.51,466.84 636.65,455.9 635.68,455.3C635.09,454.94 634.91,455.27 635.24,456.09C653.53,500.38 654.84,503.87 663.56,531.5C672.05,558.43 676,572.07 676,574.5C676,576.85 669.97,583.69 645.14,609.5C627.55,627.78 619.88,637.65 622.09,639.12C622.87,639.64 624.73,639.9 626.23,639.71C628.45,639.42 628.74,639.61 627.8,640.74C627.11,641.57 625.24,642 623.08,641.81C619.6,641.51 619.42,641.67 616.64,647.5C615.06,650.8 613.71,654.47 613.64,655.65C613.56,656.84 613.27,657.66 612.98,657.49C612.7,657.31 610.33,661.52 607.73,666.84C601.52,679.5 597.08,684.36 589.94,686.33C579.89,689.11 546.56,690.32 497,689.7C445.6,689.06 436.18,688.31 428.85,684.32C422.65,680.95 419.63,676.23 411.6,657.38C405.96,644.14 404.99,642.5 402.4,641.78C400.8,641.33 398.7,641.16 397.71,641.4C396.53,641.69 394.38,640.19 391.4,636.99C385.84,631.05 375.11,625.31 360.37,620.4C348.57,616.47 346.97,615.59 347.07,613.13C347.12,611.88 347.37,611.98 348.14,613.56C348.85,615.02 352.09,616.57 359.32,618.91C373.36,623.45 382.89,628.16 390.01,634.09C395.12,638.34 396.6,639.07 399.56,638.81L403.06,638.5L396.66,630.5C389.96,622.12 389.3,621.41 363.25,594.61C344.9,575.74 345.33,576.63 349.06,564.54C350.19,560.87 350.95,557.36 350.74,556.73C350.54,556.11 349.3,559.28 348,563.78C346.7,568.29 345.44,571.78 345.21,571.54C344.97,571.3 346.72,564.76 349.11,557C352.21,546.9 353.66,543.4 354.22,544.7C354.68,545.76 354.77,545.07 354.44,543C354,540.23 354.12,539.81 355.03,541C355.97,542.23 356.08,542.08 355.65,540.15C355.37,538.86 355.4,538.07 355.73,538.4C356.06,538.72 358.87,531.45 361.99,522.24C365.11,513.03 372.28,493.91 377.93,479.75C387.84,454.92 390.1,450.77 394.76,448.85C395.83,448.41 401.16,438.83 400.64,438.3C400.42,438.09 397.66,440.74 394.49,444.2L388.75,450.5L393.27,444.45C398.48,437.51 401,435.07 401,437C401,437.99 401.3,437.99 402.5,437C404.31,435.5 404.52,433.56 402.75,434.66C402.06,435.09 400.98,435.52 400.35,435.62C397.98,435.98 392.78,440.61 389.84,444.98C378.15,462.38 346.52,542.36 338.92,573.76L336.92,582.03L339.91,592.76C341.56,598.67 343.72,606.64 344.71,610.49L346.51,617.47L359.69,622.15C387.83,632.13 392.77,636.44 406.5,662.99C411.45,672.56 416.73,682.08 418.22,684.15C421.77,689.04 425.57,690.05 444,690.97C465.98,692.06 549.91,692.09 572.15,691.01ZM166.53,688.25C165.28,683.21 160.55,676.94 155.5,673.62C150.57,670.39 133.6,662.61 127.92,660.98C124.02,659.86 122.93,661.97 122.33,671.88C121.8,680.55 123.62,685.61 128,687.67C131,689.08 146.12,690.67 158.36,690.86L167.22,691L166.53,688.25ZM573,686.91C592.64,685.17 596.39,683.35 602.34,672.72C607.33,663.8 615,644.68 615,641.17C615,639.55 614.14,637.16 613.09,635.86L611.18,633.5L528.84,633C483.55,632.73 438.71,632.73 429.19,633C412.17,633.49 411.85,633.54 409.96,636C407.34,639.42 407.49,641.13 411.4,651.5C421.46,678.17 425.93,683.56 440.01,685.97C456.12,688.74 545.35,689.37 573,686.91ZM426.5,686.13C422.97,683.94 419.93,680.66 417.56,676.5C415.87,673.53 415.87,673.53 417.67,675.96C421.97,681.74 424.46,684.19 427.87,685.99C429.87,687.05 431.05,687.93 430.5,687.95C429.95,687.97 428.15,687.15 426.5,686.13ZM407.77,686.43C407.45,686.12 396.47,685.89 383.35,685.93C370.23,685.97 349.15,685.33 336.5,684.52C323.85,683.71 313.16,683.03 312.75,683.02C312.34,683.01 312,674.25 312,663.55L312,644.11L316.88,631.8C319.56,625.04 322.31,617.78 322.98,615.68C323.65,613.58 324.41,612.08 324.68,612.34C324.94,612.6 323.7,617.25 321.92,622.66C319.16,631.04 318.67,633.99 318.64,642.5C318.59,653.65 319.23,662.25 320,661C320.28,660.54 321.76,662.5 323.29,665.34C325.77,669.93 324.52,669.33 321.28,664.37C320.11,662.59 320.09,662.6 320.71,664.5C322.91,671.3 332.45,681.14 338.65,683.01C344.09,684.65 406,685.68 406,684.13C406,683.51 404.99,682.95 403.75,682.88C401.91,682.79 401.84,682.68 403.35,682.29C404.48,682 406.32,682.89 408.09,684.58C411.79,688.13 412.62,687.37 409.47,683.34L407.05,680.25L386.27,679.57C338.69,678.01 330.46,675.78 324.01,662.68C318.21,650.9 318.82,634.18 325.54,620.93L328.12,615.83L334.06,616.16C337.33,616.35 340,616.27 340,615.98C340,615.69 339.07,612.09 337.93,607.98C335.23,598.26 333.09,593.83 331.27,594.2C330.41,594.38 327.08,601.6 323.06,612C319.34,621.62 314.89,632.42 313.15,636L310,642.5L310,685L313.75,685.12C315.81,685.19 323.8,685.56 331.5,685.95C348.93,686.83 408.54,687.2 407.77,686.43ZM467.77,686C439.3,685.06 433.38,684.03 427.61,678.96C422.81,674.75 414.07,657.29 409.95,643.68C408.8,639.86 410.56,636.35 414.29,635.05C417.69,633.86 604.74,633.71 609,634.89C610.38,635.27 612.11,636.85 612.85,638.39C614.04,640.86 613.94,641.97 612,647.72C608.96,656.71 602.69,670.14 599.06,675.41C594.81,681.59 589.84,683.7 576.66,684.94C561.35,686.39 498.3,687 467.77,686ZM686.9,685.89C700.43,685.28 711.65,684.65 711.83,684.48C712.02,684.3 712.42,675.45 712.73,664.81L713.29,645.45L708.78,634.97C706.29,629.21 701.65,617.75 698.46,609.5C692.08,593.03 692.26,593.41 691.39,594.28C691.05,594.62 691.45,596.83 692.28,599.2C695.08,607.2 695.07,607.51 692.18,601.67L689.3,595.84L687.17,601.17C685.44,605.52 683.14,613.73 683.02,616C683.01,616.27 685.67,616.35 688.93,616.16L694.87,615.83L696.84,619.69C700.66,627.17 702.39,635.1 702.36,645C702.32,657.12 699.87,664.02 693.54,669.86C686.28,676.55 680.96,677.5 640.42,679.37L615.91,680.5L613.86,683.75L611.8,687L637.05,687C650.94,687 673.37,686.5 686.9,685.89ZM616.18,683.5C616.81,682.12 617.79,681 618.36,681C618.99,681 618.93,681.47 618.2,682.2C615.92,684.48 617.03,684.92 625.75,685.26L634.5,685.59L624.77,685.79L615.04,686L616.18,683.5ZM843,685.5C843,684.48 847.92,676 848.51,676C848.95,676 844.37,684.97 843.48,685.85C843.22,686.12 843,685.96 843,685.5ZM291.35,684.25C291.6,683.84 269.69,683.49 242.65,683.47C215.62,683.46 199.57,683.7 207,684.02C228.14,684.91 290.83,685.08 291.35,684.25ZM603.53,678.5C609.39,669.73 610.05,669.11 606.52,675.7C604.99,678.56 602.64,681.93 601.29,683.19C599.81,684.59 600.69,682.74 603.53,678.5ZM665.73,684.28C667.5,684.06 670.65,684.05 672.73,684.27C674.8,684.49 673.35,684.67 669.5,684.67C665.65,684.68 663.95,684.5 665.73,684.28ZM826.4,684.19C828.54,683.81 808.18,683.5 781.15,683.5C754.12,683.5 732,683.84 732,684.25C732,685.19 821.09,685.14 826.4,684.19ZM682.72,683.1C686.59,682.1 689.83,680.05 695.08,675.31C700.14,670.74 700.18,668.95 695.14,673.01C690.6,676.65 684.44,678.69 675.76,679.43C669.59,679.94 669.61,679.93 677.29,678.56C696.54,675.13 704,665.55 704,644.22C704,635.64 703.56,633.08 700.51,624.02C698.59,618.32 697.15,613.52 697.31,613.35C697.48,613.19 700.51,620.36 704.06,629.28L710.5,645.5L710.81,663.39C711.01,674.51 710.75,681.65 710.12,682.28C709.57,682.83 702.45,683.44 694.31,683.62C685.05,683.82 680.71,683.63 682.72,683.1ZM368.75,681.29C369.99,681.06 372.01,681.06 373.25,681.29C374.49,681.53 373.48,681.73 371,681.73C368.52,681.73 367.51,681.53 368.75,681.29ZM831.6,680.73C832,680.33 809.42,680.1 781.42,680.23C733.24,680.45 732.22,680.49 762.5,680.98C806.19,681.69 830.73,681.6 831.6,680.73ZM267.25,680.25C253.36,680.09 230.64,680.09 216.75,680.25C202.86,680.41 214.22,680.54 242,680.54C269.77,680.54 281.14,680.41 267.25,680.25ZM349.5,680.29C337.96,678.69 326,673.87 326,670.81C326,670.31 327.55,671.08 329.45,672.53C333.59,675.68 341.01,677.75 354.5,679.49C363.08,680.59 363.65,680.77 358.5,680.74C355.2,680.72 351.15,680.51 349.5,680.29ZM864,677.62C864,677.41 864.79,676.63 865.75,675.87C867.34,674.63 867.37,674.66 866.13,676.25C864.82,677.92 864,678.45 864,677.62ZM584,675.17C586.78,674.31 585.43,674.22 577.5,674.73C562.87,675.66 446.26,675.33 441.16,674.34C438.64,673.85 465.72,673.5 505.66,673.5C578.89,673.5 595.77,672.95 592.92,670.67C592.69,670.48 584.17,670.67 574,671.09C551.51,672.01 461.39,672.05 443.83,671.15C433.47,670.62 431.36,670.74 432.25,671.8C434.36,674.34 437.59,675.34 446,676.06C459.47,677.21 579.9,676.44 584,675.17ZM834.06,673.34C834.7,672.7 834.92,671.69 834.55,671.09C833.63,669.58 732.39,669.55 731.47,671.05C731.01,671.79 746.3,672.06 781.96,671.94C810.08,671.84 833.38,672.04 833.72,672.38C834.06,672.72 810.97,673.05 782.42,673.12C753.86,673.18 731.85,673.55 733.5,673.93C738.94,675.19 832.76,674.64 834.06,673.34ZM849,674.63C849,672.63 855.81,663.19 862.84,655.43C880.04,636.44 885.15,630.44 887.01,627C888.07,625.05 888.93,624.23 888.96,625.14C889.02,627.45 881.23,637.74 872.15,647.34C858.37,661.91 854.17,666.94 852.38,671C851.41,673.2 850.25,675 849.81,675C849.36,675 849,674.83 849,674.63ZM267.32,673.25C253.47,673.09 230.52,673.09 216.32,673.25C202.12,673.41 213.45,673.54 241.5,673.54C269.55,673.54 281.17,673.41 267.32,673.25ZM96.68,670.81C96.36,670.01 96.13,670.25 96.08,671.42C96.04,672.47 96.27,673.06 96.6,672.73C96.94,672.4 96.97,671.53 96.68,670.81ZM278.5,671.05C287.14,670.62 272.4,670.36 240,670.38C211.12,670.41 194.7,670.68 203.5,671C226.75,671.84 262.37,671.86 278.5,671.05ZM400,669.98C400,666.79 391.34,650.38 387.29,645.89C385.17,643.56 380.4,640.21 376.06,638.03C366.8,633.38 339.55,624 335.29,624C332.49,624 332.03,624.46 330.53,628.75C328.23,635.36 327.52,646.37 328.95,653.26C330.23,659.42 333.45,664.15 337.96,666.48C343.59,669.39 363.8,671.57 387.75,671.86C399.42,671.99 400,671.9 400,669.98ZM663.5,669.93C684.66,668.15 690.55,664.97 692.9,654.03C695.1,643.76 693.76,626.71 690.54,624.03C686.86,620.98 646.39,635.88 638.11,643.34C632.43,648.46 621.98,668.54 623.62,671.19C624.32,672.33 641.3,671.79 663.5,669.93ZM377.5,670.33C360.64,669.3 346.5,667.74 342.16,666.45C336.44,664.76 332.62,660.89 331.04,655.22C328.55,646.24 330.79,626.79 334.47,625.37C336.32,624.66 365.32,634.52 374.68,639.04C380.5,641.85 383.88,644.24 386.42,647.34C389.76,651.41 398,667.47 398,669.9C398,670.96 390.33,671.12 377.5,670.33ZM396,668.21C396,666.46 387.64,650.92 385.01,647.77C381.03,643.01 370.03,637.74 351.31,631.63C343.51,629.08 336.62,627 336.01,627C331.79,627 329.87,649.82 333.47,657.32C336.84,664.37 339.98,665.42 363.94,667.49C389.77,669.72 396,669.86 396,668.21ZM626,668.43C626,665.67 632.9,651.83 636.42,647.53C638.3,645.24 642.51,641.94 645.78,640.2C658.18,633.59 686.49,623.95 688.98,625.49C691.85,627.26 693.13,647.38 690.89,655.45C689.13,661.81 684.64,665.48 677,666.84C668.66,668.31 646.13,670 634.8,670C627.48,670 626,669.74 626,668.43ZM701.13,667.75C702.22,665.71 702.17,665.63 700.66,666.87C699.75,667.63 699,668.64 699,669.12C699,670.65 699.89,670.08 701.13,667.75ZM99.43,664C99.89,662.26 99.81,661.96 99.17,663C98.66,663.83 97.94,665.62 97.57,667C97.11,668.74 97.19,669.04 97.83,668C98.34,667.17 99.06,665.38 99.43,664ZM408.89,656.72C404.36,646.66 403.01,644.49 401.25,644.47C400.07,644.45 398.78,644.12 398.39,643.72C397.99,643.32 398.87,643 400.35,643C402.3,643 403.57,643.88 405.01,646.25C407.61,650.51 415.29,668.04 414.79,668.55C414.57,668.76 411.92,663.44 408.89,656.72ZM663,666.9C687.02,664.79 690,662.39 690.76,644.5C691,638.86 690.74,633.41 690.16,632C689.25,629.8 689.1,629.74 688.95,631.5C688.82,632.85 688.55,632.53 688.1,630.5C687.5,627.82 687.06,627.52 683.97,627.69C674.95,628.2 646.68,639.83 639.81,645.86C636.63,648.65 627,665.6 627,668.4C627,669.32 643.1,668.66 663,666.9ZM125.08,664.42C125.13,663.25 125.36,663.01 125.68,663.81C125.97,664.53 125.94,665.4 125.6,665.73C125.27,666.06 125.04,665.47 125.08,664.42ZM566.06,663.09C583.74,662.59 594.32,661.89 595.56,661.15C597.08,660.25 595.98,660.16 590.5,660.75C579.43,661.94 436.3,661.54 430.75,660.31C425.48,659.14 424.91,659.33 428.25,661.16C432.55,663.51 512.12,664.63 566.06,663.09ZM861.5,662.33C864.1,660.32 883.93,650.57 884.36,651.1C884.54,651.32 879.02,654.28 872.09,657.69C865.17,661.09 860.4,663.18 861.5,662.33ZM181.1,661.25C184.19,659.66 189.36,659.47 238.25,659.22L292,658.93L292,649.6C292,643.01 292.59,638.41 294,634C295.1,630.56 296,627.12 296,626.37C296,625.22 283.84,625 221.06,625C179.84,625 145.91,624.66 145.65,624.25C145.4,623.84 179.17,623.66 220.69,623.85C271.81,624.09 296.53,623.87 297.23,623.17C297.94,622.46 274.22,622.12 221.07,622.09C178.61,622.06 143.45,621.78 142.94,621.46C139.92,619.6 143.74,624.42 157.63,640C166.21,649.62 174.16,658.74 175.3,660.25C176.44,661.76 177.45,663 177.53,663C177.62,663 179.22,662.21 181.1,661.25ZM866,639.57C872.33,632.51 878.29,625.89 879.25,624.87C882.63,621.26 881.52,620.66 872.75,621.35C868.21,621.7 832.86,621.99 794.19,621.99C741.11,622 724.06,622.28 724.6,623.16C725.14,624.03 744.51,624.19 802.41,623.79C844.81,623.5 876.58,623.6 873,624.02C869.42,624.43 834.66,624.82 795.75,624.88C756.84,624.95 725,625.17 725,625.38C725,625.59 726.18,628.85 727.63,632.63C729.55,637.67 730.39,642.05 730.75,649.09L731.25,658.68L784.68,659.36C826.83,659.9 838.78,660.33 841.3,661.42C844.48,662.8 844.53,662.78 849.5,657.61C852.25,654.75 859.67,646.63 866,639.57ZM549.75,658.92C576.84,658.87 599,658.52 599,658.15C599,657.77 559.89,657.48 512.08,657.48C464.28,657.49 425.39,657.73 425.67,658C426.37,658.7 479.5,659.83 491,659.38C496.23,659.18 522.66,658.97 549.75,658.92ZM107.76,645C110.15,639.77 111.43,636.17 110.62,637C109.04,638.6 102.64,652.81 101.61,657L100.99,659.5L102.2,657C102.87,655.62 105.37,650.23 107.76,645ZM617,657.62C617,656.54 619.98,651 620.55,651C620.83,651 620.31,652.46 619.4,654.25C617.54,657.9 617,658.66 617,657.62ZM707.8,655.8C709.37,654.23 709.2,646.43 707.5,642C706.18,638.56 706.15,638.64 706.08,646.17C706.03,650.39 705.73,654.55 705.39,655.42C704.68,657.28 706.09,657.51 707.8,655.8ZM96.03,655.5C96.03,654.95 96.47,653.83 97,653C97.53,652.17 97.97,651.95 97.97,652.5C97.97,653.05 97.53,654.17 97,655C96.47,655.83 96.03,656.05 96.03,655.5ZM316.23,642C316.71,635.57 316.7,635.54 315.43,639.5C313.98,644.05 313.55,652.41 314.9,650C315.36,649.17 315.96,645.58 316.23,642ZM597.41,648.27C599.55,647.85 565.35,647.64 521.41,647.8C477.46,647.97 436.9,647.73 431.27,647.27C424.24,646.7 421.36,646.76 422.07,647.47C422.63,648.04 430.16,648.79 438.8,649.14C459.63,649.99 592.42,649.26 597.41,648.27ZM618.56,647.71C618.94,646.72 619.5,646.17 619.81,646.47C620.11,646.78 619.81,647.59 619.12,648.27C618.14,649.25 618.02,649.13 618.56,647.71ZM122,647.61C122,647.39 122.67,646.95 123.5,646.64C124.33,646.32 125,646.5 125,647.03C125,647.56 124.33,648 123.5,648C122.67,648 122,647.82 122,647.61ZM899,647.03C899,646.5 899.67,646.32 900.5,646.64C901.33,646.95 902,647.39 902,647.61C902,647.82 901.33,648 900.5,648C899.67,648 899,647.56 899,647.03ZM143.87,644.25C142.63,642.66 142.66,642.63 144.25,643.87C145.92,645.18 146.45,646 145.62,646C145.41,646 144.63,645.21 143.87,644.25ZM589,645.01C598.08,644.67 564.55,644.29 514.5,644.18C464.45,644.06 422.49,643.7 421.25,643.37C419.92,643.01 419,643.21 419,643.86C419,644.58 424.1,645.05 434.25,645.26C462.2,645.83 572.27,645.66 589,645.01ZM102.07,640.86C102.02,639.69 100.64,639.02 97.25,638.51C94.64,638.12 90.39,637 87.8,636.02C85.22,635.03 82.85,634.48 82.55,634.78C82.25,635.09 82,634.78 82,634.11C82,633.43 81.6,633.13 81.1,633.44C79.54,634.4 74.41,627.53 73.04,622.65C71.52,617.22 72.1,601.41 74.02,596.2C75.88,591.13 76.01,592.8 74.36,600.51C73.39,605.04 73.09,609.61 73.5,613.5C74.85,626.11 80.18,632.57 91.62,635.43C95.4,636.37 99.68,637.45 101.12,637.82C103.26,638.37 103.6,638.87 102.94,640.5C102.33,642.03 102.12,642.12 102.07,640.86ZM891.19,636.5C891.22,634.85 891.44,634.3 891.69,635.27C891.95,636.24 891.93,637.59 891.66,638.27C891.38,638.95 891.17,638.15 891.19,636.5ZM926.5,637.16C934.95,635.3 941.42,632.44 944.13,629.36C946.6,626.55 949.99,619.38 950.07,616.79C950.11,615.53 950.54,613.6 951.03,612.5C951.63,611.15 951.73,611.95 951.36,615C950.24,624 949.06,626.79 944.73,630.59C942.4,632.62 941.13,633.93 941.9,633.49C942.82,632.97 943.07,633.07 942.62,633.8C942.24,634.41 941.2,634.63 940.3,634.29C939.13,633.83 938.9,634.03 939.49,634.98C939.98,635.78 939.92,636.07 939.33,635.7C938.78,635.37 936.35,635.69 933.92,636.42C931.49,637.15 927.02,638.01 924,638.34C919.37,638.83 919.77,638.65 926.5,637.16ZM397.47,637.2C396.93,636.81 394.49,633.8 392.04,630.5C389.59,627.2 381.05,617.75 373.05,609.5C343.93,579.47 343.99,579.55 344.09,575.86L344.17,572.5L345.02,575.32C346.35,579.76 350.15,584.17 371.01,605.5C388.96,623.85 399.91,636.42 398.86,637.47C398.63,637.7 398,637.58 397.47,637.2ZM624.01,636.92C624.02,634.71 629.83,627.87 646.86,610C666.52,589.36 673.91,581.32 676.73,577.5C677.94,575.85 678.95,575 678.97,575.61C679.02,577.47 673.73,583.54 652.16,606.36C640.8,618.38 630.05,630.26 628.27,632.75C624.24,638.42 624,638.66 624.01,636.92ZM629.91,636.66C630.69,635.7 632.71,633.93 634.41,632.74C636.72,631.12 637.14,631.02 636.09,632.34C635.31,633.3 633.29,635.07 631.59,636.26C629.28,637.88 628.86,637.98 629.91,636.66ZM131.08,634.42C131.13,633.25 131.36,633.01 131.68,633.81C131.97,634.53 131.94,635.4 131.6,635.73C131.27,636.06 131.04,635.47 131.08,634.42ZM113.4,634.16C113.69,633.7 109.11,632.8 103.23,632.15C87.31,630.42 80.86,626.48 78.89,617.31L78.07,613.5L78.44,617.79C79.31,627.65 86.23,632.06 103.8,633.92C108.03,634.37 111.81,634.79 112.19,634.87C112.57,634.94 113.12,634.62 113.4,634.16ZM130.12,628.46C129.99,624.13 134.13,609.83 139.52,596C141.35,591.33 145.62,580.3 149.03,571.5C155.25,555.44 164.99,533.66 165.66,534.33C165.86,534.53 163.38,540.96 160.16,548.63C146.34,581.47 132.18,619.78 131.01,627.5L130.25,632.5L130.12,628.46ZM411.35,630.5C414.45,629.2 427.86,629 510.93,629C595.66,629 607.47,629.18 611.57,630.57C615.98,632.07 616.27,632.06 617.56,630.22C622.1,623.74 633.51,611.15 649.59,594.87C659.72,584.63 668,575.85 668,575.37C668,574.88 599.9,574.5 511,574.5C424.65,574.5 354,574.69 354,574.92C354,575.14 363.35,584.82 374.78,596.42C386.2,608.01 398.22,620.76 401.48,624.75C404.73,628.74 407.48,632 407.58,632C407.68,632 409.37,631.33 411.35,630.5ZM638,630.55C638,630.28 639.35,629.35 641,628.5C642.65,627.65 644,627.17 644,627.45C644,627.72 642.65,628.65 641,629.5C639.35,630.35 638,630.83 638,630.55ZM149.4,627.75L147.5,625.5L149.75,627.4C151.86,629.2 152.46,630 151.65,630C151.47,630 150.45,628.99 149.4,627.75ZM383.47,623.75L377.5,617.5L383.75,623.47C389.56,629.01 390.46,630 389.72,630C389.56,630 386.75,627.19 383.47,623.75ZM405.44,626.75L402.5,623.5L405.75,626.44C408.78,629.17 409.46,630 408.69,630C408.51,630 407.05,628.54 405.44,626.75ZM635.96,625.75C638.41,623.14 640.55,621 640.71,621C641.46,621 640.67,621.9 636.25,626.04L631.5,630.5L635.96,625.75ZM890.57,623.34C887.22,611.48 868.62,563.9 858.63,541.63C857.19,538.39 856.02,535.47 856.05,535.13C856.15,533.78 861.04,544.22 867.48,559.5C871.19,568.3 875.95,579.62 878.07,584.65C886.25,604.08 893.45,625.52 892.82,628.59C892.65,629.46 891.63,627.1 890.57,623.34ZM241.29,627.26C245.03,627.06 250.88,627.07 254.29,627.26C257.71,627.46 254.65,627.61 247.5,627.61C240.35,627.61 237.56,627.45 241.29,627.26ZM263.75,627.29C264.99,627.06 267.01,627.06 268.25,627.29C269.49,627.53 268.48,627.73 266,627.73C263.52,627.73 262.51,627.53 263.75,627.29ZM728.75,627.34C729.44,627.06 730.56,627.06 731.25,627.34C731.94,627.62 731.38,627.84 730,627.84C728.62,627.84 728.06,627.62 728.75,627.34ZM740.75,627.26C744.19,627.06 749.81,627.06 753.25,627.26C756.69,627.45 753.88,627.61 747,627.61C740.12,627.61 737.31,627.45 740.75,627.26ZM774.26,627.28C775.78,627.05 778.03,627.06 779.26,627.3C780.49,627.53 779.25,627.72 776.5,627.71C773.75,627.71 772.74,627.51 774.26,627.28ZM164.21,626.26C167.89,626.07 174.19,626.07 178.21,626.26C182.22,626.45 179.2,626.6 171.5,626.61C163.8,626.61 160.52,626.45 164.21,626.26ZM824.75,626.25C830.94,626.08 841.06,626.08 847.25,626.25C853.44,626.43 848.38,626.57 836,626.57C823.62,626.57 818.56,626.43 824.75,626.25ZM112,625.47C111.17,625.31 106.53,624.63 101.67,623.97C95.07,623.07 92.17,622.19 90.17,620.47C87.7,618.35 87.51,617.61 87.6,610.79C87.65,606.69 88.33,602.09 89.11,600.45L90.52,597.5L101.16,597.22C111.65,596.94 111.83,596.97 113.9,599.6C116.26,602.6 116.54,602.29 114.84,598.55C113.4,595.39 108.85,594.01 99.81,594.01C94.3,594 92.65,594.4 90.5,596.25C87.56,598.79 86.06,604 86.02,611.82C86,617.83 87.05,620.41 90.27,622.17C93.32,623.84 103.53,625.81 109,625.79C111.47,625.78 112.83,625.63 112,625.47ZM916.75,625.31C915.79,625.06 914.21,625.06 913.25,625.31C912.29,625.56 913.08,625.77 915,625.77C916.92,625.77 917.71,625.56 916.75,625.31ZM650,624C650.83,623.47 651.95,623.03 652.5,623.03C653.05,623.03 652.83,623.47 652,624C651.17,624.53 650.05,624.97 649.5,624.97C648.95,624.97 649.17,624.53 650,624ZM924.76,624.31C923.81,624.06 922.01,624.05 920.76,624.29C919.52,624.53 920.3,624.74 922.5,624.75C924.7,624.76 925.72,624.56 924.76,624.31ZM934.08,621.08C936.79,618.36 937,617.63 936.94,610.83C936.87,601.88 935.31,596.96 932,595.29C928.9,593.73 917.4,593.62 913.13,595.11C911.38,595.71 909.45,597.18 908.83,598.36C907.73,600.46 907.75,600.46 909.77,598.67C911.42,597.21 913.71,596.81 921.26,596.67C927.8,596.55 931.18,596.9 932.28,597.82C934.12,599.34 936,607.2 936,613.36C936,618.5 934.34,621.01 929.86,622.63C927.07,623.64 926.89,623.86 928.83,623.92C930.14,623.97 932.43,622.73 934.08,621.08ZM655,622C655.83,621.47 656.95,621.03 657.5,621.03C658.05,621.03 657.83,621.47 657,622C656.17,622.53 655.05,622.97 654.5,622.97C653.95,622.97 654.17,622.53 655,622ZM398.87,619.25C397.63,617.66 397.66,617.63 399.25,618.87C400.92,620.18 401.45,621 400.62,621C400.41,621 399.63,620.21 398.87,619.25ZM374.44,613.75L371.5,610.5L374.75,613.44C377.78,616.17 378.46,617 377.69,617C377.51,617 376.05,615.54 374.44,613.75ZM298.21,615.18C299.15,614.81 266.08,614.5 224.71,614.5C183.35,614.5 148.73,614.19 147.8,613.8C146.25,613.16 146.4,612.2 149.4,603.3C151.21,597.91 154.38,589.3 156.43,584.17C158.49,579.03 159.97,574.64 159.73,574.4C158.92,573.59 145,610.66 145,613.63C145,614.51 147.12,615.02 151.75,615.26C164.64,615.93 296.51,615.86 298.21,615.18ZM871.85,615.36C875.3,615 878,614.23 877.99,613.61C877.96,609.13 849.1,538.84 845.96,535.58C844.32,533.89 841.96,533.57 826.3,532.91C791.76,531.46 757,531.02 757,532.02C757,532.63 766.53,533.02 782.25,533.06C820.28,533.16 842.74,534.31 844.68,536.25C846.83,538.4 877.43,612.8 876.56,613.75C876.44,613.89 841.61,614.05 799.17,614.1C754.49,614.17 722,614.59 722,615.1C722,616.12 862.25,616.36 871.85,615.36ZM393.4,612.75L391.5,610.5L393.75,612.4C395.86,614.2 396.46,615 395.65,615C395.47,615 394.45,613.99 393.4,612.75ZM334.31,612.56C335.91,611.35 335.99,610.68 334.99,606.97C332.24,596.74 332.19,596.72 328.81,604.8C327.14,608.82 325.54,611.87 325.26,611.59C324.78,611.11 325.63,608.69 329.49,599.62C331.01,596.03 331.23,595.88 332.42,597.62C333.64,599.4 336.22,606.85 337.31,611.75C337.73,613.65 337.4,614 335.16,613.97C332.69,613.94 332.63,613.84 334.31,612.56ZM687.26,613.28C688.78,613.05 691.03,613.06 692.26,613.3C693.49,613.53 692.25,613.72 689.5,613.71C686.75,613.71 685.74,613.51 687.26,613.28ZM248.18,611.01L303.85,611L306.93,603.03C308.62,598.65 310,594.83 310,594.53C310,594.24 307.33,594 304.06,594C300.79,594 297.89,593.63 297.61,593.17C297.32,592.72 294.83,592.29 292.07,592.23C289.31,592.17 285.12,591.25 282.77,590.18C269.55,584.2 264.31,575.88 263.37,559.38C263.07,553.95 263.25,546.12 263.78,542C264.31,537.88 264.69,534.43 264.62,534.35C264.29,533.95 182.19,536.04 180.27,536.5C177.49,537.16 174.69,542.35 175.51,545.3C175.94,546.82 175.85,547.09 175.2,546.16C174.54,545.2 172.53,548.93 168.21,559.16C162.59,572.44 150.19,604.37 148.5,609.9L147.77,612.3L170.14,611.66C182.44,611.31 217.55,611.02 248.18,611.01ZM695.62,610.46C694.66,607.95 694.94,607.3 696.12,609.33C696.71,610.33 696.97,611.36 696.72,611.62C696.46,611.88 695.97,611.36 695.62,610.46ZM874,611.55C874,609.98 864.99,586.37 857.76,569C845.59,539.77 844.46,537.39 842.37,536.57C841.34,536.16 821.86,535.57 799.08,535.26C760.42,534.73 757.71,534.81 758.32,536.39C758.68,537.32 759.47,542.22 760.09,547.28C761.3,557.24 760.78,564.97 758.36,573.23C754.96,584.76 743.13,591.62 722.61,593.94C717.72,594.49 713.57,595.1 713.38,595.29C713.19,595.47 714.32,598.98 715.89,603.06L718.75,610.5L787.12,611.01C824.73,611.29 859.66,611.63 864.75,611.76C869.84,611.89 874,611.8 874,611.55ZM346.08,609.42C346.13,608.25 346.36,608.01 346.68,608.81C346.97,609.53 346.94,610.4 346.6,610.73C346.27,611.06 346.04,610.47 346.08,609.42ZM124.66,608.75C125.09,608.06 126.38,604.8 127.54,601.5C134.86,580.6 148.38,548.12 156.39,532.22C161.13,522.8 167.75,515 173.78,511.72C180.24,508.2 186.77,507.39 220.61,505.9C246.68,504.76 320.45,505.22 336.5,506.63C341.31,507.05 343.19,506.92 342.5,506.21C339.51,503.12 227.69,502.92 194,505.95C176.43,507.52 173.04,508.89 165.05,517.64C157.8,525.56 144.36,553.37 132.47,585C130.09,591.33 127.44,597.85 126.58,599.5C125.72,601.15 125.01,603.49 125.01,604.69C125,605.9 124.55,607.16 124,607.5C123.37,607.89 123,605.65 123,601.46C123,589.16 118.84,585.88 103.11,585.78C91.93,585.72 87.29,586.92 83.9,590.78L81.5,593.5L84,591.32C87.96,587.86 91.47,587 101.6,587C116.23,587 121,589.98 121,599.1C121,607.81 122.61,612.05 124.66,608.75ZM78.71,603.76C78.47,602.52 78.26,603.3 78.25,605.5C78.24,607.7 78.44,608.72 78.69,607.76C78.94,606.81 78.95,605.01 78.71,603.76ZM364.87,604.25C363.63,602.66 363.66,602.63 365.25,603.87C366.92,605.18 367.45,606 366.62,606C366.41,606 365.63,605.21 364.87,604.25ZM688.09,603.5C688.19,601.61 689.86,598.42 689.91,600C689.94,600.83 689.53,602.17 689,603C688.47,603.83 688.06,604.05 688.09,603.5ZM79.68,598.81C79.36,598.01 79.13,598.25 79.08,599.42C79.04,600.47 79.27,601.06 79.6,600.73C79.94,600.4 79.97,599.53 79.68,598.81ZM354.87,594.25C353.63,592.66 353.66,592.63 355.25,593.87C356.92,595.18 357.45,596 356.62,596C356.41,596 355.63,595.21 354.87,594.25ZM363.72,583.22C360.03,579.5 357,576.24 357,575.97C357,575.71 374.44,575.86 395.75,576.29C443.52,577.27 660.79,576.62 663.39,575.5C664.79,574.89 665.15,575.04 664.8,576.09C664.42,577.24 659.58,577.56 638.42,577.84C624.16,578.04 612.36,578.58 612.18,579.06C612,579.54 608.3,579.65 603.96,579.32C598.27,578.88 595.63,579.06 594.53,579.98C593.34,580.96 593,580.97 593,580.01C593,579.05 574.05,578.86 504.25,579.14C455.44,579.34 418.88,579.24 423,578.93C427.12,578.62 418.8,578.28 404.5,578.17C390.2,578.07 374,577.71 368.5,577.37L358.5,576.76L364.97,583.38C368.53,587.02 371.22,590 370.94,590C370.67,590 367.42,586.95 363.72,583.22ZM339.39,586.42C337.79,580.03 341.92,565.29 356.47,525.5C370.77,486.39 387,448.66 388.77,450.43C389.05,450.72 388.81,451.53 388.24,452.23C385.93,455.04 368.11,498.89 356.83,529.5C342.4,568.68 340.77,573.94 340.63,581.75C340.56,585.74 340.4,589 340.27,589C340.14,589 339.75,587.84 339.39,586.42ZM686.6,584.03C685.8,578.04 677.68,550.73 672.16,535.5C654.56,486.92 639.72,452.81 631.83,442.81C628.68,438.8 623.23,435 620.65,435C618.15,435 626.59,447.99 631.24,451.3L635.07,454.03L633.39,450.79C632.47,449.01 629.24,444.96 626.21,441.78C623.18,438.6 621.17,436 621.74,436C622.31,436 625.27,438.68 628.3,441.95C637.11,451.47 647.81,474.61 663.94,519C675.07,549.63 681.53,569.27 683.52,578.5C685.71,588.68 685.81,589 686.6,589C686.96,589 686.96,586.76 686.6,584.03ZM127.09,585C127.06,584.17 127.47,582.83 128,582C129.18,580.17 129.18,581.75 128,584.5C127.43,585.82 127.12,585.99 127.09,585ZM160.03,582.5C160.03,581.95 160.47,580.83 161,580C161.53,579.17 161.97,578.95 161.97,579.5C161.97,580.05 161.53,581.17 161,582C160.47,582.83 160.03,583.05 160.03,582.5ZM484.32,580.25C500.72,580.1 527.27,580.1 543.32,580.25C559.37,580.41 545.95,580.53 513.5,580.53C481.05,580.53 467.92,580.4 484.32,580.25ZM573.75,580.34C574.44,580.06 575.56,580.06 576.25,580.34C576.94,580.62 576.38,580.84 575,580.84C573.62,580.84 573.06,580.62 573.75,580.34ZM129.03,579.5C129.03,578.95 129.47,577.83 130,577C130.53,576.17 130.97,575.95 130.97,576.5C130.97,577.05 130.53,578.17 130,579C129.47,579.83 129.03,580.05 129.03,579.5ZM635.75,579.34C636.44,579.06 637.56,579.06 638.25,579.34C638.94,579.62 638.38,579.84 637,579.84C635.62,579.84 635.06,579.62 635.75,579.34ZM316.5,576.95C314.3,576.5 308.08,575.43 302.69,574.56C285.9,571.85 282.46,569.19 282.61,559.06C282.77,548.08 284.03,541.88 286.62,539.29C289.01,536.9 289.38,536.85 302.48,537.17C310.9,537.38 316.34,537.93 317.06,538.66C317.7,539.29 318.57,541.32 319,543.16L319.8,546.5L319.9,543.18C320.13,535.73 316.38,534.01 299.88,534.01C284.32,534 282.63,535.88 281.35,554.54C280.34,569.13 283.36,572.62 299.35,575.37C312.65,577.66 313.16,577.73 317,577.74L320.5,577.76L316.5,576.95ZM725.16,575.49C739.28,573.1 742.53,569.94 742.45,558.67C742.37,545.99 741.15,539.99 737.98,536.83C735.19,534.04 734.99,534 723.14,534C708.19,534 704.06,535.34 704.02,540.2C704,541.6 704.44,541.47 706.45,539.45C708.8,537.11 709.47,537 721.2,537.01C728.96,537.02 734.4,537.49 735.93,538.26C739.02,539.84 739.91,543.09 740.65,555.5C741.19,564.76 741.08,565.7 739.05,568.24C736.42,571.54 730.71,573.31 715.53,575.51C709.5,576.38 704.33,577.35 704.03,577.65C703.33,578.37 715.51,577.13 725.16,575.49ZM163.65,564.31C163.21,563.88 159.96,571.59 160.07,572.77C160.11,573.17 161.02,571.52 162.09,569.1C163.16,566.69 163.86,564.53 163.65,564.31ZM164.03,572.5C164.03,571.95 164.47,570.83 165,570C165.53,569.17 165.97,568.95 165.97,569.5C165.97,570.05 165.53,571.17 165,572C164.47,572.83 164.03,573.05 164.03,572.5ZM664.51,564.75C664.28,564.06 661.56,554.95 658.48,544.5C651.58,521.17 647.1,508.31 636.87,482.5C626.75,456.97 627.27,457.5 611.35,456.36C595.8,455.25 429.25,455.25 412.59,456.36C401.39,457.11 399.41,457.5 397.54,459.37C395.44,461.47 385.44,483.77 386.24,484.57C386.46,484.79 388.79,480.02 391.42,473.97C398.53,457.6 396.28,458.94 418.55,457.9C444.16,456.71 572.07,456.74 599.73,457.94C611.96,458.47 622.81,459.37 623.86,459.92C626.24,461.2 628.33,465.64 638.14,490.3C646.66,511.72 653.92,532.81 659.03,551C660.8,557.33 662.47,563.06 662.74,563.75C663.12,564.75 632.38,565 511.09,565L358.96,565L359.59,562.25C359.94,560.74 362.41,552.77 365.08,544.55C367.75,536.33 369.76,529.43 369.55,529.22C369.05,528.71 358,562.37 358,564.41C358,565.86 371.78,566 511.47,566C633.8,566 664.85,565.75 664.51,564.75ZM170.01,550.5C172.86,543.9 175.99,537.67 176.97,536.65C178.5,535.07 181.22,534.67 195.63,533.95C204.91,533.48 224.29,533.07 238.69,533.05C255.08,533.02 265.11,532.62 265.5,532C265.91,531.33 256.14,531.19 236.31,531.58C194.86,532.38 178.19,533.38 176.42,535.15C175.12,536.45 164,561.08 164,562.66C164,564.11 165.01,562.06 170.01,550.5ZM168.07,562.5C168.07,561.95 168.71,560.38 169.5,559C170.29,557.62 170.93,556.95 170.93,557.5C170.93,558.05 170.29,559.62 169.5,561C168.71,562.38 168.07,563.05 168.07,562.5ZM659.99,561.25C659.98,560.16 654.44,541.09 650.91,530C646.59,516.44 641.61,502.61 635.25,486.5C627.61,467.15 625.03,461.96 622.59,461.03C617.71,459.18 541.71,457.71 484.5,458.36C416.15,459.15 400.2,459.94 398.59,462.66C394.95,468.79 379.29,509.52 367.98,542.25L361.15,562L510.58,562C592.76,562 660,561.66 659.99,561.25ZM171.03,555.5C171.03,554.95 171.47,553.83 172,553C172.53,552.17 172.97,551.95 172.97,552.5C172.97,553.05 172.53,554.17 172,555C171.47,555.83 171.03,556.05 171.03,555.5ZM353.86,547.5L353.87,545.5L353.07,547.5C352.62,548.6 351.98,551.08 351.64,553L351.02,556.5L352.43,553C353.21,551.08 353.85,548.6 353.86,547.5ZM140.09,552.5C140.09,551.95 141.17,549.48 142.5,547C143.83,544.52 144.91,542.95 144.91,543.5C144.91,544.05 143.83,546.52 142.5,549C141.17,551.48 140.09,553.05 140.09,552.5ZM173.03,550.5C173.03,549.95 173.47,548.83 174,548C174.53,547.17 174.97,546.95 174.97,547.5C174.97,548.05 174.53,549.17 174,550C173.47,550.83 173.03,551.05 173.03,550.5ZM182.27,538.31C183.24,538.05 184.59,538.07 185.27,538.34C185.95,538.62 185.15,538.83 183.5,538.81C181.85,538.78 181.3,538.56 182.27,538.31ZM825.76,537.29C827.01,537.05 828.81,537.06 829.76,537.31C830.72,537.56 829.7,537.76 827.5,537.75C825.3,537.74 824.52,537.53 825.76,537.29ZM248.81,536.32C249.53,536.03 250.4,536.06 250.73,536.4C251.06,536.73 250.47,536.96 249.42,536.92C248.25,536.87 248.01,536.64 248.81,536.32ZM332.61,530.42C331.51,527.57 332.03,526.46 333.53,528.44C334.34,529.51 335,530.75 335,531.19C335,532.62 333.23,532.05 332.61,530.42ZM847.09,523.42C844.19,519.81 842.03,516.63 842.3,516.37C842.81,515.86 848.56,522.67 851.48,527.25C854.46,531.92 852.6,530.31 847.09,523.42ZM170,527.37C170,526.82 171.35,525.08 173,523.5C174.65,521.92 176,521.08 176,521.63C176,522.18 174.65,523.92 173,525.5C171.35,527.08 170,527.92 170,527.37ZM373.51,520.25C375.03,515.99 378.19,507.55 380.51,501.5C385.24,489.21 386.73,484.49 385.06,487.14C384.12,488.63 372.13,520.53 370.55,525.75C370.17,526.99 370.06,528 370.3,528C370.54,528 371.98,524.51 373.51,520.25ZM377.63,519C377.97,517.62 378.86,515.15 379.61,513.5C380.71,511.09 380.86,510.99 380.37,513C380.03,514.38 379.14,516.85 378.39,518.5C377.29,520.91 377.14,521.01 377.63,519ZM197.5,514.9C208.27,513.57 307.49,512.7 324,513.78C331.98,514.31 338.88,514.39 339.34,513.98C340.93,512.54 296.25,511.74 250.5,512.38C202.54,513.06 189.74,513.79 187.71,515.99C186.73,517.04 186.89,517.15 188.5,516.53C189.6,516.1 193.65,515.37 197.5,514.9ZM639.17,503.33C637.44,498.55 636.2,494.47 636.4,494.26C636.61,494.06 638.19,497.8 639.92,502.58C641.65,507.36 642.89,511.44 642.68,511.65C642.47,511.86 640.89,508.12 639.17,503.33ZM382.11,506.5C382.13,505.95 383.01,503.7 384.07,501.5C385.13,499.3 385.72,498.62 385.37,500C384.67,502.83 382.06,508.03 382.11,506.5ZM633.67,488.83C632.76,486.53 632.19,484.48 632.39,484.28C632.59,484.08 633.5,485.79 634.42,488.08C635.33,490.37 635.91,492.42 635.7,492.64C635.49,492.85 634.57,491.14 633.67,488.83ZM389,488.86C389,488 393.71,476.35 394.84,474.4C396.77,471.07 396.09,473.51 392.98,481.05C390.23,487.73 389,490.13 389,488.86ZM628.62,476.46C627.66,473.95 627.94,473.3 629.12,475.33C629.71,476.33 629.97,477.36 629.72,477.62C629.46,477.88 628.97,477.36 628.62,476.46ZM625.62,469.46C624.66,466.95 624.94,466.3 626.12,468.33C626.71,469.33 626.97,470.36 626.72,470.62C626.46,470.88 625.97,470.36 625.62,469.46ZM593.81,461.32C594.53,461.03 595.4,461.06 595.73,461.4C596.06,461.73 595.47,461.96 594.42,461.92C593.25,461.87 593.01,461.64 593.81,461.32ZM476,446.48C505.39,446.01 538.43,446.18 569.32,446.97C595.62,447.64 617.4,447.93 617.72,447.61C618.62,446.71 612.81,437.91 610,435.91C605.98,433.06 572.51,431.55 513,431.54C459.75,431.54 414.74,433.24 412.08,435.36C409.95,437.06 405,445.17 405,446.95C405,448.3 406.61,448.42 417.75,447.86C424.76,447.51 450.98,446.89 476,446.48ZM407,446.54C407,444.87 412.25,437.12 413.79,436.51C420.41,433.9 519.04,432.22 564,433.96C581.33,434.62 598.62,435.47 602.44,435.84C609.32,436.49 609.4,436.54 612.81,441.29C614.7,443.93 616.03,446.3 615.77,446.57C615.5,446.83 601.38,446.53 584.39,445.9C553.55,444.75 417.22,445.31 410.25,446.62C408.46,446.95 407,446.92 407,446.54ZM614,445.31C614,443.89 609.44,437.98 608,437.53C595.12,433.56 421.65,433.88 414.23,437.89C413.28,438.4 411.75,440.1 410.84,441.66L409.18,444.5L490.84,444.21C557.46,443.97 596.68,444.5 612.25,445.85C613.21,445.93 614,445.69 614,445.31ZM440,415.45C440,415.28 436.03,411.8 431.19,407.71C406.4,386.8 394.19,366.68 387.37,335.5C385.81,328.34 385.16,326.42 385.52,330C388.32,358.04 406.45,390.65 428.87,407.95C437.18,414.37 437.53,415.98 429.39,410.39C414.74,400.33 397.63,376.85 390.02,356.36C386.63,347.25 386.04,347.7 389.08,357.08C391.47,364.46 397.14,375.41 403.8,385.5C409.48,394.1 427.33,412.39 431.93,414.33C434.9,415.58 440,416.29 440,415.45ZM592,413.32C593.32,412.06 593.26,411.98 591.5,412.62C590.4,413.03 592.98,410.09 597.23,406.1C601.48,402.11 606.4,396.97 608.17,394.67C609.94,392.38 607.81,394.14 603.44,398.59C599.07,403.04 593.02,408.79 590,411.37C584.95,415.67 584.75,416 587.5,415.4C589.15,415.04 591.17,414.11 592,413.32ZM497,414.08C496.18,413.6 492.8,412.67 489.5,411.99C457.12,405.38 426.46,379.15 414.97,348.24C411.43,338.7 411.08,339.96 414.49,349.98C418.58,361.98 426.01,373.68 436.19,384.11C448.79,397.02 472.87,410.92 485.67,412.68C488.08,413.01 490.29,413.67 490.59,414.14C490.88,414.61 492.78,414.99 494.81,414.97C497.38,414.95 498.04,414.68 497,414.08ZM555,414C551.31,413.43 552.13,413.27 559.55,413.15C567.66,413.02 569.08,412.7 573.05,410.16C580.93,405.11 594.36,394 599.61,388.17C604.77,382.44 616.9,364.74 617.12,362.64C617.18,362.01 617.29,361.05 617.37,360.5C617.44,359.95 618.73,356.35 620.22,352.5C624.98,340.27 627.04,329.56 628.01,312C628.83,297.27 628.72,294.64 627.03,287.45C624.96,278.67 620.5,266.1 618.89,264.5C618.21,263.83 618.12,264.16 618.6,265.5C619.5,267.99 618.67,267.27 617.04,264.13C616.24,262.6 616.19,262 616.9,262.44C617.51,262.81 618,262.72 618,262.24C618,260.62 610.23,248.5 609.19,248.5C608.63,248.5 607.79,248.09 607.33,247.59C606.85,247.06 607.02,246.98 607.75,247.4C608.44,247.79 609,247.7 609,247.18C609,245.92 606.46,243.88 605.76,244.58C605.45,244.88 604.86,244.58 604.45,243.91C603.94,243.09 604.11,242.95 604.98,243.48C605.84,244.02 606.09,243.82 605.75,242.89C605.48,242.13 604.8,241.59 604.24,241.71C603.69,241.83 602.4,240.93 601.37,239.73C599.79,237.88 599.77,237.75 601.25,238.89C603.67,240.77 603.46,238.73 601,236.5C599.9,235.5 599,235.08 599,235.55C599,236.03 596.99,234.45 594.54,232.04C592.09,229.64 590.36,227.22 590.7,226.68C591.05,226.11 590.8,226.01 590.09,226.44C588.6,227.36 584.79,224.14 585.68,222.71C586.03,222.15 585.84,221.98 585.27,222.33C584.7,222.69 581.14,220.91 577.36,218.39C569.84,213.36 568.25,212.08 571.84,213.95C573.12,214.61 574.4,214.93 574.68,214.65C574.96,214.38 573.82,213.44 572.14,212.57C568.6,210.74 567.63,210.6 568.51,212.02C568.86,212.58 567.09,212.05 564.58,210.83C562.07,209.61 560.47,208.32 561.04,207.98C561.6,207.63 560.9,206.82 559.48,206.17C556.34,204.74 553.86,204.62 556,206C557.72,207.11 556.94,207.3 554.5,206.36C553.15,205.85 553.09,205.54 554.17,204.78C555.06,204.15 554.51,204.04 552.5,204.45C550.53,204.85 549.97,204.75 550.87,204.15C552.75,202.89 545.84,200.63 542.77,201.49C540.92,202.01 540.78,201.92 542,200.98C543.19,200.07 542.77,199.95 540,200.41C537.95,200.76 537.04,200.65 537.81,200.15C540,198.74 526.14,197 512.69,197C498.16,197 486.04,198.87 473.5,203.05C462.78,206.62 444.39,216.13 444.77,217.9C444.93,218.59 444.64,218.9 444.15,218.59C443.08,217.93 436.51,222.6 433,226.53C431.62,228.06 431.13,228.96 431.9,228.51C432.86,227.95 433.08,228.07 432.59,228.86C432.19,229.51 431.5,229.81 431.06,229.54C430.63,229.27 429.46,229.94 428.48,231.02C427.49,232.11 427.04,233 427.47,233C427.9,233 427.69,233.67 427.01,234.49C426.33,235.31 425.43,235.76 425,235.5C423.89,234.82 421.87,237.52 422.76,238.5C423.17,238.95 423.03,239.05 422.45,238.73C421.87,238.4 420.83,239.05 420.13,240.17C419.08,241.85 419.09,242.07 420.18,241.44C421.63,240.6 417.54,245.49 414.73,247.95C413.75,248.8 412.77,250.51 412.54,251.75C411.94,254.96 406.73,263.95 405.8,263.38C405.37,263.11 405.32,263.67 405.68,264.61C406.15,265.84 405.98,266.1 405.06,265.54C404.11,264.95 403.96,265.31 404.5,267C404.98,268.52 404.86,269.03 404.12,268.57C403.41,268.13 403.26,268.5 403.68,269.61C404.16,270.87 403.99,271.11 403.02,270.51C402.14,269.97 401.93,270.08 402.4,270.84C403.31,272.31 399.94,283.08 398.79,282.37C398.31,282.07 398.2,283.11 398.54,284.67C399.04,286.93 398.93,287.2 398.01,286C397.09,284.8 396.94,285.14 397.26,287.75C397.47,289.54 397.23,291 396.72,291C396.2,291 396.05,292.06 396.37,293.35C396.7,294.64 396.69,295.98 396.35,296.31C395.55,297.12 394.69,308.45 394.67,318.5C394.65,327.73 397.96,344.42 401.72,354C406.85,367.12 418.67,384.21 430.33,395.37C434.78,399.64 435.89,401.03 433.26,399.05C430.93,397.29 428.77,395.44 428.45,394.93C428.14,394.42 427.37,394 426.74,394C424.67,394 433.35,402.05 440.83,407.08C448.17,412 452.72,413.79 448,409.89C445.14,407.53 447.11,408.36 451.38,411.32C454.36,413.39 464.56,414.49 470.3,413.37C472.64,412.91 472.9,412.58 471.86,411.33C471.18,410.51 468.02,408.52 464.84,406.92C458.92,403.93 455.5,402.93 460,405.5C462.86,407.14 461.88,407.54 458.91,405.95C457.83,405.37 457.18,404.52 457.46,404.06C457.75,403.6 456.88,402.49 455.53,401.61C452.34,399.52 451.4,399.56 453.13,401.71C454.04,402.85 453.43,402.67 451.27,401.16C449.49,399.91 448.14,398.41 448.27,397.82C448.4,397.23 447.87,396.52 447.11,396.25C446.15,395.9 445.97,396.17 446.52,397.12C446.99,397.93 446.95,398.16 446.41,397.67C445.91,397.21 445.5,396.49 445.5,396.07C445.5,395.66 441.82,391.85 437.31,387.61C428.84,379.64 419.7,367.09 415.58,357.78C412.4,350.59 408.36,337.58 407.42,331.5C406.79,327.42 406.53,326.96 406.03,329C405.01,333.11 405.95,305.08 407.09,297.26C407.67,293.28 407.86,289 407.51,287.76C406.99,285.91 407.08,285.77 408.02,287C408.96,288.22 409.07,288.03 408.6,286C407.82,282.56 411.89,270.28 413.21,272.13C413.9,273.12 414.02,272.83 413.64,271.1C412.98,268.13 416.59,260.63 418.21,261.63C418.96,262.09 419.12,261.75 418.68,260.61C418.32,259.67 418.42,259.14 418.92,259.45C419.41,259.75 421.01,257.96 422.47,255.46C423.94,252.96 428.46,246.92 432.52,242.05C444.4,227.77 464.09,215.81 484.88,210.24C493.46,207.94 496.34,207.67 511.5,207.69C526.66,207.7 529.58,207.99 538.5,210.35C556.57,215.14 571.06,223.28 584.66,236.3C598.58,249.61 608.81,266.96 614.57,287C617.02,295.55 617.32,298.3 617.53,314.5C617.68,325.52 617.43,331.72 616.89,330.5C616.28,329.13 616.16,329.91 616.5,333C616.88,336.45 616.76,337.03 615.99,335.5C615.21,333.95 615.1,334.4 615.53,337.5C615.93,340.43 615.8,341.1 615.04,340C614.27,338.88 614.14,339.4 614.52,342C614.92,344.7 614.82,345.04 614.09,343.5C613.57,342.4 613.11,342.03 613.07,342.67C613.03,343.31 612.73,344.66 612.41,345.67C611.9,347.23 611.99,347.28 612.99,346C614.94,343.5 613.28,349.43 609.97,356.72C608.04,360.98 606.66,362.91 605.87,362.42C605.14,361.97 604.96,362.12 605.39,362.82C606.26,364.23 603.23,370.26 602.03,369.52C601.02,368.89 594.36,377.8 594.77,379.22C594.93,379.73 594.48,379.82 593.77,379.41C593.07,379.01 592.78,379 593.13,379.38C593.47,379.77 591.12,382.6 587.9,385.68C584.68,388.75 582.33,391.72 582.68,392.29C583.04,392.87 582.82,393 582.15,392.59C581.5,392.19 579.14,393.38 576.74,395.32C569.68,401.06 560.01,406.89 553.78,409.16C550.44,410.38 548.38,411.62 549.03,412.02C550.78,413.1 546.31,413.98 539.5,413.9L533.5,413.83L539.28,412.43C556.05,408.37 584.1,389.73 593.25,376.58C594.43,374.88 591.81,377.14 587.44,381.6C573.99,395.32 557.49,405.47 540.28,410.62C533.17,412.75 528.46,413.38 515.5,413.96C501.46,414.58 503.17,414.67 529.5,414.68C546,414.69 557.48,414.38 555,414ZM596.5,410C597.5,408.9 598.08,408 597.81,408C597.53,408 596.5,408.9 595.5,410C594.5,411.1 593.92,412 594.19,412C594.47,412 595.5,411.1 596.5,410ZM566.14,403.89C571.29,400.52 576.39,397.04 577.48,396.14C579.38,394.57 579.4,394.59 577.98,396.43C576.41,398.49 559.17,410 557.67,410C557.18,410 560.99,407.25 566.14,403.89ZM463,408C462.18,407.47 461.95,407.03 462.5,407.03C463.05,407.03 464.18,407.47 465,408C465.82,408.53 466.05,408.97 465.5,408.97C464.95,408.97 463.82,408.53 463,408ZM526.03,406.55C536.46,404.98 546.81,401.6 557.25,396.36C566.72,391.61 565.68,391.35 555.75,395.98C538.68,403.95 529.39,405.98 509.86,405.99C493.97,406 482.03,403.16 467.5,395.9C444.25,384.28 428.28,365.53 419.87,340C416.79,330.62 416.12,330.8 418.58,340.36C420.52,347.87 427.84,362.69 433.05,369.64C441.81,381.33 461.27,395.96 474.83,401.04C492.35,407.6 507.93,409.28 526.03,406.55ZM439.87,404.25C438.63,402.66 438.66,402.63 440.25,403.87C441.92,405.18 442.45,406 441.62,406C441.41,406 440.63,405.21 439.87,404.25ZM535,401.89C545.18,399.4 559.89,392.68 568.36,386.64C577.31,380.25 587.87,368.65 593.29,359.26C598.17,350.8 604.08,334.99 603.9,330.85L603.8,328.5L602.91,331C602.16,333.14 602.1,333.01 602.51,330.12C602.78,328.27 603.05,325.79 603.12,324.62C603.2,323.09 603.43,323.33 603.95,325.5C604.58,328.16 604.75,327.83 605.46,322.58C606.73,313.29 605.47,298.6 602.54,288.5C599.45,277.89 593.43,264.61 592.09,265.45C591.56,265.77 590.81,265.51 590.41,264.86C589.96,264.13 590.12,263.96 590.85,264.4C593.41,265.99 591.69,262.71 585.96,255.11C564.56,226.71 524.61,213.04 489.35,222.04C473.46,226.1 457.86,234.61 446.97,245.17C440.37,251.56 432.33,261.15 434.88,259.57C435.84,258.98 436.12,259.14 435.8,260.11C435.54,260.87 434.85,261.5 434.25,261.5C433.65,261.5 432.79,261.91 432.33,262.41C431.84,262.95 432.07,262.99 432.88,262.52C433.83,261.97 434.1,262.15 433.75,263.11C433.48,263.87 432.76,264.39 432.15,264.26C431.55,264.13 430.55,264.97 429.93,266.13C429.13,267.62 429.12,268.04 429.9,267.56C431.48,266.59 431.31,267.26 428.38,273.72C426.93,276.9 424.7,282.65 423.42,286.5C422.14,290.35 421.02,292.6 420.93,291.5C420.84,290.4 420.18,291.75 419.48,294.5C417.62,301.74 417.68,322.51 419.58,331.79C425.39,360.06 445.51,384.89 472.35,396.93C478.6,399.74 491.96,403.46 499,404.37C506.42,405.32 526.63,403.93 535,401.89ZM612.48,393.93C619.26,385.29 617.37,386.67 609.97,395.75C606.5,400.01 604.6,402.68 605.74,401.68C606.89,400.67 609.92,397.18 612.48,393.93ZM591.5,400C592.5,398.9 593.08,398 592.81,398C592.53,398 591.5,398.9 590.5,400C589.5,401.1 588.92,402 589.19,402C589.47,402 590.5,401.1 591.5,400ZM451.5,399C451.16,398.45 450.43,398 449.88,398C449.33,398 449.16,398.45 449.5,399C449.84,399.55 450.57,400 451.12,400C451.67,400 451.84,399.55 451.5,399ZM418.19,383.75C408.7,371.39 403.68,362.99 399.82,353C398.23,348.88 397.2,346.85 397.54,348.5C399.51,358.06 409.94,376.67 420.09,388.73C427.67,397.73 426.43,394.48 418.19,383.75ZM587.5,387C590.21,384.25 592.65,382 592.92,382C593.2,382 591.21,384.25 588.5,387C585.79,389.75 583.35,392 583.08,392C582.8,392 584.79,389.75 587.5,387ZM614.13,387.25C615.37,385.66 615.34,385.63 613.75,386.87C612.79,387.63 612,388.41 612,388.62C612,389.45 612.82,388.92 614.13,387.25ZM574.13,385.25C575.37,383.66 575.34,383.63 573.75,384.87C572.79,385.63 572,386.41 572,386.62C572,387.45 572.82,386.92 574.13,385.25ZM427.92,380.78C422.52,373.95 418.7,368.33 416.51,364C414,359.02 415.11,360.37 421.04,369.51C423.9,373.91 427.78,379.41 429.68,381.75C431.58,384.09 432.89,386 432.59,386C432.29,386 430.19,383.65 427.92,380.78ZM557.44,383.43C556.37,382.56 556.1,382.16 556.83,382.53C557.56,382.91 559.36,383.58 560.83,384.02C562.97,384.67 563.09,384.85 561.44,384.91C560.31,384.96 558.51,384.29 557.44,383.43ZM585,375.29C585,374.54 584.1,375.33 579.96,379.75L575.5,384.5L580.25,380.04C582.86,377.59 585,375.45 585,375.29ZM462,381.25C462,380.84 463.55,379.6 465.45,378.5C467.34,377.4 478.03,370.16 489.2,362.41C500.36,354.66 510.02,348.02 510.66,347.65C511.68,347.07 538.66,364.92 553.8,376.19C556.71,378.36 559.6,379.97 560.23,379.76C561.37,379.38 548.33,369.78 524.68,353.59C513.19,345.72 511.69,344.96 510.18,346.26C509.26,347.06 499.95,353.48 489.5,360.52C479.05,367.57 468.79,374.66 466.7,376.29C464.62,377.91 462.66,378.99 462.35,378.68C462.04,378.37 464.58,369.43 468,358.81C471.42,348.19 475.24,336.24 476.5,332.25L478.78,325.01L473.64,321.29C459.18,310.83 430,288.91 430,288.52C430,287.14 435.77,291.11 457,307.08C469.93,316.8 480.68,324.6 480.89,324.4C481.8,323.58 477.57,320 461.03,307.61C437.46,289.95 437.81,290.2 435.25,288.86C431.68,286.99 432.58,286.47 438.75,286.86C441.91,287.06 454.9,286.9 467.6,286.5L490.71,285.79L496.75,267.64C504.34,244.86 510.2,229 511.04,229C511.71,229 514.03,233.58 513.96,234.8C513.95,235.18 513.29,234.38 512.5,233C511.71,231.62 511.07,230.95 511.06,231.5C511.05,232.61 529.65,286.98 530.25,287.58C530.45,287.79 540.27,288.15 552.06,288.4L573.5,288.85L552.5,287.83C540.95,287.26 531.33,286.64 531.12,286.44C530.36,285.71 513.98,236.69 514.36,236.31C514.84,235.83 522.28,256.09 527.61,272.37C530.49,281.16 532.02,284.43 533.5,284.98C534.6,285.4 548.1,286.06 563.5,286.46C578.9,286.86 592.04,287.49 592.7,287.85C593.44,288.27 592.04,289.82 588.94,292.01C586.22,293.93 575.91,301.44 566.03,308.69C556.16,315.95 547.2,322.36 546.13,322.93C544.32,323.9 544.28,324.26 545.57,328.24C554.98,357.35 560.88,376.1 561.45,378.75C562.4,383.13 560.76,383.01 553.91,378.19C550.94,376.1 540.28,368.66 530.24,361.66L511.98,348.93L498.24,358.29C490.68,363.44 479.8,370.88 474.06,374.82C463.91,381.79 462,382.81 462,381.25ZM537.5,369.93C528.15,363.33 518.41,356.58 515.87,354.93L511.23,351.94L497.87,361.1C490.51,366.14 481.01,372.71 476.75,375.7C472.49,378.69 469,380.93 469,380.67C469,380.04 483.5,369.63 498.85,359.24L511.21,350.87L515.35,353.58C522.21,358.07 554.43,380.21 555.45,381.14C556.05,381.68 556.05,381.99 555.45,381.97C554.93,381.96 546.85,376.54 537.5,369.93ZM598.11,374.5C599.88,372.03 601.54,370.21 601.79,370.46C602.26,370.93 596.18,379 595.35,379C595.09,379 596.33,376.98 598.11,374.5ZM556.68,368.81C556.36,368.01 556.13,368.25 556.08,369.42C556.04,370.47 556.27,371.06 556.6,370.73C556.94,370.4 556.97,369.53 556.68,368.81ZM464.14,364C464.14,363.18 464.53,361.6 465,360.5C465.54,359.24 465.86,359.05 465.86,360C465.86,360.82 465.47,362.4 465,363.5C464.46,364.76 464.14,364.95 464.14,364ZM548.6,342.16C545.52,332.27 543,323.97 543,323.7C543,323.44 550.93,317.43 560.62,310.36C570.31,303.29 580.06,296.15 582.3,294.5C584.54,292.84 586.3,291.04 586.2,290.5C586.1,289.95 583.43,289.45 580.26,289.39L574.5,289.28L586.5,290.5L578.42,296C564.45,305.52 542.02,322.46 542,323.5C541.99,325.34 553.3,361.03 553.76,360.58C554,360.33 551.69,352.04 548.6,342.16ZM411.66,353.77C409.33,347.62 407.02,339.74 407.04,338C407.06,337.18 408.61,341.2 410.5,346.95C413.95,357.5 414.67,361.68 411.66,353.77ZM395.6,338.4C394.81,335.16 394.13,333.31 394.08,334.31C393.98,336.55 396.11,345.22 396.64,344.69C396.85,344.48 396.38,341.65 395.6,338.4ZM384.68,338.81C384.36,338.01 384.13,338.25 384.08,339.42C384.04,340.47 384.27,341.06 384.6,340.73C384.94,340.4 384.97,339.53 384.68,338.81ZM411.68,337.81C411.36,337.01 411.13,337.25 411.08,338.42C411.04,339.47 411.27,340.06 411.6,339.73C411.94,339.4 411.97,338.53 411.68,337.81ZM626.68,335.81C626.36,335.01 626.13,335.25 626.08,336.42C626.04,337.47 626.27,338.06 626.6,337.73C626.94,337.4 626.97,336.53 626.68,335.81ZM601.08,335.42C601.13,334.25 601.36,334.01 601.68,334.81C601.97,335.53 601.94,336.4 601.6,336.73C601.27,337.06 601.04,336.47 601.08,335.42ZM383.69,332.27C383.44,331.3 383.22,331.85 383.19,333.5C383.17,335.15 383.38,335.95 383.66,335.27C383.93,334.59 383.95,333.24 383.69,332.27ZM406.16,334C406.16,332.62 406.38,332.06 406.66,332.75C406.94,333.44 406.94,334.56 406.66,335.25C406.38,335.94 406.16,335.38 406.16,334ZM627.66,330.75C627.38,330.06 627.16,330.62 627.16,332C627.16,333.38 627.38,333.94 627.66,333.25C627.94,332.56 627.94,331.44 627.66,330.75ZM393.69,328.27C393.44,327.3 393.22,327.85 393.19,329.5C393.17,331.15 393.38,331.95 393.66,331.27C393.93,330.59 393.95,329.24 393.69,328.27ZM416.66,327.75C416.38,327.06 416.16,327.62 416.16,329C416.16,330.38 416.38,330.94 416.66,330.25C416.94,329.56 416.94,328.44 416.66,327.75ZM382.69,326.27C382.44,325.3 382.22,325.85 382.19,327.5C382.17,329.15 382.38,329.95 382.66,329.27C382.93,328.59 382.95,327.24 382.69,326.27ZM475.11,328C474.96,325.99 470.74,322.39 453.42,309.5C441.59,300.7 430.92,292.41 429.7,291.09C428.49,289.76 430.2,290.77 433.5,293.34C444.03,301.52 474.29,323.93 475.25,324.25C475.76,324.42 475.98,325.9 475.74,327.53C475.35,330.18 475.28,330.23 475.11,328ZM628.69,325.27C628.44,324.3 628.22,324.85 628.19,326.5C628.17,328.15 628.38,328.95 628.66,328.27C628.93,327.59 628.95,326.24 628.69,325.27ZM614.68,325.81C614.36,325.01 614.13,325.25 614.08,326.42C614.04,327.47 614.27,328.06 614.6,327.73C614.94,327.4 614.97,326.53 614.68,325.81ZM415.71,319.76C415.47,318.52 415.26,319.3 415.25,321.5C415.24,323.7 415.44,324.72 415.69,323.76C415.94,322.81 415.95,321.01 415.71,319.76ZM547,324.62C547,324.41 547.79,323.63 548.75,322.87C550.34,321.63 550.37,321.66 549.13,323.25C547.82,324.92 547,325.45 547,324.62ZM392.69,320.27C392.44,319.3 392.22,319.85 392.19,321.5C392.17,323.15 392.38,323.95 392.66,323.27C392.93,322.59 392.95,321.24 392.69,320.27ZM381.72,315.25C381.49,313.74 381.3,314.98 381.3,318C381.3,321.02 381.49,322.26 381.72,320.75C381.95,319.24 381.95,316.76 381.72,315.25ZM395.08,321.42C395.13,320.25 395.36,320.01 395.68,320.81C395.97,321.53 395.94,322.4 395.6,322.73C395.27,323.06 395.04,322.47 395.08,321.42ZM614.46,293.5C610.22,272.55 600.47,253.9 586.12,239.29C555.99,208.61 510.69,199.74 471.01,216.73C458.69,222 448.54,228.48 441.06,235.83C437.45,239.37 436.59,240.44 439.15,238.21C460.78,219.31 484.43,210.07 511.29,210.02C538.12,209.97 562.71,219.6 581.95,237.68C603.21,257.67 614.54,283.63 615.21,313.88L615.42,323.5L615.75,312.5C615.97,305.13 615.54,298.86 614.46,293.5ZM384.71,315.75C384.47,314.51 384.27,315.52 384.27,318C384.27,320.48 384.47,321.49 384.71,320.25C384.94,319.01 384.94,316.99 384.71,315.75ZM553.5,319.53C555.15,318.08 557.85,315.98 559.5,314.87L562.5,312.83L559.5,315.47C557.85,316.92 555.15,319.02 553.5,320.13L550.5,322.17L553.5,319.53ZM604.35,312.5C604.35,307.55 604.52,305.4 604.73,307.72C604.94,310.04 604.94,314.09 604.74,316.72C604.53,319.35 604.36,317.45 604.35,312.5ZM629.74,307.25C629.53,304.64 629.36,306.77 629.36,312C629.36,317.23 629.53,319.36 629.74,316.75C629.94,314.14 629.94,309.86 629.74,307.25ZM563,312.62C563,312.41 563.79,311.63 564.75,310.87C566.34,309.63 566.37,309.66 565.13,311.25C563.82,312.92 563,313.45 563,312.62ZM569.5,307.53C572.52,304.88 576,302.62 576,303.3C576,303.5 573.86,305.12 571.25,306.91C567.65,309.37 567.23,309.52 569.5,307.53ZM392.71,303.76C392.47,302.52 392.26,303.3 392.25,305.5C392.24,307.7 392.44,308.72 392.69,307.76C392.94,306.81 392.95,305.01 392.71,303.76ZM631.72,301.26C631.49,299.74 631.29,300.75 631.29,303.5C631.28,306.25 631.47,307.49 631.7,306.26C631.94,305.03 631.95,302.78 631.72,301.26ZM419.23,303C419.23,301.07 419.44,300.29 419.69,301.25C419.94,302.21 419.94,303.79 419.69,304.75C419.44,305.71 419.23,304.93 419.23,303ZM603.14,300C603.05,298.62 602.74,296.38 602.46,295L601.94,292.5L603.02,294.96C603.61,296.32 603.91,298.57 603.7,299.96L603.3,302.5L603.14,300ZM607.66,298.75C607.38,298.06 607.16,298.62 607.16,300C607.16,301.38 607.38,301.94 607.66,301.25C607.94,300.56 607.94,299.44 607.66,298.75ZM627.19,297.5C627.22,295.85 627.44,295.3 627.69,296.27C627.95,297.24 627.93,298.59 627.66,299.27C627.38,299.95 627.17,299.15 627.19,297.5ZM420.16,296C420.16,294.62 420.38,294.06 420.66,294.75C420.94,295.44 420.94,296.56 420.66,297.25C420.38,297.94 420.16,297.38 420.16,296ZM605.61,288.86C599.01,260.51 578,235.55 551.11,224.11C536.85,218.05 529.14,216.56 512.5,216.64C496.32,216.73 489.16,218.07 475.31,223.61C460.83,229.4 444,241.58 436.53,251.66C434.93,253.82 436.7,252.4 440.59,248.4C444.39,244.5 449.52,239.71 452,237.77C458.89,232.36 472.41,225.54 483.5,221.89C493.32,218.65 493.83,218.59 512,218.55L530.5,218.51L541.8,222.39C562.92,229.65 579.71,242.15 590.64,258.76C597.89,269.77 602.36,279.53 604.63,289.33C605.63,293.64 606.59,296.73 606.77,296.19C606.95,295.66 606.43,292.36 605.61,288.86ZM628.96,284.26C615.54,230.34 568.66,193.76 513,193.77C487.39,193.77 465.71,200.09 444.58,213.72C437.18,218.49 426.74,227.07 427.46,227.79C427.7,228.03 430.51,225.99 433.7,223.26C442.08,216.09 447.81,212.45 459.31,206.95C497.69,188.63 542.51,191.83 579.11,215.5C595.69,226.23 614.49,248.6 621.92,266.47C625.15,274.22 629.9,290.71 630.13,295C630.26,297.33 630.3,297.35 630.7,295.26C630.94,294.03 630.15,289.08 628.96,284.26ZM638.66,293.75C638.38,293.06 638.16,293.62 638.16,295C638.16,296.38 638.38,296.94 638.66,296.25C638.94,295.56 638.94,294.44 638.66,293.75ZM626.08,291.42C626.13,290.25 626.36,290.01 626.68,290.81C626.97,291.53 626.94,292.4 626.6,292.73C626.27,293.06 626.04,292.47 626.08,291.42ZM601.08,290.42C601.13,289.25 601.36,289.01 601.68,289.81C601.97,290.53 601.94,291.4 601.6,291.73C601.27,292.06 601.04,291.47 601.08,290.42ZM637.66,287.75C637.38,287.06 637.16,287.62 637.16,289C637.16,290.38 637.38,290.94 637.66,290.25C637.94,289.56 637.94,288.44 637.66,287.75ZM448.73,289.4C448.4,289.06 447.53,289.03 446.81,289.32C446.01,289.64 446.25,289.87 447.42,289.92C448.47,289.96 449.06,289.73 448.73,289.4ZM476.25,288.26C472.26,288.07 465.74,288.07 461.75,288.26C457.76,288.45 461.02,288.6 469,288.6C476.98,288.6 480.24,288.45 476.25,288.26ZM493.39,286.42C493.73,285.55 493.97,284.31 493.93,283.67C493.89,283.03 493.51,283.4 493.08,284.5C492.53,285.92 491.04,286.67 487.91,287.1L483.5,287.7L488.14,287.85C491.55,287.96 492.95,287.58 493.39,286.42ZM624.57,285.43C624.2,283.96 624.1,282.57 624.33,282.34C624.57,282.1 625.06,283.11 625.43,284.57C625.8,286.04 625.9,287.43 625.67,287.66C625.43,287.9 624.94,286.89 624.57,285.43ZM634.12,274.26C625.9,247.9 610.16,225.69 588.48,209.86C575.23,200.18 553.11,190.92 535,187.46C515.01,183.64 487.91,185.76 468.75,192.65C460.89,195.47 445.72,202.86 442.5,205.43C441.4,206.31 443.88,205.25 448,203.08C467.81,192.65 484.7,188.09 506.61,187.26C554.84,185.45 598.77,209.37 622.74,250.5C626.76,257.39 632.74,272.25 635.2,281.45C635.89,284.03 636.61,285.66 636.81,285.08C637,284.5 635.79,279.63 634.12,274.26ZM425.97,275.5C425.97,274.95 425.53,275.18 425,276C424.47,276.82 424.03,277.95 424.03,278.5C424.03,279.05 424.47,278.82 425,278C425.53,277.18 425.97,276.05 425.97,275.5ZM620.62,273.38C619.73,270.79 619.18,268.49 619.39,268.28C619.6,268.06 620.5,270.02 621.38,272.62C622.27,275.21 622.82,277.51 622.61,277.72C622.4,277.94 621.5,275.98 620.62,273.38ZM595.62,275.46C594.66,272.95 594.94,272.3 596.12,274.33C596.71,275.33 596.97,276.36 596.72,276.62C596.46,276.88 595.97,276.36 595.62,275.46ZM498.97,268.5C498.97,267.95 498.53,268.18 498,269C497.47,269.82 497.03,270.95 497.03,271.5C497.03,272.05 497.47,271.82 498,271C498.53,270.18 498.97,269.05 498.97,268.5ZM417.92,262.5C417.92,261.95 417.05,263.07 416,265C414.95,266.93 414.08,268.95 414.08,269.5C414.08,270.05 414.95,268.93 416,267C417.05,265.07 417.92,263.05 417.92,262.5ZM430.49,261.38C431.43,259.93 431.71,259.06 431.11,259.43C429.95,260.15 427.63,264 428.35,264C428.58,264 429.54,262.82 430.49,261.38ZM587,260C585.83,258.35 585.09,257 585.36,257C585.64,257 586.83,258.35 588,260C589.17,261.65 589.91,263 589.64,263C589.36,263 588.17,261.65 587,260ZM437.86,256.42C441.42,251.03 453.52,240.4 462.11,235.11C466.68,232.3 470.89,230.01 471.46,230.02C472.03,230.03 469.37,231.86 465.55,234.09C456.49,239.38 447.49,246.59 441.02,253.75C438.16,256.91 436.74,258.12 437.86,256.42ZM577,248.28C572.07,243.23 571.49,242.38 574.61,244.78C577.97,247.37 584.91,255.07 583.8,254.98C583.64,254.96 580.58,251.95 577,248.28ZM610,252C609.41,250.9 609.15,250 609.43,250C609.7,250 610.41,250.9 611,252C611.59,253.1 611.85,254 611.57,254C611.3,254 610.59,253.1 610,252ZM413,246C414.17,244.35 414.91,243 414.64,243C414.36,243 413.17,244.35 412,246C410.83,247.65 410.09,249 410.36,249C410.64,249 411.83,247.65 413,246ZM420.59,236.25C423.25,233.09 424.38,231.4 423.1,232.5C420.56,234.69 414.55,242 415.29,242C415.55,242 417.93,239.41 420.59,236.25ZM567.4,239.75L565.5,237.5L567.75,239.4C568.99,240.45 570,241.47 570,241.65C570,242.46 569.2,241.86 567.4,239.75ZM561.74,236.09C557.63,233.45 557.06,232.52 560.69,234.37C562.44,235.26 564.15,236.44 564.5,236.99C565.3,238.29 565.06,238.21 561.74,236.09ZM599,234.7C599,234.54 597.09,232.63 594.75,230.45L590.5,226.5L594.45,230.75C598.13,234.7 599,235.46 599,234.7ZM554.51,232.01C554.16,231.44 554.56,231.28 555.45,231.62C557.18,232.28 557.5,233 556.06,233C555.54,233 554.84,232.56 554.51,232.01ZM548,229C547.17,228.47 546.95,228.03 547.5,228.03C548.05,228.03 549.17,228.47 550,229C550.83,229.53 551.05,229.97 550.5,229.97C549.95,229.97 548.83,229.53 548,229ZM480.61,226.54C482.32,225.75 485.02,224.85 486.61,224.54C489.08,224.05 489,224.17 486,225.34C484.07,226.1 481.38,227 480,227.35C478.12,227.82 478.27,227.62 480.61,226.54ZM541,226.5C539.08,225.76 538.17,225.14 539,225.12C539.83,225.1 541.85,225.71 543.5,226.46C547.36,228.23 545.57,228.26 541,226.5ZM589,224.5C588.32,223.68 587.27,223 586.69,223C586.1,223 586.49,223.66 587.56,224.47C590.07,226.37 590.56,226.38 589,224.5ZM428,216.18C428,215.33 420.17,222.57 419.54,224C419.18,224.82 420.94,223.49 423.44,221.04C425.95,218.59 428,216.4 428,216.18ZM534.81,224.32C535.53,224.03 536.4,224.06 536.73,224.4C537.06,224.73 536.47,224.96 535.42,224.92C534.25,224.87 534.01,224.64 534.81,224.32ZM491.81,223.32C492.53,223.03 493.4,223.06 493.73,223.4C494.06,223.73 493.47,223.96 492.42,223.92C491.25,223.87 491.01,223.64 491.81,223.32ZM496.81,222.32C497.53,222.03 498.4,222.06 498.73,222.4C499.06,222.73 498.47,222.96 497.42,222.92C496.25,222.87 496.01,222.64 496.81,222.32ZM585,221.67C585,220.94 575.85,214.82 575.41,215.26C575.15,215.51 577.09,217.13 579.72,218.85C584.58,222.03 585,222.25 585,221.67ZM432.13,213.25C433.37,211.66 433.34,211.63 431.75,212.87C430.08,214.18 429.55,215 430.38,215C430.59,215 431.37,214.21 432.13,213.25ZM566,209.5C564.62,208.71 563.05,208.07 562.5,208.07C561.95,208.07 562.62,208.71 564,209.5C565.38,210.29 566.95,210.93 567.5,210.93C568.05,210.93 567.38,210.29 566,209.5Z"/>
</svg>
