<?xml version="1.0" encoding="UTF-8" standalone="no"?>
<!DOCTYPE svg PUBLIC "-//W3C//DTD SVG 1.1//EN" "http://www.w3.org/Graphics/SVG/1.1/DTD/svg11.dtd">
<svg width="100%" height="100%" viewBox="0 0 1024 1024" version="1.1" xmlns="http://www.w3.org/2000/svg" xmlns:xlink="http://www.w3.org/1999/xlink" xml:space="preserve" xmlns:serif="http://www.serif.com/" style="fill-rule:evenodd;clip-rule:evenodd;stroke-linejoin:round;stroke-miterlimit:2;">
    <path d="M470,704.4C464.77,704.22 426.98,703.61 386,703.03C257.09,701.21 213.78,699.99 171.5,696.97C145.77,695.13 143.18,694.53 150.25,692.06C154.26,690.66 176.31,687 180.75,687C182.54,687 184,686.74 184,686.43C184,686.12 182.91,684.43 181.57,682.68C178.2,678.26 175.15,670.82 173.17,662.18L171.5,654.86L166.33,653.11C158.77,650.55 154.16,646.6 151.2,640.12C148.99,635.29 148.68,633.43 148.98,626.51C149.17,622.11 149.14,614 148.91,608.5C148.69,603 148.53,587.02 148.57,573C148.64,549.19 148.79,547.1 150.87,541.5C152.22,537.85 153.48,531.22 154.07,524.57C155.16,512.3 157.19,502.5 159.62,497.71C160.52,495.94 163.21,492.19 165.61,489.37C171.32,482.63 182,468.19 181.99,467.24C181.98,466.83 179.66,465.38 176.83,464C168.67,460.04 167.5,457.74 167.5,445.68C167.5,433.88 169.4,427.52 174.12,423.55C181.55,417.3 202.41,416.38 207.56,422.07C209.23,423.91 209.51,423.59 215.48,412.74C228.04,389.93 250.74,356.64 264.56,340.76C272.47,331.68 284.48,321.33 290.9,318.05C301.84,312.47 329.51,308.95 390,305.43C412.65,304.11 429.07,303.88 470,304.3C521.07,304.82 543.3,306.07 555.53,309.09C563.5,311.06 617.7,331.82 655,347.19C679,357.08 683.48,361.25 689.04,378.86C692.26,389.07 698.24,422.48 699.98,439.92C700.55,445.66 701.2,450.53 701.42,450.76C701.65,450.98 706.71,450.66 712.67,450.05C742.14,447 781.45,447.79 812.38,452.06C827.93,454.2 834.26,456.53 840.93,462.55C846.45,467.55 849.32,472.7 852.31,483C853.67,487.68 856.82,496.45 859.31,502.5C872.44,534.39 877.7,571.69 872.23,594C871.08,598.67 869.85,605.51 869.5,609.18C869.15,612.85 868.22,618.25 867.44,621.18C865.36,629.01 865.35,629 871.06,629C873.84,629 875.88,629.39 875.59,629.86C874.9,630.98 863.77,634.91 842,641.74L824.5,647.22L797.5,648.07C764.9,649.08 730.45,650.72 715.5,651.98C709.45,652.48 698.81,653.19 691.87,653.54L679.23,654.19L678.65,657.79C678.32,659.77 678.24,661.57 678.45,661.79C678.67,662 685.97,661.67 694.67,661.06C718.53,659.37 768.26,658.49 770.46,659.71C771.87,660.51 769.94,661.01 761.89,661.94C751.4,663.16 708.32,670.25 700,672.13C697.52,672.69 653.88,680.13 603,688.65C515.3,703.35 509.7,704.17 495,704.44C486.48,704.59 475.23,704.58 470,704.4ZM519.6,688.25C522.69,685.16 527.12,673.91 529.13,664.08C531.93,650.31 532.74,619 530.64,605.5C528.29,590.34 525.25,581.34 520.95,576.82C518.95,574.72 516.75,573 516.06,573C513.31,573 508.97,579.38 506.59,586.91C496.08,620.16 497.34,674.15 508.9,686.75C512.31,690.47 516.77,691.09 519.6,688.25ZM268.9,679.52C290.76,677.14 322.48,674.25 351.5,671.98C366.35,670.82 379.48,669.68 380.69,669.43L382.87,668.99L380.69,664.14L378.5,659.29L366,658.65C359.12,658.3 331.63,658.01 304.9,658L256.3,658L254.57,664.36C253.63,667.86 251.78,673.04 250.47,675.86L248.09,681L251.7,681C253.68,681 261.42,680.33 268.9,679.52ZM509.37,673.99C503.47,665.07 500.69,641.5 502.95,619.56C504.37,605.79 506.68,597.47 510.94,590.75C514.4,585.3 516.84,584.71 519.89,588.58C528.32,599.31 531.34,633.27 526.1,658.58C523.31,672.07 519.88,678 514.86,678C512.66,678 511.43,677.1 509.37,673.99ZM459.34,664.25C459,661.64 458.67,659.45 458.61,659.39C458.55,659.32 452.54,659.02 445.25,658.71C435.35,658.29 432,658.45 432,659.34C432,659.99 431.12,662.18 430.04,664.19C428.6,666.87 428.4,667.99 429.29,668.35C429.95,668.62 437.13,668.88 445.23,668.92L459.96,669L459.34,664.25ZM666.32,662.77C672.37,650.41 674.62,608.46 670.2,590.69C667.35,579.22 666.55,577.8 663.18,578.19C660.89,578.46 660.19,579.39 658.3,584.7C651.66,603.37 651.16,645.54 657.4,660.42C660.66,668.2 663.33,668.9 666.32,662.77ZM616.48,664.25C614.54,659.62 612,650.55 612,648.28C612,645.76 611.96,645.75 605.75,646.44C602.31,646.82 589.83,648.68 578,650.58C566.17,652.47 553.35,654.51 549.5,655.11C541.14,656.42 540,657.2 540,661.61L540,664.97L573.25,665.25C591.54,665.4 608.91,665.63 611.86,665.76C616.62,665.97 617.13,665.81 616.48,664.25ZM518.5,658C520.36,654.4 522.99,638.86 522.99,631.5C522.98,619.58 518.56,602.32 515.23,601.24C513.33,600.61 509.98,609.1 508.28,618.9C505.69,633.69 507.77,656.23 512.14,660.92C514.45,663.4 516.1,662.65 518.5,658ZM660.72,655.57C657.38,652.24 655.81,644.06 655.26,627.21C654.7,609.59 655.85,598.54 659.03,591.25C661.03,586.68 662.8,585.97 665.2,588.75C667.66,591.59 668.9,596.53 670.06,608.18C671.86,626.21 668.99,649.08 664.18,655.02C662.5,657.09 662.27,657.13 660.72,655.57ZM479.9,644.08C482.87,643.49 485.9,642.5 486.62,641.9C488.12,640.66 488.24,639.97 490.51,620.12C492.04,606.71 497.83,580.25 501.47,570.04L503.06,565.57L490.28,552.82L477.5,540.06L471.5,543C468.07,544.68 461,546.8 455,547.96C444.04,550.06 412.34,554.49 400.1,555.63C393.43,556.25 393,556.17 393,554.27C393,550.14 403.18,527.21 408.75,518.8C410.15,516.69 411.11,514.81 410.9,514.62C410.68,514.43 407.78,514.49 404.47,514.74L398.43,515.21L388.91,532.34C377.96,552.06 375.88,554.11 364.5,556.45C350.97,559.23 325.09,560.31 287.5,559.67C231.3,558.7 226.03,557.64 220.39,546.18C218.68,542.7 216.28,535.5 215.05,530.18C211.57,514.99 211.84,515.54 207.67,515.19C203.05,514.8 203.06,514.42 206.97,537.17C208.81,547.84 209.59,554.81 209.01,555.39C207.73,556.67 182.99,551.74 171.7,547.95C166.76,546.3 162.63,545.07 162.51,545.22C160.86,547.38 159.74,555.47 159.28,568.68L158.71,584.85L162.6,585.51C173.4,587.32 184.74,591.84 188.25,595.72C190.25,597.94 193.52,605.7 198.98,621.2L202.79,632L199.44,632C193.71,632 172.78,629.01 166.72,627.33C163.55,626.44 160.69,625.98 160.37,626.29C159.15,627.51 161.35,635.44 163.5,637.59C164.75,638.84 167.51,640.32 169.64,640.88C175.49,642.43 202.89,643.98 226.98,644.13C238.82,644.2 257.05,644.56 267.5,644.91C299.21,646.01 473.76,645.32 479.9,644.08ZM513,640.01C511.8,635.54 512.49,622.44 514.06,619.9C514.73,618.82 515.18,618.78 516.12,619.72C517.92,621.52 517.46,640.97 515.58,642.85C514.34,644.09 514,643.7 513,640.01ZM664.26,640.43C665.82,635.14 666.17,611.96 664.78,605.58C663.16,598.07 661.4,597.33 660.32,603.69C659.27,609.82 659.25,637.6 660.29,641.32C661.25,644.78 663.1,644.37 664.26,640.43ZM571.5,639.54C584.7,637.63 605.82,634.48 618.43,632.54C631.05,630.59 641.62,628.99 641.93,628.98C644.31,628.92 645.21,625.88 646.99,611.94C648.08,603.45 648.98,596.03 648.98,595.45C648.99,594.84 647.55,594.57 645.53,594.81C641.57,595.27 641.79,594.64 639.6,611.81C638.88,617.48 637.88,622.51 637.39,623C636.3,624.07 625.78,625.79 585,631.57C567.67,634.02 552.15,636.28 550.5,636.58L547.5,637.13L547.5,606.81C547.5,567.89 545.8,555.12 538.52,539.35C535.05,531.83 528.5,523.83 523.85,521.42C515.16,516.93 504.85,522.57 497.36,535.91C495.79,538.71 494.16,541 493.75,541C490.57,541 496.89,527.89 503.31,521.16C510.43,513.71 519.61,511.89 526.52,516.58L530.32,519.16L529.65,501.43C529.28,491.68 528.7,481.3 528.35,478.35L527.72,473L523.48,473C517.28,473 516.64,471.71 517.23,460.43C517.65,452.38 517.5,450.98 516.28,451.45C515.48,451.75 512.41,452.29 509.46,452.63C504.71,453.19 503.82,453.68 501.68,456.88C500.36,458.87 495.39,465.68 490.64,472C485.89,478.32 482.01,483.84 482,484.25C482,484.66 482.92,485 484.05,485C496.15,485 497.32,503.58 486.6,525.47L482.28,534.29L493.81,546.65C500.16,553.44 505.46,559 505.58,559C505.71,559 506.96,557.04 508.37,554.64C519.77,535.19 534.73,543.13 542.24,572.62C544.35,580.9 544.5,583.59 544.5,612.25C544.5,638.92 544.7,643 546,643C546.83,643 558.3,641.44 571.5,639.54ZM694,639.49C699.67,638.51 717.12,637.65 746.5,636.9C770.7,636.28 790.6,635.69 790.72,635.59C790.84,635.48 790.58,634.07 790.15,632.45L789.36,629.5L708.84,628.98L704.88,632.37C700.67,635.97 691.94,639 685.74,639C683.75,639 681.84,639.45 681.5,640C680.66,641.36 683.94,641.23 694,639.49ZM249,637.01C225.7,636.34 222.4,635.64 216.65,630.2C212.45,626.21 200.79,601.87 202.34,600.32C202.68,599.99 204.2,599.75 205.73,599.78C207.25,599.82 249.9,600.22 300.5,600.68L392.5,601.5L392.23,604.91C391.85,609.56 385.09,623.69 381.02,628.33C375.9,634.16 371.08,636.12 359.55,637.08C348.33,638.01 282.08,637.97 249,637.01ZM397.75,635.32C396.79,635.06 396,634.54 396,634.15C396,633.76 399.31,626.71 403.35,618.47C411.13,602.63 414.04,598.8 420.5,595.92C426.58,593.2 444.49,589.84 453.82,589.66L462.14,589.5L465.46,593.11C470.64,598.76 472.25,608.43 469.52,617.61C467.77,623.52 464.07,627.36 458.1,629.46C452.56,631.42 435.02,633.7 419.5,634.47C412.9,634.81 405.7,635.24 403.5,635.43C401.3,635.63 398.71,635.58 397.75,635.32ZM823.84,619.14C824.83,605.17 823.65,587.04 821.52,583.32L819.9,580.5L820.49,585C822.7,601.89 823.03,618.68 821.27,626C820.68,628.49 820.67,628.49 819.96,625.5C819.56,623.85 819.14,615.75 819.02,607.5C818.84,595.26 818.62,593.24 817.81,596.5C816.6,601.39 817.54,626.9 819.15,632.5L820.29,636.5L821.69,633.14C822.46,631.3 823.43,625 823.84,619.14ZM562.07,629.44C567.81,628.59 572.92,627.47 573.43,626.97C574.63,625.77 575.83,617.19 575.93,609.16L576,602.82L567.25,603.46C562.44,603.81 556.81,604.34 554.75,604.64L551,605.18L551,618.09C551,625.19 551.15,631 551.32,631C551.5,631 556.34,630.3 562.07,629.44ZM369.5,625.27C371.56,624.59 350.37,624.09 302,623.66C263.23,623.32 229.36,622.76 226.75,622.42C221.32,621.71 219.96,623.56 225.25,624.46C239.35,626.87 362.5,627.56 369.5,625.27ZM611.31,621.88C629.67,619.16 633.28,618.35 634.13,616.76C634.68,615.72 635.4,610.85 635.72,605.94C636.22,598.19 636.08,597 634.7,597C633.83,597 624.65,597.87 614.31,598.93C603.96,600 592.3,601.16 588.39,601.52L581.28,602.17L580.22,613.82C579.64,620.22 579.34,625.74 579.56,626.1C579.78,626.45 582.1,626.37 584.73,625.92C587.35,625.48 599.31,623.66 611.31,621.88ZM447.7,622.04C455.37,617.36 455.94,606.58 448.78,601.56C445.93,599.56 437.8,599.54 433.97,601.52C426.53,605.36 426.09,617.45 433.22,622.44C436.34,624.62 443.8,624.42 447.7,622.04ZM858.89,603.5C858.93,594.7 858.53,586.83 858,586C857.36,585.01 857.06,591.25 857.11,604.5C857.16,616.06 857.54,623.44 858,622C858.44,620.62 858.84,612.3 858.89,603.5ZM182.25,616.88C185.43,613.51 185.81,609.5 183.41,604.46C177.61,592.23 161.25,597.67 163.51,611.07C165.08,620.36 175.82,623.7 182.25,616.88ZM435.78,619.44C430.34,616.49 429.58,611.62 433.8,606.89C440.56,599.33 453.11,605.66 449.85,614.99C448,620.3 441.28,622.43 435.78,619.44ZM687.18,616.5C688.11,615.4 689.87,610.9 691.09,606.5C693.22,598.79 693.29,596.99 693.13,557C692.96,515.65 691.93,484.75 689.93,461C687.81,435.84 682.16,395.19 679.99,389.48C678.92,386.66 671.18,382.98 646.14,373.41C635.5,369.33 626.66,366 626.5,366C626.35,366 626.97,368.98 627.89,372.62L629.56,379.24L649.03,385.96C675.57,395.13 676.87,395.9 678.86,403.5C681.69,414.34 687.27,457.86 687.4,470.08C687.51,480.17 686.26,484.46 682.93,485.52C681.36,486.02 652.75,482.84 645.6,481.37L642.7,480.77L643.41,493.61C643.8,500.68 644.21,506.53 644.31,506.62C644.41,506.71 653.5,507.31 664.5,507.96C689.59,509.43 689,509.31 689,512.91C689,514.49 688.44,516 687.75,516.25C687.06,516.51 678.62,516.36 669,515.92C659.38,515.48 649.7,515.09 647.5,515.06L643.5,515L643.5,533.75C643.5,544.06 643.15,560.71 642.73,570.75L641.96,589L645.73,589L649.5,588.99L651.81,578.39C654.86,564.32 657.63,557.19 661.56,553.25C665.3,549.5 667.7,549.19 671.28,552C678.1,557.37 681.03,570.69 681.62,599C681.85,610.27 682.04,619.89 682.02,620.37C682,621.41 684.78,619.32 687.18,616.5ZM803.22,617.33C806.35,616.95 808.11,616.2 808.44,615.12C808.72,614.23 809.64,607.65 810.5,600.5C811.35,593.35 812.81,583.76 813.75,579.18L815.44,570.87L811.47,567.47C809.29,565.6 807.27,564.06 807,564.04C806.72,564.02 805.41,566.05 804.08,568.55C800.17,575.93 798.31,576.74 782.43,577.94C764.76,579.27 755.68,579.28 754.36,577.96C753.65,577.25 751.91,577.24 748.87,577.92C746.43,578.46 737.69,579.18 729.46,579.5C721.23,579.82 712.14,580.32 709.25,580.61L704,581.14L704,593.97L731.25,594.23L758.5,594.5L758.8,598.08C759.32,604.33 756.69,606.33 746.86,607.15C742.26,607.53 730.17,607.89 720,607.95C705.86,608.03 701.95,608.32 703.42,609.18C706.3,610.85 750.94,609.56 763,607.46C773.76,605.59 778.05,603.35 768.76,604.46L763.03,605.14L765.66,601.12C768.51,596.76 768.18,596.88 786.41,593.48C797.12,591.48 799.25,592.13 802.03,598.25C805.54,605.99 805.17,606.57 795.25,608.84C786.52,610.84 768.18,613.18 762.5,613.02C760.85,612.97 755.67,613.37 751,613.9C746.33,614.44 732.9,614.9 721.17,614.94C704.57,614.99 699.93,615.28 700.25,616.25C700.95,618.37 787.47,619.27 803.22,617.33ZM169.69,615.89C166.88,614.25 165.77,610.24 167.05,606.35C169.54,598.8 179.16,599.03 182.08,606.72C183.38,610.13 183.3,610.49 180.41,613.92C177.66,617.19 173.31,617.99 169.69,615.89ZM443.43,615.43C445.43,613.43 445.41,612.11 443.35,609.83C440.33,606.5 436,608.16 436,612.65C436,616.46 440.65,618.2 443.43,615.43ZM375.74,613.37C376.97,613.04 377.77,612.43 377.51,612.02C377.26,611.61 340.48,611.19 295.79,611.1C235.11,610.98 214.82,611.22 215.67,612.07C217.86,614.26 367.91,615.48 375.74,613.37ZM176.91,610.75C178,607.89 176.53,605 173.98,605C172.74,605 171.81,605.91 171.41,607.51C170.23,612.2 175.25,615.15 176.91,610.75ZM839.79,610.35C847.05,608.57 849,607.52 849,605.38C849,603.51 846.92,603.64 838.86,606.04C833.41,607.66 832,608.49 832,610.04C832,612.4 831.54,612.38 839.79,610.35ZM790.8,604.8C793.72,601.88 790.98,598.24 786.86,599.54C783.77,600.53 785.16,606 788.5,606C789.11,606 790.14,605.46 790.8,604.8ZM684.16,597C683.87,587 681.56,568.11 679.6,559.73C678,552.87 675.36,546.8 671.76,541.69C669.24,538.11 670.27,536.97 673.38,539.89C679.11,545.27 684.95,563.32 684.98,575.75L685,582L688.57,582C691.7,582 692.1,582.28 691.82,584.24C691.59,585.85 690.65,586.63 688.5,587L685.5,587.51L684.94,596.01L684.37,604.5L684.16,597ZM839.7,600.6C851.29,596.66 850.5,597.75 852.41,583.29C854.19,569.82 855.35,564.47 857.01,562C857.86,560.73 858.31,560.88 859.99,563C861.79,565.29 861.96,565.33 861.96,563.5C861.96,560.73 859.09,540.76 858.62,540.29C858.41,540.07 854.93,541.42 850.9,543.28L843.55,546.66L843.49,565.4L843.42,584.14L846.71,583.53C849.46,583.01 850,583.21 850,584.75C850,585.96 848.89,586.91 846.75,587.54C843.82,588.41 843.47,588.92 843.19,592.75C843.01,595.3 842.39,597 841.64,597C840.8,597 840.54,595.82 840.83,593.37L841.25,589.73L837.63,590.41C834.47,591 834,590.84 834,589.16C834,587.75 834.92,587.05 837.38,586.59L840.76,585.95L841.42,575.73C841.78,570.1 841.98,561.56 841.85,556.74C841.6,546.92 841.82,547.08 833.79,551.13C829.18,553.46 829,553.45 829,551.02C829,549.65 830.52,548.26 833.91,546.54C837.75,544.6 838.72,543.64 838.33,542.14C837.63,539.48 839.85,538.41 841.46,540.62C842.72,542.34 843.05,542.27 847.81,539.31C850.57,537.59 853.77,535.89 854.91,535.53C857.32,534.76 857.39,534.41 855.9,530.15C854.59,526.38 853.44,526.13 852.61,529.42C851.9,532.25 846.96,534.35 837.01,536.06C827.92,537.62 823.72,539.51 824.37,541.73C828.99,557.5 831.96,576.82 831.98,591.25C831.99,597.71 832.15,603 832.32,603C832.5,603 835.82,601.92 839.7,600.6ZM571.52,596.34L575.89,595.74L576.69,590.12C577.75,582.75 577.74,479.45 576.68,470.86C576,465.36 575.58,464.3 574.18,464.65C573.26,464.89 567.55,465.71 561.5,466.48C555.45,467.26 547.58,468.62 544,469.52C540.42,470.42 536.49,471.35 535.25,471.6C532.53,472.13 532.5,473.02 534.08,503.62L535.16,524.5L538.94,530.5C547.31,543.78 549.9,554.55 550.7,579.38L551.3,598.26L559.23,597.6C563.59,597.24 569.12,596.67 571.52,596.34ZM613,591.65L636.5,589.43L637.23,582.97C638.18,574.48 638.7,516.39 637.83,515.51C637.46,515.13 626.88,514.4 614.33,513.88C583.73,512.63 585,512.89 585,507.82L585,503.72L590.25,504.34C593.14,504.68 605.06,505.26 616.75,505.63L638,506.32L638,499.3C638,495.45 637.72,489.61 637.38,486.32L636.75,480.35L619.13,478.16C609.43,476.96 600.32,475.98 598.88,475.99C595.03,476.01 591.04,472.34 588.38,466.34C586.12,461.22 585.94,461.07 583.48,462.19L580.92,463.36L581.71,478.43C582.14,486.72 582.45,516.33 582.39,544.24L582.29,594.98L585.89,594.42C587.88,594.11 600.08,592.87 613,591.65ZM244.86,585.02C210.44,584.28 211.54,584.58 207.81,574.8L205.4,568.5L198.95,567.78C187.66,566.51 171.82,563.84 166.83,562.36C162.47,561.06 162,560.64 162,557.96C162,556.33 162.19,555 162.42,555C162.65,555 166.59,555.89 171.17,556.97C187.47,560.82 199.54,562.09 229,563.04C287.61,564.94 382.61,564.05 450.42,560.99C462.47,560.44 472.56,560.22 472.83,560.5C473.87,561.54 472.08,561.97 460.45,563.45C439.65,566.1 426.98,567 410,567.01C400.93,567.02 392.87,567.43 392.11,567.91C391.34,568.4 389.32,571.39 387.61,574.57C382.27,584.5 382.59,584.4 354.68,585.14C325.49,585.92 284.89,585.88 244.86,585.02ZM849.51,577.3C851.63,565 853,551.94 852.48,548.88C852.11,546.68 852.29,544.94 852.93,544.54C854.52,543.56 854.23,558.16 852.5,566C851.71,569.58 851.05,573.94 851.04,575.69C851.02,577.45 850.56,579.16 850.02,579.49C849.42,579.86 849.22,578.99 849.51,577.3ZM345.9,577.02C360.97,576.51 373.66,575.74 374.1,575.3C374.54,574.86 345.56,574.47 309.7,574.43C273.84,574.4 238.54,574.02 231.25,573.59C222.52,573.08 218,573.16 218,573.82C218,576.89 293.5,578.77 345.9,577.02ZM743.1,572.98C745.05,572.44 747.71,570.88 749,569.5C751.9,566.42 751.27,566.37 745.78,569.25C741.89,571.29 739.9,571.53 724,571.78C705.41,572.08 703.46,572.32 704.59,574.14C705.44,575.52 737.39,574.56 743.1,572.98ZM789.73,572.4C792.52,572.06 794.48,571.15 795.47,569.74C797.82,566.38 800.35,557.95 799.31,556.91C797.04,554.64 765.87,563.38 762.17,567.32C758.85,570.85 759.42,572 764.5,572C767.03,572 769,572.47 769,573.07C769,574.09 778.48,573.79 789.73,572.4ZM819,564.5C819.68,563.67 821.57,563 823.19,563C825.77,563 826.05,562.72 825.48,560.75C825.12,559.51 824,557.32 822.98,555.88C821.71,554.08 821.46,552.94 822.17,552.23C823.13,551.27 822.43,543 821.39,543C821.16,543 818.42,544.35 815.32,546.01C812.22,547.66 809.42,548.74 809.09,548.41C808.77,548.07 810.47,546.04 812.88,543.9L817.27,539.99L817.1,509.74C816.94,480.04 817.47,473.59 820.23,471.84C822.56,470.36 827.62,470.98 832.23,473.31L836.8,475.63L835.29,473.32C832.73,469.41 815.21,461.93 814.9,464.62C814.85,465.11 814.65,480.35 814.47,498.5C814.29,516.65 814.11,532.47 814.07,533.66C814.03,534.85 811.69,538.58 808.88,541.96C806.06,545.33 803.92,548.23 804.13,548.41C804.33,548.58 805.51,549.26 806.75,549.9C808.61,550.87 809,551.91 809,555.88C809,560.28 809.31,560.9 812.74,563.34C817.09,566.44 817.35,566.49 819,564.5ZM763.12,552.51C768.22,547.14 772.11,544.1 776.87,541.76L783.5,538.5L704,538.5L704,548.67C704,555.86 704.37,558.98 705.25,559.34C705.94,559.62 717.64,559.88 731.25,559.92L756.01,560L763.12,552.51ZM784,552.87C795.89,549.78 796.76,549.38 801.84,544.58C804.77,541.81 807.63,538.69 808.2,537.63C809.17,535.81 808.88,535.74 802.21,536.22C792.11,536.94 780.97,542.4 771.25,551.39C767.7,554.67 766.91,557.45 769.75,556.63C770.71,556.35 777.12,554.66 784,552.87ZM353.59,548.02C364.99,547.13 371.98,545.64 370.71,544.38C370.41,544.07 354.7,544.33 335.82,544.96C303.61,546.03 293.85,545.97 247.03,544.39C230.45,543.83 228.69,543.92 229.84,545.31C231.33,547.1 237.04,547.83 259,549.01C277.26,550 336.28,549.38 353.59,548.02ZM199.46,540.25C198.29,530.31 195.24,516.31 193.42,512.48C190.36,506.03 175.33,495.65 172.48,498.02C168.88,501 164.02,526 165.77,532.5C166.84,536.48 172.41,539.22 187.1,542.99C193.37,544.59 198.87,545.93 199.32,545.95C199.77,545.98 199.84,543.41 199.46,540.25ZM427,543.07C434.98,541.94 445.1,540.53 449.5,539.93C469.22,537.26 470.59,536.38 477.91,521.75C483.97,509.65 486.68,499.87 485.1,495.75C483.84,492.46 483.89,492.46 471.13,495.02C449.69,499.32 428.91,507.93 421.46,515.59C417.05,520.13 406,540.64 406,544.29C406,545.92 406.51,546.14 409.25,545.67C411.04,545.37 419.02,544.19 427,543.07ZM411.22,540.71C412.17,539.95 421.84,537.85 432.72,536.05C443.6,534.24 454.9,531.87 457.84,530.78C462.81,528.93 463.39,528.35 466.09,522.64C467.69,519.26 469,515.77 469,514.87C469,512.09 466.47,510.82 462.43,511.58C457.02,512.59 458.88,510.55 464.72,509.05C471.86,507.23 474,506.2 474,504.59C474,502.16 470.61,501.86 462.47,503.54C453.34,505.42 448.3,507.32 435.92,513.54C430.88,516.07 425.6,518.58 424.18,519.12L421.6,520.1L423.55,517.94C429.47,511.39 468.47,497.26 478.11,498.18C481.22,498.47 481.47,498.74 481.15,501.46C480.12,510.23 470.92,529.63 466.36,532.66C465.19,533.44 460.24,534.72 455.36,535.5C436.62,538.51 420.28,540.94 415,541.5C410.21,542.01 409.72,541.91 411.22,540.71ZM182.23,537.95C172.33,535.39 168.3,533.34 167.59,530.49C166.5,526.17 170.7,503.91 173.03,501.57C174.29,500.31 178.28,502.54 183.92,507.65C189.36,512.59 189.01,514.25 183.42,510.02C181.26,508.39 178.73,507.04 177.8,507.03C175.6,506.99 174.08,512.13 173.31,522.14C172.76,529.4 172.85,529.85 175.11,531.33C176.43,532.18 181.44,533.86 186.25,535.06C191.96,536.49 195,537.72 195,538.62C195,540.47 191.2,540.27 182.23,537.95ZM353,535.45C374.23,534.85 377.6,534.49 378.29,532.69C378.64,531.78 360.88,531.5 302,531.5C240.73,531.5 225.35,531.75 225.74,532.76C226.49,534.73 228.81,534.96 257,535.88C282.66,536.72 312.57,536.59 353,535.45ZM727.5,529.33C724.2,528.5 719.29,527.53 716.58,527.16C713.79,526.79 711.47,525.91 711.21,525.13C710.37,522.61 739.05,524.2 754,527.49C766.49,530.24 766.52,530.25 786.38,529.19C798.27,528.56 806.71,527.69 807.38,527.02C808.12,526.29 808.6,518.56 808.8,504.48L809.11,483.07L806.8,482.59C794.6,480.05 734.53,478.04 713.59,479.47L702.72,480.21L703.37,492.86C703.72,499.81 704.3,510.74 704.64,517.15L705.27,528.81L715.39,529.76C720.95,530.28 727.3,530.73 729.5,530.77C733.2,530.83 733.06,530.72 727.5,529.33ZM844.25,527.87C847.43,527.07 848,526.51 847.98,524.21C847.96,520.44 846.89,519.12 842.94,517.98C838.02,516.57 833.43,516.77 832.04,518.45C830.66,520.11 827.93,528.6 828.57,529.24C829.22,529.89 840.02,528.95 844.25,527.87ZM377.75,521.38C383.92,520.96 386,520.46 386,519.41C386,518.21 374.01,518 304.75,518.02C260.06,518.02 222.89,518.42 222.14,518.89C219.07,520.84 224.34,521.52 247,522.1C273.12,522.77 364.87,522.27 377.75,521.38ZM849.12,511.33C847.94,509.3 847.66,509.95 848.62,512.46C848.97,513.36 849.46,513.88 849.72,513.62C849.97,513.36 849.71,512.33 849.12,511.33ZM827.82,511.91C830.85,510.86 830.92,510.7 830.31,506.16C829.97,503.6 828.74,496.81 827.59,491.07C825.01,478.22 823,476.55 823,487.26C823,494.4 824.08,513 824.5,513C824.61,513 826.1,512.51 827.82,511.91ZM568.75,510.75C567.48,509.77 566.98,506.79 566.44,496.92C565.65,482.49 566.38,479.68 570.82,480.19C573.16,480.46 573.58,481.07 574.18,485C574.55,487.48 574.89,493.86 574.93,499.18C574.98,506.72 574.65,509.2 573.43,510.43C571.53,512.33 570.87,512.37 568.75,510.75ZM842,508.75C842,502.65 834.92,481.75 833.38,483.29C833.12,483.55 834.06,488.73 835.46,494.81C836.85,500.88 838,506.75 838,507.84C838,509.63 839.13,510.7 841.25,510.92C841.66,510.96 842,509.99 842,508.75ZM400.66,501.05C413.59,487.09 433.67,472.84 458.5,460.04L464.5,456.94L355.5,457.48C295.55,457.78 238.02,458.29 227.65,458.63L208.8,459.24L209.45,464.87C210.12,470.61 214.65,500.26 215.62,505.25L216.16,508L394.23,508L400.66,501.05ZM209,505.75C209.01,504.64 205.74,474.7 204.33,463L203.79,458.5L200.31,462.5C198.4,464.7 193.38,471.61 189.17,477.86L181.5,489.23L184.99,491.86C186.91,493.31 191.5,497.31 195.2,500.75C200.82,505.97 202.5,507 205.46,507C207.62,507 209,506.51 209,505.75ZM427.67,500.28C438.84,494.55 457.57,487.72 466.67,486.07C470.81,485.32 472.93,484.37 474,482.79C474.82,481.57 479.66,475.28 484.75,468.8C489.84,462.33 494,456.66 494,456.21C494,454.5 478.65,457.05 472.6,459.76C461.19,464.87 442.61,475.06 433.04,481.43C422.84,488.22 405,503.44 405,505.35C405,506.15 406.91,506.35 411.25,506C416.23,505.6 419.56,504.44 427.67,500.28ZM680.32,474.6C681.65,471.13 675.21,419.01 671.96,406.85C670.83,402.67 670.89,402.7 648.15,394.82C640.26,392.09 633.58,390.08 633.31,390.36C633.03,390.64 633.73,396.18 634.87,402.68C636.84,413.99 641.04,446.59 642.71,463.5L643.5,471.5L658.5,473.65C676.93,476.28 679.63,476.4 680.32,474.6ZM808.23,469.25C808.47,466.64 808.41,464.2 808.08,463.84C804.7,460.04 709.07,459.25 703.05,462.97C702.13,463.54 701.94,464.88 702.42,467.41L703.1,471.03L725.3,470.38C746.39,469.76 784.19,471.09 798.5,472.96C801.8,473.39 805.24,473.8 806.15,473.87C807.41,473.97 807.9,472.89 808.23,469.25ZM633.99,469.25C633.77,455.99 625.35,387.96 623.73,386.41C623.23,385.93 587.06,374.17 584.06,373.51C580.9,372.82 580.88,372.84 581.43,376.16C583.76,390.13 585.13,399.13 586.51,409.5C587.39,416.1 589.01,424.18 590.12,427.46C591.38,431.18 592.44,437.94 592.94,445.46C593.82,458.81 595.55,464.4 599.16,465.55C602.44,466.6 624.62,469.73 629.75,469.88C632.09,469.95 633.99,469.66 633.99,469.25ZM552.97,456.92C571.07,455.92 579.22,454.67 580.83,452.66C583.69,449.1 582.6,435.15 579.19,431.74C577.12,429.68 564.61,427.09 556.4,427.03C549.48,426.99 548.2,428.62 546.73,439.38L545.56,448L538.28,448C530.23,448 530.41,447.8 531.65,455.3C532.13,458.23 532.64,458.97 533.86,458.5C534.73,458.17 543.33,457.46 552.97,456.92ZM193.86,451.57C197.17,447.19 198.18,444.79 199.11,439.14C200.8,428.94 200.53,428.6 191.32,429.29C181.42,430.04 180.18,431.23 178.84,441.28C177.51,451.26 178.69,454.03 185.01,455.67C187.48,456.31 189.56,456.88 189.63,456.92C189.7,456.96 191.6,454.56 193.86,451.57ZM272.82,447.88C270.24,447.38 257.87,446.64 245.32,446.24C226.56,445.63 222.5,445.25 222.5,444.07C222.5,442.15 225.76,441.39 244.02,439.06C259.45,437.09 259.66,437.09 273.03,439.01C285.51,440.81 308.43,444.77 319,446.95C325.74,448.34 402.01,448.24 399.6,446.84C398.4,446.14 383.44,445.37 358.6,444.74C337.1,444.18 319.3,443.56 319.07,443.35C317.7,442.14 322.16,440.98 336,438.91C359.32,435.43 381.81,435.59 405.5,439.39C415.4,440.98 426.43,443.23 430,444.39C435.9,446.3 438.64,446.49 459.5,446.39C479.29,446.3 483.27,446.03 488,444.39C496.6,441.43 495.81,443.79 510.48,377.32C512.56,367.87 514.02,359.5 513.72,358.72C512.47,355.45 465.93,353.6 403.5,354.34C352.29,354.95 335.48,355.59 292,358.58C268.99,360.17 268.44,360.25 265.64,362.85C257.62,370.27 224.82,425 217.64,442.93C216.16,446.65 216.16,447 217.77,447.93C218.83,448.55 230.7,448.91 248.5,448.86C268.7,448.8 276.08,448.5 272.82,447.88ZM519.29,442.5C520.85,430.65 525.17,405.17 528.61,387.5C532.61,366.94 536,358.09 540.81,355.6C545.23,353.31 551.05,352.67 555.75,353.93C559.36,354.9 560.06,355.56 560.98,358.78C563.16,366.46 569,406.71 569,414.03C569,415.91 569.71,417.31 571,418C572.79,418.96 573,418.76 573,416.09C573,414.45 572.32,407.79 571.49,401.3C567.41,369.49 561.93,343.57 558.96,341.98C555.92,340.35 545.63,339.14 543.67,340.18C542.66,340.72 540.53,343.93 538.92,347.33C535.51,354.53 535.2,353.72 537.99,344.84C539.08,341.35 539.98,338.39 539.99,338.25C539.99,338.11 539.27,338 538.38,338C537.09,338 537,337.71 537.93,336.59C539.62,334.55 548.44,332.68 553.59,333.26C558.9,333.86 559.13,332.96 555.61,325.4C552.95,319.7 551.82,319 545.26,319C541.27,319 540.23,319.48 537.07,322.8C531.86,328.29 529.26,337.67 519.48,386.5C514.85,409.6 510.1,432.1 508.93,436.5C505.17,450.55 504.81,449.15 512.12,448.8L518.49,448.5L519.29,442.5ZM531.99,432.25C531.98,420.35 530.81,407.69 529.86,409.19C528.88,410.74 528.72,428.71 529.64,435.36C530.63,442.61 532,440.81 531.99,432.25ZM225.96,435.06C230.99,427.99 251.31,411.68 269,400.5C279.19,394.05 305.01,380.91 322.77,373.11C338.25,366.32 354.88,361.14 366.42,359.53C380.53,357.56 384.12,357.61 378,359.69C346,370.58 326.82,378.21 305,388.71C275.95,402.69 247.41,419.8 231.24,432.92C227.8,435.71 224.74,438 224.43,438C224.12,438 224.81,436.68 225.96,435.06ZM545.16,419.69C546.97,418.37 550.08,417.58 554.91,417.24L562,416.73L562,413.68C562,408.67 558.02,375.93 556.7,370C555.49,364.6 555.39,364.49 551.66,364.19C544.4,363.58 538.94,369.99 536.42,382.06C535.02,388.76 535.02,390.51 536.44,400.17C537.3,406.05 538,413.31 538,416.31C538,419.3 538.28,423.16 538.63,424.88L539.25,428L540.88,424.82C541.77,423.07 543.7,420.77 545.16,419.69ZM580.41,416.75C580.15,414.96 578.61,404.75 576.97,394.05C573.45,370.99 573.35,368.1 575.99,364.74C578.5,361.55 579.08,361.67 604.33,370.45C614.69,374.05 623.35,377 623.58,377C624.36,377 624,373.05 622.83,368.65C621.51,363.72 624.06,365.01 595.5,354.83C573.57,347.01 564.68,343.99 564.41,344.26C564.27,344.4 565.44,349.76 567,356.18C570.07,368.75 572.93,385.11 575.55,405C577.51,419.9 577.54,420 579.41,420C580.49,420 580.75,419.15 580.41,416.75ZM676.49,377.75C675.55,374.49 670.91,367.99 667.94,365.79C664.19,363.01 621.38,346.29 620.43,347.23C620.18,347.48 621.02,350.06 622.3,352.95L624.62,358.21L649.04,368.14C662.47,373.6 673.9,378.5 674.43,379.03C676.12,380.72 677.16,380.08 676.49,377.75ZM619.47,353.75C617.07,345.58 616.19,344.83 602.5,339.31C585.88,332.61 559.65,323.01 559.2,323.47C559,323.67 559.63,326.34 560.6,329.41C562.61,335.78 559,333.86 590.5,345.36C600.4,348.97 610.75,352.82 613.5,353.92C619.9,356.46 620.27,356.45 619.47,353.75ZM278.69,350.5C282.62,349.33 284.29,348.16 286.27,345.17C287.66,343.07 291.63,338.06 295.1,334.04C300.21,328.12 300.94,326.88 298.95,327.47C294.85,328.69 289.06,333.1 280.32,341.65C272.72,349.09 270.62,352 272.82,352C273.27,352 275.91,351.33 278.69,350.5ZM317.17,347.52C350.26,345.51 396.52,344.01 425.5,344.02C450.28,344.03 495.98,345.5 504.13,346.55L508.76,347.15L510.96,339.83C512.17,335.8 514.89,329.26 517.01,325.3L520.86,318.1L516.18,317.31C508.33,315.97 399.64,316.35 378.5,317.79C340.34,320.38 313.57,323.59 309.5,326.06C304.39,329.16 290,345.46 290,348.14C290,349.23 288.55,349.26 317.17,347.52ZM520.67,339C522.02,334.32 524.87,327.69 527.02,324.25L530.93,318L527.51,318C524.39,318 523.79,318.52 520.53,324.09C516.5,330.97 512.35,343.86 513.34,346.43C513.73,347.47 514.82,348.02 516.11,347.82C517.84,347.56 518.68,345.94 520.67,339Z"/>
</svg>
