<?xml version="1.0" encoding="UTF-8" standalone="no"?>
<!DOCTYPE svg PUBLIC "-//W3C//DTD SVG 1.1//EN" "http://www.w3.org/Graphics/SVG/1.1/DTD/svg11.dtd">
<svg width="100%" height="100%" viewBox="0 0 1024 1024" version="1.1" xmlns="http://www.w3.org/2000/svg" xmlns:xlink="http://www.w3.org/1999/xlink" xml:space="preserve" xmlns:serif="http://www.serif.com/" style="fill-rule:evenodd;clip-rule:evenodd;stroke-linejoin:round;stroke-miterlimit:2;">
    <path d="M491,931.95C483.57,931.48 475.93,930.89 474,930.64C472.07,930.39 466.68,929.69 462,929.09C457.32,928.49 451.16,927.37 448.31,926.6C445.46,925.84 442.84,925.49 442.51,925.83C442.17,926.17 441.55,925.88 441.12,925.2C440.7,924.51 437.8,923.73 434.67,923.46C431.55,923.19 425.96,922.26 422.25,921.39C418.54,920.52 414.71,919.66 413.75,919.46C412.78,919.27 411.45,918.78 410.79,918.37C410.13,917.96 408.45,917.55 407.05,917.45C405.65,917.35 403.82,917 403,916.66C402.18,916.33 400.38,915.87 399,915.63C397.62,915.4 394.7,914.55 392.5,913.75C385.12,911.05 381.37,910 379.18,910C377.98,910 377,909.55 377,909C377,908.45 375.99,908 374.75,907.99C373.51,907.98 370.25,906.93 367.5,905.66C364.75,904.38 361.23,903.02 359.67,902.63C356.93,901.94 350.86,899.26 334.85,891.64C330.64,889.64 326.75,888 326.22,888C325.68,888 324.69,887.33 324.01,886.51C323.33,885.69 322.43,885.24 322.01,885.5C321.58,885.76 319.65,884.89 317.7,883.57C315.75,882.25 313.95,881.38 313.7,881.64C313.44,881.9 312.35,881 311.29,879.64C310.22,878.28 306.57,875.93 303.17,874.42C299.78,872.9 297,871.29 297,870.83C297,870.37 296.16,870 295.12,870C294.09,870 292.66,869.3 291.95,868.44C291.24,867.59 289.15,866.25 287.29,865.48C283.48,863.89 280.79,861.54 281.71,860.62C282.05,860.28 281.73,860 281,860C280.27,860 279.95,859.71 280.3,859.37C280.87,858.79 287.33,862.31 300,870.09C307.6,874.75 335.91,888.6 347,893.07C385.84,908.74 430.86,920.04 471,924.18C487.2,925.85 536.58,925.82 553.5,924.13C592.72,920.21 634.62,910.03 671.67,895.4C705.05,882.23 745.95,859.07 773,838.01C777.67,834.38 782.06,831.06 782.75,830.64C784.9,829.33 784.12,830.95 781.22,833.78C779.69,835.28 778.23,836.95 777.97,837.5C777.71,838.05 777.13,838.38 776.68,838.23C776.22,838.07 776.14,838.41 776.48,838.98C776.83,839.54 776.53,840.01 775.81,840.02C774.1,840.04 766.76,845.04 763.11,848.66C759.28,852.46 757.27,854 756.16,854C755.66,854 754.67,854.7 753.96,855.55C753.26,856.4 751.98,856.82 751.12,856.49C750.26,856.16 749.89,856.22 750.29,856.62C751.08,857.41 747.22,862 745.77,862C745.29,862 742.33,863.72 739.2,865.82C736.06,867.93 731.02,871.09 728,872.86C720.37,877.31 718.78,878.32 717.29,879.68C716.57,880.34 715.09,881.15 713.99,881.5C712.9,881.85 712,882.58 712,883.13C712,883.67 711.59,883.86 711.08,883.55C710.57,883.24 709.48,883.66 708.65,884.49C707.82,885.32 706.54,886 705.8,886C705.07,886 702.79,887.14 700.74,888.53C696.74,891.25 685.89,896.39 677,899.78C668.96,902.84 667.74,903.23 665.16,903.57C663.88,903.74 661.86,904.49 660.66,905.23C659.47,905.98 654.45,907.9 649.5,909.5C644.55,911.1 640.35,912.77 640.17,913.21C639.98,913.64 639.08,914.01 638.17,914.03C637.25,914.05 634.02,914.94 631,916C627.98,917.06 623.39,917.95 620.81,917.97C618.23,917.99 615.89,918.37 615.61,918.83C615.32,919.29 612.71,920.2 609.8,920.86C602.04,922.62 590.16,925.11 585,926.06C582.52,926.51 578.25,927.37 575.5,927.96C567.81,929.63 562.04,930.39 549,931.48C538.66,932.35 502.01,932.64 491,931.95ZM494,886L494,718L475.12,718L474.5,725.5L464.08,725.79C452.69,726.1 451.56,725.61 452.58,720.75L453.16,718L447.1,718C441.29,718 441.01,718.12 440.46,720.75C437.73,733.84 432.2,747.48 425.97,756.54C417.29,769.15 402.27,781.76 388.32,788.14C367.72,797.56 341.53,798.45 320.3,790.46C305.67,784.95 287.79,770.84 278.82,757.71C268.02,741.88 262.89,725.83 262.8,707.5C262.69,687.03 268.36,670.05 280.99,653.01C291.3,639.1 306.48,628.08 323,622.51L329.5,620.32L329.78,605.79L330.05,591.27L323.09,589.03C301.25,582.01 280.98,563.39 270.52,540.74C260.49,519.04 259.76,493.3 268.54,470.91C277.14,448.96 298.23,428.68 321.5,420C325.8,418.4 329.64,416.73 330.04,416.29C330.44,415.86 330.53,409.55 330.25,402.29L329.74,389.07L324.62,387.44C318.34,385.44 305.4,378.17 298,372.48C286.34,363.51 278.44,353.45 271.48,338.68C264.78,324.48 263.56,318.82 263.53,302C263.5,285.09 265.08,277.19 271.1,264.16C282.25,240.04 301.44,223.88 329.5,214.99C339.51,211.83 358.85,211.1 369.62,213.49C405.71,221.49 433.83,250.63 440.07,286.5L441.22,293.09L446.86,292.8C452.47,292.5 452.5,292.48 453,289L453.5,285.5L474.5,285.5L475.12,293L494,293L494,118L500,118L500.04,405.75C500.07,564.01 500.05,732.45 500,780.06C499.96,827.67 500.21,867.39 500.57,868.31C500.92,869.24 501.62,870 502.11,870C502.63,870 503.1,713.5 503.25,494.33C503.45,195.08 503.75,118.58 504.75,118.25C505.75,117.92 506.05,193.75 506.25,493.67C506.5,868.75 506.5,869.5 508.5,869.5C510.5,869.5 510.5,868.75 510.75,493.75C510.92,244.41 511.34,118 512,118C512.66,118 513,243.29 513,490.88C513,695.96 513.28,865.16 513.62,866.88C514.04,868.93 514.84,870 515.98,870C517.44,870 517.8,868.6 518.35,860.85C518.71,855.81 519,686.61 519,484.85C519,159.43 519.17,118 520.5,118C521.83,118 522,160.44 522,494C522,744 522.34,870 523,870C523.66,870 524,744 524,494L524,118L530,118L530,293.07L539.75,292.79L549.5,292.5L550.5,285.5L571.5,285.5L572.12,293L577.81,293L583.5,292.99L585.11,284.75C588.68,266.45 596.26,252.62 610.45,238.5C621.6,227.41 627.86,223.28 641.04,218.33C658.15,211.9 670.73,210.6 687.54,213.53C704.36,216.47 720.23,224.48 732.76,236.36C746.94,249.82 755.96,266.23 760.04,286C768.23,325.68 746.96,366.22 708.62,384.02C704.15,386.1 699.04,388.1 697.25,388.48L694,389.16L694,416.84L699.25,418.56C713.85,423.35 730.23,433.96 739.56,444.69C749.24,455.82 753.99,464.13 758.58,478C761.2,485.9 761.4,487.66 761.45,503C761.49,517.33 761.2,520.54 759.21,527.42C756.24,537.66 748.4,552.83 742.01,560.72C731.7,573.42 714.28,585.28 699.75,589.48L694,591.14L694,619.63L699.75,621.43C715.19,626.27 726.77,633.59 737.64,645.39C754.82,664.03 762.94,686.15 761.72,711C761.08,724.17 758.23,734.81 752.23,746.42C740.28,769.55 721.47,785.46 696.96,793.16C690.41,795.22 687.56,795.5 673.5,795.46C656.1,795.42 650.59,794.41 637.67,788.92C612.28,778.13 591.17,752.66 585.34,725.75L583.66,718L578.33,718C573.12,718 573,718.07 573,720.88C573,725.43 571.27,726.11 560.35,725.79L550.5,725.5L549.88,718L530,718L530,886L494,886ZM525,877.5C525,876.24 522.89,876 512,876C501.11,876 499,876.24 499,877.5C499,878.76 501.11,879 512,879C522.89,879 525,878.76 525,877.5ZM270,853.08C267.52,851.49 263.93,848.8 262,847.08C259.02,844.44 259.47,844.6 265,848.15C272.84,853.19 276.58,856.01 275.38,855.98C274.9,855.97 272.48,854.67 270,853.08ZM256.03,843.04C255.22,842.53 254.82,841.85 255.14,841.53C255.45,841.21 256.28,841.64 256.98,842.48C258.42,844.21 258.15,844.38 256.03,843.04ZM244.87,834.25C243.6,832.63 243.65,832.61 245.5,833.97C246.6,834.77 247.69,835.56 247.92,835.72C248.15,835.87 247.86,836 247.29,836C246.71,836 245.63,835.21 244.87,834.25ZM794.36,820.5C795.18,819.67 796.17,819 796.55,819C796.93,819 796.68,819.67 796,820.5C795.32,821.33 794.33,822 793.81,822C793.28,822 793.53,821.33 794.36,820.5ZM345.76,789.31C344.81,789.06 343.01,789.05 341.76,789.29C340.52,789.53 341.3,789.74 343.5,789.75C345.7,789.76 346.72,789.56 345.76,789.31ZM362.73,789.4C362.4,789.06 361.53,789.03 360.81,789.32C360.01,789.64 360.25,789.87 361.42,789.92C362.47,789.96 363.06,789.73 362.73,789.4ZM664.27,789.34C663.59,789.07 662.24,789.05 661.27,789.31C660.3,789.56 660.85,789.78 662.5,789.81C664.15,789.83 664.95,789.62 664.27,789.34ZM685.27,789.34C684.59,789.07 683.24,789.05 682.27,789.31C681.3,789.56 681.85,789.78 683.5,789.81C685.15,789.83 685.95,789.62 685.27,789.34ZM337.73,788.4C337.4,788.06 336.53,788.03 335.81,788.32C335.01,788.64 335.25,788.87 336.42,788.92C337.47,788.96 338.06,788.73 337.73,788.4ZM368.73,788.4C368.4,788.06 367.53,788.03 366.81,788.32C366.01,788.64 366.25,788.87 367.42,788.92C368.47,788.96 369.06,788.73 368.73,788.4ZM658.25,788.34C657.56,788.06 656.44,788.06 655.75,788.34C655.06,788.62 655.62,788.84 657,788.84C658.38,788.84 658.94,788.62 658.25,788.34ZM372.73,787.4C372.4,787.06 371.53,787.03 370.81,787.32C370.01,787.64 370.25,787.87 371.42,787.92C372.47,787.96 373.06,787.73 372.73,787.4ZM653.73,787.4C653.4,787.06 652.53,787.03 651.81,787.32C651.01,787.64 651.25,787.87 652.42,787.92C653.47,787.96 654.06,787.73 653.73,787.4ZM323,784C322.18,783.47 321.05,783.03 320.5,783.03C319.95,783.03 320.18,783.47 321,784C321.82,784.53 322.95,784.97 323.5,784.97C324.05,784.97 323.82,784.53 323,784ZM643,784C642.17,783.47 641.05,783.03 640.5,783.03C639.95,783.03 640.17,783.47 641,784C641.83,784.53 642.95,784.97 643.5,784.97C644.05,784.97 643.83,784.53 643,784ZM708.03,782.48C710.76,781.1 713,779.74 713,779.47C713,779.02 703.1,783.69 702.08,784.62C700.9,785.7 703.62,784.72 708.03,782.48ZM390.04,780.98C392.22,779.87 394,778.73 394,778.46C394,778.01 386.11,781.7 385.08,782.62C383.98,783.62 386.49,782.79 390.04,780.98ZM315,780.61C315,780.39 314.3,779.95 313.45,779.62C312.56,779.28 312.16,779.44 312.51,780.01C313.09,780.96 315,781.42 315,780.61ZM373.74,777.69C400.95,769.81 422.92,744.45 426.81,716.43C429.19,699.19 423.65,677.67 413.31,664.01C401.64,648.6 389.24,640.15 371.24,635.35C362.42,632.99 360.32,632.8 349,633.3C335.11,633.91 329.56,635.27 317.44,641.04C308.15,645.46 297.05,655.09 291.07,663.91C279.59,680.83 275.33,695.89 277.09,713.29C280.55,747.49 306.58,774.48 341.48,780.08C349.61,781.38 364.9,780.25 373.74,777.69ZM635,780.54C635,780.28 633.99,779.58 632.75,778.98C630.59,777.93 630.58,777.95 632.44,779.44C634.48,781.08 635,781.3 635,780.54ZM694.5,778C707.38,773.9 716.22,768.52 725.16,759.32C737.11,747.02 743.77,734.14 746.58,717.87C750.06,697.7 744.04,676.11 730.09,658.77C720.28,646.58 706.96,637.95 692.35,634.31C683,631.99 662.86,632 654,634.34C640.71,637.84 626.9,645.91 618.47,655.11C610.14,664.17 602.45,677.86 599.39,689.09C597.04,697.67 596.99,715.22 599.29,723.8C606.5,750.66 628.13,772.27 654.5,778.95C665.4,781.72 684.21,781.27 694.5,778ZM664.5,779.38C657.78,778.42 647.18,775.57 642.13,773.35C629.4,767.78 614.21,753.66 607.84,741.49C601.27,728.93 599.5,721.36 599.52,706C599.54,693.81 599.81,691.73 602.34,684.51C609.02,665.47 622.12,650.6 640.19,641.53C652.56,635.31 661.19,633.61 676.88,634.29C690.93,634.9 698.38,636.77 707.76,642.06C721.63,649.87 730.29,658.66 737.49,672.25C748.57,693.17 748.95,716.89 738.55,738.36C729.12,757.82 714.24,770.5 693.95,776.35C685.66,778.75 670.77,780.28 664.5,779.38ZM311,778.6C311,778.37 309.07,777.06 306.71,775.67C304.35,774.29 299.06,770.15 294.96,766.46L287.5,759.77L294.35,766.47C301.25,773.22 311,780.32 311,778.6ZM336.24,777.57C327.17,775.84 312.54,768.8 304.52,762.3C275.18,738.49 269.45,696.34 291.39,665.61C298.56,655.56 307.81,647.62 318.28,642.54C331.05,636.35 338.85,634.6 353.5,634.67C364.17,634.71 366.56,635.07 375.14,637.87C387.36,641.87 397.33,648.33 406.55,658.21C414.46,666.7 418.59,673.75 422.53,685.5C425.79,695.22 426.89,709.78 425.06,719.08C419.84,745.62 400.6,767.51 375.28,775.71C365.6,778.85 347.51,779.71 336.24,777.57ZM400.5,774.52L402.5,772.89L400.5,773.87C399.4,774.41 397.6,775.59 396.5,776.48L394.5,778.11L396.5,777.13C397.6,776.59 399.4,775.41 400.5,774.52ZM723.82,772.57C724.8,771.44 723.83,771.84 721.5,773.51C715.93,777.52 714.9,778.63 718.82,776.39C720.64,775.35 722.89,773.63 723.82,772.57ZM364.73,774.42C374.91,772.32 383.65,768.72 392.35,763.04C400.86,757.48 406.63,751.21 412.63,741C418.55,730.91 420.73,724.75 422.08,714.23C424.61,694.46 417.72,675.46 401.87,658.52C395.44,651.65 387.04,646.34 375.5,641.85C368.68,639.2 365.78,638.66 355.89,638.24C341.22,637.61 332.35,639.44 319.69,645.72C301.92,654.53 287.8,672.52 283.58,691.7C280.05,707.75 282.75,725.83 291.14,742.27C294.71,749.28 308.43,761.96 317.58,766.72C333.58,775.04 349.29,777.61 364.73,774.42ZM688.59,773.98C702.85,770.35 715.86,762.86 724.26,753.45C730.11,746.89 736.87,735.08 739.69,726.5C741.93,719.69 742.33,716.71 742.35,706.5C742.37,695.58 742.09,693.66 739.18,685.16C737.42,680.02 734.81,673.83 733.39,671.41C729.49,664.74 717.84,652.78 710.78,648.18C688.66,633.78 658.97,633.52 636.41,647.54C627.03,653.36 615.52,665.54 610.72,674.7C600.5,694.19 600.41,718.05 610.46,738.55C616.59,751.06 630.66,764.74 643,770.19C656.53,776.18 674.22,777.65 688.59,773.98ZM343.5,773.92C320.28,770.4 299.41,756.09 290.51,737.59C280.67,717.14 280.55,696.71 290.16,677.06C295.98,665.18 307.82,653.34 320,647.25C331.98,641.26 339.19,639.59 353,639.62C362.71,639.65 365.74,640.06 372.5,642.3C383.85,646.06 392.23,651.32 401.19,660.3C407.35,666.48 409.91,670.01 413.5,677.3C423.39,697.34 423.55,716.07 413.99,735.69C407.71,748.56 397.44,759.6 386.5,765.21C372.03,772.63 356.16,775.84 343.5,773.92ZM660,774.37C639.88,770.49 620.4,756.04 612.18,738.92C601.68,717.06 601.45,697.09 611.44,676.3C614.83,669.26 617.41,665.55 622.44,660.52C630.77,652.19 642.36,644.6 650.88,641.9C660.41,638.87 678.23,638.18 688.4,640.44C711.49,645.58 731.68,664.49 738.64,687.5C741.18,695.92 741.18,717.09 738.64,725.46C729.76,754.62 704.58,773.59 673.5,774.52C667.45,774.71 661.38,774.64 660,774.37ZM623,772.62C623,772.41 622.21,771.63 621.25,770.87C619.66,769.63 619.63,769.66 620.87,771.25C622.18,772.92 623,773.45 623,772.62ZM687.5,769.38C705.36,765.08 722.12,751.88 729.84,736C735.23,724.94 737,717.63 737,706.52C737,688.65 730.52,673.15 717.89,660.8C701.75,645.02 680.76,638.93 658.44,643.55C649.22,645.45 643.72,647.76 636.12,652.92C627.76,658.59 619.75,667.9 615.08,677.37C609.39,688.88 607.66,697.15 608.34,709.5C610.67,751.78 646.85,779.15 687.5,769.38ZM364.78,769.55C384.79,765.34 401.76,752.26 411.04,733.92C423.75,708.77 415.47,673.32 393.04,656.93C379,646.67 367.31,642.54 352.5,642.62C333.99,642.72 318.14,649.07 305.53,661.45C297.44,669.38 293.3,676.04 289.64,687C284.82,701.45 285.25,714.94 291.02,729.91C301.97,758.3 334.68,775.88 364.78,769.55ZM343.13,768.84C317.73,765.21 296.61,746.99 289.42,722.5C287,714.3 286.99,698.52 289.39,690.5C292.48,680.14 298.86,669.04 305.48,662.48C321.16,646.94 349.74,639.51 369,645.98C386.35,651.8 400.3,662.39 407.24,675C421.49,700.88 417.75,730.25 397.62,750.46C383.59,764.54 362.59,771.63 343.13,768.84ZM655.04,768C644.82,765.24 634.01,758.83 627.08,751.43C619.83,743.67 616.8,738.45 612.83,726.84C609.96,718.45 609.64,716.33 609.65,706C609.65,696.67 610.08,693.27 611.91,688C617.03,673.28 625.55,661.78 637.22,653.85C654.05,642.42 677.46,640.18 696.28,648.19C714.86,656.1 726.42,668.29 732.5,686.41C739.93,708.53 734.64,732.39 718.44,749.82C711.2,757.6 704.04,762.18 692.67,766.31C681.6,770.32 666.2,771.01 655.04,768ZM611.92,762C609.05,758.7 606.47,756 606.2,756C605.6,756 608.08,759.04 612.92,764.25C618.35,770.09 617.71,768.66 611.92,762ZM684.54,765.46C692.65,763.35 705.57,756.95 710.82,752.44C736.39,730.44 738.71,689.23 715.73,665.3C707.61,656.84 693.23,649.53 681.55,647.93C655.02,644.29 632.05,655.87 620.12,678.93C614.77,689.25 613,695.87 613.01,705.43C613.03,716.03 615.15,724.6 620.29,734.98C625.39,745.25 634.52,754.92 643.7,759.78C656.22,766.41 672.26,768.64 684.54,765.46ZM367.38,763.96C376.24,761.23 386.29,756.65 390.54,753.4C398.17,747.58 407.47,732.44 410.57,720.77C412.27,714.41 412.42,701.63 410.88,695.19C409.54,689.62 401.96,673.03 399.06,669.34C395.23,664.47 384.51,656.67 376.5,652.91C348.21,639.65 312.43,651.07 298.11,677.95C280.54,710.91 297.19,751.08 333.44,763.19C343.98,766.71 357.48,767.02 367.38,763.96ZM663.08,764.97C638.68,759.87 622.52,744.94 616.45,721.91C614.13,713.12 614.1,698.21 616.38,690.5C624.01,664.71 645.44,649.04 673.11,649.01C683.15,649 689.66,650.55 699,655.2C719.08,665.18 730,683.04 730,705.9C730,733.5 715.06,753.89 688.2,762.93C681.27,765.27 669.18,766.25 663.08,764.97ZM733.13,764.25C734.37,762.66 734.34,762.63 732.75,763.87C731.79,764.63 731,765.41 731,765.62C731,766.45 731.82,765.92 733.13,764.25ZM337.35,763.08C320.02,758.37 307.83,748.93 299.62,733.86C294.54,724.54 292.77,717.33 292.83,706.12C292.91,689.57 297.17,678.43 307.84,666.88C325.78,647.44 359.47,643.25 383.03,657.53C392.64,663.35 398.57,669.92 403.51,680.22C413.33,700.71 413.53,715.09 404.26,733.9C400.17,742.2 391.78,751.89 385.6,755.46C371.45,763.63 351.15,766.84 337.35,763.08ZM415.13,761.25C416.37,759.66 416.34,759.63 414.75,760.87C413.79,761.63 413,762.41 413,762.62C413,763.45 413.82,762.92 415.13,761.25ZM683.5,759.86C702.49,756.53 719.26,740.35 724.41,720.36C726.45,712.47 726.45,698.92 724.42,691.93C720.8,679.47 708.4,664.28 697.24,658.62C686.75,653.3 672.75,651.58 659.89,654.02C642.84,657.25 626.4,672.49 620.84,690.21C618.52,697.61 618.14,711.18 620.02,719.21C621.58,725.82 626,735.7 628.89,739C630.36,740.68 630.06,739.79 627.98,736.29C622.71,727.44 620.76,720.54 620.24,708.92C619.87,700.8 620.15,696.97 621.47,692.42C630.65,660.62 664.19,645.29 694.62,659C703.69,663.09 715.12,674.32 719.47,683.42C727.1,699.4 726.74,715.64 718.38,732.23C707.8,753.26 682.63,764.24 658.23,758.49C649.66,756.47 643.35,753.08 636.46,746.8C632.5,743.19 631.23,742.39 632.48,744.31C633.48,745.85 637.06,749.08 640.42,751.48C653.48,760.8 665.16,763.07 683.5,759.86ZM370.9,757.59C381.81,754.25 386.68,751.3 392.96,744.26C401.67,734.48 407,720.81 407,708.21C407,692.84 401.74,680.66 390.03,668.98C377.86,656.81 365.74,652.35 347.5,653.32C331.24,654.17 320.33,659.3 309.66,671.08C290.36,692.41 291.85,723.78 313.17,745.02C319.64,751.47 332.64,758.59 340.5,760C348.7,761.46 361.61,760.44 370.9,757.59ZM342.76,759.02C334.55,757.54 328.72,755.11 321.5,750.17C293.63,731.08 289.18,694.76 311.72,670.41C327.37,653.51 354.19,649.21 375.98,660.11C395.84,670.05 408.23,693.45 405.15,715.21C403.11,729.63 393.45,745.24 382.28,752.14C374.2,757.13 352.86,760.85 342.76,759.02ZM288,758.62C288,758.41 287.21,757.63 286.25,756.87C284.66,755.63 284.63,755.66 285.87,757.25C287.18,758.92 288,759.45 288,758.62ZM421.03,753.94C422.55,751.1 421.51,751.57 419.51,754.62C418.57,756.07 418.29,756.94 418.89,756.57C419.49,756.19 420.46,755.01 421.03,753.94ZM368.5,753.12C375.93,749.83 384.78,740.62 391.91,728.75C395.72,722.41 393.54,724.58 387.89,732.75C380.5,743.45 376.39,747.77 371.06,750.45C354.26,758.92 331.61,754.91 316.99,740.9C313.47,737.52 310.65,733.38 307.73,727.3C303.81,719.11 303.51,717.89 303.16,708.4C302.58,692.77 306.1,683.9 317.63,671.95C335.53,653.42 364.87,653.41 384.35,671.93C394.32,681.41 399.91,693.68 401.01,708.5L401.68,717.5L401.84,709.68C402.21,691.61 391.86,673.28 376.04,664C366.64,658.49 359.11,656.67 347.75,657.17C339.6,657.52 337.49,658.02 330.97,661.14C321.97,665.43 314.5,671.95 309.02,680.3C299.04,695.5 298.45,712.41 307.28,729.88C312.83,740.86 326.88,751.76 339.62,754.95C346.49,756.67 362.82,755.63 368.5,753.12ZM685.54,754.45C698.46,751.08 709.49,741.62 716.19,728.15L720.5,719.5L720.5,706.45C720.5,693.43 720.49,693.39 716.82,685.95C711.99,676.2 707.18,670.73 698.36,664.97C688.52,658.55 680.94,656.59 668.25,657.2C659.26,657.63 657.79,658 651.21,661.46C637.51,668.66 626.19,683.98 623.76,698.6C622.38,706.95 624.01,718.49 628.07,729.01C630.42,735.13 632.12,737.65 637.23,742.65C640.68,746.03 645.08,749.6 647,750.58C657.2,755.79 673.92,757.47 685.54,754.45ZM658.77,753.45C650.35,751.4 643.49,747.56 637.84,741.7C629.03,732.57 624.42,718.1 625.18,702.04C625.52,695.04 626.18,692.22 628.76,686.7C634.52,674.39 647.98,662.54 659.66,659.5C685.66,652.73 713.54,670.2 719.04,696.7C719.69,699.84 720.03,706.13 719.8,710.67C719.42,717.9 718.83,719.99 715.13,727.47C704.38,749.17 682.58,759.22 658.77,753.45ZM386.72,744.09C391.39,739.49 401.08,722.74 399.8,721.47C399.5,721.17 398.49,722.81 397.57,725.12C394.4,733.05 387.42,742.54 381.13,747.48C377.76,750.13 375,752.44 375,752.61C375,753.67 382.59,748.15 386.72,744.09ZM362,749.78C368.93,748.09 375.1,744.59 379.56,739.83C386.16,732.78 386.95,731.03 380.74,737.23C371.36,746.59 360.43,750.69 347.5,749.72C327.25,748.19 313.66,735.66 309.35,714.54C306.47,700.43 310.51,687.04 320.8,676.54C330.61,666.53 338.59,663.55 353.97,664.17C362.37,664.51 364.51,664.98 370.08,667.72C379.99,672.6 384.37,676.93 389.15,686.57C394.42,697.22 395.31,706.36 392.13,717.49C389.78,725.73 390.03,727.09 392.64,720.31C394.03,716.72 394.5,712.83 394.5,705C394.5,695 394.33,694.14 390.9,687C382.86,670.24 366.68,660.95 348,662.36C343.88,662.67 338.47,663.62 335.98,664.48C330.05,666.51 321.13,673.6 315.49,680.76C298.42,702.4 308.2,738.27 333.85,748.09C343.26,751.7 352,752.22 362,749.78ZM682.31,750.51C696.15,746.9 705.7,739.26 711.26,727.33C717.84,713.22 718.03,700.23 711.83,686.78C703.93,669.64 682.96,659.27 663.57,662.89C655.46,664.41 650.38,667.06 643.27,673.49C629.25,686.18 625.02,701.03 629.94,720.28C632.37,729.77 633.69,732.33 639.48,738.76C649.07,749.43 667.28,754.42 682.31,750.51ZM657.8,748.12C638.42,741.74 629.66,728.78 629.72,706.54C629.76,691.45 635.85,679.6 647.91,671.15C654.85,666.27 662.69,664 672.53,664C689.76,664 703.85,673.02 711.36,688.88C714.29,695.06 714.5,696.24 714.5,706.57C714.5,717.58 714.48,717.69 710.25,726.22C705.12,736.58 697.95,743.71 689.25,747.09C681.15,750.24 665.75,750.74 657.8,748.12ZM599.8,745.07C598.55,742.9 597.36,741.31 597.15,741.51C596.72,741.95 600.92,749 601.61,749C601.86,749 601.04,747.23 599.8,745.07ZM365.35,744.02C373.5,740.9 383.78,731.12 387.42,723.01C396.1,703.65 387.6,678.66 369.51,670.37C345.21,659.25 318.65,671.82 312.34,697.43C309.22,710.04 313.38,724.91 322.79,734.81C333.55,746.15 350.3,749.77 365.35,744.02ZM688.25,743.75C708.66,734.38 717.96,708.59 708.13,688.62C702.05,676.26 692.47,669.09 679.07,666.88C652.49,662.49 631.48,681.91 633.29,709.2C633.93,718.84 636.86,725.4 644.13,733.45C647.08,736.72 648.65,739.07 647.61,738.68C645.99,738.06 645.9,738.18 647.01,739.51C647.72,740.37 648.8,740.89 649.4,740.68C650.01,740.46 651.63,741.08 653.02,742.04C661.01,747.63 678.01,748.46 688.25,743.75ZM338.3,743.19C331.14,740.64 325.4,736.45 320.87,730.45C315.04,722.73 313.67,718.12 313.58,706C313.51,696.38 313.73,695.04 316.31,690C320.02,682.75 329.05,673.68 335.42,670.81C339.72,668.87 342.19,668.52 351.5,668.51C361.38,668.5 363.09,668.78 368.27,671.2C379.59,676.51 386.3,686.06 388.92,700.59C391.85,716.83 383.23,733.21 367.5,741.28C362.37,743.92 360.19,744.41 352.5,744.71C345.6,744.97 342.28,744.62 338.3,743.19ZM659,743.12C649.66,739.23 639.34,727.53 636.47,717.6C633.77,708.23 634.73,696.03 638.81,687.73C642.57,680.11 648.04,674.79 655.88,671.18C663.92,667.47 678.06,666.89 686.16,669.94C693.07,672.55 698.24,676.54 703.13,683.05C708.27,689.9 710.36,696.74 710.43,707C710.48,714.54 710.13,716.26 707.31,722.22C703.28,730.75 696.33,738.2 689.14,741.72C684.34,744.07 682.08,744.51 673.51,744.73C665.55,744.95 662.58,744.62 659,743.12ZM595.12,735.33C593.94,733.3 593.66,733.95 594.62,736.46C594.97,737.36 595.46,737.88 595.72,737.62C595.97,737.36 595.71,736.33 595.12,735.33ZM646,737.69C646,737.51 644.57,736.05 642.83,734.44L639.66,731.5L641.9,734.75C643.74,737.42 646,739.04 646,737.69ZM362.75,734.46C368.96,731.87 374.66,726.37 377.92,719.84C387.91,699.86 373.06,675.46 351,675.6C339.16,675.68 329.47,682.11 324.5,693.19C318.26,707.08 322.47,723.75 334.16,731.49C342.25,736.84 354.1,738.07 362.75,734.46ZM681.24,735.35C692.07,732.31 701.24,721.17 702.64,709.36C703.83,699.38 697.13,685.33 688.72,680.14C682.82,676.49 673.76,674.7 667.64,675.97C653.26,678.96 644.57,688.62 643.26,703.08C641.93,717.76 650.73,731.1 664.53,735.34C671.05,737.34 674.16,737.34 681.24,735.35ZM343.32,733.62C330.57,729.45 323.69,719.94 323.73,706.5C323.8,685.28 343.81,671.66 362.76,679.95C379.34,687.21 384.42,710.8 372.42,724.82C365.71,732.66 352.55,736.64 343.32,733.62ZM665.5,733.65C655.56,730.38 650.53,725.68 647,716.33C642.67,704.85 646.53,690.39 655.83,683.3C673.58,669.76 698.38,681.38 700.68,704.33C701.73,714.86 694.12,727.55 684.19,731.82C677.82,734.56 670.47,735.28 665.5,733.65ZM362.62,730.1C372.42,725.47 377.02,717.84 376.98,706.28C376.9,681.33 348.32,670.19 331.99,688.75C312.92,710.42 336.61,742.41 362.62,730.1ZM682.4,730.95C696.14,725.81 702.66,707.91 695.71,694.36C685.06,673.57 656.21,675.15 648.52,696.94C644.85,707.34 647.1,717.17 654.98,725.1C662.92,733.1 671.67,734.97 682.4,730.95ZM344.99,730.07C333.79,726.66 327.61,718.28 327.62,706.5C327.62,698.51 329.68,693.56 335.16,688.3C343.84,679.98 358.85,679.75 367.34,687.8C377.05,697.01 377.77,713.87 368.86,723.53C363.02,729.88 353.2,732.56 344.99,730.07ZM388,729C388.59,727.9 388.85,727 388.57,727C388.3,727 387.59,727.9 387,729C386.41,730.1 386.15,731 386.43,731C386.7,731 387.41,730.1 388,729ZM662.17,728.4C643.86,719.27 644.82,691.27 663.72,683.35C668.3,681.43 677.72,681.69 682.5,683.87C690.15,687.35 697,698.05 697,706.5C697,712.12 693.75,719.35 689.17,723.9C681.57,731.47 671.65,733.12 662.17,728.4ZM358.9,722.55C363.72,720.06 367.8,714.53 368.56,709.44C369.53,702.99 367.76,697.92 363.05,693.67C358.78,689.81 354.13,688.45 347.98,689.28C332.47,691.36 328.92,714.27 342.96,721.7C347.99,724.36 354.72,724.72 358.9,722.55ZM397.94,715.84C398.52,713.12 398.94,708.79 398.87,706.2C398.76,702.46 398.57,703.06 397.92,709.15C397.48,713.35 396.41,718.53 395.56,720.65C394.32,723.74 394.29,724.13 395.45,722.64C396.24,721.62 397.36,718.56 397.94,715.84ZM679.13,722.58C693.17,716.68 693.57,697.6 679.8,690.41C672.55,686.62 660.96,690.41 657.44,697.72C655.22,702.32 655.13,710.42 657.26,714.53C661.32,722.38 671.07,725.97 679.13,722.58ZM434.68,720.81C434.36,720.01 434.13,720.25 434.08,721.42C434.04,722.47 434.27,723.06 434.6,722.73C434.94,722.4 434.97,721.53 434.68,720.81ZM460.5,720C460.84,719.45 460.42,719 459.56,719C458.7,719 458,719.45 458,720C458,720.55 458.42,721 458.94,721C459.46,721 460.16,720.55 460.5,720ZM471,706.94C471,698.98 470.62,694 470,694C469.38,694 469,699.19 469,707.56C469,716.34 469.35,720.9 470,720.5C470.58,720.14 471,714.49 471,706.94ZM567.5,720C567.84,719.45 567.16,719 566,719C564.84,719 564.16,719.45 564.5,720C564.84,720.55 565.51,721 566,721C566.49,721 567.16,720.55 567.5,720ZM465.74,700.25C465.55,696.54 465.39,699.58 465.39,707C465.39,714.42 465.55,717.46 465.74,713.75C465.93,710.04 465.93,703.96 465.74,700.25ZM554.74,700.25C554.55,696.54 554.39,699.58 554.39,707C554.39,714.42 554.55,717.46 554.74,713.75C554.93,710.04 554.93,703.96 554.74,700.25ZM560,707C560,699 559.62,694 559,694C558.38,694 558,699 558,707C558,715 558.38,720 559,720C559.62,720 560,715 560,707ZM435.71,713.76C435.47,712.52 435.26,713.3 435.25,715.5C435.24,717.7 435.44,718.72 435.69,717.76C435.94,716.81 435.95,715.01 435.71,713.76ZM460.5,712C460.9,711.36 457.68,711 451.56,711C445.85,711 442,711.4 442,712C442,712.59 445.65,713 450.94,713C455.86,713 460.16,712.55 460.5,712ZM494,712C494,711.4 490.17,711 484.5,711C478.83,711 475,711.4 475,712C475,712.6 478.83,713 484.5,713C490.17,713 494,712.6 494,712ZM550,712C550,711.4 546,711 540,711C534,711 530,711.4 530,712C530,712.6 534,713 540,713C546,713 550,712.6 550,712ZM583,712C583,711.4 579.17,711 573.5,711C567.83,711 564,711.4 564,712C564,712.6 567.83,713 573.5,713C579.17,713 583,712.6 583,712ZM756.71,702.75C756.47,701.51 756.27,702.52 756.27,705C756.27,707.48 756.47,708.49 756.71,707.25C756.94,706.01 756.94,703.99 756.71,702.75ZM460.5,707C460.16,706.45 455.86,706 450.94,706C445.65,706 442,706.41 442,707C442,707.6 445.85,708 451.56,708C457.68,708 460.9,707.64 460.5,707ZM494,707C494,706.4 490.17,706 484.5,706C478.83,706 475,706.4 475,707C475,707.6 478.83,708 484.5,708C490.17,708 494,707.6 494,707ZM550,707C550,706.4 546.19,706 540.56,706C535.34,706 530.84,706.45 530.5,707C530.1,707.64 533.49,708 539.94,708C545.98,708 550,707.6 550,707ZM583,707C583,706.41 579.35,706 574.06,706C569.14,706 564.84,706.45 564.5,707C564.1,707.64 567.32,708 573.44,708C579.15,708 583,707.6 583,707ZM549.34,702.07C548.88,701.69 544.23,701.62 539,701.93L529.5,702.49L539,703C548.68,703.51 550.82,703.32 549.34,702.07ZM456,701.96C447.93,700.84 442,700.86 442,702C442,702.61 445.82,702.94 451.75,702.86C460.66,702.73 461.03,702.65 456,701.96ZM494,702C494,701.4 490.17,701 484.5,701C478.83,701 475,701.4 475,702C475,702.6 478.83,703 484.5,703C490.17,703 494,702.6 494,702ZM583,702C583,701.41 579.35,701 574.06,701C569.14,701 564.84,701.45 564.5,702C564.1,702.64 567.32,703 573.44,703C579.15,703 583,702.6 583,702ZM589.69,699.27C589.44,698.3 589.22,698.85 589.19,700.5C589.17,702.15 589.38,702.95 589.66,702.27C589.93,701.59 589.95,700.24 589.69,699.27ZM453,692.61C453,688.37 453.92,688 464.38,688C473.4,688 475,688.79 475,693.2L475,696L494,696L494,519L484.5,519C475.12,519 475,519.03 475,521.42C475,526.78 474.54,527 463.5,527C452.42,527 451.77,526.68 452.72,521.69L453.23,519L440.42,519L438.63,525.75C433.05,546.81 418.74,567.37 401.84,578.61C395.32,582.94 377.49,591 374.41,591C373.26,591 373,593.66 373,605.46L373,619.92L377.25,621.06C384.46,622.98 395.89,628.73 403,634C410.54,639.59 421.06,650.32 425.91,657.37C431.09,664.9 436.86,677.9 439.17,687.25L441.33,696L453,696L453,692.61ZM460,695C460,694.45 459.3,694 458.44,694C457.58,694 457.16,694.45 457.5,695C457.84,695.55 458.54,696 459.06,696C459.58,696 460,695.55 460,695ZM549.88,696L550.5,688.5L571.5,688.5L572.12,696L583.82,696L584.48,691.75C587.26,673.63 597.84,654.8 613.37,640.33C623.58,630.82 632.19,626 650.28,619.66C651.88,619.1 652.03,617.72 651.78,605.42L651.5,591.79L643.63,588.92C624.08,581.8 610.23,570.63 598.36,552.42C592.28,543.08 587.85,533.48 585.65,524.86L584.28,519.5L578.2,519.2L572.13,518.91L571.81,522.7L571.5,526.5L550.5,526.5L549.88,519L530,519L530,696L549.88,696ZM567,695C567,694.45 566.55,694 566,694C565.45,694 565,694.45 565,695C565,695.55 565.45,696 566,696C566.55,696 567,695.55 567,695ZM590.68,691.81C590.36,691.01 590.13,691.25 590.08,692.42C590.04,693.47 590.27,694.06 590.6,693.73C590.94,693.4 590.97,692.53 590.68,691.81ZM749.12,672.33C747.94,670.3 747.66,670.95 748.62,673.46C748.97,674.36 749.46,674.88 749.72,674.62C749.97,674.36 749.71,673.33 749.12,672.33ZM744.59,663.76C736.57,650.31 721.37,636.62 708.29,631.06C697.9,626.64 698.02,627.39 708.5,632.39C722.85,639.23 735.92,650.98 743.91,664.25C745.15,666.31 746.38,668 746.64,668C746.9,668 745.98,666.09 744.59,663.76ZM424.4,665.75C416.81,652.45 403.28,639.69 389.62,632.96C375.31,625.91 366.36,623.75 351.5,623.78C344.9,623.79 338.16,624.21 336.52,624.72C334.52,625.33 338.32,625.5 348.02,625.21C360.53,624.85 363.66,625.09 371,626.98C391.98,632.36 409.22,644.4 420.78,661.75C422.71,664.64 424.47,667 424.7,667C424.93,667 424.8,666.44 424.4,665.75ZM609.13,654.25C610.37,652.66 610.34,652.63 608.75,653.87C607.79,654.63 607,655.41 607,655.62C607,656.45 607.82,655.92 609.13,654.25ZM294.5,648C297.77,644.7 300.21,642 299.94,642C299.66,642 296.77,644.7 293.5,648C290.23,651.3 287.79,654 288.06,654C288.34,654 291.23,651.3 294.5,648ZM619,643.29C619,642.54 618.1,643.33 613.96,647.75L609.5,652.5L614.25,648.04C616.86,645.59 619,643.45 619,643.29ZM633.28,634.02C636.46,632.23 642.09,629.7 645.78,628.38C649.84,626.93 651.12,626.2 649,626.54C643.71,627.39 628.02,635.37 623.5,639.51L619.5,643.18L623.5,640.22C625.7,638.6 630.1,635.81 633.28,634.02ZM315,633.47C318.02,631.93 323.43,629.61 327,628.32C331.06,626.86 332.19,626.2 330,626.55C325.36,627.31 307.29,636.13 303.5,639.48C300.63,642.03 300.69,642.01 305,639.21C307.48,637.59 311.98,635.01 315,633.47ZM698,627.1C691.97,623.72 662.97,622.17 655.5,624.83C653.02,625.71 653.45,625.78 658,625.2C666.89,624.07 686.01,624.72 691.5,626.34C697.41,628.09 700.38,628.44 698,627.1ZM338.5,618C339.41,616.52 337.87,593 336.86,593C336.39,593 336,598.85 336,606C336,617.84 336.66,620.98 338.5,618ZM367.98,607.25C367.98,600.79 367.53,594.83 367,594C366.35,592.99 366.03,596.83 366.02,605.75C366.01,613.93 366.38,619 367,619C367.61,619 367.99,614.43 367.98,607.25ZM343.93,607.25C343.89,601.34 343.47,595.6 343,594.5C342.46,593.24 342.11,597.2 342.07,605.25C342.03,613.13 342.38,618 343,618C343.61,618 343.97,613.8 343.93,607.25ZM348,606C348,598.67 347.61,594 347,594C346.39,594 346,598.67 346,606C346,613.33 346.39,618 347,618C347.61,618 348,613.33 348,606ZM353,606C353,598.67 352.61,594 352,594C351.39,594 351,598.67 351,606C351,613.33 351.39,618 352,618C352.61,618 353,613.33 353,606ZM358.65,612.75C358.3,609.86 358.01,604.46 358.01,600.75C358,596.92 357.57,594 357,594C356.39,594 356,598.67 356,606C356,616.45 356.21,618 357.64,618C359.03,618 359.18,617.2 358.65,612.75ZM363,606C363,598.67 362.61,594 362,594C361.39,594 361,598.67 361,606C361,613.33 361.39,618 362,618C362.61,618 363,613.33 363,606ZM660,605.5C660,595.06 659.75,593 658.5,593C657.25,593 657,595.06 657,605.5C657,615.94 657.25,618 658.5,618C659.75,618 660,615.94 660,605.5ZM665,605.5C665,597.83 664.61,593 664,593C663.39,593 663,597.61 663,604.83C663,615.22 663.35,618 664.67,618C664.85,618 665,612.38 665,605.5ZM683.74,599.75C683.55,596.31 683.39,599.12 683.39,606C683.39,612.88 683.55,615.69 683.74,612.25C683.94,608.81 683.94,603.19 683.74,599.75ZM689,605.5C689,597.83 688.61,593 688,593C687.39,593 687,597.83 687,605.5C687,613.17 687.39,618 688,618C688.61,618 689,613.17 689,605.5ZM671,606.06C671,599.84 670.57,594.85 670,594.5C669.36,594.1 669,597.99 669,605.44C669,612.48 669.39,617 670,617C670.61,617 671,612.69 671,606.06ZM675.9,610.75C675.85,607.31 675.46,602.02 675.04,599C674.4,594.37 674.26,595.35 674.14,605.25C674.05,612.51 674.38,617 675,617C675.57,617 675.96,614.32 675.9,610.75ZM680,605.5C680,598.5 679.61,594 679,594C678.39,594 678,598.5 678,605.5C678,612.5 678.39,617 679,617C679.61,617 680,612.5 680,605.5ZM367.62,586.47C374.35,585.31 379.16,583.64 387.5,579.55C403.14,571.89 414.12,562.23 422.23,549C425.03,544.43 423.79,545.53 419.73,551.24C402.9,574.86 376.2,588.14 348.5,586.68C340.04,586.23 330.23,584.36 321.5,581.52C320.4,581.16 320.77,581.61 322.32,582.5C330.67,587.34 351.82,589.19 367.62,586.47ZM688,586.59C707.73,583.05 727.94,570.53 739.02,554.97C740.08,553.48 736.35,556.83 730.73,562.43C722.3,570.81 718.91,573.42 711.46,577.24C698.08,584.1 688.41,586.35 672.5,586.28C662.69,586.24 657.62,585.73 651.86,584.18C643.15,581.85 632.4,576.71 625.93,571.78C620.61,567.74 619,566.71 619,567.39C619,568.46 631.82,576.93 638.5,580.26C644.42,583.22 650.66,585.14 661.5,587.36C666.01,588.28 680.98,587.84 688,586.59ZM318.92,580.64C318.69,580.43 317.38,579.74 316,579.08C313.64,577.96 313.61,577.98 315.44,579.44C317.03,580.72 320.29,581.84 318.92,580.64ZM311,576.54C311,576.28 309.99,575.58 308.75,574.98C306.59,573.93 306.58,573.95 308.44,575.44C310.48,577.08 311,577.3 311,576.54ZM375,574.24C378.02,573.16 383.65,570.66 387.5,568.69C405.02,559.71 418.83,543.07 424.18,524.5C426.1,517.84 426.48,514.23 426.43,503C426.38,491.24 426.04,488.5 423.78,481.72C420.25,471.11 414.43,461.69 405.64,452.34C399.77,446.1 396.42,443.53 389.37,439.86C377.95,433.9 370.42,431.4 359.67,429.97C329.3,425.92 298.81,442.59 284.47,471.06C269.88,500.03 275.36,532.96 298.38,554.71C309.45,565.17 320.06,571.31 333.58,575.08C343,577.71 366.62,577.23 375,574.24ZM688.19,575.55C703.47,572.31 715.21,565.79 727,554C736.31,544.69 741.24,536.59 744.95,524.5C747.69,515.58 748.66,500.59 747.07,491.51C743.3,469.83 729.37,449.57 711.43,439.68C687.69,426.58 662.77,425.84 638.41,437.53C615.79,448.38 599.06,473.92 597.35,500.22C596.28,516.54 600.24,529.49 610.95,544.73C620.59,558.46 638.24,570.8 654.23,574.98C663.1,577.31 678.65,577.57 688.19,575.55ZM336.5,574.38C316.37,570.18 294.81,553.75 285.21,535.29C279.74,524.77 278,517.69 278.02,506.04C278.05,489.15 281.75,476.99 291.13,462.96C300.52,448.93 311.37,440.47 327.33,434.71C338.87,430.55 355.71,429.79 368.03,432.86C395.31,439.66 414.84,458.17 423.11,485.04C427.61,499.64 425.73,521.54 418.78,535.5C415.35,542.4 406,553.85 399.19,559.5C382.66,573.22 358.47,578.96 336.5,574.38ZM659.66,574.45C632.91,569.45 607.91,547.21 600.77,522.08C597.06,509.03 598.75,488.47 604.62,475.15C611.29,460.02 624.65,445.72 638.4,438.98C650.96,432.83 657.26,431.49 673.5,431.55C686.1,431.59 688.35,431.88 696,434.41C717.95,441.68 733.7,456.58 741.85,477.79C757.52,518.6 734,562.37 690.5,573.34C681.22,575.68 668.65,576.13 659.66,574.45ZM367.3,570.42C381.76,567.24 398.3,556.89 407.56,545.21C412.93,538.45 419.27,525.71 421.1,518C423.21,509.1 422.59,494.8 419.72,485.83C415.78,473.52 410.75,465.53 400.6,455.47C390.17,445.13 381.84,440.38 367.93,436.86C355.87,433.81 339.89,434.56 328.33,438.72C310.49,445.14 298.76,455.73 290.1,473.27C284.19,485.22 281.83,494.36 281.76,505.57C281.64,525.66 290.93,543.51 308.32,556.58C316.15,562.47 328.42,568.66 335.79,570.45C343.6,572.34 358.61,572.33 367.3,570.42ZM689.2,569.46C701.81,566.38 718.41,556.71 726.76,547.57C732.46,541.33 737.96,531.25 740.9,521.64C742.51,516.39 743,512.12 743,503.41C743,487.98 739.64,477.12 731.11,464.94C724.31,455.22 722,452.93 712.84,446.72C691.59,432.33 664.85,430.64 640.27,442.15C631.7,446.17 618.19,459.33 612.17,469.54C597.46,494.49 599.02,521.98 616.39,544.09C623.99,553.77 641.84,565.93 653.03,569.05C663.72,572.03 677.97,572.19 689.2,569.46ZM302,570.62C302,570.41 301.21,569.63 300.25,568.87C298.66,567.63 298.63,567.66 299.87,569.25C301.18,570.92 302,571.45 302,570.62ZM340.76,569.97C320.76,566.6 297.95,550.1 289.66,533C284.16,521.67 282.64,514.38 283.3,502.5C284.79,475.35 300.96,451.51 324.52,441.74C334.06,437.78 340.77,436.52 352,436.58C376.01,436.72 397.21,448.61 411.03,469.68C419.41,482.45 422.95,502.13 419.6,517.21C411.87,551.92 376.04,575.91 340.76,569.97ZM657.32,568.5C645.35,565.9 631.66,557.91 621.54,547.63C595.5,521.17 597.31,483.22 626,454.08C633.13,446.84 643.75,441.23 656.41,438.01C678.92,432.29 705.63,439.6 722.03,455.98C733.63,467.56 739.06,478.93 741.22,496.23C743.46,514.08 738.26,531.65 726.43,546.25C719.74,554.52 699.85,565.87 687.5,568.48C678.94,570.3 665.62,570.3 657.32,568.5ZM292.76,561.75C284.94,552.72 282.2,548.84 277.89,540.72C273.42,532.31 272.63,532.36 276.89,540.78C280.16,547.25 287.18,557.07 293.2,563.6C299.26,570.17 298.96,568.91 292.76,561.75ZM367.39,565.03C377.7,562.39 387.09,557.3 395.28,549.91C416.07,531.14 422.61,507.29 413.69,482.72C406.86,463.9 385.65,445.79 365.44,441.5C352.53,438.77 336.74,440.18 325.27,445.1C309.86,451.7 296.54,466.56 290.23,484.17C288.1,490.12 287.53,493.75 287.21,503.5C286.85,514.29 287.06,516.21 289.28,522.58C296.34,542.78 315.06,559.58 337,565.41C345.03,567.54 358.21,567.38 367.39,565.03ZM683.5,565.51C692.11,563.97 706.13,557.74 709.55,553.93C710.76,552.58 709.11,553.29 705.22,555.79C695.7,561.93 688.34,564.14 675.5,564.73C666.23,565.15 663.22,564.89 656.33,563.03C645.5,560.11 634.99,553.81 625.9,544.79C613.9,532.89 608.68,520.69 608.67,504.5C608.67,487.12 614.83,472.16 627,460.01C635.3,451.73 642.45,447.45 654,443.84C663.95,440.74 682.55,440.5 691,443.38C712.98,450.85 727.61,464.68 734,484C736.67,492.06 737.74,508.31 736.11,515.92C735.48,518.87 735.15,521.49 735.39,521.73C736.45,522.78 738.35,509.74 738.24,502.23C737.83,475.17 720.62,452.08 694,442.89C685.11,439.82 667.99,439.13 657.68,441.43C637.7,445.87 622.31,458.46 613.35,477.68C606.41,492.57 605.21,509 610.04,522.87C616.16,540.42 635.2,558.24 653.48,563.54C665.53,567.04 672.39,567.48 683.5,565.51ZM336.81,564.07C318.67,559.18 301.33,545.32 293.56,529.52C285.43,512.97 286.43,492.5 296.3,473.5C300.69,465.05 312.95,453.06 321.66,448.69C338.72,440.14 357.17,439.2 374.69,445.96C387.69,450.98 403.06,464.21 409.27,475.72C413.26,483.1 416,494.85 415.98,504.41C415.94,514.6 414.79,519.62 410.35,528.86C405.6,538.76 391.66,552.94 381.48,558.22C366.87,565.81 350.96,567.89 336.81,564.07ZM364.28,561.43C377,558.13 387.93,551.26 397.1,540.81C404.61,532.23 402.55,533.53 392.49,543.7C386.79,549.48 383.5,551.81 375.94,555.47C358.48,563.9 343.03,563.78 325.5,555.08C306.82,545.79 295.25,528.87 293.4,508.13C292.56,498.6 294.95,488.44 300.7,477.13C310.48,457.93 325.54,448.49 348.34,447.25C360.2,446.62 366.86,447.88 376.63,452.64C405.31,466.62 418.57,496.99 407.71,523.86C404.61,531.54 405.25,531.94 408.58,524.41C420.44,497.59 406.68,466.1 376.5,450.98C366.73,446.09 359.16,444.59 348,445.34C328.55,446.65 313.17,454.97 303.22,469.56C298.98,475.78 294.15,486.68 292.97,492.7C291.32,501.16 292.16,516.07 294.68,523C303.02,545.91 326.75,562.62 351.36,562.92C355.13,562.96 360.94,562.29 364.28,561.43ZM609.39,556.25C603.64,549.11 602.43,547.86 603.78,550.5C604.87,552.62 612.87,562 613.6,562C613.83,562 611.94,559.41 609.39,556.25ZM686.45,560.47C696.04,557.97 705.55,552.38 711.34,545.82C728.54,526.35 733.14,505.19 724.8,484C722.36,477.78 716.39,468.49 712.93,465.5C711.65,464.4 712.67,466.2 715.19,469.5C720.73,476.76 721.53,478.28 724.61,487.34C729.67,502.2 728.82,513.36 721.48,528.5C714.99,541.9 708.92,548.78 699.07,553.9C681.58,563 664.38,563.2 646.52,554.5C632.9,547.87 624.87,539.85 618.46,526.5C610.66,510.25 612.42,488.73 622.87,472.71C632.29,458.24 646.03,449.78 664.77,446.91C674.46,445.43 686.04,446.7 694.26,450.15C700.42,452.74 712.28,460.09 716.38,463.85C720.17,467.34 725.18,475.16 728.36,482.54C729.77,485.82 730.94,487.81 730.96,486.97C730.98,486.13 729.43,482.16 727.51,478.15C719.42,461.28 699.38,447.17 680.76,445.24C644.65,441.48 614.6,465.98 612.34,501C611.44,514.93 614.47,524.76 623.68,537.76C630.68,547.64 645.55,557.23 658.89,560.47C666.52,562.32 679.34,562.32 686.45,560.47ZM368.29,554.66C378.89,551.3 389.75,543.42 395.35,535.03C398.16,530.82 397.17,530.47 394.15,534.6C383.86,548.7 368.4,556.46 351,556.27C325.71,555.99 304.47,538.87 299.33,514.62C295.25,495.36 304.74,472.43 321.15,461.91C332.19,454.82 348.01,451.19 359.83,453.02C378.89,455.99 399.47,473.02 404.41,489.93C407.59,500.81 405.97,518.93 400.88,529.44C399.62,532.04 399.46,532.8 400.45,531.56C402.8,528.62 405.9,519.63 407.21,511.99C408.75,503.01 407.11,491.78 403.04,483.5C398.58,474.41 386.29,462.05 377.25,457.57C361.21,449.62 346.32,449.01 329.5,455.61C315.39,461.16 302.86,476.19 298.57,492.72C293.4,512.67 302.46,535.87 319.9,547.37C336.06,558.01 350.76,560.23 368.29,554.66ZM659.97,554.18C651.22,551.89 638.99,544.77 631.95,537.86C619.3,525.43 614.85,506.98 620.35,489.69C629.31,461.47 660.9,445.2 688.65,454.52C698.16,457.71 702.98,460.18 707.69,464.26L711.43,467.5L709.15,464.26C704.51,457.64 685.56,450.63 672.5,450.69C656.84,450.76 643.89,456.11 633,467C622.22,477.78 617,490.06 617,504.64C617,517.51 622.57,530.79 631.6,539.44C639.25,546.77 657.36,555.98 664,555.91C665.38,555.9 663.56,555.12 659.97,554.18ZM686.73,554.4C686.4,554.06 685.53,554.03 684.81,554.32C684.01,554.64 684.25,554.87 685.42,554.92C686.47,554.96 687.06,554.73 686.73,554.4ZM350,551.99C335.82,550.94 326.19,546.29 316.2,535.66C308.36,527.31 304.83,519.02 304.23,507.58C303.68,497.05 305.21,490.2 310.26,480.69C319.42,463.43 344.97,452.95 364.07,458.61C380.24,463.41 390.05,472.63 395.08,487.75C396.93,493.3 397.18,495.89 396.82,505.92C396.43,516.83 396.16,518.12 392.85,525.06C386.82,537.7 377.21,546.11 363.55,550.68C359.86,551.92 359.8,552 362.84,551.53C364.68,551.24 368.96,549.68 372.34,548.05C389.12,539.99 398.35,524.16 398.31,503.5C398.27,478.67 384.27,461.32 360.27,456.36C353.21,454.9 351.91,454.9 344.2,456.42C334.16,458.39 326.29,462.18 318.14,468.96C313.28,473.01 311.32,475.59 308.06,482.24C298.14,502.46 300.72,520.62 315.85,537.1C319.96,541.58 324.13,544.87 328.83,547.34C337.46,551.87 341.39,552.81 351.5,552.75L359.5,552.69L350,551.99ZM682.2,551.87C696.1,548.89 708.6,538.66 715.58,524.54C718.91,517.79 719.45,515.72 719.81,508.12C720.3,497.75 718.42,489.22 713.87,481.27C712.17,478.31 710.58,476.08 710.33,476.33C710.09,476.58 711.25,478.99 712.91,481.7C718.83,491.32 720.7,507.74 717.08,518.27C713.27,529.34 702.64,542.08 693.2,546.9C681.35,552.94 666.97,553.18 655.26,547.54C631.36,536.01 620.31,517.61 624.36,496.1C629.12,470.85 648.45,456 674.95,457.23C687.56,457.81 695.8,461.09 704.31,468.9C708.74,472.96 709.81,473.63 708.2,471.33C704.94,466.68 700.28,463.04 693.5,459.87C669.73,448.75 640.24,458.18 628.21,480.76C617.72,500.44 620.56,520.46 636.04,535.96C649.43,549.37 666.46,555.24 682.2,551.87ZM727.24,530.23C729.4,525.61 730.97,521.64 730.73,521.4C730.49,521.16 729.03,523.78 727.5,527.23C724.34,534.33 720.37,540.43 714.65,547C712.5,549.48 713.57,548.6 717.02,545.06C721.57,540.4 724.39,536.3 727.24,530.23ZM726.33,541.07C729.4,536.44 733.52,528.27 734.45,525C734.84,523.62 733.24,526.28 730.89,530.89C728.52,535.57 724.16,541.97 721.06,545.35C715.84,551.05 715.75,551.21 719.7,548.08C722.01,546.24 725,543.09 726.33,541.07ZM365.71,545.87C395.76,534.83 404.54,493.23 381.29,471.98C367.4,459.29 349.63,457.17 331.35,466.01C318.19,472.39 310.34,483.01 307.91,497.74C306.48,506.38 307.87,515.98 311.69,523.89C316.48,533.83 329.65,544.42 340.5,547.06C347.08,548.67 359.73,548.07 365.71,545.87ZM602,546C601.41,544.9 600.7,544 600.43,544C600.15,544 600.41,544.9 601,546C601.59,547.1 602.3,548 602.57,548C602.85,548 602.59,547.1 602,546ZM688.36,545.16C702.88,538.74 712.43,526.26 715.03,510.33C716.19,503.19 714.62,493.43 710.87,484.5C701.57,462.34 674.27,453.78 650.32,465.52C635.23,472.92 626.1,489.12 627.22,506.53C628.27,522.96 641.94,539.33 660.2,546.04C667.41,548.69 681.38,548.25 688.36,545.16ZM745,546C745.59,544.9 745.85,544 745.57,544C745.3,544 744.59,544.9 744,546C743.41,547.1 743.15,548 743.43,548C743.7,548 744.41,547.1 745,546ZM341.26,545.46C328.56,542.04 317.2,532.97 312.22,522.27C309.8,517.06 309.54,515.39 309.55,505C309.57,491.69 311.05,486.83 317.77,477.92C322.66,471.44 329.73,466.97 339.87,463.94C359.77,457.98 381.19,467.26 389.7,485.5C392.26,490.98 392.5,492.5 392.5,503.05C392.5,514.37 392.42,514.76 388.78,522.12C382.19,535.46 374.44,542.09 361.47,545.47C354.31,547.33 348.21,547.33 341.26,545.46ZM666.18,545.98C651.04,542.83 634.32,528.96 630.51,516.41C628.36,509.33 628.57,496.57 630.94,489.67C637.02,472.01 652.37,461.7 672.41,461.81C680.04,461.86 685.6,463.26 693.08,467.04C701.13,471.1 704.7,474.46 708.06,481.13C716.37,497.57 715.86,513.94 706.59,528.42C702.35,535.06 698.16,538.54 689.5,542.61C681.76,546.25 673.33,547.47 666.18,545.98ZM712.93,535.94C722.17,523.66 725.97,510.86 724.01,498.58C722.52,489.22 718.37,478.74 714.4,474.31L710.99,470.5L714.38,475.68C722.29,487.76 725.12,505.68 721.17,518.67C718.9,526.15 713.48,534.7 706.15,542.38C702.85,545.84 702.3,546.74 704.27,545.49C705.8,544.53 709.69,540.23 712.93,535.94ZM428.17,538.45C429.86,534.85 431.06,531.73 430.85,531.52C430.64,531.31 429.05,534.26 427.32,538.07C425.58,541.88 424.37,545 424.63,545C424.89,545 426.48,542.05 428.17,538.45ZM368.57,539.56C392.65,527.66 397.91,494.82 378.8,475.7C370.36,467.27 359.2,463.61 346.55,465.13C332.4,466.84 321.99,474.48 315.68,487.78C312.76,493.94 312.5,495.33 312.5,504.52C312.5,513.85 312.73,515.01 315.83,521.3C323.43,536.74 336.45,544.47 353.39,543.58C359.93,543.24 362.51,542.56 368.57,539.56ZM680.2,542.89C701.51,538.43 715.07,518.06 711.09,496.5C708.77,483.91 701.99,474.65 691.12,469.22C678.44,462.88 665.95,462.8 653.45,468.95C645.87,472.68 640.8,478.09 636.64,486.88C633.76,492.94 633.5,494.34 633.52,503.5C633.54,512.11 633.9,514.27 636.11,519C641.44,530.44 653.2,540.06 665,542.63C672.15,544.19 673.85,544.22 680.2,542.89ZM597.8,538.52C596.6,536.06 595.45,534.22 595.24,534.43C594.79,534.88 598.83,543 599.51,543C599.76,543 598.99,540.98 597.8,538.52ZM337.22,539.91C330.32,537.2 320.83,528.39 317.52,521.63C307.85,501.86 316.96,476.65 336.55,468.96C345.48,465.46 359.41,465.53 367,469.12C375.15,472.97 381.4,479.03 385.21,486.79C388.3,493.06 388.5,494.12 388.5,503.98C388.5,513.25 388.19,515.15 385.89,520C382.02,528.15 375.96,534.4 368.22,538.21C362.29,541.14 360.51,541.53 352.03,541.74C344.34,541.94 341.48,541.59 337.22,539.91ZM663,540.7C652.11,537.59 640.4,526.57 636.52,515.77C633.91,508.52 634.1,497.31 636.96,489.76C645.34,467.65 671.98,459.19 693.15,471.92C704.47,478.72 710.13,489.11 710.35,503.5C710.59,518.96 702.73,531.53 688.5,538.43C681.48,541.83 670.42,542.82 663,540.7ZM362.21,532.02C369.5,529.29 374.04,525.24 377.51,518.39C385.3,502.99 379.46,484.15 364.54,476.52C349.95,469.06 331.42,476.1 324.21,491.85C320.66,499.6 320.78,509.98 324.5,517.58C331.03,530.93 347.89,537.38 362.21,532.02ZM684.12,531.46C690.5,529.21 696.49,523.73 699.68,517.24C702.04,512.44 702.49,510.27 702.44,504C702.38,495.32 700.31,489.87 694.6,483.31C683.41,470.47 663,470.4 651.48,483.16C645.65,489.61 643.52,495.24 643.59,504C643.66,512.99 645.28,517.18 651.13,523.52C660.07,533.22 671.4,535.95 684.12,531.46ZM345.5,532.11C332.63,528.78 324.03,517.89 324.01,504.93C323.99,492.41 329.29,483.46 339.78,478.31C350.65,472.97 363.18,475.27 371.7,484.16C384.56,497.58 380.35,521.37 363.7,529.41C358,532.16 350.18,533.33 345.5,532.11ZM662.32,529.47C651.17,523.92 645.7,515.39 645.65,503.5C645.58,487.34 656.88,475.84 673.01,475.66C697.4,475.39 710.26,505.84 693.02,523.07C684.4,531.69 671.98,534.28 662.32,529.47ZM363.54,527.61C372.13,523.68 377,514.88 377,503.32C377,489.19 365.95,477.58 352.5,477.58C341.85,477.58 332.06,483.79 328.06,493.07C325.14,499.86 325.11,509.19 327.98,515.68C330.58,521.57 332.32,523.52 337.9,526.79C346.04,531.56 354.33,531.83 363.54,527.61ZM401.07,519.49C404.08,508.51 403.49,495.32 399.56,485.74C398.03,482.02 396.43,478.77 396,478.5C395.57,478.24 396.58,481.5 398.25,485.76C403.42,499.01 403.22,510.72 397.49,528.5C396.96,530.14 397.03,530.22 397.88,528.91C398.45,528.04 399.88,523.8 401.07,519.49ZM684.54,527.44C691.06,524.35 695.54,519.22 697.53,512.57C699.4,506.29 699.38,502.65 697.44,496.12C695.62,489.99 690.64,484.05 684.08,480.19C675.7,475.26 663.17,477.07 655.15,484.36C653.86,485.54 651.62,488.75 650.17,491.5C647.97,495.68 647.54,497.74 647.6,504.06C647.66,510.31 648.14,512.48 650.37,516.59C657.02,528.81 671.75,533.49 684.54,527.44ZM347.44,527.98C341.71,527.18 334.42,522.6 331.24,517.78C329.05,514.48 328.45,512.26 328.16,506.42C327.71,497.56 329.1,493.01 333.87,487.71C338.62,482.44 344.04,480.05 351.28,480.02C364.88,479.97 374.93,489.72 374.97,503C375,510.79 373.41,515.54 369.26,520.14C363.32,526.71 356.33,529.23 347.44,527.98ZM753.91,525C753.88,524.01 753.57,524.18 753,525.5C751.82,528.25 751.82,529.83 753,528C753.53,527.17 753.94,525.83 753.91,525ZM663.5,526.11C655.18,522.27 649,512.85 649,504C649,499.25 651.88,491.57 655.15,487.62C664.31,476.55 683.91,477.6 691.86,489.6C700.51,502.66 696.9,518.89 683.9,525.36C677.44,528.58 669.48,528.87 663.5,526.11ZM270.5,521C269.77,517.98 269.13,516.4 269.09,517.5C269,519.75 270.96,527.38 271.49,526.84C271.68,526.65 271.23,524.02 270.5,521ZM434.8,517.5C434.8,515.92 434.63,516.02 434,518C433.56,519.38 433.2,521.4 433.2,522.5C433.2,524.08 433.37,523.98 434,522C434.44,520.62 434.8,518.6 434.8,517.5ZM754.68,520.81C754.36,520.01 754.13,520.25 754.08,521.42C754.04,522.47 754.27,523.06 754.6,522.73C754.94,522.4 754.97,521.53 754.68,520.81ZM360.25,519.35C368.08,515.35 370.84,502.89 365.64,495.03C358.93,484.9 343.79,484.29 337.45,493.91C330.89,503.88 334.81,516.63 345.66,520.56C349.9,522.1 355.84,521.61 360.25,519.35ZM460.5,521C460.84,520.45 460.16,520 459,520C457.84,520 457.16,520.45 457.5,521C457.84,521.55 458.51,522 459,522C459.49,522 460.16,521.55 460.5,521ZM465.74,500.75C465.55,496.76 465.4,500.02 465.4,508C465.4,515.98 465.55,519.24 465.74,515.25C465.93,511.26 465.93,504.74 465.74,500.75ZM471,508.56C471,500.68 470.59,494.86 470,494.5C469.35,494.1 469,498.82 469,507.94C469,516.65 469.38,522 470,522C470.62,522 471,516.85 471,508.56ZM559.73,508C559.6,500.3 559.16,494 558.75,494C558.34,494 558,500.3 558,508C558,516.44 558.39,522 558.98,522C559.58,522 559.87,516.6 559.73,508ZM566.08,520.73C565.95,519.53 564.58,519.76 564.15,521.05C563.93,521.71 564.29,522.07 564.95,521.85C565.61,521.63 566.12,521.12 566.08,520.73ZM554.74,501.25C554.55,497.54 554.39,500.57 554.39,508C554.39,515.42 554.55,518.46 554.74,514.75C554.93,511.04 554.93,504.96 554.74,501.25ZM683.49,517.58C692.17,510.96 692.23,498.8 683.63,491.25C679.27,487.42 676.44,486.58 670.33,487.27C661.82,488.23 656.78,493.93 656.21,503.26C655.88,508.55 656.18,510.03 658.19,512.98C659.48,514.89 662.11,517.52 664.02,518.81C669.03,522.21 678.17,521.63 683.49,517.58ZM731.68,517.81C731.36,517.01 731.13,517.25 731.08,518.42C731.04,519.47 731.27,520.06 731.6,519.73C731.94,519.4 731.97,518.53 731.68,517.81ZM755.69,515.27C755.44,514.3 755.22,514.85 755.19,516.5C755.17,518.15 755.38,518.95 755.66,518.27C755.93,517.59 755.95,516.24 755.69,515.27ZM732.66,512.75C732.38,512.06 732.16,512.62 732.16,514C732.16,515.38 732.38,515.94 732.66,515.25C732.94,514.56 732.94,513.44 732.66,512.75ZM268.72,505.75C268.5,503.96 268.32,505.43 268.32,509C268.32,512.58 268.5,514.04 268.72,512.25C268.95,510.46 268.95,507.54 268.72,505.75ZM435.74,498.75C435.54,495.86 435.37,498.23 435.37,504C435.37,509.77 435.54,512.14 435.74,509.25C435.94,506.36 435.94,501.64 435.74,498.75ZM460.51,512.98C460.89,512.37 457.34,512 451,512C445.44,512 441.09,512.34 441.35,512.75C442.06,513.89 459.82,514.1 460.51,512.98ZM494.67,512.66C495.04,512.3 490.51,512 484.61,512C478.41,512 474.12,512.38 474.44,512.91C475.07,513.93 493.63,513.7 494.67,512.66ZM549.5,513C549.9,512.36 546.43,512.01 539.81,512.02C532.78,512.03 529.98,512.34 531,513C532.98,514.28 548.71,514.28 549.5,513ZM579.25,512.26C576.36,512.06 571.64,512.06 568.75,512.26C565.86,512.46 568.23,512.63 574,512.63C579.77,512.63 582.14,512.46 579.25,512.26ZM756.74,499.25C756.53,496.64 756.36,498.77 756.36,504C756.36,509.23 756.53,511.36 756.74,508.75C756.94,506.14 756.94,501.86 756.74,499.25ZM733.67,502.14C733.33,497.27 732.57,492.21 731.99,490.89L730.94,488.5L731.47,491C731.76,492.38 732.29,497.44 732.65,502.25C733.01,507.06 733.52,511 733.8,511C734.07,511 734.02,507.01 733.67,502.14ZM460.5,508C460.9,507.36 457.7,507 451.62,507C446.36,507 441.84,507.45 441.5,508C441.1,508.64 444.3,509 450.38,509C455.64,509 460.16,508.55 460.5,508ZM494,508C494,507.4 489.98,507 483.94,507C477.49,507 474.1,507.36 474.5,508C474.84,508.55 479.34,509 484.56,509C490.19,509 494,508.6 494,508ZM550,508C550,507.4 546,507 540,507C534,507 530,507.4 530,508C530,508.6 534,509 540,509C546,509 550,508.6 550,508ZM583,508C583,507.4 579.17,507 573.5,507C567.83,507 564,507.4 564,508C564,508.6 567.83,509 573.5,509C579.17,509 583,508.6 583,508ZM460,503C460,502.41 456.33,502 451,502C445.67,502 442,502.41 442,503C442,503.59 445.67,504 451,504C456.33,504 460,503.59 460,503ZM494,503C494,502.4 490.17,502 484.5,502C478.83,502 475,502.4 475,503C475,503.6 478.83,504 484.5,504C490.17,504 494,503.6 494,503ZM550,503C550,502.4 546.19,502 540.56,502C535.34,502 530.84,502.45 530.5,503C530.1,503.64 533.49,504 539.94,504C545.98,504 550,503.6 550,503ZM583,503C583,502.41 579.35,502 574.06,502C569.14,502 564.84,502.45 564.5,503C564.1,503.64 567.32,504 573.44,504C579.15,504 583,503.6 583,503ZM268.69,495.27C268.44,494.3 268.22,494.85 268.19,496.5C268.17,498.15 268.38,498.95 268.66,498.27C268.93,497.59 268.95,496.24 268.69,495.27ZM453,497L453,488.93L463.75,489.22L474.5,489.5L475.5,496.5L494,497.08L494,315L475.12,315L474.5,322.5L464.08,322.79C452.69,323.1 451.56,322.61 452.58,317.75L453.16,315L440.18,315L439.47,319.25C438.21,326.78 433.04,339.51 427.75,348.12C422.28,357.01 409.63,370.55 401.94,375.75C395.88,379.85 382.55,386.49 377.22,388.07L372.95,389.33L373.22,403.29L373.5,417.25L380,419.46C401.93,426.91 421.17,443.55 431.51,464C435.08,471.05 439.68,484.67 440.57,490.76C440.95,493.37 441.45,495.84 441.69,496.25C441.92,496.66 444.57,497 447.56,497L453,497ZM460,495.53C460,494.64 459.41,494.29 458.51,494.64C457.68,494.95 457.26,495.61 457.56,496.1C458.44,497.52 460,497.15 460,495.53ZM549.81,492.72L550.12,488.93L560.81,489.22L571.5,489.5L571.81,493.3L572.13,497.1L583.39,496.5L584.66,489.63C588.26,470.04 596.46,454.54 610.84,440.16C619.98,431.02 631.03,424.33 645.87,418.95L652.25,416.64L651.62,410.67C651.28,407.39 651,401.21 651,396.93L651,389.16L644.75,387.08C616.45,377.66 591.16,348.53 584.55,317.75C583.99,315.12 583.7,315 577.9,315L571.84,315L572.47,317.84C573.45,322.34 571.55,323.11 560.35,322.79L550.5,322.5L549.88,315L530,315L530,497.07L539.75,496.79L549.5,496.5L549.81,492.72ZM567,495C567,494.45 566.33,494 565.5,494C564.67,494 564,494.45 564,495C564,495.55 564.67,496 565.5,496C566.33,496 567,495.55 567,495ZM434.66,489.75C434.38,489.06 434.16,489.62 434.16,491C434.16,492.38 434.38,492.94 434.66,492.25C434.94,491.56 434.94,490.44 434.66,489.75ZM755.5,488C755.12,485.73 754.61,484.06 754.37,484.3C754.13,484.54 754.23,486.61 754.6,488.9C754.97,491.19 755.48,492.86 755.73,492.6C755.99,492.34 755.88,490.27 755.5,488ZM433.68,485.81C433.36,485.01 433.13,485.25 433.08,486.42C433.04,487.47 433.27,488.06 433.6,487.73C433.94,487.4 433.97,486.53 433.68,485.81ZM753,478.5C751.44,473.76 750.72,474.48 752.2,479.3C752.82,481.33 753.53,482.8 753.77,482.57C754,482.33 753.66,480.5 753,478.5ZM606.68,454.9C619.09,438.19 639.18,426.21 661.16,422.42C677.09,419.67 696.71,422.94 711,430.71C723.88,437.72 732.09,444.91 740.19,456.25C744.38,462.12 746.67,464.22 743.45,459.25C733.01,443.08 716.83,430.27 699.6,424.51C660.22,411.36 616.8,429.76 597.63,467.72C593.64,475.63 594.54,475.47 598.79,467.5C600.84,463.65 604.39,457.98 606.68,454.9ZM750.05,470.64C748.65,466.96 747.87,467.32 749.17,471.05C749.75,472.73 750.42,473.92 750.64,473.69C750.87,473.46 750.6,472.09 750.05,470.64ZM425,464C424.41,462.9 423.7,462 423.43,462C423.15,462 423.41,462.9 424,464C424.59,465.1 425.3,466 425.57,466C425.85,466 425.59,465.1 425,464ZM422.38,459.75C416.56,449.85 404.22,438.15 392.77,431.65C365.9,416.42 334.82,416.55 309.38,432C300.76,437.23 294.14,442.83 288.88,449.3C285.23,453.8 285.64,453.52 291.95,447.25C309.43,429.86 327.75,421.96 351,421.79C377.82,421.6 401.51,433.54 418.46,455.8C422.17,460.69 424.04,462.56 422.38,459.75ZM284.13,456.25C285.37,454.66 285.34,454.63 283.75,455.87C282.08,457.18 281.55,458 282.38,458C282.59,458 283.37,457.21 284.13,456.25ZM338,403.5C338,395.83 337.61,391 337,391C336.39,391 336,395.83 336,403.5C336,411.17 336.39,416 337,416C337.61,416 338,411.17 338,403.5ZM368,403.5C368,395.83 367.61,391 367,391C366.39,391 366,395.83 366,403.5C366,411.17 366.39,416 367,416C367.61,416 368,411.17 368,403.5ZM659,403.5C659,395.83 658.61,391 658,391C657.39,391 657,395.83 657,403.5C657,411.17 657.39,416 658,416C658.61,416 659,411.17 659,403.5ZM688.89,397.75C688.95,393.84 688.58,391 688,391C687.38,391 687.06,395.82 687.15,403.75C687.27,414.49 687.41,415.55 688.04,410.5C688.45,407.2 688.83,401.46 688.89,397.75ZM344,404.02C344,393.96 343.45,390.61 341.95,391.53C341.03,392.1 340.72,412.73 341.6,414.16C343.11,416.61 344,412.87 344,404.02ZM348,403.5C348,396.5 347.61,392 347,392C346.39,392 346,396.28 346,402.83C346,412.34 346.37,415 347.67,415C347.85,415 348,409.82 348,403.5ZM353,403.42C353,394.59 352.7,391.93 351.75,392.25C351.06,392.48 350.55,393.19 350.6,393.83C350.65,394.48 350.77,399.5 350.85,405C350.94,410.9 351.41,415 352,415C352.61,415 353,410.47 353,403.42ZM359,403.5C359,393.94 358.75,392 357.5,392C356.25,392 356,393.94 356,403.5C356,413.06 356.25,415 357.5,415C358.75,415 359,413.06 359,403.5ZM363.98,404.25C363.97,392.96 362.8,388.09 361.51,393.96C360.62,398.02 361.91,415 363.11,415C363.6,415 363.99,410.16 363.98,404.25ZM664,403C664,395.67 663.61,391 663,391C662.39,391 662,395.67 662,403C662,410.33 662.39,415 663,415C663.61,415 664,410.33 664,403ZM670,403.5C670,393.74 669.76,392 668.44,392C667.09,392 666.94,393.5 667.38,403.25C667.97,416.47 667.77,415 669,415C669.61,415 670,410.5 670,403.5ZM675,403.5C675,396.5 674.61,392 674,392C673.39,392 673,396.5 673,403.5C673,410.5 673.39,415 674,415C674.61,415 675,410.5 675,403.5ZM680,403.5C680,393.5 679.79,392 678.36,392C676.94,392 676.8,392.85 677.36,398.15C677.71,401.53 678,406.7 678,409.65C678,412.59 678.45,415 679,415C679.61,415 680,410.5 680,403.5ZM684,403.5C684,396.5 683.61,392 683,392C682.39,392 682,396.5 682,403.5C682,410.5 682.39,415 683,415C683.61,415 684,410.5 684,403.5ZM364,384.96C373.38,383.48 392.15,376.81 390.78,375.45C390.53,375.19 387.43,376.28 383.91,377.87C373.11,382.72 364.81,384.4 351.5,384.41C342.09,384.42 337.82,383.94 331.7,382.2C317.19,378.07 303.9,370.04 292.54,358.54C288.3,354.26 286.82,353.11 288.76,355.61C292.8,360.82 297.77,365.31 306.08,371.24C316.21,378.47 324.43,381.74 341.5,385.35C345.43,386.18 357.61,385.97 364,384.96ZM693.5,383.54C707.8,379.77 721.22,371.68 732.18,360.21C738.76,353.32 747.01,341.71 746.99,339.37C746.99,338.89 745.1,341.65 742.79,345.5C737.73,353.95 723.63,368.21 715.75,372.85C708.85,376.92 700.44,380.39 691.88,382.69C683.18,385.04 663.88,385.02 655,382.65C626.81,375.14 606.2,356.63 594.77,328.58C593.19,324.68 592.18,322.84 592.52,324.48C594.28,332.8 604.04,349.47 612.98,359.42C618.25,365.29 631.59,374.88 639.5,378.49C645.75,381.34 654.89,384.15 662,385.42C667.01,386.31 687.65,385.08 693.5,383.54ZM368.5,374.91C393.68,368.45 412.89,351.67 422.25,327.95C430.2,307.8 427.91,280.06 416.9,262.93C402.1,239.91 382.28,228 355.98,226.33C340.76,225.36 323.15,229.78 311.72,237.43C304.45,242.29 293.18,253.52 288.48,260.58C280.05,273.27 275.12,292.8 276.51,308C279.49,340.35 306.14,369.42 338.5,375.61C346.03,377.05 361.55,376.69 368.5,374.91ZM696.5,372.52C723.73,363.14 741.86,341.67 746.71,313.03C748.7,301.3 747.54,289.5 743.19,277.21C731.43,243.98 698.05,222.81 663.96,226.95C627.35,231.4 600.11,260.89 598.31,298C597.66,311.49 599.49,320.3 605.5,332.66C613.03,348.13 625.56,360.78 641,368.46C646.54,371.23 651.62,372.87 662.5,375.43C663.6,375.68 669.9,375.76 676.5,375.59C686.47,375.33 689.85,374.82 696.5,372.52ZM334.73,373.49C326.34,371.38 313.4,364.86 306.53,359.3C293.12,348.43 282.52,331.92 279.38,317C277.11,306.17 277.95,289.04 281.28,278.76C286.21,263.51 299.32,246.8 312.74,238.65C316.17,236.57 322.7,233.44 327.24,231.7C335.34,228.59 335.82,228.52 352,228.57C367.14,228.6 369.09,228.82 375.69,231.18C393.9,237.71 408.59,250.28 417.24,266.74C423.77,279.16 425.38,285.93 425.43,301C425.46,311.36 425.07,314.78 423.14,320.96C418.56,335.66 409.4,350.37 400.36,357.57C393.56,362.99 382.28,369.12 374.28,371.75C364.52,374.96 344.11,375.85 334.73,373.49ZM400.5,369.4C409.87,362.75 419.54,351.81 424.18,342.6C426.97,337.07 426.09,338.08 420.01,347.39C414.34,356.07 407.61,363.08 398.5,369.78C395.2,372.2 392.27,374.44 392,374.75C391.05,375.83 394.51,373.65 400.5,369.4ZM661.76,373.97C639.19,370.17 617.74,354.35 607.46,333.9C601.44,321.94 599.75,314.78 599.79,301.5C599.87,272.74 614.82,248.11 639.55,235.97C659.55,226.16 680.59,225.33 700.2,233.59C728.07,245.31 746.33,272.65 746.22,302.5C746.19,313.27 744.2,321.59 738.99,332.73C731.64,348.48 721.31,359.23 706.5,366.56C691.31,374.08 676.76,376.49 661.76,373.97ZM370.76,368.85C390.52,362.75 406.6,349.71 414.97,333C420.62,321.71 422.4,314.4 422.4,302.5C422.39,281.05 416.06,266.09 400.31,250.35C392.32,242.35 381.57,236.32 370,233.34C361.18,231.06 341.76,231.07 333.12,233.34C313.87,238.42 296.85,253.87 287.75,274.52C278.11,296.39 280.45,320.71 294.09,340.62C301.33,351.18 316.83,363.49 328.03,367.56C341.07,372.3 357.93,372.81 370.76,368.85ZM688.05,369.57C710.12,363.83 726.35,351.04 735.96,331.84C749.6,304.6 742.89,271.79 719.21,249.89C703.42,235.29 683.32,229.06 662.5,232.31C635.98,236.45 614.69,254.03 607.19,278C599.31,303.19 604.21,328.38 620.57,346.72C626.66,353.56 639.59,362.7 647.67,365.87C659.98,370.72 677.51,372.32 688.05,369.57ZM335.6,368.47C332.35,367.65 326.1,365.07 321.72,362.74C298.27,350.28 284.62,329.57 283.34,304.5C282.89,295.73 283.15,293.41 285.43,285.69C291.86,263.89 304.26,248.32 322.24,239.48C333.04,234.17 341.8,232.54 355.49,233.28C374.21,234.31 389.01,240.75 401.17,253.17C422.27,274.73 426.9,305.47 413.29,333.64C406.18,348.35 391.13,360.5 371.97,367C363.45,369.89 344.29,370.67 335.6,368.47ZM656.16,366.97C635.12,361.46 615.71,344.01 608.54,324.16C602.96,308.71 604.31,284.9 611.61,270.03C614.42,264.31 617.37,260.44 623.9,253.93C633.43,244.42 639.59,240.51 651.5,236.37C658.58,233.91 660.94,233.59 672,233.57C686.64,233.55 692,234.87 705.27,241.71C712.44,245.4 715.42,247.72 721.57,254.36C730.15,263.65 734.02,269.85 737.57,280.01C744.65,300.26 742.33,320.24 730.84,338.16C721.92,352.06 709.63,361.28 693.2,366.41C682.62,369.71 667.5,369.94 656.16,366.97ZM362.57,365.92C376.5,363.37 390.34,355.64 401.09,344.39C412.36,332.6 417.4,318.97 417.33,300.5C417.3,291.41 416.84,288.11 414.67,281.5C408.4,262.37 397.82,250.41 379.68,241.95C368.95,236.95 362.11,235.72 348.04,236.26C333.39,236.83 329.21,238.07 318.47,245.08C305.36,253.64 296.53,264.82 290.84,280.08C286.8,290.95 285.71,308.02 288.47,317.59C291.71,328.86 297.74,338.51 307.11,347.43C324.02,363.54 342.27,369.62 362.57,365.92ZM341.5,364.97C334.49,363.87 329.13,361.76 320.77,356.79C305.7,347.84 293.93,333.02 289.83,317.82C285.98,303.53 288.41,285.74 296.3,270.5C307.19,249.45 331.59,235.68 355.06,237.34C391.04,239.9 416,266.17 416,301.5C416,318.89 410.39,333.51 399.5,344.49C388.56,355.52 376.4,362.05 362.18,364.53C353.1,366.11 349.32,366.19 341.5,364.97ZM694.5,362.33C704.82,358.62 712.15,353.68 720.66,344.71C733.12,331.58 738.66,316.87 737.7,299.5C736.86,284.19 732.55,273.02 722.55,260.24C716.13,252.03 707.7,245.63 697.36,241.14C687.21,236.71 681.25,235.68 669.07,236.25C657.31,236.79 649.32,239.17 639.36,245.12C626.78,252.64 613.52,268.24 610.57,279C610.19,280.38 611.47,278.31 613.41,274.41C619.71,261.74 633.73,248.63 647.5,242.54C665.62,234.53 683.52,235.59 703.5,245.84C725.46,257.12 740.16,286.86 736.25,312.12C733.37,330.74 717.56,350.78 699.07,359.24C688.98,363.86 680.29,365.3 670.06,364.06C650.65,361.7 639.55,356.68 628,345.05C615.71,332.68 610.74,320.6 610.68,303C610.66,297.77 610.94,291.7 611.31,289.5C611.9,285.92 611.84,285.76 610.78,288C610.09,289.47 609.58,295.45 609.55,302.5C609.49,317.16 611.89,325.69 619.11,336.45C624.81,344.94 628.16,348.23 637.99,354.96C653.92,365.87 676.48,368.81 694.5,362.33ZM352.73,363.4C352.4,363.06 351.53,363.03 350.81,363.32C350.01,363.64 350.25,363.87 351.42,363.92C352.47,363.96 353.06,363.73 352.73,363.4ZM344.27,362.34C343.59,362.07 342.24,362.05 341.27,362.31C340.3,362.56 340.85,362.78 342.5,362.81C344.15,362.83 344.95,362.62 344.27,362.34ZM366.36,361.41C374.89,359.21 384.76,353.81 391.12,347.86L396.5,342.83L391,347.46C383.92,353.44 371.39,359.56 362.5,361.39C358.65,362.19 356.56,362.87 357.86,362.92C359.15,362.96 362.98,362.29 366.36,361.41ZM686.73,361.4C686.4,361.06 685.53,361.03 684.81,361.32C684.01,361.64 684.25,361.87 685.42,361.92C686.47,361.96 687.06,361.73 686.73,361.4ZM356.5,360.06C359.76,359.38 358.73,359.21 350.93,359.11C339.53,358.98 333.57,357.38 321.76,351.31C299.42,339.81 288.54,314.2 294.83,287.91C297.37,277.32 302.89,267.94 311.91,258.9C320.93,249.88 329.15,245.53 341.35,243.34C364.81,239.12 391.1,250.69 402.58,270.28C408.67,280.66 411.28,290.01 411.29,301.5C411.32,315.22 407.39,327.53 399.32,339L396.86,342.5L399.99,339C403.55,335.02 409.25,323.69 411.05,317C412.88,310.23 412.68,293.64 410.69,286C406.29,269.15 396.07,256.42 380.36,248.25C370.42,243.08 362.1,241.03 351,241.03C333.94,241.02 318.22,248.24 307.11,261.19C301.64,267.57 295.32,279.58 293.37,287.31C291.06,296.47 291.07,309.54 293.38,317.35C295.55,324.67 302.29,336.87 307.35,342.64C317.42,354.13 342.39,362.98 356.5,360.06ZM696.75,358.04C700.19,356.42 703,354.83 703,354.52C703,354.21 701.11,354.92 698.8,356.1C696.5,357.28 693.01,358.83 691.05,359.55C689.1,360.27 688.17,360.89 689,360.93C689.83,360.97 693.31,359.67 696.75,358.04ZM690.5,356.7C694.35,355.37 699.96,353.04 702.97,351.52C708.98,348.47 719.27,339.11 724.6,331.86C728.7,326.29 733.04,315.19 732.88,310.73C732.79,308.08 732.62,308.34 731.97,312.21C730.64,320.13 724.78,330.85 717.83,338.11C697.58,359.27 670.72,364.36 645.28,351.86C624.81,341.8 612.39,317.8 615.91,295.11C617.66,283.84 620.25,277.85 627.61,268C629.67,265.24 629.35,265.44 626.09,268.9C621.55,273.74 616.68,283.07 615.08,290.03C613.56,296.62 613.78,309.75 615.53,316.45C619.16,330.38 631.47,346.72 642.5,352.23C647.99,354.96 658.79,358.64 663.5,359.37C670.21,360.41 683.57,359.08 690.5,356.7ZM363.73,358.4C363.4,358.06 362.53,358.03 361.81,358.32C361.01,358.64 361.25,358.87 362.42,358.92C363.47,358.96 364.06,358.73 363.73,358.4ZM374.56,354.31C393.59,345.1 406.2,327.09 407.7,306.97C408.95,290.16 403.64,275.56 392.08,264.02C369.96,241.96 335.77,241.28 314.44,262.48C300.13,276.69 294.25,295.72 298.54,313.91C304.88,340.81 335.57,359.84 362.47,353.56C379.59,349.55 394.44,336.55 400.02,320.69C404.92,306.75 404.64,294.17 399.17,282.62C388.65,260.41 368.49,249.35 345,252.9C325.73,255.82 308.5,271.45 303.53,290.54C300.63,301.66 302.25,314.6 307.72,324C311.47,330.46 321.55,339.98 328.52,343.65C347.02,353.41 364.85,351.92 381.48,339.24C394.02,329.68 401.43,311.28 399.02,295.67C397.5,285.81 394.8,280.77 386.48,272.31C378.38,264.08 368.64,258.74 358.18,256.8C336.43,252.75 311.86,271.28 307.83,294.77C305.56,308.02 309.6,320.32 319.6,330.54C330.21,341.39 344.2,346.81 356.93,345.01C379.43,341.83 396.27,321.3 394.73,298.9C394.18,290.92 390.52,280.68 387.1,277.59C386.17,276.75 387.22,279.7 389.43,284.13C393.23,291.79 393.43,292.66 393.42,301.35C393.4,311.78 390.9,319.28 384.56,327.92C377.64,337.34 364.16,344 352.02,344C335.97,344 318.81,332.67 311.84,317.47C309.91,313.27 309.55,310.79 309.53,301.48C309.5,291.05 309.67,290.11 312.73,283.89C318.7,271.77 328.63,263.22 340.93,259.6C351,256.64 363.05,258.19 373.36,263.78C380.25,267.52 392.13,279.39 395.08,285.5C398.58,292.73 399.03,306.41 396.06,315.32C384.39,350.38 343.4,359.69 317.07,333.25C309.37,325.51 305.57,318.39 304.09,308.9C299.96,282.47 319.13,257.95 347.01,254C355.94,252.73 363.73,253.95 372.7,258.02C385.02,263.61 391.75,270.27 398.28,283.38C400.92,288.67 401.39,290.87 401.79,299.65C402.18,308.14 401.89,311.01 400.05,317.15C398.83,321.19 396.8,326.3 395.52,328.5C391.62,335.23 381.28,344.28 372.59,348.56C365.25,352.18 363.95,352.49 354.47,352.84C339.9,353.38 329.87,350.14 317.26,340.82C303.74,330.83 296.01,311.55 298.79,294.75C300.57,283.98 306.82,272.1 314.96,263.98C322.45,256.52 329.56,252.62 339.52,250.51C359.63,246.25 377.27,251.2 391.02,264.95C399.07,273 403.44,281.32 405.73,292.94C408.5,306.99 405.4,321.63 397.07,333.9C391.12,342.65 379.59,351.76 369.75,355.48C367.14,356.46 365,357.47 365,357.7C365,358.4 369.13,356.94 374.56,354.31ZM686.29,352.51C700.83,348.72 717.4,336.23 723.8,324.23C726.4,319.34 728.96,309.41 728.99,304.08C729.01,300.72 727.97,304.15 727.09,310.35C725.77,319.7 722.78,325.31 714.57,333.84C702.53,346.36 688.09,353.02 673.14,352.98C663.37,352.94 658.19,351.73 649.5,347.45C636.07,340.81 626.98,330.34 622.84,316.69C621.12,311.02 620.83,308.07 621.24,300.15C621.82,288.8 624.11,281.58 629.86,272.98C632.05,269.69 633.54,267 633.16,267C631.96,267 625.68,277.25 623.06,283.5C620.82,288.82 620.53,290.91 620.52,302C620.5,311.91 620.9,315.54 622.41,319.5C624.75,325.63 630.14,334.37 634.35,338.83C638.38,343.1 649.87,349.85 656.98,352.13C663.94,354.35 678.49,354.54 686.29,352.51ZM283.82,347.75C282.54,345.97 279.82,341.35 277.78,337.5C275.73,333.65 274.04,330.85 274.03,331.28C273.98,332.66 280.2,344.4 282.76,347.75C285.98,351.97 286.83,351.98 283.82,347.75ZM684.46,348.47C691.9,346.53 700.81,341.8 706.57,336.73C711.91,332.03 718.1,319.98 720.56,309.5C723.67,296.27 721.46,285.45 713.14,273.21C707.84,265.39 702.16,260.48 693.85,256.5C679.51,249.62 665.7,249.64 651.34,256.55C642.53,260.78 635.03,268.65 629.76,279.19C624.88,288.95 623.68,294.71 624.5,304.44C626.08,323.18 635.84,336.69 654.83,346.42C661.9,350.05 674.93,350.95 684.46,348.47ZM664.28,348.01C653.2,345.67 635.57,332.95 631.01,324.02C625.31,312.84 624.17,297.13 628.26,285.88C633.6,271.15 643.14,260.84 656.02,255.87C663.86,252.84 677.97,252.18 685.1,254.49C704.4,260.76 717.65,275.79 720.3,294.45C721.16,300.53 721,302.66 719.17,309.87C715.3,325.06 710.11,333.39 700.32,340.13C690.81,346.67 674.67,350.2 664.28,348.01ZM681.89,344.94C693.95,342.16 704.72,333.86 710.47,322.92C717.23,310.06 718.64,299.46 715.12,288.12C711.14,275.35 703.96,267.3 690.44,260.44C682.84,256.58 682.45,256.5 671.99,256.5C661.55,256.5 661.14,256.59 653.6,260.42C644.32,265.13 638.48,271.22 633.5,281.36C627.03,294.51 626.83,306.58 632.86,319.21C636.36,326.54 646.8,337.31 654,341.03C662.66,345.5 673.1,346.96 681.89,344.94ZM661.5,342.6C654.25,340.3 649.37,337.19 643,330.8C631.71,319.5 627.67,305.56 631.47,291.06C633.61,282.87 635.76,278.7 641.31,271.93C654.45,255.89 677.36,253.04 696.15,265.1C709.34,273.56 717.5,291.02 715.12,305.67C711.35,328.88 694.45,344.13 672.73,343.93C668.75,343.9 663.7,343.3 661.5,342.6ZM364.94,338.55C367.38,337.67 371.78,335.14 374.72,332.92C388.46,322.55 394.04,305.95 389.12,290.12C386.57,281.94 383.12,276.32 377.28,270.86C370.05,264.1 362.79,261.51 350.98,261.51C342.22,261.5 340.91,261.77 334.77,264.79C313.94,275.05 305.94,301.68 317.66,321.69C326.9,337.45 347.52,344.8 364.94,338.55ZM681.79,339.96C689.01,338.3 694.75,335.03 700.62,329.25C720.5,309.69 714.89,277.42 689.43,264.89C681.18,260.83 669.63,259.8 660.87,262.35C644.79,267.02 633.75,282.67 633.58,301C633.49,311.18 635.38,317.35 640.78,324.48C650.65,337.51 666.49,343.49 681.79,339.96ZM340.84,338.15C333.11,335.58 329,332.87 323.13,326.45C316.2,318.87 313.63,311.92 313.66,300.88C313.69,293.41 314.09,291.4 316.69,285.88C320.92,276.9 327.7,269.77 335.79,265.78C341.81,262.82 343.29,262.51 350.98,262.57C362.9,262.68 369.58,265.4 377.57,273.41C382.57,278.43 384.13,280.85 386.42,287.16C388.85,293.84 389.16,295.97 388.85,303.66C388.41,314.8 385.13,321.94 377.24,328.98C365.99,339 353.16,342.23 340.84,338.15ZM662.49,338.27C650.73,334.05 642.87,327.22 638.14,317.12C635.81,312.17 635.5,310.26 635.5,301C635.5,291.69 635.8,289.85 638.2,284.75C641.75,277.17 649.87,268.71 656.89,265.26C661.81,262.85 663.66,262.51 672,262.5C680.59,262.5 682.12,262.8 688,265.63C697.51,270.2 702.33,274.86 706.72,283.75C710.34,291.06 710.5,291.83 710.5,301.45C710.5,310.2 710.16,312.21 707.9,317C704.51,324.15 696.28,332.25 688.49,336.08C680.4,340.06 669.94,340.94 662.49,338.27ZM430.93,328.5C430.93,327.95 430.29,328.62 429.5,330C428.71,331.38 428.07,332.95 428.07,333.5C428.07,334.05 428.71,333.38 429.5,332C430.29,330.62 430.93,329.05 430.93,328.5ZM365.87,327.47C375.73,322.11 381.15,312.69 381.12,300.99C381.06,282.88 366.72,268.87 349.64,270.24C321.46,272.5 311.09,310.2 334.36,325.75C340.93,330.14 344.17,330.99 353.04,330.65C359.1,330.41 361.61,329.79 365.87,327.47ZM682.91,329.43C693.89,326.17 701.94,315.16 702.79,302.24C703.62,289.57 697.41,278.86 685.9,273.11C674.64,267.48 662.2,269.27 653.08,277.84C645.95,284.53 643.52,290.41 643.51,301C643.5,311.37 645.93,316.95 653.35,323.62C661.13,330.62 671.84,332.72 682.91,329.43ZM751.97,327.5C751.97,326.95 751.53,327.18 751,328C750.47,328.82 750.03,329.95 750.03,330.5C750.03,331.05 750.47,330.82 751,330C751.53,329.18 751.97,328.05 751.97,327.5ZM273.08,326.9C272.56,325.58 272.1,325.03 272.06,325.67C271.98,327.23 273.14,330.19 273.65,329.69C273.86,329.47 273.61,328.21 273.08,326.9ZM667.73,328.93C658.67,326.75 651.83,321.36 647.85,313.27C646,309.52 645.51,306.89 645.53,301C645.58,288.07 650.97,279.53 662.27,274.46C667.39,272.16 669.25,271.83 674.54,272.25C685.32,273.12 695.33,280.36 699.48,290.29C701.65,295.5 701.42,306.47 699.02,311.76C695.74,318.99 692.12,322.82 685.64,325.93C678.58,329.31 673.11,330.23 667.73,328.93ZM339.45,326.59C329.59,322.1 324,312.41 324,299.79C324,291.67 325.48,287.69 330.59,282.03C344.49,266.65 367.73,270.06 376.59,288.78C383.32,303.01 377.38,320.19 363.51,326.65C356.66,329.84 346.54,329.81 339.45,326.59ZM361.5,325.64C371.95,320.75 377.01,312.58 376.98,300.67C376.94,289.41 372.44,281.57 363.41,277.06C350.94,270.83 335.83,275.36 328.97,287.38C325.33,293.75 324.48,299.16 325.97,306.37C329.45,323.1 346.8,332.52 361.5,325.64ZM684.67,324.65C693.99,319.9 698.94,311.87 698.97,301.5C699,292.94 697.44,288.44 692.67,283.24C683.78,273.56 672.23,271.38 660.88,277.26C651.5,282.11 647,289.73 647,300.74C647,309.39 651.51,318.67 657.69,322.72C666.25,328.32 676.09,329.03 684.67,324.65ZM343.38,324.38C341.11,323.57 337.56,321.25 335.49,319.21C330.05,313.83 328.05,308.82 328.02,300.46C328,294.27 328.39,292.75 331.25,287.99C333.44,284.34 336.11,281.58 339.42,279.54C343.7,276.9 345.28,276.5 351.49,276.5C357.71,276.5 359.29,276.9 363.55,279.53C370.66,283.92 374.34,290.33 374.84,299.18C375.34,307.94 373.34,313.47 367.72,318.93C360.93,325.52 352.14,327.49 343.38,324.38ZM666.79,324.73C656.51,321.33 649.97,312.8 649.17,301.73C648.61,293.88 650.85,288.35 656.92,282.68C674.43,266.29 700.29,281.6 696.6,306.17C694.72,318.73 678.74,328.67 666.79,324.73ZM724.54,305.77L724.97,298.5L723.62,306.5C722.88,310.9 721.54,316.24 720.64,318.37C718.15,324.26 718.84,324.19 721.64,318.27C723.32,314.71 724.25,310.73 724.54,305.77ZM270.13,314.9C269.64,311.93 269.18,310.68 269.12,312.12C268.98,315.14 270.08,321.26 270.65,320.69C270.86,320.48 270.62,317.87 270.13,314.9ZM591.68,318.81C591.36,318.01 591.13,318.25 591.08,319.42C591.04,320.47 591.27,321.06 591.6,320.73C591.94,320.4 591.97,319.53 591.68,318.81ZM360,316.25C370.08,310.1 371.52,296 362.9,287.8C352.6,277.99 336.61,284.06 334.43,298.62C332.32,312.66 348.08,323.52 360,316.25ZM754.68,316.81C754.36,316.01 754.13,316.25 754.08,317.42C754.04,318.47 754.27,319.06 754.6,318.73C754.94,318.4 754.97,317.53 754.68,316.81ZM567.15,315.75C566.01,314.61 563.71,315.72 564.52,317.03C564.82,317.51 565.75,317.65 566.6,317.32C567.6,316.94 567.79,316.39 567.15,315.75ZM679.68,316.94C687.09,314.14 692,304.43 689.92,296.69C688.43,291.17 685.35,287.35 680.49,285C668.44,279.16 656.06,287.31 656.02,301.1C656,307.55 658.41,312.01 663.92,315.73C667.65,318.24 674.79,318.79 679.68,316.94ZM434.68,314.81C434.36,314.01 434.13,314.25 434.08,315.42C434.04,316.47 434.27,317.06 434.6,316.73C434.94,316.4 434.97,315.53 434.68,314.81ZM460,316C460,315.45 459.58,315 459.06,315C458.54,315 457.84,315.45 457.5,316C457.16,316.55 457.58,317 458.44,317C459.3,317 460,316.55 460,316ZM465.74,297.25C465.55,293.54 465.39,296.57 465.39,304C465.39,311.43 465.55,314.46 465.74,310.75C465.93,307.04 465.93,300.96 465.74,297.25ZM471,304.06C471,296.51 470.58,290.86 470,290.5C469.35,290.1 469,294.66 469,303.44C469,311.81 469.38,317 470,317C470.62,317 471,312.02 471,304.06ZM554.74,297.25C554.55,293.54 554.39,296.57 554.39,304C554.39,311.43 554.55,314.46 554.74,310.75C554.93,307.04 554.93,300.96 554.74,297.25ZM560,304C560,296 559.62,291 559,291C558.38,291 558,296 558,304C558,312 558.38,317 559,317C559.62,317 560,312 560,304ZM590.66,313.75C590.38,313.06 590.16,313.62 590.16,315C590.16,316.38 590.38,316.94 590.66,316.25C590.94,315.56 590.94,314.44 590.66,313.75ZM755.69,311.27C755.44,310.3 755.22,310.85 755.19,312.5C755.17,314.15 755.38,314.95 755.66,314.27C755.93,313.59 755.95,312.24 755.69,311.27ZM435.71,306.75C435.47,305.51 435.27,306.52 435.27,309C435.27,311.48 435.47,312.49 435.71,311.25C435.94,310.01 435.94,307.99 435.71,306.75ZM589.73,297.72C589.52,295.4 589.35,297.55 589.35,302.5C589.36,307.45 589.53,309.35 589.74,306.72C589.94,304.09 589.94,300.04 589.73,297.72ZM494,308.83C494,308.38 489.7,308 484.44,308C478.13,308 475.1,308.35 475.52,309.03C476.28,310.26 494,310.07 494,308.83ZM550,309.04C550,308.39 546.23,308 539.94,308C534.41,308 530.09,308.34 530.35,308.75C531.11,309.96 550,310.24 550,309.04ZM268.72,300.77C268.5,298.97 268.32,300.2 268.31,303.5C268.3,306.8 268.49,308.27 268.71,306.77C268.94,305.27 268.95,302.57 268.72,300.77ZM456.25,308.26C453.36,308.06 448.64,308.06 445.75,308.26C442.86,308.46 445.23,308.63 451,308.63C456.77,308.63 459.14,308.46 456.25,308.26ZM578.78,308.27C576.19,308.06 571.69,308.06 568.78,308.26C565.88,308.46 568,308.63 573.5,308.63C579,308.64 581.38,308.47 578.78,308.27ZM756.07,294.39L755.05,289.5L755.53,294.39C755.79,297.08 756.08,301.58 756.18,304.39L756.37,309.5L756.73,304.39C756.93,301.59 756.64,297.09 756.07,294.39ZM460.5,304C460.9,303.36 457.68,303 451.56,303C445.85,303 442,303.4 442,304C442,304.59 445.65,305 450.94,305C455.86,305 460.16,304.55 460.5,304ZM494,304C494,303.4 490.15,303 484.44,303C478.32,303 475.1,303.36 475.5,304C475.84,304.55 480.14,305 485.06,305C490.35,305 494,304.59 494,304ZM550,304C550,303.4 546,303 540,303C534,303 530,303.4 530,304C530,304.6 534,305 540,305C546,305 550,304.6 550,304ZM583,304C583,303.4 579.17,303 573.5,303C567.83,303 564,303.4 564,304C564,304.6 567.83,305 573.5,305C579.17,305 583,304.6 583,304ZM436.53,296.47C436.14,292.82 435.58,290.08 435.29,290.38C435,290.67 435.08,293.89 435.47,297.53C435.86,301.18 436.42,303.92 436.71,303.62C437,303.33 436.92,300.11 436.53,296.47ZM731.48,288.92C726.54,269.86 714.87,255.46 697.14,246.56C675.47,235.68 651.17,239.62 631.17,257.27C622.94,264.53 617.96,270.95 614.41,278.87C610.71,287.13 611.64,286.41 616.17,277.5C622.85,264.37 637.1,251.92 653.22,245.15C658.89,242.77 660.72,242.52 672,242.54C682.4,242.56 685.5,242.93 690.43,244.77C703.47,249.62 716.2,260.01 722.82,271.21C726.84,278.01 730.86,289.24 731.8,296.3C732.35,300.44 732.55,300.86 732.8,298.36C732.97,296.63 732.38,292.38 731.48,288.92ZM461,299C461,298.4 457.17,298 451.5,298C445.83,298 442,298.4 442,299C442,299.6 445.83,300 451.5,300C457.17,300 461,299.6 461,299ZM494,299C494,298.4 490.17,298 484.5,298C478.83,298 475,298.4 475,299C475,299.6 478.83,300 484.5,300C490.17,300 494,299.6 494,299ZM550,299C550,298.4 546,298 540,298C534,298 530,298.4 530,299C530,299.6 534,300 540,300C546,300 550,299.6 550,299ZM583,299C583,298.4 579.17,298 573.5,298C567.83,298 564,298.4 564,299C564,299.6 567.83,300 573.5,300C579.17,300 583,299.6 583,299ZM727.66,295.75C727.38,295.06 727.16,295.62 727.16,297C727.16,298.38 727.38,298.94 727.66,298.25C727.94,297.56 727.94,296.44 727.66,295.75ZM724.53,284.8C722.07,277.28 715.04,266.26 709.5,261.23C706.75,258.74 700.23,254.63 695.01,252.1L685.53,247.5L672.01,247.5C658.56,247.5 658.47,247.51 651,251.1C643.75,254.58 631.34,263.67 632.39,264.73C632.68,265.01 635.07,263.34 637.71,261.02C649.25,250.84 665.35,246.36 680.94,248.99C691.68,250.8 704.38,257.45 711.07,264.76C717.64,271.94 723.86,284.55 724.81,292.61C725.5,298.47 725.5,298.47 725.81,294.1C725.99,291.67 725.41,287.49 724.53,284.8ZM567.5,292C567.84,291.45 567.39,291 566.5,291C565.61,291 565.16,291.45 565.5,292C565.84,292.55 566.29,293 566.5,293C566.71,293 567.16,292.55 567.5,292ZM459.73,291.4C459.4,291.06 458.53,291.03 457.81,291.32C457.01,291.64 457.25,291.87 458.42,291.92C459.47,291.96 460.06,291.73 459.73,291.4ZM590.68,286.81C590.36,286.01 590.13,286.25 590.08,287.42C590.04,288.47 590.27,289.06 590.6,288.73C590.94,288.4 590.97,287.53 590.68,286.81ZM754.66,285.75C754.38,285.06 754.16,285.62 754.16,287C754.16,288.38 754.38,288.94 754.66,288.25C754.94,287.56 754.94,286.44 754.66,285.75ZM434.68,285.81C434.36,285.01 434.13,285.25 434.08,286.42C434.04,287.47 434.27,288.06 434.6,287.73C434.94,287.4 434.97,286.53 434.68,285.81ZM748.61,267.46C739,246.46 717.78,227.59 696.52,221.13C680.39,216.23 659.31,217.22 641.83,223.7C629.29,228.35 613.75,240.12 606.26,250.64C605.09,252.27 608.79,249 614.46,243.37C623.67,234.25 625.9,232.6 635.14,228.13C648.35,221.73 654.86,220.02 668.58,219.31C686.94,218.36 701.19,222.14 716.08,231.91C729.84,240.95 743.84,257.15 748.56,269.53C749.51,272.01 750.49,273.84 750.75,273.59C751,273.33 750.04,270.58 748.61,267.46ZM598.9,264.25C600.62,260.81 601.8,258 601.53,258C600.97,258 595,269.55 595,270.64C595,271.8 595.63,270.77 598.9,264.25ZM425.42,261.25C414.53,242.55 395.55,226.75 377,220.92C351.7,212.97 323.26,218.14 301.92,234.56C296.05,239.08 285.64,249.94 283.78,253.5C282.49,255.96 282.35,256.1 289.92,247.23C300.1,235.3 314.58,226.14 330.57,221.51C337.77,219.42 341.34,219 351.8,219C366.21,219 373.71,220.5 384.91,225.63C400.32,232.68 412.53,243.24 422.06,257.75C428.05,266.88 429.7,268.59 425.42,261.25Z"/>
</svg>
