<?xml version="1.0" encoding="UTF-8" standalone="no"?>
<!DOCTYPE svg PUBLIC "-//W3C//DTD SVG 1.1//EN" "http://www.w3.org/Graphics/SVG/1.1/DTD/svg11.dtd">
<svg width="100%" height="100%" viewBox="0 0 1024 1024" version="1.1" xmlns="http://www.w3.org/2000/svg" xmlns:xlink="http://www.w3.org/1999/xlink" xml:space="preserve" xmlns:serif="http://www.serif.com/" style="fill-rule:evenodd;clip-rule:evenodd;stroke-linejoin:round;stroke-miterlimit:2;">
    <path d="M200,738C183.32,737.49 182.94,736.97 198,735.25L205.5,734.4L191,733.53C176.84,732.68 174.82,731.41 187,731.02C190.03,730.93 196.1,730.26 200.5,729.54L208.5,728.24L194.19,728.12C186.32,728.05 180.12,727.61 180.42,727.13C180.98,726.23 206.39,724.09 221,723.72C229.05,723.51 229.23,723.46 224.5,722.71C207.56,720.05 202.87,717.76 197.95,709.77L195.02,705L175,705L175,697.48C175,690.66 175.42,689.07 179.55,680.24L184.09,670.51L183.04,662.01C182.46,657.33 181.47,640.47 180.84,624.55C178.8,572.76 182.82,495.15 188.64,473.92C191.33,464.1 202.79,451.06 210.99,448.49C212.36,448.06 224.51,447.44 237.99,447.11L262.5,446.5L262.75,439.5C263.17,428.17 265.95,404.93 267.57,399.21C269.41,392.77 274.4,386.96 280.81,383.82C284.97,381.78 287.29,381.48 301.32,381.16C315.51,380.83 317.06,380.62 316.46,379.14C310.69,364.93 310.95,367.02 311.23,337.19L311.5,309.5L321,306.33C326.23,304.59 331.06,303.12 331.75,303.08C332.67,303.02 333,305.52 333,312.5L333,322L469.5,321.94L475.98,310.84C487.65,290.85 495.93,284.75 511.54,284.65C518.8,284.6 520.49,284.96 526.23,287.79C534.57,291.9 540.15,297.92 548.04,311.33L554.32,322L691,322L691,312.5C691,305.53 691.33,303.02 692.25,303.07C692.94,303.11 697.77,304.59 703,306.37L712.5,309.61L712.5,337.06C712.5,365.68 712.42,366.35 707.5,379.14C706.93,380.62 708.52,380.83 722.68,381.2C740.15,381.65 743.95,382.64 749.68,388.18C755.99,394.29 758.23,403.34 760.37,431.45L761.51,446.4L769,446.64C773.13,446.78 784.3,447.13 793.83,447.43C814.01,448.06 816.99,448.96 824.41,456.63C833.24,465.74 835.83,472.25 838.46,492C844.41,536.58 845.76,625.75 841.08,665C840.32,671.4 840.38,671.65 845.15,681.41C849.51,690.32 850,692.01 850,698.16L850,705L828.91,705L827.2,708.13C822.29,717.14 816.44,720.65 804.66,721.65C800.41,722.01 796.7,722.68 796.41,723.15C796.12,723.62 800.3,724.01 805.69,724.02C816.26,724.05 843.76,726.43 844.74,727.4C845.07,727.73 838.62,728.06 830.42,728.14L815.5,728.27L826.5,729.68C847.87,732.4 847.75,732.31 831.5,733.54C823.25,734.17 817.59,734.75 818.93,734.84C820.27,734.93 825.45,735.56 830.43,736.25L839.5,737.5L823.5,738.11C802.78,738.91 703.6,738.9 672,738.11C650.15,737.55 648.47,737.4 656.5,736.67C661.45,736.22 665.95,735.7 666.5,735.51C667.05,735.31 659.85,735.07 650.5,734.96C631.73,734.75 632.97,733.71 653.5,732.46C672.47,731.31 671.32,730.15 651,729.93C635.52,729.77 633.64,729.6 639.5,728.9C651.62,727.45 687.55,725 697.73,724.93C709.65,724.84 713.97,723.65 706.13,722.61C694.8,721.11 687.54,715.56 684.99,706.46L683.74,702L340.26,702L338.95,706.67C336.42,715.71 326.1,723 315.82,723C314.27,723 313,723.45 313,724C313,724.61 317.43,725.01 324.25,725.02C334.1,725.04 354.97,726.38 380.25,728.61C393.95,729.82 388.53,730.69 369.75,730.29C348.7,729.84 347.13,731.35 367.46,732.5C390.24,733.78 391.21,734.74 370,735.02C351.73,735.26 351.1,735.33 360,736.11C365.23,736.56 370.62,737.08 372,737.25C373.38,737.42 352.9,737.92 326.5,738.36C279.68,739.14 233.3,739.01 200,738ZM190.17,695.02C190.35,694.49 190.35,690.14 190.17,685.36L189.84,676.67L185.92,683.9C183.76,687.87 182,691.55 182,692.06C182,692.58 183.17,693 184.61,693C186.51,693 187.06,693.4 186.64,694.5C186.25,695.51 186.68,696 187.95,696C188.98,696 189.98,695.56 190.17,695.02ZM837.3,694.35C836.78,692.98 837.13,692.82 839.34,693.37C842.81,694.24 842.73,693.37 838.54,685.23C833.37,675.16 833.4,675.16 833.22,685.43C833.09,693.59 833.3,694.93 834.78,695.32C837.77,696.1 837.95,696.04 837.3,694.35ZM315.5,689.5L335.5,684.14L509.19,683.76C643.72,683.46 683.95,683.65 687.68,684.59C690.33,685.27 692.77,685.65 693.1,685.44C693.44,685.23 696.82,686 700.61,687.16C707.19,689.16 709.84,689.26 760,689.45C796.32,689.58 812.73,689.31 813.25,688.57C813.75,687.85 814.32,687.99 814.98,689C815.86,690.33 815.97,690.33 815.97,689C815.97,684.46 816.5,684.51 772.29,684.26C710.15,683.91 707.32,683.76 695.5,680.2C690,678.54 684.6,676.97 683.5,676.71C682.32,676.43 682.97,676.18 685.07,676.12C687.04,676.05 691.99,677.23 696.07,678.73L703.5,681.45L752.5,681.74C779.45,681.89 800.94,681.65 800.25,681.2C799.57,680.75 778.64,680.27 753.75,680.12C728.86,679.97 706.45,679.46 703.95,678.99C701.44,678.51 696.94,677.09 693.95,675.81L688.5,673.5L630.5,673.81C595.89,673.99 572.12,674.49 571.55,675.06C570.95,675.65 573.74,676.04 579.05,676.1C589.37,676.22 586.2,677.75 575.31,677.9C571.35,677.96 567.84,678.45 567.5,679C566.65,680.38 456.77,680.37 455.39,678.99C454.84,678.44 450.36,677.58 445.44,677.09L436.5,676.19L444.75,676.34C449.29,676.43 452.87,676.11 452.72,675.64C452.27,674.3 434.61,673.8 383,673.64C336.28,673.5 335.4,673.54 329.38,675.72C318.41,679.69 315.33,679.91 268.37,680.05C242.21,680.13 221.71,680.58 220.91,681.11C220.04,681.68 238.74,681.92 269.5,681.73L319.5,681.44L327,678.69C331.12,677.18 335.17,676.09 336,676.26C337.9,676.65 321.71,681.77 314.74,682.99C311.86,683.49 286.83,684.03 259.11,684.2C209.27,684.5 208.72,684.52 207.97,686.56C207.29,688.38 207.53,688.58 209.98,688.22C211.51,687.99 213.08,688.32 213.47,688.95C213.98,689.78 227.74,690.01 264.84,689.79L315.5,689.5ZM340,681.25C340,680.57 399.92,680.61 416.5,681.31C420.35,681.47 404.71,681.69 381.75,681.8C358.79,681.91 340,681.66 340,681.25ZM603.14,681.52C603.81,680.85 679.12,680.79 679.79,681.45C680.09,681.75 662.86,682 641.5,682C620.14,682 602.88,681.78 603.14,681.52ZM808.27,681.34C807.59,681.07 806.24,681.05 805.27,681.31C804.3,681.56 804.85,681.78 806.5,681.81C808.15,681.83 808.95,681.62 808.27,681.34ZM441.28,680.26C443.91,680.06 447.96,680.06 450.28,680.27C452.6,680.48 450.45,680.65 445.5,680.65C440.55,680.64 438.65,680.47 441.28,680.26ZM570.75,680.28C572.54,680.05 575.46,680.05 577.25,680.28C579.04,680.5 577.58,680.68 574,680.68C570.42,680.68 568.96,680.5 570.75,680.28ZM824.25,652.85C824.9,652.44 826.01,652.59 826.72,653.18C829.6,655.57 827.86,649.77 823.98,644.09C819.19,637.08 813.76,625.43 808.41,610.76C804.58,600.22 802.22,596.79 803.27,603.27C804.04,608.03 812.23,629.5 816.76,638.64C820.45,646.07 820.67,647.04 820.83,656.5C820.92,662 821.33,669.42 821.75,673C822.43,678.87 822.53,678.24 822.78,666.54C822.97,657.9 823.46,653.33 824.25,652.85ZM461.97,675.58C463.27,672.17 463.53,599.13 462.25,597.85C460.53,596.13 460.11,602.07 459.39,638.1C458.65,675.41 459.17,682.94 461.97,675.58ZM719.76,677.31C718.81,677.06 717.01,677.05 715.76,677.29C714.52,677.53 715.3,677.74 717.5,677.75C719.7,677.76 720.72,677.56 719.76,677.31ZM319.22,676.18C320.8,675.55 266.35,675.64 245.5,676.3C240.55,676.46 254.72,676.65 277,676.72C299.27,676.8 318.27,676.55 319.22,676.18ZM564.61,650.62C563.38,605.64 562.94,599.09 561.23,599.74C559.86,600.27 559.76,604.52 560.37,637.35C560.84,662.75 561.42,674.8 562.2,675.75C564.75,678.81 565.24,673.66 564.61,650.62ZM701.6,674.41C696.7,673.07 692.52,672.15 692.3,672.37C691.76,672.9 706,676.84 708.5,676.85C709.6,676.85 706.49,675.75 701.6,674.41ZM755.26,676.3C754.03,676.06 751.78,676.05 750.26,676.28C748.74,676.51 749.75,676.71 752.5,676.71C755.25,676.72 756.49,676.53 755.26,676.3ZM326.68,673.75C328.79,672.82 344.57,672.36 389,671.96L448.5,671.42L388.5,671.46C334.59,671.5 328.14,671.67 325,673.17C320.95,675.1 322.47,675.62 326.68,673.75ZM317.66,672.23C318.74,671.54 249.54,671.69 244,672.39C242.62,672.56 258.38,672.76 279,672.83C299.62,672.91 317.02,672.64 317.66,672.23ZM683.5,671.69C687.9,671.54 665.17,671.39 633,671.38C600.83,671.37 577.65,671.61 581.5,671.93C588.17,672.47 666.65,672.29 683.5,671.69ZM770.5,672.3C745.72,671.6 706.23,671.57 706.65,672.25C706.91,672.66 723.63,672.91 743.81,672.79C763.99,672.67 776,672.45 770.5,672.3ZM196.69,662.25C196.44,661.29 196.23,662.08 196.23,664C196.23,665.92 196.44,666.71 196.69,665.75C196.94,664.79 196.94,663.21 196.69,662.25ZM202.46,649.26C202.15,647.86 202.98,645.41 204.65,642.76C210.83,632.97 221.51,605.08 220.74,600.72C220.28,598.1 221.29,595.96 212.69,617.89C209.37,626.35 204.26,637.25 201.33,642.11C198.4,646.97 196,651.35 196,651.83C196,652.32 197.12,652.51 198.5,652.24C200.97,651.77 201,651.84 201.14,659.13L201.27,666.5L202.12,659C202.58,654.88 202.74,650.49 202.46,649.26ZM429.79,658.34C439.38,657.79 441.04,657.45 440.78,656.09C440.55,654.85 438.74,654.39 432.49,653.98C423.65,653.4 425.14,652.21 435.26,651.76C444.58,651.34 441.93,649.56 430.98,648.88C425.44,648.53 420.7,648.04 420.44,647.77C420.18,647.51 424.77,646.99 430.65,646.61C436.52,646.23 441.75,645.65 442.27,645.33C444.77,643.79 439.07,643.02 424,642.86L407.5,642.68L421.5,641.82C441.95,640.57 447.43,639.77 447.77,638C448.02,636.67 436.65,636.53 349.44,636.76C268.17,636.98 250.59,637.27 249.48,638.38C248.34,639.52 254.78,639.84 289.81,640.38C312.74,640.73 340.05,641.34 350.5,641.74L369.5,642.47L340.68,643.1C321.37,643.53 311.49,644.11 310.73,644.87C309.89,645.71 311.64,646.03 317.55,646.12C321.92,646.19 333.38,646.53 343,646.88L360.5,647.51L342.5,648.29C318.24,649.33 309.92,650.06 310.57,651.12C310.87,651.6 318.4,652.05 327.31,652.12C350.77,652.29 352.75,653.48 331,654.34C320.82,654.75 310.02,655.62 307,656.29C301.96,657.4 303.42,657.54 324.5,658.03C361.51,658.88 417.57,659.04 429.79,658.34ZM695.5,658.31C712.29,657.9 722.1,657.32 720,656.87C715.47,655.89 692.28,654 684.8,654C681.6,654 679,653.55 679,653C679,652.38 685.11,651.98 695.25,651.96C710.61,651.91 711.28,651.83 707.5,650.47C705.3,649.68 699.9,648.98 695.5,648.91C691.1,648.84 683.45,648.46 678.5,648.05L669.5,647.32L681,647.15C697.37,646.92 712.23,645.82 711.3,644.92C710.86,644.49 700.38,643.78 688,643.34C659.47,642.31 667.83,641.38 709,641C755.77,640.57 775.89,639.72 773.37,638.28C771.74,637.34 748.24,636.99 673.62,636.78C584.16,636.52 576,636.64 576,638.12C576,639.99 579.89,640.47 605.5,641.72L621.5,642.5L602.83,643C585.74,643.46 581.66,643.99 583.24,645.57C583.55,645.88 589.81,646.43 597.15,646.78C608.07,647.31 609.59,647.56 605.5,648.13C602.75,648.51 596.59,648.86 591.81,648.91C578.68,649.04 579.29,651.84 592.5,652.09C602.93,652.28 604.52,653.78 594.5,653.97C584.14,654.17 581.02,654.94 583.22,656.77C585.49,658.65 647.09,659.5 695.5,658.31ZM569.74,629.8C569.56,625.23 569.41,628.7 569.4,637.5C569.4,646.3 569.56,650.03 569.74,645.8C569.93,641.56 569.93,634.36 569.74,629.8ZM454.74,610.25C454.56,605.99 454.4,609.48 454.4,618C454.4,626.52 454.56,630.01 454.74,625.75C454.93,621.49 454.93,614.51 454.74,610.25ZM401.92,629.39C404.51,628.56 401.62,627.25 394.5,626.03C384.47,624.32 351.57,620.17 351.13,620.57C350.93,620.75 350.54,622.92 350.26,625.39L349.75,629.89L355.13,630.21C362.23,630.63 400.1,629.97 401.92,629.39ZM674.1,630.57C674.33,630.33 674.36,628.02 674.15,625.43L673.78,620.72L665.64,621.35C653.35,622.29 624.93,626.08 622.14,627.14C617.45,628.92 621.49,629.94 634.52,630.25C660.71,630.89 673.68,630.99 674.1,630.57ZM438,619.06C434.99,617.3 376.38,609.93 367,610.13L361.5,610.24L369.5,611.6C382.22,613.76 429.48,619.53 437,619.84C438.88,619.91 439.13,619.72 438,619.06ZM619.03,615.97C633.59,614.3 649.33,612.33 654,611.58L662.5,610.23L655.5,610.12C645.45,609.96 588.72,616.94 587.13,618.53C586.18,619.49 593.27,618.92 619.03,615.97ZM336.96,568.46C337.89,529.71 338.69,514.18 340.51,499.5C340.86,496.69 340.75,496.1 340.13,497.5C338.82,500.5 337.07,520.78 335.98,545.5C335,568.03 334.64,613.7 335.46,612.88C335.71,612.63 336.38,592.64 336.96,568.46ZM521,606C522.51,605.52 518.15,605.21 510,605.22C501.8,605.23 497.68,605.54 499.5,606C503.47,607.01 517.84,607.01 521,606ZM393.93,601.9C408.54,600.74 420.93,599.39 421.45,598.9C422.82,597.6 414.05,597.77 392.33,599.47C367.49,601.41 363,601.96 363,603.07C363,604.32 363.53,604.3 393.93,601.9ZM660,603.07C658.36,602.13 627.1,599.29 609.5,598.48C591.39,597.66 600.95,599.84 624.63,601.93C647.66,603.97 662.38,604.45 660,603.07ZM688.54,570.75C688.12,553.01 687.45,534.23 687.05,529C686.61,523.36 686.47,530.68 686.69,547C687.12,579.46 687.99,603 688.75,603C689.05,603 688.95,588.49 688.54,570.75ZM512.75,595.28C511.24,595.05 508.76,595.05 507.25,595.28C505.74,595.51 506.98,595.7 510,595.7C513.02,595.7 514.26,595.51 512.75,595.28ZM378.25,576.66C399.85,562.09 403.85,559 401.07,559C399.74,559 385.83,568.34 376.5,575.5C372.1,578.88 365.8,583.5 362.5,585.78C356.04,590.23 350.56,594.65 353,593.42C353.82,593.01 365.19,585.46 378.25,576.66ZM669.45,592.1C664.23,587.18 622.25,558.42 621.45,559.22C620.63,560.03 626.5,564.35 648.83,579.35C666.99,591.54 672.42,594.91 669.45,592.1ZM526.7,589.5C539.91,587.36 546.06,584.76 552.88,578.45C561.71,570.28 566.03,560.47 574.9,528.5C584.19,494.97 590.01,481.07 600.52,467.21C603.32,463.52 607.97,457.42 610.84,453.65C614.83,448.43 615.91,446.29 615.4,444.65C615.03,443.47 611.71,438 608.02,432.5C604.33,427 594.93,410.48 587.14,395.79C579.34,381.09 569.44,363.09 565.13,355.79C560.83,348.48 553.56,335.75 548.99,327.5C544.42,319.25 538.96,309.96 536.87,306.85C529.5,295.92 520.93,291.33 509.58,292.24C496.83,293.26 490.58,299.19 478.1,322.09C473.48,330.56 466.39,343.12 462.34,350C458.29,356.88 449.41,372.85 442.6,385.5C422.31,423.17 420.75,425.91 414.72,434.32C405.96,446.55 405.84,445.56 417.72,460.27C433.87,480.28 440.65,495.9 451.02,537C456.16,557.37 463.58,572.82 471.65,579.92C481.97,589.01 505.01,593.02 526.7,589.5ZM494.5,582.89C481.41,581.01 472.92,575.88 467.52,566.58C464.49,561.38 459.5,546.45 452.95,523C446.34,499.38 440.19,481.92 435.04,472.19C431.74,465.94 431.47,465.06 433.59,467.5C437.71,472.24 444.5,487.42 448.36,500.5C450.3,507.1 454.42,521.95 457.5,533.5C460.58,545.05 464.23,556.98 465.6,560C473.28,576.91 481.81,581.52 508,582.92L522.5,583.7L511.5,583.73C505.45,583.74 497.8,583.37 494.5,582.89ZM529.35,581.53C539.44,579.41 544.96,577.03 550,572.63L554.5,568.7L549.97,573.2C544.75,578.38 536.89,581.73 528.23,582.48L522.5,582.98L529.35,581.53ZM494.4,576.51C486.92,574.89 479.33,571.13 476,567.4L473.5,564.6L476.88,567.35C484.96,573.91 492.13,576.06 509,576.99L521.5,577.68L511,577.76C505.23,577.8 497.76,577.24 494.4,576.51ZM522.08,576.64C522.31,576.43 524.98,576.01 528,575.7C531.55,575.33 532.61,575.43 531,575.97C528.52,576.79 521.28,577.34 522.08,576.64ZM537.08,573.64C537.31,573.43 538.62,572.74 540,572.08C542.36,570.96 542.39,570.98 540.56,572.44C538.97,573.72 535.71,574.84 537.08,573.64ZM662.68,571.96C672.17,570.69 673.64,570.24 672.39,568.99C671.79,568.39 668.12,568.41 662.47,569.04C652.18,570.18 650.63,570.6 651.5,571.99C652.27,573.25 653.02,573.24 662.68,571.96ZM371,571.12C368.38,569.68 352.69,567.91 351.66,568.94C351.06,569.54 351.6,570.08 353.11,570.41C354.42,570.69 356.4,571.11 357.5,571.35C361.3,572.15 372.54,571.96 371,571.12ZM502.81,571.32C503.53,571.03 504.4,571.06 504.73,571.4C505.06,571.73 504.47,571.96 503.42,571.92C502.25,571.87 502.01,571.64 502.81,571.32ZM495.81,570.32C496.53,570.03 497.4,570.06 497.73,570.4C498.06,570.73 497.47,570.96 496.42,570.92C495.25,570.87 495.01,570.64 495.81,570.32ZM524.75,570.34C525.44,570.06 526.56,570.06 527.25,570.34C527.94,570.62 527.38,570.84 526,570.84C524.62,570.84 524.06,570.62 524.75,570.34ZM533.31,568.12C535.95,567.03 539.78,564.9 541.81,563.37C543.84,561.84 544.86,561.38 544.08,562.35C542.13,564.78 535.13,568.73 531.5,569.47C529.63,569.85 530.31,569.34 533.31,568.12ZM484.14,566.2C481.85,564.67 479.23,562.3 478.33,560.95C477.16,559.21 477.66,559.47 480.03,561.82C481.88,563.65 484.98,566 486.94,567.03C488.9,568.06 490.01,568.93 489.4,568.96C488.8,568.98 486.43,567.74 484.14,566.2ZM557.02,561.75C558.62,558.31 562.66,545.38 566,533C576.34,494.73 581.67,479.41 587.62,470.82C591.4,465.38 591.7,466.78 588.12,473.15C583.4,481.55 579.58,491.95 573.49,513C564.61,543.67 559.98,558.11 557.37,563.25C553.87,570.16 553.61,569.07 557.02,561.75ZM547,566.62C547,566.41 547.79,565.63 548.75,564.87C550.34,563.63 550.37,563.66 549.13,565.25C547.82,566.92 547,567.45 547,566.62ZM835.05,531C833.69,509.57 831.38,488.72 829.39,479.88C828.02,473.81 822.57,464.1 821.26,465.41C820.32,466.34 822.08,472.97 823.2,472.74C826.39,472.06 830.34,497.74 833.52,539.86C835.36,564.27 835.31,563.96 835.77,555.5C835.98,551.65 835.66,540.62 835.05,531ZM536,560.62C536,560.41 536.79,559.63 537.75,558.87C539.34,557.63 539.37,557.66 538.13,559.25C536.82,560.92 536,561.45 536,560.62ZM445.82,555.75C445.54,553.75 444.32,553.25 435,551.25C421.14,548.28 345.48,533 344.65,533C344.29,533 344,533.43 344,533.96C344,534.49 345.69,535.34 347.75,535.85C368.44,540.96 441.1,557.38 445.32,557.9C445.77,557.95 446,556.99 445.82,555.75ZM604,552.42C649.19,542.73 678.49,535.91 679.47,534.85C681.29,532.9 668.78,534.73 640.44,540.55C625.62,543.6 605.54,547.7 595.8,549.68C583.79,552.12 577.93,553.74 577.55,554.73C576.71,556.91 577.86,558.07 580.31,557.52C581.52,557.25 592.17,554.95 604,552.42ZM705.72,547.75C705.5,545.96 705.32,547.42 705.32,551C705.32,554.58 705.5,556.04 705.72,554.25C705.95,552.46 705.95,549.54 705.72,547.75ZM320.49,526.7C322.2,501.3 325.16,476.24 327.63,466.41C328.53,462.85 329.08,459.75 328.87,459.53C327.78,458.45 298.64,455.86 276.33,454.87C257.6,454.03 245.99,454.03 230.91,454.88C219.76,455.51 210.46,456.21 210.23,456.43C207.77,458.89 202.85,502.21 203.13,518.9L203.26,526.5L204.13,519C204.6,514.88 205.69,504.98 206.54,497C208.6,477.7 208.19,478.71 213.84,479.42C219.73,480.16 225.56,480.22 234.75,479.65C238.74,479.41 242,479.5 242,479.85C242,480.21 245.6,480.27 250,480C254.4,479.73 258,479.86 258,480.31C258,480.75 258.48,480.82 259.07,480.46C260.44,479.61 274,479.11 274,479.9C274,480.23 278.39,480.36 283.75,480.18C298.25,479.71 316.13,479.66 319.25,480.07C321.71,480.4 321.95,480.76 321.5,483.47C320.53,489.22 319.07,515.56 318.61,535.5C318.08,559.11 318.43,557.43 320.49,526.7ZM557.08,543.42C557.13,542.25 557.36,542.01 557.68,542.81C557.97,543.53 557.94,544.4 557.6,544.73C557.27,545.06 557.04,544.47 557.08,543.42ZM431.77,539C437.95,534.87 441.01,532 439.24,532C437.93,532 426.62,539.55 425,541.5C422.8,544.15 425.59,543.12 431.77,539ZM598.45,542.12C597.93,541.64 594.64,539.17 591.14,536.62C585.02,532.17 582.16,530.83 583.54,533.06C584.69,534.93 596.35,543 597.9,543C598.81,543 599.03,542.66 598.45,542.12ZM703.65,497.5C702.89,488.15 702.49,480.11 702.76,479.64C703.03,479.17 706.68,479.11 710.87,479.51C715.07,479.9 724.58,480.13 732,480.01C739.42,479.89 747.52,479.77 750,479.73C752.48,479.7 756.08,479.98 758,480.35C759.92,480.72 768.02,480.95 776,480.86C783.98,480.76 792.44,480.77 794.82,480.86C797.2,480.95 799.65,480.71 800.28,480.33C801.6,479.51 806.03,478.81 810.99,478.63L814.48,478.5L815.65,485C816.3,488.57 817.34,497.57 817.97,505C820.59,535.82 820.92,537.68 820.49,519C820.26,509.38 819.6,496.77 819.02,491C817.94,480.4 814.3,456.96 813.61,456.28C813.41,456.08 805.43,455.46 795.87,454.92C771.35,453.52 725.16,455.14 703.16,458.18C693.77,459.47 694.39,458.28 697.36,469.5C699.27,476.71 701.5,497.47 703.23,524L704.5,543.5L704.76,529C704.91,521.02 704.41,506.85 703.65,497.5ZM464.08,539.42C464.13,538.25 464.36,538.01 464.68,538.81C464.97,539.53 464.94,540.4 464.6,540.73C464.27,541.06 464.04,540.47 464.08,539.42ZM559.1,537.68C558.94,536.37 563.76,517.77 568.62,501C573.46,484.32 579.03,471.6 583.94,466C586.8,462.74 586.72,463.01 582.84,470C575.81,482.67 573.62,488.96 560.66,533.5C559.86,536.25 559.16,538.13 559.1,537.68ZM423.93,536.06C425.72,534.93 424.67,534.75 397.5,531.56C367.66,528.06 353.34,526.71 351.82,527.27C349.05,528.3 356.22,529.91 372.61,531.94C414.96,537.19 421.34,537.7 423.93,536.06ZM463.08,535.42C463.13,534.25 463.36,534.01 463.68,534.81C463.97,535.53 463.94,536.4 463.6,536.73C463.27,537.06 463.04,536.47 463.08,535.42ZM639,533.59C650.27,532.23 662.04,530.82 665.14,530.44C671.18,529.7 673.91,528.58 672.68,527.35C671.9,526.57 641.06,529.6 614.63,533.06C606.46,534.13 599.26,535.01 598.63,535.02C598.01,535.02 598.17,535.5 599,536.08C600.97,537.45 613.22,536.69 639,533.59ZM459.09,520.89C452.34,495.5 444.83,475.48 438.7,466.5L436.64,463.5L439.19,465.8C442.8,469.06 446.26,475.87 450.47,488C454.57,499.84 463.41,531.92 462.75,532.58C462.51,532.82 460.87,527.56 459.09,520.89ZM468.08,531.42C468.13,530.25 468.36,530.01 468.68,530.81C468.97,531.53 468.94,532.4 468.6,532.73C468.27,533.06 468.04,532.47 468.08,531.42ZM555.08,528.42C555.13,527.25 555.36,527.01 555.68,527.81C555.97,528.53 555.94,529.4 555.6,529.73C555.27,530.06 555.04,529.47 555.08,528.42ZM556.06,524.99C555.97,522.71 562.54,499.09 567.1,485.31C569.39,478.38 572.75,470.6 574.89,467.31C580.47,458.69 582.79,457.53 577.61,465.94C571.66,475.58 568.91,482.72 561.96,506.5C558.75,517.5 556.09,525.82 556.06,524.99ZM190.66,520.75C190.38,520.06 190.16,520.62 190.16,522C190.16,523.38 190.38,523.94 190.66,523.25C190.94,522.56 190.94,521.44 190.66,520.75ZM413.72,516.26C413.49,514.74 413.29,515.75 413.29,518.5C413.28,521.25 413.47,522.49 413.7,521.26C413.94,520.03 413.95,517.78 413.72,516.26ZM465.08,519.42C465.13,518.25 465.36,518.01 465.68,518.81C465.97,519.53 465.94,520.4 465.6,520.73C465.27,521.06 465.04,520.47 465.08,519.42ZM416.69,515.27C416.44,514.3 416.22,514.85 416.19,516.5C416.17,518.15 416.38,518.95 416.66,518.27C416.93,517.59 416.95,516.24 416.69,515.27ZM195.09,490.61C197.38,476.31 198.39,472.86 200.14,473.24C201.27,473.49 203.51,466.18 202.59,465.26C201.51,464.18 196.04,473.59 195.04,478.25C193.41,485.86 190.98,507.73 191.13,513.49C191.24,517.99 191.35,517.74 192.14,511C192.62,506.88 193.95,497.7 195.09,490.61ZM463.17,512.77C458.26,493.27 449.68,471.94 443.14,463L440.58,459.5L443.39,462C446.83,465.06 452.72,476.53 456.84,488.21C460.55,498.73 465.33,516 464.71,516.62C464.46,516.87 463.77,515.14 463.17,512.77ZM685.72,510.26C685.49,508.74 685.29,509.75 685.29,512.5C685.28,515.25 685.47,516.49 685.7,515.26C685.94,514.03 685.95,511.78 685.72,510.26ZM684.71,501.76C684.47,500.52 684.26,501.3 684.25,503.5C684.24,505.7 684.44,506.72 684.69,505.76C684.94,504.81 684.95,503.01 684.71,501.76ZM412.69,501.27C412.44,500.3 412.22,500.85 412.19,502.5C412.17,504.15 412.38,504.95 412.66,504.27C412.93,503.59 412.95,502.24 412.69,501.27ZM420,503.5C420,502.68 419.56,502 419.03,502C418.5,502 418.32,502.68 418.64,503.5C418.95,504.32 419.39,505 419.61,505C419.82,505 420,504.32 420,503.5ZM334.92,493.43C334.97,491.74 335.71,487.98 336.58,485.06C338.48,478.65 339.75,479.32 341.68,487.73L343,493.5L342.51,487.87C341.5,476.43 335.41,462.34 333.05,465.99C331.94,467.7 332.69,471.9 334.44,473.78C335.35,474.76 335.35,476.7 334.43,482.28C333.78,486.25 333.02,492.88 332.74,497C332.27,504.23 332.3,504.35 333.55,500.5C334.26,498.3 334.88,495.12 334.92,493.43ZM607.97,500C607.97,498.67 607.86,498.67 607,500C606.47,500.82 606.03,502.18 606.03,503C606.03,504.33 606.14,504.33 607,503C607.53,502.18 607.97,500.82 607.97,500ZM683.68,496.81C683.36,496.01 683.13,496.25 683.08,497.42C683.04,498.47 683.27,499.06 683.6,498.73C683.94,498.4 683.97,497.53 683.68,496.81ZM416,490.67C416,490.5 414.76,489.26 413.25,487.92L410.5,485.5L412.92,488.25C415.19,490.82 416,491.46 416,490.67ZM689.66,487.75C689.38,487.06 689.16,487.62 689.16,489C689.16,490.38 689.38,490.94 689.66,490.25C689.94,489.56 689.94,488.44 689.66,487.75ZM694.66,481.75C694.38,481.06 694.16,481.62 694.16,483C694.16,484.38 694.38,484.94 694.66,484.25C694.94,483.56 694.94,482.44 694.66,481.75ZM684.94,480.75C685.87,478.09 686.26,477.77 687.11,479C687.87,480.1 687.98,479.5 687.53,476.75C687.19,474.69 687.13,473 687.39,473C689.67,473 692.94,475.32 693.3,477.2C693.54,478.46 693.53,477.05 693.27,474.07C692.64,466.61 691.37,463.44 689.61,464.91C687.92,466.31 683.21,476.7 682.37,480.88C681.54,485.05 683.47,484.95 684.94,480.75ZM563.53,476C565.12,470.3 571.4,459.93 574.83,457.32L578.45,454.55L575.27,458.53C573.51,460.71 570,466.1 567.45,470.5C564.91,474.9 563.14,477.38 563.53,476ZM451.66,466.38C446.02,456.79 446.19,454.95 451.9,463.84C454.78,468.33 458.42,476 457.67,476C457.47,476 454.77,471.67 451.66,466.38ZM459.83,468.72C458.42,465.85 455.62,461.35 453.61,458.71C450.75,454.97 450.46,454.26 452.28,455.45C455.56,457.6 458.66,462.07 461.03,468.09C463.73,474.92 463.04,475.28 459.83,468.72ZM559.61,471C560.59,467.23 564.51,459.8 567,456.99L569.22,454.5L567.38,457.5C566.37,459.15 564.06,463.43 562.26,467C560.45,470.57 559.26,472.38 559.61,471ZM464.54,464.08C463.56,461.92 461.47,458.9 459.88,457.39C456.35,454 456.11,452.37 459.47,454.58C461.87,456.15 467.76,466.58 466.79,467.54C466.53,467.81 465.51,466.25 464.54,464.08ZM471.22,464.82C470.54,462.99 468.65,459.39 467.02,456.8C464.57,452.92 463.4,451.99 460.28,451.47C454.63,450.52 447.1,448.05 441.63,445.36C438.67,443.9 436.31,443.3 435.63,443.82C435.01,444.3 433.6,444.99 432.5,445.35C430.53,445.99 430.53,445.98 432.44,444.5C433.51,443.68 434.84,443 435.39,443C436.02,443 435.99,442.59 435.31,441.91C434.53,441.13 433.28,441.29 430.86,442.46C428.04,443.84 427.81,443.85 429.44,442.55C430.51,441.7 431.75,441 432.19,441C433.34,441 433.2,438.24 432.01,437.5C431.46,437.17 429.32,438.13 427.26,439.64L423.5,442.39L427.17,438.45C429.28,436.17 431.33,432.62 432,430.07C434.18,421.83 449.94,382.6 450.74,383.41C451.02,383.68 446.6,396.6 436.94,423.75C435.32,428.28 434,432.74 434,433.65C434,437.08 441.4,442.54 449.82,445.32C461.8,449.28 463.72,449.03 474.41,442.14C479.41,438.92 484.55,435.73 485.84,435.06C490.61,432.56 488.67,434.72 481.36,440.03C470.25,448.1 466.49,451.1 466.56,451.84C466.6,452.2 468.08,455.58 469.87,459.34C471.65,463.11 472.96,466.63 472.78,467.16C472.6,467.7 471.9,466.65 471.22,464.82ZM473.69,457.45C471.05,452.05 469.83,446.66 472.01,450C473.36,452.07 477.15,462.18 476.73,462.6C476.54,462.79 475.18,460.47 473.69,457.45ZM557,462.45C557,461.25 561.84,454 562.65,454C563.18,454 561.76,456.48 558.35,461.47C557.61,462.56 557,463 557,462.45ZM492.5,460.34C485.52,456.66 479.78,447.92 481.92,444.25C482.77,442.79 482.94,443.02 482.97,445.61C483.01,449.37 488.75,457.3 493.04,459.52C494.67,460.36 496,461.26 496,461.53C496,462.17 495.92,462.14 492.5,460.34ZM540.36,461C543.89,451.38 546.54,445.92 546.81,447.74C547.09,449.66 543.67,457.4 540.95,461C539.94,462.33 539.87,462.33 540.36,461ZM481.78,459.26C479.66,456.85 476,449.42 476,447.54C476,446.69 476.45,446 477,446C477.55,446 478.01,446.79 478.02,447.75C478.03,448.71 479.38,451.94 481.02,454.91C484.13,460.55 484.43,462.27 481.78,459.26ZM534.33,457.06C538.01,452.98 540.48,446.42 539.4,443.61C539.06,442.72 539.07,442 539.42,442C539.77,442 540.49,443.15 541.02,444.55C542.26,447.82 540.09,453.27 535.75,457.75C531.27,462.38 530.06,461.79 534.33,457.06ZM553.03,459.5C553.02,458.95 553.94,456.97 555.08,455.1C556.73,452.39 556.88,451.54 555.82,450.87C553.62,449.47 553.14,449.82 550.49,454.75C547.89,459.6 548.08,456.81 550.7,451.66C551.5,450.09 552,448.68 551.82,448.52C549.05,445.98 540.35,440.06 535.38,437.32C531.87,435.39 529,433.66 529,433.47C529,432.51 538.55,436.57 543.67,439.71C557.64,448.29 557.68,448.3 564.33,447.74C576.48,446.71 589,439.84 589,434.21C589,432.79 586.69,425.29 583.86,417.56C577.44,399.98 569.93,377.74 570.3,377.37C570.61,377.06 578.16,395.34 582.53,407C584.08,411.12 587.48,419.34 590.08,425.25C592.81,431.45 594.33,436.02 593.66,436.04C593.02,436.06 594.3,437.69 596.5,439.66C600.34,443.09 600.37,443.17 597.31,441.63C595.56,440.74 593.84,439.55 593.49,438.99C592.79,437.85 591,438.6 591,440.03C591,440.54 592.39,441.67 594.09,442.55C595.79,443.43 596.96,444.37 596.69,444.65C596.41,444.92 594.82,444.44 593.14,443.57C589.68,441.78 587.59,441.52 588.5,443C588.84,443.55 588.16,444 587,444C585.75,444 585.15,444.44 585.54,445.07C585.9,445.65 585.59,446.02 584.85,445.88C584.11,445.74 581.73,446.4 579.58,447.34C577.42,448.28 571.66,449.85 566.78,450.84C558.23,452.56 557.81,452.78 555.48,456.56C554.15,458.73 553.05,460.05 553.03,459.5ZM530.04,455.42C531.94,453.18 534.07,450.48 534.76,449.42C535.46,448.36 535.39,448.85 534.6,450.5C533.82,452.15 531.69,454.85 529.88,456.5L526.57,459.5L530.04,455.42ZM667.83,454.91C684.9,454.95 687.6,454.74 690.88,453.06C693.69,451.63 706.44,449 710.57,449C710.81,449 711,448.36 711,447.57C711,445.02 708.27,443.31 701.5,441.61C695.04,439.99 659.84,434.32 629.5,430.02C621.25,428.85 613.6,427.64 612.5,427.33C610.84,426.87 610.72,427.01 611.79,428.14C612.5,428.89 618.57,430.72 625.29,432.21C636.48,434.7 636.91,434.88 630.5,434.33C626.65,434 621.35,433.18 618.71,432.5C615.43,431.66 614.04,431.61 614.28,432.35C614.48,432.94 618.44,434.45 623.07,435.7C630.36,437.67 630.83,437.92 626.5,437.52C623.75,437.26 620.38,436.75 619,436.39C616.9,435.83 616.71,435.95 617.78,437.11C618.49,437.88 621.64,439.05 624.78,439.71L630.5,440.93L624.67,440.38C619.11,439.86 618.89,439.93 619.9,441.81C620.55,443.02 622.78,444.19 625.72,444.85L630.5,445.93L625.79,445.49C621.94,445.13 621.18,445.32 621.65,446.52C621.96,447.34 623.18,448.06 624.36,448.14C626.43,448.27 626.43,448.29 624.25,448.71C622.3,449.08 622,449.76 622,453.87L622,458.59L635.25,456.73C644.61,455.42 654.17,454.88 667.83,454.91ZM401.82,451.5C401.68,446.37 401.31,444.98 400.07,444.92C398.72,444.85 398.71,444.77 400,444.31C401.58,443.74 404,441.1 404,439.93C404,439.55 401.86,439.4 399.25,439.59L394.5,439.93L399.5,438.91C402.25,438.35 405.18,437.19 406,436.34C407.34,434.95 407.29,434.85 405.5,435.37C402.5,436.25 389.63,437.96 389.21,437.54C388.86,437.2 394.69,435.9 403.21,434.43C405.26,434.08 407.5,433.1 408.21,432.25C409.3,430.94 409.19,430.8 407.49,431.3C403.66,432.43 386.89,435.22 386.47,434.8C386.23,434.56 391.45,433.32 398.06,432.03C411.28,429.46 415.44,427.25 404.9,428.41C383.35,430.78 322.09,440.88 316.58,442.97C314.41,443.79 311.28,447.69 312.17,448.46C312.35,448.61 316.32,449.29 321,449.95C325.68,450.61 331.44,452.01 333.82,453.05C337.58,454.7 340.6,454.94 357.32,454.89C369.6,454.85 379.74,455.36 385.5,456.29C390.45,457.09 396.19,457.8 398.25,457.87L402,458L401.82,451.5ZM439,450.5C440.93,449.76 443.18,449.15 444,449.15C444.82,449.15 443.93,449.76 442,450.5C440.07,451.24 437.82,451.85 437,451.85C436.18,451.85 437.07,451.24 439,450.5ZM434,448.17C434.82,447.66 436.62,446.94 438,446.57C439.74,446.11 440.04,446.19 439,446.83C438.18,447.34 436.38,448.06 435,448.43C433.26,448.89 432.96,448.81 434,448.17ZM588,447C587.17,446.47 586.95,446.03 587.5,446.03C588.05,446.03 589.17,446.47 590,447C590.83,447.53 591.05,447.97 590.5,447.97C589.95,447.97 588.83,447.53 588,447ZM555.25,442.48C553.46,441.72 548.74,438.98 544.75,436.39C530.67,427.26 521.44,424.45 508.12,425.26C498.41,425.84 491.44,428.12 482.44,433.65C470.91,440.74 466.47,442.96 463.8,442.98C460.24,443.01 446.14,438.51 443.13,436.39C440.99,434.88 440.82,434.21 441.37,429.52C443.06,415.13 470.93,338.19 472.15,344.54C472.38,345.73 474.17,342.69 476.89,336.47C491.15,303.96 497.61,296.53 511.5,296.63C525.5,296.72 531.84,304.06 546,336.5C551.42,348.92 553.69,352.88 551.98,346.94C551.44,345.05 551.01,343.29 551.03,343.01C551.15,341.03 559.06,360.19 564.04,374.5C565.56,378.9 569.34,389.48 572.41,398C579.2,416.79 582,426.72 582,431.99C582,435.58 581.63,436.15 578.22,437.89C574.76,439.66 567.21,442.05 561,443.35C559.62,443.64 557.04,443.25 555.25,442.48ZM421.29,439.02C425.25,435.64 429.09,428.8 432.97,418.22C436.39,408.87 436.44,411.31 433.04,421.39C429.61,431.52 427.24,435.72 423.31,438.58C418.42,442.14 417.36,442.37 421.29,439.02ZM598.6,438.63C596.45,437.33 595.18,436.09 595.77,435.88C596.41,435.65 595.31,432.27 593.04,427.5C588.68,418.35 581.68,399.99 582.31,399.36C582.54,399.13 584.1,402.21 585.78,406.22C587.47,410.22 590.93,418.45 593.48,424.5C596.02,430.55 599.29,436.74 600.74,438.25C603.95,441.61 603.62,441.67 598.6,438.63ZM415.9,438.19C416.54,436.99 417.66,436 418.38,436C420.43,436 422.88,432.76 427.59,423.79C432.47,414.5 433.35,413.96 429.37,422.72C425.92,430.31 423.82,433.18 418.84,437.13C415.47,439.8 414.93,439.99 415.9,438.19ZM600.59,434.92C599.17,433.23 598,431.47 598,431.01C598,430.54 597.73,429.34 597.41,428.33C596.9,426.74 598.16,428.54 602.98,436.25C604.7,439 603.43,438.3 600.59,434.92ZM381.75,435.34C382.44,435.06 383.56,435.06 384.25,435.34C384.94,435.62 384.38,435.84 383,435.84C381.62,435.84 381.06,435.62 381.75,435.34ZM603.83,433.25C602.43,431.74 600.01,428.13 598.47,425.22C596.43,421.41 595.4,420.3 594.73,421.22C594.08,422.12 593.98,421.97 594.39,420.7C594.73,419.67 593.68,416.34 591.97,412.95C587.15,403.38 589.32,406.09 595.83,417.75C599.13,423.66 602.98,430.19 604.38,432.25C607.42,436.71 607.28,436.97 603.83,433.25ZM638.75,435.34C639.44,435.06 640.56,435.06 641.25,435.34C641.94,435.62 641.38,435.84 640,435.84C638.62,435.84 638.06,435.62 638.75,435.34ZM420.32,431.5C421.64,429.3 424.39,424.46 426.42,420.75C428.44,417.04 430.32,414 430.59,414C431.42,414 422.66,429.82 420.2,432.75C417.95,435.44 417.95,435.41 420.32,431.5ZM571.99,421.44C569.97,411.74 562.63,406.08 551.52,405.68C545.51,405.46 544.6,407.27 549.93,408.86C552.12,409.52 555.23,411.17 556.85,412.53C559.96,415.14 561.58,415.75 560.42,413.87C560,413.19 560.27,412.92 561.11,413.2C561.87,413.45 563.51,415.42 564.73,417.58C565.96,419.73 566.98,420.82 567.01,420C567.08,417.18 570.96,423.36 571.72,427.5C572.23,430.35 572.54,430.85 572.79,429.25C572.98,428.01 572.62,424.49 571.99,421.44ZM455.6,417.94C456.71,416.05 458.04,414.5 458.56,414.49C459.08,414.49 461.17,413.45 463.21,412.18C465.26,410.92 467.84,409.81 468.96,409.73C470.08,409.64 471,409.26 471,408.87C471,408.48 472.35,407.86 474.01,407.5C475.66,407.13 476.76,406.42 476.45,405.92C475.02,403.61 462.33,406.38 457.71,410.01C454.95,412.18 452.38,418.8 451.51,426L450.97,430.5L452.28,425.94C453,423.43 454.5,419.83 455.6,417.94ZM545.92,426.35C543.19,423.37 532.99,418.39 525.5,416.37C517.67,414.26 503.51,414.61 495.92,417.1C488.94,419.4 483.04,422.18 478.75,425.2C473.38,428.98 476.12,428.82 483.97,424.89C494.27,419.74 504.05,417.64 514.5,418.34C523.93,418.97 536.68,422.76 543,426.82C548.27,430.21 549.31,430.04 545.92,426.35ZM751.01,413.18C749.73,400.7 748.51,396.6 745.2,393.65C741.82,390.64 741.25,392.09 743.08,399C744.75,405.28 744.81,405.37 744.97,401.5L745.14,397.5L746.55,401.35C747.33,403.47 748.76,410.1 749.73,416.09C751.96,429.82 752.58,428.41 751.01,413.18ZM276.99,401.12C277.68,399.95 277.98,401.01 278.09,405L278.23,410.5L280.04,401.51C281.03,396.56 281.62,392.28 281.34,392.01C281.06,391.73 279.58,392.91 278.04,394.63C275.11,397.9 273.71,403.68 272.6,417C272.14,422.52 272.36,421.93 274.05,413.12C275.15,407.41 276.47,402.01 276.99,401.12ZM412.57,419.51C415.09,418.48 417.26,415.36 424.5,402.37C429.38,393.64 435.75,382.23 438.67,377C441.59,371.77 443.98,367.16 443.99,366.75C444,366.34 418.18,366 386.63,366L329.26,366L328.56,373.1C328.17,377 328.02,380.35 328.22,380.55C328.41,380.74 340.48,381.19 355.04,381.54C369.59,381.89 382.93,382.61 384.68,383.14C392.41,385.49 398.18,396.44 400.22,412.62L401.42,422.11L405.46,421.44C407.68,421.08 410.88,420.21 412.57,419.51ZM623.73,412.25C625.67,396.08 629.67,387.76 637.18,384.2C641.06,382.36 644.26,382.08 668.75,381.45L696,380.75L696,378.01C696,376.51 695.71,373.19 695.36,370.64L694.73,366L637.36,366C605.81,366 580,366.28 580,366.63C580,366.98 583.09,372.72 586.86,379.38C590.63,386.05 597.16,397.65 601.37,405.18C609.34,419.43 609.42,419.5 617.5,421.32C622.51,422.44 622.51,422.46 623.73,412.25ZM277.68,414.81C277.36,414.01 277.13,414.25 277.08,415.42C277.04,416.47 277.27,417.06 277.6,416.73C277.94,416.4 277.97,415.53 277.68,414.81ZM489.53,409.86C488.08,408.13 485.79,404.55 484.45,401.89L482,397.07L486.34,398.93C488.73,399.96 494.84,401.51 499.91,402.38C510.55,404.21 525.43,403.23 534.71,400.1C537.62,399.11 540,398.62 540,399C540,400.6 536.53,406.7 534.17,409.25C532.19,411.39 531.98,412 533.23,412C535.73,412 541.75,404.27 544.09,398.08C545.84,393.42 546.12,390.94 545.75,383C544.82,363.02 538.41,354.42 521.48,350.44C507.71,347.2 494.93,350.1 486.4,358.41C479.39,365.24 477.64,371.08 478.17,385.87C478.53,395.68 478.82,396.99 481.95,402.81C485.13,408.72 489.02,413 491.22,413C491.75,413 490.99,411.59 489.53,409.86ZM380.43,395.29C381.67,390.09 381.67,390.09 379.08,389.59C374.84,388.77 293.52,387.68 289.71,388.39C285.72,389.14 285.45,389.8 284.59,400.5C284.17,405.86 284.26,406.77 285.01,404.41L285.98,401.31L305.74,400.69C316.61,400.35 329.17,400.26 333.66,400.48C338.15,400.7 346.23,400.97 351.62,401.08C357,401.19 362.78,401.64 364.45,402.09C366.13,402.54 369.52,403.08 372,403.29C376.41,403.67 376.51,403.75 376.92,407.59L377.34,411.5L378.27,406C378.78,402.98 379.75,398.16 380.43,395.29ZM738.75,398.07C737.55,389.97 737.38,389.6 734.5,388.76C731.93,388.01 643.03,388.69 642.21,389.47C642.05,389.62 642.73,393.74 643.71,398.62C644.86,404.32 645.62,406.49 645.82,404.69C646,403.15 646.67,401.72 647.32,401.52C647.97,401.31 668.39,400.89 692.7,400.57L736.9,399.99L737.95,403.75C738.52,405.81 739.06,408.4 739.14,409.5C739.26,410.93 739.4,410.79 739.65,409C739.84,407.62 739.44,402.71 738.75,398.07ZM504.5,401.32C499.16,400.13 487.13,395.77 484.14,393.95L480.78,391.9L481.16,380.98C481.36,374.98 482.01,369.59 482.61,368.99C483.37,368.23 485.8,368.48 491.09,369.89C495.17,370.97 501.65,372.15 505.5,372.5C514.19,373.29 529.06,371.51 534.74,369L539.01,367.11L540.71,370.31C541.97,372.65 542.43,376.02 542.46,382.99L542.5,392.49L537.33,395.26C528.02,400.26 512.54,403.12 504.5,401.32ZM537.54,377.37C537.12,375.1 536.35,374 535.2,374.02C532.66,374.04 530.87,375.47 531.38,377.08C531.63,377.86 532.1,379.71 532.42,381.18C532.81,382.97 533.75,383.97 535.25,384.18C537.86,384.55 538.52,382.58 537.54,377.37ZM450.8,354.8C451.46,354.14 452,353.32 452,352.98C452,352.24 337.73,352.82 330.25,353.6C327.36,353.9 325,354.56 325,355.07C325,356.56 449.31,356.29 450.8,354.8ZM698,355.09C698,354.59 694.29,353.89 689.75,353.53C680.89,352.84 573.15,352.18 572.52,352.81C572.31,353.02 572.38,353.83 572.68,354.6C573.13,355.78 583,356 635.61,356C672.43,356 698,355.63 698,355.09ZM460.25,338.03L465.01,329.1L417.75,329.21C391.76,329.27 365.77,329.58 360,329.91C339.64,331.06 357.73,331.96 403.26,332.07C427.33,332.13 448.25,332.55 449.76,333C451.3,333.47 431.12,333.91 403.5,334.01C376.55,334.12 353.38,334.52 352,334.91C349.45,335.65 389.19,336.86 426,337.17C445.04,337.33 445.68,337.4 435,338.04C428.68,338.42 406.18,338.86 385,339.01C362.06,339.17 348.72,339.59 352,340.04C355.02,340.46 371.9,340.92 389.5,341.06L421.5,341.33L391,342.06C348.67,343.07 328,344.06 328,345.07C328,346.28 339.98,346.55 401.5,346.77L455.5,346.96L460.25,338.03ZM681.75,346.35C686.29,345.99 690,345.38 690,344.99C690,343.71 676.23,343.06 634.71,342.37C612.28,342 593.76,341.42 593.56,341.1C593.36,340.77 608.56,340.64 627.34,340.8C646.13,340.97 665.33,340.69 670,340.19C676.49,339.48 668.33,339.21 635.5,339.01C611.85,338.88 592.23,338.79 591.9,338.83C588.66,339.2 582.5,338.95 578,338.26C572.61,337.43 614.27,336.19 657.5,335.88C667.52,335.81 673.27,335.45 671.5,335C669.85,334.58 647.46,334.18 621.75,334.12C591.33,334.04 575,333.65 575,333C575,332.35 590.63,331.97 619.75,331.93C668.63,331.84 685,330.85 657,329.67C638.76,328.9 559,329.19 559,330.03C559,330.32 559.63,331.46 560.41,332.56C561.18,333.67 563.23,337.37 564.97,340.78L568.13,347L620.81,346.99C649.79,346.99 677.21,346.7 681.75,346.35ZM706,327.45L706,314.9L702.41,313.4C697.29,311.26 695.91,312.2 700.87,314.44L705,316.3L705,328.15C705,334.67 705.23,340 705.5,340C705.77,340 706,334.35 706,327.45ZM536.5,337C536.91,336.34 528.54,336 512.14,336C498.4,336 486.34,335.74 485.33,335.42C483.66,334.89 483.66,334.97 485.44,336.42C487.09,337.76 491.01,338 511.63,338C526.72,338 536.12,337.62 536.5,337ZM323.57,313.98C325.53,313.33 326.88,312.55 326.58,312.24C325.52,311.19 318,315.29 318.03,316.9C318.06,318.32 318.17,318.31 319.04,316.83C319.58,315.9 321.62,314.62 323.57,313.98Z"/>
</svg>
