<?xml version="1.0" encoding="UTF-8" standalone="no"?>
<!DOCTYPE svg PUBLIC "-//W3C//DTD SVG 1.1//EN" "http://www.w3.org/Graphics/SVG/1.1/DTD/svg11.dtd">
<svg width="100%" height="100%" viewBox="0 0 1024 1024" version="1.1" xmlns="http://www.w3.org/2000/svg" xmlns:xlink="http://www.w3.org/1999/xlink" xml:space="preserve" xmlns:serif="http://www.serif.com/" style="fill-rule:evenodd;clip-rule:evenodd;stroke-linejoin:round;stroke-miterlimit:2;">
    <g transform="matrix(1,0,0,1,-10.836,36.1199)">
        <path d="M669.5,720.27C665.28,719.67 631.82,712.66 611,708.02C601.38,705.88 584.95,702.5 574.5,700.51C564.05,698.52 546.87,694.9 536.33,692.45C525.79,690 516.57,688.03 515.83,688.08C513.35,688.22 531.37,694.04 561,702.67C577.23,707.4 595.62,712.76 601.87,714.59C613.73,718.05 617.33,719.67 610.5,718.48C591.5,715.16 550.53,705.57 488.13,689.82C456.57,681.86 445.31,678.8 414,669.67C409.32,668.3 400.1,665.77 393.5,664.03C386.9,662.29 371.15,658 358.5,654.49C324.73,645.12 294.15,637.06 262,629.03C246.32,625.12 230.57,621.05 227,620C223.43,618.94 211.28,615.61 200,612.58C169.95,604.53 163.88,602.79 164.3,602.37C164.72,601.94 183.79,605.76 197.5,609.01C202.45,610.18 221.37,614.23 239.54,618C257.71,621.78 281.97,627.15 293.45,629.94C304.93,632.73 314.48,634.86 314.67,634.67C314.86,634.47 308.82,632.64 301.26,630.58C293.69,628.52 281.2,625.11 273.5,623C265.8,620.89 241.5,614.6 219.5,609.02C197.5,603.45 166.68,595.57 151,591.51C135.32,587.45 108.33,580.46 91,575.98C55.06,566.68 48.72,564.94 49.18,564.49C50.38,563.3 112.71,577.71 181.5,595.09C205.7,601.2 242.38,610.38 263,615.48C320.51,629.69 364.17,641.42 376.5,645.98C379.8,647.2 383.47,648.26 384.65,648.35C385.84,648.43 386.56,648.9 386.27,649.38C385.97,649.86 386.35,650.05 387.11,649.8C387.87,649.54 390.75,650.32 393.5,651.52C396.25,652.72 400.51,654.02 402.97,654.4L407.44,655.09L404.99,652.49C402.87,650.24 402.81,649.99 404.52,650.63C405.61,651.04 406.99,652.04 407.6,652.84C408.2,653.65 409.18,654.01 409.77,653.64C411.21,652.75 416,654.99 416,656.55C416,657.84 420.18,660.1 427.1,662.54C432.82,664.55 432.87,664.49 428.84,660.25C422.58,653.65 417.32,645.82 410.55,633C404.87,622.24 403.1,620.56 406.15,628.82C406.62,630.09 407,631.31 407,631.53C407,632.28 396.64,624.49 391.83,620.11C386.12,614.92 385.69,615.66 390.5,622.42C392.42,625.13 393.8,627.53 393.56,627.77C393.33,628 390.07,625.75 386.32,622.77C375.26,613.95 372,611.7 372,612.84C372,613.82 379.61,620.59 386.03,625.33C388.47,627.13 388.47,627.13 385.5,625.44C383.85,624.5 380.29,622.16 377.59,620.25C374.89,618.34 369.94,615.53 366.59,614.01C363.24,612.48 353.36,607.79 344.62,603.58C335.89,599.37 328.62,596.05 328.47,596.21C328.32,596.37 337.53,601.83 348.94,608.34C360.35,614.85 371,621.27 372.59,622.6L375.5,625.03L370,622.64C366.98,621.33 357.75,617.24 349.5,613.55C336.31,607.67 316,599.91 314.15,600.05C313.79,600.08 322.21,604.38 332.85,609.62C343.49,614.85 351.97,619.36 351.7,619.63C351.43,619.9 346.32,618.24 340.35,615.94C315.02,606.18 310.53,604.54 291.07,597.95C279.83,594.14 270.5,591.17 270.32,591.34C269.89,591.78 284.11,597.13 301.21,602.96C323.51,610.56 351.7,621.81 358.79,625.94C361.86,627.73 359.28,627.06 351.33,624C347.04,622.34 334.75,618.5 324.01,615.46C313.28,612.41 290.55,605.7 273.5,600.54C256.45,595.38 230.12,587.71 215,583.51C199.88,579.3 179.4,573.59 169.5,570.83C125.61,558.57 26.47,525.19 28.36,523.31C29.38,522.29 74.51,535 107.32,545.55C137.41,555.23 136.47,554.33 102,540.39C90.72,535.83 81.97,532.07 82.54,532.05C84.75,531.95 109.98,540.95 119.5,545.24C125,547.71 130.62,550.07 132,550.48C133.38,550.89 138.1,552.69 142.5,554.48C157.09,560.43 164,562.83 164,561.97C164,561.5 163.51,560.81 162.9,560.44C160.64,559.04 154.04,547.65 152.61,542.67C149.08,530.43 146.99,520.91 145.97,512.5C145.08,505.14 144.43,503.02 142.39,500.89C140.57,498.99 139.64,496.52 138.99,491.89C137.76,483.2 137.32,456.58 138.3,450.85L139.09,446.19L116.3,440.6C97.69,436.04 58.88,425.96 37.15,420.05C34.76,419.4 32.99,418.67 33.23,418.43C33.47,418.2 41.28,419.55 50.58,421.45C105.74,432.71 117.64,435.22 128.23,437.83C134.68,439.41 140.19,440.48 140.48,440.19C140.76,439.9 141,438.93 141,438.03C141,436.84 139.34,436.06 134.79,435.12C126.48,433.4 81.16,421.4 78,420.08C75.73,419.13 75.82,419.08 79,419.52C85.72,420.45 114.61,425.91 128.5,428.87C136.2,430.51 142.78,431.54 143.12,431.17C143.46,430.8 144.03,429.27 144.38,427.77C144.92,425.49 144.65,424.96 142.76,424.54C141.52,424.26 137.35,423.35 133.5,422.52C118.65,419.3 102.45,414.51 105.32,414.18C108.03,413.87 135.03,418.15 141.72,419.96C144.84,420.79 144.96,420.71 145.6,417.3C146.01,415.16 145.84,413.52 145.18,413.11C144.16,412.48 134.81,410.6 92.5,402.51C82.6,400.62 65.95,397.26 55.5,395.04C26.24,388.83 23.34,387.47 47,391.06C54.42,392.19 70.85,394.64 83.5,396.5C96.15,398.37 115.71,401.46 126.96,403.38C138.22,405.29 147.78,406.64 148.21,406.37C149.09,405.83 149.31,402 148.46,402C148.17,402 136.43,399.72 122.38,396.94C99.24,392.35 90.42,390.24 93.67,390.06C96.44,389.91 133.31,394.15 141.94,395.61C150.93,397.13 151.44,397.12 152.7,395.39C153.43,394.4 153.87,393.12 153.69,392.56C153.5,392.01 147.76,390.55 140.92,389.33C123.92,386.3 109.92,383.26 109.15,382.45C108.79,382.07 109.85,382.03 111.5,382.36C113.15,382.69 120.12,383.43 127,384C133.88,384.57 143.49,385.73 148.37,386.57C156.35,387.95 157.4,387.95 158.93,386.56C160.87,384.81 171.34,381 174.22,381C175.26,381 175.88,380.61 175.58,380.13C175.29,379.65 171.1,378.95 166.27,378.56C161.45,378.18 152.32,377.01 146,375.96C134.63,374.08 134.59,374.07 142.5,374.56C146.9,374.84 158.18,376.01 167.56,377.17C177.96,378.46 186.4,379.02 189.17,378.6L193.71,377.92L194.35,368.81C195.17,357.32 195.19,340.66 194.39,338.58C193.89,337.27 191.89,337 182.64,337.01C176.51,337.01 169.18,337.3 166.35,337.64C161.53,338.22 161.11,338.49 159.72,342.04C157.1,348.71 148.09,351.26 134.59,349.16C123.14,347.38 119.94,342.63 117.98,324.5C117.39,319 116.65,313.04 116.34,311.25L115.78,308L124.14,308.01C128.74,308.01 137.68,308.47 144,309.01C153.85,309.87 155.76,310.32 157.29,312.16L159.07,314.31L209.29,312.64C264.65,310.8 311.19,309.42 352.75,308.39L380,307.72L380,301.68L402.75,302.34C421.94,302.89 425.68,303.24 426.68,304.6C427.72,306 432.03,306.23 461.68,306.46C516.47,306.9 547.34,310.59 571.11,319.57C583.51,324.26 615.46,343.62 640.54,361.65C649.32,367.97 657.48,373.81 658.68,374.64C660.68,376.01 661.05,375.95 663.06,373.94C665.03,371.97 665.97,371.79 671.88,372.31C681.06,373.12 687.38,375.53 690.93,379.57C695.63,384.93 696.67,390.56 694.38,398.27C693.46,401.35 700.08,403.01 725.46,406.04C777.19,412.21 815.36,419.82 845.48,429.96C877.16,440.63 888.92,449.7 909.69,479.5C918.74,492.48 929.25,506.45 935.41,513.68C939.45,518.42 939.88,519.44 940.41,525.68C941.39,537.13 942.7,545.32 944.15,549.08C944.9,551.05 948.57,556 952.3,560.08C956.03,564.16 959.35,568.55 959.67,569.82C960.93,574.82 956.74,579.07 947,582.67C944.52,583.58 942.22,584.59 941.88,584.92C941.54,585.24 940.98,588.04 940.63,591.13L940.01,596.77L948.35,599.37C958.42,602.51 961.31,604.62 963.55,610.5C966.25,617.55 965.12,622.63 959.82,627.36C957.45,629.48 953.7,632.16 951.5,633.32C947.78,635.29 947.67,635.46 950,635.74C955.51,636.4 971,640.19 971.5,640.99C971.79,641.47 969.43,642.19 966.26,642.61L960.5,643.37L971.5,645.48L982.5,647.58L968.74,648.9C961.17,649.63 954.77,650.56 954.52,650.97C954.27,651.38 958.21,652.03 963.28,652.42C973.99,653.24 988.05,655.69 983.5,655.94C981.85,656.03 972.18,656.34 962.01,656.64C951.85,656.93 942.9,657.52 942.14,657.94C941.34,658.39 944.79,659.01 950.12,659.39C955.28,659.75 963.77,660.58 969,661.22C977.64,662.28 978.14,662.45 974.5,663.12C972.3,663.53 960.38,663.51 948,663.08C935.62,662.66 922.8,662.59 919.5,662.92L913.5,663.54L920,664.23C923.58,664.62 933.7,665.65 942.5,666.53C951.3,667.41 959.79,668.45 961.37,668.84C962.94,669.23 946.59,669.38 925.04,669.16C883.77,668.74 874.12,669.65 896.75,671.83C913.21,673.42 948.11,678.22 947.51,678.82C947.26,679.08 937.03,678.69 924.78,677.96C899.8,676.47 844.37,676.4 839,677.85L835.5,678.8L838.8,678.9C842.37,679.01 885.14,685.46 896.5,687.6L903.5,688.92L895,688.43C890.33,688.17 878.85,687.28 869.5,686.45C851.14,684.83 790.07,683.28 791.18,684.47C791.55,684.87 801.23,686.46 812.68,688.01C835.15,691.06 871.21,696.88 871.91,697.57C872.79,698.45 858.88,697.27 818,692.97C812.23,692.36 793.1,691.7 775.5,691.49C740.41,691.07 740.82,690.78 770,695.48C775.23,696.33 787.15,698.58 796.5,700.48C811.01,703.44 812.4,703.87 806,703.44C801.88,703.15 794.67,702.49 790,701.95C768.31,699.46 748.6,698.01 729.4,697.52L708.5,696.97L717,698.81C721.67,699.82 736.98,702.87 751,705.58C765.02,708.28 775.35,710.63 773.95,710.8C772.55,710.96 757.25,709.31 739.95,707.13C722.65,704.95 701.08,702.67 692,702.07C682.92,701.46 672.62,700.76 669.11,700.51C659.86,699.84 662.23,700.92 674.81,703.1C686.69,705.15 723.98,713.65 724.82,714.48C725.84,715.51 720.73,714.94 694.33,711.07C679.58,708.91 659.17,706.21 649,705.06C638.83,703.91 624.73,702.26 617.69,701.38C610.64,700.51 604.68,699.98 604.45,700.22C604.04,700.63 622.16,705.8 659.5,715.95C675.66,720.34 678.45,721.55 669.5,720.27ZM528,711.06C519.79,709.13 489.12,701.16 454,691.83C441.62,688.54 420.48,683 407,679.51C373.71,670.91 351.44,664.95 326.5,657.99C314.95,654.76 299.88,650.71 293,648.98C286.12,647.25 272.4,643.58 262.5,640.83C243.08,635.43 223.7,630.34 176,618.08C138.82,608.53 106.91,599.75 107.44,599.23C107.88,598.78 150.81,607.81 180.5,614.6C208.29,620.95 311.89,646.69 338.5,653.85C367.15,661.57 424.92,677.6 446.5,683.82C463.76,688.79 537.15,711.91 537.92,712.62C538.68,713.32 535.56,712.83 528,711.06ZM439,697.36C433.77,696.01 408.12,688.78 382,681.3C355.88,673.82 327.07,665.6 318,663.02C264.48,647.85 225.97,636.51 226.9,636.2C228.47,635.68 309.65,655.72 344,665.11C358.79,669.15 450,698.81 450,699.58C450,700.18 449.54,700.09 439,697.36ZM725.76,672.01C740.13,671.12 741.61,670.84 750.76,667.15C758.23,664.14 763.88,662.72 775,661.05C808.16,656.08 899.45,640.82 904,639.49C904.83,639.25 911.44,638.39 918.71,637.6C930.98,636.25 932.51,635.84 940.21,631.83C950.06,626.71 958,619.56 958,615.82C958,611.35 954.47,608.2 946.88,605.9C939.31,603.6 936.24,604.02 942.6,606.49C951.58,609.98 953.49,611.36 953.8,614.62C954.06,617.26 953.37,618.38 949.3,621.97C946.66,624.31 941.37,627.79 937.55,629.72C931.69,632.68 928.7,633.45 918.55,634.63C911.92,635.4 895.02,638.05 881,640.52C856.81,644.77 805,653.29 774.5,658.03C764.53,659.58 757.49,661.35 750.04,664.18C735.43,669.73 726.59,670.28 661.5,669.72C600.64,669.19 594.67,668.69 555.69,660.94C542.04,658.22 529.22,656.06 527.19,656.13C524.23,656.23 524.69,656.44 529.5,657.2C532.8,657.71 544.27,659.87 555,661.99C579.24,666.78 604.14,670.99 614,671.97C625.05,673.07 708.04,673.1 725.76,672.01ZM691.5,663.98C687.65,663.22 648.94,663.77 648.08,664.6C647.85,664.82 658.43,664.95 671.58,664.89C686.36,664.81 693.97,664.47 691.5,663.98ZM594,660.14C590.42,658.6 583.84,655.29 579.37,652.8C560.96,642.53 537,632.85 526.25,631.33L522,630.73L522.02,638.11C522.03,643.25 522.33,645.04 523,644C523.53,643.17 523.98,640.33 523.98,637.68C524,633.57 524.26,632.94 525.75,633.38C526.71,633.66 530.42,634.63 534,635.53C543.61,637.96 555.76,643.24 571.5,651.82C585.91,659.69 593.64,662.93 598,662.94C599.71,662.94 598.44,662.06 594,660.14ZM696,659.98C699.12,657.94 694.5,657.03 681.5,657.13C673.37,657.2 669.62,657.52 671.5,658C674.37,658.73 674.39,658.77 672,659.03C667.88,659.47 677.62,660.68 686.5,660.83C690.9,660.91 695.17,660.53 696,659.98ZM655.75,659.28C654.24,659.05 651.76,659.05 650.25,659.28C648.74,659.51 649.98,659.7 653,659.7C656.02,659.7 657.26,659.51 655.75,659.28ZM742.95,650.9C742.06,649.24 741.18,648.92 738.66,649.35C736.92,649.64 731.45,650.24 726.5,650.68C717.5,651.47 717.5,651.47 723,652.07C726.02,652.4 732,652.75 736.29,652.84C743.9,653 744.05,652.95 742.95,650.9ZM456.57,650.53C461.55,649.04 469,643.78 469,641.75C469,641.15 467.88,641.71 466.5,643C465.13,644.29 463.79,645.12 463.52,644.85C463.25,644.58 464.67,642.82 466.67,640.93C469.22,638.52 470.09,638.08 469.61,639.44C468.93,641.34 468.96,641.34 470.96,639.54C473.29,637.43 473.79,635.1 471.5,637C469.95,638.28 469.42,637.15 470.75,635.43C471.16,634.9 469.63,636.39 467.35,638.74C457.07,649.34 446.09,648.44 433.91,635.98C420.11,621.89 412.1,594.79 413.22,566C413.51,558.52 413.39,555.31 412.92,558C411.59,565.74 411.92,588.26 413.49,597.3C416.49,614.48 423.18,628.6 433.35,639.19C441.63,647.81 451.21,650.6 458.84,646.6C460.68,645.64 462.44,645.1 462.75,645.41C463.9,646.56 455.32,649.34 450.5,649.38C442.68,649.45 437.1,646.17 429.97,637.31C419.56,624.36 414.36,611.37 410.97,589.85C409.08,577.82 409.04,577.72 409.58,586C410.37,598.26 413.4,611.77 417.49,621.25C424.07,636.52 435.19,648.71 444.5,650.86C450.24,652.19 451.09,652.16 456.57,650.53ZM783,649.56C787.8,648.72 789.24,648.22 787,648.17C785.08,648.13 780.58,648.69 777,649.43C768.56,651.16 773.26,651.27 783,649.56ZM800.5,647.06C803.98,646.34 804.11,646.22 801.5,646.17C799.85,646.14 796.7,646.49 794.5,646.94C791.02,647.66 790.89,647.78 793.5,647.83C795.15,647.86 798.3,647.51 800.5,647.06ZM640.87,646.54C640.25,645.92 618.39,643.27 609,642.68L601.5,642.2L608.5,643.62C617.31,645.41 641.96,647.63 640.87,646.54ZM718.95,645.34C723.89,644.99 727.7,644.33 727.42,643.87C726.66,642.64 692.06,631.61 691.31,632.36C690.96,632.71 690.85,633.13 691.08,633.3C692.06,634 710.74,640.96 713.26,641.56C714.78,641.93 716.2,642.51 716.42,642.86C716.63,643.21 703.47,643.24 687.16,642.92C654.57,642.27 651.81,641.82 647.04,636.39C643.49,632.35 642.04,625.85 641.87,613.2C641.75,604.73 641.64,604.13 640.96,608.5C639.84,615.83 641.62,630.62 644.28,635.98C647.13,641.72 653.04,644.87 663.17,646.04C670.64,646.89 702.7,646.5 718.95,645.34ZM809.27,645.34C808.59,645.07 807.24,645.05 806.27,645.31C805.3,645.56 805.85,645.78 807.5,645.81C809.15,645.83 809.95,645.62 809.27,645.34ZM815.75,644.31C814.79,644.06 813.21,644.06 812.25,644.31C811.29,644.56 812.08,644.77 814,644.77C815.92,644.77 816.71,644.56 815.75,644.31ZM822.27,643.34C821.59,643.07 820.24,643.05 819.27,643.31C818.3,643.56 818.85,643.78 820.5,643.81C822.15,643.83 822.95,643.62 822.27,643.34ZM450.66,640C444.46,636.91 436.35,629.35 433.07,623.62C429.59,617.53 424.97,605.79 425.06,603.23C425.09,602.28 426.35,604.92 427.86,609.11C431.32,618.69 435.61,625.39 442.35,631.77C450.77,639.73 459.36,643 464,640C465.09,639.29 464.28,639.02 461,639.01C451.44,638.95 440.99,629.89 433.95,615.55C428.42,604.28 425.92,591.37 425.81,573.5C425.74,560.94 425.64,560.17 424.84,566C424.35,569.58 423.57,574.98 423.11,578L422.26,583.5L421.74,566.5L420.77,574C419.7,582.24 421,596.27 423.67,605.26C426.66,615.33 433.1,627.23 438.47,632.6C443.59,637.72 450.12,641.91 453,641.92C453.82,641.92 452.77,641.06 450.66,640ZM476.99,630.03C481.13,621.82 480.75,621.02 476.48,628.95C472.82,635.74 472.71,636 473.49,636C473.75,636 475.33,633.31 476.99,630.03ZM746.52,601.72C749.57,589.83 752.8,587.59 769.24,585.96C796.57,583.26 845.28,577.17 877.79,572.39C898.69,569.32 899.37,569.38 901.91,574.57C903.16,577.1 903.05,579.6 901.01,595.47C899.74,605.39 898.49,616.31 898.23,619.75C897.77,625.91 897.8,626 900.33,626C901.73,626 904.49,625.06 906.44,623.9C910.03,621.79 911.5,620.13 908.25,621.86C907.29,622.38 904.92,622.96 903,623.15C899.88,623.46 899.47,623.22 899.2,620.94C899.04,619.53 900.08,610.98 901.51,601.94C904.8,581.19 904.97,574.77 902.29,571.18C899.55,567.5 896.42,567.41 875.3,570.43C856.83,573.07 796.49,580.79 773.08,583.5C753.01,585.83 749.12,588.23 745.55,600.5C743.64,607.05 741.31,620.72 740.61,629.5C740.25,634.12 740.86,631.74 742.42,622.5C743.72,614.8 745.56,605.45 746.52,601.72ZM338.5,632.36C333.55,630.99 318.93,626.77 306,622.98C278.6,614.94 233.86,602.81 219.5,599.52C210.72,597.51 197.84,594.17 138,578.34C124.91,574.88 103.09,568.91 88.25,564.72C77.34,561.65 80.24,561.55 93.13,564.56C126.88,572.44 185.98,586.98 196.43,589.98C200.25,591.07 203.56,591.78 203.79,591.55C204.02,591.32 196.85,588.81 187.85,585.98C158.59,576.76 104.95,558.71 105.43,558.24C105.68,557.99 110.52,559.15 116.19,560.83C127.11,564.05 146.21,569.35 159.5,572.83C182.95,578.97 196.29,582.75 213,588C223.18,591.19 232.96,594.11 234.75,594.48C236.54,594.85 238,595.62 238,596.19C238,596.75 238.7,596.95 239.55,596.62C240.57,596.23 240.86,596.42 240.39,597.18C239.92,597.94 240.22,598.13 241.26,597.73C242.14,597.39 251.1,599.77 261.18,603C271.26,606.24 287.6,611.44 297.5,614.55C307.4,617.66 316.19,620.99 317.03,621.94C317.87,622.89 325.52,626.04 334.03,628.93C342.54,631.83 349.69,634.38 349.92,634.6C350.83,635.47 347.09,634.74 338.5,632.36ZM560.94,633.55C556.83,632.03 533,627.66 532.36,628.31C531.89,628.77 532.06,628.81 549,632.42C561.78,635.14 566.47,635.59 560.94,633.55ZM577,626.33C563.85,623.42 563.36,623.08 546.51,605.43C530.19,588.33 523.71,583.37 537.61,598.61C541.95,603.37 548.04,610.25 551.15,613.9C557.97,621.89 562.85,624.8 572.33,626.52C581.93,628.26 585.14,628.13 577,626.33ZM696.8,620.5C696.8,618.92 696.63,619.02 696,621C695.56,622.38 695.2,624.4 695.2,625.5C695.2,627.08 695.37,626.98 696,625C696.44,623.62 696.8,621.6 696.8,620.5ZM779.25,625.34C778.56,625.06 777.44,625.06 776.75,625.34C776.06,625.62 776.62,625.84 778,625.84C779.38,625.84 779.94,625.62 779.25,625.34ZM633,624.19C633,623.38 626.6,619.97 625.22,620.04C624.82,620.05 625.62,620.76 627,621.59L629.5,623.11L627,622.62C625.62,622.35 621.58,621.62 618,621C598.12,617.53 589.64,614.48 573.71,605.06C563.27,598.9 557.97,594.14 542.83,577.31C536.19,569.94 530.54,564.13 530.26,564.41C529.46,565.2 548.24,587.02 556.33,594.71C563.93,601.93 579.09,611.65 588.97,615.64C598.85,619.63 615.13,623.15 631.75,624.87C632.44,624.94 633,624.63 633,624.19ZM786.27,624.34C785.59,624.07 784.24,624.05 783.27,624.31C782.3,624.56 782.85,624.78 784.5,624.81C786.15,624.83 786.95,624.62 786.27,624.34ZM924.3,623.38C928.96,621.03 934,617.07 934,615.77C934,615.16 932.99,615.58 931.75,616.72C930.51,617.86 927.27,620.19 924.55,621.9C919.23,625.24 919.1,626.01 924.3,623.38ZM793.27,623.34C792.59,623.07 791.24,623.05 790.27,623.31C789.3,623.56 789.85,623.78 791.5,623.81C793.15,623.83 793.95,623.62 793.27,623.34ZM808,621.56C812.12,620.84 814.38,620.22 813,620.19C811.62,620.15 807.12,620.72 803,621.44C798.88,622.16 796.62,622.78 798,622.81C799.38,622.85 803.88,622.28 808,621.56ZM820.75,619.31C819.79,619.06 818.21,619.06 817.25,619.31C816.29,619.56 817.08,619.77 819,619.77C820.92,619.77 821.71,619.56 820.75,619.31ZM790.25,618.34C789.56,618.06 788.44,618.06 787.75,618.34C787.06,618.62 787.62,618.84 789,618.84C790.38,618.84 790.94,618.62 790.25,618.34ZM835,617.56C839.12,616.84 841.38,616.22 840,616.19C838.62,616.15 834.12,616.72 830,617.44C825.88,618.16 823.62,618.78 825,618.81C826.38,618.85 830.88,618.28 835,617.56ZM403.96,616.62C403.16,615.86 399.42,614.23 395.65,613C390.31,611.26 387.18,609.36 381.42,604.33C375.65,599.3 372.45,597.36 366.8,595.43C362.83,594.08 360.01,593.38 360.54,593.87C361.07,594.36 363.12,595.28 365.11,595.91C368.79,597.09 377,602.81 377,604.2C377,605.19 367.57,601.49 363,598.71C359.95,596.86 359.69,596.82 360.99,598.44C362.38,600.16 362.32,600.24 359.99,599.5C358.62,599.06 356.82,598.64 356,598.57C355.18,598.5 351.65,596.96 348.17,595.16C340.01,590.94 324.84,584.83 324.18,585.49C323.9,585.77 324.27,586 325,586C325.73,586 326.07,586.27 325.74,586.59C325.42,586.92 313.98,583.58 300.33,579.18C257.65,565.42 216.84,553.09 213.75,553.02C213.34,553.01 213,553.56 213,554.25C213,555.04 222.21,558.06 237.75,562.37C263.48,569.49 302.5,581.41 328.71,590.14C341.99,594.57 349.14,597.89 361.5,605.39C363.91,606.85 363.72,606.51 360.5,603.62C355.73,599.33 356.47,598.95 362.18,602.75C365.84,605.18 400.18,617.63 403.96,617.9C405.25,617.99 405.25,617.83 403.96,616.62ZM797.27,617.34C796.59,617.07 795.24,617.05 794.27,617.31C793.3,617.56 793.85,617.78 795.5,617.81C797.15,617.83 797.95,617.62 797.27,617.34ZM697.68,614.81C697.36,614.01 697.13,614.25 697.08,615.42C697.04,616.47 697.27,617.06 697.6,616.73C697.94,616.4 697.97,615.53 697.68,614.81ZM804.76,616.31C803.81,616.06 802.01,616.05 800.76,616.29C799.52,616.53 800.3,616.74 802.5,616.75C804.7,616.76 805.72,616.56 804.76,616.31ZM918.24,611.78C926.93,607.3 931.45,602.82 932.9,597.26C933.99,593.08 938.28,558.94 937.77,558.44C937.6,558.27 934.77,559.43 931.48,561.04C924.81,564.29 924.66,564.74 931,562.5C933.34,561.67 935.42,561 935.63,561C936.45,561 935.88,566.58 933.51,581.67C932.14,590.38 931.02,597.8 931.01,598.17C930.97,600.51 924.49,605.66 915.94,610.13C910.47,612.99 906,615.73 906,616.23C906,617.55 909.52,616.27 918.24,611.78ZM834.35,612.29C847.48,610.25 857.73,608.41 857.14,608.21C856.14,607.88 810.72,614.66 808.5,615.48C805.59,616.54 812.86,615.65 834.35,612.29ZM851.5,615.06C854.07,614.53 854.6,614.21 853,614.17C851.62,614.14 848.7,614.49 846.5,614.94C843.93,615.47 843.4,615.79 845,615.83C846.38,615.86 849.3,615.51 851.5,615.06ZM486.06,597.43C489.9,566.95 480.57,530.83 464.69,514.7C458.75,508.66 453.49,505.86 446.9,505.22C438.18,504.38 428.2,510.97 421.5,521.99C416.9,529.57 416.99,531 421.63,523.99C426.85,516.1 430.81,512.17 436.45,509.29C440.56,507.19 442.31,506.86 446.75,507.31C452.26,507.88 459.02,511.16 462.41,514.9C464.98,517.74 463.59,517.55 459.63,514.53C455.36,511.28 449.73,508.98 446.28,509.09C444.38,509.14 445.19,509.58 448.85,510.47C451.8,511.18 456.2,513.16 458.63,514.88C461.07,516.6 463.44,518 463.91,518C465.37,518 469.99,524.74 474.05,532.79C479.99,544.55 483.99,561.58 484.68,578C485.18,589.8 484.32,602.96 482.47,612C482.19,613.38 482.61,612.85 483.4,610.84C484.19,608.83 485.38,602.79 486.06,597.43ZM860.27,613.34C859.59,613.07 858.24,613.05 857.27,613.31C856.3,613.56 856.85,613.78 858.5,613.81C860.15,613.83 860.95,613.62 860.27,613.34ZM396.77,603.15C393.76,600.04 390.28,595.79 389.04,593.7C386.33,589.16 385.14,589.43 387.53,594.05L389.2,597.29L386.85,596.57C385.56,596.18 382.7,595.42 380.5,594.88C378.3,594.34 373.62,593.02 370.1,591.94C366.58,590.86 363.54,590.13 363.34,590.33C362.91,590.75 373.95,595 383.31,598.01C388.57,599.7 391.43,601.42 395.81,605.51C403.16,612.37 403.91,610.52 396.77,603.15ZM451.45,606.5C453.82,602.45 454.46,602 457.79,602C461.41,602 461.5,602.09 461.5,605.75C461.5,609.08 461.78,609.5 464,609.5C466.25,609.5 466.53,609.06 466.79,605C466.95,602.52 468.01,597.63 469.16,594.13C470.92,588.74 471.17,586.04 470.78,576.63C470.28,564.54 468.76,559.45 464.27,554.76C461.53,551.9 455.51,550.09 453.94,551.66C453.39,552.21 453.88,552.64 455.19,552.74C462.33,553.28 466.5,558.61 468.76,570.11C470.05,576.67 470.1,578.84 469.02,583.89C468.32,587.18 466.91,591.26 465.89,592.94C462.67,598.23 457.1,596.52 452.84,588.92C450.96,585.58 450.45,585.19 449.89,586.69C448.67,589.95 445.06,580.31 444.94,573.5C444.85,568.03 444.75,567.76 443.78,570.43C443.01,572.54 443.04,575.51 443.87,580.93C444.53,585.3 444.74,591.78 444.36,596.25C443.91,601.57 444.05,604 444.79,604C445.39,604 446.16,603.55 446.5,603C448.11,600.4 449.19,602.25 448.55,606.5C448.18,608.98 448.09,611 448.34,611C448.6,611 450,608.98 451.45,606.5ZM806.25,610.34C805.56,610.06 804.44,610.06 803.75,610.34C803.06,610.62 803.62,610.84 805,610.84C806.38,610.84 806.94,610.62 806.25,610.34ZM821,608.56C825.12,607.84 827.38,607.22 826,607.19C824.62,607.15 820.12,607.72 816,608.44C811.88,609.16 809.62,609.78 811,609.81C812.38,609.85 816.88,609.28 821,608.56ZM862.25,607.34C861.56,607.06 860.44,607.06 859.75,607.34C859.06,607.62 859.62,607.84 861,607.84C862.38,607.84 862.94,607.62 862.25,607.34ZM839,606.05C842.32,605.46 842.71,605.24 840.5,605.2C838.85,605.17 835.48,605.51 833,605.95C829.68,606.54 829.29,606.76 831.5,606.8C833.15,606.83 836.52,606.49 839,606.05ZM848.27,604.34C847.59,604.07 846.24,604.05 845.27,604.31C844.3,604.56 844.85,604.78 846.5,604.81C848.15,604.83 848.95,604.62 848.27,604.34ZM469.73,599.25C469.33,597.58 469.27,597.58 468.55,599.25C468.13,600.21 468.13,601.79 468.55,602.75C469.27,604.42 469.33,604.42 469.73,602.75C469.96,601.79 469.96,600.21 469.73,599.25ZM817.25,603.34C816.56,603.06 815.44,603.06 814.75,603.34C814.06,603.62 814.62,603.84 816,603.84C817.38,603.84 817.94,603.62 817.25,603.34ZM854.25,603.34C853.56,603.06 852.44,603.06 851.75,603.34C851.06,603.62 851.62,603.84 853,603.84C854.38,603.84 854.94,603.62 854.25,603.34ZM824.27,602.34C823.59,602.07 822.24,602.05 821.27,602.31C820.3,602.56 820.85,602.78 822.5,602.81C824.15,602.83 824.95,602.62 824.27,602.34ZM831.27,601.34C830.59,601.07 829.24,601.05 828.27,601.31C827.3,601.56 827.85,601.78 829.5,601.81C831.15,601.83 831.95,601.62 831.27,601.34ZM838.25,600.34C837.56,600.06 836.44,600.06 835.75,600.34C835.06,600.62 835.62,600.84 837,600.84C838.38,600.84 838.94,600.62 838.25,600.34ZM845.25,599.34C844.56,599.06 843.44,599.06 842.75,599.34C842.06,599.62 842.62,599.84 844,599.84C845.38,599.84 845.94,599.62 845.25,599.34ZM523.67,589.25C522.99,578.58 520.37,562.44 517.1,548.67C514.53,537.85 514.53,537.71 517,538.5C518.37,538.94 519.22,538.6 519.66,537.45C520.23,535.96 520.53,536.04 522.13,538.13C523.99,540.54 524.48,539.9 524.03,535.64C523.72,532.65 526.38,534.28 527.53,537.78C529.1,542.5 530,542.76 530,538.49L530,534.65L535,539.35L535,536.17C535,532.28 536.74,531.99 537.56,535.75C538.81,541.45 539.48,541.3 539.78,535.25C540.24,526.01 541.91,526.96 544.6,538L545.94,543.5L545.63,535.21C545.46,530.66 544.89,526.49 544.35,525.95C543.44,525.04 506.94,521.8 506.13,522.56C505.93,522.75 507.37,526.74 509.33,531.44C515.19,545.43 520.23,568.55 522.6,592.25C523.62,602.47 524.39,600.33 523.67,589.25ZM851.73,598.4C851.4,598.06 850.53,598.03 849.81,598.32C849.01,598.64 849.25,598.87 850.42,598.92C851.47,598.96 852.06,598.73 851.73,598.4ZM562,592.7C562,592.54 560.09,590.63 557.75,588.45L553.5,584.5L557.45,588.75C561.13,592.7 562,593.46 562,592.7ZM361.92,589.65C361.69,589.46 360.04,588.8 358.25,588.2C354.59,586.96 353.79,587.58 357.25,588.97C359.47,589.86 362.73,590.33 361.92,589.65ZM352,588.17C352,586.44 339.52,582.15 338.23,583.43C337.92,583.75 338.3,584.01 339.08,584.01C339.86,584.02 342.75,585.11 345.5,586.43C351.09,589.13 352,589.37 352,588.17ZM385.96,587.75C385.94,587.05 380.14,584.58 372.71,582.1C365.45,579.68 358.86,577.47 358.09,577.18C357.29,576.89 356.95,577.1 357.3,577.67C358.39,579.44 370.25,584.82 377.51,586.84C386.26,589.27 386.01,589.25 385.96,587.75ZM712.82,587.05C719.28,586.52 722.64,585.79 723.76,584.67C724.65,583.78 725.18,582.89 724.94,582.7C724.7,582.51 719.55,582.73 713.5,583.19C707.45,583.66 678.76,584.11 649.75,584.2C620.74,584.3 597,584.46 597,584.57C597,585.11 614.85,587.31 625,588.02C637.75,588.91 698.23,588.24 712.82,587.05ZM498.68,574.25C497.42,552.43 491.25,529.1 483.81,517.95C475.67,505.77 461.83,495.9 450.74,494.38C445.4,493.65 437.72,495.41 435.77,497.81C434.68,499.16 434.78,499.26 436.5,498.57C444.74,495.26 451.4,495.67 460,500.03C478.03,509.15 489.31,531.52 494.99,569.4C496.13,577.05 497.31,583.69 497.59,584.15C499,586.43 499.25,584.12 498.68,574.25ZM384.1,577L383.22,572.5L383.11,576.17C383.05,578.19 383.31,580.64 383.68,581.62C384.81,584.54 385.05,581.82 384.1,577ZM459.44,572.22C459.8,571.87 461.08,572.17 462.3,572.9C464.26,574.08 464.33,574.06 463,572.72C462.18,571.89 460.53,570.92 459.34,570.57C457.52,570.02 457.07,570.42 456.49,573.04C456.11,574.75 456.15,577.81 456.58,579.83L457.35,583.5L458.07,578.18C458.47,575.26 459.09,572.58 459.44,572.22ZM643.55,570.87C643.16,566.4 642.63,562.2 642.37,561.53C642.06,560.71 637.06,559.97 627.2,559.3C614.71,558.45 612.24,558.52 610.79,559.77C608.84,561.44 607.24,569.89 608.69,570.86C609.22,571.21 609.96,572.34 610.33,573.36C610.86,574.79 610.65,575.08 609.44,574.61C608.32,574.19 607.95,574.51 608.18,575.71C608.68,578.27 612.04,578.79 628.88,578.9L644.26,579L643.55,570.87ZM661,577.14C661,576.12 660.71,573.19 660.36,570.64C659.83,566.73 659.4,566.02 657.61,566.12C655.92,566.21 655.85,566.32 657.25,566.69C658.95,567.13 659.17,568.04 659.4,575.75C659.5,579.12 661,580.42 661,577.14ZM678,577.8C678,576.87 678.27,576.87 679.2,577.8C680.94,579.54 683,579.27 683,577.31C683,575.83 683.19,575.86 684.5,577.56C685.93,579.41 686.06,579.42 687.38,577.72C688.5,576.28 688.87,576.21 689.31,577.36C689.65,578.24 691.09,578.7 693.18,578.59L696.5,578.4L696.36,573.21C696.29,570.36 695.93,566.44 695.57,564.51L694.91,561L663.41,561L663.75,567.75C664.34,579.37 664.08,579 671.52,579C675.89,579 678,578.61 678,577.8ZM718.68,573.39C718.01,569.27 714.87,563.88 714.24,565.77C713.67,567.48 700.35,567.46 699.66,565.75C699.38,565.06 699.12,565.53 699.08,566.8C699,569.02 699.2,569.08 705.25,568.49C708.69,568.16 712.48,567.68 713.68,567.44C716.07,566.95 716.79,568.25 717.19,573.75C717.32,575.54 717.84,577 718.34,577C718.85,577 719,575.38 718.68,573.39ZM377.88,575.55C377.31,574.98 361.78,569.01 347.5,563.88C341.45,561.7 323.9,556.14 308.5,551.51C270.24,540.02 268.88,539.54 265.96,536.27C262.43,532.34 254.32,529.56 240.12,527.44C234.71,526.63 235.26,528.45 240.74,529.47C242.81,529.85 248.44,531.07 253.25,532.17C262.48,534.29 265.33,536.23 257.25,534.9C248.25,533.42 245.99,534.05 253,536.08L259.5,537.96L254.5,537.45C245.85,536.56 298.45,553.49 360,571.41C374.42,575.6 379,576.66 377.88,575.55ZM331,570.5C330.32,569.67 329.02,569.02 328.13,569.04C327.01,569.06 327.28,569.52 329,570.5C332.21,572.33 332.52,572.33 331,570.5ZM382.69,567.27C382.44,566.3 382.22,566.85 382.19,568.5C382.17,570.15 382.38,570.95 382.66,570.27C382.93,569.59 382.95,568.24 382.69,567.27ZM274.5,567.62C265.89,563.9 227.79,551.93 225,552.08C223.67,552.15 223.67,552.23 225,552.78C225.82,553.12 237.3,556.88 250.5,561.15C272.74,568.33 281.75,570.76 274.5,567.62ZM286.5,567C283.75,565.82 282.17,565.82 284,567C284.82,567.53 286.18,567.94 287,567.91C287.99,567.88 287.82,567.57 286.5,567ZM401,566.44C401,564.63 380.92,557.51 360.39,552.06C352.09,549.85 344.44,547.78 343.39,547.45C341.68,546.9 341.66,546.95 343.22,547.96C345.85,549.65 396.19,566.85 398.75,566.93C399.99,566.97 401,566.75 401,566.44ZM275.92,563.62C274.97,562.74 241.05,552.89 237.43,552.44C235.27,552.17 242.5,554.61 253.5,557.88C271.85,563.32 277.04,564.65 275.92,563.62ZM360,562.59C360,561.45 271.16,534.51 270.29,535.38C269.97,535.69 270.34,536.18 271.11,536.45C272.64,537 309,547.96 329.5,554.04C336.65,556.17 346.1,559.02 350.5,560.38C358.94,563 360,563.25 360,562.59ZM700.5,562C700.84,561.45 700.42,561 699.56,561C698.7,561 698,561.45 698,562C698,562.55 698.42,563 698.94,563C699.46,563 700.16,562.55 700.5,562ZM927,557.72C933.65,555.47 936.6,553.98 936.82,552.75C937.27,550.33 934.88,550.52 929.22,553.36C926.62,554.66 921.46,556.72 917.75,557.94C914.04,559.16 911,560.35 911,560.58C911,561.91 918.76,560.52 927,557.72ZM403,558.7C403,557.99 400.19,556.02 396.75,554.32C388.37,550.18 384.76,549.05 361,543.09C354.12,541.37 340,537.72 329.62,534.98C319.23,532.24 310.45,530.04 310.12,530.08C309.78,530.12 322.77,534.57 339,539.97C355.23,545.36 373.23,551.43 379,553.46C396.86,559.73 403,561.07 403,558.7ZM768.5,558.97C803.97,557.45 850.83,551.88 886.37,544.96C897.3,542.83 906.33,540.95 906.43,540.79C909.22,536.22 911.32,534.58 920.89,529.51C927.86,525.82 931.99,523.04 931.98,522.06C931.96,521.2 929.04,517.16 925.48,513.08C921.91,509 919,505.26 919,504.76C919,503.5 913.82,496.85 913.26,497.4C913.01,497.66 913.62,499.24 914.62,500.93C916.35,503.86 916.35,504.07 914.66,505.75C912.97,507.42 912.92,507.41 913.6,505.5C914.18,503.86 913.76,504.01 911.28,506.32C908.39,509 908.03,509.09 903.87,507.99C897.59,506.33 892.15,502.91 884.2,495.62L877.23,489.21L869.86,490.72C865.81,491.54 862.31,492.4 862.07,492.62C861.84,492.84 862.8,494.25 864.2,495.76C869.22,501.14 870.58,507.08 867.21,508.89C860.42,512.52 787.87,521.36 754,522.68C735.6,523.4 733.26,522.89 713.21,513.78C705.9,510.46 699.69,507.97 699.42,508.25C698.57,509.09 725.11,521.78 731.5,523.59C736.6,525.03 740.43,525.2 757,524.69C779.09,524.02 810.2,521.16 836,517.44C861.39,513.77 866.99,512.46 869.96,509.5C872.47,506.98 872.48,506.98 870.8,502.24L869.12,497.5L871.64,500.5C875.08,504.58 877.01,509.24 876.33,511.83C875.65,514.46 867.48,517.09 852.24,519.61C846.59,520.55 842.17,521.5 842.4,521.74C843.67,523 874.26,516.86 876.68,514.85C879.11,512.83 878.15,507.6 874.1,500.93C871.96,497.39 870.38,494.22 870.58,493.88C870.79,493.54 872.37,492.98 874.08,492.63C876.9,492.07 877.9,492.65 884.22,498.5C896.03,509.44 910.96,515.02 915.37,510.15C917.01,508.33 917.4,508.26 918.71,509.57C921.06,511.91 919.64,513.63 910.53,519.51C905.84,522.54 902,525.27 902,525.58C902,525.89 906.48,523.77 911.96,520.87C917.44,517.97 922.25,515.92 922.64,516.31C923.54,517.21 921.81,518.59 909.68,526.59C900.46,532.66 898.99,533.28 885.87,536.5C873.33,539.58 851.06,543.47 822.5,547.58C817,548.37 811.15,549.44 809.5,549.96C800.89,552.68 762,554.23 748,552.41C740.76,551.47 741.16,551.41 759.5,550.72C784.36,549.77 803.29,548.18 809.5,546.52C812.25,545.78 817.84,544.61 821.93,543.9C832.99,541.99 828.97,541.71 815.9,543.48C794.59,546.37 764.55,548.89 750,549.01C742.02,549.07 713.06,549.62 685.64,550.22C632.97,551.39 626.1,551.16 588,546.98C578.38,545.92 568.25,544.83 565.5,544.55L560.5,544.05L566,545.5C576.71,548.31 610.72,553.14 626.5,554.08C635.3,554.6 658.7,555.47 678.5,556C703.66,556.68 716.16,557.4 720,558.4C726.78,560.16 737.58,560.29 768.5,558.97ZM729.5,554.94C735.16,553.77 746.76,553.81 747.5,555C747.9,555.65 744.12,555.96 736.81,555.89C728.07,555.8 726.41,555.58 729.5,554.94ZM149.97,551.51C145.99,548.96 136.76,539.91 137.45,539.22C138.15,538.52 126.54,525.26 118.13,517.16C112.78,512.02 112,511.01 115.5,513.81C123.16,519.91 130.16,526.93 134.65,533C136.88,536.02 142.19,541.8 146.44,545.83C150.7,549.86 154.02,553.3 153.84,553.46C153.65,553.63 151.91,552.75 149.97,551.51ZM180.43,549.93C188.25,543.06 192.93,527.58 193.72,505.94C194.34,489.26 192.83,479.22 187.96,467.61C184,458.15 180.63,453.61 175.6,450.94C171.33,448.68 171.33,448.68 167.43,450.59C161.22,453.63 156.87,461.87 153.26,477.42C151.32,485.78 151.01,513.15 152.79,519.5C153.82,523.2 153.86,523.01 153.35,516.91C150.93,487.95 155.18,464.65 164.64,455.12C168.5,451.24 169.35,450.82 172.21,451.39C176.77,452.3 180.63,456.41 184.51,464.5C189.77,475.44 192.06,484.97 192.68,498.5C193.61,518.79 189.11,537.22 181.08,545.91C176.73,550.62 175.54,550.84 170.94,547.74C163.94,543.02 158.64,531.31 155.48,513.56L154.04,505.5L154.5,512.5C155.12,521.69 157.33,530.13 161.02,537.41C162.67,540.66 163.85,543.48 163.64,543.69C162.87,544.46 159.64,538.41 156.92,531.09C153.43,521.71 153.11,523.02 156.47,532.9C162.52,550.7 171.93,557.39 180.43,549.93ZM711,551.96C718.64,550.9 728.34,550.93 725,552C723.62,552.44 718.67,552.78 714,552.76C705.89,552.72 705.75,552.68 711,551.96ZM919.16,551.42C921.83,550.04 922.14,549.45 921.61,546.79C921.27,545.12 921,542.02 921,539.91C921,535.82 920.6,535.7 915.33,538.22C913.46,539.11 913.11,540.23 912.83,546.13C912.46,553.85 913.23,554.49 919.16,551.42ZM136.22,550.44C135,549.59 134,549.17 134,549.51C134,549.86 132.76,549.26 131.25,548.19C129.74,547.11 126.36,545.23 123.75,544.01C121.14,542.78 119,541.38 119,540.89C119,539.41 121.59,539.89 124.12,541.84C128.3,545.07 136.08,549.27 138.33,549.51C141.84,549.89 142,549.95 142,551C142,552.51 138.73,552.2 136.22,550.44ZM166.96,548.1C165.06,546.5 163.73,544.96 164,544.68C164.28,544.39 166.19,545.7 168.24,547.58C172.78,551.74 171.79,552.14 166.96,548.1ZM915.56,550.22C914.4,549.07 915.06,545.19 916.5,544.64C917.33,544.32 918,543.12 918,541.97C918,540.82 918.45,540.16 919,540.5C919.55,540.84 920,543.06 920,545.44C920,548.88 919.6,549.87 918.06,550.27C916.99,550.55 915.86,550.53 915.56,550.22ZM818.25,549.31C819.21,549.06 820.79,549.06 821.75,549.31C822.71,549.56 821.92,549.77 820,549.77C818.08,549.77 817.29,549.56 818.25,549.31ZM833,548.12C833,547.64 837.39,546.71 842.75,546.06C848.11,545.41 859.02,543.56 867,541.95C874.98,540.35 882.4,539.06 883.5,539.08C886.93,539.17 902.35,534.99 903.97,533.54C904.81,532.78 908.2,530.62 911.5,528.74C914.8,526.85 919.19,524.3 921.25,523.06C927.01,519.6 925.64,521.99 919.22,526.63C908.97,534.02 891.38,541.58 886.19,540.81C884.63,540.59 882.83,540.95 882.2,541.63C881.56,542.31 878.89,543.15 876.27,543.49C873.65,543.82 869.6,544.53 867.29,545.05C862.8,546.07 839.03,549 835.26,549C834.02,549 833,548.61 833,548.12ZM386.81,541C387.19,541 391.47,542.17 396.32,543.59C401.17,545.02 405.4,545.93 405.71,545.62C406.75,544.59 403.92,542.14 400.93,541.48C398.84,541.03 397.97,540.22 397.88,538.67C397.79,536.98 397.67,536.89 397.31,538.25C396.74,540.44 396.37,540.43 389.84,538.08C382.8,535.55 360.92,529.75 360.39,530.28C360.16,530.51 365.49,532.73 372.24,535.22L384.5,539.74L384.95,544.12L385.41,548.5L385.76,544.75C385.96,542.69 386.43,541 386.81,541ZM929.36,542.43C929.32,537.78 929.34,537.74 929.72,541.75C930.13,546.22 931.73,547.23 934.01,544.48C934.91,543.4 935.08,541.06 934.59,536.27C934.21,532.58 933.72,529.39 933.5,529.16C933.28,528.94 931.9,529.64 930.43,530.71C927.96,532.5 927.75,533.23 927.63,540.33C927.55,544.81 927.89,547.87 928.45,547.68C928.97,547.51 929.38,545.15 929.36,542.43ZM705,546.36C702.52,546.2 689.02,545.58 675,544.97C660.98,544.37 638.09,542.75 624.14,541.39C610.2,540.02 598.34,539.05 597.8,539.23C597.26,539.41 602.37,540.4 609.16,541.43C615.95,542.46 626.23,544.09 632,545.06C640.65,546.5 648.41,546.8 676,546.73C694.42,546.69 707.48,546.52 705,546.36ZM178.5,545.28C175.89,544.65 173.37,542.4 169.85,537.6C165.52,531.67 166.45,531.12 171.02,536.91C173.24,539.71 175.23,542 175.45,542C175.67,542 174.38,539.56 172.59,536.58C168.49,529.77 166.51,523.45 164.1,509.5L162.21,498.5L162,506.5C161.86,512.15 161.57,513.77 161,512C159.63,507.72 159.93,511.73 161.58,519.79C164.47,533.87 172.36,546.19 178.28,545.88C180.32,545.78 180.33,545.73 178.5,545.28ZM484.99,538.87C481.6,528.65 474.53,514.88 470.06,509.81C464.89,503.94 457.04,500 449.08,499.27C442.79,498.7 434.84,500.29 433.03,502.47C432.39,503.23 433.96,503.01 437.26,501.88C446.4,498.72 452.98,499.64 461.25,505.24C469.79,511.02 478.25,523.86 484.01,539.77C486.96,547.9 487.74,547.17 484.99,538.87ZM143.13,538.86C140.18,536.13 138.02,533.64 138.34,533.32C138.67,533 141.3,535.02 144.19,537.81C151.04,544.41 150.13,545.31 143.13,538.86ZM915,542C915,541.45 915.48,541 916.06,541C916.64,541 916.84,541.45 916.5,542C916.16,542.55 915.68,543 915.44,543C915.2,543 915,542.55 915,542ZM126.28,538.5C123.42,536.58 120.56,535 119.92,535C119.29,535 116.68,533.52 114.13,531.71C111.59,529.9 108.21,527.77 106.64,526.98C105.07,526.19 100.79,522.89 97.14,519.64C93.49,516.39 88.17,512.22 85.32,510.38C82.47,508.53 79.87,506.6 79.55,506.08C78.96,505.13 87.49,509.77 100.5,517.48C104.35,519.76 108.62,522.1 110,522.68C113.64,524.21 131.69,535.97 130.43,535.99C129.84,535.99 126.1,533.92 122.13,531.38C108.95,522.94 113.55,527.94 130.5,540.46C134.4,543.34 131.39,541.95 126.28,538.5ZM835.27,541.34C834.59,541.07 833.24,541.05 832.27,541.31C831.3,541.56 831.85,541.78 833.5,541.81C835.15,541.83 835.95,541.62 835.27,541.34ZM111.94,538.88C107.48,536.55 66,521.89 52.23,517.78C46.58,516.09 42.14,514.53 42.37,514.3C43.17,513.5 62.65,519.3 87.4,527.7C106.96,534.34 112.47,535.86 113.13,534.82C113.73,533.87 113.97,533.84 113.98,534.72C113.99,535.39 114.63,535.7 115.4,535.4C116.17,535.11 117.09,535.34 117.46,535.93C117.82,536.52 117.4,537 116.52,537C115.24,537 115.14,537.39 116,539C117.27,541.37 116.67,541.35 111.94,538.88ZM661.42,535C674.15,530.98 676.96,524.91 670.99,514.33L667.98,509L683.24,508.88C692.45,508.81 697.31,508.46 695.5,508C691.78,507.05 658.54,506.94 662,507.88C665.6,508.87 671,517.29 671,521.92C671,527.48 669.12,529.27 661.85,530.61C658.36,531.25 654.38,532.11 653,532.52C650.56,533.23 650.55,533.21 652.5,531.61C654.26,530.16 653.96,530.18 650,531.73C646.5,533.11 642.72,533.48 633,533.43C622.19,533.36 619.35,532.98 612,530.59C607.33,529.07 599.76,525.82 595.19,523.38L586.89,518.93L582.34,522.93L577.8,526.93L568.15,527.26L558.5,527.58L568.11,527.79C577.66,528 577.74,527.98 582.25,524.54L586.79,521.07L594.49,525.46C602.83,530.22 617.94,535.48 627.5,536.96C637.13,538.45 653.47,537.5 661.42,535ZM430.19,518.04C433.82,514.31 434.5,513.28 432.32,514.8C427.33,518.31 420.24,528.73 418.6,535C418.24,536.38 419.5,534.35 421.41,530.5C423.34,526.59 427.22,521.09 430.19,518.04ZM244.5,535C243.4,534.53 241.6,534.15 240.5,534.17C238.89,534.19 238.99,534.36 241,535C244.42,536.1 247.05,536.1 244.5,535ZM399.34,531.5C399.77,528.71 399.68,528.11 399.05,529.5C398.18,531.42 397.61,536.78 398.37,535.92C398.57,535.69 399.01,533.7 399.34,531.5ZM165.62,529.46C164.66,526.95 164.94,526.3 166.12,528.33C166.71,529.33 166.97,530.36 166.72,530.62C166.46,530.88 165.97,530.36 165.62,529.46ZM741.92,530.64C741.69,530.44 739.25,530.02 736.5,529.7C733.28,529.33 732.21,529.44 733.5,529.99C735.41,530.82 742.78,531.39 741.92,530.64ZM758.73,530.27C756.65,530.05 753.5,530.06 751.73,530.28C749.95,530.5 751.65,530.68 755.5,530.67C759.35,530.67 760.8,530.49 758.73,530.27ZM773.75,529.31C772.79,529.06 771.21,529.06 770.25,529.31C769.29,529.56 770.08,529.77 772,529.77C773.92,529.77 774.71,529.56 773.75,529.31ZM213.52,521.75C212.61,510.89 210.84,497.83 210.34,498.33C209.95,498.71 210.99,510.64 212.63,524.75C213.46,531.87 214.16,529.49 213.52,521.75ZM394,528.03C394,526.98 385.57,524.28 363,518.08C355.02,515.9 341.3,512.06 332.51,509.55C317.71,505.34 309.23,503.49 318.5,506.49C320.7,507.21 331.73,510.79 343,514.45C360.71,520.21 380.59,525.9 388.98,527.61C390.34,527.89 391.65,528.32 391.89,528.56C392.68,529.35 394,529.02 394,528.03ZM730,528.09C729.17,527.62 727.38,526.97 726,526.63C723.92,526.12 724,526.26 726.5,527.46C729.7,529.01 732.51,529.51 730,528.09ZM784.73,528.4C784.4,528.06 783.53,528.03 782.81,528.32C782.01,528.64 782.25,528.87 783.42,528.92C784.47,528.96 785.06,528.73 784.73,528.4ZM94,524.88C90.97,523.33 86.25,521.32 83.5,520.41C76.18,517.97 41.36,505.25 35.26,502.77C32.38,501.6 30.22,500.45 30.46,500.21C31.13,499.54 70.59,510.92 78.85,514.17C86.06,517.01 96.29,523.24 98.91,526.39C99.65,527.28 100.08,527.93 99.87,527.85C99.67,527.77 97.03,526.43 94,524.88ZM114,526.62C114,526.4 112.76,525.43 111.25,524.46L108.5,522.69L110.4,524.85C112.09,526.75 114,527.69 114,526.62ZM555.25,526.29C554.01,526.06 551.99,526.06 550.75,526.29C549.51,526.53 550.52,526.73 553,526.73C555.48,526.73 556.49,526.53 555.25,526.29ZM127.92,522.36C125.69,519.94 125.67,519.82 127.63,520.84C128.81,521.45 130.03,522.63 130.35,523.47C131.17,525.6 130.71,525.4 127.92,522.36ZM634.03,522.99C639.38,520.25 641.43,516.83 641.42,510.6C641.4,495.06 619.81,475.14 591.85,464.86C585.21,462.42 581.93,461.8 575.85,461.81C567.06,461.83 564.99,462.66 562.09,467.36C559.02,472.32 559.26,480.11 562.7,487.05C567.69,497.13 584.06,511.48 598.78,518.68C611.65,524.98 626.55,526.8 634.03,522.99ZM822.73,524.4C822.4,524.06 821.53,524.03 820.81,524.32C820.01,524.64 820.25,524.87 821.42,524.92C822.47,524.96 823.06,524.73 822.73,524.4ZM104,523.62C104,523.4 102.76,522.48 101.25,521.56L98.5,519.88L100.86,521.94C103.16,523.95 104,524.4 104,523.62ZM181.02,515C182.71,515 183,515.68 183,519.7C183,522.3 183.37,523.97 183.83,523.45C184.83,522.31 187.01,512.73 186.97,509.67C186.94,507.72 186.84,507.67 185.92,509.25C185.36,510.21 184.25,511 183.45,511C181.79,511 181.51,509.42 183,508.5C184.52,507.56 184.2,506 182.49,506C181.65,506 180.17,504.68 179.19,503.07L177.41,500.15L175.69,511.32C173.54,525.32 173.56,525.52 176.57,519.75C178.25,516.51 179.67,515 181.02,515ZM609.5,521.48C605.65,520.12 602.4,519.01 602.28,519C600.82,518.97 594.84,512.05 593.95,509.34C592.93,506.27 593.03,505.44 594.64,503.29C595.66,501.91 598.13,499.85 600.11,498.7C603.3,496.85 604.19,496.74 607.65,497.78C613.27,499.46 616,502.35 616,506.6C616,508.54 615.52,511.11 614.94,512.32C613.95,514.37 614.01,514.36 615.94,512.14C618.89,508.75 618.68,502.96 615.47,499.14C610.79,493.58 603.42,492.84 596.23,497.2C590.46,500.7 589.42,505.3 592.9,511.81C594.79,515.34 592.98,514.38 584.88,507.55C572.94,497.48 566,486.28 566,477.1C566,470.54 572.14,465 579.4,465C583.41,465 597.58,469.26 603.5,472.25C616.98,479.04 631.02,491.88 636.75,502.67C640.55,509.81 640.83,513.67 637.83,517.49C632.57,524.17 621.51,525.73 609.5,521.48ZM830.73,523.4C830.4,523.06 829.53,523.03 828.81,523.32C828.01,523.64 828.25,523.87 829.42,523.92C830.47,523.96 831.06,523.73 830.73,523.4ZM409.94,510.87L414.5,510.75L410.75,509.7C408.69,509.12 407,508.26 407,507.78C407,506.11 411.28,498.44 414.71,494L418.17,489.5L414.31,493.63C412.19,495.89 409.56,499.49 408.48,501.63C405.2,508.09 405.5,507.94 399.21,506.3C396.07,505.48 393.27,504.51 393,504.15C392.73,503.79 391.38,503.46 390,503.4C388.62,503.35 371.31,499.18 351.53,494.14C331.75,489.1 315.18,485.11 314.71,485.26C312.51,486 388.5,507.5 400.25,509.46C404.45,510.17 404.66,510.87 402.5,517C401.68,519.34 401.04,521.76 401.09,522.38C401.14,522.99 402.13,520.69 403.28,517.25L405.39,511L409.94,510.87ZM537.76,518.43C537.3,517.97 512.09,515.15 507.36,515.03C506.73,515.01 505.23,512.88 504.01,510.3C499.57,500.85 492.55,491.38 481.65,480.11C474.26,472.48 474.55,471.76 483.21,476.13C488.02,478.56 489.37,478.56 488.08,476.14C487.53,475.12 484.62,473 481.6,471.42C478.59,469.84 476.25,468.42 476.4,468.26C476.56,468.11 478.61,468.66 480.97,469.49C485.82,471.2 488.24,471.45 486,470C482.87,467.98 486.72,469.11 491.35,471.57C494.01,472.99 496.47,473.86 496.83,473.51C497.59,472.75 494.69,470.32 486.59,464.93C483.35,462.77 480.99,461 481.36,461C481.73,461 487.08,463.26 493.26,466.03C501.32,469.64 505.76,472.31 509.03,475.53C513.37,479.81 516.71,481.76 513.91,478.39C512.22,476.35 499.17,465.72 496.5,464.2C494.69,463.17 494.67,463.06 496.31,463.03C499.76,462.97 496.9,461.08 489.99,458.86C486.17,457.63 483.21,456.46 483.4,456.27C484.29,455.38 494.27,458.59 501.95,462.24C508.71,465.45 511.95,467.81 518.08,474.02C524.66,480.68 526.61,483.53 531.83,494.14C535.18,500.94 538.8,509.19 539.88,512.47C542.09,519.19 544.55,521.57 542.82,515.31C539.46,503.1 530.37,484.49 523.52,475.78C511.29,460.24 489.39,450 468.4,450C453.71,450 436.99,454.14 427.18,460.2C416.49,466.8 409.04,474.04 402.06,484.62C398.18,490.5 395.01,495.8 395.03,496.4C395.05,497.01 396.06,495.88 397.28,493.91C402.68,485.16 410.72,475.8 415.66,472.52C418.58,470.59 421.31,469 421.73,469C422.16,469 418.45,472.87 413.5,477.61C408.55,482.34 405.29,485.66 406.25,484.98C407.21,484.31 408,484.08 408,484.49C408,484.89 411.94,481.63 416.75,477.25C424.62,470.08 430.47,465.97 432.7,466.02C433.14,466.03 431.48,467.31 429,468.87C423.66,472.24 407.27,489.22 404.68,494.08L402.86,497.5L405.18,494.5C413.14,484.2 422.54,476.79 432.5,472.96C440.37,469.93 454.02,469.63 461.74,472.33C476.96,477.63 495.48,495.82 502.3,512.16C503.78,515.71 504.02,515.84 510.16,516.45C538.18,519.2 538.57,519.23 537.76,518.43ZM580.89,514.41C572.36,507.6 557.13,490.97 554.5,485.59C547.59,471.47 551.55,462.49 566.21,458.99L573.5,457.25L568,455.68C537.43,446.91 518.32,442.63 492,438.64C482.93,437.27 467.75,434.97 458.28,433.54C448.81,432.11 437.56,430.02 433.28,428.9C426.1,427.02 424.54,426.95 413,428.02C406.12,428.65 399.63,429.24 398.56,429.33C397.13,429.46 396.28,430.8 395.3,434.5C392.67,444.46 390,462.36 390.11,469.35C390.22,476.13 390.26,476.27 391.01,472C391.45,469.52 392.39,463.31 393.11,458.19C394.31,449.58 394.56,448.91 396.45,449.42C413.69,453.99 424.23,456.17 425.06,455.34C425.69,454.71 421.06,453.22 411.77,451.08C394.53,447.12 395,447.25 395.02,446.28C395.08,442.94 396.83,443.01 413.07,446.97C422.11,449.17 431.07,450.94 433,450.9C437.02,450.82 429.95,448.78 409.5,444.14C400.36,442.06 397.43,441 397.18,439.7C396.72,437.28 398.68,437.5 413.01,441.42C419.88,443.3 428.57,445.55 432.31,446.42C439.27,448.03 447.9,448.56 446.63,447.3C445.97,446.63 430.39,442.79 408.5,437.89C403,436.66 398.3,435.5 398.06,435.3C397.82,435.11 398.33,434.25 399.19,433.38C400.38,432.19 402.8,431.82 409.13,431.87C417.57,431.93 420.83,432.56 450.61,439.95C459.46,442.15 470.71,444.41 475.61,444.97C480.5,445.53 488.1,446.85 492.5,447.89C496.9,448.94 502.52,450.1 505,450.46C510.89,451.34 517.29,453.08 535.5,458.73C543.75,461.29 550.58,463.42 550.69,463.46C550.79,463.51 550.16,465.7 549.3,468.34C547.04,475.19 548.73,481.94 555.01,491.29C561.98,501.64 581.43,519.97 583.38,518.02C583.92,517.48 582.94,516.03 580.89,514.41ZM627,507.95C627,504.82 626.25,503.18 623.38,500C621.39,497.8 619.29,496 618.7,496C618.11,496 618.78,497.24 620.19,498.75C625.28,504.21 626.48,510.25 623.42,515.03C622.03,517.19 622.15,517.15 624.42,514.69C626.28,512.67 627,510.8 627,507.95ZM394.46,513.93C394.14,513.42 393.23,513 392.44,513C391.65,513 390.95,511.99 390.88,510.75C390.8,509.06 390.65,508.93 390.31,510.25C389.74,512.43 389.63,512.43 383.27,510.01C377.63,507.87 334.04,497.63 333.37,498.29C332.76,498.9 355.61,505.49 372.5,509.57C380.75,511.57 388.83,513.8 390.46,514.53C393.49,515.89 395.48,515.59 394.46,513.93ZM127.25,510.45C124.91,507.96 123,505.7 123,505.43C123,504.39 128.89,509.35 130.92,512.11C134.17,516.51 132.03,515.54 127.25,510.45ZM438.53,511.19C438.22,510.89 437.41,511.19 436.73,511.88C435.75,512.86 435.87,512.98 437.29,512.44C438.28,512.06 438.83,511.5 438.53,511.19ZM95,506.57C93.62,505.83 89.58,504.43 86,503.45C82.42,502.48 78.24,501.06 76.7,500.29C75.16,499.52 72.36,498.7 70.47,498.46C67.24,498.04 33.37,484.09 35.5,484.05C40.03,483.97 95.31,504.23 98.45,507.12C99.89,508.45 97.89,508.13 95,506.57ZM53.59,500.66C43.74,497.33 36.13,494.46 36.69,494.27C37.8,493.9 68.63,504.11 71.61,505.84C74.81,507.7 72.14,506.93 53.59,500.66ZM130.4,504.75L128.5,502.5L130.75,504.4C132.86,506.2 133.46,507 132.65,507C132.47,507 131.45,505.99 130.4,504.75ZM611.95,502.64C610.98,501.76 610.85,501.91 611.35,503.33C611.71,504.34 612.05,505.69 612.12,506.33C612.18,506.97 612.45,506.66 612.71,505.64C612.97,504.62 612.63,503.27 611.95,502.64ZM803.51,504.99C805.58,501.63 799.84,497 793.61,497C789.28,497 788.24,498.49 790.65,501.2C794.04,505 802.04,507.36 803.51,504.99ZM185.98,502.96C185.38,501.84 185.13,500.15 185.42,499.21C185.71,498.27 185.52,496.82 184.99,496C184.27,494.87 184.03,495.32 184.02,497.82C184,500.92 185.45,505 186.57,505C186.85,505 186.58,504.08 185.98,502.96ZM440.28,493.99C450.91,490.26 460.38,491.76 469.76,498.67L473.5,501.42L471.06,498.69C467.9,495.16 458.11,490.29 452.48,489.45C445.83,488.45 438.75,490.58 432.07,495.61C428.86,498.02 425.49,501.14 424.57,502.53C423.3,504.48 424.27,504.01 428.76,500.53C431.97,498.03 437.15,495.09 440.28,493.99ZM605.66,503.75C606.09,503.06 606.52,501.98 606.62,501.34C606.85,499.83 602.82,498.78 601.57,500.03C600.94,500.66 601.23,501 602.37,501C603.98,501 604,501.14 602.57,502.57C601.71,503.44 601,504.34 601,504.57C601,505.58 604.95,504.89 605.66,503.75ZM693.92,504.63C690.4,501.51 642.89,477.46 625.18,469.83C594.59,456.67 560.45,445.77 527,438.5C490.57,430.59 477.82,428.61 450,426.58C437.78,425.69 444.99,427.55 463,429.92C524.13,438 580.34,452.46 616.02,469.28C621.24,471.74 634.95,478.04 646.5,483.3C658.05,488.55 673.12,495.55 680,498.86C690.85,504.07 695.43,505.98 693.92,504.63ZM657.03,497.88C649.75,491.09 638.23,482.21 632.39,478.88C627.3,475.98 628.76,477.38 638.5,484.73C642.9,488.05 649.88,493.71 654,497.32C663.42,505.55 665.71,505.97 657.03,497.88ZM794.22,502.44C793,501.59 792,500.16 792,499.27C792,497.94 792.41,498.04 794.31,499.83C795.59,501.02 797.84,502 799.31,502C800.79,502 802,502.45 802,503C802,504.56 796.7,504.18 794.22,502.44ZM241,499.29C239.91,497.59 239.88,497.59 240.42,499.33C240.74,500.34 241.04,501.69 241.08,502.33C241.14,503.17 241.29,503.16 241.65,502.29C241.92,501.62 241.63,500.27 241,499.29ZM490,501.65C490,501.47 488.99,500.45 487.75,499.4L485.5,497.5L487.4,499.75C489.2,501.86 490,502.46 490,501.65ZM633.41,499.75C629.8,493.35 618,481.15 618,483.8C618,485.14 631.94,501 633.11,501C633.67,501 633.8,500.44 633.41,499.75ZM717.82,498.75C717.07,493.48 705,491.49 704.21,496.52C703.94,498.27 704.12,498.22 705.84,496.07C707.71,493.73 707.91,493.7 711.63,495.11C713.76,495.92 715.64,497.37 715.83,498.36C716.11,499.82 715.59,500.08 712.91,499.82C709.31,499.47 707.86,497.43 710.69,496.7C712.12,496.33 712.03,496.21 710.25,496.12C708.66,496.03 708,496.56 708,497.92C708,500.22 709.26,500.82 714.32,500.92C717.73,500.99 718.1,500.76 717.82,498.75ZM857.56,495.32C852.07,485.29 831.7,465.19 816.86,455.14C810.15,450.59 811.12,451.62 820.48,458.97C827.9,464.79 850.39,488.08 855.5,495.23C857.7,498.31 859.66,500.68 859.85,500.48C860.04,500.29 859.01,497.97 857.56,495.32ZM331.73,497.4C331.4,497.06 330.53,497.03 329.81,497.32C329.01,497.64 329.25,497.87 330.42,497.92C331.47,497.96 332.06,497.73 331.73,497.4ZM591.58,496.1C600.08,492.24 602.36,484.7 597.51,476.43C593.22,469.11 582.86,465.94 574.55,469.42C568.02,472.14 567.04,479.51 572.12,487.53C575.59,493 577.1,494.45 581.5,496.51C585.44,498.36 586.72,498.31 591.58,496.1ZM903.17,496.35C907.8,492.16 902.84,479.05 891.77,466.23C881.02,453.77 868.63,445.09 855.72,440.97C848.24,438.58 846,438.85 846,442.11C846,445.93 852.8,458.6 857.56,463.63L862.16,468.5L859.12,464C853.07,455.04 852.59,444.91 858.23,445.06L860.5,445.13L858.34,446C857.15,446.48 855.87,447.83 855.5,449.01C854.57,451.92 855.58,452.66 856.95,450.09C858.35,447.47 860.03,447.46 865.08,450.04C872.47,453.81 874.67,461.13 870.4,467.75C868.56,470.61 869.32,470.64 871.96,467.81C873.5,466.16 874,464.28 874,460.11C874,455.27 873.6,454.17 870.75,451.13L867.5,447.67L870.5,449.73C874.38,452.39 877.34,455.68 877.63,457.68C877.76,458.55 878.4,459.77 879.05,460.38C879.93,461.2 879.92,460.84 879.01,459C878.22,457.42 880.05,458.71 883.95,462.5C893.83,472.1 903.16,488.82 901.31,493.64C900.97,494.51 899.31,495.83 897.6,496.57L894.5,497.92L897.92,497.96C899.8,497.98 902.17,497.26 903.17,496.35ZM107.4,494.75L105.5,492.5L107.75,494.4C108.99,495.45 110,496.47 110,496.65C110,497.46 109.2,496.86 107.4,494.75ZM187.68,494.81C187.36,494.01 187.13,494.25 187.08,495.42C187.04,496.47 187.27,497.06 187.6,496.73C187.94,496.4 187.97,495.53 187.68,494.81ZM209.69,493.27C209.44,492.3 209.22,492.85 209.19,494.5C209.17,496.15 209.38,496.95 209.66,496.27C209.93,495.59 209.95,494.24 209.69,493.27ZM480.28,491.01C476.85,487.76 473.03,484.6 471.78,483.99C470.28,483.27 470.53,483.67 472.5,485.17C474.15,486.42 477.75,489.58 480.5,492.2C483.25,494.82 485.73,496.95 486,496.94C486.27,496.94 483.7,494.27 480.28,491.01ZM582,495.85C573.24,492.45 568.99,480.61 574.31,474.43C577.37,470.87 584.87,470.04 589.98,472.69C594.12,474.84 598,480.27 598,483.9C597.99,491.41 588.61,498.42 582,495.85ZM91.5,492.85C88.2,491.77 81.67,489.83 77,488.53C67.21,485.81 33.73,473.93 34.3,473.37C35,472.66 80.56,485.38 91.39,489.31C94.22,490.34 100.17,495.09 98.4,494.91C97.9,494.86 94.8,493.93 91.5,492.85ZM246.91,492.58C246.55,492.22 210.8,487 208.7,487C208.32,487 208.05,488.01 208.12,489.25C208.21,491.04 208.33,491.13 208.7,489.69C209.07,488.25 209.78,488.01 212.12,488.53C215.75,489.32 241.59,492.77 244.92,492.9C246.25,492.96 247.14,492.81 246.91,492.58ZM589.75,489.33C591.89,486.41 591.13,485.98 588.35,488.55C584.87,491.78 582.8,491.64 578.53,487.9C576.59,486.19 575,485.26 575,485.82C575,486.39 576.46,488.03 578.25,489.47C580.82,491.54 582.24,491.98 585,491.57C586.92,491.28 589.06,490.27 589.75,489.33ZM198.05,481.91C195.77,466.37 190.1,452.21 183.12,444.66C175.82,436.76 166.54,437.06 160.8,445.38L158.64,448.5L161.09,446.3C170.95,437.4 180.83,441.67 188.41,458.1C191.97,465.81 196.52,480.13 197.65,487.19C197.99,489.32 198.49,490.85 198.75,490.58C199.02,490.31 198.7,486.41 198.05,481.91ZM97.24,486.41L93.5,482.83L96.82,484.66C100.71,486.82 103.88,490 102.14,490C101.5,490 99.29,488.39 97.24,486.41ZM867,488C869.1,487.33 868.8,487.18 865.12,487.1C861.02,487.01 860.17,486.45 851.71,478.25C842.81,469.62 842.75,469.59 848.1,476C851.09,479.57 854.57,483.96 855.83,485.75C858.25,489.17 861.39,489.8 867,488ZM891.47,486.05C892.31,484.43 893,481.32 893,479.14C893,473.29 888.8,470 881.35,470C876.55,470 875.46,470.39 872.8,473.04C871.13,474.72 870.1,476.41 870.52,476.79C870.93,477.18 871.48,476.93 871.73,476.23C872.37,474.43 877.42,472 880.5,472C883.87,472 888.66,474.5 889.97,476.94C891.43,479.67 891.25,483.29 889.53,485.56C887.81,487.84 887.62,489 888.97,489C889.51,489 890.64,487.67 891.47,486.05ZM586.79,486.15C587.14,485.08 586.8,485.04 585.14,485.93C583.56,486.77 582.55,486.74 581.02,485.78C578.13,483.98 578.49,483.5 582.75,483.5C586.44,483.5 586.5,483.44 586.38,479.72C586.27,476.08 586.35,475.99 588.38,477.33C589.55,478.1 590.78,480.25 591.12,482.12L591.74,485.5L591.87,482.33C592.06,477.66 587.84,473 583.41,473C576.36,473 573.69,479.98 578.73,485.24C581.6,488.24 585.94,488.73 586.79,486.15ZM837.4,486.57C834.22,485.19 832.39,482.49 833.97,481.52C834.46,481.21 835.13,481.41 835.46,481.94C835.79,482.47 836.69,482.67 837.45,482.38C838.22,482.09 839.78,482.78 840.92,483.92C842.07,485.07 843,485.59 843,485.09C843,483.32 836.7,478.9 834.61,479.2C831.4,479.66 831.38,483.37 834.58,485.88C836.06,487.05 838,487.98 838.88,487.96C839.77,487.94 839.1,487.31 837.4,486.57ZM884,487.65C884,487.47 882.99,486.45 881.75,485.4L879.5,483.5L881.4,485.75C883.2,487.86 884,488.46 884,487.65ZM872,486.32C872,485.94 865.54,479.08 857.65,471.07C845.35,458.57 843,455.68 841.15,450.71C838.61,443.87 838.41,439.73 840.56,437.95C841.91,436.83 841.47,436.41 837.31,434.8C821.92,428.87 776.72,419.58 733.54,413.47C731.36,413.16 729.79,413.12 730.05,413.38C731.16,414.49 750.34,420.03 760,422.03C765.77,423.23 771.3,424.63 772.29,425.16C773.27,425.68 774.95,425.83 776.02,425.49C779.41,424.42 817.11,434.98 829.63,440.51L834.88,442.84L835.3,440.67C835.61,439.11 835.77,439.37 835.86,441.59C836.15,447.98 841.93,456.99 852.7,467.82C858.38,473.52 864.64,480.17 866.63,482.59C869.93,486.62 872,488.06 872,486.32ZM896.06,480.32C894.14,476.76 894.05,476.7 894.65,479.5C895,481.15 895.75,483.62 896.3,485C897.1,486.96 897.4,487.14 897.72,485.82C897.94,484.9 897.19,482.42 896.06,480.32ZM727.55,485.08C726.37,483.17 730.21,481.14 736.24,480.49C739.68,480.13 758.25,478.35 777.5,476.54L812.5,473.25L821.24,479.17C826.04,482.43 829.72,484.44 829.41,483.63C828.58,481.47 812.82,467.84 801.5,459.48L797.5,456.53L801.87,461.72C804.44,464.78 806.01,467.53 805.68,468.39C805.36,469.22 803.23,470.12 800.81,470.45C789.61,471.99 728.86,478.1 724,478.17C719.29,478.24 714.21,476.61 688.5,466.76C672,460.44 647.92,451.49 635,446.88L611.5,438.5L620,438.24C624.67,438.1 636.83,437.32 647,436.51C706.56,431.77 711.66,431.55 714.69,433.53L717.5,435.36L714.7,431.68C711.49,427.46 711.88,427.15 716.66,430.1C718.52,431.25 720.7,431.94 721.5,431.64C722.29,431.33 724.31,432.23 725.97,433.63C729.26,436.39 729.92,435.76 727.44,432.22C725.96,430.1 726,430 728.46,430C731.24,430 752.96,436.7 754.33,437.98C755.35,438.93 750,439.57 724.5,441.53C713.5,442.37 694.22,443.95 681.65,445.04L658.8,447.02L652.29,445.01C645.63,442.95 639.07,442.25 642,443.91C645.64,445.97 661.74,448.9 667,448.46C670.02,448.2 680.83,447.33 691,446.52C738.73,442.73 749.8,441.76 753.69,441.05C757.73,440.31 758.01,440.43 761.05,444.21C764.96,449.08 765.73,448.64 762.77,443.23C761.54,440.98 760.82,438.85 761.18,438.49C762.22,437.45 780.83,446.07 788.86,451.3C792.91,453.95 796.46,455.88 796.74,455.59C797.36,454.97 803.28,458.96 816,468.55C826.52,476.48 829.56,478.31 831.25,477.75C831.88,477.54 830.23,475.88 827.58,474.06C823.12,470.99 805.77,457.02 803.5,454.67C800.71,451.78 826.95,470.05 831.75,474.33C832.98,475.44 834.25,476.09 834.56,475.77C835.44,474.89 821.59,463.62 811.03,456.64C788.85,441.98 771.61,433.36 738.5,420.41C719.34,412.91 708.03,410.06 697.3,410.03C687.95,410 651.74,412.37 606.5,415.97C592.75,417.07 572.27,418.65 561,419.48C549.73,420.32 529.48,421.89 516,422.99C502.52,424.08 489.93,425.03 488,425.09C486.07,425.16 489.45,426.02 495.5,427.01C529.94,432.63 595.54,448.76 625.42,458.95C630.33,460.62 634.52,461.82 634.72,461.61C635.28,461.05 606.07,449.76 594.47,446.04C589.01,444.29 578.68,441.52 571.52,439.87C564.36,438.23 552.65,435.37 545.5,433.51C538.35,431.65 528.23,429.45 523,428.61C517.77,427.78 511.25,426.74 508.5,426.3C503.98,425.58 504.64,425.43 515.5,424.76C533.68,423.63 574.56,423.04 573.13,423.92C572.39,424.38 574.28,424.95 577.7,425.31C584.86,426.06 594.3,428.03 593.68,428.65C593.43,428.9 589.24,428.41 584.36,427.56C577.83,426.41 568.94,426.03 550.5,426.09L525.5,426.18L537,428.62C547.74,430.9 549.27,430.99 560.16,429.98C570.06,429.06 572.77,429.14 578.16,430.5C589.77,433.42 603.09,438.18 604.8,440.01C605.74,441.01 612.7,443.67 620.28,445.94C649.28,454.6 711.38,477.4 723.71,483.91C728.13,486.24 728.3,486.3 727.55,485.08ZM86.05,484.05C85.25,483.55 84.27,483.33 83.87,483.58C83.46,483.83 80.07,482.86 76.32,481.43C72.57,479.99 62.35,476.37 53.61,473.38C39.51,468.55 30.36,464.83 36.5,466.42C74.26,476.19 83.52,479.31 86.94,483.43C88.42,485.21 88.16,485.39 86.05,484.05ZM580,481.5C579.32,480.68 579.07,480 579.45,480C579.83,480 580.82,480.68 581.64,481.5C582.47,482.32 582.72,483 582.19,483C581.67,483 580.68,482.32 580,481.5ZM107,474.87C103.97,472.1 102.4,470.28 103.5,470.84C105.37,471.78 113.95,480.05 112.95,479.96C112.7,479.93 110.03,477.64 107,474.87ZM463,479C462.18,478.47 461.05,478.03 460.5,478.03C459.95,478.03 460.18,478.47 461,479C461.82,479.53 462.95,479.97 463.5,479.97C464.05,479.97 463.82,479.53 463,479ZM458.73,477.4C458.4,477.06 457.53,477.03 456.81,477.32C456.01,477.64 456.25,477.87 457.42,477.92C458.47,477.96 459.06,477.73 458.73,477.4ZM225.95,466.51C223.47,455.07 217.12,436.16 213.06,428.14C206.56,415.29 197.18,408.63 185.5,408.58C180.53,408.56 178.39,409.15 173.02,412.03C164.6,416.55 153.09,428.01 149.63,435.32C146.9,441.09 143.56,458.6 144.22,463.66C144.52,465.89 144.76,465.42 145.34,461.5C148.29,441.54 155.24,430.97 166.69,429.04C171.25,428.28 171.31,428.23 167.82,428.12C162.83,427.96 159.86,429.23 155.05,433.57C150.72,437.48 149.66,436.98 153.08,432.63C156.95,427.71 163.46,424 168.23,424C176.86,424 182.57,428.17 197.01,445C199.81,448.26 198.7,446.19 192.73,437C190.06,432.88 186.66,428.18 185.18,426.56L182.5,423.62L185.5,425.44C187.15,426.44 189.76,428.43 191.3,429.86L194.09,432.46L192.48,428.48C191.6,426.29 189.66,423.49 188.19,422.25C186.71,421.02 185.87,420.01 186.32,420C187.77,420 191.41,422.19 195.75,425.7C198.09,427.59 200,428.71 200,428.19C200,427.67 199.31,426.67 198.46,425.97C197.62,425.27 195.51,422.91 193.79,420.73L190.65,416.77L193.94,418.47C195.75,419.4 199.31,422.04 201.86,424.33C206.76,428.75 206.61,428.31 200.59,420.79C198.52,418.2 195.93,415.79 194.84,415.45C193.74,415.1 193.07,414.59 193.35,414.32C194.24,413.43 202.85,419.06 205.89,422.53C212.57,430.14 217.67,442.14 224.03,465.28C225.81,471.76 227.45,476.89 227.67,476.67C227.89,476.45 227.11,471.88 225.95,466.51ZM454.73,476.4C454.4,476.06 453.53,476.03 452.81,476.32C452.01,476.64 452.25,476.87 453.42,476.92C454.47,476.96 455.06,476.73 454.73,476.4ZM96.5,474.14C94.3,473.15 81.03,468.62 67,464.08C52.98,459.54 41.05,455.35 40.5,454.76C39.81,454.04 40,453.88 41.09,454.26C41.96,454.56 51.86,457.13 63.09,459.95C91.94,467.22 95.32,468.43 98.48,472.56C99.92,474.45 100.97,475.99 100.8,475.98C100.64,475.97 98.7,475.14 96.5,474.14ZM397,474.43C397,473.38 397.75,472.95 399.25,473.15C401.72,473.47 404,472.41 404,470.94C404,470.42 402.99,470.01 401.75,470.02C399.9,470.03 399.77,470.21 401,471.06C402.13,471.83 401.64,472.01 399,471.79C396.03,471.54 395.45,471.84 395.18,473.75C395,474.99 395.34,476 395.93,476C396.52,476 397,475.29 397,474.43ZM246.68,472.81C246.36,472.01 246.13,472.25 246.08,473.42C246.04,474.47 246.27,475.06 246.6,474.73C246.94,474.4 246.97,473.53 246.68,472.81ZM715.5,470.55C712.07,467.63 702.53,461.58 704.02,463.28C704.3,463.6 707.45,466.12 711.02,468.87C718.36,474.54 721.59,475.76 715.5,470.55ZM118.35,466.29C115.45,463.15 113.24,460.42 113.44,460.22C114.62,459.05 121.8,464.4 123.78,467.93C127.08,473.82 124.62,473.08 118.35,466.29ZM127.44,467.75C124.4,464.14 125.48,463.09 130.33,464.93C132.25,465.67 133,466.66 133,468.48C133,471.97 130.75,471.67 127.44,467.75ZM245.69,465.27C245.44,464.3 245.22,464.85 245.19,466.5C245.17,468.15 245.38,468.95 245.66,468.27C245.93,467.59 245.95,466.24 245.69,465.27ZM369.73,467.4C369.4,467.06 368.53,467.03 367.81,467.32C367.01,467.64 367.25,467.87 368.42,467.92C369.47,467.96 370.06,467.73 369.73,467.4ZM410.5,465L413.37,462L410.44,461.98C408.82,461.98 404.89,461.35 401.7,460.6L395.89,459.24L396.2,461.87C396.45,464.04 397.38,464.8 401.5,466.21C407.88,468.38 407.17,468.48 410.5,465ZM887,467.62C887,467.41 886.21,466.63 885.25,465.87C883.66,464.63 883.63,464.66 884.87,466.25C886.18,467.92 887,468.45 887,467.62ZM200.36,457.94C198.85,453.38 197.45,450.14 197.25,450.75C196.83,452 202.06,467.28 202.69,466.64C202.92,466.42 201.87,462.5 200.36,457.94ZM365.73,466.4C365.4,466.06 364.53,466.03 363.81,466.32C363.01,466.64 363.25,466.87 364.42,466.92C365.47,466.96 366.06,466.73 365.73,466.4ZM85.3,457.52C71.45,452.92 59.3,448.65 58.3,448.03C56.63,446.99 56.64,446.94 58.5,447.39C59.6,447.65 65.45,448.84 71.5,450.02C91.6,453.94 106.36,458.01 108.84,460.32C112.03,463.29 113.46,466.02 111.79,465.94C111.08,465.91 99.16,462.13 85.3,457.52ZM361.73,465.4C361.4,465.06 360.53,465.03 359.81,465.32C359.01,465.64 359.25,465.87 360.42,465.92C361.47,465.96 362.06,465.73 361.73,465.4ZM548.7,465.37C547.88,464.54 526.24,457.43 518.5,455.44C515.2,454.59 511.6,453.64 510.5,453.32C509.4,453.01 508.76,453.03 509.09,453.38C509.41,453.73 513.24,455.12 517.59,456.48C521.94,457.83 530.45,460.51 536.5,462.43C547.73,465.98 549.82,466.48 548.7,465.37ZM356,464C352.58,462.9 349.95,462.9 352.5,464C353.6,464.47 355.4,464.85 356.5,464.83C358.11,464.81 358.01,464.64 356,464ZM656.89,464.56C655.9,463.56 631.77,453.6 620.15,449.39C613.29,446.91 605.59,443.81 603.03,442.52C599.09,440.52 597.41,440.24 592.13,440.72C588.7,441.03 586.25,441.61 586.69,442.01C587.14,442.4 590.65,443.49 594.5,444.42C610.3,448.26 630.93,455.2 646.5,461.92C652.49,464.51 658.32,465.99 656.89,464.56ZM385,463C385,462.45 383.31,462.04 381.25,462.1C377.9,462.19 377.77,462.29 380,463C383.57,464.14 385,464.14 385,463ZM639,463C638.17,462.47 637.05,462.03 636.5,462.03C635.95,462.03 636.17,462.47 637,463C637.83,463.53 638.95,463.97 639.5,463.97C640.05,463.97 639.83,463.53 639,463ZM349.73,462.4C349.4,462.06 348.53,462.03 347.81,462.32C347.01,462.64 347.25,462.87 348.42,462.92C349.47,462.96 350.06,462.73 349.73,462.4ZM246.09,432.58C246.41,432.25 248.01,432.46 249.63,433.02C252.28,433.95 252.56,434.44 252.3,437.78L252.01,441.5L253.34,438C254.93,433.85 256.56,433.38 263.96,434.96C273.86,437.07 273.28,436.58 272.79,442.51C272.18,449.93 269.96,453 265.23,452.99C263.18,452.99 260.21,452.32 258.64,451.49C255.23,449.72 255,449.69 255,451.05C255,452.75 261.89,455.13 265.85,454.8C269.08,454.53 269.75,453.98 271.65,450C272.84,447.52 274.08,443.6 274.41,441.28C274.93,437.63 274.71,436.85 272.76,435.58C269.51,433.46 259.37,431 253.85,431C248.4,431 247.36,429.97 248.93,426.16L250.06,423.44L259.78,426.61C265.13,428.35 273.77,430.77 279,431.98C284.23,433.2 302.9,437.73 320.5,442.05C338.1,446.37 359.25,451.51 367.5,453.48C375.75,455.44 383.34,457.31 384.37,457.63C385.6,458.01 386.09,457.78 385.82,456.95C385.59,456.26 381.37,454.86 376.45,453.85C367.97,452.1 323.73,441.12 273.75,428.36C261.24,425.16 251,422.28 251,421.96C251,421.64 251.59,420.57 252.32,419.58C253.57,417.87 254.21,417.97 265.07,421.48C271.35,423.51 287.75,427.85 301.5,431.13C315.25,434.4 329.43,437.94 333,438.98C336.57,440.03 348.73,442.93 360,445.43C371.27,447.94 381.96,450.41 383.75,450.92C386.34,451.67 387,451.57 387,450.43C387,449.64 386.62,449 386.16,449C382.99,449 355.2,442.55 345.87,439.65C339.62,437.71 330.9,435.23 326.5,434.15C322.1,433.07 304.32,428.71 287,424.47C269.68,420.24 255.09,416.38 254.58,415.92C252.35,413.84 258,413.78 265.46,415.8C294.4,423.64 310.07,427.65 329,432.06C340.82,434.81 351.18,437.31 352,437.59C353.2,438.01 353.25,437.87 352.25,436.86C350.46,435.06 350.71,429.44 352.66,427.48C354.07,426.08 354.11,425.68 352.91,424.92C352.14,424.43 350.6,424.02 349.5,424.01C344.86,423.98 325.1,421.89 320.38,420.94C317.21,420.31 314.39,418.98 312.96,417.46C311.69,416.11 310.07,415 309.35,415C308.64,415 297.58,412.53 284.78,409.51C271.97,406.48 260.99,404.01 260.36,404.01C259.03,404 252.44,414.83 247.48,425.17L244,432.44L244.2,447.47L244.39,462.5L244.95,447.83C245.25,439.76 245.76,432.9 246.09,432.58ZM341.5,460.43C338.75,459.66 336.05,459.08 335.5,459.12C333.81,459.27 342.37,461.85 344.5,461.83C345.6,461.83 344.25,461.2 341.5,460.43ZM377,461.58C377,461.05 355.37,455.96 353.73,456.11C352.52,456.22 373.31,461.68 375.75,461.89C376.44,461.95 377,461.81 377,461.58ZM741.5,456.93C759.1,455.29 774.93,453.68 776.68,453.37C779.61,452.85 780.03,453.13 781.95,456.9C784.81,462.5 785.24,462.04 783.05,455.75C781.88,452.37 780.74,450.63 779.86,450.85C779.11,451.05 774,451.58 768.5,452.04C734.74,454.87 709.5,457.18 702.8,458.07C696.46,458.9 694.11,458.8 689.55,457.47C681.05,455 678.01,456.12 686,458.77C693.71,461.34 694.73,461.3 741.5,456.93ZM132.5,459.45C122.36,456.66 116.83,454.68 115.56,453.42C112.76,450.62 113.7,449.69 118.63,450.36C125.14,451.26 131,453.13 131,454.33C131,454.89 131.75,456.17 132.66,457.18C134.35,459.05 134.29,459.94 132.5,459.45ZM411.73,459.4C411.4,459.06 410.53,459.03 409.81,459.32C409.01,459.64 409.25,459.87 410.42,459.92C411.47,459.96 412.06,459.73 411.73,459.4ZM327,456.94C322.88,455.92 318.82,455.12 318,455.16C315.88,455.26 330.07,458.84 332.5,458.81C333.6,458.8 331.12,457.96 327,456.94ZM407.73,458.4C407.4,458.06 406.53,458.03 405.81,458.32C405.01,458.64 405.25,458.87 406.42,458.92C407.47,458.96 408.06,458.73 407.73,458.4ZM471.81,458.32C472.53,458.03 473.4,458.06 473.73,458.4C474.06,458.73 473.47,458.96 472.42,458.92C471.25,458.87 471.01,458.64 471.81,458.32ZM403.73,457.4C403.4,457.06 402.53,457.03 401.81,457.32C401.01,457.64 401.25,457.87 402.42,457.92C403.47,457.96 404.06,457.73 403.73,457.4ZM399.73,456.4C399.4,456.06 398.53,456.03 397.81,456.32C397.01,456.64 397.25,456.87 398.42,456.92C399.47,456.96 400.06,456.73 399.73,456.4ZM351.25,455.34C350.56,455.06 349.44,455.06 348.75,455.34C348.06,455.62 348.62,455.84 350,455.84C351.38,455.84 351.94,455.62 351.25,455.34ZM520.7,451.66C512.01,449.39 505.3,447.4 505.79,447.24C507.22,446.76 537.78,454.45 538.9,455.57C539.81,456.48 535.99,455.66 520.7,451.66ZM315.73,454.4C315.4,454.06 314.53,454.03 313.81,454.32C313.01,454.64 313.25,454.87 314.42,454.92C315.47,454.96 316.06,454.73 315.73,454.4ZM311.73,453.4C311.4,453.06 310.53,453.03 309.81,453.32C309.01,453.64 309.25,453.87 310.42,453.92C311.47,453.96 312.06,453.73 311.73,453.4ZM106.44,451.53C104.89,450.36 104.81,450.06 106.06,450.03C106.92,450.01 108.49,450.66 109.56,451.47C111.11,452.64 111.19,452.94 109.94,452.97C109.08,452.99 107.51,452.34 106.44,451.53ZM307.73,452.4C307.4,452.06 306.53,452.03 305.81,452.32C305.01,452.64 305.25,452.87 306.42,452.92C307.47,452.96 308.06,452.73 307.73,452.4ZM194.15,447.35C193.05,445.23 191.44,442.6 190.56,441.5C189.68,440.4 190.43,442.27 192.23,445.66C194.03,449.06 195.64,451.69 195.82,451.51C196,451.34 195.24,449.46 194.15,447.35ZM303.25,451.34C302.56,451.06 301.44,451.06 300.75,451.34C300.06,451.62 300.62,451.84 302,451.84C303.38,451.84 303.94,451.62 303.25,451.34ZM94,449.53C91.53,448.82 80.95,445.89 70.5,443.01C60.05,440.13 51.27,437.54 51,437.25C50.28,436.5 53.32,437.19 73.43,442.38C83.29,444.92 92.07,447.01 92.93,447.03C93.79,447.04 96.3,447.9 98.5,448.95C103.2,451.17 100.8,451.48 94,449.53ZM788.5,448C784.59,445.41 785.98,445.41 790.23,448C792.03,449.09 793.05,449.99 792.5,449.99C791.95,449.99 790.15,449.09 788.5,448ZM253.36,446.5C253.05,445.68 252.61,445 252.39,445C252.18,445 252,445.68 252,446.5C252,447.32 252.44,448 252.97,448C253.5,448 253.68,447.32 253.36,446.5ZM849.64,446.5C849.32,445.68 849.5,445 850.03,445C850.56,445 851,445.68 851,446.5C851,447.32 850.82,448 850.61,448C850.39,448 849.95,447.32 849.64,446.5ZM388.95,443.25C390.88,436.29 390.53,435.52 384.75,433.97C381.28,433.04 380.23,432.45 381.65,432.23C382.83,432.04 385.44,432.57 387.44,433.41C390.55,434.71 391.17,434.73 391.63,433.53C393.02,429.9 391.57,428.63 384.55,427.34C380.74,426.63 377.43,426.24 377.21,426.46C376.98,426.68 377.33,428.46 377.97,430.41C378.95,433.37 379.84,434.16 383.32,435.15C391.32,437.42 390.03,439 381.74,437.08C375.97,435.74 376.31,437.64 382.11,439.13C386.59,440.27 389.12,442.21 387.83,443.5C387.6,443.73 384.8,443.24 381.61,442.4C372.87,440.12 371.56,441.21 379.5,444.16C383.35,445.59 386.82,446.81 387.2,446.88C387.59,446.95 388.37,445.31 388.95,443.25ZM501.81,446.32C502.53,446.03 503.4,446.06 503.73,446.4C504.06,446.73 503.47,446.96 502.42,446.92C501.25,446.87 501.01,446.64 501.81,446.32ZM269.45,445.08C268.93,444.57 266.02,443.5 263,442.7C259.98,441.9 257.05,441.08 256.5,440.87C255.95,440.67 255.4,440.95 255.27,441.5C255.03,442.53 257.48,443.43 264.5,444.93C270.15,446.13 270.55,446.14 269.45,445.08ZM496.81,445.32C497.53,445.03 498.4,445.06 498.73,445.4C499.06,445.73 498.47,445.96 497.42,445.92C496.25,445.87 496.01,445.64 496.81,445.32ZM202,440.5C200.77,438.52 199.57,437.1 199.31,437.35C199.06,437.6 199.9,439.4 201.17,441.33C204.18,445.92 204.9,445.2 202,440.5ZM460,443.98C458.07,443.55 447.5,441.13 436.5,438.61C425.5,436.08 415.38,434.06 414,434.1C407.99,434.29 452.4,444.85 459,444.8L463.5,444.77L460,443.98ZM490.81,444.32C491.53,444.03 492.4,444.06 492.73,444.4C493.06,444.73 492.47,444.96 491.42,444.92C490.25,444.87 490.01,444.64 490.81,444.32ZM296.45,442.52C294.23,441.82 290.4,440.98 287.95,440.65C284.21,440.16 284.54,440.36 290,441.94C297.25,444.02 302.8,444.53 296.45,442.52ZM99.6,441.39C99.14,440.21 99.4,439.94 100.57,440.39C101.45,440.72 102.38,441 102.64,441C102.9,441 102.84,441.45 102.5,442C101.58,443.48 100.3,443.21 99.6,441.39ZM148.07,442.5C148.07,441.95 148.71,440.38 149.5,439C150.29,437.62 150.93,436.95 150.93,437.5C150.93,438.05 150.29,439.62 149.5,441C148.71,442.38 148.07,443.05 148.07,442.5ZM822,440.59C822,439.99 812.72,436.94 812.27,437.4C812.05,437.61 813.82,438.48 816.19,439.32C820.86,440.97 822,441.22 822,440.59ZM282.73,439.4C282.4,439.06 281.53,439.03 280.81,439.32C280.01,439.64 280.25,439.87 281.42,439.92C282.47,439.96 283.06,439.73 282.73,439.4ZM788,437.53C788,437.26 786.65,436.35 785,435.5C781.24,433.56 781.01,434.4 784.75,436.43C787.89,438.13 788,438.17 788,437.53ZM47.81,436.32C48.53,436.03 49.4,436.06 49.73,436.4C50.06,436.73 49.47,436.96 48.42,436.92C47.25,436.87 47.01,436.64 47.81,436.32ZM762.75,434.43C760.14,433.07 758,431.74 758,431.46C758,431.02 767.9,435.69 768.92,436.62C770.15,437.75 766.9,436.6 762.75,434.43ZM810.83,436.5C810.07,435.74 795.82,430.99 794.57,431.08C793.98,431.12 797.1,432.44 801.5,434C809.47,436.83 811.79,437.45 810.83,436.5ZM608.58,435.14C607.69,433.69 612.21,433.19 650,430.53C669.52,429.15 687.98,427.75 691,427.41L696.5,426.79L690.5,423.98C687.2,422.44 684.75,421.13 685.06,421.09C685.37,421.04 689.62,422.35 694.5,424C699.38,425.65 704.61,427 706.13,427C707.64,427 709.15,427.43 709.47,427.95C710.21,429.14 706.29,429.75 693,430.49C687.23,430.81 670.8,431.92 656.5,432.97C618.31,435.76 609.22,436.17 608.58,435.14ZM746.97,432.03C740.97,429.96 731.66,427.86 720.3,426.01C711.9,424.64 691.19,418.59 689.65,417.05C688.92,416.32 691.66,416 698.78,416C708.79,416 709.27,416.11 727.23,422.54C752.09,431.44 758.1,433.9 755,433.92C753.62,433.93 750.01,433.08 746.97,432.03ZM330.69,429.01C322.54,426.92 315.56,424.9 315.19,424.52C314.81,424.15 315.63,424.11 317,424.45C318.38,424.79 325.97,426.6 333.87,428.48C347.48,431.73 351.72,433.11 347.42,432.91C346.36,432.86 338.83,431.11 330.69,429.01ZM242,430.62C242,428.25 249.74,413.76 253.93,408.28L257.92,403.06L245.21,399.06C238.22,396.86 231.49,394.34 230.25,393.47C227.41,391.47 227.29,386.89 229.9,380.01C232.02,374.45 231.85,373.45 229.55,377.9C227.48,381.91 225.78,389.99 226.45,392.67C226.82,394.15 229.09,395.94 233.26,398.02C236.69,399.75 238.79,400.94 237.93,400.68C237.06,400.41 232.69,399.04 228.2,397.62C210.3,391.97 193.34,389.83 182.5,391.87L178.5,392.62L183.3,393.38C185.93,393.79 189.76,394.76 191.8,395.52L195.5,396.91L191,396.39C188.53,396.1 184.34,395.4 181.7,394.82C179.05,394.25 176.66,394.01 176.37,394.3C176.08,394.59 178.46,395.35 181.67,396C184.88,396.64 190.88,398 195,399.02C199.12,400.05 208.12,402.03 215,403.42C232.51,406.98 248.19,411.32 247.82,412.5C247.37,413.91 245.13,413.65 231.24,410.56C224.5,409.06 218.49,408 217.9,408.2C217.3,408.4 223.02,410.24 230.62,412.3C244.82,416.13 247.19,417.21 245.38,419.02C244.69,419.71 241.21,419.22 234.55,417.49C229.15,416.08 224.56,415.1 224.36,415.31C223.92,415.75 240.94,421.03 242.75,421.01C243.44,421.01 244,421.68 244,422.5C244,424.48 242.39,424.4 232.8,421.95C228.38,420.82 224.59,420.07 224.38,420.29C224.16,420.5 228.04,421.92 232.99,423.44C237.95,424.96 242,426.61 242,427.1C242,428.4 240.74,428.27 227.53,425.53C209.66,421.82 211.14,424.04 229.83,428.97C242.84,432.41 242,432.29 242,430.62ZM600.75,430.28C602.54,430.05 605.46,430.05 607.25,430.28C609.04,430.5 607.58,430.68 604,430.68C600.42,430.68 598.96,430.5 600.75,430.28ZM754,429.5C752.62,428.71 751.98,428.05 752.56,428.04C753.14,428.02 754.49,428.66 755.56,429.47C758.03,431.34 757.24,431.35 754,429.5ZM786.5,428.45C782.65,427.16 778.6,426.11 777.5,426.12C776.4,426.13 778.88,427.2 783,428.5C792.72,431.56 795.65,431.52 786.5,428.45ZM410,423.57C410,423.34 404.88,410.18 398.62,394.32C382.66,353.89 379.8,346.07 379.25,341.4C378.84,337.87 379.16,336.93 381.54,334.72L384.31,332.15L379.41,329.04C370.77,323.56 363.22,321.75 346.93,321.24C319.1,320.38 301.32,324.66 276,338.33C255.65,349.32 226.44,367.95 214.28,377.7C208.23,382.55 202.75,384.63 192.5,385.96C180.79,387.48 168.26,389.92 165.31,391.27C164.02,391.86 161.65,394.33 160.03,396.76C156.93,401.45 151.56,416.19 152.23,418.19C152.45,418.85 153.66,416.16 154.93,412.23C157.63,403.81 162.97,394.84 166.21,393.27C168.64,392.08 183.48,389.46 193.5,388.45C201.86,387.61 208.38,385.36 213.3,381.62C225.03,372.7 245.92,358.86 259.5,351C265.27,347.66 262.69,349.92 254,355.82C249.88,358.63 244.93,362.32 243,364.03C241.07,365.74 243.1,364.69 247.5,361.69C273.31,344.11 293.89,333.16 308,329.5C329.53,323.91 357.42,326.76 366.1,335.43C368.17,337.51 370.47,341.43 371.81,345.2C376.26,357.68 392.32,398.01 392.7,397.64C392.91,397.43 391.89,394.16 390.44,390.38C388.98,386.59 384.03,372.97 379.44,360.09C370.06,333.81 368.64,331.56 359.47,328.45C348.19,324.61 356.8,325.77 372.35,330.18C378.61,331.95 379.14,332.31 378.51,334.31C376.9,339.39 376.89,342.12 378.5,347.65C380.45,354.38 388.16,374.79 396.94,396.5C406.78,420.84 408.18,424 409.11,424C409.6,424 410,423.81 410,423.57ZM579.82,423.18C578.89,422.81 584.29,422.45 591.82,422.38C602.57,422.29 604.11,422.42 599,423.01C590.69,423.98 581.97,424.05 579.82,423.18ZM375.56,420.47C374.49,419.66 371.79,419.04 369.56,419.1L365.5,419.19L370.5,420.48C377.19,422.2 377.84,422.19 375.56,420.47ZM298.81,419.32C299.53,419.03 300.4,419.06 300.73,419.4C301.06,419.73 300.47,419.96 299.42,419.92C298.25,419.87 298.01,419.64 298.81,419.32ZM392.69,409.32C385.59,389.44 368.96,345.84 367.05,342.11C362.88,333.93 355.95,330.71 338.59,328.92C321.55,327.16 305.63,329.98 290.5,337.46C270.25,347.47 235,373.93 235,379.13C235,379.77 236.3,378.51 237.89,376.32C243.33,368.8 282.68,341.13 293.9,336.94C306.55,332.2 315.82,330.61 331,330.57C342.72,330.54 346.65,330.91 351.49,332.48C359.59,335.11 364.84,340.44 368.32,349.56C387.54,399.89 395.42,419.92 395.83,419.51C396.03,419.3 394.62,414.72 392.69,409.32ZM456.73,419.4C456.4,419.06 455.53,419.03 454.81,419.32C454.01,419.64 454.25,419.87 455.42,419.92C456.47,419.96 457.06,419.73 456.73,419.4ZM475.5,416.89C485.03,415.37 487,414.89 487,414.09C487,413.1 475.47,414.67 465.5,417.03L457.5,418.92L463.5,418.39C466.8,418.09 472.2,417.42 475.5,416.89ZM496,412.5C496,411.42 494.89,411 492.03,411C488.91,411 488.19,411.32 488.64,412.5C488.99,413.43 490.51,414 492.61,414C494.96,414 496,413.54 496,412.5ZM366.5,411.38C365.4,411.19 358.43,410.36 351,409.54C332.73,407.51 318,404.78 318,403.42C318,399.61 329.41,394.98 340.56,394.26C350.9,393.6 355.84,395.58 361.99,402.87C364.37,405.7 366.51,407.83 366.73,407.6C367.37,406.96 363,398.75 360.64,396.15C357.21,392.39 353.26,390.87 345.44,390.27C331.9,389.25 317.37,393.59 314.57,399.49C313.71,401.31 313,403.52 313,404.4C313,406.3 314.62,406.54 315.34,404.75C315.74,403.77 316.05,403.79 316.79,404.84C317.87,406.38 329.34,408.58 346,410.44C356.16,411.57 371.75,412.29 366.5,411.38ZM518,410.65C519.92,410.48 515.96,410.26 509.19,410.17C502.42,410.08 497.09,410.34 497.34,410.75C497.77,411.44 509.78,411.38 518,410.65ZM535.26,411.3C534.03,411.06 531.78,411.05 530.26,411.28C528.74,411.51 529.75,411.71 532.5,411.71C535.25,411.72 536.49,411.53 535.26,411.3ZM240.81,405.32C241.53,405.03 242.4,405.06 242.73,405.4C243.06,405.73 242.47,405.96 241.42,405.92C240.25,405.87 240.01,405.64 240.81,405.32ZM682.92,405.63C668.9,393.28 631.73,365.39 610.71,351.47L601.91,345.64L590.71,344.5C584.54,343.87 579.13,343.55 578.67,343.79C578.21,344.02 584.29,348.51 592.17,353.75C607.3,363.81 620.54,373.89 640.77,390.75C650.66,398.99 653.69,401 656.23,401L659.39,401L655.95,397.4C654.05,395.41 646.2,389 638.51,383.15C630.82,377.29 621.37,369.86 617.51,366.62C613.65,363.39 607.46,358.74 603.75,356.28C600.04,353.83 597,351.62 597,351.38C597,349.72 619.98,364.94 629.19,372.7C642.37,383.82 657.77,396.99 661.5,400.33L665.5,403.92L658.5,404.16C653.01,404.35 654.08,404.53 663.5,405C670.1,405.33 677.26,405.69 679.42,405.8C681.57,405.91 683.15,405.83 682.92,405.63ZM236.81,404.32C237.53,404.03 238.4,404.06 238.73,404.4C239.06,404.73 238.47,404.96 237.42,404.92C236.25,404.87 236.01,404.64 236.81,404.32ZM232.81,403.32C233.53,403.03 234.4,403.06 234.73,403.4C235.06,403.73 234.47,403.96 233.42,403.92C232.25,403.87 232.01,403.64 232.81,403.32ZM667.9,401.38C667.16,400.48 662.49,396.47 657.53,392.45C652.56,388.44 646.92,383.72 645,381.97L641.5,378.79L645.5,381.58C650.75,385.24 669.73,400.75 670.51,402.02C671.52,403.65 669.34,403.12 667.9,401.38ZM638.12,400.25C636.46,397.21 616.87,377.78 607.5,369.9C585.26,351.19 569.01,340.66 566.39,343.27C566.11,343.56 571.87,348.31 579.19,353.84C586.51,359.37 600.54,370.89 610.36,379.45C622.51,390.03 628.97,395 630.57,395C632.05,395 633.94,396.29 635.71,398.5C638.78,402.35 639.58,402.93 638.12,400.25ZM178,398C176.62,397.56 174.6,397.19 173.5,397.17L171.5,397.14L173.5,398C174.6,398.47 176.62,398.85 178,398.83L180.5,398.8L178,398ZM199.81,394.32C200.53,394.03 201.4,394.06 201.73,394.4C202.06,394.73 201.47,394.96 200.42,394.92C199.25,394.87 199.01,394.64 199.81,394.32ZM687.42,392.39C689.52,391.59 689.41,387.06 687.23,384.36C686.28,383.18 684.01,381.47 682.2,380.55C677.92,378.41 669.51,377.37 668.58,378.88C668.18,379.52 668.54,380 669.44,380C670.3,380 670.89,380.56 670.75,381.25C670.61,381.94 671.17,382.35 671.99,382.17C679.25,380.56 685.79,383.32 687.42,388.65C687.95,390.39 687.53,391.01 685.29,391.83C683.72,392.4 683.23,392.88 684.17,392.92C685.09,392.96 686.55,392.73 687.42,392.39ZM98,388.88C93.88,388.41 84.32,386.9 76.76,385.51C69.2,384.13 62.49,383 61.84,383C61.19,383 60.93,382.73 61.26,382.41C62.05,381.62 109.24,388.1 110.45,389.16C111.56,390.14 108.41,390.07 98,388.88ZM604,380.8C595.9,373.08 571.44,352.3 564,346.83C562.08,345.41 558.7,343.96 556.5,343.6L552.5,342.95L555.44,345.2C561.93,350.16 583.98,367.96 591.5,374.32C599.34,380.95 610.61,389.05 611.86,388.95C612.21,388.93 608.67,385.26 604,380.8ZM291.37,351.53C293.37,347.9 295.77,343.7 296.7,342.21L298.4,339.5L295.56,342C292.39,344.79 285.61,358.61 281.01,371.62C276.39,384.73 277.55,383.95 282.93,370.32C285.57,363.62 289.37,355.17 291.37,351.53ZM94,370.44C69.99,367.59 37.38,362.71 38.9,362.2C41.03,361.49 96.57,368.5 115.5,371.87C125.06,373.58 114.31,372.86 94,370.44ZM206.07,370.96C208.27,369.79 208.53,366.45 207.07,357.93C206.56,354.95 205.8,350.25 205.37,347.5L204.58,342.5L203.92,349.5C203.05,358.58 202.84,372 203.57,372C203.88,372 205,371.53 206.07,370.96ZM241.5,351.3C250.3,345.83 260.99,339.45 265.25,337.11C269.51,334.77 273,332.6 273,332.29C273,331.28 216.23,334.44 215.16,335.5C214.85,335.82 218.27,357.71 219.59,363.89L220.11,366.27L222.8,363.75C224.29,362.36 232.7,356.76 241.5,351.3ZM167,363.41C166.18,363.21 149.53,361.46 130,359.5C85,355 50.33,350.49 58,350.13C61,349.99 94.53,353.27 112.57,355.47C151.94,360.28 174.55,363.22 174.92,363.59C175.41,364.07 169.19,363.93 167,363.41ZM212.66,352.75C212.38,352.06 212.16,352.62 212.16,354C212.16,355.38 212.38,355.94 212.66,355.25C212.94,354.56 212.94,353.44 212.66,352.75ZM287.4,347.84C286.97,347.15 287.13,346.96 287.8,347.37C288.4,347.75 289.39,347.14 289.99,346.03C291.55,343.11 289.55,343.48 287.13,346.56C286.02,347.97 285.38,349.82 285.7,350.67C286.23,352.05 286.4,352.04 287.2,350.6C287.7,349.71 287.79,348.47 287.4,347.84ZM211.69,346.25C211.44,345.29 211.23,346.07 211.23,348C211.23,349.93 211.44,350.71 211.69,349.75C211.94,348.79 211.94,347.21 211.69,346.25ZM427,344.99C437.73,343.89 455.95,342.31 467.5,341.48C494.05,339.57 564.58,338.51 580.5,339.79C587.1,340.31 592.68,340.59 592.89,340.4C593.1,340.21 588.6,337.81 582.89,335.06L572.5,330.06L553.5,328.89C509.11,326.17 422.87,330.52 402.5,336.51C398.78,337.6 398.4,337.86 401,337.52C407.31,336.69 430.25,335.12 443,334.64C457.31,334.11 454.6,334.63 425.5,338C415.6,339.14 405.02,340.71 402,341.49C397.52,342.64 397.24,342.82 400.5,342.45C414.56,340.85 436.18,339.03 446,338.62L457.5,338.13L446.5,339.54C421.25,342.77 411.75,344.25 404.82,346.03C396.36,348.2 395.02,348.26 427,344.99ZM210.69,340.27C210.44,339.3 210.22,339.85 210.19,341.5C210.17,343.15 210.38,343.95 210.66,343.27C210.93,342.59 210.95,341.24 210.69,340.27ZM153.65,327.75C152.93,317.52 151.96,315.92 146.56,316.1L143.5,316.2L146.88,317C150.96,317.97 151.96,319.37 151.98,324.11C152,328.89 153.14,337 153.79,337C154.07,337 154.01,332.84 153.65,327.75ZM573,335.44L568.5,334.07L573,334.66C575.48,334.99 578.4,335.62 579.5,336.06L581.5,336.87L579.5,336.84C578.4,336.82 575.48,336.19 573,335.44ZM412.5,328.03C431.66,325.64 476.49,323.02 499.74,322.94C508.96,322.91 518.3,322.52 520.5,322.08C526.58,320.87 472.87,321.91 444,323.57C429.98,324.37 413.01,325.74 406.31,326.59C394.06,328.16 384.44,328.11 394.81,326.53C400.92,325.61 400.55,324.32 394,323.69C391.52,323.45 393.21,323.37 397.74,323.52C402.27,323.66 405.78,323.45 405.53,323.04C405.13,322.39 423.15,321.3 441.91,320.84L448.5,320.67L443,320C439.52,319.57 442.1,319.42 450,319.57C456.88,319.71 464.07,320.09 466,320.42L469.5,321.02L466.5,319.55C463.72,318.2 464.56,318.09 478,318.06C489.42,318.04 530.63,320.25 535.5,321.14C536.05,321.24 534.02,321.63 531,322C526.39,322.56 527.23,322.7 536.18,322.84C542.05,322.93 550.31,323.48 554.53,324.07C558.75,324.65 562.42,324.91 562.7,324.64C563.72,323.61 549.06,319.83 537,318C515.83,314.79 502.7,313.87 470,313.31C429.95,312.62 354.11,315.75 355.52,318.04C355.77,318.44 358.57,319.09 361.74,319.48C370.5,320.57 382.27,324.64 386.59,328.07C389.62,330.48 391.1,331.02 393.47,330.58C395.14,330.28 403.7,329.13 412.5,328.03ZM200.5,326.91C209.3,326.37 220.1,325.52 224.5,325.02C228.9,324.53 243.32,323.82 256.55,323.45C269.78,323.08 283.28,322.4 286.55,321.94C297.13,320.45 231.33,321.82 215.5,323.41C202.77,324.7 169.02,327 162.89,327C161.85,327 161,327.45 161,328C161,329.05 170.18,328.79 200.5,326.91ZM350.81,325.32C351.53,325.03 352.4,325.06 352.73,325.4C353.06,325.73 352.47,325.96 351.42,325.92C350.25,325.87 350.01,325.64 350.81,325.32ZM228.5,321.05C230.19,320.66 225.81,320.34 218.5,320.33C211.25,320.32 206.61,320.64 208,321.06C211.15,321.99 224.52,321.99 228.5,321.05ZM459.73,320.4C459.4,320.06 458.53,320.03 457.81,320.32C457.01,320.64 457.25,320.87 458.42,320.92C459.47,320.96 460.06,320.73 459.73,320.4ZM258.21,319.26C254.19,319.07 247.89,319.07 244.21,319.26C240.52,319.45 243.8,319.61 251.5,319.61C259.2,319.6 262.22,319.45 258.21,319.26ZM279.76,318.31C278.81,318.06 277.01,318.05 275.76,318.29C274.52,318.53 275.3,318.74 277.5,318.75C279.7,318.76 280.72,318.56 279.76,318.31Z"/>
    </g>
</svg>
