<?xml version="1.0" encoding="UTF-8" standalone="no"?>
<!DOCTYPE svg PUBLIC "-//W3C//DTD SVG 1.1//EN" "http://www.w3.org/Graphics/SVG/1.1/DTD/svg11.dtd">
<svg width="100%" height="100%" viewBox="0 0 1024 1024" version="1.1" xmlns="http://www.w3.org/2000/svg" xmlns:xlink="http://www.w3.org/1999/xlink" xml:space="preserve" xmlns:serif="http://www.serif.com/" style="fill-rule:evenodd;clip-rule:evenodd;stroke-linejoin:round;stroke-miterlimit:2;">
    <path d="M427.75,876.25C416.89,876.09 408,875.59 408,875.13C408,874.12 429.32,873.05 452.91,872.87C482.18,872.64 465.14,871.13 421.5,870.08C400.05,869.56 382.3,869.1 382.05,869.07C381.8,869.03 382.04,868.56 382.57,868.03C383.11,867.49 392.06,866.99 403.02,866.89C413.73,866.79 425.65,866.41 429.5,866.06L436.5,865.41L432.5,864.21C429.78,863.39 417.79,862.97 395,862.89C359.79,862.76 348.35,861.94 364.5,860.7C369.45,860.32 385.1,859.93 399.28,859.84C417.29,859.72 424.95,859.34 424.7,858.58C424.27,857.28 410.12,856.34 386,856C376.38,855.87 367.15,855.42 365.5,855C362.46,854.23 397.56,853.43 412.17,853.94C420.45,854.23 422.23,853.75 421.35,851.47C420.89,850.27 418.19,850 406.89,850C398.3,850 393,849.62 393,849C393,848.11 400.81,847.61 416.25,847.53C420.87,847.5 421,847.41 420.97,844.5C420.92,840.46 419.69,838.5 411.5,829.45C379.96,794.59 356.4,750.24 349.36,712.5C347.94,704.87 347.52,698.11 347.59,684C347.67,667.39 347.94,664.5 350.29,655.73C355.4,636.57 365.91,620.11 381.12,607.46C385.86,603.51 396.78,595.9 405.38,590.56C423.24,579.46 431,572.86 434.76,565.59C436.96,561.34 437.46,558.85 437.8,550.42C438.67,529.12 432.32,512.55 419.18,501.86C410.4,494.72 408.05,488.67 411.47,482.05C414.47,476.26 430.23,471.74 451.5,470.56C457.55,470.23 465.17,469.69 468.44,469.36C474.16,468.78 474.29,468.71 471.82,467.41C467.08,464.93 460.61,463.96 442.5,463.03C418.13,461.77 409.75,459.84 388.64,450.61C378.98,446.39 377.91,445.46 380.54,443.57C386.92,438.99 386.82,439.45 381.95,437C379.5,435.76 374.57,432.6 371,429.97C364.08,424.87 351,411.9 351,410.14C351,409.55 352.8,408.59 355,408L359.01,406.92L354.03,400.35C347.52,391.75 338.86,374.67 335.6,364C331.98,352.13 330.01,343 331.08,343C331.57,343 334.92,345.01 338.52,347.48C347,353.28 356.65,357.83 371.5,363.01C378.1,365.32 384.96,368.09 386.75,369.18L390,371.16L390.02,368.83C390.05,363.88 391.26,363.74 398.77,367.88C402.69,370.03 407.23,372.74 408.85,373.9C412.24,376.31 413.66,376.53 414.25,374.75C414.86,372.93 418.36,375.01 425.72,381.57C429.08,384.56 432.07,387 432.38,387C432.69,387 433.31,385.57 433.77,383.82C434.22,382.07 435.04,380.49 435.58,380.31C437.17,379.78 447.61,389.15 452.59,395.58C458.37,403.02 457.97,402.67 458.88,401.19C459.99,399.39 464.28,403.94 469.06,411.99C474.27,420.76 477.36,428.59 480.51,441.08C482.94,450.68 487.59,461.16 492.06,467.07L493.87,469.48L495.01,466.49C497.61,459.65 503.2,437.71 505.06,427C507.52,412.88 509.34,381.16 508.28,371L507.5,363.5L504.34,369C496.76,382.2 484.8,393 477.76,393C476.21,393 472.74,391.89 470.06,390.53C465.96,388.45 464.7,387.08 462.09,381.87C460.39,378.47 459,374.65 459,373.4C459,370.52 457.58,369.59 456.03,371.46C455.38,372.25 452.9,373.64 450.52,374.55C446.79,375.97 445.8,376.01 443.37,374.85C438.26,372.4 436.71,365.31 439.06,355.12C439.61,352.71 439.94,350.61 439.78,350.46C439.63,350.31 435.68,351.49 431,353.07C419.93,356.83 414.74,356.86 408.95,353.18C399.32,347.08 398.39,343.87 402.91,332.56C404.61,328.32 406,324.76 406,324.66C406,324.55 403.19,324.47 399.75,324.48C389.14,324.51 385,321.42 385,313.46C385,309.34 389.77,303.56 397.39,298.42L402.3,295.11L399.4,294.52C387.67,292.12 378.08,288.02 373.48,283.42C369.47,279.4 367.92,270.96 370.35,266.32C373.48,260.34 381.21,254.87 390.5,252.06C392.7,251.39 395.1,250.66 395.84,250.42C396.58,250.18 394.56,248.63 391.34,246.97C384.12,243.23 380.32,239.22 379.41,234.38C378.17,227.77 382.8,223.8 392.48,223.18L398.94,222.77L395.81,218.23C392.6,213.55 389,205.19 389,202.39C389,199.36 396.2,188.98 398.65,188.48C399.94,188.22 402.15,187.76 403.56,187.47C407.16,186.71 417.39,188.74 424.4,191.58C427.67,192.91 430.52,193.81 430.74,193.59C430.96,193.37 429.99,189.52 428.57,185.04C426.9,179.76 426,174.6 426,170.37C426,164.49 426.29,163.56 428.92,160.92C430.53,159.32 432.5,158 433.3,158C434.1,158 435.32,157.32 436,156.5C439.17,152.68 452.53,156.25 462,163.44L465.5,166.1L465.75,162.8C466.5,153.03 467.23,150.59 470.19,147.82C471.85,146.27 474.14,145 475.27,145C479.04,145 485.77,149.87 489.1,155C490.88,157.75 492.42,160 492.52,160C492.62,160 494.31,156.74 496.29,152.75C498.26,148.76 501.68,143.63 503.88,141.35C507.52,137.57 508.41,137.16 513.59,136.85C516.73,136.66 520.47,137.01 521.9,137.63C527.44,140.03 533.67,149.07 537.47,160.22C538.83,164.23 539.96,166.99 539.97,166.36C540.01,164.61 547.47,155.98 552.12,152.29C554.42,150.48 558.01,148.48 560.12,147.85C563.55,146.82 564.29,146.94 567.42,149.08C572,152.22 573,154.72 573,163.03L573,169.96L579.51,166.39C589.63,160.82 601.84,160.36 604.16,165.45C604.76,166.77 606.28,168.11 607.55,168.42C613.2,169.84 612.81,180.62 606.64,193.29C604.62,197.44 603.87,199.88 604.71,199.56C605.46,199.27 609.82,198.26 614.39,197.32C621.55,195.85 623.48,195.79 628.42,196.9C633.62,198.06 634.43,198.61 637.08,202.79C640.92,208.84 640.92,213.77 637.07,220.75L634.17,226L636.84,226C640.62,226.01 645.62,229.36 646.38,232.4C647.97,238.72 641.77,245.53 630.81,249.49L624.65,251.72L632.4,253.45C642.35,255.66 651.75,260.5 654.75,264.96C656.77,267.96 656.97,269.12 656.39,274.44C655.52,282.38 653.36,285.21 645.23,289.06C639.48,291.78 634.62,293.06 620.19,295.65C618.14,296.02 618.52,296.54 623.69,300.45C634.2,308.39 640,316.23 640,322.49C639.99,326.03 636.95,331.42 634.1,332.95C630.51,334.87 620.85,335.22 615,333.65C611.98,332.83 609.37,332.3 609.2,332.47C609.04,332.63 609.84,335.56 610.99,338.97C612.18,342.5 613.12,348.01 613.19,351.78C613.3,358.38 613.28,358.42 609,362.22C606.64,364.32 603.61,366.31 602.28,366.64C598.52,367.59 589.62,365.39 581.97,361.62L575,358.19L575.66,363.84C576.38,370.01 576.39,370.2 576.16,374.3C575.93,378.29 571.87,382 567.72,382C564.36,382 555,376.78 555,374.91C555,374.41 554.55,374 554,374C553.45,374 553,374.6 553,375.34C553,376.08 551.64,379.39 549.99,382.71C547.37,387.95 546.21,389.14 541.1,391.87C534.54,395.36 532.29,395.68 529.44,393.53C528.37,392.72 527.16,392.05 526.75,392.03C526.34,392.01 526,395.28 526,399.28C526,408.27 523.6,427.66 521.08,439C520.05,443.68 519.29,447.6 519.4,447.72C519.51,447.84 522.35,445.71 525.72,442.99C529.08,440.27 534.33,434.55 537.39,430.27C540.44,426 545.32,419.19 548.22,415.13C554.5,406.37 562.75,398.63 572.99,391.88C580.93,386.66 583.55,386.14 583.42,389.81C583.37,391.04 583.6,391.93 583.92,391.77C584.24,391.61 587.2,390.08 590.5,388.36C595.27,385.88 611.47,380 613.55,380C613.8,380 614,381.85 614,384.11C614,387.55 614.27,388.11 615.68,387.57C619.4,386.14 637.95,384.76 644.27,385.44C651.42,386.2 652.13,386.95 649.4,390.84C648.52,392.1 648.02,393.35 648.3,393.63C648.57,393.9 651.43,394.75 654.65,395.5C657.87,396.25 666.29,398.71 673.38,400.96C680.46,403.21 689.57,405.54 693.63,406.15C697.68,406.75 701,407.57 701,407.98C701,409.06 691.31,417.99 685,422.72C675.76,429.64 663.5,435.58 650.02,439.66C648.99,439.98 649.52,440.72 651.77,442.15C653.55,443.28 655,444.81 655,445.56C655,447.93 637.26,451.97 626.73,451.99L618.96,452L619.6,454.53C621.13,460.64 621.29,460.52 611.5,460.25C599.87,459.92 589.07,457.88 572.7,452.91C558.1,448.48 548.56,447.2 542.5,448.87C540.3,449.47 535.8,451.74 532.5,453.9C526.27,457.99 517,466.32 517,467.83C517,468.3 523.72,469 531.92,469.37C558.59,470.57 580.06,473.85 585.8,477.61C588.95,479.67 591.99,484.92 592,488.3C592,492.64 589.43,496.62 583.73,501.07C577.07,506.27 573.6,510.74 569.44,519.5C563.06,532.9 561.35,549.46 565.09,561.57C567.93,570.74 574.37,577.06 592,587.95C611.97,600.28 619.71,605.98 627.56,614.15C638.96,626.01 645.11,636.44 649.39,651.21C659.16,684.95 653.44,723.51 632.34,766C620.23,790.41 607.47,809.22 589.62,829C581.55,837.95 581.05,838.76 581.03,843L581.02,847.5L594.72,847.82C602.26,848 609.06,848.49 609.82,848.92C610.59,849.35 604.55,850.02 596.4,850.42C588.25,850.82 581.12,851.43 580.55,851.78C578.16,853.26 586.01,853.81 610.81,853.9C625.28,853.96 636.88,854.38 636.6,854.85C636.31,855.31 623.2,856.01 607.46,856.41C591.73,856.8 578.21,857.36 577.43,857.67C572.76,859.46 578.94,860.01 604.75,860.12C620.56,860.18 636.42,860.54 640,860.91L646.5,861.59L642,862.28C639.52,862.66 621.98,863.09 603,863.25C580.64,863.44 567.85,863.92 566.64,864.62C563.98,866.17 572.75,866.82 598.45,866.99C609.98,867.07 620.1,867.54 620.95,868.03C621.8,868.53 622.05,868.96 621.5,868.99C620.95,869.02 602.5,869.51 580.5,870.09C529.14,871.42 523,872.41 561.18,873.2C577.5,873.54 591.6,874.24 592.51,874.75C595.73,876.55 503.94,877.38 427.75,876.25ZM536.22,860.01C559.02,856.79 569.4,853.23 570.66,848.22C571.62,844.41 569.89,844.02 563.5,846.61C557.84,848.9 559.11,849.27 566.39,847.44C571.22,846.22 568.28,849.61 562.18,852.27C555.34,855.26 548.27,856.64 533,857.98C519.13,859.19 485.16,859.17 492,857.95C494.48,857.51 499.04,857.11 502.14,857.07C505.25,857.03 511.1,856.35 515.14,855.56C519.19,854.77 526.02,853.83 530.32,853.47C534.63,853.11 537.94,852.61 537.68,852.35C537.42,852.09 528.8,852.44 518.51,853.13C488.22,855.16 452.67,852.05 436.67,845.96C433.82,844.88 431.39,844 431.25,844C431.11,844 431,845.32 431,846.93C431,852.33 438.83,856.03 457.75,859.58C477.81,863.34 511.36,863.52 536.22,860.01ZM443.89,853.63C438.15,852.39 433,849.72 433,847.98C433,846.72 433.11,846.73 437.24,848.46C439.16,849.26 443.95,850.65 447.87,851.54C451.8,852.43 454.76,853.58 454.45,854.08C453.72,855.26 450.9,855.13 443.89,853.63ZM526.44,841.13C528.06,840.78 518.38,840.47 504.94,840.44C467.26,840.35 442.57,837.37 431,831.5C428.14,830.05 426.06,828.61 426.37,828.29C426.69,827.98 429.59,828.46 432.83,829.37C452.75,834.96 497.92,837.54 524.88,834.62C541.33,832.85 545.54,831.37 530.5,832.65C525,833.12 509.93,833.5 497,833.5C462.76,833.5 435.31,829.87 423.04,823.73C416.75,820.58 416.55,818.75 422.69,820.63C431.27,823.25 455.36,826.9 471.62,828.04C491.64,829.45 531.38,827.71 542,824.96C544.98,824.19 544.68,824.12 540,824.51C536.98,824.76 521.67,825.26 506,825.62C464.99,826.55 438.68,824.28 422.23,818.38C418.23,816.95 414.54,815.01 414.04,814.07C413.22,812.55 414.54,812.65 426.31,815.06C463.44,822.63 496.55,823.42 545.74,817.88C551.41,817.24 555.85,816.52 555.6,816.27C555.35,816.02 547.81,816.33 538.83,816.96C515.82,818.57 464.93,818.66 452,817.11C426.9,814.11 411.57,810.33 407.8,806.23L405.5,803.73L408,804.24C409.38,804.52 414.77,805.7 420,806.87C441.42,811.62 455.67,813.22 481.45,813.73C507.99,814.26 525.45,813.26 547.42,809.94C559.93,808.05 566.64,806.12 556.5,807.32C528.15,810.69 462.09,810.81 437.5,807.54C422.02,805.48 406.44,801.7 403.06,799.19C400.71,797.44 398.69,794.07 400.77,795.36C402.57,796.47 424.04,800.79 438.42,802.94C461.03,806.3 482.74,807.32 505.88,806.08C527.07,804.95 557.43,801.44 560,799.83C561.01,799.2 560.02,799.06 557,799.41C530.33,802.5 462.73,802.62 438.85,799.63C416.9,796.87 399.56,792.72 395.8,789.32C392.57,786.4 393.86,786.28 402.75,788.65C433.62,796.91 478.83,800.75 514,798.11C530.48,796.87 549.62,794.65 559.5,792.83C566.39,791.57 569.89,789.39 563.5,790.34C542.72,793.45 464.32,793.54 433.15,790.49C412.54,788.48 394.71,784.2 391.04,780.4L388.5,777.77L391,778.29C392.38,778.58 398,779.95 403.5,781.35C414.33,784.1 435.98,787.41 453.5,789C467.78,790.3 501.71,790.27 519.5,788.95C542.86,787.22 570.64,783.39 571.65,781.75C572.01,781.17 571.11,781.02 569.38,781.36C553.36,784.57 471.23,785.32 438,782.56C408.78,780.13 385.6,774.83 384.22,770.28C383.94,769.36 385.07,769.42 388.68,770.53C394.13,772.2 419.91,777.36 430.5,778.9C456.93,782.75 509.62,782.82 541,779.06C559.89,776.8 591.91,771.45 592.89,770.39C593.23,770.04 591.48,770.04 589,770.39C555.38,775.24 532.15,776.41 486.31,775.59C466.4,775.23 443.23,774.51 434.81,773.99C410.58,772.49 384.18,767.33 380.97,763.47C378.95,761.03 380.52,760.68 385.7,762.4C393.77,765.08 414.35,768.93 432.92,771.22C447.64,773.05 455.86,773.41 483.5,773.44C515.65,773.49 526.96,772.84 554.5,769.42C572.49,767.18 592.31,763.86 594,762.8C595.01,762.17 594.36,762.07 592,762.48C574.9,765.49 535.55,767.99 506.5,767.92C491.62,767.88 482.31,767.51 483.5,767C484.6,766.53 492.07,766.11 500.1,766.07C521.01,765.97 543.39,764.11 568,760.43C581.61,758.4 597.04,755.3 597.83,754.45C598.2,754.05 597.38,753.99 596,754.31C580.94,757.9 512.86,761.91 499,760.03L493.5,759.28L500.84,759.14C513.42,758.9 558.25,754.79 573.5,752.48C585.3,750.69 598.16,748.17 598.81,747.52C599.64,746.7 597.06,746.9 586.43,748.47C566.2,751.47 539.03,753 509.51,752.81C493.55,752.71 483.2,752.49 486.5,752.33C489.8,752.17 501.95,751.57 513.5,751.01C542.11,749.62 561.01,747.56 583.5,743.37C600.91,740.13 605.69,739 601.92,739C601.14,739 596.67,739.68 592,740.5C573.64,743.73 503,746.51 503,744C503,743.43 505.92,743 509.75,742.99C525.61,742.97 569.52,738.79 589,735.46C593.67,734.66 599.05,734 600.95,734C603.09,734 604.04,733.65 603.45,733.07C602.87,732.51 599.47,732.49 594.8,733.02C569.43,735.9 507.36,738.52 496,737.2C490.52,736.56 492.55,736.32 508.93,735.69C528.98,734.91 551.32,733.03 570.5,730.51C585.55,728.53 605.24,725.11 605.93,724.35C606.24,724 604.7,724 602.5,724.33C594.4,725.56 579.08,726.98 563.5,727.94C542.61,729.22 498.34,730.4 499.05,729.65C499.35,729.33 509.7,728.36 522.05,727.49C534.4,726.61 552.15,725.01 561.5,723.92C586.4,721.01 615.63,716 607.73,716C606.85,716 599.01,716.89 590.31,717.98C569.91,720.54 542.31,722.04 519,721.85C497.82,721.67 499.92,721.36 541,718.53C563.59,716.97 597,712.38 597,710.83C597,709.81 596.67,709.81 585.5,710.95C571.04,712.42 528.25,714.28 525.38,713.56C523.94,713.2 522.97,712.7 523.22,712.45C523.47,712.19 531.96,711.32 542.09,710.5C567.34,708.45 578.25,707.08 599.5,703.32C609.49,701.55 614.73,699.45 606.5,700.52C587.63,702.95 579.81,703.69 577.5,703.25C576.05,702.97 569.38,703.24 562.68,703.85C543.29,705.61 517,706.31 517,705.07C517,704.43 519.34,704 522.75,704C532.45,703.99 571.24,699.81 588.5,696.91C597.98,695.32 612.58,691.69 611.27,691.26C610.62,691.04 604.5,691.79 597.68,692.93C590.86,694.07 582.42,695 578.94,695C575.46,695 566.51,695.45 559.06,695.99C541.87,697.25 512.04,697.74 512.65,696.75C512.91,696.34 516.58,696 520.81,696C525.04,696 532.1,695.56 536.5,695.02C540.9,694.48 552.6,693.1 562.5,691.96C582.71,689.64 595.18,687.58 605.5,684.85C610.67,683.49 611.35,683.14 608.11,683.54C605.69,683.83 597.81,684.51 590.61,685.06C583.4,685.6 570.18,686.71 561.23,687.52C544.21,689.07 520.55,689.42 525.03,688.06C526.41,687.64 531.81,686.98 537.03,686.6C548.53,685.75 561.42,684.34 569.5,683.04C587.16,680.2 611.93,675.6 611.56,675.23C611.33,675 604.7,675.52 596.82,676.4C570.99,679.26 543.76,681 527.49,680.83C518.69,680.74 513.3,680.52 515.5,680.35C544.55,678.06 565.09,675.75 586,672.43C594.52,671.07 603.22,669.7 605.32,669.38C613.23,668.18 607.8,667.97 595.88,669.01C589.07,669.61 580.35,670.3 576.5,670.55C572.65,670.79 563.88,671.43 557,671.97C550.12,672.5 541.35,672.98 537.5,673.04C524.93,673.24 514.66,673.01 515.12,672.55C515.37,672.3 522.31,671.62 530.54,671.05C550.95,669.62 573.99,666.61 595.5,662.55C614.52,658.96 613.66,657.9 593.8,660.45C569.48,663.58 503,666.72 503,664.75C503,664.34 505.81,664 509.25,664C516.71,663.99 539.74,662.38 553,660.94C575.07,658.54 610.26,652.61 613,650.83C614.11,650.12 613.84,650.02 612,650.45C598.78,653.54 540.5,658.08 516.85,657.86L501.5,657.71L513.5,656.9C543.57,654.88 596.88,648.46 598.69,646.64C599.04,646.29 596,646.24 591.92,646.53C546.81,649.79 497.55,651.77 503.5,650.08C505.15,649.62 510.1,649.18 514.5,649.12C530.04,648.88 607.43,640.08 612.5,637.97C615.6,636.68 610.82,636.8 593,638.49C584.48,639.29 572.55,640.4 566.5,640.95C553.77,642.11 517.55,644.01 509.2,643.97C499.59,643.92 505.54,642.32 518,641.6C541.02,640.28 564.91,637.52 604,631.65C611.76,630.48 593.11,631.29 572,633.04C542.55,635.48 499.3,637.27 497.27,636.13C496.44,635.66 501.9,635.04 510.16,634.66C525.31,633.97 546.53,631.97 564,629.59C591.15,625.9 600,624.45 600,623.69C600,623.23 597.41,623.14 594.25,623.48C591.09,623.82 584.45,624.54 579.5,625.07C557,627.48 527.02,628.99 504.28,628.85L479.5,628.7L497.5,627.91C525.77,626.66 545.49,625.08 558.5,623.01C565.1,621.97 574.66,620.57 579.75,619.91C584.84,619.25 589,618.33 589,617.86C589,616.59 581,616.81 567.47,618.45C549.91,620.57 524.53,622.02 508,621.84L493.5,621.69L508,620.97C534.31,619.68 561.08,615.96 587.31,609.94C599.17,607.22 600.33,607.12 603.06,608.53C604.68,609.37 606,610.45 606,610.94C606,611.43 603.19,612.53 599.75,613.38C593.73,614.88 595.28,614.88 605.51,613.38C608.65,612.92 610.07,613.24 612.01,614.82C614.76,617.07 614.82,617.02 607,618.87C602.71,619.88 602.82,619.91 609.44,619.48C614.92,619.13 616.77,619.39 618.19,620.67C620.91,623.13 620.44,623.81 615.49,624.55C610.69,625.27 608.32,627.02 612.19,626.98C613.46,626.96 616.29,626.54 618.48,626.03C621.66,625.29 622.82,625.43 624.23,626.71C626.62,628.87 626.46,629.99 623.75,630.07C622.51,630.11 620.6,630.57 619.5,631.09C618.04,631.78 618.76,631.91 622.15,631.55C625.52,631.2 627.15,631.48 628.05,632.56C629.58,634.4 629.52,634.44 624,635.76L619.5,636.83L624.62,636.3C629.14,635.84 629.92,636.05 631.34,638.08C632.23,639.34 632.77,640.56 632.54,640.79C632.32,641.02 629.74,641.59 626.82,642.06L621.5,642.91L627.81,642.54C633.68,642.2 634.2,642.35 635.22,644.59C635.83,645.92 636.09,647.24 635.8,647.53C635.52,647.82 632.41,648.58 628.89,649.22C625.38,649.86 623.3,650.56 624.27,650.77C625.25,650.98 628.36,650.66 631.2,650.05C636.62,648.89 637.95,649.49 637.98,653.12C638,654.32 636.68,654.92 632.99,655.41C630.24,655.77 626.97,656.51 625.74,657.05C623.36,658.1 624.79,658.01 634.66,656.49C638.33,655.93 638.9,656.11 639.5,658C639.88,659.18 640,660.33 639.78,660.55C639.56,660.77 635.81,661.64 631.44,662.47L623.5,663.99L630,663.49C633.58,663.22 637.4,662.88 638.5,662.75C639.87,662.58 640.59,663.16 640.8,664.6C641.05,666.34 640.21,666.97 635.8,668.33C632.88,669.23 628.11,670.47 625.18,671.08C616.51,672.9 619.93,673.15 629.59,671.4C641.97,669.17 641.5,669.15 641.5,671.98C641.5,674.25 640.72,674.67 632,677.14C622.03,679.96 623.17,681.01 633.5,678.52C641.69,676.54 642,676.59 642,679.82C642,682.34 641.46,682.8 636.75,684.25C633.86,685.14 628.68,686.41 625.23,687.07C621.77,687.73 618.68,688.71 618.35,689.24C617.99,689.83 618.88,689.99 620.62,689.64C622.21,689.32 626.2,688.6 629.51,688.03C632.81,687.47 636.97,686.58 638.76,686.07C641.95,685.15 642,685.19 642,688.44L642,691.74L631.25,694.53C625.34,696.07 620.06,697.71 619.53,698.18C618.32,699.25 623.25,698.4 632.76,695.91C642.05,693.47 642.19,693.48 641.82,696.74C641.52,699.31 640.76,699.7 629.5,703.19C615.66,707.46 616.23,708.14 630.6,704.5C636.02,703.12 640.58,702 640.73,702C640.88,702 641,703.09 641,704.42C641,707.15 638.55,708.32 624,712.53C618.42,714.14 617.04,714.77 620,714.36C622.47,714.02 627.98,712.73 632.25,711.49C639.57,709.36 640,709.33 640,711.04C640,714.15 637.61,715.49 626.89,718.38C613.52,721.99 613.62,721.96 614.23,722.56C614.82,723.15 631.14,719.7 635.25,718.11C637.63,717.19 638,717.29 638,718.87C638,719.87 637.21,721.4 636.25,722.26C634.18,724.12 624.84,727.33 616.67,728.99C613.46,729.64 611.06,730.4 611.34,730.67C612.03,731.36 627.79,728.08 631.87,726.4C636.35,724.54 636.91,724.63 636.28,727.04C635.59,729.69 631.66,731.66 622.27,734.06C618.09,735.13 614.44,736.23 614.16,736.5C612.99,737.68 618.36,736.83 625.89,734.65C632.2,732.82 634,732.6 634,733.65C634,736.16 630.11,738.91 624.29,740.53C615.92,742.86 613.29,743.83 615.07,743.92C615.93,743.96 619.87,743.15 623.82,742.11C629,740.75 631,740.56 631,741.42C631,744.87 626.09,747.27 611.5,750.98C604.39,752.79 604.09,752.96 608.76,752.47C611.65,752.17 616.99,751.01 620.61,749.89C627.43,747.79 628.65,747.87 627.68,750.4C626.67,753.02 622.62,754.92 611.44,757.99C603.66,760.13 601.94,760.84 605.5,760.45C608.25,760.14 613.31,758.98 616.75,757.87C624.4,755.38 625.81,755.7 623.01,759.26C620.98,761.84 611.47,765.44 601.25,767.5C599.46,767.86 598,768.6 598,769.15C598,769.69 598.79,769.89 599.75,769.58C600.71,769.28 605.1,768.12 609.5,767C613.9,765.88 618.33,764.71 619.34,764.39C620.94,763.88 621.03,764.08 620.02,765.96C618.03,769.67 609.47,773.7 597.5,776.54C595.85,776.93 595.06,777.45 595.75,777.71C597.33,778.29 609.61,775.25 613.25,773.37C616.68,771.6 616.77,772.94 613.47,776.85C610.87,779.94 603.67,782.87 593.25,785.06C590.36,785.67 588,786.54 588,786.99C588,787.83 596.41,786.13 605.42,783.46C608.13,782.66 610.48,782.14 610.64,782.31C610.81,782.48 609.88,784.18 608.58,786.1C606.52,789.13 605.26,789.81 598.86,791.32C594.81,792.28 589.48,793.72 587,794.54L582.5,796.02L587.46,795.42C590.18,795.09 595.12,793.97 598.42,792.95C601.71,791.92 604.63,791.29 604.88,791.55C605.14,791.81 604.05,793.38 602.46,795.05C599.69,797.93 591.41,801.12 579.5,803.87C577.28,804.39 576.48,804.84 577.69,804.9C579.61,804.99 590.39,802.83 595.25,801.39C597.84,800.62 597.46,803.65 594.75,805.42C593.51,806.23 588.45,808 583.5,809.35C578.55,810.7 572.92,812.28 571,812.87C567.77,813.84 567.9,813.88 572.7,813.38C575.56,813.07 581.19,811.99 585.2,810.96L592.5,809.1L588.46,812.89C584.8,816.32 583.34,816.9 572.96,819.06C566.66,820.38 562.17,821.58 563,821.75C563.83,821.91 568.66,821.22 573.75,820.21C578.84,819.19 583,818.66 583,819.03C583,821.64 564.83,828.68 557,829.1C555.26,829.19 555.04,829.37 556.27,829.69C557.77,830.08 567.66,828.28 574.5,826.36C576.12,825.9 575.93,826.38 573.5,828.87C571.1,831.33 568.01,832.65 558,835.5C551.12,837.45 547.52,838.8 550,838.49C552.48,838.18 558.06,836.98 562.41,835.81C569.05,834.04 571.19,832.9 575.79,828.74C588.75,817.01 604.91,796.07 615.81,776.91C641.37,731.97 650.23,690.4 641.47,656.5C636.35,636.68 621.89,618.28 600.96,604.95C566.09,582.73 563.53,580.63 558.35,569.89C552.45,557.66 552.99,532.81 559.52,515.82C560.08,514.35 559.73,514.25 556.83,515.01C555,515.5 551.48,516.34 549,516.9C544.86,517.82 545.03,517.86 551.25,517.37C554.96,517.08 558,517.08 558,517.37C558,517.67 557.48,519.04 556.85,520.44C556.03,522.22 554.64,523.15 552.1,523.58C550.12,523.92 547.15,524.6 545.5,525.09C543.2,525.78 543.97,525.89 548.75,525.59C555.48,525.16 556.22,525.81 553.48,529.72C552.47,531.17 550.42,532.11 547.23,532.58C539.79,533.68 537.57,535.12 544.41,534.42C547.66,534.09 550.92,533.58 551.66,533.3C553.25,532.69 553.45,535.3 552.02,537.97C551.36,539.2 549.37,540.04 546.02,540.5C543.26,540.88 541,541.62 541,542.14C541,543.01 545.69,542.6 550.32,541.32C551.86,540.9 552.09,541.34 551.82,544.16C551.52,547.33 551.21,547.56 546,548.74L540.5,549.97L546.25,549.56L552,549.14L552,552C552,554.65 551.62,554.93 546.75,555.88C537.58,557.66 537.31,557.94 545.25,557.42L553,556.92L553,559.92C553,562.78 552.75,562.96 547.98,563.6C545.22,563.96 542.76,564.58 542.52,564.97C542.27,565.37 544.61,565.29 547.7,564.8C553.57,563.88 554.95,564.51 554.98,568.09C555,569.27 553.18,570.02 547.95,571.01C544.08,571.74 540.72,572.64 540.49,573.01C540.1,573.65 544.69,573.1 553.12,571.51C556.49,570.87 556.79,571.02 557.43,573.66C557.81,575.22 558.97,577.17 560,578C561.03,578.83 562.02,580.16 562.19,580.97C562.36,581.77 564.47,583.72 566.89,585.28C571.77,588.45 571.45,589.57 565.5,590.26C563.3,590.51 556.55,591.45 550.5,592.34C532,595.06 509.59,595.85 480,594.84C453.54,593.93 432.54,591.94 430.76,590.16C430.3,589.7 430.53,588.8 431.29,588.17C432.33,587.31 434.61,587.41 440.58,588.56C473.42,594.9 516.03,594.73 546.11,588.15C550.84,587.11 555.56,585.72 556.61,585.06C558.46,583.87 558.46,583.86 556.61,584.45C546.84,587.54 507.38,589.38 478.62,588.09C454.07,586.99 437,585.3 437,583.99C437,583.58 437.69,582.67 438.53,581.97C439.73,580.98 441.24,580.94 445.28,581.78C460.97,585.02 472.33,586.06 492,586.04C512.94,586.01 527.51,584.72 537.6,581.99L544.5,580.12L535,580.81C520,581.9 476.13,581.53 474.91,580.31C474.17,579.57 480.82,579.09 497.18,578.71C510,578.4 522.3,577.72 524.5,577.18C526.7,576.65 530.19,575.92 532.25,575.56C534.31,575.2 536,574.53 536,574.06C536,573.6 526.48,573.46 514.85,573.76C500.87,574.12 493.9,573.97 494.31,573.3C494.65,572.76 499.34,572.02 504.73,571.66C516.18,570.91 533.08,568.21 534.45,566.9C535.02,566.36 526.98,565.97 514.45,565.91C492.86,565.83 490.37,564.75 508.63,563.41C513.79,563.04 518,562.4 518,562.01C518,561.61 520.99,561.01 524.64,560.67C530.97,560.08 532.86,559.53 531.9,558.57C531.66,558.33 524.37,558.03 515.69,557.9C499.92,557.66 494.73,556.64 503.73,555.55C516.02,554.06 531.69,551.62 533.5,550.91C534.65,550.46 529.73,550.05 522,549.95C514.58,549.86 504.23,549.48 499,549.12L489.5,548.47L500,547.65C505.77,547.19 515.23,546.19 521,545.43C526.77,544.66 532.09,544.03 532.81,544.02C533.53,544.01 533.84,543.55 533.5,543C533.13,542.41 526.51,541.98 517.19,541.94C508.56,541.91 499.7,541.55 497.5,541.14C493.96,540.48 494.53,540.31 502.5,539.66C514.88,538.66 528.21,536.86 529.92,535.97C530.7,535.56 523.73,534.91 514.42,534.53C488.66,533.46 484.42,532.57 500.88,531.69C508.24,531.3 519.04,530.2 524.88,529.24L535.5,527.5L503.5,526.82C485.9,526.44 467.23,525.62 462,524.98C456.77,524.35 451.3,523.8 449.84,523.77C448.05,523.72 446.83,522.93 446.09,521.3C444.6,518.04 444.67,517.9 447.25,518.99C451.77,520.9 464.8,522.91 477,523.58C491.01,524.35 529.26,522.94 520,522L514.5,521.44L522.5,520.67C526.9,520.24 532.08,519.49 534,518.99C536.61,518.31 535.84,518.24 531,518.7C520.02,519.75 469.18,519.22 456.73,517.93C446.62,516.87 444.6,516.36 442.35,514.27C440.31,512.38 439.9,512.25 440.49,513.67C447.72,530.99 449.33,553.3 444.35,567.16C440.54,577.73 430.95,586.14 405.66,601.05C397.08,606.12 380.14,619.84 375.23,625.72C366.23,636.48 360.58,648.98 357.98,663.86C356.56,672.01 356.55,695.28 357.96,705C362.13,733.63 375.52,765.78 394.83,793.5C406.07,809.65 421.96,828.07 428,831.97C435.14,836.57 446.63,839.2 469,841.34C475.36,841.95 523.44,841.78 526.44,841.13ZM553.73,830.4C553.4,830.06 552.53,830.03 551.81,830.32C551.01,830.64 551.25,830.87 552.42,830.92C553.47,830.96 554.06,830.73 553.73,830.4ZM564.73,814.4C564.4,814.06 563.53,814.03 562.81,814.32C562.01,814.64 562.25,814.87 563.42,814.92C564.47,814.96 565.06,814.73 564.73,814.4ZM575,798C577.44,797.22 577.43,797.2 574.5,797.17C572.85,797.15 570.6,797.53 569.5,798C567.68,798.78 567.73,798.86 570,798.83C571.38,798.81 573.62,798.44 575,798ZM579.75,790.01C581.54,790.01 583,789.62 583,789.15C583,788.2 573.1,789.53 572.12,790.61C571.78,790.99 572.62,791.01 574,790.66C575.38,790.31 577.96,790.02 579.75,790.01ZM589,779L591.5,778.2L589,778.22C587.62,778.23 585.15,778.58 583.5,779L580.5,779.76L583.5,779.78C585.15,779.79 587.62,779.44 589,779ZM463.65,766.95C464.35,766.25 466.3,766.21 469.6,766.84L474.5,767.78L468.55,767.89C464.4,767.97 462.92,767.68 463.65,766.95ZM436,766.35C434.07,766.17 426.88,765.53 420.02,764.94C401.34,763.32 380.57,758.71 377.06,755.41C376.27,754.66 375.82,753.86 376.06,753.64C376.3,753.41 380.76,754.31 385.97,755.63C397.73,758.62 420.8,762.49 436,764.03C453.11,765.76 457.52,766.8 447.5,766.73C443.1,766.7 437.93,766.53 436,766.35ZM442,759.33C430.03,758.67 410.18,756.89 404.5,755.95C386.97,753.06 370.89,747.79 373.03,745.64C373.32,745.35 377.16,746.15 381.55,747.43C397.15,751.96 435.35,757.83 451,758.09C454.57,758.15 458.62,758.56 460,759C462.53,759.81 453.75,759.97 442,759.33ZM473.36,759.31C474.07,758.6 484.17,758.84 484.92,759.59C485.15,759.81 482.48,760 479,760C475.52,760 472.98,759.69 473.36,759.31ZM436,751.33C434.07,751.14 425.3,750.28 416.5,749.42C400.72,747.89 382.31,744.51 374.5,741.73C370.04,740.14 367.87,736.15 372.15,737.4C389.57,742.51 419.94,748.27 436.25,749.55C441.06,749.93 445,750.63 445,751.12C445,751.98 443,752.03 436,751.33ZM462.25,751.28C463.76,751.05 466.24,751.05 467.75,751.28C469.26,751.51 468.02,751.7 465,751.7C461.98,751.7 460.74,751.51 462.25,751.28ZM611,745L613.5,744.2L611,744.11C609.62,744.07 607.83,744.47 607,745C605.67,745.86 605.67,745.96 607,745.89C607.83,745.84 609.62,745.44 611,745ZM484,743.99C484,743.36 485.62,743.22 488.25,743.63C494.07,744.52 494.22,745 488.67,745C486.1,745 484,744.54 484,743.99ZM442,743C440.9,742.29 441.64,742.03 444.75,742.02C447.09,742.01 449,742.45 449,743C449,744.28 443.97,744.28 442,743ZM423.5,742C422.06,741.38 423.05,741.14 427,741.14C430.02,741.14 433.4,741.53 434.5,742C435.94,742.62 434.95,742.86 431,742.86C427.98,742.86 424.6,742.47 423.5,742ZM402.5,740.48C387.38,738.32 371.42,734.25 368.25,731.74C366.2,730.12 366.81,728.71 369.25,729.44C379.49,732.5 399.11,737.05 406.04,737.97C416.01,739.3 418,739.81 418,741.07C418,742.25 413.84,742.09 402.5,740.48ZM438,735L434.5,734.26L438.25,734.13C440.31,734.06 442,734.45 442,735C442,735.55 441.89,735.94 441.75,735.87C441.61,735.8 439.93,735.41 438,735ZM420.75,734.28C419.24,734.05 418,733.39 418,732.81C418,732.16 419.2,731.99 421.12,732.38C422.84,732.72 425.54,733 427.12,733C428.71,733 430,733.45 430,734C430,734.98 426.15,735.1 420.75,734.28ZM400.42,732.52C382.06,730.01 365.52,725.09 364.68,721.87C364.26,720.27 364.5,719.99 365.82,720.53C372.95,723.47 409.21,732 414.57,732C414.8,732 415,732.45 415,733C415,734.22 412.19,734.13 400.42,732.52ZM494.35,728.87C495.67,728.1 496.51,728.11 497.3,728.9C498.1,729.7 497.6,729.99 495.45,729.97C492.86,729.94 492.73,729.81 494.35,728.87ZM428.5,727C427.03,726.37 427.89,726.12 431.75,726.07C434.64,726.03 437,726.45 437,727C437,728.2 431.3,728.2 428.5,727ZM414,726.33C396.6,725.11 373.45,720.35 365.91,716.45C362.76,714.82 361.9,712.45 364.75,713.27C365.71,713.55 370.5,714.95 375.38,716.39C385.29,719.31 409.89,724 415.32,724C419.38,724 422,724.83 422,726.11C422,726.6 421.21,726.92 420.25,726.83C419.29,726.73 416.48,726.51 414,726.33ZM430.5,719C428.9,718.31 429.24,718.13 432.25,718.07C434.31,718.03 436,718.45 436,719C436,720.19 433.28,720.19 430.5,719ZM417.25,718.29C416.01,718.06 415,717.39 415,716.81C415,716.16 416.2,715.99 418.12,716.38C419.84,716.72 421.64,717 422.12,717C422.61,717 423,717.45 423,718C423,719.01 421.39,719.09 417.25,718.29ZM404.07,717.12C402.74,716.75 401.48,715.94 401.27,715.32C400.83,713.98 408.89,715.51 410.45,717.06C411.54,718.14 407.85,718.18 404.07,717.12ZM386,714.93C383.52,714.46 377.11,712.83 371.75,711.3C364.17,709.13 362,708.12 362,706.76C362,704.61 361.48,704.6 369.14,706.96C372.64,708.03 379.55,709.83 384.5,710.96C389.45,712.08 394.51,713.24 395.75,713.52C396.99,713.81 398,714.48 398,715.02C398,716.17 392.35,716.13 386,714.93ZM509.76,713.29C511.01,713.05 512.81,713.06 513.76,713.31C514.72,713.56 513.7,713.76 511.5,713.75C509.3,713.74 508.52,713.53 509.76,713.29ZM424.5,711C423.78,709.83 427.36,709.83 431,711C433.14,711.68 432.89,711.82 429.31,711.9C427,711.96 424.84,711.55 424.5,711ZM414,710.28C412.62,710.03 411.05,709.37 410.5,708.81C409.23,707.52 420.07,708.8 421.45,710.1C422.43,711.03 418.67,711.12 414,710.28ZM403.58,709.07C401.98,708.76 400.48,707.94 400.25,707.26C399.95,706.36 400.75,706.19 403.17,706.64C406.75,707.31 408.69,708.51 407.34,709.21C406.88,709.45 405.19,709.39 403.58,709.07ZM385,706.94C382.52,706.48 376.11,704.88 370.75,703.38C362.97,701.21 361,700.29 361,698.83C361,696.55 361.39,696.55 368.34,698.94C371.45,700.01 378.38,701.83 383.75,702.98C395.96,705.6 397,705.92 397,707.07C397,708.17 391.3,708.11 385,706.94ZM505.22,705.8C507.7,705.14 509.87,705.15 511.72,705.83C514.09,706.69 513.54,706.84 508,706.82C501.85,706.79 501.7,706.74 505.22,705.8ZM429.25,704.19C426.91,704.02 425,703.46 425,702.93C425,702.08 432.83,702.7 433.92,703.64C434.73,704.34 433.45,704.5 429.25,704.19ZM441,704.2C441,703.76 442.57,703.59 444.5,703.81C446.43,704.03 448,704.39 448,704.61C448,704.82 446.43,705 444.5,705C442.57,705 441,704.64 441,704.2ZM412.5,702C410.95,701.33 411.43,701.12 414.69,701.07C417,701.03 419.16,701.45 419.5,702C420.25,703.22 415.33,703.22 412.5,702ZM400,700.5C398.52,699.66 398.11,699.06 399,699.05C401.57,699.01 405,700.19 405,701.12C405,702.4 402.87,702.14 400,700.5ZM385,698.52C380.88,697.81 375.59,696.74 373.25,696.12C370.91,695.5 367.25,694.55 365.1,693.99C361.4,693.03 359.38,690.82 360.52,688.97C360.81,688.5 362.6,688.77 364.5,689.57C366.41,690.36 373.91,692.5 381.17,694.32C388.43,696.14 394.56,698.17 394.77,698.82C395.23,700.2 394.83,700.19 385,698.52ZM413.75,694.27C410.28,693.91 408.28,692 411.38,692C414.35,692 419,693.3 419,694.12C419,694.61 418.66,694.92 418.25,694.83C417.84,694.74 415.81,694.49 413.75,694.27ZM425.25,694.31C426.21,694.06 427.79,694.06 428.75,694.31C429.71,694.56 428.93,694.77 427,694.77C425.07,694.77 424.29,694.56 425.25,694.31ZM400,692.76L397.5,691.65L399.82,691.25C402.61,690.76 405,691.55 405,692.97C405,694.27 403.22,694.19 400,692.76ZM387,690.86C366.12,686.59 357.97,683.7 360.27,681.39C360.56,681.11 366.58,682.28 373.65,684C393.36,688.8 393.76,688.92 394.37,690.51C395.02,692.2 393.82,692.26 387,690.86ZM504.5,689C503.15,688.42 505.11,688.12 510.5,688.09C516.01,688.05 518.03,688.33 517,689C515.17,690.18 507.25,690.18 504.5,689ZM411,685C411,684.45 412.55,684 414.44,684C416.33,684 418.16,684.45 418.5,685C418.87,685.6 417.51,686 415.06,686C412.83,686 411,685.55 411,685ZM398,683C398,681.73 402.03,681.73 404,683C405.12,683.72 404.54,683.97 401.75,683.98C399.69,683.99 398,683.55 398,683ZM384,681.43C373.75,680.09 362.04,677.37 360.62,675.99C360.13,675.52 359.99,674.47 360.3,673.66C360.79,672.39 361.99,672.52 368.55,674.55C372.77,675.85 379.88,677.65 384.36,678.55C391.73,680.03 395.11,681.36 393.93,682.32C393.69,682.51 389.23,682.11 384,681.43ZM423,677.95C423,677.29 424.38,677.16 426.75,677.59C431.94,678.53 432.08,679 427.17,679C424.88,679 423,678.53 423,677.95ZM410,676.48C410,675.33 410.67,675.12 412.75,675.62C418.02,676.87 418.7,677.94 414.25,677.97C411.1,677.99 410,677.61 410,676.48ZM398.44,675.53C396.58,674.12 396.61,674.06 399.17,674.03C402.43,673.99 405,674.91 405,676.11C405,677.53 400.57,677.14 398.44,675.53ZM385.5,673.9C375.47,672.48 361.01,668.58 361,667.31C361,666.65 361.41,665.87 361.91,665.56C363.12,664.81 395,673.09 395,674.16C395,675.12 393.83,675.09 385.5,673.9ZM500.21,672.85C502.04,672.18 503.51,672.2 504.71,672.9C506.14,673.73 505.58,673.93 502,673.89C497.85,673.85 497.71,673.77 500.21,672.85ZM423.51,669.98C423.86,669.42 424.56,669.23 425.07,669.54C426.46,670.4 426.2,671 424.44,671C423.58,671 423.16,670.54 423.51,669.98ZM411,669C411,668.45 412.32,668 413.94,668C415.56,668 417.16,668.45 417.5,669C417.87,669.6 416.68,670 414.56,670C412.6,670 411,669.55 411,669ZM401.25,668.23C400.01,668.03 399,667.44 399,666.93C399,665.72 403.71,665.72 404.46,666.93C405.23,668.18 403.99,668.68 401.25,668.23ZM382.5,665.53C374.71,664.09 363.88,661.13 362.79,660.13C362.4,659.77 362.42,658.94 362.83,658.28C363.39,657.38 366.18,657.83 373.97,660.09C379.68,661.74 386.53,663.56 389.17,664.13C391.82,664.7 394.24,665.58 394.55,666.08C395.3,667.3 391.06,667.11 382.5,665.53ZM403.5,661.21C399.04,660.67 397.93,659 402.05,659.02C405.54,659.03 408.93,660.4 407.36,661.16C406.89,661.39 405.15,661.41 403.5,661.21ZM387,658.93C372.09,656.12 363.08,652.59 365.25,650.42C365.67,649.99 372.48,651.67 392.25,657.06C394.31,657.62 396,658.51 396,659.04C396,660.16 393.31,660.12 387,658.93ZM420.25,656.34C419.56,656.06 419,655.26 419,654.56C419,653.56 419.86,653.51 422.94,654.33C425.11,654.91 426.66,655.75 426.38,656.19C425.84,657.07 422.27,657.15 420.25,656.34ZM402.5,652.99C401.74,651.76 404.49,650.57 405.97,651.48C406.55,651.84 406.77,652.56 406.46,653.07C405.69,654.3 403.28,654.26 402.5,652.99ZM386.5,650.86C377.64,649.23 366.92,645.73 367.32,644.59C367.82,643.19 371.83,643.64 380,646.01C383.57,647.05 389.09,648.4 392.25,649.02C395.41,649.64 398,650.56 398,651.07C398,652.19 393.29,652.1 386.5,650.86ZM423.5,648C423.16,647.45 423.78,647 424.88,647C425.98,647 427.16,647.45 427.5,648C427.84,648.55 427.22,649 426.12,649C425.02,649 423.84,648.55 423.5,648ZM406.54,646.07C405.88,645 406.93,644.28 408.75,644.56C409.44,644.66 410.7,644.81 411.56,644.88C412.42,644.94 412.84,645.45 412.5,646C411.72,647.26 407.31,647.31 406.54,646.07ZM386.97,643.41C382.82,642.66 377.67,641.44 375.52,640.69C371.34,639.24 369.64,637.02 372.67,636.97C375.79,636.92 402,643.4 402,644.23C402,645.34 395.68,645 386.97,643.41ZM612.27,644.34C611.59,644.07 610.24,644.05 609.27,644.31C608.3,644.56 608.85,644.78 610.5,644.81C612.15,644.83 612.95,644.62 612.27,644.34ZM411,639C411,638.45 412.32,638 413.94,638C415.56,638 417.16,638.45 417.5,639C417.87,639.6 416.68,640 414.56,640C412.6,640 411,639.55 411,639ZM388,635.94C383.32,634.9 378.49,633.8 377.25,633.5C376.01,633.21 375,632.3 375,631.48C375,629.81 377.71,629.56 381.23,630.9C382.53,631.39 388.29,632.77 394.04,633.96C399.8,635.15 404.93,636.54 405.45,637.06C407.03,638.62 397.22,637.99 388,635.94ZM432.5,635.22C431.4,634.99 430.05,634.34 429.5,633.77C428.82,633.07 429.45,632.97 431.5,633.45C435.87,634.49 436.79,636.1 432.5,635.22ZM419,633C416.77,632.29 416.9,632.19 420.25,632.1C422.31,632.04 424,632.45 424,633C424,634.14 422.57,634.14 419,633ZM397.43,630.39C386.49,628.9 379.21,626.82 380,625.4C380.78,623.99 385.49,624.48 398.89,627.35C405.7,628.81 411.44,630 411.64,630C411.84,630 412,630.45 412,631C412,632.22 410.32,632.15 397.43,630.39ZM439,628C439,626.75 440.06,626.75 442,628C443.21,628.78 443.07,628.97 441.25,628.98C440.01,628.99 439,628.55 439,628ZM428.25,627.28C426.46,627.05 425,626.39 425,625.8C425,624.46 432.8,625.4 434.32,626.92C435.45,628.05 434.81,628.09 428.25,627.28ZM406,624.46C405.18,624.29 400.09,623.37 394.7,622.41C385.91,620.85 385.06,620.51 386.43,619.14C387.81,617.76 389.22,617.9 400.23,620.43C417.25,624.35 418.65,624.85 412.5,624.81C409.75,624.78 406.82,624.63 406,624.46ZM441,621.26C438.52,621.05 436.05,620.42 435.5,619.86C434.36,618.71 448.18,619.76 451.5,621.08C453.65,621.93 449.61,622.01 441,621.26ZM484.27,621.31C485.24,621.05 486.59,621.07 487.27,621.34C487.95,621.62 487.15,621.83 485.5,621.81C483.85,621.78 483.3,621.56 484.27,621.31ZM419,619.34C403.61,617.83 392,615.55 392,614.03C392,612.21 395.88,612 402.11,613.46C405.62,614.29 412.77,615.7 418,616.59C432.52,619.06 433.13,620.72 419,619.34ZM437,613.95C413.97,611.84 400,609.98 400,609.02C400,608.65 401.02,607.79 402.27,607.12C404.14,606.12 406.85,606.36 417.52,608.5C432.33,611.46 452.22,613.73 473.69,614.9L488.5,615.7L472.5,615.72C463.7,615.74 447.73,614.94 437,613.95ZM513.5,613.45C539.28,611.48 567.1,607.53 573.49,604.94C576.47,603.73 569.75,603.75 562.93,604.98C553.56,606.66 514.16,609 498.5,608.8C490.25,608.7 486.43,608.48 490,608.31C518.13,606.99 564.11,600.94 568.89,597.93C570.07,597.19 569.42,597.07 566.5,597.47C541.63,600.93 496,603.31 496,601.16C496,600.38 498.55,600 503.75,600C519.58,599.99 566.9,592.85 570.55,589.93C571.67,589.03 578,592.34 578,593.81C578,594.27 576.31,595.16 574.25,595.78L570.5,596.91L574.66,596.46C576.95,596.21 579.43,595.78 580.16,595.5C580.9,595.22 583.08,595.96 585,597.14C588.86,599.51 588.85,599.52 581,601.85C578.12,602.71 578.91,602.8 585.5,602.4C592.3,601.99 593.85,602.2 595.87,603.8L598.23,605.69L588.87,607.9C571.89,611.9 535.66,615.11 510.02,614.88L496.5,614.76L513.5,613.45ZM450.5,607.89C434.26,606.67 413.73,604.21 410.94,603.15L408.5,602.23L411.18,600.99C413.41,599.95 415.82,600.12 425.68,601.98C432.18,603.21 446.73,605.24 458,606.5C474.93,608.39 477.02,608.78 470,608.75C465.32,608.73 456.55,608.35 450.5,607.89ZM478.5,601C478.11,600.37 480.32,600 484.44,600C488.15,600 491,600.43 491,601C491,601.55 488.35,602 485.06,602C481.79,602 478.84,601.55 478.5,601ZM450.5,600.37C448.85,600.19 441.65,599.54 434.5,598.93C418.2,597.53 417.81,597.41 420.86,594.93C422.4,593.67 424.14,593.18 425.86,593.51C437.15,595.68 451.62,598.01 457.26,598.57C460.98,598.93 464.27,599.63 464.57,600.12C465.09,600.95 457.11,601.09 450.5,600.37ZM445.72,579.11C442.06,578.52 441.99,578.43 443.49,576.31C444.91,574.29 445.28,574.22 448.27,575.45C450.04,576.18 453.98,577.1 457,577.5C466.04,578.69 466.32,579.95 457.5,579.83C453.1,579.77 447.8,579.44 445.72,579.11ZM553.73,578.4C553.4,578.06 552.53,578.03 551.81,578.32C551.01,578.64 551.25,578.87 552.42,578.92C553.47,578.96 554.06,578.73 553.73,578.4ZM452.65,572.95C447.16,572.03 446.54,571.65 447.28,569.7C447.73,568.54 448.86,568.58 454.39,569.97C460.44,571.5 463.85,573 461.25,573C460.65,573 459.56,573.17 458.83,573.38C458.1,573.59 455.32,573.39 452.65,572.95ZM465.69,568.35C464.38,567.05 465.01,566 467.08,566C468.25,566 468.99,566.52 468.77,567.19C468.28,568.65 466.61,569.28 465.69,568.35ZM452.19,566.15C450.92,565.79 449.91,565.16 449.94,564.75C449.97,564.34 450,563.52 450,562.93C450,562.35 450.79,562.09 451.75,562.37C452.71,562.65 455.41,563.38 457.75,563.98C460.09,564.58 462,565.51 462,566.04C462,567.1 455.81,567.17 452.19,566.15ZM466,560C464.79,559.22 464.93,559.03 466.75,559.02C467.99,559.01 469,559.45 469,560C469,561.25 467.94,561.25 466,560ZM453.75,559.28C451.83,558.99 451,558.28 451,556.91C451,554.88 451.02,554.88 458.93,556.97C460.27,557.32 461.55,558.15 461.77,558.8C462.17,560 459.54,560.16 453.75,559.28ZM491.5,557C495.92,555.87 498,555.87 498,557C498,557.55 495.86,557.95 493.25,557.88C489.01,557.78 488.82,557.68 491.5,557ZM453.75,552.28C451.81,551.99 451,551.28 451,549.87C451,548.43 451.5,548.01 452.75,548.37C453.71,548.65 456.41,549.38 458.75,549.98C466.57,552 462.93,553.67 453.75,552.28ZM466.75,552.34C467.44,552.06 468.56,552.06 469.25,552.34C469.94,552.62 469.38,552.84 468,552.84C466.62,552.84 466.06,552.62 466.75,552.34ZM460,546.45C459.18,546.28 456.86,545.87 454.86,545.54C452.35,545.13 451.06,544.33 450.69,542.93C450.29,541.4 450.56,541.04 451.83,541.41C452.75,541.68 454.85,542.19 456.5,542.55C462.18,543.76 463,544.14 463,545.57C463,547 462.83,547.05 460,546.45ZM467.5,546C467.16,545.45 467.58,545 468.44,545C469.3,545 470,545.45 470,546C470,546.55 469.58,547 469.06,547C468.54,547 467.84,546.55 467.5,546ZM462,539.34C450.89,538.25 450,537.97 450,535.58C450,533.07 449.6,533.02 462.57,537.05C464.26,537.57 466.4,538 467.32,538C468.24,538 469,538.45 469,539C469,539.55 468.21,539.93 467.25,539.84C466.29,539.75 463.93,539.53 462,539.34ZM448.99,530.52C448.98,529.96 448.69,528.43 448.34,527.13C447.72,524.84 447.78,524.81 450.1,526.32C451.42,527.17 455.65,528.41 459.5,529.06C470.76,530.96 470.65,532.07 459.25,531.79C453.15,531.64 448.99,531.12 448.99,530.52ZM528,514.01C531.58,513.33 534.95,512.3 535.5,511.74C536.17,511.04 536.13,510.91 535.37,511.34C534.75,511.68 524.59,512.46 512.79,513.05C484.13,514.51 449.27,512.31 439.61,508.44C438.23,507.88 437.85,508.06 438.19,509.08C438.45,509.84 440.65,510.84 443.08,511.3C467.84,515.93 467.78,515.93 495,515.59C510.53,515.39 524.19,514.74 528,514.01ZM561.65,509.03C566.34,507.62 561.26,507.96 554,509.54L547.5,510.95L553.15,510.42C556.25,510.12 560.08,509.5 561.65,509.03ZM522.5,508.14C525.25,507.51 517.77,507.19 498.5,507.11C483.1,507.04 466,506.76 460.5,506.49C448.96,505.9 449.44,506.65 461.83,508.55C471.49,510.03 515.45,509.73 522.5,508.14ZM535,499.98C548.43,498.94 566.25,496.03 574.75,493.49C580.19,491.87 583.53,488.54 582.48,485.8C580.65,481.05 564.68,476.78 542.5,475.11C518.15,473.29 513.57,473.29 513.22,475.11C512.86,476.98 518.82,477.96 531,478.02C539.35,478.06 573.86,482.18 575.78,483.36C578.01,484.74 577.05,485.82 572.25,487.37C559.01,491.62 547.25,492.5 503.5,492.5C475.63,492.5 457.97,492.07 451,491.23C433.78,489.14 425,486.88 425,484.54C425,481.69 444.8,478.33 467.15,477.37C481.81,476.74 485.58,475.93 481.32,474.29C479.01,473.4 450.5,475.59 439.5,477.5C429.26,479.27 420.42,483.09 419.45,486.17C417.51,492.28 434.02,497.58 463.5,500.3C472.39,501.11 523.31,500.89 535,499.98ZM524.5,496.91C528.9,496.46 537.55,495.59 543.72,494.98C556.07,493.75 575.44,489.71 577.62,487.9C578.66,487.04 579,487.04 579,487.93C579,490.99 559.47,495.4 539,496.97C522.79,498.2 512.37,498.16 524.5,496.91ZM443.5,495.05C430.53,492.73 425.51,491.32 424.05,489.57C423.15,488.47 423.99,488.56 427.69,489.93C431.96,491.52 437.58,492.73 455.5,495.89C459.69,496.63 459.93,496.78 457,496.81C455.07,496.82 449,496.03 443.5,495.05ZM540,485.97C535.88,485.58 528,485.28 522.5,485.29C514.18,485.32 513.43,485.44 518,486C521.02,486.37 528.9,486.67 535.5,486.68C546.59,486.68 546.93,486.62 540,485.97ZM502.56,469.9C504.55,462.53 507.27,452.7 508.61,448.07C513.52,431.03 517.73,400.33 516.02,394C515.57,392.35 515.1,394.65 514.64,400.74C513.77,412.12 509.75,434.97 506.46,447.29C500.6,469.21 497,483.59 497.03,484.99C497.1,488.26 499,483.06 502.56,469.9ZM549.5,482.46C539.64,481.21 511.16,480.5 512.2,481.53C512.97,482.3 536.63,483.71 549,483.72L559.5,483.74L549.5,482.46ZM505.37,470.96C513.61,443.65 517.26,426.21 518.31,409C518.9,399.31 518.86,399.47 514.42,426.5C513.06,434.75 509.49,450.5 506.48,461.5C503.47,472.5 501.01,481.91 501.01,482.42C500.99,484.66 502.14,481.64 505.37,470.96ZM488.6,473.25C484.82,465.87 481.16,461.58 472.5,454.38C462.06,445.7 447.95,436.28 430,426.02C401.04,409.46 380.5,394.55 367.01,380.29C362.05,375.06 358,370.41 358,369.97C358,369.53 356.09,367.67 353.75,365.84C348.15,361.46 366.82,382.19 376.07,390.62C388.65,402.1 404.71,413.3 428.52,427.22C445.44,437.11 459.24,446.31 469.85,454.75C481.4,463.95 483.14,465.76 487.1,472.67C490.88,479.28 491.89,479.67 488.6,473.25ZM529.5,449.18C544,438.29 556.07,431.87 572.4,426.35C592.65,419.52 602.71,418.18 638.34,417.58C652.55,417.35 664.44,416.89 664.76,416.58C665.07,416.26 653.9,416.01 639.92,416.03C596.66,416.08 575.69,420.02 552.24,432.5C540.91,438.53 528.69,446.67 521.5,453C514.98,458.73 511.49,463.24 517.07,458.72C518.96,457.19 524.55,452.9 529.5,449.18ZM447.25,455.26C443.26,455.07 436.74,455.07 432.75,455.26C428.76,455.45 432.02,455.6 440,455.6C447.98,455.6 451.24,455.45 447.25,455.26ZM610.45,453.16C609.93,452.7 606.36,451.77 602.53,451.1C598.69,450.42 588.01,447.42 578.8,444.43C569.58,441.45 561.47,439.01 560.77,439.03C559.12,439.06 577.86,446.54 585,448.7C590.76,450.44 606.1,453.69 609.45,453.89C610.58,453.95 611,453.65 610.45,453.16ZM445.43,450.03C444.82,449.42 438.4,449.37 427.98,449.88L411.5,450.7L428.95,450.85C440.19,450.95 446.06,450.66 445.43,450.03ZM409.75,449.31C408.79,449.06 407.21,449.06 406.25,449.31C405.29,449.56 406.07,449.77 408,449.77C409.93,449.77 410.71,449.56 409.75,449.31ZM610.45,448.08C609.93,447.58 605.64,446.25 600.92,445.14C596.2,444.03 587.48,441.29 581.54,439.06C575.59,436.83 570.45,435.02 570.11,435.05C568.87,435.14 578.71,439.99 585.5,442.64C597.91,447.48 613.29,450.83 610.45,448.08ZM432.74,445.63C438.38,444.92 443.33,443.98 443.74,443.53C444.16,443.09 440.27,443.01 435.1,443.36C429.92,443.71 418.71,444 410.18,444C394.74,444 391.01,444.94 401.83,446.1C411.41,447.13 422.03,446.96 432.74,445.63ZM625.71,446.38C625.37,446.04 621.08,444.94 616.17,443.93C611.26,442.92 601.56,440.04 594.62,437.52C576.72,431.04 573.28,430.9 588,437.26C599.41,442.2 609.68,445.35 617.5,446.33C622.84,446.99 626.35,447.01 625.71,446.38ZM632,443.08C631.17,442.61 628.92,441.92 627,441.53C622.94,440.72 606.27,435.43 594,431.07C582.05,426.81 578.43,427.14 588.5,431.57C600.88,437.01 609.73,440.04 619,442.03C628.27,444.02 634.54,444.53 632,443.08ZM425,442.14C429.36,441.44 429.26,441.4 421.6,440.71C410.48,439.71 398.22,439.83 397.54,440.94C396.49,442.63 416.42,443.5 425,442.14ZM639.45,441.14C638.93,440.66 635.37,439.51 631.54,438.57C627.71,437.64 619.16,434.81 612.54,432.3C594.57,425.48 592.83,424.89 591.71,425.26C588.13,426.46 610.06,435.12 626.5,439.01C640.13,442.24 640.78,442.35 639.45,441.14ZM471.39,432.84C470.42,429.35 468.57,424.25 467.27,421.5C464.53,415.67 464.63,416.15 469.06,429.72C472.73,440.93 474.18,442.88 471.39,432.84ZM435,438.06C434.18,437.58 424.73,436.68 414,436.06C403.27,435.43 393.71,434.76 392.75,434.56C390.08,433.99 390.66,434.92 393.75,436.14C395.26,436.75 403.7,437.56 412.5,437.96C436.64,439.04 436.68,439.04 435,438.06ZM468.4,436.25C465.46,423.65 456.68,403.02 458.29,412.5C458.78,415.4 468.07,439 468.72,439C468.89,439 468.75,437.76 468.4,436.25ZM633,433.51C628.33,432.22 620.23,429.62 615,427.74C606.1,424.52 596.98,422.31 598.37,423.71C599.6,424.93 612.67,430.19 621.5,433.01C626.97,434.76 632.66,435.88 636,435.87L641.5,435.85L633,433.51ZM453.47,423.78C452.56,419.23 450.55,412.24 449.01,408.26C447.48,404.28 446.63,401.27 447.13,401.58C448.51,402.43 452.27,410.3 457.02,422.27C459.37,428.19 461.48,432.85 461.71,432.62C462.14,432.2 458.1,418.06 455.29,410.12C454.33,407.4 451.31,403.22 447.35,399.12L440.97,392.5L442.94,397.68C444.03,400.53 446.01,405.48 447.36,408.68C449.96,414.87 451.11,418.87 453.07,428.5C453.74,431.8 454.48,433.95 454.72,433.28C454.95,432.61 454.39,428.34 453.47,423.78ZM423.5,431.97C421.3,431.53 411.85,430.84 402.5,430.44C393.15,430.05 384.49,429.34 383.25,428.88C380.36,427.81 380.34,428.58 383.23,430.12C386.67,431.97 395.1,432.74 412,432.75C422.4,432.76 426.18,432.51 423.5,431.97ZM649.85,432.51C649.58,432.25 645.6,431.31 641,430.44C636.4,429.57 630.36,427.98 627.57,426.91C621.06,424.41 610.92,421.75 610.3,422.37C608.89,423.78 628.07,430.98 636,432.02C642.72,432.9 650.51,433.18 649.85,432.51ZM449.5,427.75C447.8,416.98 439.44,390.61 438.01,391.49C437.6,391.75 436.99,393.32 436.65,394.99C436.19,397.3 436.86,399.5 439.44,404.26C441.31,407.69 444.3,415.34 446.09,421.25C447.88,427.16 449.53,432 449.76,432C449.99,432 449.87,430.09 449.5,427.75ZM653.5,427.86C650.2,427.46 643.67,426.24 639,425.15C634.33,424.06 628.25,422.89 625.5,422.54C620.58,421.93 620.55,421.94 623.58,423.34C629.3,425.98 638.33,428.16 646.43,428.85C656.44,429.7 662.17,428.9 653.5,427.86ZM412.1,428.3C423.01,427.48 420.56,426.32 407.5,426.11C396.04,425.93 377.6,424.18 374.43,422.97C370.18,421.36 370.35,422.69 374.64,424.6C378.66,426.38 391.54,428.69 398.6,428.88C400.85,428.95 406.92,428.68 412.1,428.3ZM659,425.51C643.71,422 643.8,422.04 652,422.5C656.12,422.73 661.98,423.17 665,423.47L670.5,424.01L664.03,422.52C657.38,420.99 631.64,420.53 635.5,422C637.34,422.71 644.58,424.24 654.5,426.03C661.54,427.3 665.02,426.9 659,425.51ZM555.08,419.25C557.45,416.09 561.84,411.14 564.83,408.25C570.69,402.59 570.4,400.95 564.47,406.16C559.36,410.65 548.6,425 550.34,425C550.57,425 552.7,422.41 555.08,419.25ZM411,423.09C411,422.58 407.51,421.89 403.25,421.55C387.36,420.29 376.3,418.9 371.02,417.51C368.04,416.72 365.44,416.22 365.26,416.41C364.32,417.35 378.84,422.4 384.26,423.02C393.63,424.08 411,424.13 411,423.09ZM564.07,415.26C568.16,410.46 572.96,405.23 574.75,403.66C577.97,400.82 578.87,399 577.06,399C575.13,399 560.19,416.22 556.89,422.25C555.11,425.5 556.62,424.03 564.07,415.26ZM436.47,417.75C434.87,411.57 424.99,391.81 421.34,387.5L418.8,384.5L419.46,387.39C419.82,388.98 422.08,393.71 424.49,397.89C426.9,402.08 430.75,409.44 433.06,414.25C435.36,419.06 437.38,423 437.53,423C437.69,423 437.21,420.64 436.47,417.75ZM439.9,410.52C436.65,400.7 432.81,394.76 426.55,389.85C423.29,387.3 423.48,387.74 429.52,396.63C431.81,400 435.66,407.41 438.08,413.08C443.36,425.44 444.38,424 439.9,410.52ZM585.05,401.07L590.5,396.64L585.44,402.07C578.67,409.33 572.66,417 573.26,417.6C573.53,417.86 579.89,411.93 587.4,404.4C594.91,396.87 601.33,391 601.67,391.34C602.02,391.68 597.5,396.92 591.65,402.99C582.78,412.16 579.65,416.08 581.25,415.99C582.59,415.91 604.18,393.82 604.94,391.75C605.89,389.17 605.21,388.12 603.63,389.7C603.24,390.09 601.79,390.56 600.41,390.75C591.86,391.89 574.55,405.29 567.13,416.51C564.01,421.22 564.27,421.04 571.71,413.5C576.05,409.1 582.05,403.51 585.05,401.07ZM672.26,420.3C671.03,420.06 668.78,420.05 667.26,420.28C665.74,420.51 666.75,420.71 669.5,420.71C672.25,420.72 673.49,420.53 672.26,420.3ZM404,418.19C404,417.41 366.87,412.79 366.18,413.49C365.23,414.44 370.93,416.23 378.77,417.45C388.56,418.97 404,419.43 404,418.19ZM399,414C399,413.45 398.89,412.98 398.75,412.95C393.37,411.91 370,409.61 370,410.12C370,411.32 376.11,412.96 384.03,413.88C394.69,415.11 399,415.15 399,414ZM421.94,409.75C417.53,398.31 410.53,384.94 407.35,381.86C405.4,379.96 404,379.18 404,379.99C404,380.83 402.81,380.23 400.95,378.45C398.7,376.3 397.7,375.87 397.12,376.8C396.67,377.53 395.59,377.78 394.58,377.39C393.01,376.79 393.06,377.2 395.02,381.11C396.24,383.52 398.22,386.85 399.43,388.5C400.64,390.15 403.55,395.1 405.89,399.5C408.23,403.9 410.87,408.18 411.77,409C413.21,410.33 413.28,410.33 412.37,409C411.8,408.18 410.53,405.25 409.53,402.5C407.19,396.07 402.91,387.55 399.55,382.63C395.73,377.05 396.97,377.19 401.27,382.82C404.44,386.98 407.76,392.89 416.17,409.35C418.64,414.17 419.56,413.59 417.45,408.55C415.07,402.84 416.24,403.38 419.55,409.53C423.3,416.47 424.58,416.59 421.94,409.75ZM425.64,404.88C417.97,386.12 415.99,382.68 413.44,383.66C412.4,384.06 413.04,386.12 416.16,392.34C421.16,402.34 428.13,414.21 428.67,413.67C428.88,413.45 427.52,409.5 425.64,404.88ZM600.1,404.76C609.34,396.17 611.73,392.36 605.17,396.66C601.32,399.19 587.46,414 588.95,414C589.61,414 594.63,409.84 600.1,404.76ZM613.01,405.86C617.13,402.76 623.81,398.5 627.86,396.4C637.03,391.64 635.73,390.84 625.68,395.05C618.59,398.03 602,409.93 602,412.04C602,413.54 605.17,411.77 613.01,405.86ZM611,401.68C615.12,398.75 620.75,395.49 623.5,394.43C628.41,392.53 628.44,392.49 625.31,392.19C623.56,392.02 620.77,392.58 619.11,393.44C617.46,394.3 615.57,395 614.91,395C613.4,395 597,409.85 597,411.22C597,411.79 598.46,411.08 600.25,409.63C602.04,408.19 606.88,404.61 611,401.68ZM617.43,408.12C620.77,405.99 626.69,402.41 630.58,400.17C640.26,394.62 641.77,392.52 633.79,395.72C626.95,398.47 615.63,405.63 611.96,409.54C608.67,413.05 610.44,412.59 617.43,408.12ZM636,407.5C640.12,405.04 644.62,403.04 646,403.06C647.97,403.09 647.31,403.71 642.82,406.03C637.09,408.99 634.78,411.02 637.19,410.98C637.91,410.97 641.59,409.4 645.37,407.48C649.15,405.57 652.97,403.97 653.87,403.93C654.77,403.89 653.58,403 651.22,401.96C648.34,400.68 645.9,400.27 643.72,400.7C638.07,401.83 623.6,412.05 627.75,411.99C628.16,411.98 631.88,409.96 636,407.5ZM629.92,405.75C638.16,400.97 641.13,398 637.67,398C636.36,398 619,409.67 619,410.55C619,411.72 621.57,410.59 629.92,405.75ZM652,408.5C654.71,407.12 657.94,406 659.17,406C660.87,406 661.12,405.72 660.23,404.83C659.34,403.94 657.46,404.29 652.28,406.34C648.55,407.82 644.83,409.46 644,410C640.66,412.16 647.18,410.94 652,408.5ZM657.01,409.93C658.93,409.34 662.75,408.49 665.5,408.05L670.5,407.25L666.19,407.12C661.41,406.99 653.27,408.76 652.42,410.12C651.71,411.27 652.77,411.23 657.01,409.93ZM670.51,409.98C670.93,409.3 669.67,409.18 666.82,409.62C661.11,410.49 660.72,411 665.77,411C668.03,411 670.17,410.54 670.51,409.98ZM676.5,410C676.16,409.45 674.98,409 673.88,409C672.78,409 672.16,409.45 672.5,410C672.84,410.55 674.02,411 675.12,411C676.22,411 676.84,410.55 676.5,410ZM392,409.54C392,408.37 387.74,407.06 379,405.55C373.78,404.65 368.39,403.66 367.01,403.35L364.5,402.78L367,404.63C370.21,407 381.13,409.87 387.25,409.94C389.86,409.97 392,409.79 392,409.54ZM401.6,395.75C399.07,390.58 395.38,384.46 393.4,382.15C389.9,378.06 384.34,374.33 383.3,375.37C382.55,376.12 386.59,381.68 392.47,388C395.29,391.02 399.31,396.34 401.41,399.81C403.5,403.28 405.44,405.9 405.71,405.63C405.97,405.36 404.12,400.91 401.6,395.75ZM384.69,403.57C383.7,402.81 378.75,401.21 373.69,400C368.64,398.8 363.66,397.58 362.62,397.3C361.49,396.99 361,397.19 361.39,397.81C362.48,399.58 378.78,404.53 384.5,404.83C386.4,404.93 386.41,404.87 384.69,403.57ZM396.81,396.87C395.54,394.61 392.48,390.39 390,387.51C387.52,384.63 383.79,380.19 381.7,377.64C379.61,375.09 376.48,372.27 374.75,371.37C372.18,370.04 373.15,371.56 380.01,379.62C384.64,385.05 388.93,389.95 389.55,390.5C390.17,391.05 392.37,393.64 394.46,396.25C396.54,398.86 398.44,401 398.68,401C398.93,401 398.09,399.14 396.81,396.87ZM379.05,398.56C378.4,397.77 376.43,396.84 374.68,396.49C369.75,395.51 358.64,391.85 357.25,390.74C356.41,390.08 356,390.11 356,390.86C356,392.5 362.8,395.66 371.13,397.9C380.16,400.33 380.54,400.36 379.05,398.56ZM409.2,389.56C407.55,386.5 406.59,384.25 407.08,384.55C408.47,385.41 413.31,394.03 412.73,394.6C412.45,394.89 410.86,392.62 409.2,389.56ZM373,393.52C373,392.61 365.5,389.25 359.85,387.63C349.65,384.69 350.44,385.7 362.11,390.51C370.08,393.79 373,394.6 373,393.52ZM387,391.68C387,391.5 385.18,388.92 382.95,385.93C377.1,378.09 368.57,369.38 366.11,368.74C364.8,368.4 368.33,372.77 375.24,380.05C386.11,391.5 387,392.38 387,391.68ZM360.5,384.56C357.75,383.3 354.38,381.94 353,381.53C348.1,380.06 352.64,383.18 358.18,385.1C365.42,387.6 366.58,387.33 360.5,384.56ZM531.53,374.58C530.69,368.16 530,362.17 530,361.28C530,357.97 530.89,360.75 532.46,369C534.7,380.7 536.12,386 537.03,386C537.46,386 538.1,380.71 538.46,374.25C539.24,360.3 539.69,357.5 539.97,365C540.08,368.02 540.49,372.75 540.88,375.5C541.59,380.46 541.6,380.43 542.38,371.84C543.43,360.28 541.89,350.81 536.32,334.6C531.83,321.52 526.99,309.68 526.39,310.28C526.22,310.45 526.73,312.77 527.53,315.43C529.26,321.17 532.28,338.05 531.69,338.65C531.46,338.87 529.81,333.53 528.03,326.78C525.04,315.46 521.16,304.41 522.48,311C524.22,319.65 525.9,331.62 526.33,338.5C526.79,345.93 526.76,346.11 525.87,341C523.9,329.57 520.78,315.44 519.91,314C518.98,312.46 518.99,312.6 521,328.32C522.53,340.26 522.09,345.18 520.35,335.59C518.63,326.06 517.01,322.46 517.64,329.55C519.3,348.24 522.14,361.36 527.07,373.11C528.77,377.18 530.66,381.96 531.25,383.75C531.85,385.54 532.5,386.83 532.7,386.63C532.9,386.43 532.37,381.01 531.53,374.58ZM375.95,383.25C368.95,375.22 361.15,367.68 358.5,366.38C356.65,365.47 359.64,368.94 366.32,375.45C376.68,385.56 381.03,389.08 375.95,383.25ZM529,385.02C529,384.49 527.85,381 526.44,377.27C525.03,373.55 522.27,364.2 520.3,356.5C517.02,343.62 516.69,341.04 516.26,324.25C515.99,314.21 515.44,306 515.03,306C513.99,306 512.77,335.05 513.47,343.5C513.91,348.84 513.8,349.93 513,348.1C512.43,346.79 511.72,345.94 511.44,346.23C510.68,346.98 512.8,359.34 514.58,364.6C517.98,374.59 529,390.21 529,385.02ZM525.45,381.91C524.57,380.21 524.03,378.64 524.25,378.42C524.46,378.2 525.39,379.59 526.3,381.51C528.36,385.83 527.65,386.15 525.45,381.91ZM477.37,374.88C478.87,369.87 480.32,365.98 480.58,366.25C480.85,366.51 480.2,370.62 479.14,375.37C478.08,380.11 477.56,384 477.98,384C478.4,384 480.45,380.17 482.53,375.49C484.62,370.82 486.49,367.15 486.69,367.36C486.89,367.56 485.7,371.24 484.05,375.55C482.39,379.85 481.2,383.53 481.39,383.73C481.85,384.18 491.88,367.42 495.89,359.49C497.56,356.2 498.94,353.9 498.96,354.38C499.03,355.97 490.17,373.96 487,378.66C485.3,381.18 484.1,383.43 484.33,383.66C484.56,383.89 487.54,381.03 490.96,377.3C497.81,369.83 503.75,358.7 506.6,348C508.57,340.63 508.96,313.8 507.18,308.5C506.38,306.13 506.14,308.14 506.03,318C505.95,324.88 505.53,332.3 505.09,334.5C504.56,337.12 504.4,334.53 504.63,327L504.97,315.5L502.63,325.5C499.68,338.1 496.01,350.34 495.37,349.71C495.11,349.44 495.55,346.58 496.37,343.36C497.76,337.87 501.06,321.29 502.49,312.65C502.92,310.05 502.78,309.02 502.06,309.46C501.48,309.82 501,311.14 501,312.4C501,316.47 492.28,347.62 491.39,346.73C491.22,346.56 492.87,339.24 495.04,330.46C497.22,321.68 498.98,313.6 498.96,312.5C498.94,311.4 496.29,318.15 493.06,327.5C483.49,355.22 482.42,355.34 490.62,327.76C493.03,319.66 494.98,312.46 494.95,311.76C494.89,309.99 489.72,320.02 485.93,329.29C484.18,333.57 482.56,336.89 482.32,336.66C482.09,336.43 483.47,331.4 485.39,325.48C489.5,312.8 488.83,312.95 483,326C475.16,343.57 471.86,355.23 471.4,367C470.96,378.4 471.32,378.73 473.45,368.91C474.69,363.21 474.84,362.94 474.87,366.5C474.88,368.7 474.56,373.54 474.15,377.25C473.73,380.96 473.68,384 474.02,384C474.36,384 475.87,379.9 477.37,374.88ZM469.87,357C471.71,349.4 474.52,340.91 478.31,331.45C482.1,321.99 488.62,308.87 489.96,308C490.38,307.73 491.71,305.48 492.91,303L495.09,298.5L492.8,301.5C491.54,303.15 488.25,306.98 485.48,310C476.23,320.11 470.85,328.67 467.34,338.86C464.33,347.6 464.02,349.58 464.01,360.07C464,368.23 464.5,373.24 465.71,377.07L467.42,382.5L468.1,372C468.48,366.23 469.27,359.48 469.87,357ZM546.35,378.71C550.28,369.29 551.02,352.33 548,340.41C546.24,333.45 536.88,312 535.6,312C535.34,312 536.45,315.92 538.07,320.72C539.69,325.51 540.88,329.87 540.7,330.4C540.52,330.94 538.89,326.9 537.08,321.44C533.65,311.08 531.64,306.52 530.11,305.57C529.61,305.26 530.72,309.47 532.57,314.91C540.54,338.41 545.96,366.57 544.55,377.25C543.82,382.81 544.43,383.3 546.35,378.71ZM358,380.46C358,379.7 348.81,375.86 348.26,376.4C348.02,376.65 349.54,377.77 351.66,378.88C355.44,380.88 358,381.52 358,380.46ZM561.42,371.25C559.89,368.64 557.79,365.15 556.74,363.5C555.02,360.78 554.91,360.73 555.54,363C556.64,367 562.33,376 563.75,376C563.99,376 562.94,373.86 561.42,371.25ZM350.14,372.97C348.84,371.89 347.27,371.01 346.64,371.03C346.01,371.05 346.56,371.95 347.86,373.03C349.16,374.11 350.73,374.99 351.36,374.97C351.99,374.95 351.44,374.05 350.14,372.97ZM564.09,369.75C559.99,360.24 555.76,351.9 555.29,352.38C554.73,352.94 564.58,374 565.4,374C565.69,374 565.1,372.09 564.09,369.75ZM566.44,365.74C564.63,360.21 560.29,351 559.5,351C559.24,351 560.63,355.39 562.6,360.75C564.56,366.11 566.45,371.4 566.79,372.5C567.35,374.27 567.46,374.3 567.79,372.74C567.99,371.77 567.38,368.62 566.44,365.74ZM568.93,361.47C567.7,357.34 566.52,354.14 566.31,354.36C566.09,354.57 566.93,358.74 568.17,363.62C569.41,368.51 570.59,371.71 570.79,370.73C570.99,369.76 570.15,365.59 568.93,361.47ZM454.27,356.2C455.9,352.74 456.99,349.65 456.69,349.35C456.12,348.78 447,366.86 447,368.55C447.01,369.97 450.91,363.34 454.27,356.2ZM457,359.37C457,358.43 456.86,357.85 456.69,358.08C456.52,358.31 454.69,360.98 452.63,364L448.87,369.5L452.93,365.29C455.17,362.97 457,360.31 457,359.37ZM346.3,365.6C345.31,364.28 344.32,363.37 344.09,363.59C343.68,363.99 346.97,368 347.7,368C347.92,368 347.28,366.92 346.3,365.6ZM452.9,350.13C454.66,347.17 455.89,344.56 455.65,344.32C454.54,343.21 443.99,362.99 444.1,366C444.12,366.82 445.4,364.8 446.93,361.5C448.47,358.2 451.15,353.08 452.9,350.13ZM599,360C599,359.45 598.55,359 598,359C596.67,359 582.69,345.67 578.68,340.58L575.5,336.53L578.5,338.69C580.15,339.88 584.42,343.84 588,347.5C591.58,351.16 595.8,354.84 597.4,355.68C599.84,356.96 599.31,355.97 594.03,349.35L587.76,341.5L593.88,347.65C597.25,351.03 600,353.53 600,353.21C600,352.62 593.51,341.78 590.3,337C587.38,332.64 590.54,336.23 596.49,344C599.65,348.12 602.7,352.62 603.27,354C604.17,356.15 604.37,356.24 604.75,354.65C604.99,353.64 604.09,350.71 602.75,348.15C592.89,329.29 575.47,309.56 558.57,298.14C547.2,290.46 543.85,288.56 548.98,292.69C557.21,299.34 570.08,311.29 571.14,313.27C571.78,314.45 568.74,312.47 564.4,308.86C560.05,305.25 554.02,300.61 551,298.55L545.5,294.8L550.3,299.04C554.33,302.61 565.42,315.17 571,322.49C573.63,325.94 559.3,312.95 556.14,309.03C554.48,306.95 551.18,303.74 548.82,301.88L544.53,298.5L550.01,305.8C553.03,309.82 557.19,315.32 559.25,318.03C565.83,326.65 563.31,324.41 551.95,311.53C545.87,304.64 540.64,299 540.32,299C540,299 540.92,300.46 542.37,302.25C543.81,304.04 548.71,310.65 553.25,316.96C562.8,330.22 580.19,349.2 586.62,353.39C591.77,356.74 591.79,358.27 586.65,355.09C578.13,349.83 556.89,325.65 539.66,301.6C532.92,292.19 532.15,293.57 538.47,303.73C540.92,307.67 544.92,314.87 547.36,319.72C556.18,337.28 574.21,355.5 580.69,353.4C582.24,352.9 582.28,352.98 581,354C579.7,355.03 579.72,355.12 581.19,354.65C582.11,354.35 583.01,354.54 583.19,355.07C583.47,355.9 596.26,360.92 598.25,360.98C598.66,360.99 599,360.55 599,360ZM447.65,348.31C447.01,347.68 443.99,353.47 444.04,355.2C444.07,355.92 445,354.77 446.12,352.66C447.23,350.54 447.92,348.59 447.65,348.31ZM514.08,352.42C514.13,351.25 514.36,351.01 514.68,351.81C514.97,352.53 514.94,353.4 514.6,353.73C514.27,354.06 514.04,353.47 514.08,352.42ZM607.5,349.75C606.05,340.56 603.68,333.25 600.38,327.82C596.13,320.81 584.92,308.68 576.68,302.19C568.58,295.81 557.05,288 555.71,288C555.13,288 556.78,289.41 559.37,291.12C561.97,292.84 563.89,294.45 563.64,294.69C563.13,295.2 552.32,289.36 549.75,287.18C548.79,286.36 548,285.97 548,286.32C548,286.66 552.16,290.07 557.25,293.89C571.21,304.37 588.26,322.32 597.35,336.11C601.56,342.5 605.5,349.14 606.1,350.86C607.64,355.28 608.3,354.76 607.5,349.75ZM575,349.64C572.52,347.82 569.83,345.48 569,344.45C568.17,343.42 570.31,344.72 573.75,347.35C579.09,351.42 580.86,353.09 579.75,352.98C579.61,352.96 577.48,351.46 575,349.64ZM429.5,347.55C436.84,345.36 452.22,336.2 459.5,329.69C462.99,326.57 469.09,319.4 473.07,313.76C477.04,308.12 481.44,301.93 482.84,300L485.39,296.5L481.12,300.5C478.77,302.7 473.28,308.81 468.91,314.08C463.35,320.79 457.98,325.88 450.98,331.08C440.31,339 426.66,346.97 423.71,346.99C422.72,346.99 425.87,344.92 430.71,342.37C448.21,333.15 456.89,326.01 470.69,309.48C476.36,302.69 481,296.78 481,296.35C481,295.92 478.52,298.01 475.5,301C472.48,303.99 470,306.11 470,305.71C470,305.31 466.29,307.81 461.75,311.25C450.49,319.8 441.8,325.83 445.5,322.52C447.15,321.04 454.24,314.86 461.25,308.77C468.26,302.69 474,297.55 474,297.36C474,296.93 462.52,303.95 454.03,309.58C450.44,311.96 443.68,317.27 439.02,321.39C434.36,325.51 430.31,328.64 430.02,328.35C429.73,328.07 430.85,326.7 432.5,325.32C434.15,323.94 438.43,320.23 442,317.07C449.32,310.59 462.64,300.88 471.48,295.56C474.72,293.6 477.01,292 476.57,292C475.84,292 458.38,301.01 449,306.22L445.5,308.17L448.48,305.62C450.11,304.21 455.06,301.02 459.48,298.53C463.89,296.04 466.89,294 466.14,294C462.99,294 443.98,304.28 437.54,309.46C429.12,316.23 415.97,330.64 411.95,337.5C408.76,342.95 407.84,346.38 410.88,341.5C411.91,339.85 414.22,337.15 416.02,335.5C419.26,332.54 419.25,332.58 415.15,338.7C412.87,342.1 411,345.18 411,345.54C411,345.9 413.7,343.86 417,341C423.49,335.38 425.27,335.42 419.42,341.05C417.45,342.95 415.39,345.31 414.85,346.31C413.91,348.04 414.01,348.05 417.09,346.46C418.86,345.54 423.28,342.9 426.9,340.58C436.7,334.34 436.74,334.32 435.2,336.23C434.48,337.11 431,339.72 427.46,342.03C423.9,344.35 421.31,346.69 421.66,347.27C422.02,347.84 421.86,348.03 421.3,347.69C420.75,347.34 419.44,347.76 418.4,348.6C416.63,350.03 416.78,350.1 420.5,349.59C422.7,349.29 426.75,348.38 429.5,347.55ZM503.08,340.42C503.13,339.25 503.36,339.01 503.68,339.81C503.97,340.53 503.94,341.4 503.6,341.73C503.27,342.06 503.04,341.47 503.08,340.42ZM409.92,335.64C413.94,328.62 433.35,309.86 443.55,303.15C447.92,300.27 456.59,295.41 462.8,292.34C469.02,289.28 473.9,286.57 473.66,286.33C472.75,285.41 446.52,295.12 438.86,299.2C426.81,305.62 416.11,316.93 409.26,330.5C407.21,334.56 405.42,341 406.35,341C406.63,341 408.23,338.59 409.92,335.64ZM599.99,334.82C598.22,331.34 596,327.38 595.05,326C592.64,322.51 591.81,321 592.3,321C593.71,321 604.56,339.77 603.67,340.66C603.41,340.92 601.75,338.29 599.99,334.82ZM629.5,328C629.16,327.45 628.26,327 627.51,327C626.75,327 620.81,324.3 614.32,321C607.82,317.7 600.92,314.57 599,314.04L595.5,313.07L598.41,315.46C606.18,321.81 632.15,332.28 629.5,328ZM612.12,325.44C609.16,324.1 606.46,323.04 606.12,323.08C605.15,323.2 615.37,327.98 616.5,327.93C617.05,327.9 615.08,326.79 612.12,325.44ZM631,325.53C631,324.65 616.53,315.29 610.36,312.18C602.59,308.26 586.92,301.75 586.43,302.24C586.22,302.44 589.31,304.35 593.28,306.48C597.25,308.61 604.1,312.57 608.5,315.28C612.9,318 619.65,321.49 623.5,323.06C631.54,326.32 631,326.14 631,325.53ZM629,318.83C621.02,311.46 613.68,306.95 600.32,301.22C588.43,296.12 577.77,292.77 586.88,297C593.93,300.26 618.93,314.57 626,319.38C634.63,325.25 635.74,325.05 629,318.83ZM633.13,317.84C630.8,311.72 616.94,301.36 606.26,297.75C599.93,295.62 598.27,296.06 603.16,298.58C609.77,301.98 625.58,312.81 629.5,316.62C631.7,318.75 633.63,320.45 633.78,320.39C633.93,320.33 633.64,319.18 633.13,317.84ZM456,319.68C456,319.47 459.26,316.45 463.25,312.97L470.5,306.65L465,312.4C460.15,317.47 456,320.83 456,319.68ZM409.75,315.49C412.64,314.18 415,312.94 415,312.74C415,312.37 399.38,317.49 397.5,318.48C394.27,320.17 405.41,317.45 409.75,315.49ZM427,299C427.48,299 428.15,298.57 428.47,298.04C429.74,295.99 404.57,305.8 397.34,310.18C387.58,316.1 391.8,314.92 409.06,306.92C418.44,302.56 426.51,299 427,299ZM403.83,313.06C410.62,310.77 425.04,304 423.12,304C421.55,304 396,313.97 396,314.58C396,315.39 398.12,314.98 403.83,313.06ZM580.92,309.25L578.5,306.5L581.25,308.92C582.76,310.26 584,311.5 584,311.67C584,312.46 583.19,311.82 580.92,309.25ZM411.78,301.57C419.73,298.32 420.8,296.86 413.38,299.39C406.99,301.56 405.3,301.55 407.13,299.34C408.73,297.39 401.2,301.95 395.75,306.23C390.22,310.56 391.17,311.07 398.3,307.58C401.76,305.89 407.83,303.18 411.78,301.57ZM564.87,296.25C563.63,294.66 563.66,294.63 565.25,295.87C566.21,296.63 567,297.41 567,297.62C567,298.45 566.18,297.92 564.87,296.25ZM511,292.44C511,291.65 510.55,291 510,291C509.45,291 509,291.93 509,293.06C509,294.19 509.45,294.84 510,294.5C510.55,294.16 511,293.23 511,292.44ZM518.1,291.7C516.82,290.42 515.52,291.41 516.47,292.95C516.84,293.55 517.6,293.75 518.16,293.4C518.84,292.98 518.82,292.42 518.1,291.7ZM503.5,291.17C503.5,289.36 501.54,289.69 501.15,291.56C500.94,292.61 501.31,293.06 502.15,292.78C502.89,292.54 503.5,291.81 503.5,291.17ZM525,290C525,287.89 523.55,287.31 522.5,289C521.77,290.18 522.72,292 524.06,292C524.58,292 525,291.1 525,290ZM446.26,287.53C456.6,284.96 473.12,278.87 471.34,278.28C470.71,278.07 465.54,279.04 459.85,280.43C446.33,283.73 438.22,284.82 421.36,285.6C406.49,286.29 391.53,284.52 386.16,281.45C384.18,280.32 384.04,280.07 385.6,280.48C391.11,281.94 404.66,283.92 413.12,284.5C420.75,285.03 425.2,284.68 437,282.62C449.45,280.45 469.65,275.26 466.43,275.07C465.84,275.03 460.89,275.65 455.43,276.45C441.96,278.41 420,279.55 420,278.29C420,277.74 424.8,277.03 430.75,276.69C436.66,276.35 445.1,275.49 449.5,274.78L457.5,273.5L447,273C437.15,272.53 436.84,272.45 442,271.76C445.02,271.35 449.98,271.01 453,270.99C456.02,270.98 459.11,270.58 459.85,270.11C460.67,269.59 455.31,268.93 446.35,268.45C430.43,267.59 430.51,266.38 446.5,266.05C459.71,265.79 454.16,264.08 435.74,262.75C427.63,262.16 421.13,261.54 421.3,261.37C422.26,260.41 462.13,260.87 466.38,261.9C469.07,262.54 471.46,262.88 471.69,262.64C471.93,262.4 466.36,260.85 459.31,259.19C452.26,257.53 444.02,255.57 441,254.83C437.49,253.98 429.72,253.53 419.5,253.59C404.85,253.67 402.88,253.9 396.11,256.33C388.16,259.18 381.13,262.93 379.05,265.44C377.28,267.57 378.26,267.4 383.78,264.63C390.27,261.37 399.9,259.15 410,258.59L418.5,258.11L412,259.1C396.51,261.44 378.51,266.85 380.28,268.62C380.54,268.88 384.53,268.6 389.13,268.01C405.83,265.84 407.24,266.1 394,268.92C386.57,270.49 380.27,271.86 380,271.96C379.73,272.06 380.4,272.53 381.5,273L383.5,273.86L381.5,274.04C377.28,274.44 387.91,275.89 396,276.03C400.68,276.11 406.75,276.53 409.5,276.95C413.25,277.54 410.39,277.81 398,278.04C388.93,278.22 380.71,278.35 379.75,278.35C376.82,278.34 377.77,279.78 382.54,282.57C388.39,286 397.68,288.87 406.5,289.98C417.15,291.31 435.61,290.17 446.26,287.53ZM624.33,289.51C633.99,288.05 640.82,285.74 645.25,282.43C647.19,280.99 647.22,280.86 645.5,281.51C637.77,284.44 627.31,286.12 615,286.42C607.58,286.6 603.75,286.57 606.5,286.35C616.62,285.55 634.64,282.94 639.5,281.58L644.5,280.18L633.5,279.89C618.76,279.5 615.86,279.37 613.5,278.99C610.41,278.5 625.24,277.29 637.5,277.03C649.78,276.77 648.48,275.56 634.75,274.45C630.49,274.11 627,273.52 627,273.14C627,272.76 628.69,272.56 630.75,272.69C643.13,273.51 646.94,273.54 646.2,272.8C645.74,272.34 640.67,270.88 634.93,269.55C623.05,266.8 623.06,266.55 635.03,268.09C649.48,269.96 649.93,269.97 649.36,268.5C648.47,266.17 641.3,262.09 633.27,259.34C626.62,257.06 623.41,256.62 611,256.27C596.18,255.85 589.29,256.85 561,263.5L555.5,264.8L559.68,264.9C561.99,264.95 564.91,264.61 566.18,264.14C567.46,263.66 570.75,263.01 573.5,262.68C577.7,262.19 577.26,262.43 570.71,264.17C561.91,266.51 560.97,267.52 569.01,266C574.49,264.96 595.69,263.68 593,264.55C592.17,264.82 585.2,266.1 577.5,267.4L563.5,269.76L583,269.98C605.67,270.23 614.12,271.68 595,272.03C588.12,272.16 577.33,272.54 571,272.88L559.5,273.5L571,275.27C577.33,276.24 586.5,277.46 591.39,277.99C596.28,278.51 600.51,279.18 600.8,279.47C601.63,280.29 591.53,280.05 580.5,278.98C575,278.44 567.58,277.79 564,277.53L557.5,277.06L563.5,278.64C566.8,279.5 576.48,281.5 585,283.07C598.32,285.52 599.38,285.83 592.5,285.33C588.1,285.01 578.23,283.46 570.56,281.89C562.9,280.33 556.44,279.23 556.21,279.46C555.77,279.89 575.37,286.14 583,287.99C595.62,291.06 610.41,291.61 624.33,289.51ZM498,289C498,288.45 497.55,288 497,288C496.45,288 496,288.45 496,289C496,289.55 496.45,290 497,290C497.55,290 498,289.55 498,289ZM532,287.5C532,286.68 531.33,286 530.5,286C528.94,286 528.52,287.18 529.67,288.33C530.82,289.48 532,289.06 532,287.5ZM512.63,285.48C512.29,284.6 511.54,284.17 510.96,284.53C510.23,284.97 510.28,285.63 511.09,286.61C512.55,288.36 513.47,287.68 512.63,285.48ZM492,286C492,285.45 491.32,285 490.5,285C489.68,285 489,285.45 489,286C489,286.55 489.68,287 490.5,287C491.32,287 492,286.55 492,286ZM506.36,284.5C506.05,283.68 505.38,283 504.89,283C504.4,283 504,283.68 504,284.5C504,285.32 504.66,286 505.47,286C506.36,286 506.71,285.41 506.36,284.5ZM519.5,284C519.5,283.27 518.94,282.48 518.25,282.25C517.51,282 517,282.71 517,284C517,285.29 517.51,286 518.25,285.75C518.94,285.52 519.5,284.73 519.5,284ZM499.77,282.81C499.15,280.96 497,280.65 497,282.42C497,283.29 497.71,284 498.58,284C499.45,284 499.99,283.47 499.77,282.81ZM525,281.8C525,280.18 524.7,279.9 523.89,280.71C523.28,281.32 523.08,282.31 523.45,282.91C524.48,284.59 525,284.21 525,281.8ZM538.44,282.1C538.74,281.61 538.25,280.93 537.35,280.58C535.4,279.83 534.54,280.45 535.46,281.93C536.26,283.23 537.69,283.32 538.44,282.1ZM486,281C486,280.45 485.35,280 484.56,280C483.77,280 482.84,280.45 482.5,281C482.16,281.55 482.81,282 483.94,282C485.07,282 486,281.55 486,281ZM531.09,277.69C530.3,276.9 530,277.16 530,278.63C530,281.28 531.4,282.68 531.84,280.48C532.03,279.55 531.7,278.3 531.09,277.69ZM493.81,278.93C493.61,278.33 493.02,277.85 492.5,277.85C491.98,277.85 491.39,278.33 491.19,278.93C490.99,279.52 491.58,280 492.5,280C493.42,280 494.01,279.52 493.81,278.93ZM512,276.94C512,276.42 511.55,276 511,276C510.45,276 510,276.7 510,277.56C510,278.42 510.45,278.84 511,278.5C511.55,278.16 512,277.46 512,276.94ZM517,277.56C517,276.5 515.08,276.06 514.51,276.98C514.16,277.54 514.58,278 515.44,278C516.3,278 517,277.8 517,277.56ZM502,276C502,275.45 501.55,275 501,275C500.45,275 500,275.45 500,276C500,276.55 500.45,277 501,277C501.55,277 502,276.55 502,276ZM519.6,274.27C518.59,273.25 517.75,274.78 518.58,276.13C519.21,277.15 519.45,277.15 519.79,276.14C520.02,275.44 519.94,274.6 519.6,274.27ZM556.73,276.4C556.4,276.06 555.53,276.03 554.81,276.32C554.01,276.64 554.25,276.87 555.42,276.92C556.47,276.96 557.06,276.73 556.73,276.4ZM541,275.12C541,274.64 540.33,273.68 539.5,273C538.28,271.99 538,272.03 538,273.21C538,274.01 538.3,274.97 538.67,275.33C539.62,276.28 541,276.16 541,275.12ZM487.75,273.75C487.52,273.06 486.73,272.5 486,272.5C485.27,272.5 484.48,273.06 484.25,273.75C484,274.49 484.71,275 486,275C487.29,275 488,274.49 487.75,273.75ZM499,272.5C499,271.68 498.32,271 497.5,271C496.68,271 496,271.68 496,272.5C496,273.32 496.68,274 497.5,274C498.32,274 499,273.32 499,272.5ZM504.1,271.7C502.82,270.42 501.52,271.41 502.47,272.95C502.84,273.55 503.6,273.75 504.16,273.4C504.84,272.98 504.82,272.42 504.1,271.7ZM527,272C527,271.45 526.55,271 526,271C525.45,271 525,271.45 525,272C525,272.55 525.45,273 526,273C526.55,273 527,272.55 527,272ZM534,272C534,271.45 533.8,271 533.56,271C533.32,271 532.84,271.45 532.5,272C532.16,272.55 532.36,273 532.94,273C533.52,273 534,272.55 534,272ZM495.73,269.25C496.09,268.29 497.43,266.68 498.7,265.68C501.36,263.57 501.74,261 499.38,261C498.28,261 497.93,261.61 498.27,262.93C498.61,264.22 498.35,264.69 497.49,264.36C496.78,264.08 495.97,262.99 495.69,261.93C495.07,259.57 493.16,259.41 492.31,261.64C491.93,262.63 492.37,263.79 493.4,264.55C494.49,265.35 494.73,266.05 494.06,266.46C492.7,267.3 492.67,271 494.03,271C494.6,271 495.36,270.21 495.73,269.25ZM502.57,267C503.36,267 504,266.55 504,266C504,265.45 503.43,265 502.74,265C500.97,265 498.77,268.84 499.71,270.29C500.24,271.1 500.6,270.75 500.82,269.25C500.99,268.01 501.78,267 502.57,267ZM546,270.06C546,268.88 544.05,267.62 543.33,268.33C542.62,269.05 543.88,271 545.06,271C545.58,271 546,270.58 546,270.06ZM481.5,269C481.84,268.45 481.42,268 480.56,268C479.7,268 479,268.45 479,269C479,269.55 479.42,270 479.94,270C480.46,270 481.16,269.55 481.5,269ZM528,269C528,268.45 527.52,268 526.94,268C526.36,268 526.16,268.45 526.5,269C526.84,269.55 527.32,270 527.56,270C527.8,270 528,269.55 528,269ZM643.79,267.45C640.06,265.42 630.99,263.2 619.86,261.58C614.01,260.73 612,260.18 614.5,260.11C623.82,259.87 645.74,265.15 647.54,268.06C648.36,269.39 646.94,269.16 643.79,267.45ZM488,266.97C488,265.77 485.18,264.49 484.36,265.31C483.48,266.19 484.97,268 486.56,268C487.35,268 488,267.54 488,266.97ZM531.46,266.07C531.77,265.56 531.58,264.86 531.02,264.51C530.46,264.16 530,264.58 530,265.44C530,267.2 530.6,267.46 531.46,266.07ZM540.35,264.47C539.75,262.9 538.74,262.59 537.68,263.66C536.79,264.54 539,267.12 540.07,266.46C540.53,266.17 540.66,265.28 540.35,264.47ZM509,265C509,264.45 508.8,264 508.56,264C508.32,264 507.84,264.45 507.5,265C507.16,265.55 507.36,266 507.94,266C508.52,266 509,265.55 509,265ZM526.15,264.5C526.15,263.98 525.67,263.39 525.08,263.19C524.48,262.99 524,263.58 524,264.5C524,265.42 524.48,266.01 525.08,265.81C525.67,265.61 526.15,265.02 526.15,264.5ZM462.5,262.97C452.47,260.64 450.9,260.67 458,263.04C461.02,264.05 465.07,264.87 467,264.85C469.44,264.83 468.09,264.27 462.5,262.97ZM481.5,261C481.16,260.45 480.46,260 479.94,260C479.42,260 479,260.45 479,261C479,261.55 479.7,262 480.56,262C481.42,262 481.84,261.55 481.5,261ZM506,261C506,260.45 505.8,260 505.56,260C505.32,260 504.84,260.45 504.5,261C504.16,261.55 504.36,262 504.94,262C505.52,262 506,261.55 506,261ZM528,260.5C528,259.68 527.55,259 527,259C526.45,259 526,259.68 526,260.5C526,261.32 526.45,262 527,262C527.55,262 528,261.32 528,260.5ZM532.59,258.26C531.5,257.16 530.75,258.9 531.53,260.71C532.27,262.42 532.33,262.42 532.74,260.67C532.98,259.67 532.91,258.58 532.59,258.26ZM489,259.56C489,258.77 488.58,257.86 488.07,257.54C486.88,256.81 485.68,258.68 486.5,260C487.42,261.49 489,261.21 489,259.56ZM498.28,258.25C498.03,255.9 501.96,254.32 503.17,256.28C503.74,257.19 504.2,257.2 505.07,256.33C505.95,255.45 505.72,254.62 504.12,252.89C501.51,250.1 501.3,248.06 503.86,250.37C504.88,251.29 506.39,251.79 507.23,251.47C508.11,251.13 509,251.56 509.36,252.51C509.71,253.4 510.44,253.85 510.99,253.5C512.55,252.54 512.19,251.19 510.25,250.73C508.87,250.4 509.08,250.08 511.25,249.18C512.76,248.56 514,247.52 514,246.87C514,246.14 514.69,246.32 515.83,247.35C518.15,249.45 519.62,249.45 520.43,247.33C521.63,244.2 519.93,243.76 507.36,243.97C505.64,244 503.63,244.74 502.91,245.61C502.18,246.49 500.55,247.6 499.29,248.08C498,248.57 497,249.79 497,250.87C497,251.92 496.32,253.05 495.5,253.36C493.7,254.05 493.52,258.12 495.21,259.81C496.91,261.51 498.54,260.67 498.28,258.25ZM545,258.94C545,258.42 544.33,258 543.5,258C541.95,258 541.51,259.18 542.64,260.31C543.44,261.11 545,260.2 545,258.94ZM447.75,259.34C448.44,259.06 449.56,259.06 450.25,259.34C450.94,259.62 450.38,259.84 449,259.84C447.62,259.84 447.06,259.62 447.75,259.34ZM503,258.42C503,256.65 500.85,256.96 500.23,258.81C500.01,259.47 500.55,260 501.42,260C502.29,260 503,259.29 503,258.42ZM523.6,257.27C522.59,256.25 521.75,257.78 522.58,259.13C523.21,260.15 523.45,260.15 523.79,259.14C524.02,258.44 523.94,257.6 523.6,257.27ZM442.81,258.32C443.53,258.03 444.4,258.06 444.73,258.4C445.06,258.73 444.47,258.96 443.42,258.92C442.25,258.87 442.01,258.64 442.81,258.32ZM538.36,256.5C538.68,255.68 538.5,255 537.97,255C537.44,255 537,255.68 537,256.5C537,257.32 537.18,258 537.39,258C537.61,258 538.05,257.32 538.36,256.5ZM515,256C515,255.45 514.55,255 514,255C513.45,255 513,255.45 513,256C513,256.55 513.45,257 514,257C514.55,257 515,256.55 515,256ZM529,255.57C529,254.01 525.27,252.4 524.18,253.49C523.49,254.18 526.72,257 528.19,257C528.64,257 529,256.36 529,255.57ZM572.25,254.01C586.19,251.65 593.71,249.28 604.5,243.85C618.42,236.83 626.24,229.74 631.1,219.73C632.84,216.16 633.12,214.72 632.25,213.85C631.37,212.97 630.29,213.31 627.8,215.2C624.13,217.99 616,222.34 616,221.51C616,221.21 618.36,219.42 621.25,217.51C628.89,212.48 632.38,209.35 631.18,208.61C630.62,208.26 625.84,209.52 620.57,211.4C615.3,213.28 611.25,214.41 611.56,213.9C612.41,212.53 617.66,209.99 624.97,207.43C630.72,205.42 631.1,205.14 628.15,205.07C620.26,204.9 592.55,217.31 577.86,227.6C568.81,233.94 569.7,234.33 579.36,228.26C583.31,225.78 592,221.78 592,222.44C592,222.91 572.99,235.07 562.27,241.47C557.74,244.16 554.22,246.55 554.43,246.76C554.64,246.98 562.76,243.02 572.46,237.96C582.17,232.91 590.3,228.97 590.54,229.2C591.07,229.74 575.79,239.55 566.7,244.52C562.96,246.57 560.12,248.45 560.38,248.71C560.63,248.97 563.47,248.04 566.67,246.64C569.88,245.24 576.73,242.49 581.9,240.52C587.07,238.56 594.05,235.32 597.4,233.32C604.94,228.82 605,228.79 605,229.3C605,231.18 578.43,245.84 570.25,248.47C567.36,249.4 565,250.39 565,250.66C565,251.57 571.38,249.93 583.5,245.9C600.02,240.41 600.25,240.33 602.5,239.57C603.6,239.2 601.58,240.44 598,242.32C589.69,246.71 575.47,251.56 566.5,253.06C562.65,253.7 559.07,254.63 558.55,255.11C557.18,256.39 558.97,256.25 572.25,254.01ZM485,253.97C485,252.77 482.18,251.49 481.36,252.31C480.48,253.19 481.97,255 483.56,255C484.35,255 485,254.54 485,253.97ZM462.92,252.61C462.69,252.4 458.47,250.56 453.54,248.53C448.61,246.5 443.43,244.04 442.04,243.08C440.64,242.11 435.9,239.37 431.5,236.98C425.13,233.53 420.7,229.87 409.75,219.02C402.19,211.53 396,205.81 396,206.31C396,206.81 397.46,209.98 399.25,213.36C405.7,225.55 423.87,240.61 439.12,246.4C446.82,249.32 464.27,253.88 462.92,252.61ZM463.5,248.68C459.1,246.37 453.99,243.58 452.14,242.48C446.3,239.04 433.87,229.8 434.38,229.29C434.65,229.02 438.84,231.23 443.68,234.21C451.53,239.03 475.33,251.87 470.62,248.75C469.59,248.06 462.39,243.3 454.62,238.17C439.64,228.26 437.94,227 439.66,227C440.25,227 446.48,230.61 453.52,235.01C460.55,239.42 466.5,242.83 466.73,242.6C466.97,242.37 464.76,240.37 461.83,238.16C458.9,235.94 452.05,230.79 446.61,226.7C441.17,222.61 428.74,214.7 418.99,209.13C402.05,199.46 398.14,197.54 400.8,200.2C402.53,201.93 402.28,203.48 400.5,202C399.38,201.07 399,201.06 399,201.94C399,202.59 398.55,202.84 398,202.5C395.82,201.15 397.26,203.48 402.86,210.33C415.68,226.01 425.89,233.07 454.5,246.04C471.6,253.79 475.19,254.84 463.5,248.68ZM527.06,251.81C529.36,253.24 530,253.3 530,252.08C530,251.15 523.89,247 522.52,247C522.12,247 522.05,247.68 522.36,248.5C522.78,249.58 522.25,250 520.47,250C519.11,250 518,250.41 518,250.92C518,252.41 520.34,252.77 522.82,251.65C524.5,250.9 525.68,250.95 527.06,251.81ZM544,252C544,251.45 543.33,251 542.5,251C541.67,251 541,251.45 541,252C541,252.55 541.67,253 542.5,253C543.33,253 544,252.55 544,252ZM494.6,249.27C493.59,248.25 492.75,249.78 493.58,251.13C494.21,252.15 494.45,252.15 494.79,251.14C495.02,250.44 494.94,249.6 494.6,249.27ZM517,250.97C517,249.77 514.18,248.49 513.36,249.31C512.48,250.19 513.97,252 515.56,252C516.35,252 517,251.54 517,250.97ZM534.73,250.4C534.4,250.06 533.53,250.03 532.81,250.32C532.01,250.64 532.25,250.87 533.42,250.92C534.47,250.96 535.06,250.73 534.73,250.4ZM488,249.12C488,248.64 487.32,247.68 486.5,247C485.28,245.99 485,246.03 485,247.21C485,248.01 485.3,248.97 485.67,249.33C486.62,250.28 488,250.16 488,249.12ZM505,247.94C505,247.36 505.45,247.16 506,247.5C506.55,247.84 507,248.32 507,248.56C507,248.8 506.55,249 506,249C505.45,249 505,248.52 505,247.94ZM539.38,247.45C539.72,246.56 539.56,246.16 538.99,246.51C538.44,246.84 538,247.54 538,248.06C538,249.5 538.72,249.18 539.38,247.45ZM404.01,244.3C398.79,242.31 392.36,239.36 389.71,237.73C387.06,236.1 384.72,234.95 384.5,235.16C383.45,236.22 395.16,242.78 402.37,245.18C414.1,249.08 415.13,248.52 404.01,244.3ZM631.9,242.4C635.96,240.51 639.06,238.73 638.79,238.45C638.51,238.17 634.05,239.98 628.89,242.46C623.73,244.95 620.62,246.72 622,246.41C623.38,246.1 627.83,244.29 631.9,242.4ZM478,242.84C476.07,241.13 466.71,232.25 457.19,223.12C435.81,202.6 426.75,196.8 411.65,193.93C400.66,191.85 398.78,193.38 408.25,196.7C416.07,199.43 428.35,204.98 427.81,205.53C427.58,205.75 422.92,204.18 417.45,202.04C406.92,197.92 400.29,196.06 403,198C403.82,198.59 408.1,201.14 412.5,203.68C437.44,218.08 450.86,226.7 464.75,237.29C465.44,237.82 466,238.03 466,237.78C466,237.52 460.16,232.26 453.02,226.1C445.89,219.93 439.74,214.39 439.37,213.79C437.95,211.49 449,219.79 460.86,229.93C473.11,240.41 480.04,245.91 481,245.93C481.27,245.94 479.93,244.54 478,242.84ZM415,244.59C415,244.13 403.75,239.38 393.75,235.63C390.04,234.23 387,233.45 387,233.9C387,234.95 399.7,240.79 406.9,243.05C412.64,244.86 415,245.31 415,244.59ZM534.82,242.17C535.19,239.67 533.51,239.22 532.61,241.58C531.66,244.06 531.89,245.2 533.25,244.76C533.94,244.53 534.64,243.37 534.82,242.17ZM494,243.24C494,242.82 493.1,241.92 492,241.23C490.37,240.22 490,240.23 490,241.32C490,242.06 490.3,242.97 490.67,243.33C491.58,244.24 494,244.18 494,243.24ZM555.5,236.67C582.16,221.62 602.44,198.19 604.54,180L605.18,174.5L602.21,180.5C600.57,183.8 596.85,189.88 593.94,194C586.67,204.29 565.64,225.54 553.25,235.13C543.59,242.6 539.67,246.42 545.75,242.43C547.26,241.43 551.65,238.84 555.5,236.67ZM529.33,241.57C530.04,239.74 527.48,237.42 526.5,239C525.68,240.33 526.58,243 527.86,243C528.37,243 529.03,242.36 529.33,241.57ZM499,240C499,238.87 498.33,238 497.46,238C496.24,238 496.15,238.4 497,240C497.59,241.1 498.28,242 498.54,242C498.79,242 499,241.1 499,240ZM635,237.1C638.02,236.03 639.74,235.11 638.8,235.07C636.38,234.97 621.19,239.88 620.51,240.99C619.91,241.96 625.76,240.39 635,237.1ZM504.6,237.55C503.87,234.63 502,234.1 502,236.8C502,238.64 504.01,241.32 504.8,240.53C505.04,240.29 504.95,238.95 504.6,237.55ZM522.4,235.84C521.51,234.39 520,235.97 520.03,238.31C520.06,240.43 520.11,240.44 521.5,238.6C522.29,237.56 522.69,236.31 522.4,235.84ZM575.91,212.38C580.09,208.46 586.04,201.71 589.15,197.38C595.74,188.18 602.61,176 601.21,176C600.67,176 597.3,179.94 593.71,184.75C590.13,189.56 585.7,194.85 583.87,196.5C581.11,198.98 580.87,199.07 582.48,197C583.56,195.62 585.63,193.15 587.1,191.5C589.66,188.61 595.74,180.09 597.44,177C597.9,176.18 594.75,178.88 590.45,183C583.31,189.84 582.96,190.06 586.47,185.5C588.59,182.75 592.11,178.63 594.28,176.34C596.45,174.06 598.07,171.75 597.86,171.21C597.66,170.67 592.34,173.6 586.04,177.72C572.65,186.47 572.81,185.46 586.39,175.5C598.9,166.33 599,165.14 586.92,169.1C577.93,172.05 565.23,180.65 556.41,189.76C548.75,197.67 542.03,209.02 535.6,224.92C531.71,234.53 532.46,234.57 537.31,225C542.6,214.56 548,205 548.6,205C548.84,205 548.14,206.76 547.04,208.91C545.35,212.23 543.18,217.54 539.45,227.5C539.04,228.6 540.06,227.7 541.72,225.5C544.43,221.91 560.73,203 563.28,200.5C565.08,198.73 562.93,202.15 557.09,210.34C554.01,214.65 550.21,220.27 548.63,222.83C546.06,227.02 546.46,226.74 552.63,220C556.41,215.87 561.68,210.25 564.36,207.5C574.95,196.6 561.31,214.37 549.03,227.46L542.5,234.41L548,229.99C551.02,227.56 557.95,221.28 563.38,216.04C577.38,202.52 573.56,208.23 557.5,224.82C550.07,232.49 544,239.07 544,239.43C544,240.31 566.31,221.4 575.91,212.38ZM407.23,236.96C399,233.31 386.58,229.81 388.33,231.63C389.35,232.71 407.94,238.93 410,238.89C410.82,238.87 409.58,238.01 407.23,236.96ZM516,236C516,234.96 515.55,233.84 515,233.5C514.42,233.14 514,234.18 514,236C514,237.82 514.42,238.86 515,238.5C515.55,238.16 516,237.04 516,236ZM509.09,233.69C507.79,232.39 507.61,233.84 508.72,236.67C509.42,238.43 509.45,238.43 509.81,236.64C510.02,235.62 509.7,234.3 509.09,233.69ZM474.15,234.25C473.06,232.74 470.01,229.47 467.39,227C463.19,223.04 463.37,223.37 468.91,229.75C475.33,237.14 477.73,239.2 474.15,234.25ZM635.32,233.36L639.5,231.96L635.13,232.51C632.73,232.81 629.58,233.72 628.13,234.53L625.5,236.01L628.32,235.38C629.86,235.03 633.01,234.12 635.32,233.36ZM483.28,233.75C473.04,220.54 460.95,202.81 457.51,196C455.05,191.12 456.18,192.43 463.31,202.72C469.49,211.62 484.24,230.02 484.8,229.51C484.96,229.36 481.32,223.45 476.71,216.37C472.1,209.29 467.78,202.38 467.11,201C465.02,196.69 472.54,205.72 479.21,215.5C482.58,220.45 484.99,223.6 484.58,222.5C484.16,221.4 482.53,217.05 480.96,212.83C477.25,202.84 472.64,193.73 468.16,187.5C460.65,177.06 448.6,165.84 442.5,163.6C440.79,162.98 440.88,163.28 443.09,165.69C446.01,168.86 450,174.49 450,175.43C450,175.78 447.41,173.18 444.25,169.66C441.09,166.14 438.37,163.58 438.22,163.97C438.06,164.36 440.43,168.65 443.47,173.5C446.51,178.34 449,182.78 449,183.35C449,184 448.69,184.04 448.19,183.45C446.7,181.69 441.82,174.91 438.3,169.69C435.27,165.21 434.88,164.91 435.44,167.5C437.22,175.77 448.26,195.16 457.6,206.41C463.51,213.53 483.19,235 483.81,235C484.05,235 483.81,234.44 483.28,233.75ZM401.5,230.55C397.03,228.63 391,227.71 391,228.95C391,229.53 392.46,230.04 394.25,230.1C396.04,230.15 398.62,230.56 400,231C403.9,232.25 404.82,231.97 401.5,230.55ZM493.47,226.75C491.8,218.82 485.51,200.94 482.33,195.07C475.07,181.68 464.81,170.84 453.92,165.04C450.79,163.37 447.82,162 447.34,162C446.86,162 451.23,166.84 457.06,172.75C472.98,188.89 481.14,202.33 487.02,222.06C489.56,230.61 490.41,230.86 488.44,222.49C487.67,219.2 487.04,216.05 487.04,215.5C487.06,214.09 492.94,227.23 492.97,228.75C492.99,229.44 493.26,230 493.58,230C493.9,230 493.85,228.54 493.47,226.75ZM617,227.38C618.92,225.83 623.15,222.07 626.39,219.03C629.64,215.99 631.81,214.4 631.23,215.5C630,217.82 625.03,222.52 620,226.13C614.81,229.86 612.99,230.61 617,227.38ZM500.97,217.44C499.29,211.97 497.7,205.47 497.44,203C497.1,199.75 497.54,200.71 499.01,206.44C500.13,210.81 501.23,214.56 501.45,214.79C501.68,215.01 501.86,206.26 501.86,195.35C501.85,174.96 503.57,158.3 506.55,149.86C507.36,147.57 507.82,145.49 507.58,145.25C506.71,144.38 501.01,153.35 498.94,158.86C491.6,178.36 492.54,200.83 501.71,224.91C504.64,232.59 504.16,227.77 500.97,217.44ZM468.82,224.24C464.44,219.49 449.4,198.86 443.66,189.72C440.63,184.89 436.88,177.69 435.33,173.72L432.5,166.5L432.2,171.81C431.81,178.6 434.15,186.67 439.08,195.5C443.27,203 450.62,212.48 447.6,206.5C446.77,204.85 445.18,202.15 444.05,200.5C442.93,198.85 442.01,197.07 442.01,196.55C442,196.03 443.28,197.61 444.84,200.05C448.22,205.35 458.31,216.68 465.4,223.14C470.84,228.09 473.03,228.8 468.82,224.24ZM524.54,212.17C525.97,204.84 527.54,195.16 528.02,190.67C528.82,183.18 528.86,183.5 528.44,194.5C528.05,205.01 526.88,213.99 524.54,224.5C523.42,229.54 525.51,225.3 528.97,215.5C533.31,203.24 535,193.71 534.99,181.66C534.97,169.61 533.09,160.83 528.83,152.83C525.52,146.63 524.02,145.74 525.88,151.1C527.66,156.2 527.03,157.88 524.98,153.5L523.11,149.5L523.8,155.5C524.9,164.96 524.5,200.58 523.18,210.5C521.16,225.75 520.97,227.53 521.46,226.5C521.72,225.95 523.1,219.5 524.54,212.17ZM507.57,220.75C506.57,214.5 506.8,181.8 507.86,180.74C508.39,180.21 508.98,186.27 509.31,195.67C509.62,204.38 510.49,214.43 511.25,218L512.63,224.5L512.45,212.5C512.28,201.8 512.33,201.42 512.89,209L513.51,217.5L514.35,209.5C516.75,186.65 516.73,186.68 516.97,206C517.23,226.57 517.67,226.27 520.96,203.26C523.37,186.4 523.56,170.27 521.49,156.54C519.36,142.41 518,142.12 518,155.8C518,162.6 517.61,167 517,167C516.4,167 515.99,162.91 515.98,156.75C515.97,143.81 514.95,141.92 512.47,150.22C508.11,164.85 508.2,164.61 508.16,162C508.13,160.62 508.94,156.35 509.95,152.5C510.96,148.65 511.68,145.38 511.54,145.23C510.63,144.24 505.95,157.92 504.94,164.5C502.73,178.97 503.54,207.29 506.6,222.25C507.5,226.67 508.32,225.41 507.57,220.75ZM413.99,217.37C407.65,213.18 401.29,207.39 399.84,204.5C399.29,203.4 400.34,204.15 402.17,206.16C404,208.17 408.76,212.15 412.75,214.99C419.04,219.48 420.81,221 419.74,221C419.59,221 417,219.37 413.99,217.37ZM544.13,218.5C547.01,211.74 559.41,194.99 567.08,187.5L575.26,179.5L567.56,188.5C563.32,193.45 556.44,202.45 552.27,208.5C543.49,221.23 542.37,222.61 544.13,218.5ZM594,215C596.48,213.35 598.95,212.02 599.5,212.04C600.05,212.06 599.22,212.77 597.66,213.62C593.81,215.71 595.01,216.56 598.94,214.53C600.76,213.59 601.78,212.45 601.38,211.8C600.99,211.18 601.14,210.97 601.71,211.32C602.27,211.67 604.48,211.1 606.62,210.07C612.89,207.04 622.19,204.01 625.47,203.92L628.5,203.84L625.6,202.79C623.51,202.03 620.73,202.08 615.6,202.99C604.97,204.87 599.1,207.46 593,212.96C586.8,218.54 587.26,219.48 594,215ZM556.15,171.55C559.93,163.32 562.88,156.13 562.69,155.57C561.91,153.24 547.1,184.08 541.36,200C539.64,204.74 550.33,184.2 556.15,171.55ZM558.97,155.57C558.92,153.38 549.89,168.8 546.49,176.89C540.05,192.21 541.85,190.71 550.48,173.57C555.17,164.25 558.99,156.15 558.97,155.57ZM481,179.97C479.95,176.41 478.12,169.77 476.93,165.21C475.73,160.64 474.55,157.11 474.3,157.36C473.51,158.16 477.99,177.11 480.17,182.18C481.33,184.86 482.41,186.92 482.59,186.75C482.76,186.58 482.04,183.52 481,179.97ZM555.82,181.25C559.03,176.22 564.03,163.87 563.96,161.13C563.94,160.14 563.27,160.68 562.28,162.5C560.47,165.81 552.08,186 552.52,186C552.67,186 554.16,183.86 555.82,181.25ZM484.11,175.85C481.67,165.73 477.18,152.73 477.07,155.5C477.03,156.6 478.8,163.46 481,170.75C483.2,178.04 485,184.31 485,184.67C485,185.04 485.25,185.08 485.56,184.77C485.87,184.46 485.22,180.45 484.11,175.85ZM546.56,171.75C549.18,167.21 552.18,161.93 553.24,160C555.15,156.53 555.13,156.54 551.11,160.85C547.33,164.9 543.03,172.48 541.51,177.75C540.35,181.78 541.72,180.15 546.56,171.75ZM576,179.62C576,179.41 576.79,178.63 577.75,177.87C579.34,176.63 579.37,176.66 578.13,178.25C576.82,179.92 576,180.45 576,179.62ZM487.36,173.75C486.6,168.84 481.26,154.28 479.93,153.45C479.43,153.15 479.21,153.48 479.43,154.2C479.66,154.91 480.82,158.65 482.01,162.5C484.78,171.43 487.17,178 487.65,178C487.85,178 487.73,176.09 487.36,173.75ZM581.07,175.41C582.68,173.48 590.94,168.6 591.56,169.22C591.81,169.48 589.27,171.32 585.91,173.31C582.56,175.31 580.38,176.25 581.07,175.41ZM474.9,171.05C474.36,168.63 473.51,163.47 473.02,159.58L472.13,152.5L472.41,161.5C472.57,166.45 473.29,171.74 474.01,173.25C475.8,177 476.08,176.3 474.9,171.05ZM564.83,173.25C566.57,168.78 567.99,162.68 567.93,160C567.86,157.38 567.39,158.57 563.7,170.75C562.06,176.17 562.93,178.12 564.83,173.25ZM486.4,160.56C482.76,153.14 482.3,154.05 485.75,161.84C487.26,165.25 488.63,167.61 488.81,167.08C488.98,166.56 487.9,163.62 486.4,160.56Z"/>
</svg>
