<?xml version="1.0" encoding="UTF-8" standalone="no"?>
<!DOCTYPE svg PUBLIC "-//W3C//DTD SVG 1.1//EN" "http://www.w3.org/Graphics/SVG/1.1/DTD/svg11.dtd">
<svg width="100%" height="100%" viewBox="0 0 1024 1024" version="1.1" xmlns="http://www.w3.org/2000/svg" xmlns:xlink="http://www.w3.org/1999/xlink" xml:space="preserve" xmlns:serif="http://www.serif.com/" style="fill-rule:evenodd;clip-rule:evenodd;stroke-linejoin:round;stroke-miterlimit:2;">
    <path d="M509.54,938.2C509.37,938.04 422.67,937.71 316.87,937.46C130.94,937.04 79.48,936.53 77.18,935.11C76.58,934.74 75.79,932.55 75.42,930.24C74.8,926.35 74.94,925.97 77.41,925.03C79.05,924.41 95.63,924.01 120.29,924C159.23,923.98 217.2,923.13 217.76,922.58C217.91,922.43 215.27,920.6 211.9,918.52C199.36,910.78 186.9,895.98 182,883C180.13,878.05 179.59,877.67 175.57,878.42C172.53,878.99 172,879.49 171.98,881.8C171.95,887.6 174.07,887.38 126.34,886.66C102.23,886.29 80.75,885.57 78.6,885.07C74.09,884 73.04,882.72 73.02,878.28C73,875.55 73.82,874.45 78.41,870.98C81.39,868.73 84.09,866.2 84.41,865.36C85.44,862.7 85.05,856.12 83.46,849.13C82.04,842.9 81.66,842.28 78.55,841.15C76.2,840.3 74.84,838.98 74.09,836.82C72.88,833.35 72.61,809.11 73.77,807.43C74.17,806.85 76.53,804.99 79,803.3C81.47,801.61 84.22,799.39 85.09,798.37C87.7,795.31 93.01,780.79 93.01,776.75C93,773.32 93.51,772.62 99.01,768.57C126.96,748 184.2,733.4 291.5,719.49C317.47,716.12 317.45,716.13 321.79,714.33C323.83,713.48 334.27,707.5 345,701.03C369.78,686.09 412.57,661.83 425.25,655.53C430.61,652.87 435,650.3 435,649.81C435,646.84 465.1,638.94 485.5,636.56C536.69,630.59 611.12,630.16 655,635.57C674.25,637.95 690.84,640.76 698,642.86C714.01,647.57 758.36,667.15 800.8,688.25L829.09,702.33L848.3,703.64C871.09,705.2 910.92,708.73 919.82,709.98C928.63,711.22 929.35,712.02 928.72,719.88C928.34,724.69 928.65,727.35 929.96,730.41C932.63,736.66 934.02,746.03 934.7,762.38L935.31,777.26L939.82,780.38C942.29,782.1 945.6,784.55 947.16,785.84L950,788.18L949.98,804.34C949.96,813.23 949.56,822.21 949.07,824.29C948.53,826.62 946.41,829.99 943.6,833C938.35,838.61 937.98,840.41 941.5,843.18C944.58,845.6 944.69,848.72 941.89,854.29C936.42,865.16 934.54,866.17 923.85,863.87C920.03,863.06 916.83,863.04 912.05,863.83C908.45,864.43 903.11,865.21 900.2,865.56C895.45,866.13 894.63,866.61 892.34,870.06C888.99,875.12 885.07,876.54 856.86,882.92C838.6,887.04 839.62,887.2 840.46,880.44L841.16,874.88L836.92,875.19C832.7,875.5 832.68,875.52 829.94,882.29C828.43,886.03 825.71,891.54 823.89,894.54C819.42,901.9 808.5,912.63 800.81,917.2C797.34,919.27 793.83,921.39 793,921.93C792.01,922.57 801.02,922.93 819.5,923C834.9,923.06 849.52,923.14 852,923.19C854.48,923.23 870.23,923.27 887,923.27C917.79,923.28 936.72,923.47 940.63,923.81C943.32,924.05 944.15,927.73 942.44,931.8L941.2,934.76L925.35,935.32C916.63,935.62 906.8,935.86 903.5,935.86C879.11,935.81 675.95,937.05 623.5,937.56C536.35,938.41 509.89,938.56 509.54,938.2ZM602.5,923.46C625.6,923.1 647.88,922.92 652,923.05C660.68,923.34 666.63,923.33 707.79,923.01L738.08,922.78L730.79,918.48C716.84,910.25 705.85,897.78 700.6,884.23C699.38,881.08 697.84,878.54 697.19,878.6C696.54,878.66 694.89,878.77 693.53,878.85C691.63,878.96 690.86,879.76 690.21,882.25L689.36,885.5L667.93,885.13C656.14,884.92 573.83,884.7 485,884.63L323.5,884.5L323.19,881.25C322.88,878.08 322.75,878 318.09,878C313.44,878 313.29,878.1 312.18,881.75C310.11,888.61 302.06,900.91 295.48,907.27C291.93,910.7 285.08,915.91 280.26,918.85L271.5,924.19L279.5,923.59C283.9,923.27 304.15,923 324.5,923.01C466.6,923.07 529.41,923.34 542,923.94C549.98,924.32 557.4,924.51 558.5,924.37C559.6,924.23 579.4,923.82 602.5,923.46ZM259.02,899.4C270.73,895.92 280.87,887.09 286.71,875.28C289.92,868.78 290.45,866.68 290.82,858.98C291.61,842.43 284.6,827.63 272,819.24C263.92,813.86 256.77,811.72 247.04,811.78C228.94,811.88 215.57,820.83 207.52,838.24C201.43,851.43 201.85,865.6 208.69,878.18C213.84,887.64 226.38,897.7 235.77,899.92C241.89,901.36 253.27,901.11 259.02,899.4ZM782.26,896.77C794.98,890.73 804.28,879.13 807.16,865.7C807.76,862.88 808.02,856.82 807.73,852.23C807.09,841.87 803.38,833.69 795.47,825.14C770.65,798.33 726,813.03 720.66,849.75C717.55,871.07 731.1,892 753,899.74C755.15,900.49 760.05,900.84 765.68,900.63C773.72,900.33 775.79,899.85 782.26,896.77ZM240.77,897.02C229.23,894.95 217.35,886.04 211.95,875.4C208.6,868.81 208.5,868.25 208.5,856.97C208.5,845.37 208.51,845.32 212.5,837.54C217.06,828.65 222.67,823.06 231,819.11C235.84,816.81 237.75,816.5 247,816.5C260.51,816.5 266.44,818.69 274.56,826.69C295.6,847.39 288.38,883.94 261.2,894.28C252.76,897.49 247.41,898.21 240.77,897.02ZM751.47,894.71C740.46,889.87 733.24,883.36 728.49,873.99C720.77,858.75 724.43,838.57 737.09,826.49C743.71,820.18 748.7,817.66 757.8,816.02C775.1,812.92 791.49,821.85 799.74,838.88C803.26,846.15 803.43,846.98 803.46,857C803.5,866.95 803.33,867.84 800.19,874C794.99,884.19 787.04,891.33 776.65,895.13C769.36,897.79 758.06,897.61 751.47,894.71ZM255.24,891.36C261.28,890.23 258.2,889.5 247.18,889.44L235.56,889.38L239.53,891.18C243.37,892.91 246.73,892.95 255.24,891.36ZM771.88,891.38C773.59,891.03 775,890.35 775,889.86C775,889.36 773.76,889.3 772.25,889.71C770.74,890.12 766.27,890.45 762.32,890.44C758.37,890.43 755.36,890.78 755.63,891.21C756.21,892.15 767.43,892.26 771.88,891.38ZM236.42,879.83C239.49,876.44 242,873.29 242,872.83C242,871.09 237.26,872.1 235.32,874.25C231.91,878.02 228.06,884.29 228.6,885.17C229.61,886.8 230.91,885.92 236.42,879.83ZM267,884.37C267,883.22 262.72,876.54 260.26,873.86C258.02,871.42 254,870.88 254,873.02C254,874.01 260.62,881.99 262.85,883.68C264.61,885.02 267,885.42 267,884.37ZM753.84,879.29C758.88,873.55 759.37,872 756.14,872C753.3,872 746,880.59 746,883.93C746,886.48 749.2,884.59 753.84,879.29ZM783,883.65C783,882.09 778.23,875.33 775.29,872.73C773.44,871.09 770,871.22 770,872.92C770,873.32 772.38,876.19 775.29,879.32C780.49,884.9 783,886.32 783,883.65ZM230.88,876.68C235.07,870.26 236,867.51 233.75,868.24C231.9,868.85 225,879.05 225,881.17C225,884.42 226.67,883.14 230.88,876.68ZM271,881.64C271,879.56 262.26,867 260.81,867C258.95,867 260.26,870.91 264.08,876.76C267.89,882.59 271,884.78 271,881.64ZM747.4,876.81C751.76,870.95 753.02,868 751.17,868C749.03,868 742.01,878.14 742,881.25C742,882.21 742.18,883 742.4,883C742.62,883 744.87,880.22 747.4,876.81ZM787,880.65C787,878.99 782.21,872.36 778.64,869.08C776.06,866.71 776,866.7 776,868.75C776,869.9 777.03,872.12 778.29,873.67C779.55,875.23 781.36,877.74 782.32,879.25C784.12,882.12 787,882.98 787,880.65ZM218.16,873.69C217.54,872.94 216.17,868.77 215.12,864.42C213.27,856.76 213.2,856.65 213.1,861.13C212.97,866.91 217.06,877.28 218.79,875.55C219.06,875.27 218.78,874.44 218.16,873.69ZM733.96,870.91C732.86,868.11 731.57,863.5 731.1,860.66L730.23,855.5L730.12,859.72C729.96,865.26 733.58,876 735.61,876C735.81,876 735.07,873.71 733.96,870.91ZM796.41,870.55C797.35,868.56 797.96,864.82 797.9,861.35L797.81,855.5L796.59,862C795.92,865.58 794.61,870.24 793.68,872.37C791.55,877.28 793.99,875.65 796.41,870.55ZM280.86,867.1C281.94,863.88 282.49,855.17 281.56,856.11C281.19,856.48 278,870.65 278,871.95C278,873.24 279.87,870.06 280.86,867.1ZM253.47,864.78C257.43,862.23 259.44,857.28 258.02,853.55C256.99,850.84 252.59,847.19 249.39,846.38C243.91,845.01 237.25,849.79 235.64,856.25C234.81,859.6 237.06,863.44 241.46,866.18C245.05,868.42 248.43,868.03 253.47,864.78ZM770.97,864.25C774.6,861.03 775.2,859.93 775.2,856.53C775.2,851.24 769.86,846 764.47,846C753.66,846 748.04,856.5 755.23,863.22C761.52,869.09 765.24,869.33 770.97,864.25ZM242,861C239.12,858.12 239.41,853.61 242.63,851.07C244.08,849.93 246.05,849 247,849C247.95,849 249.92,849.93 251.37,851.07C254.56,853.59 254.97,858.81 252.17,861.35C249.66,863.62 244.45,863.45 242,861ZM758.56,860.78C755.23,856.02 758.21,849 763.55,849C767.05,849 771,852.73 771,856.03C771,862.18 761.95,865.63 758.56,860.78ZM619.75,859.91C639.47,859.12 643.32,858.71 645.1,857.24C648.06,854.79 657.6,840.41 664.5,828C674,810.9 685.48,792.94 691.18,786.25C697.92,778.33 704.05,773.91 716,768.32C732.6,760.56 736.48,756.6 739.04,744.84C740.75,737.02 739.85,715.85 737.59,710.5C734.35,702.82 718.99,689.24 694.85,672.73C670.94,656.37 661.92,653.39 624.16,649.33C601.59,646.91 531.58,646.91 511,649.33C485.25,652.36 474.24,655.01 457.79,662.14C444.45,667.93 438.19,671.57 412.35,688.6C390.79,702.81 387.17,705.5 388.2,706.53C388.42,706.75 396.65,701.54 406.5,694.95C455.86,661.88 474.48,654.42 515,651.46C519.67,651.12 525.3,650.66 527.5,650.45C529.7,650.23 545.51,650.04 562.64,650.02C602.99,649.97 630.53,651.83 652.81,656.09C665.4,658.5 670.84,660.27 678,664.28C694.75,673.65 729.4,700.33 733.22,706.8C735.89,711.32 737.28,722.23 736.78,734.85C736.05,753.73 734.1,756.62 716.5,765.01C690.7,777.32 684.14,785.26 655.03,839.39C652.7,843.73 649.22,849.47 647.3,852.14L643.81,857L633.16,856.99C618.38,856.97 420.09,857.81 384,858.04C351.14,858.26 349.29,859.38 381,859.86C392.27,860.03 401.65,860.32 401.82,860.49C402.61,861.27 598.87,860.74 619.75,859.91ZM692.04,849.04C694.52,837.7 696.38,832.21 700.58,823.84C709.1,806.91 725.35,793.55 745.4,786.99C754.3,784.09 771.89,783.83 782.5,786.46C798.52,790.42 813.52,800.21 822.83,812.77C829.8,822.18 833.38,830.24 837.39,845.55C841.32,860.59 843.06,860.47 841.08,845.3C837.14,815.22 819.53,793.4 791.2,783.5C777.16,778.6 758.37,777.76 744.75,781.43C725.3,786.66 705.06,802.94 695.59,820.96C691.24,829.23 688.03,843.33 688.05,854C688.06,863.3 689.25,861.82 692.04,849.04ZM172.92,851C176.46,831.75 183.34,817.77 194.64,806.9C210.27,791.86 226.41,785.05 246.54,785.02C272.46,784.97 296.34,798.67 309.28,821C311.83,825.4 319,845.4 319,848.13C319,848.88 319.92,851.75 321.04,854.5L323.08,859.5L322.57,851C320.52,816.72 298.52,789.99 265.5,781.66C229.55,772.59 191.41,790.77 175.99,824.32C173,830.82 170,845.89 170,854.38C170,860.92 171.4,859.3 172.92,851ZM349.85,849.75C345.32,821.63 344.8,816.37 344.31,793.5C343.85,771.63 343.99,768.57 345.96,759C348.56,746.29 353.46,735.81 359.88,729.18C362.42,726.57 368.74,721.18 373.92,717.21C379.1,713.25 382.77,710 382.07,710C379.79,710 357.93,727.12 354.94,731.24C350.4,737.51 345.45,748.75 342.92,758.54C338.44,775.84 340.44,818.13 347.04,845.75C349.42,855.73 351.23,858.31 349.85,849.75ZM228.82,852.29C228.52,850.73 218.02,844 215.89,844C215.4,844 215,844.84 215,845.86C215,847.13 216.95,848.69 221.25,850.83C228.5,854.46 229.26,854.6 228.82,852.29ZM790.17,850.54C796.41,848.34 797.26,847.19 795.75,842.92C795.08,841.04 794.45,839.35 794.35,839.16C794.24,838.98 790.3,840.08 785.58,841.62C780.13,843.39 777,844.93 777,845.84C777,846.92 777.84,847.11 780.5,846.63C782.42,846.28 785.69,845.73 787.75,845.41L791.5,844.81L788.5,846.9C786.85,848.05 784.74,848.99 783.81,848.99C781.72,849 780.64,850.61 781.39,852.57C781.8,853.64 782.45,853.79 783.73,853.11C784.7,852.6 787.6,851.44 790.17,850.54ZM273,850.63C280.15,848.1 281.5,845.97 278.3,842.24C276.52,840.17 276.43,840.16 269.98,841.89C266.4,842.85 262.61,844.12 261.57,844.7C259.76,845.72 259.77,845.81 261.9,846.95C263.3,847.69 264.57,847.79 265.31,847.22C266.51,846.28 275.22,843.89 275.69,844.36C275.83,844.5 273.28,845.94 270.02,847.56C266.75,849.18 264.07,851.06 264.04,851.75C263.98,853.47 265.47,853.28 273,850.63ZM746,851.66C746,850.92 743.72,849.08 740.93,847.56C738.15,846.04 736.07,844.59 736.33,844.34C736.58,844.09 739.3,844.61 742.38,845.51C747.65,847.04 750,846.91 750,845.09C750,844.65 746.57,843.27 742.38,842.03C733.99,839.54 733.05,839.87 733.02,845.3C733,847.7 733.74,848.44 738.25,850.54C744.22,853.32 746,853.58 746,851.66ZM546.21,821.25C545.91,792.1 546.93,778.16 551.13,754.01C553.75,738.93 554.81,730 553.96,730C552.87,730 547.76,753.05 544.89,771C542.44,786.28 543.27,849 545.92,849C546.24,849 546.37,836.51 546.21,821.25ZM232.82,846.34C232.25,843.37 216,839.1 216,841.92C216,842.79 229.08,847.76 231.82,847.92C232.55,847.96 233,847.25 232.82,846.34ZM245.02,838.43C245.56,837.02 246,833.42 246,830.43C246,823.32 247.43,823.39 247.74,830.52C247.87,833.55 248.71,837.15 249.6,838.52C251.32,841.14 253.58,841.95 252.69,839.63C252.4,838.87 251.85,834.65 251.46,830.24C250.58,820.13 250.14,819.38 245.84,820.61L242.5,821.57L242,831.29C241.62,838.76 241.79,841 242.77,841C243.48,841 244.49,839.85 245.02,838.43ZM761.09,839.39C761.84,838.49 762.45,835.23 762.5,831.94C762.58,825.77 763.98,822.22 764.02,828.08C764.06,833.07 765.66,839.17 767.17,840.1C769.34,841.45 769.86,839.78 768.91,834.5C768.41,831.75 767.75,827.36 767.44,824.75C766.95,820.58 766.59,820 764.51,820C761.1,820 759,822.59 758.99,826.82C758.99,828.84 758.7,832.86 758.35,835.75C757.7,841.2 758.59,842.4 761.09,839.39ZM271.5,830C268.51,826.88 261.43,822.97 258.93,823.05C258.15,823.07 259.75,824.26 262.5,825.68C265.25,827.11 268.85,829.33 270.5,830.63C274.58,833.83 274.95,833.6 271.5,830ZM233.76,824.55C235.01,824.17 235.77,823.44 235.46,822.93C234.78,821.83 229.85,824.24 225.26,827.9C220.2,831.93 221.42,832.59 226.75,828.71C229.36,826.81 232.52,824.94 233.76,824.55ZM786,827.84C784.08,826.2 780.98,824.22 779.13,823.43C775.23,821.78 775,821.74 775,822.76C775,823.18 777.23,824.58 779.95,825.88C782.67,827.17 785.66,829.08 786.61,830.12C787.55,831.16 788.59,831.74 788.91,831.41C789.23,831.08 787.92,829.47 786,827.84ZM742.37,829.14C743.3,828.11 745.85,826.47 748.03,825.49C752.61,823.42 753.42,821.61 749.09,823.12C745.9,824.23 737.83,830.89 739.6,830.96C740.2,830.98 741.45,830.16 742.37,829.14ZM522.63,812.14L535.77,812L536.28,809.34L536.78,806.68L490.64,807.38C427.79,808.34 367.5,809.86 361.75,810.63C359.14,810.98 357,811.61 357,812.03C357,812.66 468.9,812.74 522.63,812.14ZM129,810.97C129,810.4 127.54,810 125.75,810.07C123.96,810.14 114.74,809.9 105.25,809.54C93.95,809.11 88,809.23 88,809.88C88,811.21 93.2,811.62 112.75,811.83C123.36,811.94 129,811.64 129,810.97ZM132,811C132,810.45 131.55,810 131,810C130.45,810 130,810.45 130,811C130,811.55 130.45,812 131,812C131.55,812 132,811.55 132,811ZM634,810.4C645.95,809.99 651.92,809.39 652.83,808.54C653.9,807.51 653.25,807.16 649.33,806.64C644.38,805.98 576.45,806.08 560.75,806.77C552.16,807.14 552,807.19 552,809.68L552,812.2L584.25,811.61C601.99,811.28 624.38,810.74 634,810.4ZM108.57,787.61C111.28,783.49 114.13,779.85 114.89,779.53C115.92,779.11 116.01,779.29 115.24,780.23C114.01,781.74 108,793.47 108,794.37C108,795.92 110.44,794.74 113.1,791.89C116.1,788.68 117.11,789.15 114.53,792.56C113.72,793.63 113.05,794.9 113.03,795.4C112.99,796.45 129.52,795.46 138.82,793.86C142.9,793.16 145.86,792.02 147.19,790.64C151.34,786.32 154.87,780.82 154.35,779.48C154.06,778.71 151.8,777.11 149.33,775.92C145.78,774.2 143.1,773.75 136.66,773.8C127.36,773.88 115.68,775.55 112.13,777.31C109.62,778.55 100.71,793.73 101.63,795.21C102.45,796.53 103.37,795.53 108.57,787.61ZM923.75,793.51C929.94,793.08 935,792.33 935,791.86C935,791.39 931.29,790.96 926.75,790.91C903.18,790.65 865.8,791.22 853,792.04C845.02,792.54 836.25,793.02 833.5,793.1C829.32,793.21 828.99,793.35 831.5,793.9C835.6,794.82 909.82,794.5 923.75,793.51ZM187.5,790C187.84,789.45 187.64,789 187.06,789C186.48,789 186,789.45 186,790C186,790.55 186.2,791 186.44,791C186.68,791 187.16,790.55 187.5,790ZM199.5,781.3C223.27,767.05 250.75,764.44 278.02,773.83C284.58,776.09 293.8,780.61 296.25,782.77C297.21,783.62 297.99,783.9 297.97,783.4C297.91,780.99 282.23,772.28 272,768.96C268.33,767.78 267.33,767.16 269,767.11C270.38,767.07 275.3,768.6 279.95,770.52C289.32,774.38 289.36,774.39 288.54,773.06C287.55,771.46 276.87,766.99 270.04,765.32C266.44,764.44 263.05,763.3 262.5,762.79C261.46,761.82 262.04,761.9 271.8,764.06C278.4,765.51 279.46,764.8 273.77,762.73C268.78,760.92 256.44,759.27 250,759.57C238.23,760.11 212.23,766.52 206.94,770.2L204.5,771.89L207.5,771.05C209.15,770.59 211.29,769.89 212.25,769.5C213.25,769.09 214,769.23 214,769.83C214,770.4 213.07,771.16 211.93,771.52C209.39,772.33 192.32,783.67 191.39,785.17C190.51,786.61 191.24,786.26 199.5,781.3ZM819,782.59C819,782.36 816.81,780.57 814.14,778.61C808.33,774.34 798.56,769.35 791,766.8C786.16,765.17 785.98,765.02 789.5,765.57C793.13,766.13 797.55,767.48 802.25,769.47C803.24,769.89 804,769.78 804,769.22C804,767.85 794.49,764.23 788.83,763.44C786.26,763.09 783.32,762.01 782.28,761.05C778.1,757.15 761.61,756.2 749,759.13C743.51,760.4 743.51,760.41 747,760.98L750.5,761.56L746,763.29C743.52,764.24 742.62,764.81 744,764.57C745.38,764.32 749.42,763.88 753,763.59L759.5,763.06L751,764.84C746.33,765.82 741.6,766.95 740.5,767.35C735.32,769.25 722.18,776.24 719.5,778.52C716.54,781.05 716.57,781.04 722.52,778.14C741.05,769.1 753.11,766.4 770.5,767.39C776.55,767.74 784.88,768.84 789,769.84C797.32,771.87 812.13,777.99 816,781.01C818.64,783.06 819,783.25 819,782.59ZM193.5,781C193.84,780.45 193.67,780 193.12,780C192.57,780 191.84,780.45 191.5,781C191.16,781.55 191.33,782 191.88,782C192.43,782 193.16,781.55 193.5,781ZM199.02,777.48C200.08,776.2 200.01,776.06 198.64,776.58C197.74,776.93 197,777.62 197,778.11C197,779.39 197.58,779.21 199.02,777.48ZM329.01,776.98C330.66,773.9 329.39,773 323.41,773C319.25,773 317.79,773.4 317.31,774.64C315.74,778.73 326.88,780.95 329.01,776.98ZM817,776.59C817,775.96 807.75,770.92 807.35,771.32C807.16,771.51 809.14,772.85 811.75,774.31C816.86,777.15 817,777.21 817,776.59ZM920.65,767C920.83,761.49 919.24,741.91 918.56,741.23C917.34,740 911.5,743.71 908.8,747.42L905.84,751.5L910.17,752C913.34,752.37 914.01,752.7 912.67,753.25C911.66,753.66 909.52,754 907.92,754C904.41,754 903.88,756.64 907.25,757.29C908.88,757.61 908.6,757.77 906.25,757.86C903.97,757.96 903,758.49 903,759.63C903,760.98 903.85,761.17 908.06,760.77C910.84,760.5 912.75,760.64 912.31,761.08C911.86,761.52 909.29,762.02 906.58,762.19C898.55,762.7 899.68,764.85 908.18,765.26L915.5,765.6L907.75,765.8C903.49,765.91 899.99,766.34 899.99,766.75C899.98,767.16 899.7,768.53 899.36,769.79L898.75,772.07L909.62,771.79L920.5,771.5L920.65,767ZM902.75,769.34C903.44,769.06 904.56,769.06 905.25,769.34C905.94,769.62 905.38,769.84 904,769.84C902.62,769.84 902.06,769.62 902.75,769.34ZM907,769.62C907,769.41 907.9,769 909,768.71C910.1,768.42 911,768.6 911,769.09C911,769.59 910.1,770 909,770C907.9,770 907,769.83 907,769.62ZM810,768C810,767.45 809.52,767 808.94,767C808.36,767 808.16,767.45 808.5,768C808.84,768.55 809.32,769 809.56,769C809.8,769 810,768.55 810,768ZM219.5,767C219.84,766.45 221.33,766.03 222.81,766.07C225.21,766.13 225.29,766.23 223.5,767C220.72,768.19 218.76,768.19 219.5,767ZM284,766.61C284,766.39 283.32,765.95 282.5,765.64C281.68,765.32 281,765.5 281,766.03C281,766.56 281.68,767 282.5,767C283.32,767 284,766.82 284,766.61ZM740.25,765.34C739.56,765.06 738.44,765.06 737.75,765.34C737.06,765.62 737.62,765.84 739,765.84C740.38,765.84 740.94,765.62 740.25,765.34ZM783,765C781.72,764.17 781.75,764.03 783.25,764.02C784.21,764.01 785,764.45 785,765C785,766.22 784.89,766.22 783,765ZM804.69,765.36C803.58,764.25 792.63,760.04 792.14,760.53C791.46,761.2 791.89,761.44 798,763.72C803.93,765.94 805.7,766.37 804.69,765.36ZM256.27,762.31C257.24,762.05 258.59,762.07 259.27,762.34C259.95,762.62 259.15,762.83 257.5,762.81C255.85,762.78 255.3,762.56 256.27,762.31ZM162.49,757.51C169.65,755.67 186.07,752.09 199,749.57C211.93,747.06 224.75,744.56 227.5,744.02C230.25,743.48 242.4,741.66 254.5,739.97C266.6,738.27 277.85,736.66 279.5,736.39C281.15,736.11 285.43,735.5 289,735.02C294.97,734.23 301.57,733.22 323.49,729.7C333.9,728.03 331.71,726.55 320.17,727.45C308.61,728.35 271.31,733.13 253.61,735.97C250.25,736.51 241.65,737.89 234.5,739.03C220.24,741.3 204.45,744.47 187.5,748.44C174.55,751.47 147.94,759.81 146.5,761.27C145.82,761.96 146.14,762.07 147.49,761.58C148.59,761.19 155.34,759.36 162.49,757.51ZM790.5,760.58C790.5,759.47 785.11,757.55 784.29,758.37C783.98,758.69 784.3,759.66 785.02,760.52C786.37,762.15 790.5,762.2 790.5,760.58ZM751.4,760.17C751.88,759.38 758,759.79 758,760.61C758,760.83 756.4,761 754.44,761C752.48,761 751.11,760.63 751.4,760.17ZM767,760C764.34,759.44 764.1,759.25 766,759.19C767.38,759.15 770.3,759.49 772.5,759.94C775.83,760.63 776,760.77 773.5,760.75C771.85,760.74 768.92,760.41 767,760ZM750.5,756C750.84,755.45 750.42,755 749.56,755C748.7,755 748,755.45 748,756C748,756.55 748.42,757 748.94,757C749.46,757 750.16,756.55 750.5,756ZM779.5,755C776.74,753.81 775,753.81 775,755C775,755.55 776.46,755.97 778.25,755.93C780.97,755.87 781.18,755.72 779.5,755ZM532.48,753.83C539.57,750.6 530.51,748.5 513.64,749.47C501.32,750.18 496.92,751.45 498.41,753.85C499.39,755.44 528.97,755.43 532.48,753.83ZM766.25,754.28C764.46,754.05 761.54,754.05 759.75,754.28C757.96,754.5 759.42,754.68 763,754.68C766.58,754.68 768.04,754.5 766.25,754.28ZM718.5,746.08C720.15,745.69 721.5,744.73 721.5,743.94C721.5,742.78 719.07,742.45 709,742.22C693.92,741.89 685.5,742.89 685.5,745.01C685.5,747.38 709.68,748.16 718.5,746.08ZM478.5,736.47C539.99,734.09 552,733.31 552,731.72C552,730.56 524.47,731.08 461.5,733.43C440.05,734.23 410.8,735.19 396.5,735.57C382.2,735.95 368.7,736.63 366.5,737.1C362.5,737.94 453.6,737.43 478.5,736.47ZM636.5,731.01C648.05,730.48 665.15,729.78 674.5,729.45C683.85,729.12 693.08,728.69 695,728.48C696.92,728.27 705.83,727.55 714.79,726.88C735.27,725.35 738.12,723.39 718.41,724.38C710.76,724.77 685.6,725.73 662.5,726.51C589.93,728.98 561.54,730.09 560.25,730.52C559.56,730.75 559,731.39 559,731.93C559,733.07 602.84,732.55 636.5,731.01ZM469.5,725C483.25,724.48 503.93,723.78 515.46,723.45C527,723.11 537.19,722.43 538.12,721.94C539.8,721.04 541.05,717.56 550.85,686.5C557.44,665.6 559.46,658.13 558.73,657.4C557.73,656.4 517.5,658.95 501.1,661.05C492.63,662.14 481.83,664.23 477.1,665.71C465.08,669.45 442.31,681.15 424,692.98C415.48,698.49 407.84,703.41 407.03,703.91C405.8,704.67 405.95,705.14 407.9,706.72C409.86,708.31 410.41,710.1 411.3,717.85L412.36,727.1L428.43,726.52C437.27,726.2 455.75,725.52 469.5,725ZM216.62,707.75C213.98,698.26 210.68,686.68 209.3,682.02C207.92,677.35 205.29,667.68 203.44,660.52C201.6,653.36 197.1,636.48 193.46,623C189.81,609.52 184.88,591.3 182.51,582.5C180.13,573.7 176.98,562.23 175.51,557C174.03,551.77 171.68,543 170.29,537.5C168.91,532 166.2,521.88 164.27,515C162.35,508.12 158.17,492.6 155,480.5C151.83,468.4 148.05,454.23 146.62,449C145.18,443.77 142.86,434.77 141.46,429C138.66,417.38 132.29,393.4 128.32,379.5C126.91,374.55 124.46,364.88 122.88,358C121.3,351.12 119.35,343.25 118.54,340.5C117.72,337.75 115.65,330.32 113.93,324C112.21,317.68 109.91,309.57 108.82,306C106.88,299.62 104.9,291.98 89.52,231.5C85.32,215 80.97,198.39 79.86,194.59C77.58,186.85 73.52,171.52 68.94,153.3L65.87,141.1L68.13,138.04C71.63,133.3 79.21,130 86.59,130C94.87,130 96.59,131.51 99.13,141.01C100.23,145.13 101.52,148.9 101.99,149.38C102.49,149.88 106.44,147.49 111.18,143.83C141.6,120.35 184.58,98.91 220.01,89.54C227.43,87.58 235.75,85.33 238.5,84.55C259.48,78.59 322.37,73.91 346,76.54C348.48,76.81 354.55,77.46 359.5,77.98C377.18,79.82 391.65,81.92 400.01,83.85C426.38,89.93 432.61,91.53 443.76,95.09C450.5,97.24 456.61,99 457.35,99C458.08,99 466.29,101.45 475.59,104.45C493.35,110.17 532.91,120.76 548.91,124.07C574.24,129.31 626,132.87 649.33,130.97C678.88,128.57 694.89,125.39 720.5,116.81C744.09,108.91 760.74,101.23 778.35,90.15C789.17,83.35 790.56,82.74 791.76,84.31C792.25,84.96 794.5,90.67 796.74,97C800.68,108.11 803.15,114.86 812.65,140.5C815.09,147.1 818.24,155.88 819.65,160C821.06,164.12 824.02,172 826.24,177.5C828.46,183 831.59,191.32 833.21,196C834.83,200.68 838.37,209.74 841.08,216.15C843.78,222.56 846,228.24 846,228.78C846,229.31 846.95,231.9 848.11,234.53C849.28,237.15 851.04,242.05 852.02,245.4C854.89,255.14 869.62,293.74 874.89,305.34C876.6,309.11 878,312.82 878,313.59C878,314.96 886.03,337.21 892.59,354C894.41,358.68 898.62,369.77 901.94,378.66C907.96,394.79 919.33,423.37 922.88,431.3C927.79,442.29 928.96,445.32 929.46,448.29C929.96,451.35 929.59,451.79 921.77,457.5C890.55,480.28 865.12,494.69 843.35,501.94C838.48,503.56 830.02,506.49 824.54,508.45C813.92,512.26 789.99,518.28 776,520.66C771.33,521.46 763.46,522.79 758.52,523.62C752.04,524.71 740.67,525.18 717.52,525.31C678.37,525.54 668.08,525.23 656.5,523.49C651.55,522.75 643.9,521.67 639.5,521.1C607.08,516.88 597.4,514.93 550.5,503.2C536.23,499.63 508.64,493.2 503,492.13C498.03,491.18 490.3,489.88 472.38,486.99C466.32,486.01 449.95,484.6 432.5,483.57C414.67,482.51 380.28,486.62 353.5,493.02C315.87,502 264.06,526.1 237.66,546.9C223.04,558.42 213,567.36 213,568.87C213,569.77 213.46,572.09 214.03,574.01C214.6,575.93 216.62,583.35 218.52,590.5C220.43,597.65 223.12,607.55 224.5,612.5C225.88,617.45 228.79,628.25 230.96,636.5C237.95,663.08 238.96,666.77 240.03,669.58C241.09,672.38 243.22,679.97 247.56,696.5C248.86,701.45 250.83,708.42 251.95,712C253.07,715.58 253.99,718.84 253.99,719.25C254,719.66 252.3,720 250.23,720C248.15,720 241.07,721.12 234.48,722.49C227.89,723.86 222.26,724.99 221.97,724.99C221.67,725 219.27,717.24 216.62,707.75ZM905,721.09C904.17,720.62 899.9,719.94 895.5,719.57C891.1,719.2 880.75,718.25 872.5,717.47C864.25,716.69 847.39,715.55 835.02,714.95C822.66,714.35 810.51,713.47 808.02,713.01C805.54,712.55 803.33,712.34 803.11,712.55C801.99,713.67 812.1,715.93 825,717.44C833.69,718.45 874.63,721.02 886.5,721.29C893.1,721.45 900.3,721.65 902.5,721.75C905.13,721.88 905.99,721.65 905,721.09ZM345.71,718.38C351.74,715.09 370.17,703.4 389,690.95C396.98,685.67 407.32,679.09 412,676.32C425.27,668.45 437.41,660.92 438.45,659.92C439.04,659.35 438.65,659.01 437.45,659.03C433.46,659.08 402.38,676.26 367.5,697.68C359.8,702.41 348.86,708.97 343.2,712.25C337.53,715.54 333.12,718.45 333.4,718.73C333.67,719.01 335.38,719.58 337.2,720.01C339.01,720.44 340.6,720.84 340.71,720.9C340.83,720.95 343.08,719.82 345.71,718.38ZM634.5,718.89C652.1,718.28 666.84,717.58 667.25,717.33C667.66,717.09 668,705.9 668,692.48L668,668.08L662.75,666.51C656.67,664.69 637.92,661.58 623.5,660C612.31,658.77 583.84,657.11 582.87,657.63C582.53,657.82 581.7,663.26 581.04,669.73C580.38,676.21 578.75,689.76 577.42,699.87C576.09,709.97 575,718.89 575,719.69C575,720.92 577.12,721.05 588.75,720.56C596.31,720.25 616.9,719.49 634.5,718.89ZM721.75,715.34C723.69,715 725,714.18 725,713.3C725,709.43 696.43,685.33 681.25,676.39L677,673.89L676.97,685.69C676.95,692.19 676.73,701.95 676.48,707.39L676.03,717.27L697.27,716.59C708.94,716.21 719.96,715.65 721.75,715.34ZM789,692.4C761.22,678.77 734.9,666.66 723.68,662.32C714.69,658.85 711,658.42 717.16,661.56C723.22,664.64 741.42,674.25 746,676.78C748.48,678.14 757.02,682.76 765,687.03C772.98,691.3 782.65,696.62 786.5,698.85C793.17,702.7 793.91,702.9 802,702.92L810.5,702.94L789,692.4ZM684,502.84C684,502.21 679.21,487.39 673.36,469.91L662.72,438.13L656.11,437.47C635.69,435.44 621.11,433.41 599.14,429.5L591.78,428.2L592.36,431.85C592.92,435.37 600.25,460.28 607.63,483.81C610.42,492.69 611.64,495.28 613.34,495.9C617.59,497.43 655.1,502.16 669.5,502.98C676.1,503.36 682.06,503.74 682.75,503.83C683.44,503.92 684,503.48 684,502.84ZM775,498.99C790.91,496.19 809.44,491.48 824.84,486.33C834,483.27 841.7,480.57 841.95,480.34C842.2,480.12 841.59,477.81 840.6,475.21C839.61,472.62 835.5,461.5 831.47,450.5C819.9,418.96 819.28,417.48 817.84,417.71C817.1,417.82 810.2,419.74 802.5,421.96C787.84,426.19 766.74,431 754,433C740.04,435.2 740.47,434.63 744.44,445.69C745.79,449.44 750.53,463.03 754.98,475.91C759.44,488.78 763.34,499.73 763.65,500.24C763.96,500.75 765.18,500.93 766.36,500.65C767.54,500.37 771.42,499.62 775,498.99ZM284.4,496.09C296,490.57 301.55,488.24 314,483.69C326.68,479.06 343.61,474 346.45,474C347.3,474 348,473.6 348,473.1C348,471.84 341.62,447.02 338.98,438C337.78,433.88 335.27,424.73 333.4,417.67C331.54,410.61 329.79,404.47 329.51,404.02C328.64,402.61 313.06,406.61 300.68,411.4C284.19,417.79 260.79,428.04 259.05,429.64C257.78,430.81 257.89,431.98 259.91,438.74C261.19,443.01 264.16,453.93 266.52,463C273.57,490.16 276.21,499 277.28,499C277.84,499 281.04,497.69 284.4,496.09ZM664,497.04C661.8,496.37 661.72,496.18 663.3,495.51C664.28,495.09 667.07,494.97 669.48,495.24C671.89,495.52 674.3,495.3 674.84,494.76C675.47,494.13 676.21,494.52 676.94,495.89C678.03,497.93 677.87,498 672.29,497.9C669.1,497.85 665.38,497.46 664,497.04ZM655.75,495.34C656.44,495.06 657.56,495.06 658.25,495.34C658.94,495.62 658.38,495.84 657,495.84C655.62,495.84 655.06,495.62 655.75,495.34ZM766.51,495.18C766.23,494.9 766,494.07 766,493.33C766,492.43 767.38,492 770.25,491.99C775.09,491.98 792.95,488.38 807,484.58C816.56,481.99 820.46,481.34 816.21,483.05C808.25,486.24 767.52,496.19 766.51,495.18ZM615.46,489.93C615.1,489.35 615.01,488.65 615.28,488.39C615.54,488.13 616.02,488.61 616.35,489.46C617.02,491.22 616.44,491.53 615.46,489.93ZM671,489.03L668.5,488.38L670.76,487.15C672.66,486.11 673.13,486.17 673.64,487.5C674.43,489.57 674.02,489.81 671,489.03ZM764,486C764,484.15 764.64,484.01 772.25,484.09L780.5,484.18L773.5,486.07C764.67,488.45 764,488.44 764,486ZM761,478C761,476.39 761.43,475.95 762.58,476.39C763.45,476.73 765.57,477 767.28,477C771.34,477 769.72,478.62 764.75,479.53C761.34,480.16 761,480.02 761,478ZM832,477.59C832,477.4 832.67,476.68 833.5,476C834.36,475.28 835,475.19 835,475.77C835,476.33 834.33,477.05 833.5,477.36C832.67,477.68 832,477.78 832,477.59ZM519,474.25C519,473.84 517.91,470.13 516.59,466C515.26,461.88 511.85,450.4 509,440.5C506.16,430.6 502.85,419.16 501.65,415.08L499.48,407.67L489.99,405.28C468.56,399.89 437.13,395 423.89,395L417.21,395L418.08,398.75C419.55,405.07 429.16,438.84 433.94,454.49L436.69,463.49L444.09,463.76C458.99,464.31 500.7,470.51 512.5,473.93C516.4,475.06 519,475.19 519,474.25ZM610.08,472.42C610.13,471.25 610.36,471.01 610.68,471.81C610.97,472.53 610.94,473.4 610.6,473.73C610.27,474.06 610.04,473.47 610.08,472.42ZM195.57,466.48C207.02,456.77 231.39,439.34 245.11,431.07L251.71,427.08L248.44,414.79C240.65,385.6 233.08,359.78 231.95,358.59C231.14,357.75 214.31,367.65 198,378.56C191.13,383.16 181.4,390.78 173.69,397.6L169.05,401.71L174.01,420.6C176.73,431 180.6,445.12 182.6,452C184.61,458.88 186.69,466.19 187.24,468.25C187.79,470.31 188.43,472 188.65,472C188.88,472 191.99,469.52 195.57,466.48ZM337,469.08C340.95,466.83 342,466.59 342,467.93C342,468.81 340.23,469.54 335.5,470.61C334.4,470.86 335.07,470.17 337,469.08ZM757.09,466.9C756.41,464.65 756.01,462.71 756.18,462.59C756.36,462.47 757.85,462.65 759.5,462.99C762.34,463.58 762.38,463.65 760.25,464.37C757.47,465.31 757.4,466.46 759.99,468.28C761.09,469.05 761.69,469.98 761.33,470.34C759.74,471.93 758.23,470.71 757.09,466.9ZM609.08,468.42C609.13,467.25 609.36,467.01 609.68,467.81C609.97,468.53 609.94,469.4 609.6,469.73C609.27,470.06 609.04,469.47 609.08,468.42ZM830.64,468.51C830.95,467.68 831.61,467.26 832.1,467.56C833.52,468.44 833.15,470 831.53,470C830.64,470 830.29,469.41 830.64,468.51ZM507.5,467.09C506.4,466.66 499.2,465.29 491.5,464.05C472.68,461.02 467.43,459.87 475.5,460.55C497.41,462.39 510.04,464.61 510.75,466.76C511.22,468.15 510.42,468.24 507.5,467.09ZM825,464.86C825,464.07 827.65,463 829.58,463C830.36,463 831,463.56 831,464.25C831,464.97 829.73,465.5 828,465.5C826.35,465.5 825,465.21 825,464.86ZM191.69,463C191.21,461.69 188.69,451.3 187.45,445.5C187.21,444.4 187.9,445.3 188.98,447.5C190.06,449.7 190.96,452.03 190.97,452.68C190.99,453.34 191.47,455.1 192.04,456.6C192.83,458.67 193.35,459.05 194.24,458.16C196.4,456 197.36,456.98 195.3,459.25C194.18,460.49 193.02,462.18 192.74,463C192.29,464.33 192.17,464.33 191.69,463ZM333,461.42C333,461.31 334.18,460.46 335.63,459.51C337.79,458.09 338.4,458.03 339.11,459.14C340.49,461.32 340.2,461.6 336.5,461.6C334.57,461.6 333,461.52 333,461.42ZM606.67,460.33C606.3,459.97 606,458.82 606,457.78C606,456.75 605.29,454.53 604.43,452.86C603.56,451.18 603.1,449.57 603.4,449.26C603.71,448.96 604.27,449.57 604.65,450.61C605.04,451.65 605.65,452.73 606.02,453C606.67,453.48 608.15,461 607.6,461C607.46,461 607.03,460.7 606.67,460.33ZM506.2,458.74C505.27,457.62 505.22,456.98 506.02,456.49C507.5,455.57 508.26,456.44 507.84,458.58C507.53,460.14 507.37,460.16 506.2,458.74ZM810,459.66C810,459.38 813.25,458.42 817.23,457.52C821.21,456.61 824.79,455.34 825.19,454.69C825.74,453.8 826.23,453.83 827.2,454.8C828.98,456.58 826.97,457.7 820.55,458.49C817.77,458.83 814.26,459.34 812.75,459.63C811.24,459.92 810,459.93 810,459.66ZM754,456.09C754,454.68 754.52,454.32 756,454.71C758.4,455.34 758.59,456.56 756.42,457.39C754.13,458.27 754,458.2 754,456.09ZM334,453.62C334,453.41 334.68,452.68 335.5,452C336.73,450.98 337,451.05 337,452.38C337,453.27 336.32,454 335.5,454C334.68,454 334,453.83 334,453.62ZM504.71,450C505,448.9 505.35,448 505.5,448C505.65,448 506,448.9 506.29,450C506.62,451.25 506.32,452 505.5,452C504.68,452 504.38,451.25 504.71,450ZM819.28,448.92C821.36,447.82 823.56,447.23 824.17,447.6C825.67,448.53 821.2,450.93 818,450.92C815.76,450.91 815.89,450.71 819.28,448.92ZM750.47,446.95C749.52,445.41 750.82,444.42 752.1,445.7C752.82,446.42 752.84,446.98 752.16,447.4C751.6,447.75 750.84,447.55 750.47,446.95ZM602,444.56C602,443.7 602.45,443 603,443C603.55,443 604,443.42 604,443.94C604,444.46 603.55,445.16 603,445.5C602.45,445.84 602,445.42 602,444.56ZM748,440.94C748,440.36 748.45,440.16 749,440.5C749.55,440.84 750,441.32 750,441.56C750,441.8 749.55,442 749,442C748.45,442 748,441.52 748,440.94ZM600.08,438.42C600.13,437.25 600.36,437.01 600.68,437.81C600.97,438.53 600.94,439.4 600.6,439.73C600.27,440.06 600.04,439.47 600.08,438.42ZM725.5,431.51C726.05,431.39 728.41,430.93 730.75,430.51C733.09,430.09 734.99,429.46 734.99,429.12C734.97,428.33 723.56,394.51 717.57,377.5L712.99,364.5L707.75,364.76C704.86,364.9 689.79,365.1 674.25,365.2C658.71,365.3 646,365.68 646,366.03C646,366.39 647.54,371.81 649.43,378.09C652.71,388.97 654.22,393.6 663.09,420L666.96,431.5L671.73,432.15C675.86,432.71 722.76,432.16 725.5,431.51ZM798.5,429.3C801.25,428.46 805.9,426.93 808.84,425.89C815.18,423.64 816,423.58 816,425.33C816,426.22 812.54,427.4 805.75,428.84C794.06,431.33 791.2,431.5 798.5,429.3ZM672.25,427.34C669.41,426.19 671.18,424.85 674.75,425.45C676.81,425.8 680.65,426.12 683.27,426.17C685.89,426.21 688.28,426.65 688.58,427.13C689.14,428.03 674.45,428.22 672.25,427.34ZM691.75,427.34C692.44,427.06 693.56,427.06 694.25,427.34C694.94,427.62 694.38,427.84 693,427.84C691.62,427.84 691.06,427.62 691.75,427.34ZM726,423.94C726,423.36 726.45,423.16 727,423.5C727.55,423.84 728,424.32 728,424.56C728,424.8 727.55,425 727,425C726.45,425 726,424.52 726,423.94ZM583.61,419.25C583.31,418.29 581.74,412.55 580.1,406.5C578.46,400.45 576.46,393.66 575.66,391.4C574.85,389.15 573.01,382.85 571.55,377.4C570.09,371.96 567.78,364.08 566.42,359.91L563.94,352.32L557.72,350.77C554.3,349.92 540.35,346.27 526.73,342.65C513.11,339.03 498.71,335.38 494.73,334.54C490.75,333.7 486.42,332.72 485.09,332.35C482.92,331.75 482.75,331.92 483.36,334.09C483.73,335.42 484.53,338.75 485.12,341.5C485.72,344.25 488.7,355.05 491.74,365.5C494.79,375.95 498.15,387.87 499.22,392C501.5,400.78 502.09,401.65 506.32,402.53C515.41,404.42 538.11,410.13 542.02,411.51C550.88,414.64 576.52,420.69 581.82,420.91C583.58,420.98 584.01,420.58 583.61,419.25ZM721.5,411.63C720.56,409.17 719.98,406.55 720.23,405.82C720.47,405.1 721.47,406.89 722.44,409.81C724.61,416.36 723.86,417.82 721.5,411.63ZM560,410.48C551.48,408.07 542.02,405.18 539,404.07C533.88,402.19 533.77,402.09 537.5,402.64C539.7,402.96 546.9,404.78 553.5,406.68C560.1,408.58 567.75,410.26 570.5,410.4C574.76,410.63 575.55,410.99 575.82,412.84C576,414.03 576,414.97 575.82,414.94C575.64,414.9 568.52,412.9 560,410.48ZM177.37,408.51C175.74,403.33 175.99,400.5 177.89,402.57C178.83,403.58 180.37,414 179.59,414C179.32,414 178.32,411.53 177.37,408.51ZM843.93,401.1C854.32,396.71 878.56,383.24 882.79,379.51C882.95,379.37 881.32,374.81 879.17,369.37C877.02,363.94 874.93,358.38 874.52,357C874.12,355.62 870.96,347.3 867.51,338.5C864.05,329.7 860.95,321.7 860.63,320.73C859.67,317.83 857.43,317.71 853.29,320.32C846.15,324.83 821.65,336.69 809.5,341.53C802.9,344.15 797.31,346.46 797.07,346.66C796.84,346.86 797.62,349.38 798.8,352.26C799.99,355.14 802.05,360.65 803.36,364.5C807.37,376.19 819.64,406.54 821.21,408.64C822.09,409.81 827.79,407.92 843.93,401.1ZM461.5,407L458.5,406.24L461.5,406.22C463.15,406.21 465.62,406.56 467,407L469.5,407.8L467,407.78C465.62,407.77 463.15,407.42 461.5,407ZM443.25,404.93C436.9,404.11 435,403.47 435,402.15C435,401.49 455.04,404.41 457.5,405.43C459.17,406.12 449.89,405.8 443.25,404.93ZM823,402.51C823,401.68 823.34,400.99 823.75,400.98C824.16,400.96 826.24,400.55 828.37,400.05C832.92,399 832.09,400.23 826.75,402.46C823.42,403.85 823,403.86 823,402.51ZM180.5,399C180.84,398.45 181.32,398 181.56,398C181.8,398 182,398.45 182,399C182,399.55 181.52,400 180.94,400C180.36,400 180.16,399.55 180.5,399ZM184.46,396.07C185.4,394.54 201.17,382.51 206,379.63C209.55,377.52 209.89,377.44 207.6,379.23C206,380.48 200.38,384.98 195.1,389.24C186.3,396.34 182.97,398.48 184.46,396.07ZM341,395.42C356.08,392.23 385.91,389.16 402.75,389.06C407.84,389.03 412,388.8 412,388.56C412,388.32 410.41,382.8 408.47,376.31C404.07,361.56 401.09,351.33 396.05,333.59C393.88,325.94 391.62,319.38 391.04,319.02C389,317.76 371.37,317.94 357.44,319.36C345.59,320.57 314.38,325.71 313.11,326.66C312.71,326.95 316.76,341.81 324.22,367.5C326.45,375.2 328.98,384.65 329.84,388.5C330.69,392.35 331.86,395.83 332.45,396.23C333.03,396.64 333.5,396.98 333.5,396.98C333.5,396.99 336.88,396.29 341,395.42ZM335.67,390.33C334.09,388.76 335.28,388 339.25,388.04L343.5,388.08L340.14,389.54C336.22,391.24 336.52,391.19 335.67,390.33ZM871.46,370.48C869.95,366.34 868.94,362.73 869.21,362.45C869.74,361.92 876,375.34 876,377.01C876,377.55 875.6,378 875.1,378C874.61,378 872.97,374.61 871.46,370.48ZM332,374.58C332,373.71 332.71,373 333.58,373C334.45,373 334.99,373.53 334.77,374.19C334.15,376.04 332,376.35 332,374.58ZM330.08,366.42C330.13,365.25 330.36,365.01 330.68,365.81C330.97,366.53 330.94,367.4 330.6,367.73C330.27,368.06 330.04,367.47 330.08,366.42ZM638.5,356.25C638.11,355.29 636.06,348.61 633.94,341.42C631.83,334.23 627.36,319.97 624.02,309.74L617.96,291.14L612.23,290.48C601.6,289.27 567.15,283.04 553.69,279.91C551.05,279.29 548.66,279 548.4,279.27C547.95,279.71 556.58,310.09 564.25,335.07L567.5,345.64L581,348.49C588.42,350.06 597.29,351.94 600.7,352.67C610.68,354.8 630.14,357.78 634.86,357.89C638.63,357.99 639.12,357.77 638.5,356.25ZM733.3,355.44C745.31,353.6 770.06,347.91 781.75,344.31C788.16,342.33 790,341.36 790,339.93C790,338.92 788.02,333.24 785.59,327.3C783.16,321.36 778.92,309.98 776.15,302C770.62,286.03 767.45,278.4 765.98,277.49C765.45,277.16 754.33,279.58 741.26,282.87C728.19,286.16 712.33,289.64 706,290.61C699.67,291.57 694.34,292.48 694.15,292.62C693.22,293.28 714.18,353.13 716.26,355.75C717.55,357.39 720.95,357.33 733.3,355.44ZM719,352.17C719,350.55 720.07,350.2 727.03,349.52C734.1,348.83 733.55,350.27 726.34,351.36C724.05,351.71 721.46,352.27 720.59,352.6C719.71,352.94 719,352.74 719,352.17ZM627.62,349.48C625.79,347.64 625.68,347.05 626.87,345.18C627.47,344.23 628.05,344.72 628.99,346.96C630.5,350.62 629.89,351.75 627.62,349.48ZM245.77,344.66C257.16,338.99 283.74,329.01 298.5,324.84C302.9,323.6 306.63,322.51 306.78,322.43C307.29,322.14 294.92,278.25 287.86,255.29C286.96,252.36 286.58,252.13 283.68,252.63C279.18,253.41 249.14,263.51 239,267.66C226.46,272.79 216,278.96 216,281.24C216,282.28 218.75,292.66 222.11,304.31C225.48,315.97 228.57,326.85 228.98,328.5C229.6,330.96 232.98,342.65 234.55,347.75C235.14,349.67 236.37,349.33 245.77,344.66ZM613.81,348.32C614.53,348.03 615.4,348.06 615.73,348.4C616.06,348.73 615.47,348.96 614.42,348.92C613.25,348.87 613.01,348.64 613.81,348.32ZM735.08,348.63C735.31,348.43 737.3,347.96 739.5,347.6C742.37,347.12 743.07,347.22 742,347.95C740.65,348.87 734.08,349.52 735.08,348.63ZM717.07,344.13C715.68,341.53 715.69,338.87 717.08,341.25C717.64,342.21 718.79,343 719.63,343C720.48,343 720.99,343.53 720.77,344.19C720.09,346.24 718.18,346.2 717.07,344.13ZM236.12,333.84C234.95,328.8 234.19,324.47 234.44,324.22C234.7,323.97 235.2,325.05 235.57,326.63C236.93,332.5 239.25,339 239.99,339C240.41,339 242.68,338.32 245.03,337.49C247.39,336.66 249.45,336.11 249.61,336.28C249.78,336.45 247.29,338.03 244.09,339.79L238.26,342.99L236.12,333.84ZM322,339.53C322,338.64 322.59,338.29 323.5,338.64C324.32,338.95 325,339.62 325,340.11C325,340.6 324.32,341 323.5,341C322.68,341 322,340.34 322,339.53ZM714.59,337.38C713.79,335.29 714.04,335.08 716.35,335.92C717.95,336.51 718,336.75 716.71,337.82C715.52,338.82 715.11,338.73 714.59,337.38ZM781,338.03C781,336.67 782.78,335.83 783.43,336.88C783.74,337.38 783.32,338.05 782.49,338.36C781.67,338.68 781,338.53 781,338.03ZM857.05,332.41C855.77,328.99 855.28,326.32 855.82,325.78C856.36,325.24 857.36,327.41 858.31,331.16C859.18,334.62 859.73,337.6 859.54,337.79C859.35,337.98 858.23,335.56 857.05,332.41ZM712.17,331.06C711.52,329.2 711.21,327.46 711.47,327.2C712.14,326.53 714.14,332.07 713.71,333.37C713.51,333.96 712.82,332.92 712.17,331.06ZM850.21,331.97C848.77,329.66 848.7,329 849.88,329C850.69,329 852.25,333.08 851.67,333.66C851.54,333.8 850.88,333.04 850.21,331.97ZM363.38,325.88C362.14,325.39 363.12,325.12 366.25,325.07C368.86,325.03 371,325.17 371,325.39C371,326.2 365.16,326.58 363.38,325.88ZM475.43,321.25C475.1,319.74 474.21,316.48 473.46,314C472.71,311.52 471.23,306.12 470.17,302C466.48,287.6 456.95,257.52 455.73,256.43C454.24,255.11 435.22,250.41 425.5,248.97C400.2,245.21 376,243.15 376,244.75C376,245.16 379.36,257.43 383.46,272C387.56,286.57 391.76,301.65 392.79,305.5L394.66,312.5L403.08,313.27C414.55,314.33 442.8,318.52 458,321.43C464.88,322.74 471.75,323.86 473.27,323.91C475.78,323.99 475.98,323.75 475.43,321.25ZM167,303.43C179.95,293.88 189.81,287.27 200.5,280.97C205.45,278.06 209.62,275.58 209.78,275.48C210.13,275.23 205.6,258.91 202.43,249C201.12,244.88 197.78,233.65 195.03,224.06C192.27,214.47 189.6,206.2 189.09,205.69C188.53,205.13 185.15,206.43 180.35,209.08C170.96,214.27 143.73,232.48 136.2,238.62C133.23,241.03 130.11,243.4 129.25,243.88C127.65,244.78 129.06,251.35 136.6,278C137.93,282.68 140.6,292.35 142.55,299.5C144.5,306.65 146.57,313.98 147.14,315.8L148.19,319.1L152.84,314.77C155.4,312.38 161.78,307.28 167,303.43ZM297.26,316.31C298.19,315.38 299.23,314.9 299.58,315.24C300.56,316.23 299.05,318 297.23,318C295.7,318 295.7,317.87 297.26,316.31ZM467.38,317.2C466.79,316.81 466.03,314.74 465.69,312.59C464.99,308.12 466.17,308.85 467.87,313.91C469.11,317.62 469.01,318.26 467.38,317.2ZM461.81,315.32C462.53,315.03 463.4,315.06 463.73,315.4C464.06,315.73 463.47,315.96 462.42,315.92C461.25,315.87 461.01,315.64 461.81,315.32ZM295.5,310C295.84,309.45 296.54,309 297.06,309C297.58,309 298,309.45 298,310C298,310.55 297.3,311 296.44,311C295.58,311 295.16,310.55 295.5,310ZM151.27,306.5C150.6,304.85 149.58,301.48 149.01,299C148.44,296.52 147.35,291.91 146.58,288.75C144.19,278.94 146.51,282.43 149.94,293.8C151.73,299.73 153.04,305.7 152.85,307.05C152.51,309.46 152.48,309.45 151.27,306.5ZM736.81,291.32C737.53,291.03 738.4,291.06 738.73,291.4C739.06,291.73 738.47,291.96 737.42,291.92C736.25,291.87 736.01,291.64 736.81,291.32ZM740.81,290.32C741.53,290.03 742.4,290.06 742.73,290.4C743.06,290.73 742.47,290.96 741.42,290.92C740.25,290.87 740.01,290.64 740.81,290.32ZM676.76,287.42C681.85,287.07 686.17,286.5 686.37,286.14C686.57,285.79 681.95,271.32 676.11,254L665.5,222.5L657.5,222.3C632.91,221.67 617.58,220.82 610.25,219.68L602,218.41L602,220.65C602,224.57 620.13,282.25 622.12,284.64C623.78,286.64 650.43,289.16 662,288.41C665.02,288.22 671.67,287.77 676.76,287.42ZM223,283.52C223,282.83 230.95,278.87 234.24,277.93C235.93,277.45 236.81,277.5 236.46,278.06C236.14,278.58 235.46,279 234.94,279C234.42,279 231.66,280.12 228.81,281.5C223.28,284.16 223,284.26 223,283.52ZM646.5,283.25C642.11,283.06 638.06,282.42 637.5,281.82C636.79,281.05 637.65,280.92 640.5,281.36C642.7,281.7 647.54,281.98 651.25,281.99C655.08,282 658,282.43 658,283C658,283.55 657.21,283.91 656.25,283.8C655.29,283.69 650.9,283.44 646.5,283.25ZM627,281C625.86,280.26 626.28,280.03 628.75,280.02C630.54,280.01 632,280.45 632,281C632,282.27 628.97,282.27 627,281ZM539.6,269.25C539.31,268.29 537.3,260.98 535.15,253C532.99,245.03 529.1,231.3 526.49,222.5C523.88,213.7 521.53,205.72 521.26,204.76C520.98,203.75 519.08,202.56 516.74,201.93C514.53,201.33 506.14,198.82 498.11,196.35C481.6,191.27 478.6,190.43 457.07,184.88C448.59,182.69 441.28,180.67 440.82,180.39C439.55,179.6 439.73,180.59 443.97,197.06C448.21,213.55 449.66,218.58 455.67,237.67L459.5,249.83L466,251.56C469.57,252.51 481.05,255.73 491.5,258.72C513.48,265 535.69,270.78 538.32,270.91C539.6,270.97 539.98,270.49 539.6,269.25ZM782.57,264.69C788.66,262.2 796.31,258.73 799.57,256.97C820.18,245.84 829,240.64 829,239.63C829,239 826.49,231.51 823.41,222.99C820.34,214.47 815.61,201.2 812.9,193.5C810.19,185.8 807.79,178.97 807.55,178.33C807.28,177.6 799.87,180.81 787.68,186.93C776.99,192.3 763.42,198.46 757.52,200.6C751.62,202.75 746.56,205.06 746.29,205.76C745.73,207.14 749.49,217.87 760.61,246.58C764.68,257.07 768,266.33 768,267.16C768,269.08 769.09,270.18 770.45,269.64C771.03,269.41 776.48,267.18 782.57,264.69ZM528,262C527,261.35 526.92,261.03 527.75,261.02C528.44,261.01 529.01,260.21 529.02,259.25C529.03,257.75 529.17,257.72 530,259C532.08,262.22 530.96,263.91 528,262ZM771.36,261.5C771.03,260.63 771.02,259.65 771.34,259.33C772.2,258.47 780,257.16 779.99,257.88C779.99,258.22 778.18,259.53 775.98,260.79C772.47,262.79 771.89,262.88 771.36,261.5ZM769.41,252.86C769.07,252.31 768.96,251.74 769.15,251.58C769.83,251.02 779,248.13 779,248.48C779,249.56 769.93,253.7 769.41,252.86ZM133.64,248.5C133.32,247.68 133.5,247 134.03,247C134.56,247 135,247.68 135,248.5C135,249.32 134.82,250 134.61,250C134.39,250 133.95,249.32 133.64,248.5ZM140.25,246.85C139.6,245.12 139.3,243.32 139.59,242.85C140.72,241.02 141.51,242.18 141.73,246.01C141.85,248.2 141.84,250 141.7,250C141.55,250 140.9,248.58 140.25,246.85ZM312,242.67C341.26,239.48 347.3,239 358.36,239L369.65,239L364.93,221.25C362.33,211.49 359.22,200.12 358.01,196C356.81,191.88 355.13,185.8 354.28,182.5C353.43,179.2 352.23,174.7 351.62,172.5L350.5,168.5L334.5,168.19C325.7,168.02 313.32,168.38 307,168.99C294.52,170.18 272.99,173.85 271.7,174.99C270.73,175.85 275.48,195.16 281.55,215C283.98,222.97 286.99,232.97 288.22,237.22C290.5,245.09 291.63,246.29 295.5,244.94C296.6,244.56 304.02,243.54 312,242.67ZM146.62,241.81C146.14,240.79 145.21,240.37 144.24,240.74C143.21,241.13 143.42,240.58 144.86,239.14C147.69,236.31 173.9,219 175.35,219C176.62,219 175.3,219.92 164.75,226.43C159.34,229.77 157,231.8 157,233.17C157,234.66 156.53,234.99 155.05,234.51C152.03,233.56 148.17,236.64 147.76,240.33C147.49,242.76 147.22,243.11 146.62,241.81ZM461.74,239.43C461.23,236.77 461.94,236.34 463.8,238.2C465.37,239.77 465.32,240.66 463.6,241.32C462.7,241.67 462.04,241 461.74,239.43ZM293.7,237.25C292.97,233.4 293.58,233.28 295.45,236.91C296.78,239.48 296.81,240 295.64,240C294.87,240 294,238.76 293.7,237.25ZM820.72,236.86C819.05,232.83 817.79,228 818.41,228C819.12,228 823.12,239.21 822.59,239.74C822.33,240 821.49,238.71 820.72,236.86ZM298.5,238.19C299.05,237.62 301.75,236.88 304.5,236.53C310.73,235.73 308.55,237.45 302,238.49C298.94,238.98 297.82,238.88 298.5,238.19ZM459.61,232.42C458.46,229.44 459,228.65 460.87,230.58C461.9,231.63 462.55,232.84 462.31,233.25C461.59,234.5 460.25,234.09 459.61,232.42ZM291.57,229.43C291.2,227.96 291.1,226.57 291.33,226.34C291.57,226.1 292.06,227.11 292.43,228.57C292.8,230.04 292.9,231.43 292.67,231.66C292.43,231.9 291.94,230.89 291.57,229.43ZM685,212.96C699.35,211.36 719.42,207.24 729.5,203.82C734.45,202.14 738.61,200.68 738.74,200.56C738.88,200.44 736.14,192.73 732.65,183.42C722.35,155.91 717,141.1 717,140.08C717,137.9 714.56,138.07 704.78,140.9C691.62,144.7 670.49,148.8 656.75,150.2C650.84,150.8 646,151.64 646,152.07C646,152.49 647.84,157.93 650.09,164.17C652.33,170.4 657.12,184.05 660.71,194.5C664.31,204.95 667.72,213.8 668.29,214.16C668.86,214.52 670.72,214.64 672.41,214.42C674.11,214.2 679.77,213.54 685,212.96ZM591.72,203.75C583.97,178.75 574.75,150.43 574.16,149.82C573.8,149.44 567.69,148.19 560.59,147.04C553.48,145.89 538.22,142.72 526.66,139.99C515.1,137.26 505.48,135.19 505.28,135.39C505.08,135.58 506,139.07 507.32,143.12C508.65,147.18 510.66,153.65 511.79,157.5C512.93,161.35 516.14,171.77 518.94,180.66L524.03,196.81L530.76,198.85C536.27,200.52 558.07,205.62 586,211.77C595.28,213.81 594.97,214.24 591.72,203.75ZM671.48,207.98C670.7,206.7 672.26,206.16 674.45,206.96C676.3,207.63 676.29,207.69 674.2,208.24C672.99,208.55 671.77,208.44 671.48,207.98ZM584,205C582.72,204.17 582.75,204.03 584.25,204.02C585.21,204.01 586,204.45 586,205C586,206.22 585.89,206.22 584,205ZM667.67,196.33C667.3,195.97 667,195.01 667,194.21C667,193.03 667.28,192.99 668.5,194C669.33,194.68 670,195.64 670,196.12C670,197.16 668.62,197.28 667.67,196.33ZM729.81,196.32C730.53,196.03 731.4,196.06 731.73,196.4C732.06,196.73 731.47,196.96 730.42,196.92C729.25,196.87 729.01,196.64 729.81,196.32ZM201.01,192.48C211.91,187 244.66,175.38 257.46,172.45C261.29,171.58 264.74,170.66 265.14,170.42C265.53,170.17 265.49,168.74 265.05,167.24C254.58,131.68 250.41,117.17 248.91,111.13C247.91,107.08 246.9,103.56 246.65,103.32C246.15,102.81 225.38,108.73 222.77,110.12C221.82,110.63 214.62,113.29 206.77,116.03C198.92,118.77 188.29,123.04 183.14,125.51C172.48,130.64 173.11,128.68 177.44,143.5C184.63,168.1 190.08,187.07 191.18,191.25C192.57,196.59 192.77,196.62 201.01,192.48ZM448.71,191C448.15,188.86 449.2,188.58 452.5,190C454.21,190.73 454.25,190.87 452.75,190.93C451.79,190.97 451,191.45 451,192C451,193.81 449.24,193.04 448.71,191ZM797,190.5C797,189.68 797.45,189 798,189C798.55,189 799,189.68 799,190.5C799,191.32 798.55,192 798,192C797.45,192 797,191.32 797,190.5ZM803.67,188.33C803.3,187.97 803,187.2 803,186.63C803,186.01 803.47,186.07 804.18,186.78C804.83,187.43 805.13,188.2 804.85,188.48C804.57,188.77 804.03,188.7 803.67,188.33ZM195,186.44C195,185.58 195.46,185.16 196.02,185.51C196.58,185.86 196.77,186.56 196.46,187.07C195.6,188.46 195,188.2 195,186.44ZM665.08,186.42C665.13,185.25 665.36,185.01 665.68,185.81C665.97,186.53 665.94,187.4 665.6,187.73C665.27,188.06 665.04,187.47 665.08,186.42ZM209,182.17C209.82,181.66 211.62,180.94 213,180.57C214.74,180.11 215.04,180.19 214,180.83C213.18,181.34 211.38,182.06 210,182.43C208.26,182.89 207.96,182.81 209,182.17ZM278.5,181C278.14,180.42 279.07,180.01 280.69,180.02C282.87,180.03 283.16,180.25 282,181C280.08,182.24 279.27,182.24 278.5,181ZM193.08,178.42C193.13,177.25 193.36,177.01 193.68,177.81C193.97,178.53 193.94,179.4 193.6,179.73C193.27,180.06 193.04,179.47 193.08,178.42ZM662,179C662,178.45 662.45,178 663,178C663.55,178 664,178.45 664,179C664,179.55 663.55,180 663,180C662.45,180 662,179.55 662,179ZM346,174.94C346,174.36 346.45,174.16 347,174.5C347.55,174.84 348,175.32 348,175.56C348,175.8 347.55,176 347,176C346.45,176 346,175.52 346,174.94ZM432.9,171.75C432.36,169.96 429.27,158.82 426.02,147C417.02,114.28 415.58,109.91 413.43,108.7C409.24,106.36 366.85,98.64 351.5,97.43C348.2,97.17 343.14,96.74 340.25,96.47C333.85,95.88 333.86,95.77 337.91,109.58C340.36,117.93 346.55,140.02 351.47,158L352.7,162.5L360.1,163.23C381.25,165.3 388.2,166.21 400.72,168.52C408.25,169.91 416.9,171.68 419.95,172.45C425.77,173.93 429.37,174.64 432.18,174.86C433.62,174.98 433.72,174.53 432.9,171.75ZM191.08,169.42C191.13,168.25 191.36,168.01 191.68,168.81C191.97,169.53 191.94,170.4 191.6,170.73C191.27,171.06 191.04,170.47 191.08,169.42ZM189,163.03C189,161.68 189.48,161.25 190.53,161.65C191.7,162.1 191.79,162.55 190.9,163.62C189.36,165.47 189,165.36 189,163.03ZM655.5,163C655.16,162.45 655.36,162 655.94,162C656.52,162 657,162.45 657,163C657,163.55 656.8,164 656.56,164C656.32,164 655.84,163.55 655.5,163ZM187,155.38C187,153.3 187.28,152.99 188.34,153.87C189.08,154.48 189.98,154.69 190.34,154.32C190.7,153.96 191,154 191,154.4C191,155.27 188.4,158 187.57,158C187.26,158 187,156.82 187,155.38ZM714.64,153.5C714.95,152.68 715.34,152 715.5,152C715.66,152 716.05,152.68 716.36,153.5C716.71,154.4 716.37,155 715.5,155C714.63,155 714.29,154.4 714.64,153.5ZM687.75,151.34C688.44,151.06 689.56,151.06 690.25,151.34C690.94,151.62 690.38,151.84 689,151.84C687.62,151.84 687.06,151.62 687.75,151.34ZM693.5,150.12C696.31,148.82 710.49,145 712.5,145C713.42,145 713.98,145.56 713.76,146.25C713.53,146.95 710.08,148 705.92,148.64C701.84,149.26 696.92,150.06 695,150.41C692.46,150.87 692.05,150.8 693.5,150.12ZM185,147.61C185,146.84 185.71,145.94 186.58,145.61C189.57,144.46 190.31,145 188.5,147C186.39,149.34 185,149.58 185,147.61ZM514.54,145.25C513.72,143.12 514.14,142.97 516.87,144.43C519.18,145.66 519.18,145.72 517.19,146.24C515.88,146.58 514.91,146.22 514.54,145.25ZM182.5,140C181.77,138.82 184.34,137.61 186.21,138.24C187.04,138.51 186.72,139.08 185.31,139.84C183.87,140.61 182.91,140.66 182.5,140ZM181,134C181,132.77 181.68,131.99 182.75,131.97C184.47,131.94 186.06,131.4 202.91,125.19C207.53,123.48 210.89,122.51 210.37,123.03C209,124.4 187.29,134 185.57,134C184.77,134 183.84,134.45 183.5,135C182.45,136.69 181,136.11 181,134ZM346,113C346,111.85 348.4,111.85 352,113C354.12,113.68 353.86,113.82 350.25,113.9C347.91,113.96 346,113.55 346,113ZM388.81,110.32C389.53,110.03 390.4,110.06 390.73,110.4C391.06,110.73 390.47,110.96 389.42,110.92C388.25,110.87 388.01,110.64 388.81,110.32ZM376.5,109L374.5,108.14L376.5,108.09C377.6,108.06 379.18,108.47 380,109C381.33,109.86 381.33,109.96 380,109.91C379.18,109.88 377.6,109.47 376.5,109ZM371.8,108.47C371.51,108.18 366.82,107.69 361.38,107.39C352.64,106.9 348.2,106.16 343,104.32C341.8,103.89 341.89,103.64 343.43,103.07C346.88,101.78 374,106.58 374,108.48C374,109.16 372.49,109.15 371.8,108.47Z"/>
</svg>
