<?xml version="1.0" encoding="UTF-8" standalone="no"?>
<!DOCTYPE svg PUBLIC "-//W3C//DTD SVG 1.1//EN" "http://www.w3.org/Graphics/SVG/1.1/DTD/svg11.dtd">
<svg width="100%" height="100%" viewBox="0 0 1024 1024" version="1.1" xmlns="http://www.w3.org/2000/svg" xmlns:xlink="http://www.w3.org/1999/xlink" xml:space="preserve" xmlns:serif="http://www.serif.com/" style="fill-rule:evenodd;clip-rule:evenodd;stroke-linejoin:round;stroke-miterlimit:2;">
    <g transform="matrix(0.926713,0,0,0.936684,37.2409,32.2456)">
        <path d="M491.5,1022.42C473.63,1021.12 458.41,1019.78 451.5,1018.91C377.71,1009.65 301.4,982.02 240.5,942.51C205.54,919.83 180.93,899.97 151.93,871.03C70.85,790.13 20.85,691.06 5.06,580C-3.52,519.71 0.58,448.57 16.02,389.5C30.55,333.96 51.67,285.15 81.69,237.76C122.39,173.52 182.47,114.51 246.72,75.65C361.02,6.54 499.63,-15.47 628,15.12C668.86,24.85 704.67,37.94 743,57.14C786.46,78.92 819.64,101.99 860.27,138.71C893.86,169.05 929.54,214.02 954.54,257.5C974.54,292.3 993.12,336.39 1003.95,374.83C1020.02,431.82 1026.67,490.7 1022.95,543C1019.26,594.69 1006.67,650.86 988.77,695.5C938.58,820.57 838.75,924.35 716.5,978.51C671,998.66 617.79,1013.49 571.5,1018.92C548.29,1021.64 506.07,1023.49 491.5,1022.42ZM518.8,996.26C513.47,996.08 504.47,996.07 498.8,996.25C493.14,996.43 497.5,996.58 508.5,996.58C519.5,996.58 524.14,996.43 518.8,996.26ZM479,994.86C474.32,994.41 468.25,993.88 465.5,993.69C459.59,993.28 442.19,991.17 436.51,990.17C433.99,989.73 432.41,988.87 432.21,987.83C431.94,986.44 432.81,986.24 438.2,986.48C446.49,986.85 469.82,989.01 473,989.7C474.38,990 479.02,990.2 483.33,990.14C487.63,990.08 493.03,990.43 495.33,990.93C497.65,991.43 505.26,991.49 512.5,991.07L525.5,990.31L513.5,990.14C495.81,989.9 469.3,988.23 454.5,986.42C371.55,976.26 291.56,943.79 223.5,892.64C200.64,875.46 164.63,841.45 145.53,819C75.7,736.95 37.31,642.01 31.77,537.68C27.06,448.99 49.38,356.53 94.71,276.96C126.06,221.94 159.57,182.04 209,140.9C235.3,119.01 276.89,92.95 310.26,77.46C344.33,61.64 387.37,48.05 427,40.61C491.27,28.55 564.43,31.2 631,48.01C699.34,65.26 768.58,101.05 822.56,147.02C838.85,160.9 873.3,195.83 884.17,209.5C942.55,282.91 978.39,368.44 990.21,462.5C991.98,476.56 992.36,485.04 992.4,511.5C992.46,543.72 992,550.73 987.88,581C983.94,609.99 975.04,644.49 963.51,675.5C956.4,694.63 940.23,728.93 930.51,745.5C893.49,808.6 840.53,865.54 781,906.24C722.2,946.45 655.72,972.9 584.5,984.45L575.5,985.91L583.5,985.38C587.9,985.09 594.34,984.21 597.81,983.43C605.12,981.78 609.64,981.6 610.46,982.94C611.4,984.45 605.24,986.82 595,988.89C589.77,989.95 586.44,990.86 587.59,990.91C590.03,991.01 615.6,985.94 628,982.89C662.3,974.46 702.54,959.3 733,943.32C778.39,919.52 816,892.56 849.89,859.53C926.97,784.41 973.41,699.46 992.42,598.79C1003.45,540.42 1003.28,483.24 991.92,425C979.02,358.85 953.62,296.75 917.04,241.91C877.68,182.91 826.32,133.27 767.14,97.04C717.68,66.76 666.24,46.56 609.5,35.13C575.06,28.19 556.85,26.12 523.5,25.33C476.81,24.22 436.84,28.77 389.5,40.58C372.52,44.81 336.44,57.34 316.5,65.92C244.7,96.82 172.56,153.1 126.7,214C94.99,256.12 68.25,305.29 51.93,351.53C26.18,424.48 18.12,500.35 28.02,576.5C41.99,683.99 95.49,786.18 178.72,864.33C202.83,886.97 220.06,900.6 245.77,917.36C274.89,936.34 293.04,945.99 326,960.03C364.36,976.37 418.04,990.44 455.5,993.97C461.55,994.54 468.07,995.16 470,995.35C471.93,995.53 476.65,995.68 480.5,995.69L487.5,995.69L479,994.86ZM545.25,995.29C544.01,995.06 541.99,995.06 540.75,995.29C539.51,995.53 540.52,995.73 543,995.73C545.48,995.73 546.49,995.53 545.25,995.29ZM568.25,993.34C567.56,993.06 566.44,993.06 565.75,993.34C565.06,993.62 565.62,993.84 567,993.84C568.38,993.84 568.94,993.62 568.25,993.34ZM576.27,992.34C575.59,992.07 574.24,992.05 573.27,992.31C572.3,992.56 572.85,992.78 574.5,992.81C576.15,992.83 576.95,992.62 576.27,992.34ZM583.76,991.31C582.81,991.06 581.01,991.05 579.76,991.29C578.52,991.53 579.3,991.74 581.5,991.75C583.7,991.76 584.72,991.56 583.76,991.31ZM540.25,989.29C539.01,989.06 536.99,989.06 535.75,989.29C534.51,989.53 535.52,989.73 538,989.73C540.48,989.73 541.49,989.53 540.25,989.29ZM553.75,988.31C552.79,988.06 551.21,988.06 550.25,988.31C549.29,988.56 550.08,988.77 552,988.77C553.92,988.77 554.71,988.56 553.75,988.31ZM571,987.05C574.37,986.45 574.75,986.23 572.5,986.18C570.85,986.15 567.7,986.49 565.5,986.94C560.24,988.03 564.97,988.12 571,987.05ZM617,981.61C617,981.39 617.7,980.95 618.55,980.62C619.44,980.28 619.84,980.44 619.49,981.01C618.91,981.96 617,982.42 617,981.61ZM383.14,978.63C380.08,977.52 379.94,977.3 381.49,976.01C382.97,974.78 383.31,974.81 384.12,976.26C384.63,977.17 385.72,977.66 386.53,977.35C387.34,977.04 388,977.31 388,977.95C388,978.59 388.45,978.84 389,978.5C389.55,978.16 390,978.36 390,978.94C390,980.29 387.41,980.18 383.14,978.63ZM639,977.43C639,976.3 641.54,974.35 643.77,973.77C645.52,973.31 645.98,973.56 645.77,974.84C645.62,975.75 645.05,976.83 644.5,977.23C643.32,978.1 639,978.25 639,977.43ZM647,975.02C647,973.14 650.29,970.99 652.86,971.19C654.34,971.3 656.11,971.05 656.78,970.64C657.54,970.17 658,970.47 658,971.44C658,972.3 657.66,973 657.25,973.01C656.84,973.02 654.36,973.67 651.75,974.46C649.14,975.26 647,975.51 647,975.02ZM344.01,965C342.81,964.26 343.71,961 345.11,961C346.19,961 346.3,962.67 345.25,963.25C344.84,963.48 345.03,963.55 345.67,963.4C346.31,963.25 347.05,963.7 347.32,964.4C347.84,965.74 345.81,966.12 344.01,965ZM531.4,917.35L539.1,916.7L538.5,908.5L512.45,908.43C498.12,908.39 485.91,908.06 485.31,907.69C484.11,906.95 483.03,910 483.01,914.2C483,916.84 483.16,916.92 489.75,917.26C502.98,917.94 523.82,917.99 531.4,917.35ZM436.83,905.78C437.42,903.46 437.75,901.42 437.58,901.25C437.41,901.07 430.79,899.4 422.88,897.53C410.31,894.56 392.49,889.5 388,887.61C386.93,887.16 385.92,888.25 384.44,891.43L382.39,895.88L390.44,898.39C400.48,901.5 427.01,908.33 435.13,909.88C435.47,909.95 436.24,908.1 436.83,905.78ZM607.53,905.03C613.6,903.5 623.81,900.61 630.23,898.6L641.91,894.96L639.77,891.23C638.6,889.18 637.54,887.36 637.42,887.18C637.3,887.01 632.09,888.49 625.85,890.46C619.61,892.44 607.92,895.66 599.88,897.62L585.26,901.18L586.27,905.18L587.29,909.18L591.89,908.5C594.43,908.12 601.46,906.56 607.53,905.03ZM346.3,875.13L348.86,871.25L340.68,867.44C332.56,863.67 310.82,851.95 305.97,848.74C303.5,847.1 303.39,847.13 300.72,850.48C299.23,852.36 298,854.08 298,854.3C298,855.57 340.58,878.84 343.12,878.97C343.46,878.99 344.89,877.26 346.3,875.13ZM682.76,877.05C683.72,876.53 690.35,873.22 697.5,869.69C712.49,862.29 729.24,852.78 729.7,851.39C729.88,850.87 728.78,848.98 727.26,847.19L724.5,843.93L719.5,847.32C716.75,849.18 705.95,855.12 695.5,860.52C685.05,865.91 676.36,870.44 676.18,870.57C675.85,870.81 680.27,877.96 680.76,877.99C680.91,877.99 681.81,877.57 682.76,877.05ZM553,834.08C580.86,830.43 609.25,823.07 632.81,813.38C678.82,794.45 721.26,764.62 754.96,727.52C764.47,717.05 775.81,703.19 771.95,706.75C771.21,707.44 766.903,709.084 767.91,708C829.652,641.552 782.595,680.439 756.747,688.505C703.183,705.219 753.773,707.339 748.915,712.605C724.815,738.745 709.25,763.34 682,780.82C670.9,787.94 642.3,802.91 631.67,807.16C567.73,832.74 502.25,837.53 434.76,821.58C394.66,812.11 344.81,787.54 312.24,761.19C308.45,758.12 299.56,755.1 298.24,756.43C298.01,756.66 302.69,760.73 308.66,765.48C360.76,806.91 423.12,831.36 488.5,836C505.52,837.21 536,836.3 553,834.08ZM779.37,811.23C786.99,804.23 794.96,796.43 797.08,793.91L800.92,789.32L798,787.16C796.39,785.97 794.66,785 794.13,785C793.61,785 790.11,788.2 786.34,792.11C782.58,796.03 773.97,804.2 767.22,810.27L754.94,821.31L758.22,824.04C762.22,827.38 760.92,828.17 779.37,811.23ZM265.71,823.09L267.92,820.28L259.21,812.93C254.42,808.89 247.22,802.43 243.22,798.59L235.94,791.6L229.5,798.12L236.02,804.31C245.65,813.46 260.89,826.01 262.28,825.94C262.95,825.91 264.49,824.63 265.71,823.09ZM644.694,791.138C646.842,780.985 865.18,691.495 553.69,742.36C553.369,742.412 547.48,742.71 540.39,743.63C530.47,744.94 520.01,745.31 495,745.27C457.34,745.21 436.62,743.94 426,741.03C414.04,737.75 410.85,737.27 379.86,734C343.77,730.2 314.64,726.86 284.5,723.07C271.85,721.48 258.12,720.21 254,720.26C248.26,720.32 242.63,719.35 230.01,716.12C212.91,711.75 207.74,709.61 207.18,706.67C206.9,705.25 207.48,705.38 210.56,707.48C214.32,710.03 216.59,710.76 215.56,709.09C214.56,707.48 216.15,705 218.18,705C220.54,705 229,710.64 229,712.21C229,712.83 229.26,713.08 229.57,712.76C229.88,712.45 229.36,709.11 228.41,705.35C227.46,701.58 226.68,697.94 226.68,697.25C226.66,695.5 225.56,695.65 216.74,698.59C207.86,701.54 205.77,703.18 206.2,706.84C206.7,711.11 211.58,713.34 230.62,718.01C244.99,721.54 247.69,725.268 241.722,726.803C230.916,729.583 256.491,735.666 271.521,737.566C296.251,740.696 324.033,773.316 383.203,779.786C394.533,781.016 407.949,798.65 422.95,802.731C429.373,804.479 459.436,810.226 468.649,807.981C471.523,807.28 503.595,811.413 512,808.275C540.862,797.5 640.217,812.304 644.694,791.138ZM195.4,738.81C195.89,738.42 194.92,736.54 193.24,734.63C189.1,729.91 178.29,713.38 172.57,703.03C169.99,698.37 167.73,694.39 167.53,694.2C167.33,694 165.38,694.88 163.18,696.14L159.18,698.44L161.24,702.47C165.03,709.93 175.26,726.43 181.86,735.74L188.41,744.98L191.46,742.25C193.13,740.74 194.9,739.2 195.4,738.81ZM840.17,739.25C844.65,733.31 858.72,712.13 862.49,705.65C865.55,700.39 865.63,700.62 859.54,697.33C857.46,696.21 856.48,696.07 856.2,696.89C855.32,699.54 842.68,719.58 836.15,728.68L829.1,738.5L832.07,741.25C833.7,742.76 835.38,744 835.81,744C836.24,744 838.2,741.86 840.17,739.25ZM589.56,719.1C593.93,714.49 596.72,711.12 595.77,711.63C593.86,712.65 576,731.8 576,732.82C576,733.17 577.26,732.12 578.81,730.48C580.36,728.84 585.19,723.72 589.56,719.1ZM393.42,712.75C393.02,704.91 392.33,697.38 391.87,696C391.03,693.44 391.61,713.54 392.63,722.25C393.73,731.61 394.13,726.75 393.42,712.75ZM648.61,722.38C660.41,716.78 669,691.95 668.98,663.5C668.96,630.27 655.2,605.82 639.44,611.02C625.59,615.59 616.68,638.59 616.61,670C616.58,682.05 616.97,686.02 618.91,693.5C625.32,718.17 635.87,728.43 648.61,722.38ZM570.17,718.2C576.33,714.4 585.93,703.37 591.46,693.75C595.35,686.99 594.01,687.87 589.2,695.25C583.25,704.37 573.64,714.51 568.69,716.91C565.07,718.66 562.34,719.02 551.93,719.12C543.48,719.2 540.46,719.5 542.5,720.06C544.15,720.51 550.26,720.77 556.09,720.62C564.9,720.41 567.26,720 570.17,718.2ZM634.28,717.09C623.72,709.44 617.98,692.67 618.02,669.62C618.03,659.49 619.94,644.79 622.12,638.08C623.74,633.07 627.83,625.1 630.75,621.27C636.13,614.2 644.29,612.05 650.75,615.99C655.06,618.62 660.38,627.1 663.44,636.24C671.99,661.68 666.12,702.19 651.98,715.42C647.7,719.42 646.53,720 642.69,720C639.43,720 637.27,719.25 634.28,717.09ZM643.99,709.69C643.96,704.19 641.07,693.92 637.85,687.88C634.85,682.24 634.61,679 637.21,679C639.1,679 651.43,692.2 652.93,695.84C654.29,699.11 656,700.07 656,697.57C656,694.44 653.85,690.89 647.81,684C644.34,680.04 640.94,675.83 640.26,674.65C639.28,672.94 639.03,672.84 639.01,674.19C639,676.01 635.4,679 633.23,679C629.16,679 627.33,661.67 631,658C633.46,655.54 634.74,655.49 637.42,657.75C639.5,659.5 639.5,659.5 637.6,657.25C635.17,654.38 631.56,654.37 629.56,657.22C627.43,660.26 627.46,672.05 629.6,676.2C631.07,679.03 631.07,679.24 629.6,678.68C627.35,677.81 627.56,678.25 631.25,682.17C635.43,686.61 639.74,697.17 641.2,706.54C642.34,713.87 644.01,715.77 643.99,709.69ZM251,712C250.18,711.47 249.05,711.03 248.5,711.03C247.95,711.03 248.18,711.47 249,712C249.82,712.53 250.95,712.97 251.5,712.97C252.05,712.97 251.82,712.53 251,712ZM630.51,688.27C630.03,684.42 629.54,683.12 628.92,684.09C627.84,685.81 627.74,695.43 628.72,704.1L629.45,710.5L630.33,702.18C630.82,697.61 630.9,691.35 630.51,688.27ZM651.72,700.39C651.26,699.93 646,707.51 646,708.63C646,709 647.38,707.39 649.07,705.06C650.76,702.72 651.96,700.62 651.72,700.39ZM714.5,689.04C720.55,686.95 731.8,682.87 739.5,679.98C747.2,677.08 761.83,671.89 772,668.43C782.17,664.98 789.78,662.12 788.9,662.08C785.4,661.91 680.98,698.92 678.5,701.2C677.95,701.71 683.35,700.04 690.5,697.48C697.65,694.92 708.45,691.13 714.5,689.04ZM566.57,697.22C573.19,693.83 580.83,687.1 585.38,680.65C590.66,673.15 597.01,661.82 596.99,659.9C596.98,659.13 594.84,662.26 592.24,666.85C585.96,677.94 579.76,685.49 572.29,691.15C565.07,696.62 559.96,698 546.95,698C540.89,698 538,698.37 538,699.15C538,699.97 541.42,700.14 550.32,699.76C559.94,699.34 563.5,698.79 566.57,697.22ZM658.45,683.54C660.66,675.05 660.53,672.05 658,672.71C656.9,673 655.99,673.74 655.98,674.37C655.97,674.99 655.52,678.57 654.97,682.33C653.39,693.25 655.71,694.05 658.45,683.54ZM716.08,681.03C732.39,675.36 738.12,672.96 731.5,674.56C727.72,675.47 704.08,683.63 699.74,685.51C692.41,688.7 699.94,686.63 716.08,681.03ZM223,684.8C220.53,684.28 217.6,683.66 216.5,683.43C211.3,682.35 211.29,681.12 216.44,676.49C219.16,674.05 221.18,671.85 220.93,671.59C220.67,671.34 218.06,673.36 215.12,676.07C210.65,680.21 209.97,681.26 211.01,682.51C212.67,684.51 217.49,685.83 223,685.79L227.5,685.76L223,684.8ZM707.5,680.95C709.13,680.34 709.22,680.09 707.98,679.58C707.15,679.24 704,679.84 700.98,680.92L695.5,682.87L700.5,682.29C703.25,681.96 706.4,681.36 707.5,680.95ZM507.75,679.97C509.54,679.33 511,678.3 511,677.67C511,675.27 504.4,667.03 500.9,665.07C497.51,663.16 495.66,663.01 476.86,663.07C465.66,663.11 455.6,663.5 454.5,663.93C451.17,665.25 464.89,666.18 482.33,665.82L498.17,665.5L500.58,668.31C502.1,670.07 503,672.36 503,674.48L503,677.84L496.75,678.42C493.31,678.74 480.44,679.43 468.13,679.95C455.83,680.47 445.48,681.2 445.13,681.58C444.02,682.78 504.22,681.24 507.75,679.97ZM707.5,671.49C723.16,666.29 731.97,662.76 731.44,661.91C731.13,661.41 731.43,661 732.11,661C732.78,661 733.07,660.74 732.75,660.42C731.45,659.11 686,675.24 686,677.01C686,677.89 695.75,675.39 707.5,671.49ZM700.22,668.27C705.59,666.28 709.83,664.49 709.63,664.3C708.94,663.61 687,671.33 687,672.27C687,672.79 687.78,672.92 688.73,672.55C689.68,672.19 694.85,670.26 700.22,668.27ZM638.39,668.42C639.41,665.76 639.07,662.3 637.67,661.14C636.6,660.25 636.32,661 636.23,665.02C636.12,669.89 637.18,671.57 638.39,668.42ZM883.29,665.34C885.22,660.16 884.98,658.21 883.01,662.97C882.32,664.64 881.39,666 880.94,666C880.49,666 880.19,666.9 880.27,668C880.51,671.17 881.43,670.36 883.29,665.34ZM654.5,667.4C669.57,665.73 667.92,663 651.83,663C641.26,663 639.86,663.19 640.39,664.58C640.73,665.45 641,666.84 641,667.67C641,668.84 641.83,669.05 644.75,668.62C646.81,668.31 651.2,667.76 654.5,667.4ZM875.48,665.05C875.82,663.98 877.57,661.46 879.36,659.44C882.34,656.09 882.77,655.91 884.21,657.35C885.65,658.8 886.01,658.34 888.27,652.22C889.64,648.52 891.05,643.92 891.42,642L892.09,638.5L890.29,642.35C888.54,646.08 888.44,646.14 886.77,644.3C885.34,642.71 885.22,641.77 886.1,638.61C887.68,632.89 886.57,633.26 884.25,639.23C883.12,642.13 881.06,647.2 879.67,650.5C874.57,662.63 873.05,667 873.95,667C874.45,667 875.14,666.12 875.48,665.05ZM280,663.61C280,661.85 276.98,660.62 275.72,661.88C275.2,662.4 275.08,663.31 275.45,663.91C276.42,665.49 280,665.25 280,663.61ZM266.45,663.1C265.93,662.6 262.02,661.23 257.77,660.05C248.95,657.6 241.3,654.46 238.74,652.22C236.8,650.51 235.45,651.13 236.3,653.33C237.12,655.48 255.91,661.97 266.95,663.92C267.2,663.96 266.97,663.59 266.45,663.1ZM721.99,660.9C736.31,656.21 738.58,654.8 741.53,648.73L744.07,643.5L738.28,649.7C734.86,653.37 731.31,656.19 729.59,656.6C726.05,657.45 710.1,663.96 711.5,663.98C712.05,663.99 716.77,662.6 721.99,660.9ZM224,661.86C221.53,661.35 218.49,660.72 217.25,660.45C216.01,660.18 215,659.48 215,658.89C215,658.3 217.28,655.27 220.08,652.16C227.62,643.75 228.26,641.59 220.88,649.45C213.68,657.11 212.64,658.6 213.5,659.99C214.37,661.41 219.89,662.82 224.5,662.8L228.5,662.79L224,661.86ZM825.48,660.83C831.91,657.9 835.97,644.56 836.67,624C836.94,616.02 836.75,607.7 836.25,605.5C835.58,602.6 835.45,604.66 835.79,613C837.04,643.94 827.3,666.98 817.45,656.35C814.25,652.9 812.24,646.08 810.42,632.5C808.93,621.36 809.35,611.98 811.95,598.25C813.65,589.31 818.39,582 822.49,582C825.5,582 829.7,586.75 831.58,592.3C832.47,594.88 833.41,597 833.67,597C834.47,597 832.88,590.74 831.26,587.5C827.14,579.24 822.15,577.79 817.21,583.41C805.62,596.61 805.93,647.65 817.67,659.4C820.58,662.31 821.76,662.52 825.48,660.83ZM782.73,657.4C782.4,657.06 781.53,657.03 780.81,657.32C780.01,657.64 780.25,657.87 781.42,657.92C782.47,657.96 783.06,657.73 782.73,657.4ZM799,635.65C799.27,623.65 799.39,613.72 799.25,613.58C799.11,613.44 796.41,613.67 793.25,614.09C790.09,614.51 784.26,615.02 780.29,615.24C773.98,615.58 772.83,615.95 771.06,618.19C768.77,621.11 762.25,624.41 756.82,625.39C753.76,625.95 753.03,626.57 752.48,629.1C752.11,630.78 752.04,632.37 752.31,632.64C753.11,633.45 762.9,628.48 770.5,623.41C776.08,619.69 779.19,618.39 785.8,617.04C790.37,616.11 794.34,615.74 794.64,616.23C794.94,616.71 794.86,625.81 794.46,636.44C794.07,647.08 794.07,656.3 794.46,656.94C794.86,657.59 795.93,657.97 796.84,657.79C798.31,657.51 798.56,654.93 799,635.65ZM430.31,656.34C440.45,655.67 441.85,654.3 432.49,654.21C429.57,654.19 426.27,653.68 425.15,653.08C424.04,652.49 420.51,652.04 417.32,652.08C414.12,652.12 412.18,652.41 413,652.71C413.82,653.02 415.13,653.77 415.91,654.38C417.04,655.29 416.76,655.62 414.41,656.13C411.96,656.66 412.21,656.78 416,656.88C418.48,656.94 424.91,656.7 430.31,656.34ZM531,652.53C556.67,650.27 560.06,649.8 561.58,648.28C563.33,646.52 563.41,645 561.75,645.01C561.06,645.01 556.67,645.44 552,645.97C547.33,646.49 533.6,647.63 521.5,648.5C509.4,649.36 495.9,650.75 491.5,651.57C487.1,652.39 479,653.48 473.5,653.98C465.85,654.68 469.48,654.79 489,654.44C503.02,654.19 521.92,653.33 531,652.53ZM822.74,648.74C822.01,641.74 819.24,632.38 817.31,630.45C814.78,627.92 814.82,629.35 817.45,635.3C818.82,638.38 820.48,643.85 821.14,647.45C822.59,655.32 823.49,656.05 822.74,648.74ZM235,639C236.44,630.19 237.37,628.59 240.17,630.09C241.24,630.66 245,632.22 248.52,633.54C253.59,635.45 254.8,635.64 254.34,634.44C254.02,633.61 252.35,632.21 250.63,631.34C245.15,628.57 241,624.96 241,622.95C241,620.43 241.59,620.48 248.63,623.62C259.91,628.64 273.13,633 277.09,633C282.34,633 287.58,630.22 294.14,623.96L299.5,618.85L293.19,623.93C285.08,630.47 282.01,632 277.07,632C269.46,632 248.13,622.32 243.43,616.74C242.05,615.09 240.77,613.92 240.58,614.12C239.31,615.55 235.93,623.47 234.65,628.03C232.85,634.45 231.41,650.29 232.84,648C233.35,647.17 234.32,643.12 235,639ZM381.49,643.16C384.92,639.95 390.69,635.13 394.32,632.45C397.94,629.77 400.76,627.43 400.58,627.25C400.11,626.78 375.57,624.32 359,623.09C351.02,622.5 338.47,621.56 331.11,621.01C311.64,619.54 312.66,619.41 310.56,623.75C308.4,628.22 304,640.85 304,642.56C304,644.18 307.14,644.67 329,646.47C347.15,647.97 354.62,648.41 368.37,648.8L375.25,649L381.49,643.16ZM781.77,647.19C781.99,646.53 781.45,646 780.58,646C779.71,646 779,646.71 779,647.58C779,649.35 781.15,649.04 781.77,647.19ZM217.17,637.33C204.16,611.56 192.89,571.98 189.47,540C187.78,524.26 187.55,491.73 189.03,476.86C192.55,441.27 202.24,404.31 216.07,373.7C233.01,336.21 254.39,304.65 280.87,278.02C330.96,227.66 397.66,196.22 474,186.99C506.36,183.07 549.58,185.69 584,193.65C625.63,203.27 664.05,219.85 698.5,243.07C754.2,280.62 796.26,336.09 817.91,400.54C824.98,421.62 828.16,433.86 831,451C834.67,473.1 834.18,471.46 837.25,471.82C839.76,472.11 840,471.84 840,468.82C840,463.3 836.13,441.25 832.92,428.5C820.42,378.84 801.12,339.09 770.94,300.9C760.51,287.7 732.39,259.64 720,250.08C672.74,213.58 618.57,191.1 554.5,181.38C540.75,179.29 496.07,178.42 479.25,179.9C420.77,185.07 363.37,205.81 317.5,238.35C249.17,286.82 200.82,364.73 186.51,449.4C181.22,480.7 179.86,508.78 182.48,533C186.58,570.93 195.46,604.2 210.19,636.82L215.31,648.15L217.74,645.72L220.17,643.28L217.17,637.33ZM254,643.3C249.41,641.29 243.43,640.5 242.62,641.81C241.99,642.83 249.81,644.72 255,644.8C257.21,644.83 257.09,644.66 254,643.3ZM781,640.44C781,639.58 780.55,639.16 780,639.5C779.45,639.84 779,640.54 779,641.06C779,641.58 779.45,642 780,642C780.55,642 781,641.3 781,640.44ZM826.69,635.31C822.61,628.6 818,623.76 818,626.18C818,627.03 819.7,629.69 821.79,632.11C823.87,634.52 826.38,637.78 827.37,639.34C830.81,644.79 830.19,641.07 826.69,635.31ZM846.95,633.39C848.17,626.34 847.99,625.41 845.54,626.35C844.35,626.8 844,628.56 844,634.03C844,637.95 844.4,640.87 844.9,640.56C845.39,640.26 846.31,637.03 846.95,633.39ZM506,638.47C536.56,636.94 552.23,635.19 558.44,632.59C562.08,631.07 566.66,625.07 570.53,616.76C575.25,606.63 574.17,606 552.07,606C535.82,606 525.47,607.5 504.38,612.91C486.3,617.55 448.81,630.45 445.25,633.26C443.56,634.59 443.68,636.53 445.57,638.43C447.65,640.51 464.99,640.52 506,638.47ZM630.48,634.75C629.64,629.7 628.08,626.33 628.04,629.5C628,632.02 629.91,639 630.63,639C630.93,639 630.86,637.09 630.48,634.75ZM654.03,634.75C655.09,632.41 655.95,629.83 655.93,629C655.91,627.38 652.69,633.08 651.56,636.75C650.39,640.54 651.98,639.25 654.03,634.75ZM446.25,637.42C443.3,636.04 445.46,633.97 452.75,631.18C471.74,623.93 493.46,617.54 512.82,613.52C521.98,611.62 524,611.61 524,613.5C524,614.6 522.85,615 519.65,615C516.58,615 514.78,615.58 513.5,617C511.52,619.18 508.03,619.63 506.32,617.92C504.02,615.62 500.58,617.38 498.32,622C495.49,627.77 495.42,629.32 497.99,628.5C499.53,628.01 499.85,628.23 499.38,629.45C498.86,630.82 499.17,630.88 501.63,629.95C503.21,629.35 505.26,628.17 506.18,627.33C507.7,625.96 508.12,625.99 510.4,627.65C511.8,628.67 512.95,629.77 512.97,630.1C512.99,630.44 509.74,631.01 505.75,631.38C501.76,631.75 496.02,632.68 493,633.44L487.5,634.83L492.5,635.06L497.5,635.28L492,636.05C484.77,637.07 447.86,638.17 446.25,637.42ZM782.1,634.38C783.26,632.99 783.18,632.82 781.55,633.13C780.51,633.34 779.48,634.06 779.25,634.75C778.66,636.53 780.51,636.3 782.1,634.38ZM543,632.28C543,629.95 545.97,627 548.32,627C550.93,627 556.09,619.22 555.38,616.37C554.81,614.12 555.04,614 559.64,613.97C566.11,613.93 563.4,612.29 555.38,611.39C552.15,611.03 548.85,610.39 548.05,609.97C546.17,608.97 557.73,607.75 565,608.17C570.41,608.49 570.5,608.55 570.37,611.5C570.3,613.18 568.05,618.03 565.27,622.5C559.88,631.2 558.26,632.23 548.04,633.59C543.46,634.2 543,634.08 543,632.28ZM830.69,629.25C830.44,628.29 830.23,629.08 830.23,631C830.23,632.92 830.44,633.71 830.69,632.75C830.94,631.79 830.94,630.21 830.69,629.25ZM604,630.45C604,629.66 605.63,624.94 607.62,619.97C611.85,609.39 620.37,595.34 626.32,589.13C631.01,584.23 638.98,580.01 643.5,580.03C654.26,580.08 669.94,597.64 676.06,616.5C678.43,623.82 679.98,623.95 678.15,616.68C676.21,608.97 671.14,599.29 665.12,591.81C660.94,586.61 659.06,583.37 658.83,580.95C658.43,576.78 657.19,576.1 643.48,572.48C626.56,568.01 608.81,568.06 594.76,572.62C588.42,574.67 587.99,575.82 593.78,575.24C603.95,574.21 609.66,574.73 618.75,577.49C623.84,579.04 628,580.6 628,580.96C628,581.32 626.38,583.16 624.4,585.05C622.42,586.95 618.96,591.19 616.71,594.48C612.19,601.08 604.02,620.07 604.01,624.01C604,625.39 603.58,627.98 603.06,629.78C602.48,631.8 602.48,632.82 603.06,632.46C603.58,632.14 604,631.24 604,630.45ZM641.79,621.5L641.77,616.5L640.94,620.5C640.49,622.7 640.13,626.08 640.16,628C640.2,631.19 640.27,631.28 641,629C641.44,627.62 641.79,624.25 641.79,621.5ZM491.5,627.54C493.15,626.87 495.07,625.62 495.76,624.79C497.67,622.49 494.86,620.6 490.58,621.29C486.85,621.9 476.7,628.37 477.78,629.45C478.68,630.35 487.73,629.09 491.5,627.54ZM518,629.3C518.83,629 520.52,627.82 521.76,626.69C523.98,624.67 524.04,624.67 525.43,626.57C526.2,627.63 526.76,628.55 526.67,628.61C526.58,628.67 524.25,628.97 521.5,629.29C518.75,629.6 517.17,629.61 518,629.3ZM783,629C783,628.45 782.33,628 781.5,628C780.67,628 780,628.45 780,629C780,629.55 780.67,630 781.5,630C782.33,630 783,629.55 783,629ZM813.36,627.5C813.05,626.67 812.61,626 812.39,626C812.18,626 812,626.67 812,627.5C812,628.33 812.44,629 812.97,629C813.5,629 813.68,628.33 813.36,627.5ZM278.5,626.05C274.1,625.28 264.66,620.07 264.8,618.49C264.89,617.49 260.35,614.64 258.5,614.54C256.8,614.45 253,611.98 253,610.96C253,609.44 257.17,609.84 259.04,611.54C260.71,613.05 269.4,616.71 273.63,617.69C274.81,617.97 276.09,617.67 276.48,617.04C277.64,615.16 276.14,611.18 274.02,610.51C272.81,610.12 271.65,608.4 271.02,606.06C269.93,602.04 263.06,594.79 259.15,593.55C256.84,592.81 256.19,590.99 258.25,591.02C258.94,591.02 266.18,597.58 274.35,605.58L289.2,620.12L283.85,612.31C280.91,608.01 274.28,600.13 269.13,594.78C258.34,583.59 258.95,583.63 251.38,593.68C246.55,600.09 242.55,609.43 243.56,611.91C243.99,612.98 244.59,612.02 245.39,608.97C246.05,606.48 247.39,603.33 248.38,601.97C250.35,599.27 250.35,599.23 247.91,607.75C246.83,611.49 246.9,612.23 248.48,613.98C253.21,619.21 271,626.94 278,626.83L282.5,626.75L278.5,626.05ZM406.49,624.02C408.43,620.88 437.52,604.06 459.5,593.38C486.62,580.19 523.22,567.81 538.5,566.66C542.35,566.37 551.8,564.68 559.5,562.89C572.23,559.93 575.45,559.59 595,559.07L616.5,558.5L607,557.27C598.05,556.1 577.99,554.47 541.67,551.95C532.97,551.35 521.49,550.97 516.17,551.1C510.85,551.23 496.6,550.83 484.5,550.21C438.99,547.85 418.5,548.71 381.28,554.54C338.07,561.31 342.693,554.132 329.193,568.072L306.5,586.39L332.409,556.398C346.539,543.388 339.4,562 363.69,559.2C371.42,558.31 372,558.94 366.18,561.91C361.79,564.16 342.39,580.64 335.88,587.65C326.98,597.25 313.91,616.24 315.27,617.6C315.49,617.82 331.61,619.15 351.09,620.56C370.56,621.96 389.43,623.48 393,623.93C402.37,625.11 405.8,625.13 406.49,624.02ZM823,619.88C823,619.39 822.33,619 821.5,619C820.64,619 820,619.9 820,621.12C820,622.9 820.25,623.04 821.5,622C822.33,621.32 823,620.36 823,619.88ZM845.77,597.23C843.91,573.75 836.98,558.22 824.65,549.94C818.33,545.69 804.48,540.93 790.01,538.04C784.24,536.89 778.07,535.17 776.3,534.22C774.53,533.28 766.21,526.13 757.79,518.34C735.09,497.33 726.63,490.53 717.1,485.62C706.6,480.22 701.22,478.59 685.61,476.08C667.551,473.168 654.951,472.052 640.51,472.262C637.446,472.307 634.299,472.411 631,472.57C611.95,473.49 602.37,473.54 564.5,472.96C544.22,472.65 537.52,472.9 529.03,474.29C507.92,477.76 495.16,483.03 474.51,496.83C463.93,503.89 444.46,519.11 436.37,526.64C425.39,536.86 417,545.33 417.43,545.77C417.7,546.03 422.23,542.09 427.5,537C432.77,531.91 437.36,528.03 437.7,528.37C438.05,528.71 434.59,532.53 430.03,536.85L421.74,544.71L428.62,545.15C432.4,545.39 438.88,545.3 443,544.96C447.12,544.61 449.04,544.25 447.25,544.16C445.46,544.07 444,543.65 444,543.22C444,542.79 446.92,539.54 450.5,536C454.07,532.46 457,529.87 457,530.25C457,530.63 459.11,529.82 461.69,528.45L466.38,525.96L459.19,533.37C451.56,541.24 449.62,545.29 454.75,542.63C456.26,541.84 460.63,538.34 464.44,534.85L471.39,528.5L467.24,534.63C464.96,538 463.31,540.97 463.57,541.24C463.83,541.5 465.15,541.5 466.49,541.25C468.36,540.89 470.03,538.74 473.57,532.14C478.4,523.13 483.37,517 485.84,517C486.63,517 487.92,516.21 488.69,515.25C489.47,514.29 487.5,518.52 484.3,524.66C481.11,530.8 478.79,536.11 479.14,536.46C479.48,536.82 486.1,536.41 493.84,535.55C501.58,534.7 508.36,534 508.9,534C510.45,534 517.12,523.4 521.16,514.53C527.35,500.92 527.26,501.06 530.74,500.4C532.53,500.06 534.63,500.03 535.42,500.33C536.21,500.63 537.36,500.27 537.98,499.52C538.93,498.38 536,498.21 519.81,498.46C505.88,498.68 501.86,498.51 505.37,497.84C508.32,497.28 512.64,495.26 516.36,492.71C519.73,490.39 523.16,488.19 523.99,487.82C528.04,485.99 503.42,487.86 493.66,490.12C490.39,490.88 484.25,494.31 474.72,500.69C458.9,511.28 455.27,514.02 446.16,522.25C442.66,525.41 439.37,528 438.84,528C437.14,528 438.9,526.22 448.79,517.95C465.85,503.67 489.42,488.02 493.9,487.98C495.33,487.97 498.52,487.03 501,485.89C503.48,484.76 508.43,483.16 512,482.35C519.96,480.54 541.47,477.11 545.29,477.05C547.8,477 547.96,477.2 546.95,479.09C545.56,481.7 546.25,482.47 548.77,481.12C549.96,480.48 562.94,479.97 582.37,479.79C608.85,479.55 613.94,479.72 613.5,480.87C613.11,481.88 613.56,482.07 615.24,481.6C630.52,477.24 634.44,476.77 651.85,477.23C664.58,477.57 669.41,478.04 670,478.99C670.46,479.75 671.58,480.02 672.65,479.64C673.97,479.18 673.79,479.59 672,481.09C666.14,486 663,489.11 663,490.02C663,490.56 664.54,491 666.43,491C668.31,491 670.52,491.66 671.33,492.47C672.62,493.76 672.87,493.66 673.39,491.58C674.23,488.24 680.25,483.28 685.03,481.99C689.76,480.72 702.45,482.7 711.65,486.14C717.44,488.31 729.52,495.96 734.51,500.61C736.15,502.15 741.04,506.54 745.36,510.36C749.69,514.18 753.83,518.7 754.57,520.41C755.32,522.11 755.94,522.87 755.96,522.11C755.98,521.34 760,524.57 764.89,529.29C772.15,536.29 774.75,538.15 779.07,539.43C781.98,540.29 784.96,541 785.68,541C788.37,541 786.8,542.76 778.98,548.52C774.57,551.76 770.21,555.56 769.31,556.96C767.95,559.04 768.36,558.87 771.58,556C777.41,550.79 784.93,546.26 791.49,544C798.82,541.48 800.16,541.5 797,544.09L794.5,546.14L799.05,545.54C802.24,545.12 805.59,545.56 810.3,547.01C813.98,548.15 817,549.31 817,549.59C817,549.87 815.89,551.09 814.53,552.3C808.29,557.85 799.1,579.81 797.7,592.5L797.14,597.5L799.39,591C803.92,577.9 809.23,564.42 811.02,561.5C816.15,553.13 822.3,550.62 827.79,554.66C830.99,557.01 836.87,568.24 839.89,577.75C842.37,585.57 844.92,603.79 845.17,615.44L845.34,623.5L845.92,615C846.24,610.33 846.17,602.33 845.77,597.23ZM831.98,621.25C831.98,620.84 831.53,619.83 830.98,619C830.11,617.67 829.89,617.67 829.02,619C827.54,621.25 827.79,622 830,622C831.1,622 831.99,621.66 831.98,621.25ZM123.38,618.49C125.37,617.65 127,616.69 127,616.34C127,616 126.04,612.52 124.87,608.61C123.7,604.7 121.53,595.65 120.03,588.5C117.1,574.48 117.61,575.15 111.12,576.58C108.91,577.07 108.79,577.43 109.38,581.75C110.48,589.8 118.44,620 119.46,620C119.62,620 121.39,619.32 123.38,618.49ZM819,619.19C819,618.75 818.29,617.51 817.42,616.44C815.97,614.66 815.89,614.66 816.42,616.33C816.74,617.34 817,618.58 817,619.08C817,619.59 817.45,620 818,620C818.55,620 819,619.64 819,619.19ZM356.64,615.51C355.32,612.08 355.96,607.09 357.84,606.09C360.12,604.86 364.27,605.84 363.65,607.46C363.33,608.3 364.88,608.66 368.85,608.66C371.96,608.67 373.26,608.49 371.75,608.27C367.08,607.59 368.71,606 374.08,606C380.94,606 380.18,607.5 370.93,612.23C361.8,616.9 357.55,617.88 356.64,615.51ZM908.18,606C912.12,592.52 915.22,577.8 914.29,576.97C913.85,576.58 911.81,576.01 909.75,575.69C906.34,575.18 906,575.33 906,577.43C906,578.7 904.2,586.95 902,595.76C899.8,604.57 898,612.29 898,612.92C898,614.23 901.79,616 903.95,615.69C904.87,615.57 906.43,611.99 908.18,606ZM360.98,609.75C360.99,608.24 360.55,607 360,607C359.45,607 359.01,608.91 359.02,611.25C359.03,614.36 359.29,615.1 360,614C360.53,613.17 360.98,611.26 360.98,609.75ZM366.04,612.98C369.78,611.07 370.94,609.99 369.25,610.01C368.2,610.01 360.32,614.93 361.29,614.97C361.72,614.99 363.86,614.09 366.04,612.98ZM816,613.56C816,613.32 815.55,612.84 815,612.5C814.45,612.16 814,612.36 814,612.94C814,613.52 814.45,614 815,614C815.55,614 816,613.8 816,613.56ZM632.71,607.02C639.61,600.95 645.56,600.55 653.34,605.64C655.45,607.02 657.42,607.91 657.72,607.62C658.01,607.32 659.13,608.08 660.2,609.29C662.74,612.16 661.47,609.64 657.67,604.26C655.03,600.52 648.58,594.89 650.5,598C651.06,598.9 650.64,598.99 648.88,598.36C642.28,595.99 631.48,599.52 628.04,605.17C626.41,607.86 626.22,611 627.7,611C627.97,611 630.23,609.21 632.71,607.02ZM695.75,603.46L704,601.72L703.96,598.11C703.91,594.41 702.55,586.2 701.88,585.57C701.67,585.37 698.58,585.79 695,586.51C691.42,587.22 686.79,588.09 684.7,588.45C681.77,588.96 681.01,589.5 681.37,590.8C681.63,591.74 682.14,595.58 682.51,599.35C683.13,605.71 683.33,606.16 685.34,605.7C686.53,605.42 691.21,604.42 695.75,603.46ZM580.1,601.62C579.45,600.84 577.26,600.23 575.21,600.26L571.5,600.31L575.17,601.41C577.19,602.01 579.17,602.84 579.58,603.25C580.88,604.55 581.34,603.12 580.1,601.62ZM821.68,591.81C821.36,591.01 821.13,591.25 821.08,592.42C821.04,593.47 821.27,594.06 821.6,593.73C821.94,593.4 821.97,592.53 821.68,591.81ZM410,590.46C402.57,589.78 388.96,588.88 379.75,588.47C370.54,588.06 363,587.38 363,586.96C363,585.96 381.41,572.71 390.29,567.32C399.64,561.65 415.34,554.87 420.37,554.35L424.5,553.92L420.68,555.37C418.57,556.16 416.65,557.01 416.41,557.25C416.17,557.49 423.21,557.77 432.06,557.86C440.91,557.96 454.52,558.47 462.32,559C490.14,560.9 501.97,560.08 498.95,556.44C498.03,555.33 498.1,554.9 499.24,554.46C501.58,553.56 513.5,554.4 513.5,555.46C513.5,555.99 511.02,557.23 508,558.2L502.5,559.98L507.5,559.42C510.25,559.12 513.85,558.62 515.5,558.32C522.6,557.01 516.41,559.18 504.95,562.01C490.81,565.51 485.44,567.1 475.5,570.74C464.98,574.58 435.15,586.9 429.78,589.62C427.19,590.93 424.71,591.93 424.28,591.85C423.85,591.77 417.43,591.15 410,590.46ZM678.5,588C678.19,587.02 678.55,585.59 679.32,584.83C681.07,583.07 702.26,578.31 702.71,579.57C703.93,583.06 704.58,583.15 713.1,580.98C726.68,577.51 740,572.99 740,571.85C740,571.26 740.67,571.05 741.5,571.36C742.33,571.68 743,571.54 743,571.05C743,570.55 744.19,568.74 745.64,567.02C747.5,564.81 748.59,564.19 749.34,564.94C749.92,565.52 751.37,566 752.56,566C754.11,566 755,566.91 755.75,569.25C756.71,572.25 756.8,572.3 756.9,569.95C756.95,568.55 757.42,566.97 757.94,566.45C758.97,565.42 760.46,556.58 761.48,545.5L762.12,538.5L759.6,541.5L757.07,544.5L756.88,535.5C756.7,526.76 756.68,526.68 756.1,532.72C755.38,540.17 754.23,541.51 744.5,546.3C734.15,551.39 726.04,553.75 711.08,556C696.95,558.12 691.48,559.36 689,560.98C686.62,562.55 691.36,562.25 704.68,560.01C719.45,557.51 720,557.51 720,559.99C720,564.41 707.1,570.93 693,573.64C686.87,574.82 674.02,577.9 668.29,579.56C667.43,579.81 667.33,580.73 667.95,582.7C668.44,584.24 669.08,586.63 669.38,588.01C669.87,590.32 670.29,590.49 674.49,590.16C678.36,589.85 678.98,589.51 678.5,588ZM307.915,571.52C309.155,569.93 307.34,586.63 305.75,587.87C304.79,588.63 304,589.41 304,589.62C304,590.45 306.605,573.19 307.915,571.52ZM324,589.56C324,589.32 323.55,588.84 323,588.5C322.45,588.16 322,588.36 322,588.94C322,589.52 322.45,590 323,590C323.55,590 324,589.8 324,589.56ZM690.5,586.03C700.51,584.18 701,584.01 701,582.48C701,580.66 700.54,580.67 690.01,582.84C683.45,584.19 681.43,584.99 681.16,586.39C680.9,587.73 681.29,588.06 682.66,587.67C683.67,587.38 687.2,586.64 690.5,586.03ZM527.6,582.32C532.76,579.74 536.8,577.47 536.59,577.26C536.38,577.05 531.77,579.13 526.35,581.89C520.93,584.64 516.89,586.92 517.37,586.95C517.85,586.98 522.45,584.89 527.6,582.32ZM536.6,582.36C548.71,576.76 557.8,573.93 565.68,573.3C571.76,572.81 573.39,573.03 576.29,574.75L579.72,576.77L586.37,573.84C590.02,572.23 596.27,570.07 600.26,569.04L607.5,567.17L596.47,567.09C590.41,567.04 581.63,567.47 576.97,568.05C566.49,569.35 548.19,575.36 536.39,581.37C525.65,586.84 525.76,587.37 536.6,582.36ZM266.4,583.61C265.74,581.87 282.32,570.56 287.74,569.05C294.85,567.08 296.85,568.01 293,571.5C291.9,572.5 291,574.23 291,575.35C291,577.2 291.3,577.11 294.25,574.37C305.42,563.99 310.07,562.35 339.4,558.51C349.79,557.15 358.51,555.83 358.77,555.57C360.16,554.18 330.23,556.03 320,557.96C313.68,559.16 304.21,560.95 298.97,561.94C293.73,562.93 286.86,564.95 283.71,566.45C277.93,569.18 262.49,580.65 262.1,582.5C261.98,583.05 262.92,583.79 264.19,584.15C265.46,584.51 266.6,584.85 266.72,584.9C266.84,584.96 266.7,584.37 266.4,583.61ZM656.09,581.61C655.28,580.63 655.23,579.97 655.96,579.53C656.54,579.17 657.29,579.6 657.63,580.48C658.47,582.68 657.55,583.36 656.09,581.61ZM820.91,574.04C823.58,572.93 824.39,573.03 827.54,574.89C831.21,577.06 831.25,576.22 827.68,572.25C823.83,567.98 817.07,570.19 814.39,576.6C812.24,581.75 812.74,582.85 815.44,578.88C816.77,576.91 819.24,574.73 820.91,574.04ZM618.5,575L610.5,572.16L619,572.11C628.75,572.06 638.5,573.18 645,575.09L649.5,576.42L643,577.09C631.17,578.32 626.79,577.95 618.5,575ZM628,575C627.17,574.47 625.38,574.03 624,574.03C622.02,574.03 621.81,574.23 623,575C623.83,575.53 625.62,575.97 627,575.97C628.98,575.97 629.19,575.77 628,575ZM550.14,571.54C551.99,570.74 552.83,570.08 552,570.07C550.56,570.07 544.83,572.89 546.14,572.96C546.48,572.98 548.28,572.34 550.14,571.54ZM752.5,568.82C753.96,568.18 753.59,568.09 751.12,568.47C749.27,568.76 747.13,569 746.38,569C745.62,569 745,569.46 745,570.02C745,571.06 748.76,570.47 752.5,568.82ZM264.66,565.75C264.38,565.06 264.16,565.62 264.16,567C264.16,568.38 264.38,568.94 264.66,568.25C264.94,567.56 264.94,566.44 264.66,565.75ZM800.49,568.02C800.82,567.48 800.61,566.14 800.02,565.04C799.15,563.41 799.23,563.15 800.48,563.63C803.2,564.67 802.09,562.17 798.68,559.57C794.31,556.24 788.21,554.15 782,553.87C774.61,553.53 773.84,555.27 780.47,557.36C784.22,558.54 787.62,560.64 791.23,564.01C796.35,568.78 799.24,570.04 800.49,568.02ZM266.05,560C266.49,557.52 265.21,557.52 265.22,560L265.25,564.5L266.05,560ZM673.75,562.28C672.24,562.05 669.76,562.05 668.25,562.28C666.74,562.51 667.98,562.7 671,562.7C674.02,562.7 675.26,562.51 673.75,562.28ZM210.23,556.36C211.48,556.16 207.34,554.34 207.15,554.53C206.18,555.46 208.23,556.69 210.23,556.36ZM682,556C684.01,555.36 684.11,555.19 682.5,555.17C681.4,555.15 679.6,555.53 678.5,556C675.95,557.1 678.58,557.1 682,556ZM840.47,544.88C841.25,538.62 842.2,525.95 842.59,516.74L843.3,500L836.32,500L835.63,517.75C835.26,527.51 834.54,538.65 834.03,542.5C833.15,549.15 833.24,549.69 835.7,553.27C837.13,555.34 838.47,556.86 838.68,556.65C838.89,556.44 839.7,551.15 840.47,544.88ZM649.93,539.66C654.58,530.21 660.1,513.91 659.92,510.14C659.86,508.79 659.75,508.76 659.33,510C659.05,510.82 656.84,516.03 654.41,521.57C651.98,527.1 650,532.32 650,533.16C650,534 648.68,537.34 647.06,540.59C645.44,543.84 643.63,547.8 643.03,549.4C642.08,551.92 642.13,552.14 643.43,551.06C644.25,550.38 647.17,545.25 649.93,539.66ZM727.67,547.49C732.97,545.28 733.6,538.26 728.81,534.7C725.41,532.17 719.12,531.14 706.65,531.06C699.76,531.02 695.83,531.46 693.56,532.54C687.86,535.24 683.93,545.44 687.25,548.91C688.94,550.68 722.88,549.49 727.67,547.49ZM749,548.5C749,547.67 749.45,547 750,547C750.55,547 751,547.67 751,548.5C751,549.33 750.55,550 750,550C749.45,550 749,549.33 749,548.5ZM112.58,543.64C112.26,542.46 111.7,532.16 111.34,520.75L110.68,500L107.92,500C106.41,500 104.45,499.73 103.58,499.39C102.23,498.87 102,499.87 102,506.37C102,514.11 103.84,543.66 104.44,545.54C104.63,546.12 106.6,546.4 108.97,546.17C112.71,545.82 113.11,545.54 112.58,543.64ZM920.35,537.75C920.7,533.21 920.99,522.68 920.99,514.35L921,499.2L913.3,499.5L912.63,517.5C912.25,527.4 911.67,537.86 911.34,540.75L910.72,546L919.7,546L920.35,537.75ZM208.75,541.61C210.81,541.29 205.45,539 205.29,539C205.13,539 205,539.71 205,540.59C205,541.86 205.75,542.06 208.75,541.61ZM522.87,521.16C534.23,506.23 534.37,506.03 533.75,505.42C533.21,504.88 523.32,517.46 512.22,532.81C503.43,544.98 511.3,536.37 522.87,521.16ZM410.732,537.562C406.722,535.992 413.775,540.683 413.775,540.683L410.732,537.562ZM660.86,533C660.86,532.05 660.54,532.24 660,533.5C659.53,534.6 659.14,536.17 659.14,537C659.14,537.95 659.46,537.76 660,536.5C660.47,535.4 660.86,533.83 660.86,533ZM796.01,521C797.03,516.33 798.1,508.68 798.39,504L798.93,495.5L797.53,505.73C796.77,511.36 795.21,519.56 794.07,523.95C792.93,528.35 792.03,532.52 792.06,533.22C792.18,535.63 794.16,529.5 796.01,521ZM548,528.61C548,527.96 548.85,525.75 549.89,523.71C550.93,521.67 551.57,520 551.3,520C550.48,520 542.84,526.79 541.49,528.71C540.31,530.39 540.51,530.5 544.11,530.16C546.25,529.96 548,529.26 548,528.61ZM819.76,527.25C820.06,526.33 818.27,526 812.92,526C805.03,526 804.48,526.44 810.56,527.9C815.59,529.1 819.23,528.85 819.76,527.25ZM204,523.77C204,525.7 205.94,521.99 205.25,521.99C204.56,522 204,522.8 204,523.77ZM790,523C790,522.45 789.44,521.98 788.75,521.95C788.06,521.93 782.89,521.33 777.25,520.63C767.44,519.4 767.07,519.42 768.61,521.13C770.17,522.84 772.63,523.23 785.75,523.81C788.09,523.91 790,523.55 790,523ZM687,517.83C687,515.59 690.83,513.6 698.39,511.93C702.54,511.01 704.43,510.08 704.76,508.81C705.27,506.86 707,506.3 707,508.08C707,509.49 713.97,518 715.12,518C715.6,518 716,517.3 716,516.45C716,515.32 716.43,515.14 717.61,515.8C718.61,516.36 720.08,516.3 721.46,515.65C723.81,514.54 728,508.12 728,505.62C728,502.07 702.71,495.09 695,496.53C690.78,497.31 689.36,498.4 687.3,502.43C685.76,505.43 685.77,505.46 687.65,503.79C689.54,502.1 694,502.3 694,504.06C694,504.52 696.36,505.06 699.25,505.26L704.5,505.63L698.92,505.82C694.57,505.96 692.9,506.49 691.29,508.25C688.99,510.75 685.62,517.16 684.58,521C683.92,523.4 683.96,523.42 685.45,521.56C686.3,520.49 687,518.82 687,517.83ZM640.56,520.53C641.63,519.72 642.02,519.05 641.44,519.03C640.86,519.01 639.51,519.66 638.44,520.47C637.37,521.28 636.98,521.95 637.56,521.97C638.14,521.99 639.49,521.34 640.56,520.53ZM615.21,519.21C613.95,518.27 611.07,516.02 608.82,514.22C606.57,512.41 604.55,511.12 604.32,511.34C604.1,511.57 604.65,513.57 605.54,515.8C607.06,519.6 607.36,519.82 610.45,519.31C612.36,519 614.03,519.25 614.43,519.89C614.81,520.5 615.65,520.98 616.31,520.96C616.96,520.93 616.47,520.14 615.21,519.21ZM449.02,508.92C455.535,503.657 484.834,481.747 484.834,481.747C484.834,481.747 464.36,488.406 459.138,492.203C458.593,492.599 458.087,493.152 457.391,493.319C448.004,495.563 439.92,498.691 411.86,509.834C410.877,510.224 320.745,544.229 320.613,545.266C320.111,549.213 412.738,540.067 412.903,540.09C413.193,540.13 442.16,514.46 449.02,508.92ZM653.5,512.7C654.05,512.14 652.25,512.93 649.5,514.47C646.75,516.01 644.05,517.73 643.5,518.3C642.95,518.86 644.75,518.07 647.5,516.53C650.25,514.99 652.95,513.27 653.5,512.7ZM552,514.05C552,512.54 550.63,512.06 549.34,513.13C547.37,514.77 547.71,515.89 550,515.29C551.1,515 552,514.44 552,514.05ZM645.94,509.84C650.37,508.11 654,506.36 654,505.97C654,505.1 636.75,502.34 622.73,500.98C617.1,500.43 611.45,499.74 610.17,499.45C605.71,498.44 609.01,500.82 616.25,503.84C620.24,505.51 626.42,508.23 630,509.89C633.58,511.55 636.81,512.93 637.19,512.95C637.56,512.98 641.5,511.58 645.94,509.84ZM668.68,506.81C668.36,506.01 668.13,506.25 668.08,507.42C668.04,508.47 668.27,509.06 668.6,508.73C668.94,508.4 668.97,507.53 668.68,506.81ZM736.5,507.01C736.17,506.46 734.9,505.53 733.69,504.95C731.62,503.94 731.62,504 733.86,505.94C736.41,508.16 737.49,508.6 736.5,507.01ZM670.86,500C670.86,499.05 670.54,499.24 670,500.5C669.53,501.6 669.14,503.18 669.14,504C669.14,504.95 669.46,504.76 670,503.5C670.47,502.4 670.86,500.82 670.86,500ZM721.57,497.84C715.5,494.64 707.56,492.16 700.98,491.42C692.27,490.43 693.5,492.41 702.46,493.8C706.56,494.44 712.97,496.03 716.71,497.34C725.26,500.34 726.56,500.47 721.57,497.84ZM779,497.94C774.33,497.53 767.35,497.24 763.5,497.29L756.5,497.37L765,498C769.67,498.35 776.65,498.64 780.5,498.66L787.5,498.69L779,497.94ZM671.68,495.81C671.36,495.01 671.13,495.25 671.08,496.42C671.04,497.47 671.27,498.06 671.6,497.73C671.94,497.4 671.97,496.53 671.68,495.81ZM868.79,479.1C876.23,477.19 876.41,477.08 871.06,477.6C868.06,477.88 865.25,478.34 864.81,478.62C864.36,478.89 864.09,483.48 864.21,488.81L864.42,498.5L864.74,489.28L865.07,480.06L868.79,479.1ZM741,494.5C741,493.68 740.27,493 739.38,493C738.05,493 737.98,493.27 739,494.5C739.68,495.32 740.41,496 740.62,496C740.83,496 741,495.32 741,494.5ZM565.75,492.25C566.06,491.32 566.201,489.671 560.581,489.671C554.411,489.671 551,491.29 551,492.54C551,493.82 552.25,494.04 558.17,493.79C562.8,493.6 565.49,493.06 565.75,492.25ZM549,492C549,491.45 548.33,491 547.5,491C546.67,491 546,491.45 546,492C546,492.55 546.67,493 547.5,493C548.33,493 549,492.55 549,492ZM858,490C858,489.36 849.35,489 834.06,489C811.03,489 809.85,488.9 803.18,486.5C799.37,485.12 794.28,483.79 791.87,483.53C783.76,482.67 717.262,473.96 718.042,474.74C718.462,475.16 739.44,483.75 759.33,484.07C794.63,484.62 795.62,484.69 800.5,486.98C803.25,488.28 806.85,489.66 808.5,490.07C813.25,491.22 858,491.16 858,490ZM663.5,486.23C665.15,484.23 665.83,482.98 665,483.45C662.65,484.78 659,488.26 659,489.17C659,490.81 660.55,489.79 663.5,486.23ZM858,485.75C857.99,484.79 852.45,484.43 834.44,484.19C813.94,483.92 810.32,483.64 806.45,481.98C804,480.93 802,479.82 802,479.5C802,479.452 802.276,479.434 802.797,479.44C805.612,479.471 815.568,480.187 827.52,480.407L841.999,479.86L832,479.01C657.173,449.419 705.076,469.081 708.309,470.51C709.384,470.985 730.804,474.514 755.984,474.834L797.5,480.59L814.5,486.85L836.25,486.92C853.03,486.98 858,486.71 858,485.75ZM858.73,479.4C858.4,479.06 857.53,479.03 856.81,479.32C856.01,479.64 856.25,479.87 857.42,479.92C858.47,479.96 859.06,479.73 858.73,479.4ZM880.25,476.34C879.56,476.06 878.44,476.06 877.75,476.34C877.06,476.62 877.62,476.84 879,476.84C880.38,476.84 880.94,476.62 880.25,476.34ZM113.52,464.25C114.46,457.38 117.75,437.73 119.42,429.01C120.21,424.89 120.78,421.47 120.68,421.4C120.58,421.33 118.59,421.03 116.25,420.73C111.54,420.13 112.12,419.34 109.98,429.37C108.28,437.31 105.01,460.21 105.01,464.18C105,467.97 105.79,468.62 110.69,468.88C112.57,468.98 112.97,468.32 113.52,464.25ZM919.66,466.64C920.09,466.28 915.78,439.31 913.84,430.19L911.64,419.88L907.57,420.56C905.33,420.93 903.32,421.4 903.09,421.61C902.87,421.81 903.86,427.73 905.3,434.74C906.74,441.76 908.41,451.1 909.03,455.5C910.92,469.12 910.47,468.26 915.29,467.47C917.61,467.08 919.57,466.71 919.66,466.64ZM826.398,473.595C831.399,474.678 819.261,468.64 793.775,464.897C774.385,462.05 747.733,462.214 712.316,458.029C708.644,457.595 825.142,473.323 826.398,473.595ZM133.95,377.25C136.86,369.14 140.76,358.78 142.62,354.24C144.48,349.69 146,345.83 146,345.65C146,345.16 137.86,342.8 137.5,343.18C136.1,344.65 121,385.84 121,388.21C121,388.88 126.32,391.67 128.08,391.92C128.39,391.96 131.04,385.36 133.95,377.25ZM899.85,389.9C901.58,389.3 903,388.47 903,388.06C903,384.22 885.85,342 884.29,342C883.53,342 881.62,342.66 880.06,343.47L877.23,344.93L884.14,362.72C887.94,372.5 891.8,382.86 892.71,385.75C894.47,391.34 894.94,391.61 899.85,389.9ZM244.13,357.94C244.72,359.64 244.97,355.48 244.28,355.25C243.33,354.94 243.3,355.56 244.13,357.94ZM522.364,466.737C542.209,458.592 656.708,449.375 744.901,488.713C772.664,501.095 878.577,599.584 799.823,385.03C790.971,360.914 806.725,415.932 781.373,351.002C776.503,338.53 759.397,320.563 760.919,319.823L750.11,309.5L738.31,297.08C731.82,290.25 722.01,280.88 716.51,276.25C706.78,268.07 706.38,267.85 702.17,268.3C699.346,268.607 599.164,194.296 505.065,195.858C409.227,197.449 283.403,293.808 283.403,295.518C283.403,295.984 251.485,325.453 231.269,365.834C209.461,409.397 199.204,464.562 198.313,478.363C195.131,527.646 210.262,577.396 218.039,605.378C225.761,633.162 252.176,572.183 272.22,563.825M168,305.5C170.96,300.55 176.9,291.23 181.19,284.78C185.49,278.33 189,272.68 189,272.22C189,271.37 183.57,267 182.51,267C181.74,267 164.57,293.49 158.63,303.84C156,308.42 154.1,312.43 154.41,312.75C154.73,313.06 156.23,314.09 157.74,315.04C161.11,317.14 160.98,317.26 168,305.5ZM866.82,313.97L870.13,311.95L868.07,308.47C866.93,306.56 865.02,303.31 863.82,301.25C858.96,292.89 841.73,267 841.03,267C839.85,267 835,271.04 835,272.01C835,272.49 839.65,280 845.33,288.69C851.01,297.39 857.19,307.09 859.06,310.25C860.93,313.41 862.7,316 862.98,316C863.27,315.99 864.99,315.08 866.82,313.97ZM236.51,218.5L245.01,210.5L239.09,203.5L224.98,217.5C217.21,225.2 209.48,233.21 207.8,235.31L204.74,239.12L210.5,245.2L219.25,235.85C224.07,230.71 231.83,222.9 236.51,218.5ZM817.02,242.25L820.06,239.5L803.45,222.25C794.31,212.76 786.28,205 785.6,205C784.93,205 783.17,206.26 781.7,207.8L779.02,210.59L787.26,218.16C791.79,222.33 799.33,230.05 804,235.32C808.67,240.6 812.83,244.93 813.23,244.96C813.64,244.98 815.34,243.76 817.02,242.25ZM297.72,171.64C301.69,169.36 304.95,167.1 304.97,166.62C305.02,165.18 300.89,158.95 300.16,159.38C281.66,170.33 264,182.35 264,183.99C264,184.46 265.14,186.2 266.52,187.84L269.05,190.84L279.77,183.31C285.67,179.17 293.75,173.91 297.72,171.64ZM757.69,186.83C758.96,185.63 760,184.12 760,183.46C760,181.64 726.96,159 724.3,159C723.76,159 722.7,160.24 721.94,161.75C721.18,163.26 720.41,164.8 720.23,165.17C720.04,165.54 725.87,169.76 733.17,174.54C740.48,179.32 748.03,184.53 749.96,186.12C754.15,189.57 754.71,189.62 757.69,186.83ZM696.03,148.45C697.24,146.49 698.06,144.75 697.86,144.57C696.02,142.91 656.56,126 654.54,126C653.98,126 651.74,134.08 652.18,134.5C652.36,134.66 657,136.47 662.5,138.51C668,140.55 677.23,144.41 683,147.09C688.77,149.78 693.58,151.98 693.67,151.99C693.76,151.99 694.82,150.4 696.03,148.45ZM356.25,141.99C361.06,140.2 365,138.4 365,137.99C365,137.58 364.32,135.63 363.5,133.65C362.08,130.26 361.83,130.12 359.25,131.13C357.74,131.72 352.45,133.69 347.5,135.51C342.55,137.34 336.66,139.65 334.4,140.66L330.3,142.5L332.17,146.7L334.03,150.9L340.77,148.08C344.47,146.52 351.44,143.79 356.25,141.99ZM414.6,122.52C422.24,120.61 432.01,118.5 436.31,117.84L444.11,116.64L443.44,112.57C443.07,110.33 442.63,108.34 442.46,108.15C441.86,107.5 418.51,112.01 408,114.81C400.96,116.68 397.41,118.1 397.21,119.13C396.83,121.11 398.69,126 399.82,126C400.3,126 406.95,124.43 414.6,122.52ZM612.56,120.25C612.9,118.74 613.35,116.92 613.56,116.22C613.78,115.52 612.96,114.51 611.73,113.99C607.07,111.99 568.36,105.31 567.35,106.32C567.06,106.6 566.6,108.56 566.32,110.67L565.81,114.5L578.15,116.25C584.94,117.21 595,119.07 600.5,120.37C606,121.68 610.83,122.81 611.23,122.87C611.63,122.94 612.23,121.76 612.56,120.25ZM528.5,111L529.1,103.3L521.58,102.67C513.43,101.98 483.13,102.94 482.6,103.91C482.42,104.23 482.48,106.13 482.73,108.13L483.19,111.75L505.84,111.38L528.5,111Z"/>
    </g>
</svg>
