<?xml version="1.0" encoding="UTF-8" standalone="no"?>
<!DOCTYPE svg PUBLIC "-//W3C//DTD SVG 1.1//EN" "http://www.w3.org/Graphics/SVG/1.1/DTD/svg11.dtd">
<svg width="100%" height="100%" viewBox="0 0 1024 1024" version="1.1" xmlns="http://www.w3.org/2000/svg" xmlns:xlink="http://www.w3.org/1999/xlink" xml:space="preserve" xmlns:serif="http://www.serif.com/" style="fill-rule:evenodd;clip-rule:evenodd;stroke-linejoin:round;stroke-miterlimit:2;">
    <path d="M193.51,878.45C177.9,876.58 156.72,873 155.7,872.05C154.39,870.82 148.18,847.57 145.56,834.06C139.72,803.96 138.04,765.08 141.48,739.5C144.37,717.99 152.31,691.99 162.49,670.66C168.57,657.92 166.22,660.61 221.85,602.5C272.11,550.01 267.89,554 273.07,554L277.49,554L350.57,627.06L355.04,622.72C371.85,606.4 474.66,504.25 475.32,503.22C475.83,502.42 475.24,500.93 473.74,499.22C472.43,497.72 440.44,465.68 402.66,428.02C339.81,365.35 333.81,359.64 332,360.77C327.67,363.47 325.89,362.36 312.52,348.51L299.5,335.01L290,338.17C281.71,340.92 278.77,341.38 266.95,341.77C251.08,342.29 242.01,341.1 229.5,336.86C212.38,331.05 199.61,323.03 185.9,309.5C179.44,303.13 177.79,302 174.9,302C171.91,302 170.32,300.79 161.77,292.05C150.28,280.31 148,276.9 148.03,271.5C148.07,262.67 156.56,252 163.55,252C168.16,252 172.14,248.04 171.43,244.15C171,241.78 175.05,237.34 209.38,202.5C243.23,168.15 248.03,163.63 249.66,164.62C251.12,165.51 252.07,165.35 254.25,163.81C256.5,162.21 257,161.11 257,157.68C257,154.34 257.76,152.55 260.75,148.83C265.87,142.47 270.46,140 277.14,140.01C283.72,140.01 286.37,141.35 295.01,149.01C302.99,156.09 305.6,160.6 303.87,164.38C302.8,166.74 303.25,167.46 310.83,175.56C340.47,207.24 352.68,246.37 343.9,281.52L341.89,289.54L356.18,303.73L370.47,317.91L369.22,321.21L367.97,324.5L432.24,388C467.59,422.93 499.99,454.84 504.25,458.91L511.99,466.33L518.74,459.97C522.46,456.47 554.89,424.6 590.81,389.16C636.61,343.95 655.8,324.4 655.06,323.66C652,320.6 653.93,317.65 667.87,303.99L681.75,290.39L679.82,282.95C673.8,259.66 678.29,229.37 691.16,206.5C697.46,195.31 702.11,188.98 712.51,177.5C720.43,168.76 720.65,168.38 720.23,164.25C719.8,160.13 720,159.78 727.05,152.52C731.04,148.4 736.18,144.12 738.47,143.01C747.32,138.73 756.53,141.58 763.56,150.78C766.65,154.81 767.09,156.03 766.59,159.14C766.07,162.41 766.36,163.04 769.44,165.39C771.46,166.93 773.13,167.59 773.5,167C773.84,166.45 774.88,166.05 775.81,166.11C776.74,166.17 794.38,183.55 815,204.73C850.98,241.69 852.5,243.4 852.5,247.04C852.5,251.72 856.19,256.22 859.41,255.47C862.23,254.81 868.63,258.66 872.32,263.24C874.61,266.08 875.44,268.29 875.79,272.43C876.37,279.52 875.1,281.52 861.26,295.27C852.75,303.74 849.72,306.13 847.15,306.46C844.98,306.73 841.77,308.7 837.68,312.28C805.8,340.15 768.92,349.31 731.83,338.57L723.96,336.29L710.97,349.76C697.39,363.83 697.91,363.52 691.5,361.55C689.1,360.81 685.59,364.18 604.72,444.82C573.49,475.95 548.06,501.9 548.22,502.47C548.57,503.76 672.91,626.56 673.65,626.35C673.95,626.26 690.37,610.13 710.13,590.51C749.21,551.71 749.98,551.11 756.37,554.69C758.15,555.68 768.15,565.5 778.59,576.5C789.03,587.5 807.46,606.88 819.54,619.56C856.77,658.65 856.19,657.94 862.85,672.62C879.57,709.49 884.4,732.13 884.28,773C884.19,805.12 880.45,832.07 871.65,864L869.31,872.5L857.4,874.69C837.45,878.36 829.4,879.14 806,879.7C788.53,880.12 780.48,879.87 770,878.59C754.06,876.64 736.01,873.1 723.53,869.48C704.73,864.03 677.5,851.25 666.16,842.55C657.91,836.23 565.96,745.68 565.36,743.29C563.76,736.91 564.58,735.91 601.5,699.07C621.02,679.59 637,663.35 637,662.98C637,662.53 520.37,545.58 512.53,538.17C512.34,537.99 501.9,548.17 489.34,560.78C476.78,573.4 448.61,601.69 426.75,623.65L387.01,663.57L423.5,700.02C461.39,737.86 462.86,739.65 460.15,744.71C459.59,745.77 451.81,753.8 442.86,762.57C433.91,771.33 413.3,791.61 397.05,807.64C380.8,823.67 366.15,837.87 364.5,839.2C350.72,850.27 317.86,865.4 294.36,871.51C271.54,877.44 257.35,879.23 230.5,879.57C213.19,879.79 201.81,879.44 193.51,878.45ZM285.58,753.95C325.51,745.65 348.79,733.37 385.25,701.4C388.41,698.63 388.87,694.61 386.35,691.83C383.12,688.27 380.06,689.53 369,699.02C346.82,718.04 331.74,727 308.61,734.94C299.23,738.16 280,743 276.59,743C274.55,743 278.57,720.55 283.08,706.74C287.76,692.42 294.35,680.08 308.46,659.19C325.92,633.33 325.31,634.38 324.58,631.45C323.83,628.48 320.1,626.51 316.82,627.33C313.16,628.25 288.16,665.89 279.6,683.36C270.75,701.43 264.81,723.78 263.37,744.4C262.37,758.78 262.37,758.78 285.58,753.95ZM759.88,755.37C762.12,753.8 762.19,753.38 761.55,745.12C759.31,716.29 749.03,686.27 732.91,661.5C722.07,644.85 709.8,628.07 708.07,627.52C705.12,626.59 701.12,628.69 700.4,631.54C699.56,634.89 700.59,637.04 707.08,645.55C715.04,655.98 729.59,679.32 734.48,689.5C740.14,701.28 744.39,714.24 746.94,727.43C749.66,741.54 749.64,743.18 746.75,742.56C745.51,742.29 741.8,741.58 738.5,740.97C729.02,739.21 711.38,733.44 700.73,728.61C688.35,723 674.94,714.05 658.89,700.71C651.96,694.94 645.39,689.94 644.3,689.6C641.35,688.66 637,692.46 637,695.97C637,698.38 639.04,700.46 651.25,710.46C684.39,737.61 706.01,747.86 745,754.87C750.77,755.91 755.96,756.81 756.53,756.88C757.09,756.95 758.6,756.27 759.88,755.37ZM775.06,309.58C788.68,307.15 802.04,300.31 816.41,288.41L823.32,282.69L819.27,278.91C816.67,276.48 814.55,275.3 813.36,275.59C811.97,275.94 805.41,269.8 787.41,251.28C747.98,210.73 745,207.43 745,204.21C745,202.37 743.95,200.37 742.01,198.51L739.02,195.65L735.15,199.72C702.23,234.33 700.53,279.29 731.33,301.06C743.87,309.93 757.85,312.65 775.06,309.58ZM272.5,308.49C286.88,305.47 299.28,296.48 306.97,283.52C315.87,268.53 316.25,247.46 307.97,227.59C303.18,216.08 287.75,194 284.5,194C282.21,194 278,199.95 278,203.18C278,205.81 274.11,210.17 248.87,235.86C210.32,275.09 212.34,273.19 209.66,272.84C208.25,272.65 205.89,273.77 203.47,275.76L199.57,278.98L204.03,283.62C210.01,289.82 222.7,299.24 229.22,302.32C244.3,309.43 258.44,311.45 272.5,308.49Z"/>
</svg>
