<svg version="1.1" xmlns="http://www.w3.org/2000/svg" xmlns:xlink="http://www.w3.org/1999/xlink" width="1024" height="1024" viewBox="0 0 1024 1024">
<path stroke="#2B2B2B" stroke-width="1.0" fill="#000000" fill-rule="evenodd" d="M258.50,887.98C251.10,886.65 241.17,883.29 236.40,880.49C231.99,877.91 221.76,867.30 219.50,862.97C218.77,861.57 217.85,858.65 217.45,856.47C217.05,854.28 215.69,850.70 214.43,848.50C213.16,846.30 211.83,842.02 211.47,839.00L210.82,833.50L212.78,836.56C215.32,840.52 222.18,846.43 228.50,850.09C236.37,854.64 237.01,853.51 230.22,847.05C225.19,842.26 222.99,839.08 218.91,830.70C213.29,819.14 211.43,811.46 214.53,812.65C215.86,813.16 216.12,813.00 215.51,812.02C214.96,811.13 215.08,810.93 215.85,811.40C216.48,811.80 217.00,811.73 217.00,811.25C217.00,810.35 209.12,789.78 208.55,789.22C208.38,789.04 208.26,791.17 208.31,793.95C208.36,797.23 208.70,798.56 209.29,797.75C209.91,796.89 210.01,797.06 209.61,798.30C209.29,799.29 209.43,799.85 209.92,799.55C210.41,799.25 210.58,799.90 210.29,801.00C209.97,802.23 210.26,803.00 211.05,803.00C211.76,803.00 212.08,803.26 211.76,803.57C210.91,804.42 207.00,801.71 207.00,800.26C207.00,799.57 206.64,799.00 206.20,799.00C204.83,799.00 201.00,790.10 201.00,786.91C201.00,785.15 201.42,784.14 202.00,784.50C202.55,784.84 203.00,784.11 203.00,782.87C203.00,780.67 203.04,780.67 204.47,782.56C206.82,785.66 206.25,783.04 202.60,773.97C196.82,759.57 196.50,760.22 206.79,765.40C216.40,770.22 227.52,774.33 229.33,773.72C229.95,773.52 225.28,770.82 218.97,767.73C212.66,764.64 204.80,760.05 201.50,757.54C192.14,750.42 181.96,740.14 180.28,736.14C177.50,729.52 174.11,717.06 173.42,710.98C172.65,704.19 172.88,704.04 181.24,706.00C211.59,713.08 222.20,714.62 247.55,715.58C272.65,716.53 310.34,714.07 342.00,709.40C387.59,702.68 454.01,684.01 501.00,664.71C565.26,638.33 590.79,618.73 608.22,582.39C610.45,577.74 612.03,573.69 611.72,573.39C611.41,573.08 610.64,573.80 610.01,574.99C608.35,578.09 605.18,581.05 604.79,579.87C604.61,579.32 601.11,584.19 597.02,590.68C588.77,603.81 576.17,617.39 565.00,625.22C542.44,641.02 489.77,663.53 442.50,677.57C371.39,698.70 291.56,709.79 237.34,706.09C216.87,704.70 199.94,701.99 188.97,698.37C179.99,695.40 171.64,690.59 172.25,688.72C172.47,688.05 174.42,687.27 176.58,687.00L180.50,686.50L173.79,679.88C170.09,676.24 167.31,673.02 167.60,672.73C167.90,672.44 167.43,669.82 166.57,666.92C164.95,661.45 164.44,655.11 165.74,656.40C166.14,656.81 167.19,655.43 168.07,653.33L169.67,649.53L169.67,655.51C169.68,663.02 172.37,669.36 177.44,673.81C182.47,678.23 183.08,677.16 178.63,671.73C175.31,667.67 172.00,661.37 172.00,659.10C172.00,658.57 175.71,660.07 180.25,662.43C203.32,674.42 236.12,679.19 280.46,677.00C340.61,674.04 404.99,661.38 467.00,640.34C496.40,630.36 520.62,619.93 523.97,615.79C524.99,614.53 525.71,613.38 525.57,613.24C525.08,612.75 500.50,624.24 500.16,625.12C499.98,625.61 499.49,625.80 499.08,625.55C498.67,625.29 494.09,626.67 488.91,628.60C412.56,657.14 333.74,672.21 261.00,672.16C224.61,672.14 206.42,669.46 188.36,661.48C173.02,654.70 173.25,649.37 189.73,630.41C197.71,621.22 199.41,618.51 198.55,616.28C198.09,615.06 197.21,615.57 194.56,618.61L191.16,622.50L191.70,618.34C192.21,614.43 192.04,614.07 189.00,612.50C187.21,611.58 182.22,607.34 177.90,603.08C165.85,591.21 162.26,582.25 160.03,558.50C159.41,551.90 158.48,544.58 157.95,542.24C157.43,539.89 157.06,532.47 157.14,525.74C157.23,518.03 157.53,514.98 157.94,517.50C158.30,519.70 158.96,508.81 159.41,493.29C159.86,477.78 160.52,463.71 160.87,462.03C161.22,460.35 161.53,476.64 161.57,498.24C161.66,549.81 163.59,571.76 169.03,583.34C171.89,589.43 178.85,597.13 184.44,600.41C190.47,603.94 192.62,603.67 186.93,600.09C181.27,596.54 174.86,589.36 172.09,583.48C169.49,577.94 169.20,574.35 171.65,578.03C178.56,588.40 191.12,596.00 201.35,596.00C207.00,596.00 207.46,595.80 211.63,591.63C217.41,585.86 217.26,583.72 211.43,588.85C208.92,591.06 205.58,593.15 204.02,593.50C197.45,594.94 185.62,589.47 178.10,581.51C168.94,571.82 167.68,566.90 166.01,534.00C164.69,508.05 164.75,479.58 166.15,468.50C166.78,463.55 167.22,457.82 167.12,455.76C166.79,448.36 173.73,439.59 183.98,434.47C209.74,421.60 259.15,416.27 336.00,418.07C390.06,419.34 434.29,423.89 472.00,432.08C488.75,435.72 493.44,437.26 499.47,441.08C505.02,444.60 506.66,444.35 501.82,440.72C489.67,431.62 466.48,426.35 404.50,418.59C368.16,414.05 357.86,413.50 308.50,413.50C269.01,413.50 259.18,413.79 247.00,415.32C220.44,418.66 199.94,423.25 186.04,428.98C182.02,430.64 178.55,432.00 178.34,432.00C178.13,432.00 178.24,430.88 178.59,429.51C178.99,427.91 178.47,425.60 177.14,423.05C175.40,419.71 175.25,418.56 176.18,415.79C176.78,413.98 178.19,411.49 179.31,410.25C180.43,409.01 180.82,408.00 180.17,408.00C177.73,408.00 179.15,404.55 183.11,400.90C187.78,396.59 200.41,390.95 211.88,388.05C222.54,385.36 249.44,381.36 269.00,379.56C298.10,376.88 334.40,375.72 376.50,376.12C399.05,376.33 413.68,376.25 409.00,375.94C402.35,375.50 401.68,375.33 405.92,375.19C418.23,374.76 408.44,374.09 372.98,372.94C343.82,371.98 329.24,371.97 307.51,372.89C247.75,375.42 215.26,380.84 187.67,392.89C185.01,394.05 182.65,395.00 182.42,395.00C182.19,395.00 182.00,393.72 182.00,392.16C182.00,389.65 182.77,388.94 188.70,386.05C192.39,384.25 199.93,381.24 205.45,379.36C210.98,377.48 213.93,376.17 212.00,376.45C210.07,376.74 207.93,376.61 207.24,376.17C205.20,374.87 209.97,371.15 214.38,370.60C216.49,370.34 218.31,369.98 218.44,369.81C218.57,369.64 219.84,366.35 221.27,362.50C229.62,339.94 246.25,308.78 260.90,288.20C270.58,274.62 288.25,253.04 299.01,241.67C307.95,232.23 323.87,217.53 324.49,218.15C324.71,218.38 321.92,221.92 318.29,226.01C312.22,232.85 304.13,243.26 298.09,252.00C287.68,267.08 277.15,283.62 270.65,295.09C259.95,313.98 239.85,359.18 241.44,360.78C242.20,361.53 241.58,362.62 251.96,342.50C266.94,313.49 282.51,289.74 298.82,271.00C314.75,252.70 333.25,235.44 341.60,231.09C345.41,229.11 345.84,229.08 348.83,230.56C350.57,231.43 352.00,232.82 352.00,233.63C352.00,234.45 352.47,234.83 353.04,234.47C353.62,234.12 354.63,234.27 355.29,234.81C355.96,235.36 357.74,235.66 359.25,235.49C360.76,235.32 362.00,235.61 362.00,236.15C362.00,236.68 362.41,236.86 362.92,236.55C363.42,236.24 365.11,236.48 366.67,237.09C368.22,237.69 371.29,238.40 373.49,238.67C375.68,238.93 377.70,239.48 377.99,239.88C378.27,240.28 380.20,240.52 382.28,240.41C384.52,240.29 386.66,240.80 387.53,241.67C388.34,242.48 389.00,242.70 389.00,242.17C389.00,241.63 389.83,241.41 390.85,241.67C391.87,241.94 393.34,241.52 394.11,240.75C394.89,239.97 396.72,239.50 398.19,239.69C399.65,239.89 401.14,239.59 401.49,239.02C401.84,238.46 403.11,238.24 404.31,238.54C406.31,239.04 406.53,238.67 406.80,234.30C407.31,226.18 407.48,225.00 408.12,225.00C408.47,225.00 409.03,223.62 409.36,221.93C409.70,220.23 410.43,219.15 410.99,219.49C411.54,219.84 412.00,219.67 412.00,219.12C412.00,218.57 411.58,217.86 411.07,217.54C410.04,216.90 410.76,210.51 412.17,207.75C413.18,205.79 411.46,201.60 410.02,202.49C409.00,203.12 408.04,201.82 407.51,199.08C407.24,197.66 407.96,196.86 410.22,196.07C414.37,194.63 415.88,194.77 413.72,196.41C412.12,197.63 412.10,197.83 413.55,198.38C415.85,199.26 416.21,199.16 415.40,197.85C414.94,197.09 415.13,196.96 415.98,197.48C416.83,198.01 417.11,197.82 416.80,196.91C415.79,193.88 420.61,190.95 434.50,186.16C450.61,180.60 473.00,176.20 504.00,172.51C518.83,170.74 532.86,168.48 533.60,167.73C534.98,166.35 511.04,165.85 494.60,166.91C462.90,168.97 447.30,171.78 416.72,180.96C407.49,183.73 399.62,186.00 399.23,186.00C397.55,186.00 406.53,180.75 418.79,174.57C439.07,164.34 458.45,158.31 485.50,153.82C510.25,149.71 565.60,151.58 577.50,156.93C579.70,157.92 583.30,158.81 585.50,158.91C591.89,159.19 610.01,163.71 620.27,167.58C622.34,168.36 625.69,169.00 627.70,169.00C631.01,169.00 635.92,170.75 643.00,174.46C644.38,175.18 647.41,176.09 649.75,176.47C652.09,176.86 654.00,177.54 654.00,177.99C654.00,179.07 659.65,181.00 662.83,181.00C664.23,181.00 666.30,181.86 667.44,182.91C668.57,183.96 674.00,186.73 679.50,189.06C689.87,193.45 719.26,209.49 729.18,216.16C734.97,220.06 735.40,220.69 736.56,227.27L737.23,231.04L727.37,225.32C699.76,209.31 667.09,197.96 635.60,193.44C620.92,191.34 592.65,191.39 578.84,193.54C568.06,195.22 550.98,199.22 546.88,201.01C544.77,201.93 544.89,202.00 548.00,201.59C549.92,201.34 556.90,199.99 563.50,198.61C583.99,194.30 595.98,193.55 615.00,195.37C660.53,199.73 690.40,208.67 725.27,228.35C737.58,235.30 739.00,236.38 739.02,238.80C739.04,243.38 740.58,244.64 741.82,241.09C743.41,236.53 740.86,223.31 737.04,216.25C735.37,213.18 734.21,210.46 734.46,210.21C735.59,209.08 738.10,211.37 743.31,218.29C747.48,223.84 751.46,227.58 758.72,232.77C770.77,241.41 784.80,254.35 785.61,257.59C785.94,258.92 785.64,262.90 784.94,266.45L783.65,272.90L778.08,273.54C732.96,278.68 659.86,292.22 619.00,303.00C583.17,312.45 559.16,319.82 563.76,319.96C564.45,319.98 573.67,317.78 584.26,315.07C619.00,306.16 683.09,294.23 748.62,284.48C761.34,282.58 772.37,280.81 773.12,280.53C778.26,278.66 826.43,271.53 827.88,272.42C828.32,272.70 828.03,276.88 827.23,281.71C825.23,293.79 825.29,330.22 827.32,338.50L828.80,344.50L829.06,335.50C829.20,330.55 829.47,328.07 829.66,330.00C829.85,331.93 830.30,335.52 830.65,338.00C831.21,341.85 831.40,342.14 831.97,340.00C832.34,338.60 832.62,340.87 832.59,345.19C832.57,349.42 832.86,353.20 833.25,353.59C833.64,353.97 835.75,353.10 837.95,351.65C841.81,349.10 841.97,349.08 842.97,350.95C843.70,352.31 843.68,353.08 842.90,353.56C842.09,354.06 842.10,354.44 842.93,354.96C844.77,356.09 820.65,370.06 808.57,374.84C794.22,380.53 782.66,382.66 759.30,383.91C739.03,385.00 725.66,387.19 713.08,391.47C709.00,392.86 705.49,393.82 705.28,393.61C704.65,392.98 711.10,389.36 717.50,386.75C725.59,383.46 732.28,381.17 753.50,374.44C770.01,369.20 783.85,363.52 782.76,362.42C782.51,362.18 780.33,362.68 777.91,363.54C775.48,364.40 763.71,366.89 751.74,369.09C724.13,374.14 713.78,376.79 702.34,381.74C684.47,389.46 670.10,400.94 657.71,417.40C650.57,426.88 649.49,429.22 653.46,426.62C657.97,423.66 657.49,424.94 652.00,430.50C649.01,433.53 646.85,436.00 647.18,436.00C648.34,436.00 658.31,428.93 663.91,424.14C672.27,416.99 682.09,410.29 688.13,407.63C693.64,405.20 707.08,401.74 707.88,402.55C708.73,403.40 707.28,404.05 700.25,406.00C693.36,407.91 684.61,412.53 680.37,416.50C679.19,417.60 676.57,419.78 674.55,421.35C668.78,425.81 671.13,425.60 679.09,420.94C689.01,415.16 699.36,410.47 709.76,407.07L718.50,404.21L713.75,403.49C711.14,403.10 709.00,402.45 709.00,402.05C709.00,400.09 728.92,397.40 753.50,396.05C773.19,394.96 783.89,393.28 794.92,389.53C803.10,386.75 811.45,385.25 809.00,387.01C805.86,389.26 793.27,395.36 788.00,397.18C783.70,398.67 736.36,410.00 734.44,410.00C734.20,410.00 734.00,410.71 734.00,411.57C734.00,412.58 734.62,412.96 735.75,412.65C736.71,412.38 741.10,411.87 745.50,411.52C775.88,409.09 793.71,403.27 815.82,388.60C831.46,378.22 842.86,370.29 845.50,367.95C847.92,365.80 858.40,360.00 859.86,360.00C860.43,360.00 863.74,358.03 867.20,355.62C874.67,350.44 881.24,347.00 883.68,347.00C885.09,347.00 884.95,347.35 882.97,348.72C876.43,353.28 864.00,364.97 857.76,372.42L852.81,378.33L853.50,383.92C853.88,386.99 854.31,389.62 854.45,389.78C854.60,389.93 856.78,389.16 859.31,388.08C867.36,384.63 873.30,382.80 881.00,381.40C889.14,379.92 905.38,379.60 901.00,381.00L898.50,381.80L901.10,381.90C904.53,382.03 910.11,384.01 909.57,384.89C909.01,385.80 905.04,385.58 902.63,384.52C900.13,383.42 886.50,385.53 876.36,388.59C867.69,391.21 859.80,395.78 859.41,398.41C859.11,400.49 859.00,400.51 866.79,396.85C870.48,395.12 874.69,393.66 876.15,393.60C877.61,393.55 878.55,393.09 878.24,392.58C877.92,392.07 878.44,391.95 879.39,392.32C880.36,392.69 883.70,391.89 887.02,390.49C893.58,387.73 894.40,387.54 893.50,389.00C892.74,390.23 893.42,390.22 898.50,388.95C904.26,387.50 930.31,386.05 931.45,387.11C931.97,387.60 933.21,388.00 934.20,388.00C935.19,388.00 936.00,388.45 936.00,389.00C936.00,390.13 934.53,390.25 931.26,389.37C930.03,389.04 929.26,388.38 929.56,387.90C929.86,387.42 928.84,387.23 927.30,387.47C925.76,387.71 921.37,388.18 917.54,388.50C913.72,388.83 910.12,389.48 909.54,389.95C908.97,390.42 906.49,391.34 904.03,392.00C901.58,392.66 897.53,394.13 895.03,395.27C890.60,397.30 876.99,405.62 876.00,406.90C875.73,407.26 873.48,409.10 871.00,411.00C868.52,412.90 866.27,414.69 866.00,414.98C865.73,415.27 863.81,416.77 861.75,418.31C858.68,420.59 858.00,421.73 858.00,424.55C858.00,426.89 858.48,428.04 859.50,428.12C864.43,428.54 866.75,428.41 866.34,427.75C866.09,427.34 867.47,427.20 869.42,427.45C872.23,427.81 873.27,427.45 874.48,425.73C875.31,424.53 876.00,423.89 876.00,424.30C876.00,424.71 877.80,424.12 880.00,423.00C884.92,420.49 885.37,421.81 880.49,424.44C878.55,425.48 876.42,427.00 875.74,427.81C874.70,429.06 874.86,429.18 876.76,428.58C880.29,427.45 879.46,428.31 872.63,432.84C869.13,435.16 864.40,438.88 862.13,441.11C858.70,444.47 858.00,445.81 858.00,449.02C858.00,451.14 858.40,453.13 858.89,453.43C859.65,453.90 864.00,452.47 872.50,448.96C873.60,448.50 876.30,447.59 878.50,446.93C880.70,446.26 883.62,445.38 885.00,444.95C890.54,443.25 899.70,441.86 903.00,442.22C905.91,442.53 906.16,442.73 904.50,443.40C903.40,443.84 896.06,447.40 888.18,451.31C872.45,459.13 859.11,468.88 859.04,472.61C859.00,474.59 859.49,474.71 866.75,474.61C876.92,474.47 886.23,475.80 885.73,477.33C885.52,477.97 881.78,479.45 877.42,480.61C872.39,481.96 870.23,482.91 871.50,483.23C872.60,483.50 871.99,483.53 870.15,483.30C868.17,483.05 867.05,483.26 867.39,483.83C868.18,485.09 863.39,486.26 860.79,485.43C859.43,485.00 858.98,485.15 859.43,485.89C859.83,486.53 859.13,487.38 857.81,487.89C854.81,489.04 851.68,492.54 852.22,494.15C852.45,494.85 854.86,496.20 857.57,497.17L862.50,498.92L857.84,498.96C853.87,498.99 853.26,499.26 853.66,500.79C854.34,503.41 860.31,505.60 870.42,506.94C875.32,507.59 882.02,509.05 885.30,510.18C888.59,511.32 892.36,512.25 893.68,512.25C895.00,512.25 895.83,512.50 895.53,512.81C894.91,513.42 900.28,515.94 903.54,516.57C906.07,517.06 916.75,522.79 917.55,524.08C917.87,524.60 918.63,524.73 919.22,524.36C919.92,523.93 920.02,524.16 919.50,525.00C919.00,525.80 919.08,526.07 919.70,525.68C920.76,525.03 923.83,528.09 927.88,533.81C930.44,537.43 930.11,539.25 927.39,536.53C923.11,532.25 910.41,526.35 899.00,523.33C883.33,519.18 853.00,523.30 853.00,529.58C853.00,530.47 850.97,531.95 848.19,533.11C843.46,535.08 843.35,535.22 841.89,541.56C841.07,545.10 840.70,548.00 841.07,548.00C841.44,548.00 843.61,547.34 845.87,546.54C850.60,544.88 851.54,546.12 846.98,548.01C842.27,549.96 842.07,551.40 846.60,550.68C851.09,549.96 858.13,546.80 862.50,543.54C865.86,541.03 871.48,537.99 872.70,538.02C873.68,538.05 868.80,541.95 867.74,541.98C867.32,541.99 865.66,543.18 864.05,544.61C862.44,546.05 860.08,547.79 858.81,548.48C852.79,551.76 851.35,552.61 849.39,554.00C848.23,554.83 846.96,556.53 846.56,557.79C846.17,559.05 844.08,561.24 841.92,562.67C839.76,564.10 838.00,565.34 838.00,565.42C838.00,565.86 827.68,594.20 825.88,598.70C823.57,604.50 823.78,604.38 806.50,609.57C793.06,613.60 747.23,628.66 741.50,630.93C738.75,632.02 737.16,632.93 737.96,632.95C740.56,633.04 737.06,635.50 730.66,638.08C720.18,642.32 726.38,641.19 744.12,635.64C753.68,632.65 767.80,628.31 775.50,626.01C783.20,623.70 795.44,619.83 802.71,617.41C814.91,613.34 820.00,612.19 820.00,613.53C820.00,616.35 802.17,658.77 796.31,669.89C794.46,673.40 793.14,676.47 793.37,676.71C793.94,677.27 801.99,673.21 804.25,671.23C805.88,669.80 806.00,669.94 806.00,673.17C806.00,676.45 805.58,676.89 798.35,681.02C794.14,683.43 791.18,685.56 791.78,685.76C792.38,685.96 794.29,685.39 796.03,684.49C797.76,683.59 799.39,683.06 799.64,683.31C800.27,683.93 793.25,696.54 791.45,698.04C790.64,698.71 786.95,700.89 783.24,702.88C779.53,704.87 776.39,707.06 776.25,707.75C775.86,709.69 777.54,709.27 784.28,705.76C787.70,703.97 790.95,702.34 791.50,702.13C793.58,701.32 786.31,708.33 782.00,711.29C779.52,712.99 774.15,717.44 770.06,721.19C764.41,726.37 762.12,727.87 760.56,727.44C759.08,727.03 758.88,727.13 759.86,727.81C761.63,729.04 759.80,730.21 757.34,729.41C756.00,728.97 755.86,729.07 756.83,729.76C758.55,731.00 745.08,739.74 733.08,745.18C728.36,747.31 721.80,750.36 718.50,751.95C713.25,754.48 704.30,757.50 694.50,760.05C683.37,762.94 679.15,764.44 669.90,768.79C648.61,778.82 647.17,779.45 634.50,784.20C622.29,788.78 582.31,801.86 572.25,804.58C569.36,805.36 564.41,806.71 561.25,807.59C558.09,808.46 554.15,809.55 552.50,810.00C550.85,810.45 546.91,811.54 543.75,812.41C528.81,816.53 526.07,817.25 520.00,818.56C508.35,821.10 483.03,830.29 466.00,838.18C462.43,839.83 456.57,842.34 453.00,843.74C449.43,845.15 446.07,846.68 445.55,847.15C445.03,847.62 444.01,848.00 443.29,848.00C442.57,848.00 440.07,848.87 437.74,849.94C430.76,853.13 415.84,858.65 398.67,864.39C363.89,876.02 346.24,880.75 321.50,885.11C306.09,887.82 300.62,888.32 283.50,888.58C272.50,888.74 261.25,888.47 258.50,887.98ZM235.59,870.99C233.01,868.23 229.84,863.70 228.56,860.92C226.50,856.50 220.39,850.28 219.23,851.44C218.47,852.20 225.16,863.83 228.80,868.08C232.20,872.05 237.47,875.99 239.39,876.00C239.87,876.00 238.16,873.74 235.59,870.99ZM399.31,760.13C419.01,743.60 441.61,729.20 471.50,714.15C483.05,708.34 488.60,705.07 487.00,705.03C485.01,704.98 484.81,704.77 486.00,704.00C487.18,703.24 487.21,703.03 486.13,703.02C485.02,703.00 485.00,702.71 486.00,701.50C486.68,700.67 487.02,700.00 486.75,700.00C485.10,700.00 453.81,715.68 445.94,720.45C435.18,726.98 415.85,740.65 405.45,749.08C395.19,757.40 380.85,771.94 381.63,773.22C382.02,773.84 381.85,774.03 381.24,773.65C379.87,772.80 371.01,782.86 371.65,784.54C371.94,785.30 375.91,782.07 381.63,776.40C386.85,771.23 394.80,763.91 399.31,760.13ZM269.11,756.95C305.89,747.85 313.86,744.71 320.32,736.74C323.79,732.46 328.00,724.95 328.00,723.04C328.00,720.54 325.17,722.35 322.98,726.25C319.58,732.31 312.65,739.41 308.26,741.32C303.87,743.24 283.01,749.04 271.50,751.55C267.10,752.51 259.30,754.29 254.16,755.50C247.76,757.02 244.71,757.36 244.46,756.61C244.26,756.00 243.37,750.33 242.49,744.00C240.86,732.30 240.10,728.57 239.46,729.20C239.27,729.40 239.95,735.91 240.99,743.67C242.03,751.42 242.62,758.72 242.32,759.89C241.84,761.74 242.20,762.00 245.24,762.00C247.15,762.00 257.89,759.73 269.11,756.95ZM227.94,759.25C227.78,754.20 224.30,728.30 223.65,727.24C222.99,726.18 220.00,725.42 220.00,726.31C220.00,726.48 220.90,733.09 222.00,741.00C223.10,748.91 224.00,755.71 224.00,756.12C224.00,756.93 203.41,745.79 197.88,742.00C190.99,737.28 187.69,733.26 182.94,723.83C178.21,714.45 176.00,711.41 176.00,714.27C176.00,716.15 180.38,728.91 182.31,732.63C185.65,739.08 199.25,748.93 215.31,756.52C225.50,761.34 228.03,761.88 227.94,759.25ZM448.42,749.46C449.71,748.61 451.16,748.03 451.63,748.16C452.95,748.52 457.00,746.97 457.00,746.10C457.00,745.68 457.61,745.33 458.36,745.33C459.11,745.33 462.83,743.74 466.61,741.78C470.40,739.83 491.50,730.26 513.50,720.51C552.83,703.08 573.86,693.13 587.30,685.59C594.83,681.36 595.75,679.85 588.90,682.96C586.48,684.06 583.62,684.97 582.55,684.98C581.47,684.99 579.22,686.31 577.55,687.91C573.89,691.40 567.01,694.52 566.98,692.70C566.98,691.95 566.70,691.87 566.23,692.50C565.83,693.05 564.38,693.63 563.02,693.78C560.59,694.05 560.58,694.02 562.52,692.45C565.15,690.31 564.48,690.56 543.50,699.76C533.60,704.09 518.75,710.49 510.50,713.97C488.80,723.13 467.91,733.80 455.72,741.95C449.87,745.86 444.81,749.50 444.48,750.03C443.57,751.51 445.78,751.19 448.42,749.46ZM219.73,725.40C219.40,725.06 218.53,725.03 217.81,725.32C217.01,725.64 217.25,725.87 218.42,725.92C219.47,725.96 220.06,725.73 219.73,725.40ZM215.73,724.40C215.40,724.06 214.53,724.03 213.81,724.32C213.01,724.64 213.25,724.87 214.42,724.92C215.47,724.96 216.06,724.73 215.73,724.40ZM212.25,723.34C211.56,723.06 210.44,723.06 209.75,723.34C209.06,723.62 209.62,723.84 211.00,723.84C212.38,723.84 212.94,723.62 212.25,723.34ZM201.00,720.06C196.32,718.55 189.70,716.11 186.28,714.65C179.68,711.84 176.84,711.24 178.64,713.04C180.05,714.45 205.00,722.95 207.50,722.88C208.60,722.84 205.68,721.57 201.00,720.06ZM581.14,683.43C582.82,682.56 583.96,681.63 583.69,681.35C583.15,680.82 577.00,683.73 577.00,684.53C577.00,685.32 577.97,685.07 581.14,683.43ZM601.50,677.00C601.84,676.45 601.67,676.00 601.12,676.00C600.57,676.00 599.84,676.45 599.50,677.00C599.16,677.55 599.33,678.00 599.88,678.00C600.43,678.00 601.16,677.55 601.50,677.00ZM616.50,665.99C617.29,664.72 616.37,664.73 613.93,666.04C612.87,666.60 612.00,667.52 612.00,668.07C612.00,669.22 615.51,667.60 616.50,665.99ZM736.73,633.40C736.40,633.06 735.53,633.03 734.81,633.32C734.01,633.64 734.25,633.87 735.42,633.92C736.47,633.96 737.06,633.73 736.73,633.40ZM673.41,625.00C674.88,625.00 676.09,624.09 676.85,622.43C677.76,620.43 678.63,619.93 680.76,620.18C682.88,620.43 683.77,621.29 684.67,624.00L685.85,627.50L685.92,623.67C685.98,620.72 685.34,619.18 683.08,616.92C681.44,615.29 679.08,614.00 677.71,614.00C671.96,614.00 667.68,621.23 669.58,627.74L670.39,630.50L670.76,627.75C671.04,625.67 671.68,625.00 673.41,625.00ZM189.00,624.12C189.00,623.57 189.45,622.84 190.00,622.50C190.55,622.16 191.00,622.33 191.00,622.88C191.00,623.43 190.55,624.16 190.00,624.50C189.45,624.84 189.00,624.67 189.00,624.12ZM543.50,603.00C543.84,602.45 543.67,602.00 543.12,602.00C542.57,602.00 541.84,602.45 541.50,603.00C541.16,603.55 541.33,604.00 541.88,604.00C542.43,604.00 543.16,603.55 543.50,603.00ZM834.00,600.03C834.00,599.50 834.67,599.32 835.50,599.64C836.33,599.95 837.00,600.39 837.00,600.61C837.00,600.82 836.33,601.00 835.50,601.00C834.67,601.00 834.00,600.56 834.00,600.03ZM322.55,594.75C321.73,593.51 319.48,591.25 317.55,589.73C313.73,586.70 309.01,580.95 292.52,559.19C274.86,535.91 268.52,530.74 259.63,532.41C256.03,533.08 250.00,537.32 250.00,539.18C250.00,539.73 251.36,539.03 253.03,537.63C259.32,532.33 267.12,533.32 274.82,540.38C277.29,542.65 285.16,552.38 292.30,562.00C299.45,571.62 309.13,583.44 313.83,588.25C322.12,596.75 325.60,599.34 322.55,594.75ZM383.75,594.09C405.73,590.26 436.36,580.96 468.02,568.49C475.99,565.35 484.90,561.89 487.83,560.79C493.84,558.54 499.37,554.13 501.61,549.78C504.12,544.93 502.58,544.34 499.79,549.08C496.16,555.26 493.22,557.10 478.45,562.48C417.90,584.50 390.77,591.79 365.75,592.74C358.19,593.02 352.00,593.68 352.00,594.19C352.00,594.70 352.36,594.90 352.80,594.62C353.24,594.35 354.25,594.55 355.05,595.05C357.49,596.60 372.16,596.10 383.75,594.09ZM863.81,592.32C864.53,592.03 865.40,592.06 865.73,592.40C866.06,592.73 865.47,592.96 864.42,592.92C863.25,592.87 863.01,592.64 863.81,592.32ZM877.81,588.32C878.53,588.03 879.40,588.06 879.73,588.40C880.06,588.73 879.47,588.96 878.42,588.92C877.25,588.87 877.01,588.64 877.81,588.32ZM208.69,583.83C210.07,582.55 213.44,576.77 216.19,571.00C235.75,529.87 240.35,522.91 251.57,517.42C264.74,510.98 286.36,514.47 298.33,524.99C300.39,526.79 302.32,528.01 302.64,527.69C303.29,527.04 297.46,521.70 292.11,518.05C287.18,514.69 273.39,510.03 268.31,510.01C262.99,510.00 260.74,507.38 262.07,502.77C262.55,501.08 263.01,495.38 263.08,490.10C263.15,484.82 263.47,480.08 263.78,479.56C264.10,479.04 264.49,476.05 264.66,472.91C264.83,469.77 265.68,464.35 266.54,460.85C267.40,457.36 268.33,452.48 268.62,450.00C268.91,447.52 269.69,444.94 270.35,444.26C272.62,441.92 283.29,440.84 305.90,440.67L328.50,440.50L328.12,449.95C327.78,458.67 327.87,459.27 329.37,457.77C330.27,456.87 331.00,454.97 331.00,453.53C331.00,452.07 332.11,449.80 333.50,448.41C334.88,447.03 336.00,445.35 336.00,444.68C336.00,444.00 336.68,442.48 337.51,441.30C339.00,439.16 338.97,439.14 330.26,438.60C325.44,438.30 312.27,437.73 301.00,437.32C287.04,436.83 281.94,436.37 285.00,435.88C291.26,434.90 262.72,435.89 250.50,437.08C223.99,439.67 205.46,443.21 204.06,445.96C203.63,446.81 202.74,455.15 202.09,464.50C201.43,473.85 200.03,492.30 198.96,505.50C195.91,543.37 194.00,569.87 194.00,574.55L194.00,578.85L199.18,580.37C202.04,581.21 204.69,581.69 205.09,581.44C205.49,581.20 206.07,578.86 206.39,576.25C210.99,538.43 215.78,493.87 218.49,463.73C219.27,455.05 220.18,447.51 220.51,446.98C220.85,446.44 222.49,446.00 224.17,446.00L227.21,446.00L226.58,455.25C226.23,460.34 225.48,470.80 224.90,478.50C224.33,486.20 222.80,506.90 221.50,524.50L219.15,556.50L213.82,569.49C209.37,580.35 208.02,582.71 205.60,583.87C198.86,587.09 185.82,580.58 182.33,572.25C177.76,561.33 175.68,535.45 176.16,495.64C176.45,471.24 176.73,467.05 178.25,464.10C180.29,460.14 180.55,456.65 178.77,457.24C178.09,457.47 176.46,459.75 175.15,462.30C171.71,468.97 170.48,493.84 171.93,527.00C173.20,556.00 173.98,561.48 178.02,569.70C184.93,583.74 200.91,591.10 208.69,583.83ZM218.00,582.88C218.00,582.33 217.55,582.16 217.00,582.50C216.45,582.84 216.00,583.57 216.00,584.12C216.00,584.67 216.45,584.84 217.00,584.50C217.55,584.16 218.00,583.43 218.00,582.88ZM379.76,581.31C378.81,581.06 377.01,581.05 375.76,581.29C374.52,581.53 375.30,581.74 377.50,581.75C379.70,581.76 380.72,581.56 379.76,581.31ZM386.73,580.40C386.40,580.06 385.53,580.03 384.81,580.32C384.01,580.64 384.25,580.87 385.42,580.92C386.47,580.96 387.06,580.73 386.73,580.40ZM700.73,580.40C700.40,580.06 699.53,580.03 698.81,580.32C698.01,580.64 698.25,580.87 699.42,580.92C700.47,580.96 701.06,580.73 700.73,580.40ZM690.49,575.72C686.08,573.40 681.00,570.44 679.18,569.14C677.37,567.84 675.72,566.94 675.53,567.14C675.08,567.59 678.69,572.10 679.45,572.04C681.49,571.88 682.00,572.17 682.00,573.51C682.00,574.84 681.59,574.85 678.75,573.66C676.96,572.90 672.57,570.27 668.98,567.81C665.40,565.35 661.13,563.01 659.48,562.61C655.67,561.67 648.77,557.19 649.45,556.08C649.98,555.23 648.69,554.65 639.50,551.63C632.80,549.43 631.63,549.64 636.50,552.16C638.70,553.30 646.12,557.64 653.00,561.79C667.79,570.73 677.27,575.26 686.64,577.87C698.17,581.09 699.38,580.41 690.49,575.72ZM777.00,578.45C799.51,574.80 819.59,568.09 838.31,557.94C841.50,556.20 843.91,554.58 843.67,554.33C843.42,554.08 838.55,555.24 832.86,556.90C816.94,561.53 810.86,562.76 792.82,564.96C783.65,566.08 775.89,567.00 775.57,567.00C775.26,567.00 775.00,567.44 775.00,567.97C775.00,568.51 776.46,569.37 778.25,569.88C780.38,570.50 780.81,570.86 779.50,570.94C777.54,571.06 777.54,571.10 779.40,572.50C781.19,573.85 781.20,573.99 779.56,574.62C778.59,574.99 768.29,575.03 756.65,574.71C737.39,574.18 734.43,573.85 723.50,571.06C716.90,569.37 710.92,568.21 710.21,568.48C708.42,569.16 700.89,567.23 692.10,563.83C676.89,557.96 685.34,563.45 702.12,570.35C710.91,573.96 725.03,577.53 736.00,578.92C746.98,580.31 766.92,580.09 777.00,578.45ZM222.98,573.19C222.97,571.73 222.84,571.71 222.00,573.00C220.73,574.96 220.73,576.28 222.00,575.50C222.55,575.16 222.99,574.12 222.98,573.19ZM926.00,575.00C924.67,574.14 924.67,574.03 926.00,574.03C926.83,574.03 928.17,574.47 929.00,575.00C930.33,575.86 930.33,575.97 929.00,575.97C928.17,575.97 926.83,575.53 926.00,575.00ZM932.50,573.00C932.16,572.45 932.33,572.00 932.88,572.00C933.43,572.00 934.16,572.45 934.50,573.00C934.84,573.55 934.67,574.00 934.12,574.00C933.57,574.00 932.84,573.55 932.50,573.00ZM938.00,571.00C939.94,569.75 941.00,569.75 941.00,571.00C941.00,571.55 939.99,571.99 938.75,571.98C936.93,571.97 936.79,571.78 938.00,571.00ZM310.18,563.78C309.47,563.07 309.00,563.01 309.00,563.63C309.00,564.97 310.18,566.15 310.85,565.48C311.13,565.20 310.83,564.43 310.18,563.78ZM229.97,558.00C229.97,556.67 229.86,556.67 229.00,558.00C228.47,558.83 228.03,560.17 228.03,561.00C228.03,562.33 228.14,562.33 229.00,561.00C229.53,560.17 229.97,558.83 229.97,558.00ZM304.93,557.07C301.60,552.91 301.00,552.41 301.00,553.77C301.00,554.96 307.17,562.17 307.72,561.62C307.98,561.35 306.73,559.30 304.93,557.07ZM244.47,532.47C249.23,526.66 255.00,524.00 262.85,524.00C272.83,524.00 280.52,528.93 291.39,542.28C295.72,547.59 297.47,547.95 293.96,542.81C289.41,536.14 278.46,525.76 273.50,523.40C263.41,518.60 252.76,521.02 244.74,529.95C240.57,534.58 229.98,553.43 230.02,556.12C230.03,556.88 232.50,552.83 235.50,547.13C238.50,541.42 242.54,534.83 244.47,532.47ZM298.50,549.00C297.50,547.89 296.45,547.21 296.18,547.49C295.90,547.76 296.50,548.89 297.50,550.00C298.50,551.11 299.55,551.79 299.82,551.51C300.10,551.24 299.50,550.11 298.50,549.00ZM851.16,540.00C851.16,538.62 851.38,538.06 851.66,538.75C851.94,539.44 851.94,540.56 851.66,541.25C851.38,541.94 851.16,541.38 851.16,540.00ZM535.25,539.34C534.56,539.06 533.44,539.06 532.75,539.34C532.06,539.62 532.62,539.84 534.00,539.84C535.38,539.84 535.94,539.62 535.25,539.34ZM541.00,539.61C541.00,539.39 540.33,538.95 539.50,538.64C538.67,538.32 538.00,538.50 538.00,539.03C538.00,539.56 538.67,540.00 539.50,540.00C540.33,540.00 541.00,539.82 541.00,539.61ZM820.00,539.00C821.33,538.14 821.33,538.03 820.00,538.03C819.17,538.03 817.83,538.47 817.00,539.00C815.67,539.86 815.67,539.97 817.00,539.97C817.83,539.97 819.17,539.53 820.00,539.00ZM307.00,531.50C306.29,530.65 305.49,530.18 305.21,530.45C304.94,530.73 305.29,531.65 306.00,532.50C306.71,533.35 307.51,533.82 307.79,533.55C308.06,533.27 307.71,532.35 307.00,531.50ZM764.50,522.74L771.50,521.54L753.50,520.88C732.73,520.13 720.80,518.27 705.89,513.49C693.45,509.49 678.10,506.00 672.98,506.00C670.99,506.00 666.92,505.27 663.93,504.38C659.38,503.02 655.41,502.85 639.50,503.37C628.71,503.72 615.53,504.81 609.00,505.88L597.50,507.77L605.50,507.89C609.90,507.96 619.15,507.48 626.07,506.84C641.13,505.43 652.98,506.41 675.92,510.95C693.05,514.34 694.87,514.54 690.50,512.54C688.85,511.78 687.83,511.13 688.24,511.08C690.17,510.87 705.16,515.54 710.50,518.01C713.80,519.54 718.43,521.32 720.80,521.95C731.97,524.95 749.71,525.27 764.50,522.74ZM695.73,514.40C695.40,514.06 694.53,514.03 693.81,514.32C693.01,514.64 693.25,514.87 694.42,514.92C695.47,514.96 696.06,514.73 695.73,514.40ZM679.75,509.34C680.44,509.06 681.56,509.06 682.25,509.34C682.94,509.62 682.38,509.84 681.00,509.84C679.62,509.84 679.06,509.62 679.75,509.34ZM675.81,508.32C676.53,508.03 677.40,508.06 677.73,508.40C678.06,508.73 677.47,508.96 676.42,508.92C675.25,508.87 675.01,508.64 675.81,508.32ZM881.81,502.32C882.53,502.03 883.40,502.06 883.73,502.40C884.06,502.73 883.47,502.96 882.42,502.92C881.25,502.87 881.01,502.64 881.81,502.32ZM874.81,500.32C875.53,500.03 876.40,500.06 876.73,500.40C877.06,500.73 876.47,500.96 875.42,500.92C874.25,500.87 874.01,500.64 874.81,500.32ZM868.75,499.34C869.44,499.06 870.56,499.06 871.25,499.34C871.94,499.62 871.38,499.84 870.00,499.84C868.62,499.84 868.06,499.62 868.75,499.34ZM857.08,494.42C857.13,493.25 857.36,493.01 857.68,493.81C857.97,494.53 857.94,495.40 857.60,495.73C857.27,496.06 857.04,495.47 857.08,494.42ZM607.00,483.90C611.67,482.23 617.52,480.28 620.00,479.56C629.01,476.93 645.97,470.06 667.00,460.52C678.83,455.15 690.30,450.11 692.50,449.31C698.71,447.05 737.44,438.58 751.00,436.51C759.28,435.25 774.99,430.98 780.77,428.42C786.71,425.79 796.33,420.00 795.74,419.40C795.55,419.21 792.04,420.36 787.95,421.95C779.07,425.38 769.40,427.42 754.50,428.98C704.43,434.24 686.23,440.00 645.50,463.50C621.14,477.56 615.08,480.24 595.50,485.61C586.55,488.06 586.53,488.07 592.50,487.50C595.80,487.18 602.33,485.56 607.00,483.90ZM881.81,481.32C882.53,481.03 883.40,481.06 883.73,481.40C884.06,481.73 883.47,481.96 882.42,481.92C881.25,481.87 881.01,481.64 881.81,481.32ZM767.03,478.96C785.66,476.67 807.57,468.14 829.39,454.69C832.63,452.69 835.67,451.30 836.15,451.59C836.63,451.89 840.72,449.14 845.26,445.49C849.79,441.84 855.16,437.99 857.18,436.94C861.77,434.56 862.55,433.38 859.97,432.70C857.52,432.06 852.46,434.70 837.77,444.27C817.57,457.43 802.37,464.47 781.00,470.54C775.77,472.03 770.72,473.65 769.77,474.15C768.81,474.65 764.09,475.70 759.27,476.50C754.44,477.29 748.70,478.36 746.50,478.86C742.90,479.68 743.30,479.78 750.53,479.89C754.94,479.95 762.37,479.53 767.03,478.96ZM328.79,472.59C328.63,471.52 327.94,470.47 327.25,470.24C326.38,469.96 326.01,471.14 326.03,474.17C326.06,478.24 326.15,478.38 327.57,476.51C328.40,475.41 328.95,473.65 328.79,472.59ZM893.81,474.32C894.53,474.03 895.40,474.06 895.73,474.40C896.06,474.73 895.47,474.96 894.42,474.92C893.25,474.87 893.01,474.64 893.81,474.32ZM328.68,466.81C328.36,466.01 328.13,466.25 328.08,467.42C328.04,468.47 328.27,469.06 328.60,468.73C328.94,468.40 328.97,467.53 328.68,466.81ZM581.09,455.62C583.52,454.86 586.36,453.88 587.41,453.45C588.76,452.89 589.12,453.00 588.61,453.83C587.72,455.26 587.52,455.27 593.03,453.60C607.97,449.07 622.04,441.38 632.21,432.19C634.26,430.34 636.51,428.73 637.21,428.61C641.37,427.87 644.79,424.96 664.16,405.69C685.63,384.34 692.77,378.43 706.85,370.38C716.75,364.73 714.67,364.81 701.76,370.58C677.06,381.62 666.27,389.42 640.23,415.09C619.72,435.31 611.96,441.42 599.76,446.95C595.86,448.72 594.18,449.95 595.08,450.35C595.86,450.70 595.38,450.73 594.00,450.43C592.29,450.05 591.92,450.16 592.83,450.80C593.90,451.54 593.83,451.85 592.44,452.38C591.49,452.75 589.99,452.82 589.11,452.55C588.22,452.28 584.12,453.13 580.00,454.44C575.88,455.76 573.44,456.87 574.59,456.92C575.74,456.96 578.67,456.38 581.09,455.62ZM548.50,454.03C554.70,453.40 553.99,453.30 542.25,453.16C533.98,453.06 529.00,453.38 529.00,454.00C529.00,455.12 537.76,455.14 548.50,454.03ZM194.50,439.54C200.00,437.64 203.53,436.07 202.36,436.04C199.17,435.98 186.72,439.96 185.04,441.59C183.07,443.48 183.06,443.48 194.50,439.54ZM207.73,435.40C207.40,435.06 206.53,435.03 205.81,435.32C205.01,435.64 205.25,435.87 206.42,435.92C207.47,435.96 208.06,435.73 207.73,435.40ZM219.00,433.57C240.45,429.49 258.06,428.50 309.00,428.50C353.81,428.50 357.41,428.38 347.00,427.27C329.32,425.37 281.86,424.58 265.00,425.90C244.39,427.52 227.99,429.76 217.00,432.45C206.33,435.07 207.55,435.75 219.00,433.57ZM879.50,427.00C879.84,426.45 880.57,426.00 881.12,426.00C881.67,426.00 881.84,426.45 881.50,427.00C881.16,427.55 880.43,428.00 879.88,428.00C879.33,428.00 879.16,427.55 879.50,427.00ZM883.00,425.00C884.96,423.73 886.28,423.73 885.50,425.00C885.16,425.55 884.12,425.99 883.19,425.98C881.73,425.97 881.71,425.84 883.00,425.00ZM500.50,423.45C498.16,422.52 469.60,418.01 466.69,418.11C462.24,418.26 491.47,423.74 497.00,423.80C499.48,423.82 501.05,423.66 500.50,423.45ZM890.81,421.32C891.53,421.03 892.40,421.06 892.73,421.40C893.06,421.73 892.47,421.96 891.42,421.92C890.25,421.87 890.01,421.64 890.81,421.32ZM876.81,420.32C877.53,420.03 878.40,420.06 878.73,420.40C879.06,420.73 878.47,420.96 877.42,420.92C876.25,420.87 876.01,420.64 876.81,420.32ZM798.50,418.00C798.84,417.45 798.67,417.00 798.12,417.00C797.57,417.00 796.84,417.45 796.50,418.00C796.16,418.55 796.33,419.00 796.88,419.00C797.43,419.00 798.16,418.55 798.50,418.00ZM458.50,416.91C454.38,415.66 433.74,412.98 429.20,413.11C427.16,413.16 431.53,414.04 438.90,415.06C446.27,416.08 453.02,417.10 453.90,417.34C454.78,417.58 456.85,417.78 458.50,417.80L461.50,417.83L458.50,416.91ZM801.50,416.00C801.84,415.45 801.67,415.00 801.12,415.00C800.57,415.00 799.84,415.45 799.50,416.00C799.16,416.55 799.33,417.00 799.88,417.00C800.43,417.00 801.16,416.55 801.50,416.00ZM887.75,416.34C888.44,416.06 889.56,416.06 890.25,416.34C890.94,416.62 890.38,416.84 889.00,416.84C887.62,416.84 887.06,416.62 887.75,416.34ZM893.00,415.05C893.83,414.49 895.81,414.02 897.42,414.02C901.26,414.00 900.46,414.57 895.50,415.40C892.63,415.88 891.93,415.78 893.00,415.05ZM906.81,415.32C907.53,415.03 908.40,415.06 908.73,415.40C909.06,415.73 908.47,415.96 907.42,415.92C906.25,415.87 906.01,415.64 906.81,415.32ZM903.50,412.97C907.42,412.13 919.74,411.65 918.92,412.36C918.69,412.56 914.23,412.97 909.00,413.28C902.54,413.65 900.78,413.55 903.50,412.97ZM423.25,412.29C422.01,412.06 419.99,412.06 418.75,412.29C417.51,412.53 418.52,412.73 421.00,412.73C423.48,412.73 424.49,412.53 423.25,412.29ZM413.26,411.30C412.03,411.06 409.78,411.05 408.26,411.28C406.74,411.51 407.75,411.71 410.50,411.71C413.25,411.72 414.49,411.53 413.26,411.30ZM909.81,409.32C910.53,409.03 911.40,409.06 911.73,409.40C912.06,409.73 911.47,409.96 910.42,409.92C909.25,409.87 909.01,409.64 909.81,409.32ZM921.75,384.34C922.44,384.06 923.56,384.06 924.25,384.34C924.94,384.62 924.38,384.84 923.00,384.84C921.62,384.84 921.06,384.62 921.75,384.34ZM913.27,382.31C914.24,382.05 915.59,382.07 916.27,382.34C916.95,382.62 916.15,382.83 914.50,382.81C912.85,382.78 912.30,382.56 913.27,382.31ZM906.75,381.34C907.44,381.06 908.56,381.06 909.25,381.34C909.94,381.62 909.38,381.84 908.00,381.84C906.62,381.84 906.06,381.62 906.75,381.34ZM579.50,378.47C582.80,377.62 590.45,374.87 596.50,372.36C602.55,369.85 608.62,367.55 610.00,367.24C612.18,366.75 612.33,366.88 611.20,368.25C608.72,371.25 611.84,371.08 615.31,368.03C622.73,361.52 638.77,355.29 659.50,350.88L670.50,348.54L665.50,347.78C660.04,346.95 652.00,347.72 652.00,349.07C652.00,350.39 644.40,352.12 641.29,351.51C638.92,351.05 638.80,351.12 640.50,351.98C642.15,352.82 641.96,352.90 639.42,352.45C635.43,351.76 616.54,358.44 597.32,367.34C583.13,373.91 578.01,375.72 564.00,379.15L556.50,380.99L565.00,380.51C569.67,380.24 576.20,379.32 579.50,378.47ZM425.25,375.29C424.01,375.06 421.99,375.06 420.75,375.29C419.51,375.53 420.52,375.73 423.00,375.73C425.48,375.73 426.49,375.53 425.25,375.29ZM608.00,375.00C608.00,374.45 607.52,374.00 606.94,374.00C606.36,374.00 606.16,374.45 606.50,375.00C606.84,375.55 607.32,376.00 607.56,376.00C607.80,376.00 608.00,375.55 608.00,375.00ZM223.73,374.40C223.40,374.06 222.53,374.03 221.81,374.32C221.01,374.64 221.25,374.87 222.42,374.92C223.47,374.96 224.06,374.73 223.73,374.40ZM235.00,372.57C240.82,371.38 241.08,371.23 237.50,371.14C235.30,371.08 231.25,371.66 228.50,372.43C221.97,374.25 226.37,374.34 235.00,372.57ZM246.73,370.40C246.40,370.06 245.53,370.03 244.81,370.32C244.01,370.64 244.25,370.87 245.42,370.92C246.47,370.96 247.06,370.73 246.73,370.40ZM292.73,366.40C292.40,366.06 291.53,366.03 290.81,366.32C290.01,366.64 290.25,366.87 291.42,366.92C292.47,366.96 293.06,366.73 292.73,366.40ZM308.76,365.31C307.81,365.06 306.01,365.05 304.76,365.29C303.52,365.53 304.30,365.74 306.50,365.75C308.70,365.76 309.72,365.56 308.76,365.31ZM833.08,333.42C833.13,332.25 833.36,332.01 833.68,332.81C833.97,333.53 833.94,334.40 833.60,334.73C833.27,335.06 833.04,334.47 833.08,333.42ZM812.93,320.24C808.38,311.95 796.21,294.40 792.97,291.47C789.46,288.30 790.75,291.96 795.05,297.39C797.27,300.20 801.48,306.32 804.39,311.00C807.29,315.68 811.19,321.93 813.04,324.90C817.96,332.81 817.88,329.28 812.93,320.24ZM372.94,312.00C397.53,262.21 431.92,221.34 474.30,191.54C478.03,188.91 480.88,186.54 480.61,186.28C479.22,184.89 456.14,200.32 442.00,212.09C416.51,233.30 390.32,268.17 371.47,305.99C364.33,320.31 362.69,324.73 364.32,325.28C365.70,325.74 367.61,322.80 372.94,312.00ZM666.00,321.00L668.50,320.20L666.00,320.17C664.62,320.15 662.60,320.53 661.50,321.00L659.50,321.86L661.50,321.83C662.60,321.81 664.62,321.44 666.00,321.00ZM683.00,317.04C687.12,316.03 689.71,315.16 688.74,315.10C686.55,314.97 668.76,318.89 668.03,319.67C667.32,320.42 673.83,319.28 683.00,317.04ZM694.27,314.34C693.59,314.07 692.24,314.05 691.27,314.31C690.30,314.56 690.85,314.78 692.50,314.81C694.15,314.83 694.95,314.62 694.27,314.34ZM829.25,311.50C829.26,309.30 829.47,308.52 829.71,309.76C829.95,311.01 829.94,312.81 829.69,313.76C829.44,314.72 829.24,313.70 829.25,311.50ZM699.25,313.34C698.56,313.06 697.44,313.06 696.75,313.34C696.06,313.62 696.62,313.84 698.00,313.84C699.38,313.84 699.94,313.62 699.25,313.34ZM705.25,312.34C704.56,312.06 703.44,312.06 702.75,312.34C702.06,312.62 702.62,312.84 704.00,312.84C705.38,312.84 705.94,312.62 705.25,312.34ZM437.00,292.08C479.89,281.66 483.76,280.53 487.95,277.19C501.32,266.52 530.67,244.88 541.84,237.44C555.05,228.66 557.08,226.17 548.35,229.51C540.47,232.51 505.98,256.73 493.35,268.12C487.08,273.76 483.22,275.34 462.00,280.87C443.75,285.63 414.89,293.28 405.25,295.92C401.03,297.07 399.22,300.01 402.75,299.99C403.71,299.99 419.12,296.43 437.00,292.08ZM234.59,290.50C233.69,289.12 232.67,286.53 232.33,284.75C232.00,282.96 231.30,280.97 230.79,280.31C230.14,279.49 230.78,278.65 232.87,277.57L235.89,276.01L236.19,280.22C236.49,284.30 236.84,283.74 247.16,262.97C253.03,251.16 259.16,239.67 260.79,237.43C262.77,234.71 269.54,229.46 281.13,221.67C298.27,210.13 303.00,206.67 303.00,205.66C303.00,205.38 302.21,204.97 301.25,204.75C300.29,204.53 301.66,204.16 304.30,203.92C308.94,203.49 309.08,203.56 308.50,205.87C308.17,207.18 302.40,213.71 295.69,220.38C277.05,238.88 257.70,262.70 244.80,283.02C241.33,288.48 237.99,292.96 237.37,292.97C236.74,292.99 235.49,291.87 234.59,290.50ZM410.00,288.00C410.82,287.47 411.17,287.02 410.78,287.02C409.30,286.98 445.24,240.85 450.81,235.62C454.18,232.46 457.00,232.63 457.00,236.00C457.00,237.77 457.30,237.91 459.02,236.99C460.13,236.39 464.52,236.00 468.77,236.11C478.11,236.35 479.90,235.64 494.28,226.13C505.36,218.79 508.03,217.93 511.67,220.48C513.54,221.79 513.93,221.79 515.04,220.46C516.63,218.54 516.25,218.21 509.27,215.34C494.78,209.38 496.48,209.40 482.22,214.92C459.76,223.62 452.63,226.99 448.65,230.81C439.72,239.36 405.00,285.23 405.00,288.46C405.00,289.35 408.40,289.04 410.00,288.00ZM787.00,271.20C787.00,270.76 787.39,269.97 787.87,269.45C788.34,268.93 789.47,266.29 790.36,263.59C791.89,258.99 791.88,258.50 790.24,255.93C788.59,253.32 773.03,239.18 765.47,233.41C760.47,229.59 761.96,229.22 768.20,232.73C771.12,234.37 775.30,236.28 777.50,236.98C785.51,239.54 813.57,251.12 816.00,252.87C817.38,253.86 819.85,254.99 821.50,255.37C823.15,255.75 825.78,256.58 827.35,257.20C829.91,258.21 830.15,258.69 829.65,261.79C829.34,263.69 828.95,265.33 828.79,265.43C828.31,265.74 789.60,272.01 788.25,272.01C787.56,272.00 787.00,271.64 787.00,271.20ZM890.75,261.34C891.44,261.06 892.56,261.06 893.25,261.34C893.94,261.62 893.38,261.84 892.00,261.84C890.62,261.84 890.06,261.62 890.75,261.34ZM904.75,259.34C905.44,259.06 906.56,259.06 907.25,259.34C907.94,259.62 907.38,259.84 906.00,259.84C904.62,259.84 904.06,259.62 904.75,259.34ZM460.10,255.47C455.87,250.65 455.96,246.84 460.40,242.40C462.34,240.46 464.81,239.00 466.15,239.00C469.36,239.01 474.87,242.52 475.97,245.26L476.87,247.50L476.94,245.31C477.11,239.20 467.66,235.06 461.18,238.41C454.59,241.81 452.89,251.04 457.92,256.08C462.06,260.22 463.84,259.72 460.10,255.47ZM919.27,257.31C920.24,257.05 921.59,257.07 922.27,257.34C922.95,257.62 922.15,257.83 920.50,257.81C918.85,257.78 918.30,257.56 919.27,257.31ZM934.00,255.00C934.00,254.45 934.93,254.00 936.06,254.00C937.19,254.00 937.84,254.45 937.50,255.00C937.16,255.55 936.23,256.00 935.44,256.00C934.65,256.00 934.00,255.55 934.00,255.00ZM467.25,245.19C471.64,244.83 472.39,242.39 468.43,241.39C462.80,239.98 459.51,244.05 461.72,249.67C462.31,251.17 462.54,250.96 462.98,248.50C463.44,245.87 463.97,245.46 467.25,245.19ZM252.05,235.50C252.02,234.01 253.81,231.47 254.44,232.10C254.73,232.40 254.32,233.51 253.52,234.57C252.72,235.63 252.06,236.05 252.05,235.50ZM463.68,234.03C459.43,233.21 456.02,230.51 457.54,229.17C458.07,228.71 463.68,226.38 470.00,223.99C476.32,221.60 483.75,218.61 486.50,217.33C492.15,214.72 500.00,214.16 500.00,216.38C500.00,217.14 494.71,221.63 488.25,226.36C475.58,235.63 474.19,236.06 463.68,234.03ZM257.35,231.55C257.50,229.06 258.41,228.24 259.35,229.76C259.61,230.18 259.23,231.33 258.51,232.31C257.31,233.95 257.22,233.89 257.35,231.55ZM259.52,229.04C259.24,228.57 260.42,227.70 262.15,227.10C265.96,225.77 268.79,225.65 267.45,226.86C265.82,228.35 260.07,229.92 259.52,229.04ZM276.73,217.75C277.70,213.76 280.94,211.04 284.01,211.65C285.53,211.96 287.06,211.71 287.44,211.10C287.81,210.50 288.60,210.00 289.18,210.00C291.02,210.00 287.85,213.04 282.27,216.60C279.35,218.47 276.79,220.00 276.57,220.00C276.36,220.00 276.43,218.99 276.73,217.75ZM325.00,217.18C325.00,215.97 326.90,214.56 327.59,215.26C327.84,215.51 327.36,216.28 326.52,216.98C325.57,217.77 325.00,217.84 325.00,217.18ZM544.73,202.40C544.40,202.06 543.53,202.03 542.81,202.32C542.01,202.64 542.25,202.87 543.42,202.92C544.47,202.96 545.06,202.73 544.73,202.40ZM588.73,182.40C588.40,182.06 587.53,182.03 586.81,182.32C586.01,182.64 586.25,182.87 587.42,182.92C588.47,182.96 589.06,182.73 588.73,182.40ZM592.73,181.40C592.40,181.06 591.53,181.03 590.81,181.32C590.01,181.64 590.25,181.87 591.42,181.92C592.47,181.96 593.06,181.73 592.73,181.40ZM598.27,180.34C597.59,180.07 596.24,180.05 595.27,180.31C594.30,180.56 594.85,180.78 596.50,180.81C598.15,180.83 598.95,180.62 598.27,180.34ZM603.75,179.31C602.79,179.06 601.21,179.06 600.25,179.31C599.29,179.56 600.08,179.77 602.00,179.77C603.92,179.77 604.71,179.56 603.75,179.31ZM634.92,177.37C635.78,176.61 612.33,177.15 608.50,177.98C605.97,178.52 610.03,178.64 619.50,178.29C627.75,177.98 634.69,177.57 634.92,177.37Z"/></svg>