<svg version="1.1" xmlns="http://www.w3.org/2000/svg" xmlns:xlink="http://www.w3.org/1999/xlink" width="1024" height="1024" viewBox="0 0 1024 1024">
<path stroke="#2B2B2B" stroke-width="1.0" fill="#000000" fill-rule="evenodd" d="M485.50,965.30C451.28,962.21 408.35,953.56 376.67,943.37C244.92,900.96 134.12,798.47 84.14,672.76C69.47,635.88 61.06,601.79 56.43,560.50C54.26,541.13 53.42,492.80 54.93,474.77C59.32,422.68 69.65,380.09 89.41,332.67C103.25,299.46 122.63,266.03 144.88,237.00C169.13,205.36 203.08,171.64 234.75,147.71C269.63,121.36 315.31,96.50 352.50,83.63C392.86,69.67 439.59,60.10 482.89,56.93C501.15,55.59 542.57,56.17 558.00,57.97C605.20,63.48 647.74,73.80 686.13,89.04C700.58,94.77 732.35,110.53 745.50,118.48C781.44,140.21 808.14,161.13 838.61,191.47C868.67,221.39 885.10,242.40 907.47,279.53C959.31,365.55 980.19,473.33 965.01,576.50C953.03,657.89 919.00,732.81 864.18,798.50C860.05,803.45 847.41,816.73 836.09,828.00C804.53,859.43 776.00,881.52 739.00,903.19C684.98,934.83 613.93,958.19 552.50,964.52C539.80,965.83 496.87,966.33 485.50,965.30ZM555.24,918.41C618.18,912.24 686.14,887.70 740.00,851.68C786.65,820.49 824.42,782.49 856.48,734.50C889.71,684.75 910.57,632.62 919.89,576.00C924.37,548.73 925.36,536.40 925.38,507.00C925.42,465.40 921.63,437.78 910.41,397.85C904.74,377.67 901.40,368.29 892.85,348.58C868.26,291.86 830.41,240.72 782.31,199.23C747.08,168.83 704.32,144.35 655.00,126.34C632.05,117.96 592.85,108.66 567.50,105.59C480.85,95.10 402.91,107.73 326.00,144.72C257.15,177.85 196.73,232.67 157.88,297.27C126.11,350.10 107.50,405.44 100.78,467.00C98.90,484.22 99.23,532.97 101.35,551.50C108.05,610.14 125.53,662.51 155.65,714.23C181.86,759.24 219.80,802.19 262.00,834.63C296.99,861.52 338.88,883.80 382.50,898.69C436.83,917.25 497.01,924.12 555.24,918.41ZM483.50,911.88C411.16,905.75 345.29,882.71 285.84,842.74C209.62,791.51 153.44,716.46 124.70,627.50C119.79,612.31 113.95,588.11 111.54,573.00C96.16,476.44 114.15,383.30 164.12,300.85C200.48,240.86 253.90,190.86 317.50,157.30C387.02,120.61 461.76,104.77 540.50,110.03C619.37,115.30 694.94,142.57 757.50,188.33C820.97,234.76 873.83,307.55 898.64,382.69C925.99,465.56 925.50,552.05 897.19,636.00C874.72,702.63 833.80,763.85 779.78,811.65C715.59,868.44 633.91,903.62 548.00,911.48C530.44,913.09 500.00,913.28 483.50,911.88ZM556.50,903.56C645.66,892.79 725.17,855.29 787.81,794.48C805.50,777.30 813.54,768.40 827.58,750.44C873.59,691.55 902.33,619.23 909.51,544.20C911.42,524.32 911.42,487.68 909.52,467.91C905.22,423.27 892.09,377.27 872.32,337.57C809.18,210.80 692.22,131.27 549.50,118.08C496.51,113.18 446.44,118.13 393.38,133.51C344.60,147.64 291.82,176.16 250.03,210.95C174.67,273.70 124.99,368.55 115.48,467.88C113.77,485.76 113.54,524.27 115.04,541.00C118.53,579.71 127.11,616.61 140.50,650.48C174.96,737.61 234.54,806.83 315.03,853.26C366.25,882.81 425.29,900.35 490.50,905.39C501.41,906.24 544.18,905.05 556.50,903.56ZM485.00,897.97C391.43,890.04 304.41,850.86 238.63,787.04C196.00,745.68 161.40,690.45 140.88,631.02C135.37,615.06 127.44,582.22 125.07,565.50C119.01,522.88 119.57,477.49 126.62,439.00C136.85,383.22 160.22,328.00 192.76,282.70C208.86,260.29 239.06,228.64 261.35,210.82C312.41,169.98 375.98,141.15 440.50,129.57C466.17,124.96 482.45,123.58 510.50,123.61C564.86,123.68 606.72,131.03 655.99,149.16C674.11,155.83 710.36,173.87 727.00,184.50C797.71,229.70 852.06,297.17 881.27,376.00C890.99,402.26 896.99,426.60 901.58,458.50C903.75,473.64 904.62,521.83 903.03,539.25C897.11,603.93 875.63,666.35 841.21,718.88C775.06,819.83 673.28,882.52 552.00,896.99C539.46,898.49 498.25,899.09 485.00,897.97ZM542.51,780.50C575.49,776.68 605.75,767.70 633.45,753.53C686.21,726.53 726.72,685.89 753.32,633.27C773.18,593.95 781.97,556.50 781.99,511.00C782.01,465.90 773.47,428.96 753.78,389.00C728.13,336.96 686.28,294.74 634.71,268.86C605.26,254.08 582.47,246.76 550.50,241.82C533.50,239.19 495.63,238.67 480.00,240.85C428.50,248.03 385.01,265.95 346.00,296.06C333.47,305.73 310.55,328.83 300.24,342.16C267.87,384.06 247.98,434.10 242.95,486.31C241.43,502.15 242.22,536.23 244.46,551.00C249.72,585.65 262.22,620.20 280.48,650.51C289.86,666.08 293.42,671.04 305.69,685.67C328.52,712.92 354.79,733.67 388.45,751.08C422.03,768.44 452.63,777.38 492.00,781.33C501.86,782.32 530.90,781.84 542.51,780.50ZM486.50,772.98C438.51,767.69 391.07,748.68 351.13,718.74C339.17,709.78 318.46,689.74 308.65,677.63C278.04,639.87 258.45,595.02 251.37,546.50C249.20,531.61 248.91,494.18 250.87,480.00C261.99,399.23 305.55,330.32 372.58,287.47C404.12,267.30 439.60,254.66 481.00,248.84C494.91,246.89 531.47,247.17 546.26,249.34C577.68,253.96 605.17,262.69 631.50,276.39C658.96,290.68 677.81,304.47 698.60,325.46C739.33,366.60 763.11,414.10 772.20,472.50C775.35,492.78 775.34,530.38 772.17,550.50C765.95,590.01 752.69,624.02 730.38,657.71C710.77,687.34 688.34,709.68 657.87,729.96C624.97,751.85 590.78,765.20 551.29,771.57C539.78,773.42 498.64,774.32 486.50,772.98ZM546.00,765.39C631.40,754.48 705.43,700.05 743.05,620.50C759.65,585.40 767.28,551.06 767.27,511.50C767.27,489.25 766.01,476.72 761.86,457.50C752.13,412.51 732.02,373.53 700.53,338.66C658.44,292.05 603.13,263.77 538.72,255.94C525.63,254.34 486.64,255.24 474.50,257.42C441.26,263.38 421.06,270.08 394.00,284.12C370.16,296.49 352.11,309.74 332.94,328.93C294.69,367.21 269.20,416.67 260.01,470.43C251.21,521.90 258.89,573.99 282.41,622.50C295.87,650.25 312.79,673.83 334.14,694.57C390.10,748.94 468.79,775.24 546.00,765.39ZM491.10,758.96C450.25,755.01 408.62,740.33 375.87,718.31C316.20,678.21 277.55,617.63 266.25,546.54C264.90,538.02 264.52,529.79 264.58,510.50C264.65,488.13 264.94,483.97 267.27,471.00C271.92,445.19 278.76,424.86 290.98,400.50C295.68,391.15 302.65,378.83 306.47,373.13C354.65,301.37 433.71,260.63 519.50,263.35C546.37,264.21 565.91,267.59 590.50,275.64C644.52,293.33 691.04,330.53 723.49,382.00C736.55,402.72 745.81,424.30 752.02,448.54C757.91,471.50 759.12,480.18 759.71,503.80C760.63,540.43 755.84,569.10 743.54,600.55C710.72,684.50 635.43,744.81 547.55,757.56C534.97,759.39 503.55,760.17 491.10,758.96ZM537.70,710.47C607.87,701.36 666.60,659.99 696.68,598.50C719.17,552.53 723.32,497.63 707.89,450.00C693.29,404.89 665.80,368.14 627.50,342.52C566.57,301.76 485.73,295.92 421.22,327.62C401.60,337.26 385.28,348.85 368.72,364.89C348.12,384.84 330.36,412.43 319.72,441.00C315.64,451.93 310.76,471.44 308.84,484.50C306.94,497.36 307.22,528.90 309.35,541.50C316.73,585.16 334.78,620.70 365.00,651.03C398.00,684.16 438.20,704.13 484.61,710.45C498.28,712.31 523.44,712.32 537.70,710.47ZM486.00,688.49C450.45,683.59 417.18,668.67 390.50,645.64C383.73,639.79 382.51,641.76 403.74,624.26L419.08,611.61L414.61,607.14L410.15,602.67L404.32,607.67C396.90,614.04 377.29,628.98 375.71,629.47C373.98,630.00 364.00,618.33 356.32,606.80C349.43,596.45 341.73,580.37 337.57,567.63C334.07,556.88 330.22,537.14 329.41,525.75L328.73,516.00L352.30,516.00L375.88,516.00L376.53,511.62C377.80,503.15 378.66,503.58 358.99,502.87C349.37,502.53 338.68,502.19 335.24,502.12L328.98,502.00L329.58,496.25C331.54,477.48 335.37,461.80 342.22,444.50C347.47,431.23 354.82,417.78 356.33,418.67C356.98,419.05 362.00,422.36 367.50,426.02C373.00,429.68 381.86,435.42 387.18,438.76L396.87,444.85L398.48,442.40C399.36,441.05 399.82,439.52 399.50,439.01C399.19,438.49 393.88,434.59 387.71,430.32C371.54,419.15 360.93,411.20 360.97,410.29C361.13,406.54 388.99,375.36 397.65,369.23L400.81,367.00L412.08,383.25C418.28,392.19 424.76,401.35 426.47,403.62L429.58,407.74L432.51,405.41L435.44,403.07L421.60,382.63C413.99,371.39 408.04,361.74 408.39,361.18C409.18,359.89 421.94,352.54 433.00,346.99C442.89,342.03 464.00,334.89 475.50,332.62C485.13,330.73 505.01,328.67 505.83,329.49C506.15,329.82 506.29,340.89 506.13,354.09L505.85,378.10L511.68,377.80L517.50,377.50L517.77,353.21L518.04,328.92L521.27,329.42C523.05,329.69 527.65,330.20 531.50,330.55C556.94,332.84 588.30,343.89 608.72,357.75C611.69,359.76 613.66,361.77 613.30,362.40C612.94,363.00 606.80,372.44 599.65,383.36L586.64,403.22L589.07,405.09C590.41,406.11 591.95,406.81 592.49,406.65C593.04,406.48 599.67,397.38 607.24,386.42C614.81,375.46 621.53,366.64 622.19,366.81C628.64,368.51 664.14,405.55 663.96,410.40C663.94,411.00 660.87,413.40 657.14,415.71C648.11,421.33 623.57,438.79 623.22,439.86C623.06,440.32 623.76,441.71 624.76,442.96L626.59,445.21L642.05,435.46C650.55,430.09 660.14,423.91 663.37,421.73C668.05,418.57 669.42,418.04 670.16,419.13C673.44,424.00 683.52,446.23 686.47,455.11C691.38,469.91 695.24,490.14 695.48,502.37C695.49,502.85 684.14,503.30 670.25,503.37L645.00,503.50L645.00,509.10L645.00,514.70L653.25,515.35C657.79,515.70 669.22,515.99 678.66,515.99L695.81,516.00L695.34,522.25C694.48,533.54 690.13,555.30 686.51,566.43C681.85,580.76 675.72,593.54 667.69,605.66C660.60,616.37 649.51,630.00 647.89,630.00C646.99,630.00 629.61,616.42 616.83,605.73L612.16,601.82L608.33,606.03C606.22,608.35 604.36,610.60 604.20,611.03C604.03,611.47 609.75,616.39 616.91,621.97C624.07,627.55 631.97,634.00 634.47,636.30L639.01,640.50L631.29,647.00C597.39,675.55 555.98,690.22 510.20,689.90C502.11,689.84 491.23,689.21 486.00,688.49ZM646.00,622.35C646.00,621.44 644.12,619.07 641.83,617.10C635.31,611.48 634.22,610.83 633.45,612.07C632.75,613.21 643.17,624.00 644.98,624.00C645.54,624.00 646.00,623.26 646.00,622.35ZM384.71,613.18C383.80,613.01 381.00,614.28 378.48,616.02C374.77,618.57 374.12,619.44 375.07,620.58C376.04,621.75 377.08,621.28 381.30,617.75C384.95,614.70 385.91,613.41 384.71,613.18ZM655.28,613.72C655.56,612.99 653.16,610.35 649.76,607.64C642.79,602.07 641.00,601.19 641.00,603.30C641.00,604.64 652.52,614.87 654.14,614.96C654.50,614.98 655.01,614.42 655.28,613.72ZM374.52,605.36C380.27,601.54 382.13,598.24 377.54,599.99C374.34,601.20 367.00,606.06 367.00,606.97C367.00,607.70 368.08,609.00 368.68,609.00C368.87,609.00 371.50,607.36 374.52,605.36ZM662.98,602.75C662.97,602.06 659.97,599.70 656.31,597.50C648.00,592.50 648.36,592.63 647.69,594.37C647.31,595.35 649.15,597.16 653.31,599.90C659.56,604.02 663.01,605.04 662.98,602.75ZM367.58,596.42C374.55,592.52 375.62,591.50 373.90,590.44C373.27,590.05 369.78,591.26 366.13,593.12C362.48,594.98 359.38,596.55 359.23,596.61C358.78,596.78 360.17,600.00 360.69,600.00C360.96,600.00 364.06,598.39 367.58,596.42ZM668.68,592.46C669.00,591.49 664.10,588.69 656.25,585.35C653.46,584.17 653.00,584.17 653.00,585.40C653.00,587.02 664.77,594.07 666.92,593.73C667.70,593.60 668.49,593.03 668.68,592.46ZM370.00,582.99C370.00,581.42 367.94,581.81 361.25,584.65C355.53,587.08 353.97,588.64 355.62,590.29C356.45,591.12 370.00,584.24 370.00,582.99ZM676.79,579.85C677.01,578.72 675.79,577.75 672.80,576.68C670.44,575.82 663.41,573.30 657.20,571.06C644.77,566.60 641.67,566.09 642.18,568.62C642.51,570.31 672.07,582.07 674.99,581.68C675.81,581.57 676.62,580.74 676.79,579.85ZM366.93,574.92C374.12,572.12 379.99,569.53 379.98,569.17C379.92,566.17 377.80,566.44 364.50,571.18C350.17,576.29 347.21,577.92 348.49,579.99C349.43,581.51 351.22,581.02 366.93,574.92ZM677.71,572.37C678.00,571.50 670.52,568.89 664.00,567.60C663.73,567.54 663.27,567.95 663.00,568.49C662.39,569.70 672.74,574.07 675.42,573.74C676.48,573.61 677.51,572.99 677.71,572.37ZM354.57,571.36C360.55,569.37 362.44,568.04 361.13,566.73C359.77,565.37 347.00,569.76 347.00,571.58C347.00,573.42 348.53,573.37 354.57,571.36ZM352.37,560.41C357.52,558.79 360.13,556.80 358.83,555.49C358.27,554.94 344.75,558.96 343.64,560.01C342.50,561.09 343.88,563.26 345.35,562.70C345.98,562.46 349.14,561.43 352.37,560.41ZM680.46,561.07C681.27,559.75 679.59,558.92 672.08,556.94C668.24,555.92 665.11,555.57 664.57,556.08C663.20,557.37 664.06,557.88 671.13,559.97C678.63,562.18 679.69,562.31 680.46,561.07ZM351.75,550.03C354.42,549.33 356.00,548.35 356.00,547.39C356.00,546.41 355.38,546.05 354.25,546.38C353.29,546.66 350.70,547.21 348.50,547.59C342.28,548.66 339.97,549.77 340.59,551.37C341.00,552.45 341.91,552.60 344.32,551.96C346.07,551.50 349.41,550.63 351.75,550.03ZM684.00,548.66C684.00,547.78 681.49,546.87 676.75,546.01C667.16,544.28 667.50,544.28 667.50,545.99C667.50,546.96 669.25,547.89 672.50,548.65C679.56,550.29 684.00,550.29 684.00,548.66ZM350.38,538.83C356.51,537.29 353.37,535.80 345.66,536.59C340.17,537.16 339.00,537.59 339.00,539.08C339.00,540.58 339.61,540.79 342.75,540.34C344.81,540.04 348.24,539.36 350.38,538.83ZM524.86,536.48C530.75,533.28 534.88,529.03 538.24,522.72C540.10,519.23 540.49,516.92 540.49,509.37L540.50,500.23L585.25,455.11C609.86,430.29 630.00,409.30 630.00,408.46C630.00,407.51 623.45,411.43 612.25,419.09C590.44,434.02 547.47,462.72 532.14,472.60L520.78,479.92L513.06,479.32C502.12,478.48 496.26,480.57 488.97,487.91C484.91,492.00 482.96,494.93 481.71,498.86C476.36,515.65 484.44,532.56 500.70,538.62C507.00,540.96 518.48,539.95 524.86,536.48ZM686.54,536.93C686.90,536.35 686.99,535.66 686.73,535.40C685.71,534.37 670.46,533.18 669.57,534.05C668.12,535.47 669.41,536.14 675.18,536.98C683.09,538.13 685.81,538.12 686.54,536.93ZM352.00,525.62C352.00,524.62 350.10,524.10 345.25,523.76C338.46,523.28 336.20,523.90 337.45,525.91C338.50,527.61 352.00,527.34 352.00,525.62ZM687.50,523.00C687.50,521.82 685.82,521.44 679.59,521.21C671.82,520.91 669.10,521.73 670.47,523.95C670.92,524.68 674.06,524.98 679.33,524.79C685.80,524.56 687.50,524.19 687.50,523.00ZM353.74,497.31C354.13,496.12 352.66,495.75 342.66,494.47C338.35,493.92 337.86,494.05 338.17,495.68C338.44,497.08 339.77,497.64 344.01,498.10C351.27,498.90 353.26,498.74 353.74,497.31ZM685.65,497.46C685.98,496.61 686.03,495.69 685.76,495.43C684.73,494.40 669.65,496.52 669.25,497.75C668.57,499.78 684.88,499.49 685.65,497.46ZM680.21,486.96C683.66,486.00 685.75,484.41 684.80,483.47C683.92,482.59 669.63,485.62 669.24,486.77C668.73,488.31 674.95,488.42 680.21,486.96ZM355.00,485.59C355.00,484.63 352.71,483.77 347.75,482.89C339.74,481.45 339.50,481.46 339.50,483.24C339.50,483.93 341.75,485.01 344.50,485.65C351.60,487.30 355.00,487.28 355.00,485.59ZM678.92,476.63C680.81,476.01 682.55,474.87 682.81,474.10C683.18,472.98 682.40,472.84 678.88,473.39C670.81,474.66 667.00,476.02 667.00,477.63C667.00,478.89 667.77,479.05 671.25,478.47C673.59,478.08 677.04,477.25 678.92,476.63ZM356.76,474.77C356.34,473.52 351.53,471.86 344.66,470.59C341.32,469.97 340.87,470.10 341.17,471.67C341.42,472.95 343.10,473.79 347.01,474.62C354.57,476.21 357.25,476.25 356.76,474.77ZM662.80,468.44C676.60,463.92 680.03,462.44 679.76,461.13C679.55,460.10 678.52,459.56 676.96,459.66C674.79,459.80 643.09,470.62 642.13,471.55C641.25,472.40 643.11,475.12 644.25,474.64C644.94,474.35 653.29,471.56 662.80,468.44ZM375.76,472.21C376.17,471.00 370.94,468.44 356.14,462.61C343.16,457.49 343.00,457.46 343.02,460.18C343.04,462.25 344.68,463.11 358.27,468.19C366.65,471.33 373.92,473.77 374.44,473.63C374.95,473.49 375.55,472.85 375.76,472.21ZM363.00,459.00C363.00,458.07 350.68,453.00 348.41,453.00C345.09,453.00 347.93,455.61 354.01,458.15C359.90,460.61 363.00,460.90 363.00,459.00ZM669.96,458.61C676.78,456.12 678.92,454.00 674.60,454.00C672.03,454.00 664.25,456.64 662.64,458.06C662.16,458.48 662.08,459.31 662.45,459.91C663.26,461.24 662.31,461.40 669.96,458.61ZM667.55,445.88C672.40,443.73 673.72,442.32 672.24,440.84C671.58,440.18 669.08,440.93 664.87,443.04C657.30,446.84 657.63,446.59 658.48,447.97C659.23,449.19 660.96,448.79 667.55,445.88ZM366.45,445.07C365.93,444.56 362.50,443.02 358.83,441.65C353.36,439.60 352.06,439.40 351.62,440.56C351.00,442.17 353.04,443.44 360.38,445.99C365.29,447.69 368.62,447.19 366.45,445.07ZM662.15,437.42C667.41,434.78 668.96,433.56 668.13,432.73C666.39,430.99 652.30,438.05 653.53,440.04C654.35,441.37 654.24,441.41 662.15,437.42ZM371.00,435.01C371.00,434.54 368.26,432.48 364.92,430.45C360.74,427.91 358.52,427.08 357.81,427.79C356.23,429.37 357.61,430.77 363.82,433.92C369.24,436.66 371.00,436.93 371.00,435.01ZM649.70,413.61C654.72,409.65 656.36,406.98 653.75,407.02C651.70,407.05 639.54,417.43 639.15,419.48C638.79,421.32 638.86,421.33 641.64,419.54C643.21,418.54 646.84,415.87 649.70,413.61ZM387.00,417.59C387.00,416.06 374.94,406.00 373.11,406.00C370.32,406.00 372.56,409.19 378.63,413.88C385.62,419.28 387.00,419.89 387.00,417.59ZM643.46,406.04C648.25,401.20 649.05,399.95 647.68,399.43C646.49,398.97 644.38,400.40 640.50,404.28C637.47,407.31 635.00,410.28 635.00,410.89C635.00,413.34 637.86,411.70 643.46,406.04ZM393.97,408.25C393.95,407.84 392.68,406.15 391.13,404.50C385.30,398.28 382.14,395.80 380.98,396.51C380.20,397.00 381.76,399.22 385.62,403.12C390.83,408.39 394.05,410.37 393.97,408.25ZM635.43,398.81C639.24,394.60 640.70,392.30 640.01,391.61C638.70,390.30 628.00,400.65 628.00,403.22C628.00,406.21 629.59,405.27 635.43,398.81ZM402.00,400.17C402.00,398.98 391.01,387.00 389.92,387.00C387.81,387.00 389.37,389.85 394.44,395.25C399.41,400.55 402.00,402.24 402.00,400.17ZM627.38,392.60C632.99,386.20 633.81,384.62 632.08,383.55C631.02,382.89 620.00,395.81 620.00,397.72C620.00,400.20 621.81,398.94 627.38,392.60ZM408.41,390.16C405.49,385.57 399.91,379.00 398.93,379.00C396.80,379.00 398.30,382.26 403.06,387.97C408.04,393.96 411.82,395.50 408.41,390.16ZM619.31,386.61C624.23,379.90 624.95,378.00 622.55,378.00C620.71,378.00 611.64,390.61 612.49,391.98C613.62,393.82 614.55,393.08 619.31,386.61ZM427.00,379.01C427.00,377.05 418.57,364.00 417.30,364.00C416.58,364.00 416.00,364.43 416.00,364.96C416.00,366.17 421.69,375.93 423.76,378.25C425.47,380.18 427.00,380.54 427.00,379.01ZM601.74,371.92C605.98,364.50 606.47,362.50 604.05,362.50C602.54,362.50 593.86,377.97 594.65,379.25C595.76,381.04 597.64,379.11 601.74,371.92ZM466.54,376.75C467.15,375.17 458.58,345.18 457.10,343.70C456.39,342.99 455.66,342.94 455.03,343.57C454.24,344.36 460.49,369.03 463.40,376.61C464.07,378.34 465.90,378.42 466.54,376.75ZM564.64,362.50C567.53,354.25 569.92,346.76 569.95,345.87C569.98,344.97 569.12,344.00 568.05,343.72C566.35,343.28 565.70,344.43 563.13,352.36C555.21,376.82 554.88,378.36 557.70,377.82C558.90,377.59 560.93,373.12 564.64,362.50ZM593.07,366.86C596.26,360.51 596.87,358.54 595.84,357.90C595.11,357.45 594.20,357.40 593.81,357.79C592.38,359.24 586.16,373.83 586.74,374.40C588.15,375.81 589.20,374.55 593.07,366.86ZM436.02,373.25C436.08,371.41 428.37,358.02 427.25,358.01C426.56,358.00 426.00,358.47 426.00,359.04C426.00,360.40 429.73,367.75 432.20,371.25C434.04,373.86 435.97,374.87 436.02,373.25ZM445.32,368.38C444.55,364.61 437.78,352.00 436.53,352.00C435.69,352.00 435.00,352.22 435.00,352.48C435.00,352.75 436.79,356.84 438.98,361.57C441.51,367.05 443.42,370.01 444.23,369.72C444.93,369.46 445.42,368.86 445.32,368.38ZM584.08,362.46C587.24,354.65 587.64,352.00 585.64,352.00C584.06,352.00 577.61,367.56 578.56,369.09C579.80,371.10 581.31,369.29 584.08,362.46ZM454.00,363.48C454.00,359.72 448.30,347.73 446.77,348.28C445.21,348.86 445.39,349.66 449.17,358.75C452.27,366.21 454.00,367.90 454.00,363.48ZM575.31,358.04C577.98,351.10 578.28,346.32 575.89,348.71C574.62,349.98 570.00,362.47 570.00,364.63C570.00,368.18 572.69,364.83 575.31,358.04ZM560.41,354.25C561.28,350.54 562.26,346.49 562.61,345.25C563.10,343.47 562.82,343.00 561.27,343.00C559.64,343.00 559.03,344.28 557.65,350.53C555.64,359.72 555.61,361.00 557.42,361.00C558.35,361.00 559.38,358.68 560.41,354.25ZM472.22,357.40C471.15,350.10 468.61,342.00 467.39,342.00C465.18,342.00 465.98,348.19 469.55,358.83C470.22,360.83 472.54,359.58 472.22,357.40ZM481.95,356.25C481.93,354.74 481.36,350.58 480.70,347.01C479.78,342.08 479.05,340.44 477.65,340.17C476.27,339.91 475.94,340.28 476.32,341.66C476.60,342.67 477.57,346.99 478.48,351.25C480.11,358.87 482.05,361.66 481.95,356.25ZM548.02,357.75C548.03,357.61 548.64,353.80 549.38,349.27C550.11,344.75 550.48,340.81 550.19,340.52C548.43,338.76 547.16,340.58 546.56,345.75C546.19,348.91 545.64,352.96 545.34,354.75C544.90,357.30 545.12,358.00 546.39,358.00C547.27,358.00 548.01,357.89 548.02,357.75ZM491.96,352.25C491.91,347.19 490.62,339.29 489.69,338.36C487.46,336.13 487.34,345.88 489.49,354.75C490.46,358.72 492.00,357.15 491.96,352.25ZM538.35,350.25C539.30,340.20 539.17,338.00 537.64,338.00C536.72,338.00 536.08,339.95 535.64,344.15C534.64,353.70 534.83,357.00 536.36,357.00C537.30,357.00 537.90,354.95 538.35,350.25ZM503.50,346.42C503.50,339.16 503.22,337.50 502.00,337.50C500.91,337.50 500.41,338.86 500.18,342.50C499.74,349.36 500.85,356.22 502.32,355.73C503.11,355.46 503.50,352.38 503.50,346.42ZM527.32,348.00C527.93,340.16 527.55,337.00 526.02,337.00C524.87,337.00 524.00,342.45 524.00,349.62C524.00,354.31 524.36,356.00 525.35,356.00C526.32,356.00 526.88,353.75 527.32,348.00Z"/></svg>