<svg version="1.1" xmlns="http://www.w3.org/2000/svg" xmlns:xlink="http://www.w3.org/1999/xlink" width="1024" height="1024" viewBox="0 0 1024 1024">
<path stroke="#2B2B2B" stroke-width="1.0" fill="#000000" fill-rule="evenodd" d="M485.00,944.88C462.04,943.89 436.43,940.61 416.50,936.10C414.30,935.60 410.48,934.76 408.00,934.23C386.96,929.72 351.82,918.18 332.00,909.26C315.85,902.00 292.93,890.22 281.50,883.31C266.28,874.10 259.13,869.56 256.00,867.11C254.07,865.61 250.25,862.85 247.50,860.99C237.71,854.36 209.05,829.98 197.53,818.47C184.50,805.46 167.50,786.40 167.50,784.81C167.50,784.33 166.89,783.55 166.14,783.09C165.14,782.47 165.61,781.84 167.99,780.65C170.86,779.22 171.36,779.22 172.71,780.57C173.55,781.41 174.69,781.94 175.25,781.75C175.80,781.57 182.65,788.18 190.46,796.46C239.21,848.12 296.77,886.36 360.65,909.54C433.70,936.05 518.12,942.16 594.97,926.51C679.25,909.34 754.41,868.12 817.69,804.35C829.34,792.61 839.12,783.00 839.43,783.00C839.73,783.00 840.77,782.32 841.74,781.49C842.71,780.66 843.95,779.96 844.50,779.92C845.05,779.89 846.31,779.12 847.31,778.22C848.77,776.89 849.28,776.83 849.94,777.90C850.61,778.99 850.85,778.99 851.25,777.86C851.52,777.11 851.69,777.69 851.62,779.15C851.56,780.61 851.15,781.59 850.73,781.33C850.30,781.07 850.07,781.28 850.23,781.80C850.38,782.32 846.97,786.97 842.65,792.12C815.37,824.70 775.06,858.67 735.96,882.02C711.74,896.49 692.59,906.00 667.50,916.00C654.41,921.23 652.67,921.84 639.00,925.97C634.88,927.22 630.38,928.60 629.00,929.05C626.76,929.77 606.82,934.66 596.50,937.01C580.92,940.56 552.19,943.88 531.42,944.52C522.11,944.81 511.80,945.18 508.50,945.34C505.20,945.50 494.62,945.29 485.00,944.88ZM299.63,771.85C292.95,770.57 283.20,765.99 278.66,762.00C267.49,752.20 249.45,717.84 240.03,688.44C233.28,667.38 228.98,637.56 230.91,625.16C232.10,617.48 235.79,606.69 239.18,601.00C241.03,597.88 241.24,596.07 241.09,584.50C240.78,562.25 245.36,519.36 251.55,486.50C254.55,470.53 262.17,440.33 266.67,426.57C268.46,421.11 272.18,417.01 275.40,416.98C277.22,416.97 278.14,414.99 282.31,402.23C301.11,344.59 342.63,294.51 395.37,265.85C432.10,245.90 469.06,235.73 514.90,232.98C583.09,228.88 649.20,248.96 698.59,288.76C710.99,298.75 730.62,319.02 740.08,331.61C759.65,357.65 776.62,392.46 784.02,421.74C792.26,454.38 794.87,489.30 791.47,521.64C787.33,561.01 778.13,592.28 754.73,646.50C740.66,679.10 737.85,683.49 727.75,688.62C720.20,692.46 691.43,699.27 628.50,712.12C571.32,723.80 548.81,728.43 527.00,732.99C508.08,736.95 434.17,752.29 419.00,755.41C401.49,759.00 351.34,768.33 337.50,770.56C322.01,773.06 308.39,773.52 299.63,771.85ZM346.26,739.55C371.36,735.30 418.02,726.01 497.00,709.54C517.08,705.35 555.10,697.47 581.50,692.02C698.83,667.80 714.80,664.18 716.65,661.40C718.73,658.25 737.42,614.40 742.82,599.96C757.50,560.75 764.00,527.55 764.00,491.77C764.00,443.36 749.05,394.96 722.69,358.00C710.56,341.01 694.62,323.65 680.41,311.96C652.00,288.60 610.30,270.92 568.00,264.31C553.70,262.07 509.42,261.75 496.00,263.79C452.69,270.38 411.92,286.57 382.50,308.86C351.83,332.09 327.06,365.58 312.52,403.47C306.91,418.09 306.54,419.73 308.75,420.38C309.71,420.67 318.60,422.47 328.50,424.39C353.40,429.22 368.22,431.67 417.00,439.01C461.31,445.68 501.28,448.37 533.19,446.84C553.67,445.86 556.58,445.93 562.96,447.49C586.98,453.38 601.46,479.33 594.01,503.14C589.91,516.23 581.64,526.68 566.10,538.39C505.63,583.96 388.69,615.53 291.00,612.64C279.73,612.31 269.49,611.75 268.25,611.40C266.26,610.84 265.69,611.46 263.41,616.61C261.99,619.82 260.10,625.23 259.21,628.63C257.69,634.40 257.70,635.57 259.37,646.02C263.20,670.03 271.39,694.13 284.35,719.49C292.02,734.50 297.42,741.20 303.18,742.86C309.77,744.76 320.29,743.95 346.26,739.55ZM83.08,594.42C83.13,593.25 83.36,593.01 83.68,593.81C83.97,594.53 83.94,595.40 83.60,595.73C83.27,596.06 83.04,595.47 83.08,594.42ZM75.00,593.50C75.00,592.67 74.52,592.00 73.93,592.00C73.32,592.00 73.14,591.15 73.50,590.00C73.86,588.86 73.68,588.00 73.08,588.00C72.50,588.00 72.04,586.99 72.06,585.75C72.08,584.51 71.43,580.35 70.62,576.50C69.81,572.65 69.41,568.19 69.73,566.60C70.10,564.74 69.94,563.92 69.29,564.32C68.65,564.72 68.06,562.44 67.70,558.23C67.39,554.53 66.38,544.08 65.46,535.00C63.60,516.78 63.89,473.65 66.00,454.50C67.29,442.76 70.68,419.23 71.91,413.50C74.03,403.57 77.28,389.87 79.14,383.00C80.26,378.88 81.52,374.15 81.95,372.50C82.37,370.85 84.37,364.55 86.40,358.50C104.83,303.53 135.10,250.41 172.29,207.76C182.24,196.36 207.71,170.78 218.50,161.38C231.31,150.21 256.39,131.33 264.86,126.50C265.82,125.95 269.51,123.65 273.05,121.39C286.34,112.93 295.96,107.58 311.70,99.90C320.60,95.55 328.15,92.00 328.46,92.00C328.77,92.00 330.93,91.15 333.26,90.11C361.28,77.61 398.45,66.92 434.00,61.13C437.57,60.55 443.67,59.55 447.55,58.91C451.43,58.27 456.45,57.93 458.71,58.14C461.09,58.37 462.59,58.14 462.26,57.61C461.91,57.05 464.20,56.94 467.99,57.34C471.46,57.70 475.58,58.00 477.15,58.00C480.55,58.00 481.15,60.89 477.92,61.73C476.33,62.15 476.15,62.48 477.17,63.12C478.16,63.76 478.19,63.97 477.25,63.98C476.56,63.99 476.00,64.48 476.00,65.06C476.00,65.64 476.45,65.84 477.00,65.50C477.55,65.16 478.00,65.29 478.00,65.79C478.00,66.29 473.75,67.00 468.56,67.37C431.94,69.94 384.28,80.96 348.45,95.13C307.86,111.18 267.34,134.87 235.00,161.46C173.17,212.30 125.21,281.15 98.54,357.36C86.79,390.93 79.97,422.12 75.85,461.00C74.29,475.74 74.29,523.63 75.85,540.50C77.14,554.40 80.39,578.04 82.13,586.18C83.20,591.15 82.76,593.97 81.52,590.08C81.16,588.93 80.42,588.00 79.87,588.00C79.33,588.00 79.20,588.52 79.60,589.15C80.07,589.92 79.87,590.04 78.98,589.49C78.01,588.89 77.84,589.13 78.33,590.41C78.71,591.40 78.38,592.76 77.57,593.57C75.74,595.40 75.00,595.38 75.00,593.50ZM78.68,584.81C78.36,584.01 78.13,584.25 78.08,585.42C78.04,586.47 78.27,587.06 78.60,586.73C78.94,586.40 78.97,585.53 78.68,584.81ZM938.64,584.52C938.32,583.67 937.41,583.29 936.54,583.62C934.65,584.35 934.65,583.71 936.44,573.50C940.51,550.35 941.47,536.88 941.45,503.00C941.43,466.82 940.24,451.39 935.45,425.20C926.07,373.79 909.47,328.63 882.64,281.50C878.44,274.13 875.66,268.23 876.22,267.88C876.86,267.47 876.82,266.53 876.10,265.19C874.71,262.59 874.70,261.70 876.08,262.55C876.76,262.97 877.04,262.38 876.83,260.95C876.31,257.38 878.71,257.53 880.56,261.19C882.75,265.50 885.05,268.09 886.12,267.42C886.59,267.13 886.68,267.67 886.32,268.61C885.84,269.87 886.01,270.11 886.98,269.51C887.87,268.96 888.07,269.08 887.60,269.85C887.20,270.48 887.34,271.00 887.90,271.00C890.61,271.00 911.20,311.51 921.20,336.50C925.02,346.06 932.34,367.16 934.02,373.50C934.46,375.15 935.74,379.88 936.86,384.00C943.37,407.99 948.30,434.94 950.97,461.07C952.36,474.68 952.41,521.55 951.05,534.50C948.53,558.46 947.70,564.57 946.79,565.71C946.26,566.37 946.13,567.40 946.50,568.00C946.87,568.60 946.66,569.70 946.04,570.45C945.41,571.21 945.20,572.95 945.57,574.40C945.98,576.05 945.80,577.00 945.09,577.00C944.38,577.00 944.18,578.02 944.56,579.75C945.00,581.78 944.90,582.12 944.15,581.05C943.34,579.89 943.00,580.16 942.44,582.40C941.90,584.53 941.51,584.87 940.77,583.85C940.05,582.83 939.95,582.93 940.37,584.25C941.06,586.37 939.45,586.62 938.64,584.52ZM302.47,583.75C302.70,583.06 303.38,575.30 303.98,566.50C306.53,529.28 312.69,495.24 322.56,463.70C323.90,459.41 325.00,455.30 325.00,454.58C325.00,453.35 322.93,452.85 303.27,449.36C300.40,448.85 299.91,449.11 298.94,451.64C296.28,458.57 289.69,485.96 286.09,505.00C282.59,523.50 279.00,558.99 279.00,575.08C279.00,585.34 278.03,584.65 292.78,584.86C299.42,584.96 302.18,584.64 302.47,583.75ZM559.64,503.90C565.10,500.55 567.76,491.52 565.21,485.00C562.57,478.22 553.82,473.84 547.01,475.88C539.65,478.08 534.09,487.34 536.04,494.14C537.07,497.74 539.66,501.96 541.92,503.74C546.43,507.28 554.03,507.35 559.64,503.90ZM613.00,461.22C613.01,460.27 614.86,452.52 617.12,444.00C619.38,435.48 621.93,425.83 622.78,422.56L624.34,416.63L619.92,412.68C617.49,410.51 609.24,403.51 601.59,397.12L587.68,385.50L611.09,384.68C623.97,384.22 634.80,383.55 635.17,383.18C635.69,382.66 648.70,349.25 651.56,341.11C651.83,340.34 652.22,339.89 652.42,340.11C652.63,340.32 656.71,350.23 661.49,362.13L670.18,383.75L693.09,384.48C705.69,384.88 716.00,385.53 716.00,385.92C716.00,386.64 705.85,395.50 689.80,408.80C681.84,415.40 681.05,416.37 681.60,418.80C681.94,420.29 684.20,428.84 686.63,437.81C689.07,446.78 691.33,456.16 691.68,458.65L692.30,463.18L672.63,450.11L652.97,437.05L645.73,441.58C641.76,444.07 632.76,449.89 625.75,454.52C616.31,460.75 613.00,462.49 613.00,461.22ZM483.75,65.27C486.09,65.06 489.91,65.06 492.25,65.27C494.59,65.48 492.68,65.65 488.00,65.65C483.32,65.65 481.41,65.48 483.75,65.27ZM558.75,58.34C559.44,58.06 560.56,58.06 561.25,58.34C561.94,58.62 561.38,58.84 560.00,58.84C558.62,58.84 558.06,58.62 558.75,58.34ZM547.75,57.34C548.44,57.06 549.56,57.06 550.25,57.34C550.94,57.62 550.38,57.84 549.00,57.84C547.62,57.84 547.06,57.62 547.75,57.34ZM475.78,56.27C478.13,56.06 481.73,56.06 483.78,56.27C485.82,56.49 483.90,56.66 479.50,56.66C475.10,56.65 473.42,56.48 475.78,56.27ZM532.75,56.29C533.99,56.06 536.01,56.06 537.25,56.29C538.49,56.53 537.48,56.73 535.00,56.73C532.52,56.73 531.51,56.53 532.75,56.29Z"/></svg>