<svg version="1.1" xmlns="http://www.w3.org/2000/svg" xmlns:xlink="http://www.w3.org/1999/xlink" width="1024" height="1024" viewBox="0 0 1024 1024">
<path stroke="#2B2B2B" stroke-width="1.0" fill="#000000" fill-rule="evenodd" d="M488.01,682.75C488.01,680.85 490.24,671.69 495.07,653.75C495.68,651.49 496.69,650.00 497.61,650.00C498.60,650.00 498.95,650.61 498.59,651.75C498.30,652.71 496.89,657.55 495.47,662.50C489.07,684.78 487.99,687.71 488.01,682.75ZM813.37,675.73C808.71,670.82 799.83,660.38 795.11,654.25C792.36,650.68 792.13,650.01 793.67,650.05C795.97,650.12 819.04,678.29 817.81,679.53C817.57,679.76 815.57,678.06 813.37,675.73ZM500.07,675.93C500.01,673.79 502.34,661.37 504.50,652.25C504.80,651.01 505.54,650.00 506.15,650.00C506.90,650.00 507.07,651.49 506.65,654.54C506.01,659.19 502.46,672.91 500.97,676.50C500.22,678.30 500.13,678.25 500.07,675.93ZM815.00,663.76C803.75,651.68 802.44,650.00 804.32,650.00C806.50,650.00 825.04,671.29 823.88,672.46C823.66,672.68 819.66,668.77 815.00,663.76ZM482.28,665.72C482.54,665.02 483.29,661.93 483.93,658.86C485.13,653.06 487.27,649.01 488.27,650.63C489.06,651.90 483.97,667.00 482.76,667.00C482.22,667.00 482.01,666.43 482.28,665.72ZM166.45,663.08C166.76,662.57 174.33,655.72 183.26,647.85C192.19,639.98 200.50,632.55 201.73,631.34C207.21,625.91 213.87,622.06 212.83,624.92C212.38,626.16 185.49,649.60 175.36,657.59C167.68,663.63 165.14,665.20 166.45,663.08ZM655.25,661.28C656.76,661.05 659.24,661.05 660.75,661.28C662.26,661.51 661.02,661.70 658.00,661.70C654.98,661.70 653.74,661.51 655.25,661.28ZM585.00,656.05C572.79,655.51 573.02,655.48 595.41,654.75C637.23,653.38 729.00,654.35 729.00,656.16C729.00,657.06 605.88,656.96 585.00,656.05ZM194.04,651.43C206.24,638.91 219.37,626.37 222.03,624.69C224.56,623.08 225.00,623.03 225.00,624.35C225.00,625.19 224.09,626.52 222.98,627.30C221.87,628.08 216.36,632.97 210.73,638.16C193.45,654.12 191.31,656.00 190.43,656.00C189.96,656.00 191.59,653.94 194.04,651.43ZM538.50,649.97C543.92,648.45 651.59,647.28 703.50,648.19C793.00,649.75 773.80,650.72 652.50,650.77C587.14,650.80 536.82,650.45 538.50,649.97ZM446.00,645.06C432.99,644.29 436.88,643.13 454.83,642.42C462.90,642.10 470.18,641.60 471.00,641.31C473.75,640.35 468.92,639.15 461.50,638.95C449.16,638.62 447.49,637.25 459.27,637.12L470.04,637.00L468.17,633.25C463.25,623.41 461.72,606.86 461.77,564.00C461.82,527.56 462.93,510.49 466.09,498.16C468.30,489.51 469.78,487.49 476.00,484.66C482.40,481.75 502.79,481.09 513.36,483.44C526.94,486.46 528.21,488.72 532.60,517.78C532.88,519.58 533.53,520.79 534.05,520.47C535.35,519.66 535.15,509.22 533.64,499.17C532.65,492.60 532.63,488.36 533.57,479.17C534.23,472.75 534.57,467.29 534.33,467.03C532.58,465.14 530.60,479.48 531.62,486.50L532.21,490.50L529.59,486.77C528.14,484.73 526.08,482.58 525.01,482.01C523.60,481.25 523.18,480.20 523.48,478.23C524.96,468.70 525.07,466.54 523.99,467.61C523.38,468.22 522.62,471.25 522.30,474.36C521.69,480.30 520.54,481.50 519.03,477.75C518.33,476.00 518.11,475.89 518.06,477.27C518.02,478.62 517.41,478.91 515.50,478.52C514.12,478.23 511.87,477.77 510.50,477.48C507.46,476.85 507.41,475.66 510.08,468.51C513.38,459.70 514.01,459.49 536.96,459.54C549.91,459.57 557.73,460.01 560.16,460.84C564.34,462.27 566.43,465.79 567.53,473.25C568.50,479.86 570.68,479.53 576.42,471.90C578.94,468.55 581.00,465.38 581.00,464.87C581.00,464.35 580.31,462.88 579.47,461.60C578.30,459.80 576.68,459.12 572.40,458.62C563.59,457.58 560.38,455.84 559.60,451.66C559.17,449.42 559.45,446.85 560.35,444.70C562.02,440.71 564.34,440.00 575.67,440.00C582.22,440.00 583.38,440.29 585.55,442.45C586.90,443.80 588.00,445.60 588.00,446.45C588.00,448.88 589.39,448.27 590.74,445.25C591.41,443.74 594.24,440.96 597.01,439.08C600.04,437.01 601.61,435.38 600.93,434.96C599.57,434.12 567.09,433.87 557.89,434.63L551.28,435.17L550.39,444.83C549.67,452.67 549.18,454.55 547.81,454.80C546.74,455.01 545.46,453.91 544.32,451.81C542.78,448.99 542.47,445.39 542.17,427.33L541.83,406.16L544.37,404.50C548.42,401.84 550.45,402.85 550.80,407.69L551.11,411.87L556.30,412.49C559.16,412.82 573.11,412.97 587.30,412.80L613.10,412.50L617.72,401.58C625.23,383.82 632.00,379.25 649.41,380.21C663.56,380.99 668.25,385.03 675.27,402.46C677.48,407.95 679.58,411.68 680.69,412.08C683.10,412.95 726.12,413.26 729.42,412.43C731.70,411.86 732.00,411.28 732.00,407.39C732.00,402.32 733.42,401.80 739.45,404.68C744.05,406.87 744.40,408.91 743.77,429.87C743.41,442.06 742.84,447.52 741.65,450.34C739.46,455.53 737.65,454.55 736.79,447.69C735.98,441.23 733.84,436.52 731.06,435.03C728.91,433.88 703.40,433.77 695.50,434.87L690.50,435.57L694.50,437.69C698.50,439.82 702.29,443.40 705.28,447.87L706.86,450.25L707.55,446.60C708.58,441.10 710.94,440.00 721.72,440.00C732.49,440.00 734.27,441.03 735.37,447.88C736.10,452.48 734.97,455.57 732.25,456.39C730.52,456.92 718.22,458.98 716.73,458.99C716.31,459.00 715.25,460.50 714.38,462.33C712.86,465.51 712.90,465.88 715.30,470.58L717.82,475.50L718.54,472.50C719.68,467.74 722.93,463.09 726.33,461.33C728.79,460.06 733.48,459.61 747.99,459.28C764.47,458.90 766.88,459.06 770.00,460.68C773.89,462.70 776.55,467.26 777.82,474.09C778.79,479.27 778.42,481.00 776.32,481.00C775.48,481.00 773.50,482.40 771.90,484.11L769.00,487.21L768.96,482.36C768.91,477.05 767.62,469.29 766.63,468.29C765.21,466.88 765.21,469.01 766.63,478.51C767.81,486.45 767.87,489.42 766.95,493.00C765.46,498.74 764.42,520.00 765.62,520.00C766.12,520.00 767.31,514.94 768.27,508.75C770.24,496.05 773.42,488.35 777.71,485.87C782.80,482.93 791.19,481.60 804.50,481.63C819.36,481.66 824.67,482.83 828.83,486.98C834.02,492.18 836.48,506.89 838.10,542.50C839.80,579.98 837.44,620.71 832.97,630.81C831.89,633.25 831.00,635.65 831.00,636.13C831.00,636.61 834.04,637.04 837.75,637.09C843.13,637.16 843.89,637.35 841.50,638.00C839.85,638.45 835.91,639.11 832.75,639.48C829.59,639.84 827.00,640.49 827.00,640.92C827.00,641.35 833.07,642.00 840.48,642.37C858.58,643.28 861.44,644.49 847.52,645.34C834.63,646.13 459.73,645.87 446.00,645.06ZM775.55,640.91C775.89,640.36 725.83,640.01 649.81,640.02C576.65,640.02 524.09,640.40 524.89,640.91C526.77,642.10 774.82,642.11 775.55,640.91ZM763.37,636.13L775.23,636.00L773.79,633.75C772.01,630.97 768.00,614.74 768.00,610.32C768.00,609.77 736.11,610.24 723.50,610.96C711.63,611.64 711.59,611.65 720.19,611.82C732.65,612.08 732.35,613.86 719.79,614.25L709.50,614.58L721.50,614.85C730.22,615.05 732.86,615.38 731.15,616.07C729.86,616.59 720.05,616.95 709.36,616.88C698.66,616.81 689.63,617.03 689.29,617.38C688.95,617.72 692.27,618.00 696.67,618.00C701.08,618.00 711.62,618.30 720.09,618.67C745.41,619.78 733.21,621.19 703.00,620.65C687.54,620.38 678.58,620.52 681.50,621.00C684.25,621.45 691.45,621.91 697.50,622.01C703.55,622.11 715.70,622.75 724.50,623.45L740.50,624.71L704.58,624.85C684.83,624.93 668.85,625.19 669.08,625.42C669.31,625.64 685.02,626.35 704.00,626.98C722.98,627.61 738.92,628.54 739.43,629.05C740.56,630.15 568.47,630.24 562.50,629.14C556.91,628.11 580.86,627.03 611.50,626.93C625.41,626.89 634.66,626.51 633.50,626.02C632.40,625.56 615.35,625.15 595.61,625.12C575.87,625.08 559.52,624.86 559.29,624.62C558.64,623.97 577.02,622.92 604.00,622.08L628.50,621.31L594.50,621.04C555.83,620.73 554.69,619.33 592.69,618.82C606.78,618.63 615.96,618.16 614.69,617.68C613.48,617.23 602.83,616.82 591.00,616.78C579.17,616.74 569.05,616.44 568.50,616.10C567.95,615.77 573.58,615.25 581.00,614.96L594.50,614.41L577.69,614.21C566.79,614.07 561.10,613.65 561.50,613.00C561.87,612.40 568.36,612.00 577.62,612.00C587.34,612.00 592.90,611.64 592.52,611.03C592.16,610.44 579.85,610.08 560.96,610.11L530.00,610.15L530.00,613.49C530.00,616.62 527.85,628.83 526.43,633.71C525.80,635.88 526.00,635.93 535.64,636.21C544.83,636.48 737.10,636.41 763.37,636.13ZM583.50,634.00L555.50,633.50L569.50,632.59C600.63,630.55 742.72,631.61 740.48,633.86C739.72,634.62 623.86,634.72 583.50,634.00ZM194.00,629.96C196.47,627.79 198.95,626.02 199.50,626.03C200.05,626.05 198.47,627.83 196.00,630.00C193.53,632.17 191.05,633.93 190.50,633.93C189.95,633.92 191.53,632.14 194.00,629.96ZM318.00,629.00C313.88,628.65 330.07,628.35 354.00,628.35C380.07,628.34 393.49,628.62 387.50,629.05C375.36,629.92 328.40,629.89 318.00,629.00ZM294.50,624.04L276.50,623.50L292.50,622.75C311.83,621.85 412.06,621.95 420.50,622.88C436.23,624.61 342.74,625.47 294.50,624.04ZM200.19,618.85C182.41,618.50 167.60,617.93 167.27,617.60C166.01,616.34 167.99,616.08 182.04,615.64C198.91,615.11 197.91,615.23 196.00,614.00C195.18,613.47 192.03,612.98 189.00,612.93C185.97,612.87 181.25,612.47 178.50,612.05C173.51,611.27 173.51,611.27 177.50,611.12C179.70,611.05 183.82,610.70 186.65,610.36L191.79,609.75L190.37,606.33C186.74,597.66 185.61,582.73 185.60,543.50C185.59,504.15 186.54,491.53 190.49,478.30C193.17,469.34 198.77,467.07 218.20,467.02C243.83,466.97 247.74,470.40 251.38,496.08C253.02,507.73 254.56,505.80 253.69,493.16C252.85,480.82 250.69,474.50 245.52,469.25C241.35,465.03 241.26,464.79 242.17,460.75C245.07,447.83 247.53,446.64 270.38,447.18C281.39,447.44 288.30,448.03 289.74,448.82C292.65,450.43 294.88,454.83 295.65,460.48C296.18,464.34 296.61,465.00 298.55,465.00C300.89,465.00 309.00,456.87 309.00,454.53C309.00,452.36 304.55,449.17 300.50,448.45C295.40,447.54 291.41,445.52 290.62,443.46C289.51,440.55 289.97,435.49 291.56,433.22C292.98,431.20 293.94,431.00 302.42,431.00C310.14,431.00 312.15,431.33 314.21,432.95L316.70,434.91L320.10,431.36C321.97,429.42 325.71,426.69 328.40,425.32C336.94,420.95 332.19,420.31 301.27,421.65L286.22,422.30L285.55,428.40C284.50,437.96 284.05,439.15 281.63,438.80C280.29,438.61 278.72,436.95 277.38,434.30C275.64,430.86 275.13,427.46 274.55,415.30C273.69,397.29 274.09,395.87 280.64,393.71C286.49,391.78 287.78,392.57 288.20,398.33L288.50,402.50L314.49,402.50L340.48,402.50L344.13,392.81C348.17,382.06 350.55,378.21 355.42,374.49C361.94,369.52 376.89,368.84 385.72,373.11C391.17,375.74 394.62,380.55 399.98,392.95L404.32,403.00L432.91,402.98C448.63,402.98 461.97,402.64 462.55,402.23C463.12,401.83 463.67,400.39 463.75,399.04C463.95,395.94 467.73,392.91 471.00,393.25L473.50,393.50L473.78,411.50C474.01,426.17 473.76,430.29 472.44,433.76C469.82,440.68 465.01,441.93 464.99,435.69C464.99,433.94 464.71,430.21 464.37,427.40L463.76,422.31L441.56,421.64C420.30,421.01 412.58,421.38 413.21,423.02C413.37,423.44 415.46,425.40 417.84,427.39L422.19,431.00L433.04,431.00C443.12,431.00 444.00,431.16 445.44,433.22C447.66,436.39 447.47,443.27 445.10,445.41C444.03,446.38 440.78,447.37 437.60,447.70C434.50,448.02 432.00,448.78 432.01,449.39C432.02,451.12 436.95,461.29 438.72,463.25C439.63,464.25 441.74,465.00 443.64,465.00C446.46,465.00 447.05,464.59 447.53,462.25C448.76,456.26 450.00,452.38 451.22,450.74C453.09,448.23 461.48,447.00 476.74,447.00C495.70,447.00 498.27,448.47 500.88,460.80C501.50,463.71 502.00,468.33 502.00,471.05L502.00,476.00L495.57,476.00C488.67,476.00 477.06,478.11 471.74,480.34C465.65,482.88 462.39,487.89 460.12,498.19C458.98,503.31 457.93,508.39 457.77,509.48C457.50,511.34 456.79,511.43 444.99,511.14C436.32,510.93 432.81,511.16 433.51,511.88C434.07,512.46 439.47,513.06 445.51,513.21C455.76,513.48 456.52,513.64 456.80,515.57C457.08,517.56 456.39,517.70 440.77,518.86C423.49,520.14 420.00,520.69 420.00,522.12C420.00,523.32 422.18,523.25 440.42,521.43C449.09,520.57 456.39,520.06 456.63,520.30C456.87,520.53 456.76,526.87 456.38,534.38C455.72,547.59 455.63,547.98 453.84,546.36C452.82,545.43 451.73,544.94 451.41,545.26C451.09,545.58 451.99,546.60 453.41,547.54C455.35,548.80 456.00,550.08 456.00,552.61L456.00,555.98L445.25,555.53C434.11,555.06 434.71,555.25 451.75,557.55C454.46,557.92 456.00,558.63 456.00,559.53C456.00,560.63 453.60,561.00 444.75,561.25L433.50,561.57L444.83,561.79C453.38,561.95 456.06,562.31 455.75,563.25C455.48,564.08 449.33,565.17 437.25,566.50C420.02,568.41 412.96,570.00 421.74,570.00C426.18,570.00 452.81,567.22 454.62,566.57C455.71,566.17 457.00,574.31 457.00,581.65C457.00,585.53 459.97,585.13 431.75,585.00C420.08,584.95 414.00,585.28 414.00,585.96C414.00,586.64 420.39,587.06 432.25,587.16C453.53,587.34 446.22,588.66 422.75,588.88C414.33,588.95 409.00,589.39 409.00,590.00C409.00,590.61 413.69,591.00 421.06,591.00C428.84,591.00 432.90,591.35 432.50,592.00C432.14,592.58 425.90,593.07 417.69,593.16L403.50,593.31L420.50,594.49C431.38,595.25 435.34,595.78 431.50,595.96C428.20,596.12 418.98,596.57 411.00,596.95L396.50,597.65L412.00,597.91C435.18,598.31 441.51,599.67 421.50,599.97C412.70,600.09 401.68,600.53 397.00,600.94C389.24,601.63 389.98,601.72 405.50,601.98C414.85,602.13 425.88,602.55 430.00,602.91C443.06,604.04 406.62,605.38 382.75,604.65C371.34,604.30 362.00,604.39 362.00,604.85C362.00,605.32 378.31,606.02 398.25,606.41C418.29,606.81 434.92,607.55 435.45,608.07C436.43,609.03 409.93,609.63 379.00,609.34C369.93,609.26 340.45,609.06 313.50,608.90C286.55,608.74 267.43,608.48 271.00,608.32C274.57,608.16 284.02,607.58 292.00,607.02C299.98,606.47 318.09,605.97 332.25,605.92C347.06,605.87 358.00,605.44 358.00,604.91C358.00,604.38 341.86,603.93 319.25,603.84C296.71,603.75 283.43,603.38 287.50,602.97C291.35,602.57 303.05,602.14 313.50,602.01C326.63,601.84 331.26,601.51 328.50,600.94C326.30,600.49 315.39,600.09 304.25,600.06C291.46,600.02 284.00,599.63 284.00,599.00C284.00,598.37 291.51,597.95 304.25,597.86C327.96,597.69 323.09,596.33 297.50,595.97C277.78,595.70 283.01,594.27 305.00,593.92L319.50,593.69L303.69,592.95C294.99,592.54 287.60,591.93 287.27,591.60C286.94,591.27 292.57,591.00 299.77,591.00C307.43,591.00 313.14,590.58 313.50,590.00C313.90,589.36 310.70,589.00 304.62,589.00C299.36,589.00 294.84,588.55 294.50,588.00C294.11,587.36 297.06,587.00 302.64,587.00C309.12,587.00 311.11,586.71 310.28,585.88C309.46,585.06 301.23,584.99 279.83,585.63L250.50,586.50L249.87,593.50C249.53,597.35 248.51,602.24 247.62,604.37C246.73,606.50 246.00,608.57 246.00,608.97C246.00,610.44 287.80,611.13 371.25,611.03C443.72,610.94 457.00,611.13 457.00,612.31C457.00,614.20 395.20,615.01 307.90,614.26C264.12,613.88 242.10,614.03 241.68,614.70C240.65,616.38 292.11,617.20 377.93,616.88C439.31,616.65 457.45,616.86 457.76,617.79C458.07,618.71 451.54,619.06 430.33,619.25C375.93,619.74 232.00,619.49 200.19,618.85ZM779.13,589.00C780.40,574.62 779.66,529.91 778.04,523.00C777.46,520.52 776.73,517.38 776.41,516.01C775.93,513.91 775.70,513.78 774.93,515.16C774.33,516.22 774.53,518.25 775.49,520.98C777.99,528.07 779.19,554.09 778.15,578.66C777.63,590.84 776.74,601.64 776.17,602.66C775.20,604.37 775.05,604.32 774.06,602.00C773.17,599.92 773.10,600.25 773.61,604.00C773.95,606.48 774.50,608.95 774.82,609.49C775.95,611.38 778.04,601.45 779.13,589.00ZM524.58,603.24C523.37,602.04 522.79,604.02 523.57,606.70L524.39,609.50L524.77,606.66C524.98,605.10 524.89,603.56 524.58,603.24ZM582.50,608.04C585.80,607.63 587.83,607.19 587.00,607.06C583.15,606.47 562.37,607.26 561.02,608.05C559.17,609.13 573.75,609.12 582.50,608.04ZM732.00,608.00C732.00,607.39 728.20,607.07 722.25,607.17C712.78,607.34 712.69,607.36 719.00,608.00C729.51,609.06 732.00,609.06 732.00,608.00ZM676.85,603.96C689.23,600.03 696.93,591.20 698.99,578.55C699.81,573.50 699.35,567.81 697.46,560.00C696.37,555.45 699.12,560.76 701.07,566.95C702.03,570.00 702.85,571.60 702.88,570.50C702.92,569.40 701.87,565.35 700.56,561.50C699.25,557.65 698.30,554.37 698.45,554.22C699.23,553.43 702.22,559.70 703.55,564.90C706.61,576.83 701.67,593.16 692.56,601.21C690.88,602.70 689.90,603.94 690.38,603.96C691.73,604.02 701.61,598.18 703.01,596.49C704.91,594.19 702.93,594.72 700.18,597.25C698.83,598.49 697.92,599.05 698.17,598.50C698.41,597.95 700.03,594.50 701.78,590.83C709.31,574.99 707.22,556.79 696.42,544.17C689.98,536.66 678.97,532.66 660.00,530.95C643.82,529.49 623.77,532.68 613.67,538.32C608.54,541.18 600.56,553.13 598.94,560.36C597.06,568.76 598.11,580.41 601.33,587.00C602.81,590.02 603.75,591.38 603.43,590.00C603.10,588.62 602.15,584.80 601.32,581.50C599.28,573.45 600.03,561.82 602.96,556.07C605.61,550.88 606.42,551.13 604.50,556.54C603.72,558.72 603.09,561.62 603.08,563.00C603.08,565.23 603.24,565.13 604.63,562.00C605.48,560.08 606.60,557.43 607.12,556.11C609.08,551.13 608.91,554.94 606.92,560.59C605.26,565.31 604.93,568.11 605.29,574.54C605.84,584.13 608.75,590.74 614.88,596.27C624.30,604.79 632.87,607.05 654.00,606.62C666.87,606.35 670.75,605.90 676.85,603.96ZM578.50,604.50C579.05,604.31 577.02,604.12 574.00,604.07C570.98,604.01 567.49,603.70 566.25,603.37C564.65,602.94 564.00,603.20 564.00,604.27C564.00,605.50 565.21,605.69 570.75,605.30C574.46,605.05 577.95,604.68 578.50,604.50ZM612.00,601.10C609.52,598.96 607.35,597.34 607.17,597.52C606.35,598.29 609.31,602.10 611.78,603.44C616.55,606.03 616.64,605.11 612.00,601.10ZM731.00,604.00C731.00,602.84 726.62,602.84 723.00,604.00C721.03,604.63 721.62,604.82 725.75,604.90C728.65,604.96 731.00,604.55 731.00,604.00ZM636.42,602.60C618.93,599.15 608.71,588.23 608.71,573.02C608.71,553.84 623.85,545.85 657.50,547.29C679.27,548.22 688.14,551.86 693.25,561.94C700.00,575.24 694.09,592.03 680.39,598.51C669.38,603.72 650.82,605.45 636.42,602.60ZM522.72,594.77C522.50,592.97 522.32,594.20 522.31,597.50C522.30,600.80 522.49,602.27 522.71,600.77C522.94,599.27 522.95,596.57 522.72,594.77ZM659.29,601.26C655.88,601.07 650.03,601.06 646.29,601.26C642.56,601.45 645.35,601.61 652.50,601.61C659.65,601.61 662.71,601.46 659.29,601.26ZM638.25,600.34C637.56,600.06 636.44,600.06 635.75,600.34C635.06,600.62 635.62,600.84 637.00,600.84C638.38,600.84 638.94,600.62 638.25,600.34ZM670.25,600.34C669.56,600.06 668.44,600.06 667.75,600.34C667.06,600.62 667.62,600.84 669.00,600.84C670.38,600.84 670.94,600.62 670.25,600.34ZM605.50,599.00C605.16,598.45 604.43,598.00 603.88,598.00C603.33,598.00 603.16,598.45 603.50,599.00C603.84,599.55 604.57,600.00 605.12,600.00C605.67,600.00 605.84,599.55 605.50,599.00ZM584.00,595.80C578.86,594.64 534.34,593.55 535.33,594.61C536.23,595.58 583.54,597.87 586.00,597.07C586.87,596.79 586.02,596.25 584.00,595.80ZM601.00,595.50C600.32,594.67 599.31,594.00 598.76,594.00C598.20,594.00 598.31,594.66 599.00,595.50C599.68,596.33 600.69,597.00 601.24,597.00C601.80,597.00 601.69,596.34 601.00,595.50ZM606.00,594.00C605.36,592.81 604.61,592.05 604.34,592.33C604.06,592.60 604.36,593.81 605.00,595.00C605.64,596.19 606.39,596.95 606.66,596.67C606.94,596.40 606.64,595.19 606.00,594.00ZM751.50,595.34C771.28,594.28 760.45,593.26 737.87,594.05C725.20,594.49 716.51,595.22 715.37,595.93C713.46,597.12 720.31,597.01 751.50,595.34ZM659.28,593.27C656.96,593.06 652.91,593.06 650.28,593.26C647.65,593.47 649.55,593.64 654.50,593.65C659.45,593.65 661.60,593.48 659.28,593.27ZM713.47,582.15C715.75,575.45 716.75,560.00 714.90,560.00C713.81,560.01 713.48,562.04 713.41,569.25C713.32,579.10 710.93,586.95 706.91,590.58C705.86,591.53 705.02,592.80 705.04,593.40C705.13,595.70 711.95,586.59 713.47,582.15ZM593.04,587.93C588.19,581.80 586.00,574.91 586.00,565.82C586.00,561.94 585.57,559.00 585.00,559.00C582.66,559.00 584.50,576.05 587.53,582.43C589.09,585.71 595.21,593.00 596.41,593.00C596.76,593.00 595.24,590.72 593.04,587.93ZM524.45,523.80C525.32,522.05 525.56,520.01 525.10,518.28C524.39,515.62 524.32,515.68 523.10,520.01C522.24,523.08 521.74,535.07 521.51,558.00L521.18,591.50L522.13,559.03C522.83,534.99 523.43,525.85 524.45,523.80ZM582.50,589.98C578.88,588.97 544.24,586.94 534.47,587.16C524.86,587.38 530.51,587.94 557.50,589.45C586.52,591.07 586.38,591.07 582.50,589.98ZM756.00,587.93C763.63,587.34 761.03,587.26 746.50,587.64C735.50,587.92 724.25,588.52 721.50,588.97C715.73,589.91 739.59,589.20 756.00,587.93ZM657.78,588.27C655.19,588.06 650.69,588.06 647.78,588.26C644.88,588.46 647.00,588.63 652.50,588.63C658.00,588.64 660.38,588.47 657.78,588.27ZM246.40,580.00C246.93,573.70 246.91,573.64 245.85,578.00C244.80,582.31 244.72,582.40 243.74,580.00C241.08,573.46 242.21,503.10 244.99,502.17C245.55,501.98 246.00,500.48 246.00,498.83C246.00,493.54 243.57,496.28 242.37,502.92C240.62,512.66 239.81,544.83 240.87,562.50C242.28,585.96 245.15,595.05 246.40,580.00ZM374.28,585.53C387.48,582.73 395.82,575.88 399.66,564.68C401.94,558.05 401.94,547.80 399.65,542.09C397.15,535.84 398.39,535.87 401.59,542.15C407.21,553.20 405.62,566.66 397.42,577.40C393.49,582.55 394.35,583.75 398.46,578.87C407.12,568.57 408.65,556.81 403.35,541.20C402.53,538.79 402.09,536.58 402.37,536.30C403.40,535.27 406.11,543.63 407.13,550.97C408.59,561.54 409.38,561.20 408.71,550.30C408.33,544.20 407.44,539.51 406.06,536.39C402.78,528.99 404.61,529.93 408.13,537.47C410.85,543.29 411.30,545.37 411.34,552.37C411.36,557.11 410.84,561.47 410.11,562.84C408.44,565.91 409.45,566.86 411.17,563.84C412.02,562.34 412.50,558.07 412.50,552.00C412.50,543.28 412.22,541.90 409.09,535.22C402.40,520.96 391.88,515.16 368.73,512.97C342.10,510.46 320.74,516.65 312.26,529.34C307.68,536.20 306.75,540.72 307.15,554.17C307.44,564.02 307.30,565.51 306.25,563.51C304.09,559.39 301.87,546.74 302.47,542.00C302.78,539.52 302.64,536.89 302.14,536.14C300.42,533.52 300.06,536.77 300.96,547.05C301.73,555.92 302.36,558.38 305.44,564.44C308.94,571.32 316.74,581.59 317.73,580.60C318.00,580.33 316.68,578.17 314.80,575.80C308.89,568.37 308.49,567.19 308.14,556.00C307.86,547.35 308.17,544.46 309.88,539.61C311.76,534.24 314.78,529.44 315.69,530.35C315.89,530.55 314.80,533.12 313.28,536.07C310.76,540.92 310.50,542.39 310.50,551.96C310.50,558.25 311.04,564.04 311.85,566.32C313.90,572.13 314.23,570.11 312.47,562.51C310.75,555.12 311.19,547.06 313.63,541.10C315.60,536.30 315.94,537.48 314.73,544.88C313.45,552.66 314.96,564.05 318.07,570.15C321.94,577.72 329.89,583.24 340.17,585.47C348.55,587.29 365.83,587.32 374.28,585.53ZM596.39,579.90C594.14,571.11 594.97,560.62 598.49,553.43C602.22,545.81 611.33,536.89 618.33,533.98C621.92,532.49 624.00,531.04 624.00,530.01C624.00,526.43 611.87,480.54 610.58,479.25C609.71,478.37 596.64,485.03 591.26,489.09C587.90,491.63 586.00,492.55 586.00,491.64C586.00,490.86 588.25,488.50 591.00,486.40C593.75,484.30 596.00,482.23 596.00,481.79C596.00,481.36 596.34,481.10 596.75,481.22C597.16,481.34 600.15,480.18 603.38,478.63C611.46,474.76 626.71,470.99 637.50,470.18L646.50,469.50L647.04,464.79C647.93,457.10 650.42,456.96 651.56,464.53C652.32,469.60 652.13,469.51 663.93,470.52C673.92,471.38 688.08,475.07 695.92,478.88C699.45,480.59 702.54,481.79 702.78,481.55C703.02,481.31 703.80,478.05 704.51,474.31C705.47,469.24 705.51,467.15 704.67,466.12C704.05,465.37 703.45,463.27 703.34,461.46C703.06,457.22 698.99,449.26 695.29,445.75C692.46,443.07 677.65,436.95 674.22,437.05C673.27,437.08 676.10,438.92 680.50,441.15C693.10,447.54 694.75,449.71 696.47,462.25C696.92,465.54 696.77,467.00 695.97,467.00C695.34,467.00 689.60,464.93 683.20,462.40C668.59,456.62 661.10,455.03 648.50,455.03C635.90,455.03 628.19,456.67 613.63,462.43C607.27,464.94 601.10,467.00 599.91,467.00C597.82,467.00 597.77,466.73 598.44,459.89C599.57,448.49 600.22,447.72 614.82,440.41C619.12,438.26 620.71,437.05 619.30,437.03C616.06,436.98 604.55,441.37 600.00,444.38C595.64,447.27 594.09,449.76 591.46,458.17L589.68,463.84L592.94,471.99C596.41,480.70 596.43,484.63 592.95,476.40C591.82,473.71 590.49,470.60 590.01,469.50C588.59,466.24 588.86,469.90 590.50,476.00C591.31,479.02 591.98,482.15 591.99,482.95C592.01,485.58 590.33,482.64 589.01,477.72C588.30,475.10 587.31,472.69 586.80,472.38C584.19,470.76 573.16,486.62 569.98,496.56C567.56,504.13 565.85,526.96 567.92,524.00C568.50,523.17 569.03,520.25 569.10,517.50C569.38,507.23 570.75,506.14 571.00,516.00C571.22,525.13 571.27,525.29 572.11,520.24C573.43,512.34 576.74,503.27 580.31,497.83C584.36,491.64 585.08,493.20 581.15,499.65C577.41,505.80 574.98,512.98 574.28,520.00C573.59,526.85 574.64,526.19 576.00,518.92C577.31,511.90 581.88,502.73 587.05,496.75C591.17,491.98 592.87,490.92 592.67,493.25C592.61,493.94 596.12,501.58 600.46,510.24C604.80,518.90 608.09,526.24 607.78,526.55C607.47,526.86 603.54,520.10 599.05,511.54C594.56,502.97 590.52,496.18 590.08,496.45C588.05,497.71 581.83,508.05 580.14,513.00C577.76,519.95 576.81,525.00 577.87,525.00C578.33,525.00 579.42,523.17 580.29,520.93C581.76,517.20 582.16,516.89 585.18,517.18C588.34,517.49 588.60,517.85 591.53,526.00C593.21,530.67 595.87,536.86 597.45,539.76C599.03,542.65 600.06,545.28 599.73,545.61C599.40,545.93 597.73,543.72 596.02,540.68C594.30,537.65 592.25,534.62 591.45,533.96C588.78,531.74 589.79,535.81 593.61,542.64C597.44,549.49 597.65,552.91 593.85,546.46C592.62,544.38 591.43,543.20 591.22,543.85C591.00,544.50 591.76,546.63 592.91,548.57C595.72,553.34 595.72,556.55 592.90,552.50L590.82,549.50L591.47,552.50C591.83,554.15 592.47,560.23 592.90,566.00C593.57,575.23 596.46,587.88 597.62,586.71C597.85,586.49 597.30,583.42 596.39,579.90ZM556.34,582.56C570.83,580.20 575.31,578.99 569.42,579.01C564.65,579.03 541.00,582.90 539.18,583.96C537.68,584.83 537.72,584.94 539.50,584.95C540.60,584.96 548.18,583.88 556.34,582.56ZM592.50,580.46C591.72,578.28 591.06,573.58 591.03,570.00C591.00,566.42 590.50,562.83 589.92,562.00C588.16,559.48 589.45,576.95 591.36,581.40C593.49,586.39 594.36,585.68 592.50,580.46ZM759.58,584.13C758.96,583.13 756.90,582.67 741.00,579.97C727.82,577.73 727.71,577.71 728.40,578.83C728.95,579.72 744.07,582.68 759.31,584.88C759.75,584.95 759.88,584.61 759.58,584.13ZM654.75,583.27C652.69,583.06 649.31,583.06 647.25,583.27C645.19,583.49 646.88,583.66 651.00,583.66C655.12,583.66 656.81,583.49 654.75,583.27ZM710.64,567.83C710.72,560.87 711.06,554.71 711.41,554.15C711.75,553.60 711.61,552.88 711.09,552.56C710.57,552.24 709.91,552.77 709.62,553.74C709.32,554.71 709.33,553.30 709.62,550.62C709.92,547.94 710.37,545.20 710.63,544.53C710.91,543.79 715.42,542.85 722.30,542.12C737.61,540.48 770.28,535.02 771.45,533.91C772.03,533.35 771.45,533.00 769.95,533.00C767.77,533.00 721.74,539.22 714.75,540.46C712.44,540.87 711.99,540.60 711.95,538.73C711.90,536.87 709.64,541.94 707.39,548.92C707.10,549.82 706.59,549.99 705.98,549.38C705.37,548.77 706.06,545.90 707.90,541.46C711.55,532.66 712.35,529.99 711.32,530.04C710.87,530.07 709.18,532.75 707.56,536.02C705.94,539.28 704.43,541.76 704.20,541.54C703.98,541.31 705.58,536.49 707.76,530.82C709.94,525.14 712.02,519.66 712.37,518.64C712.87,517.23 713.62,516.94 715.59,517.43C717.73,517.97 718.08,517.78 717.65,516.29C717.38,515.31 716.85,513.04 716.50,511.25C716.14,509.46 715.52,508.00 715.12,508.00C714.72,508.00 712.03,513.51 709.15,520.25C703.54,533.36 701.09,538.21 701.04,536.33C700.99,534.91 705.93,522.11 710.15,512.71C712.07,508.43 712.97,505.10 712.59,503.71C711.79,500.78 708.29,496.70 707.17,497.39C706.69,497.69 704.86,501.67 703.11,506.22C699.80,514.85 696.11,522.26 696.04,520.45C696.02,519.87 697.86,514.47 700.14,508.45C702.41,502.43 704.28,496.26 704.28,494.75C704.28,493.24 704.58,492.00 704.93,492.00C706.23,492.00 715.84,502.61 717.45,505.82C718.37,507.64 719.78,512.57 720.58,516.75C721.38,520.94 722.25,524.59 722.52,524.85C722.78,525.12 723.00,522.90 723.00,519.92C723.00,513.75 720.67,501.37 718.43,495.63C716.44,490.53 717.41,489.65 719.50,494.64C721.20,498.68 723.42,509.48 724.56,519.26C725.19,524.66 726.28,527.03 727.31,525.27C728.35,523.49 725.89,502.62 723.97,496.91C722.82,493.50 720.00,488.03 717.69,484.73C715.39,481.44 712.47,477.21 711.21,475.34C708.56,471.39 707.00,471.76 707.00,476.34C707.00,478.11 706.35,480.48 705.55,481.62C704.21,483.54 704.43,484.00 708.63,488.09C713.24,492.58 718.67,500.66 717.72,501.62C717.43,501.90 715.85,500.20 714.22,497.82C708.10,488.93 696.91,480.58 690.07,479.78C688.02,479.54 687.51,480.06 686.84,483.00C685.84,487.38 680.00,527.37 680.00,529.84C680.00,531.10 682.32,532.84 687.56,535.50C695.86,539.71 701.49,545.25 705.85,553.50C708.31,558.15 708.50,559.39 708.50,571.18C708.50,580.08 708.80,583.36 709.50,582.18C710.05,581.26 710.56,574.80 710.64,567.83ZM298.15,581.75C292.48,581.09 289.12,581.11 287.65,581.82C286.02,582.61 288.05,582.85 296.00,582.79L306.50,582.72L298.15,581.75ZM338.73,581.17C330.26,578.90 324.42,574.85 320.52,568.55C317.74,564.04 317.50,562.95 317.50,554.51C317.50,546.22 317.76,544.97 320.23,541.24C325.69,532.98 337.88,528.97 357.34,529.03C375.39,529.10 387.13,532.25 393.19,538.66C396.95,542.64 398.16,546.44 398.17,554.31C398.18,566.57 391.89,575.54 380.00,580.19C372.14,583.26 348.60,583.82 338.73,581.17ZM444.50,582.00C444.13,581.40 438.76,581.07 431.19,581.16C421.46,581.29 419.78,581.48 424.00,582.00C433.10,583.11 445.19,583.11 444.50,582.00ZM303.00,579.14C303.00,578.32 289.90,576.80 289.15,577.52C288.96,577.71 289.10,578.35 289.46,578.93C290.24,580.20 303.00,580.39 303.00,579.14ZM763.00,575.94C756.28,570.00 733.13,551.56 731.84,551.12C729.47,550.31 732.39,553.15 741.71,560.68C747.03,564.98 754.56,571.08 758.44,574.22C766.44,580.71 769.85,581.99 763.00,575.94ZM442.36,577.50C441.89,576.26 440.30,576.11 433.14,576.63C420.83,577.52 420.59,579.00 432.77,579.00C441.39,579.00 442.85,578.77 442.36,577.50ZM403.50,577.00C403.84,576.45 403.67,576.00 403.12,576.00C402.57,576.00 401.84,576.45 401.50,577.00C401.16,577.55 401.33,578.00 401.88,578.00C402.43,578.00 403.16,577.55 403.50,577.00ZM553.08,566.43C568.89,553.75 571.98,551.00 570.39,551.00C568.44,551.00 535.71,577.89 537.58,577.96C538.17,577.98 545.15,572.79 553.08,566.43ZM657.73,577.40C657.40,577.06 656.53,577.03 655.81,577.32C655.01,577.64 655.25,577.87 656.42,577.92C657.47,577.96 658.06,577.73 657.73,577.40ZM410.16,571.25C415.61,565.41 418.60,559.38 420.51,550.38C422.24,542.22 422.45,534.00 420.93,534.00C419.54,534.00 417.00,536.54 417.00,537.93C417.00,538.52 416.49,539.00 415.86,539.00C415.07,539.00 414.90,537.27 415.29,533.43C415.79,528.67 415.66,528.04 414.43,529.05C412.55,530.62 412.62,530.06 414.98,524.86C416.07,522.46 416.97,519.40 416.98,518.05C416.99,516.16 416.38,516.81 414.28,520.88C412.78,523.79 411.41,525.72 411.22,525.17C411.04,524.62 412.50,520.96 414.48,517.04C416.45,513.12 417.81,509.50 417.49,508.99C416.66,507.64 419.69,502.24 421.94,501.03C423.00,500.46 424.81,500.00 425.96,500.00C427.98,500.00 427.99,499.89 426.45,496.91C425.57,495.21 425.07,493.59 425.35,493.32C426.32,492.34 429.19,498.01 429.72,501.96C430.02,504.18 430.65,506.00 431.13,506.00C433.69,506.00 430.07,494.43 425.55,488.17L421.70,482.84L415.60,494.91C412.24,501.55 409.37,506.61 409.22,506.15C408.71,504.63 418.72,483.58 420.46,482.53C423.93,480.43 433.56,494.28 434.74,503.08C435.08,505.62 435.63,506.77 436.23,506.17C437.35,505.05 434.65,493.64 432.46,490.30C430.53,487.36 430.61,486.43 432.64,488.11C435.12,490.17 438.00,497.68 438.00,502.08C438.00,504.24 438.39,506.00 438.86,506.00C439.34,506.00 439.58,504.99 439.41,503.75C438.50,497.31 438.30,487.86 439.09,489.11C439.57,489.87 440.00,492.30 440.04,494.50C440.08,496.70 440.52,500.30 441.02,502.50C441.69,505.50 441.82,504.01 441.53,496.50C441.32,491.00 440.88,485.38 440.56,484.00C440.17,482.34 440.53,482.67 441.61,485.00C442.54,486.98 443.47,492.30 443.76,497.25C444.05,502.11 444.72,506.00 445.28,506.00C445.93,506.00 446.10,502.49 445.75,496.25C445.13,485.04 442.88,478.92 436.11,470.00C433.82,466.98 431.17,462.82 430.22,460.78C429.27,458.73 428.16,457.04 427.75,457.03C426.07,456.97 427.20,460.53 430.65,466.11C432.66,469.37 434.05,472.28 433.75,472.58C433.44,472.89 431.40,470.14 429.21,466.48C426.99,462.77 424.93,460.31 424.55,460.91C424.18,461.51 424.20,462.52 424.60,463.15C425.03,463.86 424.87,464.04 424.18,463.61C423.51,463.19 422.81,463.90 422.44,465.39C422.06,466.89 421.30,467.67 420.50,467.36C419.75,467.07 418.89,467.77 418.51,468.97C417.98,470.65 419.18,472.51 424.42,478.06C428.04,481.90 431.00,485.54 431.00,486.15C431.00,486.76 427.66,484.09 423.59,480.21C416.18,473.18 408.36,468.66 404.54,469.21C403.03,469.43 401.34,472.15 397.86,480.00C393.46,489.91 386.00,510.11 386.00,512.11C386.00,512.61 388.36,514.16 391.25,515.54C403.52,521.42 412.19,530.88 413.62,539.96C414.19,543.57 414.49,544.05 415.17,542.46C415.66,541.31 415.76,543.39 415.41,547.50C414.60,556.84 415.85,555.23 417.47,544.83L418.77,536.50L418.89,542.36C419.01,548.56 416.85,558.45 414.31,563.36C413.47,564.99 410.75,568.49 408.26,571.16C405.76,573.82 404.18,576.00 404.73,576.00C405.28,576.00 407.72,573.86 410.16,571.25ZM726.59,562.87C728.10,555.65 727.70,550.28 725.96,554.50C725.51,555.60 725.08,558.30 725.00,560.50C724.92,562.70 724.46,565.40 723.98,566.50C723.43,567.74 723.32,565.34 723.69,560.25C724.12,554.38 723.96,552.00 723.14,552.00C722.37,552.00 722.00,554.98 721.99,561.25C721.98,566.34 721.69,571.62 721.34,573.00L720.71,575.50L722.90,572.78C724.12,571.27 725.76,566.89 726.59,562.87ZM576.62,563.00C576.56,556.95 576.09,552.14 575.60,552.30C575.10,552.47 574.76,556.40 574.85,561.05C574.99,568.59 574.86,569.25 573.66,567.14C572.92,565.85 572.41,562.70 572.52,560.14C572.71,555.99 572.68,555.92 572.25,559.50L571.77,563.50L570.46,560.00C569.31,556.93 569.15,556.80 569.10,559.00C569.02,562.71 574.61,574.00 576.53,574.00C576.65,574.00 576.69,569.05 576.62,563.00ZM302.00,570.11C302.00,569.05 298.07,568.43 279.00,566.51C265.35,565.13 248.12,564.59 250.65,565.63C251.92,566.15 293.63,570.71 298.75,570.89C300.54,570.95 302.00,570.60 302.00,570.11ZM553.15,558.88C558.07,554.96 561.85,551.52 561.57,551.23C560.98,550.64 561.17,550.50 550.59,558.95L542.69,565.27L543.29,558.78C544.05,550.66 542.79,548.61 535.78,546.53C529.86,544.77 528.67,544.65 529.43,545.89C529.73,546.37 531.61,547.08 533.60,547.45C535.59,547.83 538.30,549.21 539.61,550.52C541.64,552.55 542.00,553.89 542.00,559.45C542.00,563.59 542.41,566.00 543.11,566.00C543.72,566.00 548.24,562.79 553.15,558.88ZM761.40,550.17C762.18,549.39 765.22,547.92 768.16,546.91C774.02,544.89 771.38,544.21 764.78,546.04C759.28,547.57 757.98,550.11 758.13,558.97L758.26,566.50L759.12,559.04C759.60,554.94 760.62,550.95 761.40,550.17ZM288.75,562.26C285.59,562.06 280.41,562.06 277.25,562.26C274.09,562.46 276.68,562.62 283.00,562.62C289.32,562.62 291.91,562.46 288.75,562.26ZM753.00,561.50C752.32,560.67 751.31,560.00 750.76,560.00C750.20,560.00 750.31,560.66 751.00,561.50C751.68,562.33 752.69,563.00 753.24,563.00C753.80,563.00 753.69,562.34 753.00,561.50ZM495.46,507.58C497.02,492.14 496.81,489.26 494.27,490.83C492.70,491.80 490.98,520.55 491.15,543.00L491.28,559.50L492.56,541.50C493.27,531.60 494.57,516.34 495.46,507.58ZM276.00,556.90C281.54,556.30 287.29,555.44 288.79,554.99C291.40,554.20 291.37,554.17 287.96,554.09C284.42,554.00 261.39,556.73 259.50,557.46C257.42,558.26 266.30,557.96 276.00,556.90ZM489.53,508.17C490.44,499.19 490.93,491.60 490.63,491.30C490.33,491.00 489.46,490.99 488.69,491.29C486.72,492.04 486.14,499.40 485.58,531.06L485.10,558.50L486.49,541.50C487.26,532.15 488.62,517.15 489.53,508.17ZM502.03,510.57C503.61,495.55 503.76,491.47 502.77,490.86C502.08,490.43 501.20,490.40 500.82,490.79C499.13,492.50 498.01,510.34 498.15,533.47L498.29,558.50L499.16,544.00C499.64,536.02 500.93,520.98 502.03,510.57ZM747.50,557.00C747.16,556.45 746.43,556.00 745.88,556.00C745.33,556.00 745.16,556.45 745.50,557.00C745.84,557.55 746.57,558.00 747.12,558.00C747.67,558.00 747.84,557.55 747.50,557.00ZM508.57,509.00C509.46,500.48 510.26,493.08 510.34,492.56C510.43,492.04 509.77,491.46 508.88,491.26C506.16,490.66 504.98,503.32 505.15,531.29L505.30,556.50L506.12,540.50C506.58,531.70 507.68,517.52 508.57,509.00ZM483.10,516.76C484.33,503.15 485.06,491.73 484.72,491.38C484.37,491.04 483.44,491.00 482.64,491.31C480.94,491.96 480.28,501.43 479.65,534.00C479.20,557.62 479.53,555.98 483.10,516.76ZM743.00,553.50C742.32,552.67 741.31,552.00 740.76,552.00C740.20,552.00 740.31,552.66 741.00,553.50C741.68,554.33 742.69,555.00 743.24,555.00C743.80,555.00 743.69,554.34 743.00,553.50ZM477.46,505.32C478.36,498.41 478.91,492.57 478.69,492.35C478.47,492.13 477.81,492.53 477.24,493.23C475.55,495.29 474.13,510.99 473.61,533.50L473.13,554.50L474.49,536.19C475.23,526.12 476.57,512.23 477.46,505.32ZM801.62,532.25C801.24,520.29 800.28,506.23 799.48,501.00C798.69,495.77 798.03,491.16 798.02,490.75C798.01,490.34 797.05,490.00 795.89,490.00C794.10,490.00 793.89,490.41 794.46,492.70C795.86,498.29 799.89,530.97 800.57,542.25C800.96,548.71 801.51,554.00 801.79,554.00C802.08,554.00 802.00,544.21 801.62,532.25ZM514.48,514.82C516.37,494.06 516.38,492.00 514.61,492.00C513.84,492.00 512.87,492.79 512.44,493.75C512.02,494.71 511.56,508.55 511.42,524.50C511.22,547.66 511.35,551.28 512.06,542.50C512.56,536.45 513.65,524.00 514.48,514.82ZM812.66,531.23C812.06,511.20 810.83,496.19 809.43,491.78C809.12,490.80 808.16,490.00 807.30,490.00C806.03,490.00 805.87,490.77 806.43,494.25C808.47,506.88 810.97,529.17 811.59,540.31C811.97,547.29 812.52,553.00 812.81,553.00C813.09,553.00 813.02,543.20 812.66,531.23ZM739.00,550.50C738.32,549.67 737.31,549.00 736.76,549.00C736.20,549.00 736.31,549.66 737.00,550.50C737.68,551.33 738.69,552.00 739.24,552.00C739.80,552.00 739.69,551.34 739.00,550.50ZM818.71,528.75C818.38,515.96 817.59,502.57 816.95,499.00C815.84,492.85 813.79,488.88 812.43,490.23C812.09,490.57 812.99,499.55 814.42,510.17C815.85,520.80 817.31,534.56 817.66,540.75C818.75,559.82 819.33,553.21 818.71,528.75ZM295.56,546.25C293.80,529.83 293.74,529.51 292.97,531.50C292.09,533.79 292.62,540.54 294.19,546.75C295.60,552.36 296.19,552.14 295.56,546.25ZM429.46,547.87C430.67,540.06 430.89,534.31 430.02,533.00C429.29,531.89 429.02,532.68 429.01,536.00C428.99,538.48 428.70,542.98 428.35,546.00C427.75,551.25 428.69,552.83 429.46,547.87ZM565.00,549.50C565.69,548.66 565.80,548.00 565.24,548.00C564.69,548.00 563.68,548.67 563.00,549.50C562.31,550.34 562.20,551.00 562.76,551.00C563.31,551.00 564.32,550.33 565.00,549.50ZM277.26,536.19C281.52,532.61 284.78,529.44 284.49,529.16C283.85,528.52 279.85,531.42 269.25,540.24C264.71,544.01 260.98,546.96 260.96,546.80C260.93,546.63 260.67,542.67 260.37,538.00C260.07,533.33 259.31,528.96 258.66,528.30C258.02,527.63 255.47,526.85 253.00,526.55C248.61,526.02 248.58,526.04 252.00,527.06C257.92,528.82 259.00,531.00 259.00,541.20L259.00,550.19L264.25,546.44C267.14,544.39 272.99,539.77 277.26,536.19ZM794.69,525.00C794.41,514.27 793.64,502.24 792.97,498.25C791.94,492.07 791.46,491.00 789.75,491.00C788.02,491.00 787.84,491.44 788.41,494.25C790.02,502.14 792.99,526.80 793.70,538.12C794.77,555.37 795.30,548.32 794.69,525.00ZM806.01,505.00C804.20,490.77 803.98,490.00 801.81,490.00C800.19,490.00 799.94,490.49 800.40,492.75C802.52,503.12 805.83,531.97 806.22,543.50C806.35,547.35 806.59,542.17 806.77,532.00C806.94,521.83 806.60,509.68 806.01,505.00ZM824.61,526.25C823.82,500.08 823.10,493.67 820.67,491.24C818.14,488.71 817.70,490.31 818.92,497.69C821.49,513.37 823.04,526.52 823.66,537.90C824.76,558.50 825.36,551.23 824.61,526.25ZM789.73,528.75C789.18,509.38 787.62,494.50 785.93,492.62C785.49,492.13 784.43,492.00 783.58,492.33C782.40,492.78 782.24,493.50 782.91,495.26C783.93,497.94 787.59,527.22 788.54,540.25C789.67,555.78 790.31,549.56 789.73,528.75ZM434.32,544.27C433.86,544.12 433.58,541.86 433.69,539.25L433.90,534.50L432.98,539.00C432.47,541.48 431.78,544.61 431.45,545.97C430.85,548.45 430.85,548.45 433.00,546.50C434.19,545.43 434.78,544.43 434.32,544.27ZM305.16,541.35C305.35,538.23 304.93,534.36 304.23,532.70C302.49,528.55 301.52,530.03 303.02,534.56C303.71,536.65 303.98,540.15 303.64,542.62C303.31,545.03 303.44,547.00 303.93,547.00C304.42,547.00 304.97,544.46 305.16,541.35ZM449.50,543.00C448.50,541.90 447.24,541.00 446.69,541.00C446.14,541.00 446.50,541.90 447.50,543.00C448.50,544.10 449.76,545.00 450.31,545.00C450.86,545.00 450.50,544.10 449.50,543.00ZM438.00,539.94C438.00,538.94 437.55,537.84 437.00,537.50C436.45,537.16 435.99,537.47 435.99,538.19C435.98,538.91 435.68,540.62 435.31,542.00C434.72,544.24 434.82,544.36 436.33,543.13C437.25,542.37 438.00,540.94 438.00,539.94ZM588.00,542.09C588.00,541.14 583.85,540.38 560.34,537.02C544.05,534.69 525.30,533.41 531.00,535.02C536.02,536.44 578.69,542.83 583.75,542.92C586.09,542.97 588.00,542.59 588.00,542.09ZM266.95,537.55C267.66,536.70 267.85,536.01 267.37,536.03C266.29,536.07 262.00,539.60 262.00,540.45C262.00,541.37 265.47,539.35 266.95,537.55ZM443.00,537.50C441.13,535.58 439.16,534.00 438.61,534.00C438.06,534.00 439.13,535.58 441.00,537.50C442.87,539.42 444.84,541.00 445.39,541.00C445.94,541.00 444.87,539.42 443.00,537.50ZM594.57,526.07C589.15,515.60 586.30,511.06 585.36,511.42C583.73,512.04 583.71,511.89 585.04,508.39L586.08,505.65L587.94,509.08C593.22,518.85 603.00,539.49 602.73,540.31C602.56,540.82 598.89,534.42 594.57,526.07ZM220.99,495.19C222.14,487.11 223.35,479.22 223.68,477.65C224.18,475.24 223.98,474.86 222.39,475.16C219.56,475.70 218.24,487.08 217.64,516.00C217.20,537.30 217.25,538.50 218.01,525.19C218.50,516.77 219.83,503.27 220.99,495.19ZM648.33,537.42C647.39,534.97 650.66,532.75 653.20,534.11C655.93,535.57 655.04,538.44 651.74,538.82C649.86,539.03 648.78,538.59 648.33,537.42ZM274.00,531.96C276.48,529.79 278.00,528.00 277.38,528.00C276.76,528.00 274.29,529.78 271.88,531.96C269.47,534.14 267.95,535.92 268.50,535.92C269.05,535.92 271.52,534.14 274.00,531.96ZM400.67,535.33C400.30,534.97 400.00,534.20 400.00,533.63C400.00,533.01 400.47,533.07 401.18,533.78C401.83,534.43 402.13,535.20 401.85,535.48C401.57,535.77 401.03,535.70 400.67,535.33ZM229.94,519.50C230.03,514.14 232.68,491.51 234.55,480.25C235.18,476.44 235.05,476.00 233.27,476.00C231.53,476.00 231.15,477.07 230.17,484.75C228.82,495.24 227.76,536.67 229.01,530.00C229.47,527.52 229.89,522.80 229.94,519.50ZM309.97,528.90C313.72,523.11 323.27,515.60 329.09,513.85C331.24,513.21 333.00,512.19 333.00,511.59C333.00,507.71 327.02,470.62 326.28,469.88C325.10,468.70 314.01,475.82 309.33,480.78C305.66,484.65 300.00,492.80 300.00,494.20C300.00,494.64 300.60,495.00 301.33,495.00C303.13,495.00 304.37,497.80 307.54,509.00C311.36,522.55 311.41,523.28 307.97,516.03C306.28,512.48 304.70,509.36 304.45,509.12C303.04,507.71 303.40,510.53 305.61,518.39C308.44,528.43 308.20,530.75 305.15,522.82C303.72,519.09 303.09,518.23 303.05,519.93C303.01,522.04 305.91,534.00 306.46,534.00C306.57,534.00 308.15,531.70 309.97,528.90ZM596.68,518.93C592.38,510.70 589.03,503.18 589.23,502.23C589.43,501.25 592.97,507.26 597.41,516.17C601.71,524.78 605.06,532.30 604.86,532.86C604.66,533.43 600.98,527.16 596.68,518.93ZM208.01,511.50C208.56,504.35 209.90,493.35 210.99,487.06C212.07,480.77 212.76,475.42 212.52,475.19C211.18,473.84 209.17,476.41 208.62,480.17C207.19,489.95 206.04,509.27 206.19,521.00C206.28,527.88 206.49,531.48 206.67,529.00C206.85,526.52 207.45,518.65 208.01,511.50ZM576.97,532.04C577.78,531.53 578.23,530.94 577.97,530.73C577.71,530.52 570.08,529.81 561.00,529.16C530.32,526.95 525.60,528.03 553.14,530.95C574.08,533.17 575.10,533.22 576.97,532.04ZM751.43,530.41C763.53,529.07 765.94,528.57 764.92,527.61C764.18,526.93 721.00,530.39 721.00,531.14C721.00,533.10 728.65,532.91 751.43,530.41ZM442.00,530.00C442.00,528.62 441.33,528.00 439.85,528.00C437.75,528.00 437.74,528.06 439.50,530.00C440.50,531.10 441.47,532.00 441.65,532.00C441.84,532.00 442.00,531.10 442.00,530.00ZM215.39,496.00C216.23,489.68 217.23,482.36 217.60,479.75C218.16,475.76 218.01,475.00 216.65,475.00C215.77,475.00 214.80,476.01 214.52,477.25C213.22,482.88 212.01,502.84 212.15,516.50L212.29,531.50L213.07,519.50C213.50,512.90 214.54,502.32 215.39,496.00ZM698.53,528.50C699.64,523.07 709.44,499.46 709.81,501.32C710.18,503.18 705.81,514.88 700.76,525.50C699.01,529.19 698.15,530.34 698.53,528.50ZM226.98,492.97C229.38,475.73 229.40,475.00 227.62,475.00C225.50,475.00 224.04,487.49 223.55,509.85C223.17,527.06 223.23,528.13 224.04,518.50C224.54,512.45 225.87,500.96 226.98,492.97ZM652.25,527.71C657.06,527.74 664.31,528.08 668.36,528.46L675.73,529.15L676.45,520.82C676.84,516.25 678.23,506.00 679.53,498.07C680.83,490.13 681.68,483.29 681.43,482.88C681.17,482.47 681.42,481.86 681.98,481.51C682.54,481.16 683.00,480.03 683.00,478.98C683.00,477.60 681.87,476.77 678.88,475.97C671.65,474.02 659.95,472.00 655.91,472.00L652.00,472.00L652.00,492.67C652.00,504.03 651.81,513.14 651.58,512.91C651.34,512.68 650.69,505.95 650.13,497.97C649.47,488.57 648.57,482.40 647.56,480.47C646.71,478.84 646.01,476.21 646.01,474.63L646.00,471.77L639.25,472.45C635.54,472.83 628.54,474.05 623.70,475.16C616.66,476.79 614.95,477.52 615.20,478.85C615.41,479.92 616.92,480.71 619.51,481.11C621.70,481.44 622.60,481.79 621.50,481.87C616.94,482.23 616.86,483.07 620.36,495.05C622.20,501.35 624.78,511.59 626.10,517.81L628.50,529.12L636.00,528.38C640.12,527.98 647.44,527.67 652.25,527.71ZM205.06,490.21C206.27,482.35 206.97,475.63 206.61,475.28C203.94,472.61 201.97,485.84 201.51,509.50C201.17,526.93 201.21,527.51 202.01,516.50C202.48,509.90 203.86,498.07 205.06,490.21ZM199.06,499.50C200.16,490.70 201.33,481.81 201.66,479.75C202.03,477.42 201.86,476.00 201.21,476.00C199.14,476.00 197.25,490.59 196.69,511.00C196.45,519.52 196.44,524.02 196.66,521.00C196.88,517.98 197.96,508.30 199.06,499.50ZM297.76,521.75C297.34,520.49 260.37,515.19 251.08,515.06C244.28,514.97 246.74,515.92 257.62,517.58C263.05,518.40 272.68,519.92 279.00,520.94C293.22,523.24 298.32,523.46 297.76,521.75ZM356.17,518.83C356.39,517.28 357.17,516.50 358.50,516.50C361.48,516.50 361.18,520.40 358.17,520.83C356.23,521.10 355.90,520.77 356.17,518.83ZM519.39,502.84C519.79,497.90 519.70,493.93 519.18,493.61C518.14,492.97 516.96,502.69 517.09,510.90C517.20,518.61 518.47,514.17 519.39,502.84ZM292.43,510.97C293.06,510.34 287.73,510.00 277.45,510.01C259.48,510.03 252.32,511.09 263.00,512.14C271.52,512.99 291.20,512.20 292.43,510.97ZM308.13,500.92C305.89,494.21 304.29,488.33 304.59,487.86C305.61,486.20 306.78,487.03 307.26,489.75C307.53,491.26 308.96,496.93 310.45,502.34C311.94,507.75 312.94,512.39 312.68,512.65C312.43,512.91 310.38,507.63 308.13,500.92ZM412.07,512.50C412.07,510.73 414.93,506.36 414.96,508.06C414.98,508.92 414.34,510.49 413.53,511.56C412.72,512.63 412.07,513.05 412.07,512.50ZM431.64,512.31C430.51,511.17 426.82,510.90 427.50,512.00C427.84,512.55 429.07,513.00 430.23,513.00C431.38,513.00 432.02,512.69 431.64,512.31ZM383.50,505.00C386.15,496.49 393.92,477.00 396.62,472.08C397.96,469.64 398.70,467.31 398.28,466.90C396.98,465.64 381.22,461.95 374.48,461.32L368.16,460.73L367.43,465.61C367.01,468.46 365.98,471.01 364.96,471.73C363.64,472.66 363.04,475.08 362.51,481.73C361.05,499.71 360.07,498.72 360.44,479.65L360.80,460.79L355.35,461.48C350.05,462.14 339.02,464.90 333.88,466.85L331.36,467.82L334.14,488.16C335.67,499.35 336.94,508.95 336.96,509.50C336.99,510.14 345.16,510.50 359.40,510.50L381.79,510.51L383.50,505.00ZM316.08,507.42C316.13,506.25 316.36,506.01 316.68,506.81C316.97,507.53 316.94,508.40 316.60,508.73C316.27,509.06 316.04,508.47 316.08,507.42ZM415.08,505.42C415.13,504.25 415.36,504.01 415.68,504.81C415.97,505.53 415.94,506.40 415.60,506.73C415.27,507.06 415.04,506.47 415.08,505.42ZM312.27,495.31C309.45,485.44 309.10,482.00 310.92,482.00C311.76,482.00 316.51,504.82 315.81,505.52C315.54,505.79 313.95,501.20 312.27,495.31ZM826.69,502.27C826.44,501.30 826.22,501.85 826.19,503.50C826.17,505.15 826.38,505.95 826.66,505.27C826.93,504.59 826.95,503.24 826.69,502.27ZM297.00,496.50C303.76,476.86 326.93,461.68 353.70,459.34C360.78,458.73 360.91,458.66 361.53,455.61C362.64,450.05 363.11,449.00 364.50,449.00C365.88,449.00 366.36,450.06 367.45,455.50C368.01,458.27 368.41,458.52 372.78,458.77C385.26,459.49 401.75,463.55 410.36,468.01C413.53,469.66 416.27,471.00 416.45,471.00C416.63,471.00 417.09,469.76 417.47,468.25C417.85,466.74 419.75,462.89 421.69,459.69C423.63,456.50 424.99,453.66 424.71,453.38C424.43,453.10 422.25,456.05 419.85,459.93C415.35,467.23 413.50,468.83 414.59,464.49C415.18,462.14 414.67,461.72 406.86,458.18C402.26,456.10 397.38,453.84 396.00,453.17C393.62,452.01 393.67,451.98 397.00,452.48C398.93,452.76 403.88,454.69 408.00,456.75C412.12,458.81 415.78,460.63 416.13,460.79C416.48,460.95 418.21,458.51 419.99,455.36C423.09,449.87 423.16,449.53 421.61,446.92C420.72,445.42 420.00,443.23 420.00,442.06C420.00,434.76 410.92,426.98 402.50,427.05L398.50,427.09L402.41,429.29C412.58,435.04 415.28,439.22 416.26,450.75C416.79,457.02 416.33,457.16 407.50,453.40C394.21,447.74 386.08,445.18 377.70,444.01C363.19,441.98 352.62,443.91 333.15,452.17C328.00,454.35 323.62,455.95 323.40,455.73C323.18,455.51 323.90,451.79 325.01,447.46C327.36,438.26 329.83,435.17 338.18,430.93C345.11,427.41 346.71,425.48 341.88,426.48C336.66,427.56 327.79,431.83 324.78,434.72C323.28,436.15 321.30,439.61 320.37,442.41C319.45,445.21 318.06,448.48 317.28,449.68C316.04,451.59 316.07,452.18 317.52,454.39C318.43,455.78 318.88,457.38 318.53,457.96C318.17,458.53 318.36,459.00 318.94,459.00C320.45,459.00 320.25,463.27 318.64,465.47C317.39,467.19 317.23,467.04 316.59,463.60C315.70,458.87 313.01,459.04 311.74,463.91C310.76,467.69 303.14,479.48 302.25,478.59C301.94,478.28 303.11,475.74 304.84,472.94C308.50,467.06 308.79,465.98 306.01,468.49C299.78,474.13 294.69,486.38 293.56,498.50C292.81,506.42 293.78,505.85 297.00,496.50ZM781.98,500.75C781.97,496.61 780.66,493.01 779.56,494.10C779.06,494.61 781.13,505.00 781.74,505.00C781.88,505.00 781.99,503.09 781.98,500.75ZM238.43,481.86C238.87,479.71 238.78,477.98 238.20,477.62C236.75,476.73 236.15,480.19 235.60,492.50L235.11,503.50L236.39,494.50C237.10,489.55 238.02,483.86 238.43,481.86ZM417.03,500.75C417.07,498.63 423.77,488.83 424.44,489.91C424.98,490.77 418.40,502.00 417.36,502.00C417.16,502.00 417.01,501.44 417.03,500.75ZM825.69,497.27C825.44,496.30 825.22,496.85 825.19,498.50C825.17,500.15 825.38,500.95 825.66,500.27C825.93,499.59 825.95,498.24 825.69,497.27ZM319.08,498.42C319.13,497.25 319.36,497.01 319.68,497.81C319.97,498.53 319.94,499.40 319.60,499.73C319.27,500.06 319.04,499.47 319.08,498.42ZM543.49,477.75C544.08,468.34 543.98,466.71 542.86,467.79C541.86,468.75 541.46,473.07 541.32,484.29C541.11,501.15 542.23,497.79 543.49,477.75ZM538.64,467.30C537.16,465.82 536.76,468.70 536.44,483.19L536.11,498.50L537.69,483.22C538.56,474.82 538.99,467.65 538.64,467.30ZM407.01,496.27C406.99,494.07 414.84,478.00 415.94,478.00C416.52,478.00 416.98,478.34 416.96,478.75C416.89,480.14 407.03,497.51 407.01,496.27ZM548.51,477.00C549.10,468.40 549.00,466.72 547.94,467.73C547.02,468.60 546.56,473.10 546.38,483.23C546.10,498.94 547.20,495.72 548.51,477.00ZM553.37,477.25C553.71,472.16 553.59,468.00 553.11,468.00C551.64,468.00 551.00,473.78 551.12,485.88C551.22,495.67 551.36,496.63 552.00,492.00C552.42,488.98 553.04,482.34 553.37,477.25ZM743.82,481.29C743.54,472.80 743.00,468.62 742.08,467.75C740.97,466.71 740.85,467.44 741.37,472.00C741.71,475.02 742.31,482.00 742.70,487.50C743.63,500.72 744.33,496.80 743.82,481.29ZM758.04,473.27C757.47,470.19 756.78,467.45 756.50,467.17C755.28,465.95 755.06,468.04 755.92,472.59C756.43,475.29 757.22,482.00 757.67,487.50L758.50,497.50L758.79,488.18C758.95,483.06 758.61,476.35 758.04,473.27ZM318.19,493.50C318.22,491.85 318.44,491.30 318.69,492.27C318.95,493.24 318.93,494.59 318.66,495.27C318.38,495.95 318.17,495.15 318.19,493.50ZM753.04,473.28C752.47,470.20 751.78,467.45 751.50,467.17C750.23,465.89 750.24,468.22 751.56,477.01C752.34,482.23 753.08,488.75 753.20,491.50C753.32,494.25 753.56,492.54 753.75,487.69C753.93,482.85 753.61,476.36 753.04,473.28ZM699.06,493.50C699.03,491.11 700.63,488.30 701.52,489.19C701.87,489.54 701.46,491.10 700.62,492.66C699.35,495.00 699.08,495.15 699.06,493.50ZM748.75,482.75C748.26,471.02 747.58,467.00 746.11,467.00C745.74,467.00 745.98,471.16 746.65,476.25C747.32,481.34 747.90,487.64 747.93,490.25C747.97,492.86 748.29,495.00 748.64,495.00C748.98,495.00 749.04,489.49 748.75,482.75ZM578.00,492.69C578.00,491.83 578.48,490.82 579.07,490.46C579.66,490.09 580.53,488.83 581.01,487.65C581.75,485.80 581.88,485.76 581.94,487.34C581.97,488.36 581.10,490.33 580.00,491.73C578.59,493.52 578.00,493.81 578.00,492.69ZM557.98,479.69C557.99,472.74 557.64,469.10 557.00,469.50C556.42,469.86 556.01,475.08 556.02,481.81C556.03,489.73 556.34,493.02 557.00,492.00C557.53,491.18 557.98,485.64 557.98,479.69ZM734.67,481.95C734.33,475.87 733.56,470.13 732.97,469.20C732.16,467.92 732.03,468.85 732.43,473.00C732.72,476.02 733.25,481.76 733.61,485.75C734.62,497.00 735.38,494.29 734.67,481.95ZM763.08,476.24C762.10,468.21 761.53,466.10 760.61,467.08C760.40,467.31 760.96,473.35 761.86,480.50C763.01,489.64 763.59,492.21 763.81,489.14C763.98,486.75 763.66,480.94 763.08,476.24ZM739.48,481.75C738.81,472.27 737.55,466.11 736.51,467.16C736.08,467.59 737.72,485.47 738.58,489.75C738.83,490.99 739.30,492.00 739.63,492.00C739.95,492.00 739.89,487.39 739.48,481.75ZM316.07,485.73C315.40,482.55 315.04,479.40 315.28,478.73C315.52,478.05 316.26,480.10 316.93,483.27C317.60,486.45 317.96,489.60 317.72,490.27C317.48,490.95 316.74,488.90 316.07,485.73ZM576.00,488.43C576.00,487.22 580.21,480.87 580.69,481.35C581.28,481.95 578.33,487.68 577.01,488.50C576.45,488.84 576.00,488.81 576.00,488.43ZM583.58,482.94C582.22,479.17 582.04,477.56 582.87,476.73C583.71,475.89 584.03,476.23 584.12,478.05C584.22,480.23 584.31,480.17 584.87,477.53C585.47,474.73 585.59,474.86 586.87,479.88C588.04,484.42 588.03,485.40 586.82,486.61C585.60,487.83 585.15,487.32 583.58,482.94ZM713.23,485.00C713.23,483.07 713.44,482.29 713.69,483.25C713.94,484.21 713.94,485.79 713.69,486.75C713.44,487.71 713.23,486.93 713.23,485.00ZM435.00,486.12C435.00,485.57 435.45,484.84 436.00,484.50C436.55,484.16 437.00,484.33 437.00,484.88C437.00,485.43 436.55,486.16 436.00,486.50C435.45,486.84 435.00,486.67 435.00,486.12ZM729.33,478.75C728.99,474.21 728.56,470.31 728.36,470.08C728.16,469.85 728.00,473.57 728.00,478.33C728.00,483.26 728.42,487.00 728.97,487.00C729.56,487.00 729.70,483.82 729.33,478.75ZM708.07,480.75C708.12,476.89 708.37,476.03 709.00,477.50C710.20,480.30 710.20,486.00 709.00,486.00C708.45,486.00 708.03,483.64 708.07,480.75ZM268.44,455.11C267.45,454.11 267.03,456.10 266.04,466.54C264.37,484.15 265.06,486.85 267.05,470.52C268.06,462.28 268.68,455.35 268.44,455.11ZM276.05,472.87C276.57,467.72 277.27,461.59 277.61,459.25C277.98,456.67 277.83,455.00 277.23,455.00C276.06,455.00 275.34,459.72 274.43,473.50C273.60,485.97 274.77,485.51 276.05,472.87ZM281.89,456.50C281.94,454.59 281.89,454.58 280.86,456.36C280.27,457.38 279.62,463.91 279.43,470.86L279.09,483.50L280.46,471.00C281.22,464.12 281.86,457.60 281.89,456.50ZM263.52,462.00C264.08,456.25 263.98,454.76 263.07,455.60C262.32,456.30 261.75,461.44 261.51,469.60C261.11,482.81 261.68,480.64 263.52,462.00ZM529.03,474.50C529.29,467.07 529.10,465.95 528.00,468.50C526.82,471.24 526.74,482.67 527.91,481.45C528.41,480.93 528.92,477.80 529.03,474.50ZM677.75,481.34C678.44,481.06 679.56,481.06 680.25,481.34C680.94,481.62 680.38,481.84 679.00,481.84C677.62,481.84 677.06,481.62 677.75,481.34ZM272.90,457.50C272.93,455.12 272.74,454.84 271.98,456.14C271.45,457.05 270.80,463.12 270.54,469.64L270.06,481.50L271.46,471.00C272.24,465.23 272.88,459.15 272.90,457.50ZM285.51,462.60C286.03,456.54 285.91,454.78 285.06,455.59C284.37,456.25 283.75,461.63 283.50,469.09C283.06,482.33 284.12,478.89 285.51,462.60ZM623.75,480.34C624.44,480.06 625.56,480.06 626.25,480.34C626.94,480.62 626.38,480.84 625.00,480.84C623.62,480.84 623.06,480.62 623.75,480.34ZM673.81,480.32C674.53,480.03 675.40,480.06 675.73,480.40C676.06,480.73 675.47,480.96 674.42,480.92C673.25,480.87 673.01,480.64 673.81,480.32ZM259.40,455.08C259.18,454.85 258.79,454.88 258.52,455.14C257.70,455.97 256.04,469.28 256.11,474.50C256.16,478.18 256.66,476.33 258.00,467.50C258.99,460.90 259.63,455.31 259.40,455.08ZM597.44,477.09C598.42,475.51 612.51,470.10 617.09,469.54L621.50,469.01L616.00,470.86C612.98,471.88 607.61,473.90 604.08,475.36C596.91,478.31 596.65,478.37 597.44,477.09ZM693.00,474.85C688.88,473.25 682.44,471.01 678.70,469.86C674.96,468.71 672.09,467.58 672.33,467.34C673.17,466.50 686.16,470.02 693.09,472.97L700.08,475.95L700.98,473.72C701.80,471.67 701.88,471.65 701.92,473.50C702.02,477.68 700.78,477.87 693.00,474.85ZM432.00,475.94C432.00,475.36 432.45,475.16 433.00,475.50C433.55,475.84 434.00,476.32 434.00,476.56C434.00,476.80 433.55,477.00 433.00,477.00C432.45,477.00 432.00,476.52 432.00,475.94ZM472.04,455.64C470.78,454.38 470.67,460.27 471.76,470.50L472.50,477.50L472.79,467.09C472.96,460.84 472.66,456.26 472.04,455.64ZM426.67,475.33C426.30,474.97 426.00,474.20 426.00,473.63C426.00,473.01 426.47,473.07 427.18,473.78C427.83,474.43 428.13,475.20 427.85,475.48C427.57,475.77 427.03,475.70 426.67,475.33ZM458.74,460.75C458.54,457.86 458.37,460.23 458.37,466.00C458.37,471.77 458.54,474.14 458.74,471.25C458.94,468.36 458.94,463.64 458.74,460.75ZM463.93,469.75C463.89,466.31 463.49,461.48 463.05,459.00C462.40,455.35 462.23,456.52 462.13,465.25C462.05,471.83 462.39,476.00 463.00,476.00C463.57,476.00 463.97,473.30 463.93,469.75ZM467.54,455.20C466.32,453.99 466.19,456.00 466.83,466.00L467.50,476.50L467.79,466.12C467.94,460.41 467.83,455.50 467.54,455.20ZM477.04,455.64C475.77,454.37 475.70,457.54 476.75,468.60L477.50,476.50L477.79,466.59C477.96,460.67 477.66,456.26 477.04,455.64ZM449.00,473.98C449.00,472.76 444.17,470.76 442.60,471.33C441.78,471.63 445.74,473.93 448.75,474.92C448.89,474.96 449.00,474.54 449.00,473.98ZM482.14,458.50L481.20,454.50L481.10,460.11C481.05,463.20 481.34,467.92 481.75,470.61L482.50,475.50L482.79,469.00C482.95,465.43 482.65,460.70 482.14,458.50ZM519.69,470.25C519.44,469.29 519.23,470.07 519.23,472.00C519.23,473.93 519.44,474.71 519.69,473.75C519.94,472.79 519.94,471.21 519.69,470.25ZM295.50,473.00C295.84,472.45 295.42,472.00 294.56,472.00C293.70,472.00 293.00,472.45 293.00,473.00C293.00,473.55 293.42,474.00 293.94,474.00C294.46,474.00 295.16,473.55 295.50,473.00ZM491.15,461.00L490.23,455.50L490.12,460.11C490.05,462.65 490.34,466.92 490.75,469.61L491.50,474.50L491.79,470.50C491.94,468.30 491.66,464.02 491.15,461.00ZM424.00,471.50C422.98,470.27 423.05,470.00 424.38,470.00C425.27,470.00 426.00,470.68 426.00,471.50C426.00,472.32 425.83,473.00 425.62,473.00C425.41,473.00 424.68,472.32 424.00,471.50ZM598.00,472.52C598.00,471.59 605.59,468.20 612.36,466.11C620.33,463.65 624.33,463.38 618.50,465.69C599.93,473.05 598.00,473.69 598.00,472.52ZM254.51,458.50C255.07,455.43 254.97,454.76 254.05,455.62C252.62,456.97 251.05,467.54 251.86,470.44C252.25,471.84 252.65,470.89 253.10,467.50C253.47,464.75 254.10,460.70 254.51,458.50ZM686.50,468.21C681.55,466.21 678.24,464.43 679.14,464.24C681.02,463.84 696.67,469.65 697.54,471.07C698.53,472.66 695.83,471.96 686.50,468.21ZM486.54,455.21C485.39,454.06 485.26,455.77 485.87,463.50L486.50,471.50L486.79,463.63C486.96,459.30 486.84,455.51 486.54,455.21ZM340.81,468.32C341.53,468.03 342.40,468.06 342.73,468.40C343.06,468.73 342.47,468.96 341.42,468.92C340.25,468.87 340.01,468.64 340.81,468.32ZM309.50,466.00C309.84,465.45 309.64,465.00 309.06,465.00C308.48,465.00 308.00,465.45 308.00,466.00C308.00,466.55 308.20,467.00 308.44,467.00C308.68,467.00 309.16,466.55 309.50,466.00ZM365.72,458.26C365.49,456.74 365.29,457.75 365.29,460.50C365.28,463.25 365.47,464.49 365.70,463.26C365.94,462.03 365.95,459.78 365.72,458.26ZM405.98,462.17C402.94,460.70 399.11,458.96 397.48,458.29L394.50,457.08L398.00,457.63C402.59,458.35 412.00,462.60 412.00,463.94C412.00,464.53 411.89,464.97 411.75,464.92C411.61,464.88 409.01,463.64 405.98,462.17ZM710.00,462.88C710.00,462.33 709.55,462.16 709.00,462.50C708.45,462.84 708.00,463.57 708.00,464.12C708.00,464.67 708.45,464.84 709.00,464.50C709.55,464.16 710.00,463.43 710.00,462.88ZM323.53,463.14C324.76,461.83 335.65,457.98 337.91,458.05C339.39,458.09 330.67,461.76 325.00,463.47C323.21,464.01 322.79,463.91 323.53,463.14ZM584.18,459.78C583.47,459.07 583.00,459.01 583.00,459.63C583.00,460.97 584.18,462.15 584.85,461.48C585.13,461.20 584.83,460.43 584.18,459.78ZM321.00,460.53C321.00,459.67 327.25,456.80 334.37,454.38C346.10,450.38 345.20,451.80 333.00,456.52C320.38,461.40 321.00,461.19 321.00,460.53ZM583.81,451.30C583.98,450.09 583.62,448.16 583.01,447.01C581.98,445.10 581.15,444.95 573.19,445.21C565.20,445.48 564.48,445.67 564.20,447.62C563.92,449.54 564.61,449.85 571.53,450.88C575.73,451.50 579.58,451.76 580.08,451.45C580.59,451.14 581.00,451.42 581.00,452.07C581.00,452.93 578.99,453.11 573.75,452.71C569.12,452.35 567.59,452.45 569.50,452.98C571.15,453.43 574.98,453.74 578.00,453.65C582.85,453.52 583.54,453.24 583.81,451.30ZM639.51,441.06C650.17,437.04 658.31,439.14 667.75,448.32C673.71,454.12 674.78,453.44 669.47,447.24C661.80,438.28 648.18,435.17 637.43,439.93C632.77,441.99 623.00,451.01 623.00,453.25C623.00,453.81 625.37,451.81 628.26,448.80C632.08,444.81 635.14,442.71 639.51,441.06ZM724.50,453.06C728.11,452.31 727.76,452.21 721.00,452.04C712.38,451.81 712.69,451.47 722.50,450.36L729.50,449.58L724.50,448.95L719.50,448.31L724.68,448.16C728.83,448.03 729.95,448.35 730.36,449.75C730.63,450.71 730.78,450.15 730.68,448.50L730.50,445.50L722.15,445.21C716.86,445.02 713.29,445.34 712.40,446.08C710.97,447.27 710.47,452.14 711.67,453.33C712.56,454.23 719.56,454.08 724.50,453.06ZM426.50,452.00C426.84,451.45 426.64,451.00 426.06,451.00C425.48,451.00 425.00,451.45 425.00,452.00C425.00,452.55 425.20,453.00 425.44,453.00C425.68,453.00 426.16,452.55 426.50,452.00ZM310.18,448.78C309.47,448.07 309.00,448.01 309.00,448.63C309.00,449.20 309.30,449.97 309.67,450.33C310.03,450.70 310.57,450.77 310.85,450.48C311.13,450.20 310.83,449.43 310.18,448.78ZM659.44,449.90C658.27,448.00 652.25,446.00 647.78,446.02C644.50,446.03 643.85,446.28 645.00,447.08C646.16,447.89 645.93,447.99 644.00,447.52C641.78,446.97 641.71,447.04 643.37,448.07C644.40,448.71 646.90,449.01 648.93,448.74C650.95,448.46 653.94,448.83 655.56,449.54C659.30,451.19 660.29,451.28 659.44,449.90ZM568.27,448.31C569.24,448.05 570.59,448.07 571.27,448.34C571.95,448.62 571.15,448.83 569.50,448.81C567.85,448.78 567.30,448.56 568.27,448.31ZM312.34,441.83C313.09,440.64 313.05,439.39 312.20,437.54C311.04,435.00 310.77,434.92 303.25,435.21L295.50,435.50L295.50,439.00C295.50,442.21 295.79,442.55 299.00,443.14C305.08,444.25 311.20,443.65 312.34,441.83ZM437.96,443.36C441.52,442.65 443.33,439.57 441.85,436.75C441.10,435.32 439.56,435.00 433.50,435.00C427.18,435.00 425.92,435.29 425.04,436.93C423.63,439.56 423.73,440.59 425.57,442.43C427.21,444.07 432.44,444.46 437.96,443.36ZM301.00,442.27C299.07,442.04 297.05,441.38 296.50,440.79C295.80,440.05 296.25,439.92 298.00,440.35C299.38,440.69 302.44,440.98 304.81,440.99C307.42,440.99 308.88,441.39 308.50,442.00C307.88,443.01 307.41,443.02 301.00,442.27ZM429.50,442.25C430.05,441.69 432.89,441.02 435.81,440.76C442.78,440.13 441.06,441.86 433.92,442.66C430.27,443.06 428.83,442.93 429.50,442.25ZM307.81,439.32C308.53,439.03 309.40,439.06 309.73,439.40C310.06,439.73 309.47,439.96 308.42,439.92C307.25,439.87 307.01,439.64 307.81,439.32ZM385.84,438.97C382.50,437.02 369.64,435.66 364.46,436.71C359.69,437.68 359.86,437.72 369.00,437.84C374.23,437.91 379.85,438.39 381.50,438.90C385.73,440.21 388.03,440.25 385.84,438.97ZM546.74,417.25C546.56,412.99 546.40,416.48 546.40,425.00C546.40,433.52 546.56,437.01 546.74,432.75C546.93,428.49 546.93,421.51 546.74,417.25ZM648.06,433.00C665.99,433.00 666.00,433.00 666.02,435.25C666.02,436.49 666.51,438.18 667.10,439.00C667.91,440.14 668.03,439.68 667.58,437.12C667.26,435.27 667.00,433.13 667.00,432.38C667.00,431.26 663.45,431.00 648.00,431.00L629.00,431.00L629.17,435.75C629.32,440.10 629.37,440.19 629.73,436.75L630.12,433.00L648.06,433.00ZM297.25,438.31C298.21,438.06 299.79,438.06 300.75,438.31C301.71,438.56 300.93,438.77 299.00,438.77C297.07,438.77 296.29,438.56 297.25,438.31ZM434.75,438.29C435.99,438.06 438.01,438.06 439.25,438.29C440.49,438.53 439.48,438.73 437.00,438.73C434.52,438.73 433.51,438.53 434.75,438.29ZM356.51,434.75C356.11,433.51 355.56,429.48 355.28,425.79L354.78,419.07L359.14,421.21C365.40,424.29 373.18,424.60 380.41,422.07C383.66,420.93 386.69,420.00 387.16,420.00C388.53,420.00 388.12,427.41 386.50,432.00C384.73,437.03 384.73,437.00 385.97,437.00C388.10,437.00 390.00,430.95 390.00,424.22C390.00,420.43 389.78,417.11 389.50,416.84C389.23,416.56 386.22,417.72 382.81,419.41C374.75,423.40 367.90,423.47 359.54,419.65C356.33,418.18 353.49,417.18 353.24,417.43C352.23,418.43 352.64,431.68 353.76,434.25C355.21,437.61 357.57,438.04 356.51,434.75ZM617.83,423.49C623.67,407.05 627.96,397.20 630.69,393.95C633.95,390.08 639.62,388.68 649.90,389.22C657.99,389.64 658.41,389.78 661.52,393.17C664.71,396.65 672.81,415.74 676.39,428.20C677.92,433.54 679.46,435.88 680.65,434.69C681.28,434.06 675.16,416.85 669.73,404.00C663.47,389.19 659.56,385.98 647.62,385.84C632.91,385.67 628.94,389.09 621.18,408.65C614.98,424.27 612.00,432.77 612.00,434.86C612.00,438.13 614.04,434.15 617.83,423.49ZM365.00,429.21C365.00,428.77 363.20,427.93 361.00,427.35C358.80,426.76 357.00,426.66 357.00,427.12C357.00,427.58 358.24,428.23 359.75,428.57C361.26,428.90 362.95,429.33 363.50,429.51C364.05,429.69 364.61,429.88 364.75,429.92C364.89,429.96 365.00,429.64 365.00,429.21ZM383.56,428.42C385.34,426.97 385.34,426.89 383.67,427.42C382.66,427.74 381.42,428.00 380.92,428.00C380.41,428.00 380.00,428.45 380.00,429.00C380.00,430.45 381.34,430.23 383.56,428.42ZM607.77,427.19C608.07,426.29 601.95,426.00 582.83,426.01C546.98,426.03 543.35,427.39 577.50,428.01C610.11,428.61 607.27,428.69 607.77,427.19ZM636.23,420.26C638.99,417.32 640.96,417.31 638.36,420.25C637.26,421.49 635.60,423.74 634.66,425.25C633.28,427.47 633.22,428.00 634.36,428.00C635.14,428.00 636.51,426.88 637.41,425.50C639.48,422.33 641.17,422.27 640.61,425.39C640.25,427.37 640.67,427.88 643.06,428.36C646.64,429.08 662.00,427.97 662.00,426.99C662.00,426.60 660.89,424.64 659.53,422.64C658.17,420.64 657.47,419.00 657.96,419.00C659.02,419.00 663.00,424.36 663.00,425.78C663.00,426.32 663.75,427.37 664.67,428.13C666.19,429.38 666.28,429.19 665.66,426.08C664.75,421.49 660.48,416.10 656.40,414.39C652.12,412.61 643.88,412.61 639.60,414.39C634.43,416.55 628.76,425.18 630.57,428.12C631.00,428.80 631.84,427.92 632.69,425.88C633.47,424.03 635.06,421.50 636.23,420.26ZM734.50,427.00C734.12,426.38 724.66,426.00 709.44,426.00C693.81,426.00 685.00,426.36 685.00,427.00C685.00,427.64 694.02,428.00 710.06,428.00C726.51,428.00 734.91,427.66 734.50,427.00ZM738.91,410.59C738.02,409.76 737.89,410.32 738.37,412.88C738.72,414.73 739.09,419.01 739.20,422.38C739.37,427.50 739.46,427.12 739.75,420.09C739.97,414.53 739.69,411.32 738.91,410.59ZM656.00,426.00C654.82,425.24 654.79,425.03 655.87,425.02C656.98,425.00 657.00,424.71 656.00,423.50C655.32,422.68 655.19,422.00 655.72,422.00C656.78,422.00 660.00,425.26 660.00,426.33C660.00,427.31 657.74,427.12 656.00,426.00ZM468.74,406.25C468.55,402.54 468.39,405.57 468.39,413.00C468.39,420.43 468.55,423.46 468.74,419.75C468.93,416.04 468.93,409.96 468.74,406.25ZM343.36,417.92C346.89,405.22 354.34,386.68 357.24,383.38C360.91,379.20 366.42,377.61 374.87,378.28C385.55,379.13 387.90,382.10 397.60,407.00C402.65,419.98 406.00,426.48 406.00,423.32C406.00,421.33 394.16,392.97 390.70,386.65C386.00,378.09 382.99,376.50 371.50,376.50C359.37,376.50 357.15,377.77 352.64,387.26C347.53,398.04 338.89,424.00 340.42,424.00C341.11,424.00 342.43,421.27 343.36,417.92ZM610.37,420.75C610.70,419.51 610.98,418.05 610.99,417.50C611.00,416.85 601.53,416.60 584.00,416.78C567.44,416.95 557.00,417.44 557.00,418.03C557.00,418.56 558.69,419.03 560.75,419.06C562.81,419.09 566.30,419.49 568.50,419.94C571.81,420.63 570.87,420.80 563.00,420.96C556.67,421.08 554.17,421.43 555.50,422.00C556.60,422.47 569.26,422.89 583.63,422.93L609.77,423.00L610.37,420.75ZM728.00,422.00C729.03,421.33 726.54,420.99 720.00,420.90C712.21,420.79 711.22,420.62 714.50,419.94C716.70,419.49 720.64,419.09 723.25,419.06C725.86,419.03 728.00,418.55 728.00,418.00C728.00,417.36 719.67,417.00 705.00,417.00C680.76,417.00 680.90,416.97 682.61,421.42C683.13,422.79 686.03,423.00 704.86,422.98C717.10,422.98 727.15,422.55 728.00,422.00ZM383.25,416.35C385.86,415.52 388.00,414.37 388.00,413.79C388.00,411.28 383.49,405.78 379.94,403.97C375.45,401.68 368.35,401.41 363.70,403.35C360.10,404.85 354.00,411.26 354.00,413.53C354.00,415.96 356.60,415.18 357.88,412.37C358.54,410.92 359.32,409.99 359.62,410.29C359.92,410.58 359.63,411.82 358.99,413.02C358.14,414.61 358.12,415.52 358.91,416.31C359.70,417.10 360.00,416.94 360.00,415.76C360.00,413.80 364.92,407.91 364.97,409.82C364.99,410.54 364.53,412.00 363.96,413.07C362.98,414.91 363.34,415.00 371.59,415.00C378.84,415.00 380.06,414.78 379.10,413.62C378.21,412.55 378.29,412.10 379.42,411.67C380.79,411.14 382.81,414.52 381.76,415.57C381.53,415.81 376.87,416.18 371.42,416.40C365.96,416.61 361.27,416.91 361.00,417.05C360.73,417.20 362.75,417.63 365.50,418.02C371.54,418.87 376.91,418.37 383.25,416.35ZM335.67,414.50C336.07,413.31 284.59,414.07 283.40,415.27C282.98,415.69 294.49,415.91 308.98,415.77C325.42,415.60 335.46,415.12 335.67,414.50ZM464.00,415.00C464.00,414.36 454.09,414.01 436.25,414.02C417.96,414.03 409.01,414.36 410.00,415.00C412.06,416.33 464.00,416.33 464.00,415.00ZM396.68,410.81C396.36,410.01 396.13,410.25 396.08,411.42C396.04,412.47 396.27,413.06 396.60,412.73C396.94,412.40 396.97,411.53 396.68,410.81ZM337.82,409.08C338.14,407.02 337.88,407.00 315.07,407.00C301.20,407.00 292.00,407.38 292.00,407.95C292.00,408.47 294.36,409.06 297.25,409.26L302.50,409.63L296.50,410.02C288.98,410.51 314.39,411.57 328.00,411.33C336.80,411.18 337.52,411.01 337.82,409.08ZM447.38,410.84C454.59,410.75 458.93,410.46 457.00,410.20L453.50,409.72L458.00,408.46C461.91,407.36 458.87,407.18 434.55,407.10C417.62,407.04 406.97,407.36 407.55,407.92C408.07,408.42 409.62,409.03 411.00,409.28C413.35,409.70 413.32,409.75 410.50,410.06C408.85,410.24 412.23,410.68 418.00,411.03C423.77,411.39 429.79,411.52 431.38,411.34C432.96,411.15 440.16,410.93 447.38,410.84ZM366.00,407.00C366.00,406.45 366.48,406.00 367.06,406.00C367.64,406.00 367.84,406.45 367.50,407.00C367.16,407.55 366.68,408.00 366.44,408.00C366.20,408.00 366.00,407.55 366.00,407.00ZM656.00,402.93C656.00,396.95 654.72,396.00 646.66,396.00C638.30,396.00 637.00,396.83 637.00,402.20L637.00,406.00L646.50,406.00L656.00,406.00L656.00,402.93ZM393.68,402.81C393.36,402.01 393.13,402.25 393.08,403.42C393.04,404.47 393.27,405.06 393.60,404.73C393.94,404.40 393.97,403.53 393.68,402.81ZM392.68,399.81C392.36,399.01 392.13,399.25 392.08,400.42C392.04,401.47 392.27,402.06 392.60,401.73C392.94,401.40 392.97,400.53 392.68,399.81ZM566.49,395.50C568.10,385.01 570.21,373.46 570.57,373.09C571.32,372.34 571.02,380.31 570.08,386.05C569.58,389.10 568.46,393.15 567.60,395.05C566.03,398.50 566.03,398.50 566.49,395.50ZM697.43,389.80C694.79,385.79 691.31,380.79 689.70,378.70C684.72,372.28 687.49,373.48 692.81,380.05C698.00,386.47 703.56,395.77 702.71,396.62C702.44,396.89 700.07,393.82 697.43,389.80ZM377.50,393.62C379.30,392.31 379.31,392.12 377.67,389.62C374.57,384.89 365.00,386.68 365.00,391.99C365.00,393.00 365.56,394.06 366.25,394.34C368.84,395.38 375.69,394.95 377.50,393.62ZM389.68,392.81C389.36,392.01 389.13,392.25 389.08,393.42C389.04,394.47 389.27,395.06 389.60,394.73C389.94,394.40 389.97,393.53 389.68,392.81ZM575.51,387.50C575.81,383.10 576.09,374.44 576.13,368.25C576.17,362.05 576.57,356.77 577.01,356.49C578.55,355.54 579.32,373.26 578.13,382.19C576.51,394.43 574.80,397.88 575.51,387.50ZM684.67,391.33C684.30,390.97 684.00,390.20 684.00,389.63C684.00,389.01 684.47,389.07 685.18,389.78C685.83,390.43 686.13,391.20 685.85,391.48C685.57,391.77 685.03,391.70 684.67,391.33ZM384.54,383.07C384.18,382.48 383.40,382.00 382.82,382.00C382.16,382.00 382.23,382.57 383.02,383.52C384.39,385.18 385.62,384.81 384.54,383.07ZM614.71,383.00C614.37,381.62 613.40,377.26 612.55,373.30C611.69,369.34 609.84,362.43 608.43,357.96C607.01,353.48 606.07,349.59 606.34,349.32C608.34,347.33 616.93,378.58 615.76,383.59C615.39,385.21 615.23,385.13 614.71,383.00ZM686.67,384.33C686.30,383.97 686.00,383.20 686.00,382.63C686.00,382.01 686.47,382.07 687.18,382.78C687.83,383.43 688.13,384.20 687.85,384.48C687.57,384.77 687.03,384.70 686.67,384.33ZM462.00,383.10C462.00,380.31 490.02,358.69 491.60,360.26C491.91,360.58 491.26,361.33 490.14,361.93C489.02,362.52 482.23,367.73 475.05,373.49C467.87,379.26 462.00,383.58 462.00,383.10ZM676.20,371.94C671.08,366.50 663.76,359.72 659.93,356.88C652.58,351.42 651.27,349.17 657.70,353.08C668.39,359.58 676.73,367.44 683.92,377.81C688.12,383.85 685.60,381.94 676.20,371.94ZM442.00,380.15C442.00,378.53 454.79,367.20 462.51,362.00C476.47,352.57 505.24,338.89 510.73,339.05C511.70,339.08 510.25,340.01 507.50,341.12C498.43,344.77 486.45,350.68 476.70,356.31C467.74,361.48 447.91,375.72 446.51,377.98C445.58,379.49 442.00,381.21 442.00,380.15ZM622.00,374.75C622.00,374.61 620.87,371.38 619.49,367.58C616.68,359.81 616.93,357.34 619.85,364.15C621.98,369.12 623.46,375.00 622.58,375.00C622.26,375.00 622.00,374.89 622.00,374.75ZM483.50,373.00C483.84,372.45 484.57,372.00 485.12,372.00C485.67,372.00 485.84,372.45 485.50,373.00C485.16,373.55 484.43,374.00 483.88,374.00C483.33,374.00 483.16,373.55 483.50,373.00ZM593.03,363.81C592.30,359.30 590.87,352.89 589.86,349.56C588.84,346.22 588.02,342.82 588.02,342.00C588.04,339.25 589.85,343.00 592.09,350.41C594.00,356.71 595.93,372.00 594.82,372.00C594.57,372.00 593.76,368.31 593.03,363.81ZM411.50,368.00C412.50,366.90 413.76,366.00 414.31,366.00C414.86,366.00 414.50,366.90 413.50,368.00C412.50,369.10 411.24,370.00 410.69,370.00C410.14,370.00 410.50,369.10 411.50,368.00ZM445.50,368.00C445.84,367.45 446.57,367.00 447.12,367.00C447.67,367.00 447.84,367.45 447.50,368.00C447.16,368.55 446.43,369.00 445.88,369.00C445.33,369.00 445.16,368.55 445.50,368.00ZM402.00,367.62C402.00,366.99 412.18,359.59 417.50,356.37C428.99,349.40 464.90,334.89 470.18,335.09C472.48,335.17 472.48,335.18 470.00,335.96C457.83,339.82 435.69,350.54 428.41,356.11C423.18,360.10 420.79,361.16 423.00,358.50C423.68,357.68 423.88,357.00 423.44,357.00C422.31,357.00 409.05,363.88 405.85,366.14C403.30,367.93 402.00,368.43 402.00,367.62ZM417.50,363.00C418.50,361.90 419.76,361.00 420.31,361.00C420.86,361.00 420.50,361.90 419.50,363.00C418.50,364.10 417.24,365.00 416.69,365.00C416.14,365.00 416.50,364.10 417.50,363.00ZM394.75,361.14C398.53,357.90 411.37,350.51 415.00,349.48C418.85,348.39 416.43,350.27 408.50,354.53C404.65,356.60 399.56,359.58 397.20,361.15C391.76,364.76 390.52,364.76 394.75,361.14ZM440.50,363.00C442.28,360.12 464.53,347.20 465.69,348.36C465.96,348.63 464.72,349.61 462.93,350.54C461.13,351.47 455.53,354.87 450.49,358.11C441.43,363.92 439.28,364.97 440.50,363.00ZM451.49,363.01C452.43,361.49 461.08,355.75 461.62,356.28C461.88,356.55 459.88,358.39 457.16,360.38C452.24,364.00 450.34,364.88 451.49,363.01ZM638.55,354.45C634.82,350.30 632.06,346.60 632.42,346.24C633.09,345.58 639.13,351.73 643.77,357.78C648.57,364.04 645.29,361.95 638.55,354.45ZM604.50,347.00C604.12,345.82 604.04,344.62 604.32,344.35C604.59,344.07 605.12,344.82 605.50,346.00C605.88,347.18 605.96,348.38 605.68,348.65C605.41,348.93 604.88,348.18 604.50,347.00ZM629.50,345.00C629.16,344.45 629.33,344.00 629.88,344.00C630.43,344.00 631.16,344.45 631.50,345.00C631.84,345.55 631.67,346.00 631.12,346.00C630.57,346.00 629.84,345.55 629.50,345.00Z"/></svg>