<?xml version="1.0" encoding="UTF-8" standalone="no"?>
<!DOCTYPE svg PUBLIC "-//W3C//DTD SVG 1.1//EN" "http://www.w3.org/Graphics/SVG/1.1/DTD/svg11.dtd">
<svg width="100%" height="100%" viewBox="0 0 1024 1024" version="1.1" xmlns="http://www.w3.org/2000/svg" xmlns:xlink="http://www.w3.org/1999/xlink" xml:space="preserve" xmlns:serif="http://www.serif.com/" style="fill-rule:evenodd;clip-rule:evenodd;">
    <path d="M623,812.35C615.58,809.38 592.99,800.39 572.82,792.38C549.98,783.31 535.91,777.2 535.52,776.2C535.14,775.21 536.38,772.45 538.75,769.04C540.87,765.99 546.21,758.33 550.63,752C560.95,737.23 587.62,698.78 591.43,693.18C595.56,687.11 598.8,685.64 602.3,688.25C603.63,689.24 604.29,692.93 605.49,706C607.38,726.51 607.91,730 609.19,730C614.44,730 647.83,718.01 663.5,710.5C708.37,688.98 748.13,649.87 769.71,606C775.77,593.69 782.11,575.18 783.54,565.61C784.09,561.89 784.49,561.12 785.19,562.38C787.28,566.12 782.73,608.68 778.48,625.09C773.68,643.61 764.01,664.99 752.74,682C735.78,707.59 710.22,732.08 682,749.78C666.48,759.51 641.7,771.44 628.69,775.44C625.26,776.49 623.05,777.7 623.31,778.37C623.55,779 628.31,786.65 633.88,795.36C639.44,804.07 644,812.02 644,813.04C644,815.11 640.36,818.06 638.03,817.89C637.19,817.82 630.42,815.33 623,812.35Z" style="stroke:rgb(43,43,43);stroke-width:1px;"/>
    <path d="M385.75,815.92C382.76,814.18 383.74,810.11 388.82,803.12C397.12,791.73 405.18,779.84 404.83,779.5C404.65,779.32 399.77,777.31 394,775.02C355.62,759.82 318.71,733.67 294.66,704.65C262.42,665.76 245.16,622.67 243.5,577L243.01,563.5L245.87,572C258.31,609.05 278.5,640.86 307.12,668.5C329.88,690.49 356.44,707.08 390.02,720.31C400.9,724.59 421.99,731.34 422.6,730.74C422.86,730.47 424.34,714.64 425.65,698C426.48,687.41 429.41,683.68 434.08,687.28C434.95,687.95 440.66,695.92 446.76,705C459.32,723.66 485.54,762.08 491.34,770.32C495.66,776.45 495.41,778.86 490.29,780.76C486.8,782.06 477.64,785.41 470.75,787.9C462.47,790.9 450.32,795.49 440,799.51C434.77,801.55 428.02,804.04 425,805.05C411.49,809.53 398.24,814.23 395.35,815.56C391.69,817.23 388.23,817.36 385.75,815.92Z" style="stroke:rgb(43,43,43);stroke-width:1px;"/>
    <g transform="matrix(0.615413,-0.788205,0.788205,0.615413,-244.201,460.913)">
        <path d="M350.216,397.899C350.216,397.899 386.129,488.681 386.129,527.587C386.129,547.408 370.037,563.5 350.216,563.5C330.395,563.5 314.303,547.408 314.303,527.587C314.303,488.681 350.216,397.899 350.216,397.899Z" style="fill:rgb(13,13,13);"/>
    </g>
    <g transform="matrix(0.668664,-0.743565,0.743565,0.668664,-192.277,445.402)">
        <path d="M403.634,364.898C403.634,364.898 423.081,454.257 423.081,492.553C423.081,503.286 414.367,512 403.634,512C392.901,512 384.187,503.286 384.187,492.553C384.187,454.257 403.634,364.898 403.634,364.898Z" style="fill:rgb(13,13,13);"/>
    </g>
    <g transform="matrix(0.930748,0.365661,-0.365661,0.930748,490.806,-205.333)">
        <path d="M350.216,397.899C350.216,397.899 386.129,488.681 386.129,527.587C386.129,547.408 370.037,563.5 350.216,563.5C330.395,563.5 314.303,547.408 314.303,527.587C314.303,488.681 350.216,397.899 350.216,397.899Z" style="fill:rgb(13,13,13);"/>
    </g>
    <g transform="matrix(0.903108,0.429414,-0.429414,0.903108,520.452,-159.969)">
        <path d="M403.634,364.898C403.634,364.898 423.081,454.257 423.081,492.553C423.081,503.286 414.367,512 403.634,512C392.901,512 384.187,503.286 384.187,492.553C384.187,454.257 403.634,364.898 403.634,364.898Z" style="fill:rgb(13,13,13);"/>
    </g>
</svg>
